<?xml version="1.0" encoding="UTF-8" standalone="no"?>
<!DOCTYPE svg PUBLIC "-//W3C//DTD SVG 1.1//EN"
 "http://www.w3.org/Graphics/SVG/1.1/DTD/svg11.dtd">
<!-- Generated by graphviz version 2.26.3 (20100126.1600)
 -->
<!-- Title: g Pages: 1 -->
<svg width="206pt" height="302pt"
 viewBox="0.00 0.00 206.00 302.00" xmlns="http://www.w3.org/2000/svg" xmlns:xlink="http://www.w3.org/1999/xlink">
<g id="graph1" class="graph" transform="scale(1 1) rotate(0) translate(4 298)">
<title>g</title>
<polygon fill="white" stroke="white" points="-4,5 -4,-298 203,-298 203,5 -4,5"/>
<!-- andreas -->
<g id="node1" class="node"><title>andreas</title>
<polygon fill="#fcee7d" stroke="#fcee7d" stroke-width="1.5" points="138,-294 60,-294 48,-282 48,-270 60,-258 138,-258 150,-270 150,-282 138,-294"/>
<path fill="#fcee7d" stroke="#fcee7d" stroke-width="1.5" d="M60,-294C54,-294 48,-288 48,-282"/>
<path fill="#fcee7d" stroke="#fcee7d" stroke-width="1.5" d="M48,-270C48,-264 54,-258 60,-258"/>
<path fill="#fcee7d" stroke="#fcee7d" stroke-width="1.5" d="M138,-258C144,-258 150,-264 150,-270"/>
<path fill="#fcee7d" stroke="#fcee7d" stroke-width="1.5" d="M150,-282C150,-288 144,-294 138,-294"/>
<polyline fill="none" stroke="#2e3436" stroke-width="1.5" points="138,-294 60,-294 "/>
<path fill="none" stroke="#2e3436" stroke-width="1.5" d="M60,-294C54,-294 48,-288 48,-282"/>
<polyline fill="none" stroke="#2e3436" stroke-width="1.5" points="48,-282 48,-270 "/>
<path fill="none" stroke="#2e3436" stroke-width="1.5" d="M48,-270C48,-264 54,-258 60,-258"/>
<polyline fill="none" stroke="#2e3436" stroke-width="1.5" points="60,-258 138,-258 "/>
<path fill="none" stroke="#2e3436" stroke-width="1.5" d="M138,-258C144,-258 150,-264 150,-270"/>
<polyline fill="none" stroke="#2e3436" stroke-width="1.5" points="150,-270 150,-282 "/>
<path fill="none" stroke="#2e3436" stroke-width="1.5" d="M150,-282C150,-288 144,-294 138,-294"/>
<text text-anchor="middle" x="99" y="-273.5" font-family="FreeSans" font-size="10.00" fill="#1c2021">Andreas Kollegger</text>
</g>
<!-- status1 -->
<g id="node2" class="node"><title>status1</title>
<polygon fill="#ffffff" stroke="#ffffff" stroke-width="1.5" points="179,-208 19,-208 7,-196 7,-184 19,-172 179,-172 191,-184 191,-196 179,-208"/>
<path fill="#ffffff" stroke="#ffffff" stroke-width="1.5" d="M19,-208C13,-208 7,-202 7,-196"/>
<path fill="#ffffff" stroke="#ffffff" stroke-width="1.5" d="M7,-184C7,-178 13,-172 19,-172"/>
<path fill="#ffffff" stroke="#ffffff" stroke-width="1.5" d="M179,-172C185,-172 191,-178 191,-184"/>
<path fill="#ffffff" stroke="#ffffff" stroke-width="1.5" d="M191,-196C191,-202 185,-208 179,-208"/>
<polyline fill="none" stroke="#2e3436" stroke-width="1.5" points="179,-208 19,-208 "/>
<path fill="none" stroke="#2e3436" stroke-width="1.5" d="M19,-208C13,-208 7,-202 7,-196"/>
<polyline fill="none" stroke="#2e3436" stroke-width="1.5" points="7,-196 7,-184 "/>
<path fill="none" stroke="#2e3436" stroke-width="1.5" d="M7,-184C7,-178 13,-172 19,-172"/>
<polyline fill="none" stroke="#2e3436" stroke-width="1.5" points="19,-172 179,-172 "/>
<path fill="none" stroke="#2e3436" stroke-width="1.5" d="M179,-172C185,-172 191,-178 191,-184"/>
<polyline fill="none" stroke="#2e3436" stroke-width="1.5" points="191,-184 191,-196 "/>
<path fill="none" stroke="#2e3436" stroke-width="1.5" d="M191,-196C191,-202 185,-208 179,-208"/>
<text text-anchor="middle" x="99" y="-194" font-family="FreeSans" font-size="10.00" fill="#1c2021">started designing this graph model</text>
<text text-anchor="middle" x="99" y="-181" font-family="FreeSans" font-size="10.00" fill="#1c2021">9:30 am</text>
</g>
<!-- andreas&#45;&gt;status1 -->
<g id="edge2" class="edge"><title>andreas&#45;&gt;status1</title>
<path fill="none" stroke="#2e3436" stroke-width="2" d="M99,-257.762C99,-245.562 99,-229.327 99,-215.808"/>
<polygon fill="#2e3436" stroke="#2e3436" points="99,-208.212 102.375,-215.712 99.5,-211.962 99.5001,-215.712 99.0001,-215.712 98.5001,-215.712 98.5,-211.962 95.6251,-215.712 99,-208.212 99,-208.212"/>
<text text-anchor="middle" x="114.5" y="-230.5" font-family="FreeSans" font-size="10.00" fill="#1c2021">status</text>
</g>
<!-- status2 -->
<g id="node3" class="node"><title>status2</title>
<polygon fill="#ffffff" stroke="#ffffff" stroke-width="1.5" points="186,-122 12,-122 3.78956e-14,-110 1.89478e-14,-98 12,-86 186,-86 198,-98 198,-110 186,-122"/>
<path fill="#ffffff" stroke="#ffffff" stroke-width="1.5" d="M12,-122C6,-122 4.73695e-14,-116 3.78956e-14,-110"/>
<path fill="#ffffff" stroke="#ffffff" stroke-width="1.5" d="M1.89478e-14,-98C9.4739e-15,-92 6,-86 12,-86"/>
<path fill="#ffffff" stroke="#ffffff" stroke-width="1.5" d="M186,-86C192,-86 198,-92 198,-98"/>
<path fill="#ffffff" stroke="#ffffff" stroke-width="1.5" d="M198,-110C198,-116 192,-122 186,-122"/>
<polyline fill="none" stroke="#2e3436" stroke-width="1.5" points="186,-122 12,-122 "/>
<path fill="none" stroke="#2e3436" stroke-width="1.5" d="M12,-122C6,-122 4.73695e-14,-116 3.78956e-14,-110"/>
<polyline fill="none" stroke="#2e3436" stroke-width="1.5" points="3.78956e-14,-110 1.89478e-14,-98 "/>
<path fill="none" stroke="#2e3436" stroke-width="1.5" d="M1.89478e-14,-98C9.4739e-15,-92 6,-86 12,-86"/>
<polyline fill="none" stroke="#2e3436" stroke-width="1.5" points="12,-86 186,-86 "/>
<path fill="none" stroke="#2e3436" stroke-width="1.5" d="M186,-86C192,-86 198,-92 198,-98"/>
<polyline fill="none" stroke="#2e3436" stroke-width="1.5" points="198,-98 198,-110 "/>
<path fill="none" stroke="#2e3436" stroke-width="1.5" d="M198,-110C198,-116 192,-122 186,-122"/>
<text text-anchor="middle" x="99" y="-108" font-family="FreeSans" font-size="10.00" fill="#1c2021">rode my awesome Skeppshult to work</text>
<text text-anchor="middle" x="99" y="-95" font-family="FreeSans" font-size="10.00" fill="#1c2021">8:45 am</text>
</g>
<!-- status1&#45;&gt;status2 -->
<g id="edge4" class="edge"><title>status1&#45;&gt;status2</title>
<path fill="none" stroke="#2e3436" stroke-width="2" d="M99,-171.762C99,-159.562 99,-143.327 99,-129.808"/>
<polygon fill="#2e3436" stroke="#2e3436" points="99,-122.212 102.375,-129.712 99.5,-125.962 99.5001,-129.712 99.0001,-129.712 98.5001,-129.712 98.5,-125.962 95.6251,-129.712 99,-122.212 99,-122.212"/>
<text text-anchor="middle" x="110" y="-144.5" font-family="FreeSans" font-size="10.00" fill="#1c2021">next</text>
</g>
<!-- status3 -->
<g id="node4" class="node"><title>status3</title>
<polygon fill="#ffffff" stroke="#ffffff" stroke-width="1.5" points="186,-36 12,-36 4.73695e-14,-24 2.36848e-14,-12 12,-1.69023e-14 186,-4.41398e-15 198,-12 198,-24 186,-36"/>
<path fill="#ffffff" stroke="#ffffff" stroke-width="1.5" d="M12,-36C6,-36 5.92119e-14,-30 4.73695e-14,-24"/>
<path fill="#ffffff" stroke="#ffffff" stroke-width="1.5" d="M2.36848e-14,-12C1.18424e-14,-6 6,-1.73329e-14 12,-1.69023e-14"/>
<path fill="#ffffff" stroke="#ffffff" stroke-width="1.5" d="M186,-4.41398e-15C192,-3.98335e-15 198,-6 198,-12"/>
<path fill="#ffffff" stroke="#ffffff" stroke-width="1.5" d="M198,-24C198,-30 192,-36 186,-36"/>
<polyline fill="none" stroke="#2e3436" stroke-width="1.5" points="186,-36 12,-36 "/>
<path fill="none" stroke="#2e3436" stroke-width="1.5" d="M12,-36C6,-36 5.92119e-14,-30 4.73695e-14,-24"/>
<polyline fill="none" stroke="#2e3436" stroke-width="1.5" points="4.73695e-14,-24 2.36848e-14,-12 "/>
<path fill="none" stroke="#2e3436" stroke-width="1.5" d="M2.36848e-14,-12C1.18424e-14,-6 6,-1.73329e-14 12,-1.69023e-14"/>
<polyline fill="none" stroke="#2e3436" stroke-width="1.5" points="12,-1.69023e-14 186,-4.41398e-15 "/>
<path fill="none" stroke="#2e3436" stroke-width="1.5" d="M186,-4.41398e-15C192,-3.98335e-15 198,-6 198,-12"/>
<polyline fill="none" stroke="#2e3436" stroke-width="1.5" points="198,-12 198,-24 "/>
<path fill="none" stroke="#2e3436" stroke-width="1.5" d="M198,-24C198,-30 192,-36 186,-36"/>
<text text-anchor="middle" x="99" y="-22" font-family="FreeSans" font-size="10.00" fill="#1c2021">is getting used to muesli for breakfast</text>
<text text-anchor="middle" x="99" y="-9" font-family="FreeSans" font-size="10.00" fill="#1c2021">8:00 am</text>
</g>
<!-- status2&#45;&gt;status3 -->
<g id="edge6" class="edge"><title>status2&#45;&gt;status3</title>
<path fill="none" stroke="#2e3436" stroke-width="2" d="M99,-85.7616C99,-73.5615 99,-57.3273 99,-43.8076"/>
<polygon fill="#2e3436" stroke="#2e3436" points="99,-36.2121 102.375,-43.7121 99.5,-39.9621 99.5001,-43.7121 99.0001,-43.7121 98.5001,-43.7121 98.5,-39.9621 95.6251,-43.7121 99,-36.2121 99,-36.2121"/>
<text text-anchor="middle" x="110" y="-58.5" font-family="FreeSans" font-size="10.00" fill="#1c2021">next</text>
</g>
</g>
</svg>
