<?xml version="1.0" encoding="UTF-8" standalone="no"?>
<!DOCTYPE svg PUBLIC "-//W3C//DTD SVG 1.1//EN"
 "http://www.w3.org/Graphics/SVG/1.1/DTD/svg11.dtd">
<!-- Generated by graphviz version 2.26.3 (20100126.1600)
 -->
<!-- Title: g Pages: 1 -->
<svg width="98pt" height="130pt"
 viewBox="0.00 0.00 98.00 130.00" xmlns="http://www.w3.org/2000/svg" xmlns:xlink="http://www.w3.org/1999/xlink">
<g id="graph1" class="graph" transform="scale(1 1) rotate(0) translate(4 126)">
<title>g</title>
<polygon fill="white" stroke="white" points="-4,5 -4,-126 95,-126 95,5 -4,5"/>
<!-- Start node -->
<g id="node1" class="node"><title>Start node</title>
<polygon fill="#ffffff" stroke="#ffffff" stroke-width="1.5" points="56,-122 12,-122 2.36848e-14,-110 1.18424e-14,-98 12,-86 56,-86 68,-98 68,-110 56,-122"/>
<path fill="#ffffff" stroke="#ffffff" stroke-width="1.5" d="M12,-122C6,-122 2.96059e-14,-116 2.36848e-14,-110"/>
<path fill="#ffffff" stroke="#ffffff" stroke-width="1.5" d="M1.18424e-14,-98C5.92119e-15,-92 6,-86 12,-86"/>
<path fill="#ffffff" stroke="#ffffff" stroke-width="1.5" d="M56,-86C62,-86 68,-92 68,-98"/>
<path fill="#ffffff" stroke="#ffffff" stroke-width="1.5" d="M68,-110C68,-116 62,-122 56,-122"/>
<polyline fill="none" stroke="#2e3436" stroke-width="1.5" points="56,-122 12,-122 "/>
<path fill="none" stroke="#2e3436" stroke-width="1.5" d="M12,-122C6,-122 2.96059e-14,-116 2.36848e-14,-110"/>
<polyline fill="none" stroke="#2e3436" stroke-width="1.5" points="2.36848e-14,-110 1.18424e-14,-98 "/>
<path fill="none" stroke="#2e3436" stroke-width="1.5" d="M1.18424e-14,-98C5.92119e-15,-92 6,-86 12,-86"/>
<polyline fill="none" stroke="#2e3436" stroke-width="1.5" points="12,-86 56,-86 "/>
<path fill="none" stroke="#2e3436" stroke-width="1.5" d="M56,-86C62,-86 68,-92 68,-98"/>
<polyline fill="none" stroke="#2e3436" stroke-width="1.5" points="68,-98 68,-110 "/>
<path fill="none" stroke="#2e3436" stroke-width="1.5" d="M68,-110C68,-116 62,-122 56,-122"/>
<text text-anchor="middle" x="34" y="-101.5" font-family="FreeSans" font-size="10.00" fill="#1c2021">Start node</text>
</g>
<!-- End node -->
<g id="node3" class="node"><title>End node</title>
<polygon fill="#ffffff" stroke="#ffffff" stroke-width="1.5" points="53,-36 15,-36 3,-24 3,-12 15,-1.50131e-14 53,-6.3032e-15 65,-12 65,-24 53,-36"/>
<path fill="#ffffff" stroke="#ffffff" stroke-width="1.5" d="M15,-36C9,-36 3,-30 3,-24"/>
<path fill="#ffffff" stroke="#ffffff" stroke-width="1.5" d="M3,-12C3,-6 9,-1.63883e-14 15,-1.50131e-14"/>
<path fill="#ffffff" stroke="#ffffff" stroke-width="1.5" d="M53,-6.3032e-15C59,-4.92796e-15 65,-6 65,-12"/>
<path fill="#ffffff" stroke="#ffffff" stroke-width="1.5" d="M65,-24C65,-30 59,-36 53,-36"/>
<polyline fill="none" stroke="#2e3436" stroke-width="1.5" points="53,-36 15,-36 "/>
<path fill="none" stroke="#2e3436" stroke-width="1.5" d="M15,-36C9,-36 3,-30 3,-24"/>
<polyline fill="none" stroke="#2e3436" stroke-width="1.5" points="3,-24 3,-12 "/>
<path fill="none" stroke="#2e3436" stroke-width="1.5" d="M3,-12C3,-6 9,-1.63883e-14 15,-1.50131e-14"/>
<polyline fill="none" stroke="#2e3436" stroke-width="1.5" points="15,-1.50131e-14 53,-6.3032e-15 "/>
<path fill="none" stroke="#2e3436" stroke-width="1.5" d="M53,-6.3032e-15C59,-4.92796e-15 65,-6 65,-12"/>
<polyline fill="none" stroke="#2e3436" stroke-width="1.5" points="65,-12 65,-24 "/>
<path fill="none" stroke="#2e3436" stroke-width="1.5" d="M65,-24C65,-30 59,-36 53,-36"/>
<text text-anchor="middle" x="34" y="-15.5" font-family="FreeSans" font-size="10.00" fill="#1c2021">End node</text>
</g>
<!-- Start node&#45;&gt;End node -->
<g id="edge2" class="edge"><title>Start node&#45;&gt;End node</title>
<path fill="none" stroke="#2e3436" stroke-width="2" d="M34,-85.7616C34,-73.5615 34,-57.3273 34,-43.8076"/>
<polygon fill="#2e3436" stroke="#2e3436" points="34,-36.2121 37.3751,-43.7121 34.5,-39.9621 34.5001,-43.7121 34.0001,-43.7121 33.5001,-43.7121 33.5,-39.9621 30.6251,-43.7121 34,-36.2121 34,-36.2121"/>
<text text-anchor="middle" x="62" y="-58.5" font-family="FreeSans" font-size="10.00" fill="#1c2021">relationship</text>
</g>
</g>
</svg>
