<?xml version="1.0" encoding="UTF-8" standalone="no"?>
<!DOCTYPE svg PUBLIC "-//W3C//DTD SVG 1.1//EN"
 "http://www.w3.org/Graphics/SVG/1.1/DTD/svg11.dtd">
<!-- Generated by graphviz version 2.26.3 (20100126.1600)
 -->
<!-- Title: g Pages: 1 -->
<svg width="349pt" height="130pt"
 viewBox="0.00 0.00 349.00 130.00" xmlns="http://www.w3.org/2000/svg" xmlns:xlink="http://www.w3.org/1999/xlink">
<g id="graph1" class="graph" transform="scale(1 1) rotate(0) translate(4 126)">
<title>g</title>
<polygon fill="white" stroke="white" points="-4,5 -4,-126 346,-126 346,5 -4,5"/>
<!-- N1 -->
<g id="node1" class="node"><title>N1</title>
<polygon fill="#ffffff" stroke="#ffffff" stroke-width="1.5" points="12,-1 52,-1 64,-13 64,-25 52,-37 12,-37 0,-25 0,-13 12,-1"/>
<path fill="#ffffff" stroke="#ffffff" stroke-width="1.5" d="M52,-1C58,-1 64,-7 64,-13"/>
<path fill="#ffffff" stroke="#ffffff" stroke-width="1.5" d="M64,-25C64,-31 58,-37 52,-37"/>
<path fill="#ffffff" stroke="#ffffff" stroke-width="1.5" d="M12,-37C6,-37 0,-31 0,-25"/>
<path fill="#ffffff" stroke="#ffffff" stroke-width="1.5" d="M0,-13C0,-7 6,-1 12,-1"/>
<polyline fill="none" stroke="#2e3436" stroke-width="1.5" points="12,-1 52,-1 "/>
<path fill="none" stroke="#2e3436" stroke-width="1.5" d="M52,-1C58,-1 64,-7 64,-13"/>
<polyline fill="none" stroke="#2e3436" stroke-width="1.5" points="64,-13 64,-25 "/>
<path fill="none" stroke="#2e3436" stroke-width="1.5" d="M64,-25C64,-31 58,-37 52,-37"/>
<polyline fill="none" stroke="#2e3436" stroke-width="1.5" points="52,-37 12,-37 "/>
<path fill="none" stroke="#2e3436" stroke-width="1.5" d="M12,-37C6,-37 0,-31 0,-25"/>
<polyline fill="none" stroke="#2e3436" stroke-width="1.5" points="0,-25 0,-13 "/>
<path fill="none" stroke="#2e3436" stroke-width="1.5" d="M0,-13C0,-7 6,-1 12,-1"/>
<text text-anchor="middle" x="32" y="-25.8" font-family="FreeSans" font-size="8.00" fill="#1c2021">Node[1]</text>
<polyline fill="none" stroke="#2e3436" stroke-width="1.5" points="0,-19 64,-19 "/>
<text text-anchor="start" x="8" y="-7.8" font-family="FreeSans" font-size="8.00" fill="#1c2021">name = &#39;D&#39;</text>
</g>
<!-- N2 -->
<g id="node2" class="node"><title>N2</title>
<polygon fill="#ffffff" stroke="#ffffff" stroke-width="1.5" points="104.5,-1 143.5,-1 155.5,-13 155.5,-25 143.5,-37 104.5,-37 92.5,-25 92.5,-13 104.5,-1"/>
<path fill="#ffffff" stroke="#ffffff" stroke-width="1.5" d="M143.5,-1C149.5,-1 155.5,-7 155.5,-13"/>
<path fill="#ffffff" stroke="#ffffff" stroke-width="1.5" d="M155.5,-25C155.5,-31 149.5,-37 143.5,-37"/>
<path fill="#ffffff" stroke="#ffffff" stroke-width="1.5" d="M104.5,-37C98.5,-37 92.5,-31 92.5,-25"/>
<path fill="#ffffff" stroke="#ffffff" stroke-width="1.5" d="M92.5,-13C92.5,-7 98.5,-1 104.5,-1"/>
<polyline fill="none" stroke="#2e3436" stroke-width="1.5" points="104.5,-1 143.5,-1 "/>
<path fill="none" stroke="#2e3436" stroke-width="1.5" d="M143.5,-1C149.5,-1 155.5,-7 155.5,-13"/>
<polyline fill="none" stroke="#2e3436" stroke-width="1.5" points="155.5,-13 155.5,-25 "/>
<path fill="none" stroke="#2e3436" stroke-width="1.5" d="M155.5,-25C155.5,-31 149.5,-37 143.5,-37"/>
<polyline fill="none" stroke="#2e3436" stroke-width="1.5" points="143.5,-37 104.5,-37 "/>
<path fill="none" stroke="#2e3436" stroke-width="1.5" d="M104.5,-37C98.5,-37 92.5,-31 92.5,-25"/>
<polyline fill="none" stroke="#2e3436" stroke-width="1.5" points="92.5,-25 92.5,-13 "/>
<path fill="none" stroke="#2e3436" stroke-width="1.5" d="M92.5,-13C92.5,-7 98.5,-1 104.5,-1"/>
<text text-anchor="middle" x="124" y="-25.8" font-family="FreeSans" font-size="8.00" fill="#1c2021">Node[2]</text>
<polyline fill="none" stroke="#2e3436" stroke-width="1.5" points="92.5,-19 155.5,-19 "/>
<text text-anchor="start" x="100.5" y="-7.8" font-family="FreeSans" font-size="8.00" fill="#1c2021">name = &#39;E&#39;</text>
</g>
<!-- N3 -->
<g id="node3" class="node"><title>N3</title>
<polygon fill="#ffffff" stroke="#ffffff" stroke-width="1.5" points="150.5,-85 189.5,-85 201.5,-97 201.5,-109 189.5,-121 150.5,-121 138.5,-109 138.5,-97 150.5,-85"/>
<path fill="#ffffff" stroke="#ffffff" stroke-width="1.5" d="M189.5,-85C195.5,-85 201.5,-91 201.5,-97"/>
<path fill="#ffffff" stroke="#ffffff" stroke-width="1.5" d="M201.5,-109C201.5,-115 195.5,-121 189.5,-121"/>
<path fill="#ffffff" stroke="#ffffff" stroke-width="1.5" d="M150.5,-121C144.5,-121 138.5,-115 138.5,-109"/>
<path fill="#ffffff" stroke="#ffffff" stroke-width="1.5" d="M138.5,-97C138.5,-91 144.5,-85 150.5,-85"/>
<polyline fill="none" stroke="#2e3436" stroke-width="1.5" points="150.5,-85 189.5,-85 "/>
<path fill="none" stroke="#2e3436" stroke-width="1.5" d="M189.5,-85C195.5,-85 201.5,-91 201.5,-97"/>
<polyline fill="none" stroke="#2e3436" stroke-width="1.5" points="201.5,-97 201.5,-109 "/>
<path fill="none" stroke="#2e3436" stroke-width="1.5" d="M201.5,-109C201.5,-115 195.5,-121 189.5,-121"/>
<polyline fill="none" stroke="#2e3436" stroke-width="1.5" points="189.5,-121 150.5,-121 "/>
<path fill="none" stroke="#2e3436" stroke-width="1.5" d="M150.5,-121C144.5,-121 138.5,-115 138.5,-109"/>
<polyline fill="none" stroke="#2e3436" stroke-width="1.5" points="138.5,-109 138.5,-97 "/>
<path fill="none" stroke="#2e3436" stroke-width="1.5" d="M138.5,-97C138.5,-91 144.5,-85 150.5,-85"/>
<text text-anchor="middle" x="170" y="-109.8" font-family="FreeSans" font-size="8.00" fill="#1c2021">Node[3]</text>
<polyline fill="none" stroke="#2e3436" stroke-width="1.5" points="138.5,-103 201.5,-103 "/>
<text text-anchor="start" x="146.5" y="-91.8" font-family="FreeSans" font-size="8.00" fill="#1c2021">name = &#39;A&#39;</text>
</g>
<!-- N3&#45;&gt;N1 -->
<g id="edge6" class="edge"><title>N3&#45;&gt;N1</title>
<path fill="none" stroke="#2e3436" stroke-width="2" d="M138.812,-84.9217C128.633,-78.9582 117.302,-72.2512 107,-66 93.7995,-57.9898 79.4066,-49.0266 66.7912,-41.0927"/>
<polygon fill="#2e3436" stroke="#2e3436" points="60.3719,-37.0481 68.5166,-38.1907 63.8112,-38.6241 66.984,-40.6232 66.7174,-41.0462 66.4509,-41.4692 63.2781,-39.4702 64.9183,-43.9017 60.3719,-37.0481 60.3719,-37.0481"/>
<text text-anchor="middle" x="122.5" y="-58.8" font-family="FreeSans" font-size="8.00" fill="#2e3436">KNOWS</text>
</g>
<!-- N3&#45;&gt;N2 -->
<g id="edge8" class="edge"><title>N3&#45;&gt;N2</title>
<path fill="none" stroke="#2e3436" stroke-width="2" d="M160.019,-84.7733C153.448,-72.7751 144.764,-56.9174 137.569,-43.779"/>
<polygon fill="#2e3436" stroke="#2e3436" points="133.962,-37.1912 140.524,-42.1483 136.202,-40.2401 138.003,-43.5293 137.564,-43.7694 137.126,-44.0096 135.324,-40.7205 134.604,-45.3905 133.962,-37.1912 133.962,-37.1912"/>
<text text-anchor="middle" x="163.5" y="-58.8" font-family="FreeSans" font-size="8.00" fill="#2e3436">KNOWS</text>
</g>
<!-- N4 -->
<g id="node5" class="node"><title>N4</title>
<polygon fill="#ffffff" stroke="#ffffff" stroke-width="1.5" points="196,-1 236,-1 248,-13 248,-25 236,-37 196,-37 184,-25 184,-13 196,-1"/>
<path fill="#ffffff" stroke="#ffffff" stroke-width="1.5" d="M236,-1C242,-1 248,-7 248,-13"/>
<path fill="#ffffff" stroke="#ffffff" stroke-width="1.5" d="M248,-25C248,-31 242,-37 236,-37"/>
<path fill="#ffffff" stroke="#ffffff" stroke-width="1.5" d="M196,-37C190,-37 184,-31 184,-25"/>
<path fill="#ffffff" stroke="#ffffff" stroke-width="1.5" d="M184,-13C184,-7 190,-1 196,-1"/>
<polyline fill="none" stroke="#2e3436" stroke-width="1.5" points="196,-1 236,-1 "/>
<path fill="none" stroke="#2e3436" stroke-width="1.5" d="M236,-1C242,-1 248,-7 248,-13"/>
<polyline fill="none" stroke="#2e3436" stroke-width="1.5" points="248,-13 248,-25 "/>
<path fill="none" stroke="#2e3436" stroke-width="1.5" d="M248,-25C248,-31 242,-37 236,-37"/>
<polyline fill="none" stroke="#2e3436" stroke-width="1.5" points="236,-37 196,-37 "/>
<path fill="none" stroke="#2e3436" stroke-width="1.5" d="M196,-37C190,-37 184,-31 184,-25"/>
<polyline fill="none" stroke="#2e3436" stroke-width="1.5" points="184,-25 184,-13 "/>
<path fill="none" stroke="#2e3436" stroke-width="1.5" d="M184,-13C184,-7 190,-1 196,-1"/>
<text text-anchor="middle" x="216" y="-25.8" font-family="FreeSans" font-size="8.00" fill="#1c2021">Node[4]</text>
<polyline fill="none" stroke="#2e3436" stroke-width="1.5" points="184,-19 248,-19 "/>
<text text-anchor="start" x="192" y="-7.8" font-family="FreeSans" font-size="8.00" fill="#1c2021">name = &#39;B&#39;</text>
</g>
<!-- N3&#45;&gt;N4 -->
<g id="edge2" class="edge"><title>N3&#45;&gt;N4</title>
<path fill="none" stroke="#2e3436" stroke-width="2" d="M179.981,-84.7733C186.552,-72.7751 195.236,-56.9174 202.431,-43.779"/>
<polygon fill="#2e3436" stroke="#2e3436" points="206.038,-37.1912 205.396,-45.3905 204.676,-40.7205 202.874,-44.0096 202.436,-43.7694 201.997,-43.5293 203.798,-40.2401 199.476,-42.1483 206.038,-37.1912 206.038,-37.1912"/>
<text text-anchor="middle" x="209.5" y="-58.8" font-family="FreeSans" font-size="8.00" fill="#2e3436">KNOWS</text>
</g>
<!-- N5 -->
<g id="node7" class="node"><title>N5</title>
<polygon fill="#ffffff" stroke="#ffffff" stroke-width="1.5" points="289,-1 329,-1 341,-13 341,-25 329,-37 289,-37 277,-25 277,-13 289,-1"/>
<path fill="#ffffff" stroke="#ffffff" stroke-width="1.5" d="M329,-1C335,-1 341,-7 341,-13"/>
<path fill="#ffffff" stroke="#ffffff" stroke-width="1.5" d="M341,-25C341,-31 335,-37 329,-37"/>
<path fill="#ffffff" stroke="#ffffff" stroke-width="1.5" d="M289,-37C283,-37 277,-31 277,-25"/>
<path fill="#ffffff" stroke="#ffffff" stroke-width="1.5" d="M277,-13C277,-7 283,-1 289,-1"/>
<polyline fill="none" stroke="#2e3436" stroke-width="1.5" points="289,-1 329,-1 "/>
<path fill="none" stroke="#2e3436" stroke-width="1.5" d="M329,-1C335,-1 341,-7 341,-13"/>
<polyline fill="none" stroke="#2e3436" stroke-width="1.5" points="341,-13 341,-25 "/>
<path fill="none" stroke="#2e3436" stroke-width="1.5" d="M341,-25C341,-31 335,-37 329,-37"/>
<polyline fill="none" stroke="#2e3436" stroke-width="1.5" points="329,-37 289,-37 "/>
<path fill="none" stroke="#2e3436" stroke-width="1.5" d="M289,-37C283,-37 277,-31 277,-25"/>
<polyline fill="none" stroke="#2e3436" stroke-width="1.5" points="277,-25 277,-13 "/>
<path fill="none" stroke="#2e3436" stroke-width="1.5" d="M277,-13C277,-7 283,-1 289,-1"/>
<text text-anchor="middle" x="309" y="-25.8" font-family="FreeSans" font-size="8.00" fill="#1c2021">Node[5]</text>
<polyline fill="none" stroke="#2e3436" stroke-width="1.5" points="277,-19 341,-19 "/>
<text text-anchor="start" x="285" y="-7.8" font-family="FreeSans" font-size="8.00" fill="#1c2021">name = &#39;C&#39;</text>
</g>
<!-- N3&#45;&gt;N5 -->
<g id="edge4" class="edge"><title>N3&#45;&gt;N5</title>
<path fill="none" stroke="#2e3436" stroke-width="2" d="M200.31,-84.9939C210.403,-78.9758 221.698,-72.2182 232,-66 245.359,-57.9368 259.983,-49.0308 272.864,-41.1593"/>
<polygon fill="#2e3436" stroke="#2e3436" points="279.425,-37.1473 274.787,-43.9394 276.486,-39.5302 273.287,-41.4866 273.026,-41.0601 272.765,-40.6335 275.964,-38.6771 271.265,-38.1807 279.425,-37.1473 279.425,-37.1473"/>
<text text-anchor="middle" x="261.5" y="-58.8" font-family="FreeSans" font-size="8.00" fill="#2e3436">KNOWS</text>
</g>
</g>
</svg>
