<?xml version="1.0" encoding="UTF-8" standalone="no"?>
<!DOCTYPE svg PUBLIC "-//W3C//DTD SVG 1.1//EN"
 "http://www.w3.org/Graphics/SVG/1.1/DTD/svg11.dtd">
<!-- Generated by graphviz version 2.26.3 (20100126.1600)
 -->
<!-- Title: g Pages: 1 -->
<svg width="374pt" height="214pt"
 viewBox="0.00 0.00 374.00 214.00" xmlns="http://www.w3.org/2000/svg" xmlns:xlink="http://www.w3.org/1999/xlink">
<g id="graph1" class="graph" transform="scale(1 1) rotate(0) translate(4 210)">
<title>g</title>
<polygon fill="white" stroke="white" points="-4,5 -4,-210 371,-210 371,5 -4,5"/>
<!-- N1 -->
<g id="node1" class="node"><title>N1</title>
<polygon fill="#ffffff" stroke="#ffffff" stroke-width="1.5" points="188.5,-169 263.5,-169 275.5,-181 275.5,-193 263.5,-205 188.5,-205 176.5,-193 176.5,-181 188.5,-169"/>
<path fill="#ffffff" stroke="#ffffff" stroke-width="1.5" d="M263.5,-169C269.5,-169 275.5,-175 275.5,-181"/>
<path fill="#ffffff" stroke="#ffffff" stroke-width="1.5" d="M275.5,-193C275.5,-199 269.5,-205 263.5,-205"/>
<path fill="#ffffff" stroke="#ffffff" stroke-width="1.5" d="M188.5,-205C182.5,-205 176.5,-199 176.5,-193"/>
<path fill="#ffffff" stroke="#ffffff" stroke-width="1.5" d="M176.5,-181C176.5,-175 182.5,-169 188.5,-169"/>
<polyline fill="none" stroke="#2e3436" stroke-width="1.5" points="188.5,-169 263.5,-169 "/>
<path fill="none" stroke="#2e3436" stroke-width="1.5" d="M263.5,-169C269.5,-169 275.5,-175 275.5,-181"/>
<polyline fill="none" stroke="#2e3436" stroke-width="1.5" points="275.5,-181 275.5,-193 "/>
<path fill="none" stroke="#2e3436" stroke-width="1.5" d="M275.5,-193C275.5,-199 269.5,-205 263.5,-205"/>
<polyline fill="none" stroke="#2e3436" stroke-width="1.5" points="263.5,-205 188.5,-205 "/>
<path fill="none" stroke="#2e3436" stroke-width="1.5" d="M188.5,-205C182.5,-205 176.5,-199 176.5,-193"/>
<polyline fill="none" stroke="#2e3436" stroke-width="1.5" points="176.5,-193 176.5,-181 "/>
<path fill="none" stroke="#2e3436" stroke-width="1.5" d="M176.5,-181C176.5,-175 182.5,-169 188.5,-169"/>
<text text-anchor="middle" x="226" y="-193.8" font-family="FreeSans" font-size="8.00" fill="#1c2021">Node[1]</text>
<polyline fill="none" stroke="#2e3436" stroke-width="1.5" points="176.5,-187 275.5,-187 "/>
<text text-anchor="start" x="184.5" y="-175.8" font-family="FreeSans" font-size="8.00" fill="#1c2021">name = &#39;startnode&#39;</text>
</g>
<!-- N2 -->
<g id="node3" class="node"><title>N2</title>
<polygon fill="#ffffff" stroke="#ffffff" stroke-width="1.5" points="69,-85 99,-85 111,-97 111,-109 99,-121 69,-121 57,-109 57,-97 69,-85"/>
<path fill="#ffffff" stroke="#ffffff" stroke-width="1.5" d="M99,-85C105,-85 111,-91 111,-97"/>
<path fill="#ffffff" stroke="#ffffff" stroke-width="1.5" d="M111,-109C111,-115 105,-121 99,-121"/>
<path fill="#ffffff" stroke="#ffffff" stroke-width="1.5" d="M69,-121C63,-121 57,-115 57,-109"/>
<path fill="#ffffff" stroke="#ffffff" stroke-width="1.5" d="M57,-97C57,-91 63,-85 69,-85"/>
<polyline fill="none" stroke="#2e3436" stroke-width="1.5" points="69,-85 99,-85 "/>
<path fill="none" stroke="#2e3436" stroke-width="1.5" d="M99,-85C105,-85 111,-91 111,-97"/>
<polyline fill="none" stroke="#2e3436" stroke-width="1.5" points="111,-97 111,-109 "/>
<path fill="none" stroke="#2e3436" stroke-width="1.5" d="M111,-109C111,-115 105,-121 99,-121"/>
<polyline fill="none" stroke="#2e3436" stroke-width="1.5" points="99,-121 69,-121 "/>
<path fill="none" stroke="#2e3436" stroke-width="1.5" d="M69,-121C63,-121 57,-115 57,-109"/>
<polyline fill="none" stroke="#2e3436" stroke-width="1.5" points="57,-109 57,-97 "/>
<path fill="none" stroke="#2e3436" stroke-width="1.5" d="M57,-97C57,-91 63,-85 69,-85"/>
<text text-anchor="middle" x="84" y="-109.8" font-family="FreeSans" font-size="8.00" fill="#1c2021">Node[2]</text>
<polyline fill="none" stroke="#2e3436" stroke-width="1.5" points="57,-103 111,-103 "/>
<text text-anchor="middle" x="84" y="-91.8" font-family="FreeSans" font-size="8.00" fill="#1c2021"> </text>
</g>
<!-- N1&#45;&gt;N2 -->
<g id="edge2" class="edge"><title>N1&#45;&gt;N2</title>
<path fill="none" stroke="#2e3436" stroke-width="2" d="M188.924,-168.99C177.567,-163.196 165.136,-156.57 154,-150 141.235,-142.469 127.617,-133.543 115.818,-125.504"/>
<polygon fill="#2e3436" stroke="#2e3436" points="109.468,-121.143 117.561,-122.606 112.842,-122.854 115.933,-124.976 115.65,-125.389 115.367,-125.801 112.276,-123.678 113.74,-128.171 109.468,-121.143 109.468,-121.143"/>
<text text-anchor="middle" x="169.5" y="-142.8" font-family="FreeSans" font-size="8.00" fill="#2e3436">KNOWS</text>
</g>
<!-- N3 -->
<g id="node5" class="node"><title>N3</title>
<polygon fill="#ffffff" stroke="#ffffff" stroke-width="1.5" points="152,-85 182,-85 194,-97 194,-109 182,-121 152,-121 140,-109 140,-97 152,-85"/>
<path fill="#ffffff" stroke="#ffffff" stroke-width="1.5" d="M182,-85C188,-85 194,-91 194,-97"/>
<path fill="#ffffff" stroke="#ffffff" stroke-width="1.5" d="M194,-109C194,-115 188,-121 182,-121"/>
<path fill="#ffffff" stroke="#ffffff" stroke-width="1.5" d="M152,-121C146,-121 140,-115 140,-109"/>
<path fill="#ffffff" stroke="#ffffff" stroke-width="1.5" d="M140,-97C140,-91 146,-85 152,-85"/>
<polyline fill="none" stroke="#2e3436" stroke-width="1.5" points="152,-85 182,-85 "/>
<path fill="none" stroke="#2e3436" stroke-width="1.5" d="M182,-85C188,-85 194,-91 194,-97"/>
<polyline fill="none" stroke="#2e3436" stroke-width="1.5" points="194,-97 194,-109 "/>
<path fill="none" stroke="#2e3436" stroke-width="1.5" d="M194,-109C194,-115 188,-121 182,-121"/>
<polyline fill="none" stroke="#2e3436" stroke-width="1.5" points="182,-121 152,-121 "/>
<path fill="none" stroke="#2e3436" stroke-width="1.5" d="M152,-121C146,-121 140,-115 140,-109"/>
<polyline fill="none" stroke="#2e3436" stroke-width="1.5" points="140,-109 140,-97 "/>
<path fill="none" stroke="#2e3436" stroke-width="1.5" d="M140,-97C140,-91 146,-85 152,-85"/>
<text text-anchor="middle" x="167" y="-109.8" font-family="FreeSans" font-size="8.00" fill="#1c2021">Node[3]</text>
<polyline fill="none" stroke="#2e3436" stroke-width="1.5" points="140,-103 194,-103 "/>
<text text-anchor="middle" x="167" y="-91.8" font-family="FreeSans" font-size="8.00" fill="#1c2021"> </text>
</g>
<!-- N1&#45;&gt;N3 -->
<g id="edge4" class="edge"><title>N1&#45;&gt;N3</title>
<path fill="none" stroke="#2e3436" stroke-width="2" d="M212.422,-168.642C208.092,-162.721 203.307,-156.109 199,-150 193.948,-142.835 188.55,-134.984 183.654,-127.786"/>
<polygon fill="#2e3436" stroke="#2e3436" points="179.324,-121.398 186.326,-125.712 181.842,-124.221 183.946,-127.325 183.532,-127.606 183.118,-127.887 181.014,-124.783 180.739,-129.5 179.324,-121.398 179.324,-121.398"/>
<text text-anchor="middle" x="214.5" y="-142.8" font-family="FreeSans" font-size="8.00" fill="#2e3436">KNOWS</text>
</g>
<!-- N4 -->
<g id="node7" class="node"><title>N4</title>
<polygon fill="#ffffff" stroke="#ffffff" stroke-width="1.5" points="207,-1 237,-1 249,-13 249,-25 237,-37 207,-37 195,-25 195,-13 207,-1"/>
<path fill="#ffffff" stroke="#ffffff" stroke-width="1.5" d="M237,-1C243,-1 249,-7 249,-13"/>
<path fill="#ffffff" stroke="#ffffff" stroke-width="1.5" d="M249,-25C249,-31 243,-37 237,-37"/>
<path fill="#ffffff" stroke="#ffffff" stroke-width="1.5" d="M207,-37C201,-37 195,-31 195,-25"/>
<path fill="#ffffff" stroke="#ffffff" stroke-width="1.5" d="M195,-13C195,-7 201,-1 207,-1"/>
<polyline fill="none" stroke="#2e3436" stroke-width="1.5" points="207,-1 237,-1 "/>
<path fill="none" stroke="#2e3436" stroke-width="1.5" d="M237,-1C243,-1 249,-7 249,-13"/>
<polyline fill="none" stroke="#2e3436" stroke-width="1.5" points="249,-13 249,-25 "/>
<path fill="none" stroke="#2e3436" stroke-width="1.5" d="M249,-25C249,-31 243,-37 237,-37"/>
<polyline fill="none" stroke="#2e3436" stroke-width="1.5" points="237,-37 207,-37 "/>
<path fill="none" stroke="#2e3436" stroke-width="1.5" d="M207,-37C201,-37 195,-31 195,-25"/>
<polyline fill="none" stroke="#2e3436" stroke-width="1.5" points="195,-25 195,-13 "/>
<path fill="none" stroke="#2e3436" stroke-width="1.5" d="M195,-13C195,-7 201,-1 207,-1"/>
<text text-anchor="middle" x="222" y="-25.8" font-family="FreeSans" font-size="8.00" fill="#1c2021">Node[4]</text>
<polyline fill="none" stroke="#2e3436" stroke-width="1.5" points="195,-19 249,-19 "/>
<text text-anchor="middle" x="222" y="-7.8" font-family="FreeSans" font-size="8.00" fill="#1c2021"> </text>
</g>
<!-- N1&#45;&gt;N4 -->
<g id="edge6" class="edge"><title>N1&#45;&gt;N4</title>
<path fill="none" stroke="#2e3436" stroke-width="2" d="M230.173,-168.653C231.33,-162.732 232.426,-156.118 233,-150 236.9,-108.405 239.015,-97.3424 233,-56 232.461,-52.2987 231.635,-48.4526 230.671,-44.7009"/>
<polygon fill="#2e3436" stroke="#2e3436" points="228.55,-37.2088 233.841,-43.5056 230.053,-40.6807 231.075,-44.2889 230.593,-44.4251 230.112,-44.5613 229.091,-40.9532 227.346,-45.3446 228.55,-37.2088 228.55,-37.2088"/>
<text text-anchor="middle" x="251.5" y="-100.8" font-family="FreeSans" font-size="8.00" fill="#2e3436">KNOWS</text>
</g>
<!-- N5 -->
<g id="node9" class="node"><title>N5</title>
<polygon fill="#ffffff" stroke="#ffffff" stroke-width="1.5" points="324,-85 354,-85 366,-97 366,-109 354,-121 324,-121 312,-109 312,-97 324,-85"/>
<path fill="#ffffff" stroke="#ffffff" stroke-width="1.5" d="M354,-85C360,-85 366,-91 366,-97"/>
<path fill="#ffffff" stroke="#ffffff" stroke-width="1.5" d="M366,-109C366,-115 360,-121 354,-121"/>
<path fill="#ffffff" stroke="#ffffff" stroke-width="1.5" d="M324,-121C318,-121 312,-115 312,-109"/>
<path fill="#ffffff" stroke="#ffffff" stroke-width="1.5" d="M312,-97C312,-91 318,-85 324,-85"/>
<polyline fill="none" stroke="#2e3436" stroke-width="1.5" points="324,-85 354,-85 "/>
<path fill="none" stroke="#2e3436" stroke-width="1.5" d="M354,-85C360,-85 366,-91 366,-97"/>
<polyline fill="none" stroke="#2e3436" stroke-width="1.5" points="366,-97 366,-109 "/>
<path fill="none" stroke="#2e3436" stroke-width="1.5" d="M366,-109C366,-115 360,-121 354,-121"/>
<polyline fill="none" stroke="#2e3436" stroke-width="1.5" points="354,-121 324,-121 "/>
<path fill="none" stroke="#2e3436" stroke-width="1.5" d="M324,-121C318,-121 312,-115 312,-109"/>
<polyline fill="none" stroke="#2e3436" stroke-width="1.5" points="312,-109 312,-97 "/>
<path fill="none" stroke="#2e3436" stroke-width="1.5" d="M312,-97C312,-91 318,-85 324,-85"/>
<text text-anchor="middle" x="339" y="-109.8" font-family="FreeSans" font-size="8.00" fill="#1c2021">Node[5]</text>
<polyline fill="none" stroke="#2e3436" stroke-width="1.5" points="312,-103 366,-103 "/>
<text text-anchor="middle" x="339" y="-91.8" font-family="FreeSans" font-size="8.00" fill="#1c2021"> </text>
</g>
<!-- N1&#45;&gt;N5 -->
<g id="edge8" class="edge"><title>N1&#45;&gt;N5</title>
<path fill="none" stroke="#2e3436" stroke-width="2" d="M250.241,-168.98C267.106,-156.443 289.738,-139.619 307.927,-126.098"/>
<polygon fill="#2e3436" stroke="#2e3436" points="314.409,-121.28 310.403,-128.463 311.698,-123.919 308.688,-126.156 308.39,-125.755 308.091,-125.353 311.101,-123.116 306.376,-123.046 314.409,-121.28 314.409,-121.28"/>
<text text-anchor="middle" x="300.5" y="-142.8" font-family="FreeSans" font-size="8.00" fill="#2e3436">KNOWS</text>
</g>
<!-- N6 -->
<g id="node11" class="node"><title>N6</title>
<polygon fill="#ffffff" stroke="#ffffff" stroke-width="1.5" points="12,-1 42,-1 54,-13 54,-25 42,-37 12,-37 0,-25 0,-13 12,-1"/>
<path fill="#ffffff" stroke="#ffffff" stroke-width="1.5" d="M42,-1C48,-1 54,-7 54,-13"/>
<path fill="#ffffff" stroke="#ffffff" stroke-width="1.5" d="M54,-25C54,-31 48,-37 42,-37"/>
<path fill="#ffffff" stroke="#ffffff" stroke-width="1.5" d="M12,-37C6,-37 0,-31 0,-25"/>
<path fill="#ffffff" stroke="#ffffff" stroke-width="1.5" d="M0,-13C0,-7 6,-1 12,-1"/>
<polyline fill="none" stroke="#2e3436" stroke-width="1.5" points="12,-1 42,-1 "/>
<path fill="none" stroke="#2e3436" stroke-width="1.5" d="M42,-1C48,-1 54,-7 54,-13"/>
<polyline fill="none" stroke="#2e3436" stroke-width="1.5" points="54,-13 54,-25 "/>
<path fill="none" stroke="#2e3436" stroke-width="1.5" d="M54,-25C54,-31 48,-37 42,-37"/>
<polyline fill="none" stroke="#2e3436" stroke-width="1.5" points="42,-37 12,-37 "/>
<path fill="none" stroke="#2e3436" stroke-width="1.5" d="M12,-37C6,-37 0,-31 0,-25"/>
<polyline fill="none" stroke="#2e3436" stroke-width="1.5" points="0,-25 0,-13 "/>
<path fill="none" stroke="#2e3436" stroke-width="1.5" d="M0,-13C0,-7 6,-1 12,-1"/>
<text text-anchor="middle" x="27" y="-25.8" font-family="FreeSans" font-size="8.00" fill="#1c2021">Node[6]</text>
<polyline fill="none" stroke="#2e3436" stroke-width="1.5" points="0,-19 54,-19 "/>
<text text-anchor="middle" x="27" y="-7.8" font-family="FreeSans" font-size="8.00" fill="#1c2021"> </text>
</g>
<!-- N2&#45;&gt;N6 -->
<g id="edge10" class="edge"><title>N2&#45;&gt;N6</title>
<path fill="none" stroke="#2e3436" stroke-width="2" d="M71.6318,-84.7733C63.4155,-72.665 52.532,-56.6261 43.5694,-43.4181"/>
<polygon fill="#2e3436" stroke="#2e3436" points="39.344,-37.1912 46.3481,-41.5022 41.8634,-40.0135 43.9691,-43.1165 43.5553,-43.3973 43.1416,-43.678 41.0359,-40.575 40.7626,-45.2924 39.344,-37.1912 39.344,-37.1912"/>
<text text-anchor="middle" x="73.5" y="-58.8" font-family="FreeSans" font-size="8.00" fill="#2e3436">KNOWS</text>
</g>
<!-- N7 -->
<g id="node13" class="node"><title>N7</title>
<polygon fill="#ffffff" stroke="#ffffff" stroke-width="1.5" points="95,-1 125,-1 137,-13 137,-25 125,-37 95,-37 83,-25 83,-13 95,-1"/>
<path fill="#ffffff" stroke="#ffffff" stroke-width="1.5" d="M125,-1C131,-1 137,-7 137,-13"/>
<path fill="#ffffff" stroke="#ffffff" stroke-width="1.5" d="M137,-25C137,-31 131,-37 125,-37"/>
<path fill="#ffffff" stroke="#ffffff" stroke-width="1.5" d="M95,-37C89,-37 83,-31 83,-25"/>
<path fill="#ffffff" stroke="#ffffff" stroke-width="1.5" d="M83,-13C83,-7 89,-1 95,-1"/>
<polyline fill="none" stroke="#2e3436" stroke-width="1.5" points="95,-1 125,-1 "/>
<path fill="none" stroke="#2e3436" stroke-width="1.5" d="M125,-1C131,-1 137,-7 137,-13"/>
<polyline fill="none" stroke="#2e3436" stroke-width="1.5" points="137,-13 137,-25 "/>
<path fill="none" stroke="#2e3436" stroke-width="1.5" d="M137,-25C137,-31 131,-37 125,-37"/>
<polyline fill="none" stroke="#2e3436" stroke-width="1.5" points="125,-37 95,-37 "/>
<path fill="none" stroke="#2e3436" stroke-width="1.5" d="M95,-37C89,-37 83,-31 83,-25"/>
<polyline fill="none" stroke="#2e3436" stroke-width="1.5" points="83,-25 83,-13 "/>
<path fill="none" stroke="#2e3436" stroke-width="1.5" d="M83,-13C83,-7 89,-1 95,-1"/>
<text text-anchor="middle" x="110" y="-25.8" font-family="FreeSans" font-size="8.00" fill="#1c2021">Node[7]</text>
<polyline fill="none" stroke="#2e3436" stroke-width="1.5" points="83,-19 137,-19 "/>
<text text-anchor="middle" x="110" y="-7.8" font-family="FreeSans" font-size="8.00" fill="#1c2021"> </text>
</g>
<!-- N2&#45;&gt;N7 -->
<g id="edge12" class="edge"><title>N2&#45;&gt;N7</title>
<path fill="none" stroke="#2e3436" stroke-width="2" d="M89.6416,-84.7733C93.2872,-72.9952 98.0839,-57.4981 102.106,-44.5049"/>
<polygon fill="#2e3436" stroke="#2e3436" points="104.369,-37.1912 105.376,-45.3538 103.738,-40.9213 102.629,-44.5037 102.152,-44.3558 101.674,-44.208 102.783,-40.6257 98.9276,-43.3579 104.369,-37.1912 104.369,-37.1912"/>
<text text-anchor="middle" x="113.5" y="-58.8" font-family="FreeSans" font-size="8.00" fill="#2e3436">KNOWS</text>
</g>
<!-- N3&#45;&gt;N4 -->
<g id="edge14" class="edge"><title>N3&#45;&gt;N4</title>
<path fill="none" stroke="#2e3436" stroke-width="2" d="M178.934,-84.7733C186.79,-72.7751 197.173,-56.9174 205.776,-43.779"/>
<polygon fill="#2e3436" stroke="#2e3436" points="210.089,-37.1912 208.804,-45.3146 208.453,-40.6024 206.399,-43.7397 205.981,-43.4658 205.562,-43.1919 207.617,-40.0546 203.157,-41.617 210.089,-37.1912 210.089,-37.1912"/>
<text text-anchor="middle" x="211.5" y="-58.8" font-family="FreeSans" font-size="8.00" fill="#2e3436">KNOWS</text>
</g>
</g>
</svg>
