<?xml version="1.0" encoding="UTF-8" standalone="no"?>
<!DOCTYPE svg PUBLIC "-//W3C//DTD SVG 1.1//EN"
 "http://www.w3.org/Graphics/SVG/1.1/DTD/svg11.dtd">
<!-- Generated by graphviz version 2.26.3 (20100126.1600)
 -->
<!-- Title: g Pages: 1 -->
<svg width="404pt" height="382pt"
 viewBox="0.00 0.00 404.00 382.00" xmlns="http://www.w3.org/2000/svg" xmlns:xlink="http://www.w3.org/1999/xlink">
<g id="graph1" class="graph" transform="scale(1 1) rotate(0) translate(4 378)">
<title>g</title>
<polygon fill="white" stroke="white" points="-4,5 -4,-378 401,-378 401,5 -4,5"/>
<!-- root -->
<g id="node1" class="node"><title>root</title>
<polygon fill="#ffffff" stroke="#ffffff" stroke-width="1.5" points="102,-337 132,-337 144,-349 144,-361 132,-373 102,-373 90,-361 90,-349 102,-337"/>
<path fill="#ffffff" stroke="#ffffff" stroke-width="1.5" d="M132,-337C138,-337 144,-343 144,-349"/>
<path fill="#ffffff" stroke="#ffffff" stroke-width="1.5" d="M144,-361C144,-367 138,-373 132,-373"/>
<path fill="#ffffff" stroke="#ffffff" stroke-width="1.5" d="M102,-373C96,-373 90,-367 90,-361"/>
<path fill="#ffffff" stroke="#ffffff" stroke-width="1.5" d="M90,-349C90,-343 96,-337 102,-337"/>
<polyline fill="none" stroke="#2e3436" stroke-width="1.5" points="102,-337 132,-337 "/>
<path fill="none" stroke="#2e3436" stroke-width="1.5" d="M132,-337C138,-337 144,-343 144,-349"/>
<polyline fill="none" stroke="#2e3436" stroke-width="1.5" points="144,-349 144,-361 "/>
<path fill="none" stroke="#2e3436" stroke-width="1.5" d="M144,-361C144,-367 138,-373 132,-373"/>
<polyline fill="none" stroke="#2e3436" stroke-width="1.5" points="132,-373 102,-373 "/>
<path fill="none" stroke="#2e3436" stroke-width="1.5" d="M102,-373C96,-373 90,-367 90,-361"/>
<polyline fill="none" stroke="#2e3436" stroke-width="1.5" points="90,-361 90,-349 "/>
<path fill="none" stroke="#2e3436" stroke-width="1.5" d="M90,-349C90,-343 96,-337 102,-337"/>
<text text-anchor="middle" x="117" y="-352.8" font-family="FreeSans" font-size="8.00" fill="#1c2021">Root</text>
</g>
<!-- Y10 -->
<g id="node3" class="node"><title>Y10</title>
<polygon fill="#ffffff" stroke="#ffffff" stroke-width="1.5" points="43.5,-253 78.5,-253 90.5,-265 90.5,-277 78.5,-289 43.5,-289 31.5,-277 31.5,-265 43.5,-253"/>
<path fill="#ffffff" stroke="#ffffff" stroke-width="1.5" d="M78.5,-253C84.5,-253 90.5,-259 90.5,-265"/>
<path fill="#ffffff" stroke="#ffffff" stroke-width="1.5" d="M90.5,-277C90.5,-283 84.5,-289 78.5,-289"/>
<path fill="#ffffff" stroke="#ffffff" stroke-width="1.5" d="M43.5,-289C37.5,-289 31.5,-283 31.5,-277"/>
<path fill="#ffffff" stroke="#ffffff" stroke-width="1.5" d="M31.5,-265C31.5,-259 37.5,-253 43.5,-253"/>
<polyline fill="none" stroke="#2e3436" stroke-width="1.5" points="43.5,-253 78.5,-253 "/>
<path fill="none" stroke="#2e3436" stroke-width="1.5" d="M78.5,-253C84.5,-253 90.5,-259 90.5,-265"/>
<polyline fill="none" stroke="#2e3436" stroke-width="1.5" points="90.5,-265 90.5,-277 "/>
<path fill="none" stroke="#2e3436" stroke-width="1.5" d="M90.5,-277C90.5,-283 84.5,-289 78.5,-289"/>
<polyline fill="none" stroke="#2e3436" stroke-width="1.5" points="78.5,-289 43.5,-289 "/>
<path fill="none" stroke="#2e3436" stroke-width="1.5" d="M43.5,-289C37.5,-289 31.5,-283 31.5,-277"/>
<polyline fill="none" stroke="#2e3436" stroke-width="1.5" points="31.5,-277 31.5,-265 "/>
<path fill="none" stroke="#2e3436" stroke-width="1.5" d="M31.5,-265C31.5,-259 37.5,-253 43.5,-253"/>
<text text-anchor="middle" x="61" y="-268.8" font-family="FreeSans" font-size="8.00" fill="#1c2021">Year 2010</text>
</g>
<!-- root&#45;&gt;Y10 -->
<g id="edge3" class="edge"><title>root&#45;&gt;Y10</title>
<path fill="none" stroke="#2e3436" stroke-width="2" d="M104.849,-336.773C96.85,-324.775 86.2783,-308.917 77.5193,-295.779"/>
<polygon fill="#2e3436" stroke="#2e3436" points="73.1275,-289.191 80.0959,-293.559 75.6236,-292.034 77.7038,-295.154 77.2877,-295.432 76.8717,-295.709 74.7916,-292.589 74.4796,-297.304 73.1275,-289.191 73.1275,-289.191"/>
<text text-anchor="middle" x="102" y="-310.8" font-family="FreeSans" font-size="8.00" fill="#1c2021">2010</text>
</g>
<!-- Y11 -->
<g id="node4" class="node"><title>Y11</title>
<polygon fill="#ffffff" stroke="#ffffff" stroke-width="1.5" points="161.5,-253 196.5,-253 208.5,-265 208.5,-277 196.5,-289 161.5,-289 149.5,-277 149.5,-265 161.5,-253"/>
<path fill="#ffffff" stroke="#ffffff" stroke-width="1.5" d="M196.5,-253C202.5,-253 208.5,-259 208.5,-265"/>
<path fill="#ffffff" stroke="#ffffff" stroke-width="1.5" d="M208.5,-277C208.5,-283 202.5,-289 196.5,-289"/>
<path fill="#ffffff" stroke="#ffffff" stroke-width="1.5" d="M161.5,-289C155.5,-289 149.5,-283 149.5,-277"/>
<path fill="#ffffff" stroke="#ffffff" stroke-width="1.5" d="M149.5,-265C149.5,-259 155.5,-253 161.5,-253"/>
<polyline fill="none" stroke="#2e3436" stroke-width="1.5" points="161.5,-253 196.5,-253 "/>
<path fill="none" stroke="#2e3436" stroke-width="1.5" d="M196.5,-253C202.5,-253 208.5,-259 208.5,-265"/>
<polyline fill="none" stroke="#2e3436" stroke-width="1.5" points="208.5,-265 208.5,-277 "/>
<path fill="none" stroke="#2e3436" stroke-width="1.5" d="M208.5,-277C208.5,-283 202.5,-289 196.5,-289"/>
<polyline fill="none" stroke="#2e3436" stroke-width="1.5" points="196.5,-289 161.5,-289 "/>
<path fill="none" stroke="#2e3436" stroke-width="1.5" d="M161.5,-289C155.5,-289 149.5,-283 149.5,-277"/>
<polyline fill="none" stroke="#2e3436" stroke-width="1.5" points="149.5,-277 149.5,-265 "/>
<path fill="none" stroke="#2e3436" stroke-width="1.5" d="M149.5,-265C149.5,-259 155.5,-253 161.5,-253"/>
<text text-anchor="middle" x="179" y="-268.8" font-family="FreeSans" font-size="8.00" fill="#1c2021">Year 2011</text>
</g>
<!-- root&#45;&gt;Y11 -->
<g id="edge5" class="edge"><title>root&#45;&gt;Y11</title>
<path fill="none" stroke="#2e3436" stroke-width="2" d="M130.453,-336.773C139.39,-324.665 151.228,-308.626 160.977,-295.418"/>
<polygon fill="#2e3436" stroke="#2e3436" points="165.573,-289.191 163.835,-297.23 163.749,-292.505 161.522,-295.522 161.119,-295.226 160.717,-294.929 162.944,-291.911 158.404,-293.221 165.573,-289.191 165.573,-289.191"/>
<text text-anchor="middle" x="161" y="-310.8" font-family="FreeSans" font-size="8.00" fill="#1c2021">2011</text>
</g>
<!-- Y10M12 -->
<g id="node8" class="node"><title>Y10M12</title>
<polygon fill="#ffffff" stroke="#ffffff" stroke-width="1.5" points="37,-169 69,-169 81,-181 81,-193 69,-205 37,-205 25,-193 25,-181 37,-169"/>
<path fill="#ffffff" stroke="#ffffff" stroke-width="1.5" d="M69,-169C75,-169 81,-175 81,-181"/>
<path fill="#ffffff" stroke="#ffffff" stroke-width="1.5" d="M81,-193C81,-199 75,-205 69,-205"/>
<path fill="#ffffff" stroke="#ffffff" stroke-width="1.5" d="M37,-205C31,-205 25,-199 25,-193"/>
<path fill="#ffffff" stroke="#ffffff" stroke-width="1.5" d="M25,-181C25,-175 31,-169 37,-169"/>
<polyline fill="none" stroke="#2e3436" stroke-width="1.5" points="37,-169 69,-169 "/>
<path fill="none" stroke="#2e3436" stroke-width="1.5" d="M69,-169C75,-169 81,-175 81,-181"/>
<polyline fill="none" stroke="#2e3436" stroke-width="1.5" points="81,-181 81,-193 "/>
<path fill="none" stroke="#2e3436" stroke-width="1.5" d="M81,-193C81,-199 75,-205 69,-205"/>
<polyline fill="none" stroke="#2e3436" stroke-width="1.5" points="69,-205 37,-205 "/>
<path fill="none" stroke="#2e3436" stroke-width="1.5" d="M37,-205C31,-205 25,-199 25,-193"/>
<polyline fill="none" stroke="#2e3436" stroke-width="1.5" points="25,-193 25,-181 "/>
<path fill="none" stroke="#2e3436" stroke-width="1.5" d="M25,-181C25,-175 31,-169 37,-169"/>
<text text-anchor="middle" x="53" y="-184.8" font-family="FreeSans" font-size="8.00" fill="#1c2021">Month 12</text>
</g>
<!-- Y10&#45;&gt;Y10M12 -->
<g id="edge8" class="edge"><title>Y10&#45;&gt;Y10M12</title>
<path fill="none" stroke="#2e3436" stroke-width="2" d="M59.2641,-252.773C58.1529,-241.105 56.694,-225.787 55.4638,-212.87"/>
<polygon fill="#2e3436" stroke="#2e3436" points="54.7325,-205.191 58.8034,-212.337 55.5858,-208.877 55.9414,-212.61 55.4436,-212.657 54.9459,-212.705 54.5903,-208.972 52.0839,-212.977 54.7325,-205.191 54.7325,-205.191"/>
<text text-anchor="middle" x="63.5" y="-226.8" font-family="FreeSans" font-size="8.00" fill="#1c2021">12</text>
</g>
<!-- Y11M01 -->
<g id="node9" class="node"><title>Y11M01</title>
<polygon fill="#ffffff" stroke="#ffffff" stroke-width="1.5" points="168,-169 200,-169 212,-181 212,-193 200,-205 168,-205 156,-193 156,-181 168,-169"/>
<path fill="#ffffff" stroke="#ffffff" stroke-width="1.5" d="M200,-169C206,-169 212,-175 212,-181"/>
<path fill="#ffffff" stroke="#ffffff" stroke-width="1.5" d="M212,-193C212,-199 206,-205 200,-205"/>
<path fill="#ffffff" stroke="#ffffff" stroke-width="1.5" d="M168,-205C162,-205 156,-199 156,-193"/>
<path fill="#ffffff" stroke="#ffffff" stroke-width="1.5" d="M156,-181C156,-175 162,-169 168,-169"/>
<polyline fill="none" stroke="#2e3436" stroke-width="1.5" points="168,-169 200,-169 "/>
<path fill="none" stroke="#2e3436" stroke-width="1.5" d="M200,-169C206,-169 212,-175 212,-181"/>
<polyline fill="none" stroke="#2e3436" stroke-width="1.5" points="212,-181 212,-193 "/>
<path fill="none" stroke="#2e3436" stroke-width="1.5" d="M212,-193C212,-199 206,-205 200,-205"/>
<polyline fill="none" stroke="#2e3436" stroke-width="1.5" points="200,-205 168,-205 "/>
<path fill="none" stroke="#2e3436" stroke-width="1.5" d="M168,-205C162,-205 156,-199 156,-193"/>
<polyline fill="none" stroke="#2e3436" stroke-width="1.5" points="156,-193 156,-181 "/>
<path fill="none" stroke="#2e3436" stroke-width="1.5" d="M156,-181C156,-175 162,-169 168,-169"/>
<text text-anchor="middle" x="184" y="-184.8" font-family="FreeSans" font-size="8.00" fill="#1c2021">Month 01</text>
</g>
<!-- Y11&#45;&gt;Y11M01 -->
<g id="edge10" class="edge"><title>Y11&#45;&gt;Y11M01</title>
<path fill="none" stroke="#2e3436" stroke-width="2" d="M180.085,-252.773C180.779,-241.105 181.691,-225.787 182.46,-212.87"/>
<polygon fill="#2e3436" stroke="#2e3436" points="182.917,-205.191 185.84,-212.879 183.193,-208.964 182.971,-212.708 182.471,-212.678 181.972,-212.648 182.195,-208.905 179.102,-212.477 182.917,-205.191 182.917,-205.191"/>
<text text-anchor="middle" x="187.5" y="-226.8" font-family="FreeSans" font-size="8.00" fill="#1c2021">01</text>
</g>
<!-- Y10M12D31 -->
<g id="node13" class="node"><title>Y10M12D31</title>
<polygon fill="#ffffff" stroke="#ffffff" stroke-width="1.5" points="18,-85 48,-85 60,-97 60,-109 48,-121 18,-121 6,-109 6,-97 18,-85"/>
<path fill="#ffffff" stroke="#ffffff" stroke-width="1.5" d="M48,-85C54,-85 60,-91 60,-97"/>
<path fill="#ffffff" stroke="#ffffff" stroke-width="1.5" d="M60,-109C60,-115 54,-121 48,-121"/>
<path fill="#ffffff" stroke="#ffffff" stroke-width="1.5" d="M18,-121C12,-121 6,-115 6,-109"/>
<path fill="#ffffff" stroke="#ffffff" stroke-width="1.5" d="M6,-97C6,-91 12,-85 18,-85"/>
<polyline fill="none" stroke="#2e3436" stroke-width="1.5" points="18,-85 48,-85 "/>
<path fill="none" stroke="#2e3436" stroke-width="1.5" d="M48,-85C54,-85 60,-91 60,-97"/>
<polyline fill="none" stroke="#2e3436" stroke-width="1.5" points="60,-97 60,-109 "/>
<path fill="none" stroke="#2e3436" stroke-width="1.5" d="M60,-109C60,-115 54,-121 48,-121"/>
<polyline fill="none" stroke="#2e3436" stroke-width="1.5" points="48,-121 18,-121 "/>
<path fill="none" stroke="#2e3436" stroke-width="1.5" d="M18,-121C12,-121 6,-115 6,-109"/>
<polyline fill="none" stroke="#2e3436" stroke-width="1.5" points="6,-109 6,-97 "/>
<path fill="none" stroke="#2e3436" stroke-width="1.5" d="M6,-97C6,-91 12,-85 18,-85"/>
<text text-anchor="middle" x="33" y="-100.8" font-family="FreeSans" font-size="8.00" fill="#1c2021">Day 31</text>
</g>
<!-- Y10M12&#45;&gt;Y10M12D31 -->
<g id="edge13" class="edge"><title>Y10M12&#45;&gt;Y10M12D31</title>
<path fill="none" stroke="#2e3436" stroke-width="2" d="M48.6603,-168.773C45.856,-156.995 42.1662,-141.498 39.0726,-128.505"/>
<polygon fill="#2e3436" stroke="#2e3436" points="37.3312,-121.191 42.3517,-127.705 38.6863,-124.723 39.5549,-128.371 39.0685,-128.487 38.5821,-128.603 37.7134,-124.955 35.7852,-129.269 37.3312,-121.191 37.3312,-121.191"/>
<text text-anchor="middle" x="49.5" y="-142.8" font-family="FreeSans" font-size="8.00" fill="#1c2021">31</text>
</g>
<!-- Y11M01D01 -->
<g id="node14" class="node"><title>Y11M01D01</title>
<polygon fill="#ffffff" stroke="#ffffff" stroke-width="1.5" points="130,-85 160,-85 172,-97 172,-109 160,-121 130,-121 118,-109 118,-97 130,-85"/>
<path fill="#ffffff" stroke="#ffffff" stroke-width="1.5" d="M160,-85C166,-85 172,-91 172,-97"/>
<path fill="#ffffff" stroke="#ffffff" stroke-width="1.5" d="M172,-109C172,-115 166,-121 160,-121"/>
<path fill="#ffffff" stroke="#ffffff" stroke-width="1.5" d="M130,-121C124,-121 118,-115 118,-109"/>
<path fill="#ffffff" stroke="#ffffff" stroke-width="1.5" d="M118,-97C118,-91 124,-85 130,-85"/>
<polyline fill="none" stroke="#2e3436" stroke-width="1.5" points="130,-85 160,-85 "/>
<path fill="none" stroke="#2e3436" stroke-width="1.5" d="M160,-85C166,-85 172,-91 172,-97"/>
<polyline fill="none" stroke="#2e3436" stroke-width="1.5" points="172,-97 172,-109 "/>
<path fill="none" stroke="#2e3436" stroke-width="1.5" d="M172,-109C172,-115 166,-121 160,-121"/>
<polyline fill="none" stroke="#2e3436" stroke-width="1.5" points="160,-121 130,-121 "/>
<path fill="none" stroke="#2e3436" stroke-width="1.5" d="M130,-121C124,-121 118,-115 118,-109"/>
<polyline fill="none" stroke="#2e3436" stroke-width="1.5" points="118,-109 118,-97 "/>
<path fill="none" stroke="#2e3436" stroke-width="1.5" d="M118,-97C118,-91 124,-85 130,-85"/>
<text text-anchor="middle" x="145" y="-100.8" font-family="FreeSans" font-size="8.00" fill="#1c2021">Day 01</text>
</g>
<!-- Y11M01&#45;&gt;Y11M01D01 -->
<g id="edge15" class="edge"><title>Y11M01&#45;&gt;Y11M01D01</title>
<path fill="none" stroke="#2e3436" stroke-width="2" d="M175.538,-168.773C170.018,-156.885 162.739,-141.208 156.673,-128.141"/>
<polygon fill="#2e3436" stroke="#2e3436" points="153.446,-121.191 159.665,-126.572 155.479,-124.382 157.058,-127.783 156.604,-127.994 156.151,-128.204 154.572,-124.803 153.543,-129.415 153.446,-121.191 153.446,-121.191"/>
<text text-anchor="middle" x="171.5" y="-142.8" font-family="FreeSans" font-size="8.00" fill="#1c2021">01</text>
</g>
<!-- Y11M01D02 -->
<g id="node15" class="node"><title>Y11M01D02</title>
<polygon fill="#ffffff" stroke="#ffffff" stroke-width="1.5" points="242,-85 272,-85 284,-97 284,-109 272,-121 242,-121 230,-109 230,-97 242,-85"/>
<path fill="#ffffff" stroke="#ffffff" stroke-width="1.5" d="M272,-85C278,-85 284,-91 284,-97"/>
<path fill="#ffffff" stroke="#ffffff" stroke-width="1.5" d="M284,-109C284,-115 278,-121 272,-121"/>
<path fill="#ffffff" stroke="#ffffff" stroke-width="1.5" d="M242,-121C236,-121 230,-115 230,-109"/>
<path fill="#ffffff" stroke="#ffffff" stroke-width="1.5" d="M230,-97C230,-91 236,-85 242,-85"/>
<polyline fill="none" stroke="#2e3436" stroke-width="1.5" points="242,-85 272,-85 "/>
<path fill="none" stroke="#2e3436" stroke-width="1.5" d="M272,-85C278,-85 284,-91 284,-97"/>
<polyline fill="none" stroke="#2e3436" stroke-width="1.5" points="284,-97 284,-109 "/>
<path fill="none" stroke="#2e3436" stroke-width="1.5" d="M284,-109C284,-115 278,-121 272,-121"/>
<polyline fill="none" stroke="#2e3436" stroke-width="1.5" points="272,-121 242,-121 "/>
<path fill="none" stroke="#2e3436" stroke-width="1.5" d="M242,-121C236,-121 230,-115 230,-109"/>
<polyline fill="none" stroke="#2e3436" stroke-width="1.5" points="230,-109 230,-97 "/>
<path fill="none" stroke="#2e3436" stroke-width="1.5" d="M230,-97C230,-91 236,-85 242,-85"/>
<text text-anchor="middle" x="257" y="-100.8" font-family="FreeSans" font-size="8.00" fill="#1c2021">Day 02</text>
</g>
<!-- Y11M01&#45;&gt;Y11M01D02 -->
<g id="edge17" class="edge"><title>Y11M01&#45;&gt;Y11M01D02</title>
<path fill="none" stroke="#2e3436" stroke-width="2" d="M199.84,-168.773C210.458,-156.555 224.555,-140.334 236.092,-127.059"/>
<polygon fill="#2e3436" stroke="#2e3436" points="241.191,-121.191 238.819,-129.066 239.109,-124.35 236.649,-127.18 236.271,-126.852 235.894,-126.524 238.354,-123.694 233.724,-124.638 241.191,-121.191 241.191,-121.191"/>
<text text-anchor="middle" x="228.5" y="-142.8" font-family="FreeSans" font-size="8.00" fill="#1c2021">02</text>
</g>
<!-- Y11M01D03 -->
<g id="node16" class="node"><title>Y11M01D03</title>
<polygon fill="#ffffff" stroke="#ffffff" stroke-width="1.5" points="354,-85 384,-85 396,-97 396,-109 384,-121 354,-121 342,-109 342,-97 354,-85"/>
<path fill="#ffffff" stroke="#ffffff" stroke-width="1.5" d="M384,-85C390,-85 396,-91 396,-97"/>
<path fill="#ffffff" stroke="#ffffff" stroke-width="1.5" d="M396,-109C396,-115 390,-121 384,-121"/>
<path fill="#ffffff" stroke="#ffffff" stroke-width="1.5" d="M354,-121C348,-121 342,-115 342,-109"/>
<path fill="#ffffff" stroke="#ffffff" stroke-width="1.5" d="M342,-97C342,-91 348,-85 354,-85"/>
<polyline fill="none" stroke="#2e3436" stroke-width="1.5" points="354,-85 384,-85 "/>
<path fill="none" stroke="#2e3436" stroke-width="1.5" d="M384,-85C390,-85 396,-91 396,-97"/>
<polyline fill="none" stroke="#2e3436" stroke-width="1.5" points="396,-97 396,-109 "/>
<path fill="none" stroke="#2e3436" stroke-width="1.5" d="M396,-109C396,-115 390,-121 384,-121"/>
<polyline fill="none" stroke="#2e3436" stroke-width="1.5" points="384,-121 354,-121 "/>
<path fill="none" stroke="#2e3436" stroke-width="1.5" d="M354,-121C348,-121 342,-115 342,-109"/>
<polyline fill="none" stroke="#2e3436" stroke-width="1.5" points="342,-109 342,-97 "/>
<path fill="none" stroke="#2e3436" stroke-width="1.5" d="M342,-97C342,-91 348,-85 354,-85"/>
<text text-anchor="middle" x="369" y="-100.8" font-family="FreeSans" font-size="8.00" fill="#1c2021">Day 03</text>
</g>
<!-- Y11M01&#45;&gt;Y11M01D03 -->
<g id="edge19" class="edge"><title>Y11M01&#45;&gt;Y11M01D03</title>
<path fill="none" stroke="#2e3436" stroke-width="2" d="M212.098,-174.242C244.938,-159.331 299.278,-134.658 334.609,-118.615"/>
<polygon fill="#2e3436" stroke="#2e3436" points="341.845,-115.33 336.412,-121.503 338.638,-117.335 335.223,-118.886 335.016,-118.43 334.81,-117.975 338.224,-116.425 333.621,-115.357 341.845,-115.33 341.845,-115.33"/>
<text text-anchor="middle" x="287.5" y="-142.8" font-family="FreeSans" font-size="8.00" fill="#1c2021">03</text>
</g>
<!-- Y10M12D31&#45;&gt;Y11M01D01 -->
<g id="edge21" class="edge"><title>Y10M12D31&#45;&gt;Y11M01D01</title>
<path fill="none" stroke="#2e3436" stroke-width="2" d="M60.1121,-103C75.1337,-103 93.9742,-103 110.087,-103"/>
<polygon fill="#2e3436" stroke="#2e3436" points="117.749,-103 110.249,-106.375 113.999,-103.5 110.249,-103.5 110.249,-103 110.249,-102.5 113.999,-102.5 110.249,-99.6251 117.749,-103 117.749,-103"/>
<text text-anchor="middle" x="89" y="-105.8" font-family="FreeSans" font-size="8.00" fill="#1c2021">NEXT</text>
</g>
<!-- E1 -->
<g id="node25" class="node"><title>E1</title>
<polygon fill="#ffffff" stroke="#ffffff" stroke-width="2" points="12,-1 42,-1 54,-13 54,-25 42,-37 12,-37 0,-25 0,-13 12,-1"/>
<path fill="#ffffff" stroke="#ffffff" stroke-width="2" d="M42,-1C48,-1 54,-7 54,-13"/>
<path fill="#ffffff" stroke="#ffffff" stroke-width="2" d="M54,-25C54,-31 48,-37 42,-37"/>
<path fill="#ffffff" stroke="#ffffff" stroke-width="2" d="M12,-37C6,-37 0,-31 0,-25"/>
<path fill="#ffffff" stroke="#ffffff" stroke-width="2" d="M0,-13C0,-7 6,-1 12,-1"/>
<polyline fill="none" stroke="#2e3436" stroke-width="2" points="12,-1 42,-1 "/>
<path fill="none" stroke="#2e3436" stroke-width="2" d="M42,-1C48,-1 54,-7 54,-13"/>
<polyline fill="none" stroke="#2e3436" stroke-width="2" points="54,-13 54,-25 "/>
<path fill="none" stroke="#2e3436" stroke-width="2" d="M54,-25C54,-31 48,-37 42,-37"/>
<polyline fill="none" stroke="#2e3436" stroke-width="2" points="42,-37 12,-37 "/>
<path fill="none" stroke="#2e3436" stroke-width="2" d="M12,-37C6,-37 0,-31 0,-25"/>
<polyline fill="none" stroke="#2e3436" stroke-width="2" points="0,-25 0,-13 "/>
<path fill="none" stroke="#2e3436" stroke-width="2" d="M0,-13C0,-7 6,-1 12,-1"/>
<text text-anchor="middle" x="27" y="-16.8" font-family="FreeSans" font-size="8.00" fill="#1c2021">Event1</text>
</g>
<!-- Y10M12D31&#45;&gt;E1 -->
<g id="edge28" class="edge"><title>Y10M12D31&#45;&gt;E1</title>
<path fill="none" stroke="#2e3436" stroke-width="2" d="M28.2324,-84.6819C26.9095,-78.763 25.6565,-72.1427 25,-66 24.2764,-59.2292 24.2362,-51.8834 24.5112,-45.0553"/>
<polygon fill="#2e3436" stroke="#2e3436" points="24.9565,-37.343 27.8934,-45.0252 25.2394,-41.1156 25.0232,-44.8594 24.524,-44.8306 24.0249,-44.8017 24.2411,-41.058 21.1547,-44.636 24.9565,-37.343 24.9565,-37.343"/>
<text text-anchor="middle" x="37.5" y="-58.8" font-family="FreeSans" font-size="8.00" fill="#1c2021">VALUE</text>
</g>
<!-- E2 -->
<g id="node26" class="node"><title>E2</title>
<polygon fill="#ffffff" stroke="#ffffff" stroke-width="2" points="113,-1 143,-1 155,-13 155,-25 143,-37 113,-37 101,-25 101,-13 113,-1"/>
<path fill="#ffffff" stroke="#ffffff" stroke-width="2" d="M143,-1C149,-1 155,-7 155,-13"/>
<path fill="#ffffff" stroke="#ffffff" stroke-width="2" d="M155,-25C155,-31 149,-37 143,-37"/>
<path fill="#ffffff" stroke="#ffffff" stroke-width="2" d="M113,-37C107,-37 101,-31 101,-25"/>
<path fill="#ffffff" stroke="#ffffff" stroke-width="2" d="M101,-13C101,-7 107,-1 113,-1"/>
<polyline fill="none" stroke="#2e3436" stroke-width="2" points="113,-1 143,-1 "/>
<path fill="none" stroke="#2e3436" stroke-width="2" d="M143,-1C149,-1 155,-7 155,-13"/>
<polyline fill="none" stroke="#2e3436" stroke-width="2" points="155,-13 155,-25 "/>
<path fill="none" stroke="#2e3436" stroke-width="2" d="M155,-25C155,-31 149,-37 143,-37"/>
<polyline fill="none" stroke="#2e3436" stroke-width="2" points="143,-37 113,-37 "/>
<path fill="none" stroke="#2e3436" stroke-width="2" d="M113,-37C107,-37 101,-31 101,-25"/>
<polyline fill="none" stroke="#2e3436" stroke-width="2" points="101,-25 101,-13 "/>
<path fill="none" stroke="#2e3436" stroke-width="2" d="M101,-13C101,-7 107,-1 113,-1"/>
<text text-anchor="middle" x="128" y="-16.8" font-family="FreeSans" font-size="8.00" fill="#1c2021">Event2</text>
</g>
<!-- Y10M12D31&#45;&gt;E2 -->
<g id="edge30" class="edge"><title>Y10M12D31&#45;&gt;E2</title>
<path fill="none" stroke="#2e3436" stroke-width="2" d="M53.6136,-84.7733C67.6809,-72.3348 86.4393,-55.7484 101.599,-42.3439"/>
<polygon fill="#2e3436" stroke="#2e3436" points="107.427,-37.1912 104.044,-44.6876 104.949,-40.0498 102.139,-42.5338 101.808,-42.1592 101.477,-41.7847 104.286,-39.3006 99.5724,-39.6309 107.427,-37.1912 107.427,-37.1912"/>
<text text-anchor="middle" x="96.5" y="-58.8" font-family="FreeSans" font-size="8.00" fill="#1c2021">VALUE</text>
</g>
<!-- Y11M01D01&#45;&gt;Y11M01D02 -->
<g id="edge23" class="edge"><title>Y11M01D01&#45;&gt;Y11M01D02</title>
<path fill="none" stroke="#2e3436" stroke-width="2" d="M172.112,-103C187.134,-103 205.974,-103 222.087,-103"/>
<polygon fill="#2e3436" stroke="#2e3436" points="229.749,-103 222.249,-106.375 225.999,-103.5 222.249,-103.5 222.249,-103 222.249,-102.5 225.999,-102.5 222.249,-99.6251 229.749,-103 229.749,-103"/>
<text text-anchor="middle" x="201" y="-105.8" font-family="FreeSans" font-size="8.00" fill="#1c2021">NEXT</text>
</g>
<!-- Y11M01D01&#45;&gt;E2 -->
<g id="edge32" class="edge"><title>Y11M01D01&#45;&gt;E2</title>
<path fill="none" stroke="#2e3436" stroke-width="2" d="M141.311,-84.7733C138.95,-73.1053 135.85,-57.7874 133.236,-44.8699"/>
<polygon fill="#2e3436" stroke="#2e3436" points="131.682,-37.1912 136.477,-43.8727 132.915,-40.7675 133.659,-44.443 133.169,-44.5421 132.679,-44.6413 131.935,-40.9658 129.861,-45.2116 131.682,-37.1912 131.682,-37.1912"/>
<text text-anchor="middle" x="150.5" y="-58.8" font-family="FreeSans" font-size="8.00" fill="#1c2021">VALUE</text>
</g>
<!-- Y11M01D02&#45;&gt;Y11M01D03 -->
<g id="edge25" class="edge"><title>Y11M01D02&#45;&gt;Y11M01D03</title>
<path fill="none" stroke="#2e3436" stroke-width="2" d="M284.112,-103C299.134,-103 317.974,-103 334.087,-103"/>
<polygon fill="#2e3436" stroke="#2e3436" points="341.749,-103 334.249,-106.375 337.999,-103.5 334.249,-103.5 334.249,-103 334.249,-102.5 337.999,-102.5 334.249,-99.6251 341.749,-103 341.749,-103"/>
<text text-anchor="middle" x="313" y="-105.8" font-family="FreeSans" font-size="8.00" fill="#1c2021">NEXT</text>
</g>
<!-- E3 -->
<g id="node27" class="node"><title>E3</title>
<polygon fill="#ffffff" stroke="#ffffff" stroke-width="2" points="354,-1 384,-1 396,-13 396,-25 384,-37 354,-37 342,-25 342,-13 354,-1"/>
<path fill="#ffffff" stroke="#ffffff" stroke-width="2" d="M384,-1C390,-1 396,-7 396,-13"/>
<path fill="#ffffff" stroke="#ffffff" stroke-width="2" d="M396,-25C396,-31 390,-37 384,-37"/>
<path fill="#ffffff" stroke="#ffffff" stroke-width="2" d="M354,-37C348,-37 342,-31 342,-25"/>
<path fill="#ffffff" stroke="#ffffff" stroke-width="2" d="M342,-13C342,-7 348,-1 354,-1"/>
<polyline fill="none" stroke="#2e3436" stroke-width="2" points="354,-1 384,-1 "/>
<path fill="none" stroke="#2e3436" stroke-width="2" d="M384,-1C390,-1 396,-7 396,-13"/>
<polyline fill="none" stroke="#2e3436" stroke-width="2" points="396,-13 396,-25 "/>
<path fill="none" stroke="#2e3436" stroke-width="2" d="M396,-25C396,-31 390,-37 384,-37"/>
<polyline fill="none" stroke="#2e3436" stroke-width="2" points="384,-37 354,-37 "/>
<path fill="none" stroke="#2e3436" stroke-width="2" d="M354,-37C348,-37 342,-31 342,-25"/>
<polyline fill="none" stroke="#2e3436" stroke-width="2" points="342,-25 342,-13 "/>
<path fill="none" stroke="#2e3436" stroke-width="2" d="M342,-13C342,-7 348,-1 354,-1"/>
<text text-anchor="middle" x="369" y="-16.8" font-family="FreeSans" font-size="8.00" fill="#1c2021">Event3</text>
</g>
<!-- Y11M01D03&#45;&gt;E3 -->
<g id="edge34" class="edge"><title>Y11M01D03&#45;&gt;E3</title>
<path fill="none" stroke="#2e3436" stroke-width="2" d="M369,-84.7733C369,-73.1053 369,-57.7874 369,-44.8699"/>
<polygon fill="#2e3436" stroke="#2e3436" points="369,-37.1912 372.375,-44.6911 369.5,-40.9412 369.5,-44.6912 369,-44.6912 368.5,-44.6912 368.5,-40.9412 365.625,-44.6912 369,-37.1912 369,-37.1912"/>
<text text-anchor="middle" x="381.5" y="-58.8" font-family="FreeSans" font-size="8.00" fill="#1c2021">VALUE</text>
</g>
</g>
</svg>
