<?xml version="1.0" encoding="UTF-8" standalone="no"?>
<!DOCTYPE svg PUBLIC "-//W3C//DTD SVG 1.1//EN"
 "http://www.w3.org/Graphics/SVG/1.1/DTD/svg11.dtd">
<!-- Generated by graphviz version 2.26.3 (20100126.1600)
 -->
<!-- Title: g Pages: 1 -->
<svg width="504pt" height="137pt"
 viewBox="0.00 0.00 504.00 137.40" xmlns="http://www.w3.org/2000/svg" xmlns:xlink="http://www.w3.org/1999/xlink">
<g id="graph1" class="graph" transform="scale(0.642038 0.642038) rotate(0) translate(4 210)">
<title>g</title>
<polygon fill="white" stroke="white" points="-4,5 -4,-210 782,-210 782,5 -4,5"/>
<!-- N1 -->
<g id="node1" class="node"><title>N1</title>
<polygon fill="#ffffff" stroke="#ffffff" stroke-width="1.5" points="12,-85 78,-85 90,-97 90,-109 78,-121 12,-121 0,-109 0,-97 12,-85"/>
<path fill="#ffffff" stroke="#ffffff" stroke-width="1.5" d="M78,-85C84,-85 90,-91 90,-97"/>
<path fill="#ffffff" stroke="#ffffff" stroke-width="1.5" d="M90,-109C90,-115 84,-121 78,-121"/>
<path fill="#ffffff" stroke="#ffffff" stroke-width="1.5" d="M12,-121C6,-121 0,-115 0,-109"/>
<path fill="#ffffff" stroke="#ffffff" stroke-width="1.5" d="M0,-97C0,-91 6,-85 12,-85"/>
<polyline fill="none" stroke="#2e3436" stroke-width="1.5" points="12,-85 78,-85 "/>
<path fill="none" stroke="#2e3436" stroke-width="1.5" d="M78,-85C84,-85 90,-91 90,-97"/>
<polyline fill="none" stroke="#2e3436" stroke-width="1.5" points="90,-97 90,-109 "/>
<path fill="none" stroke="#2e3436" stroke-width="1.5" d="M90,-109C90,-115 84,-121 78,-121"/>
<polyline fill="none" stroke="#2e3436" stroke-width="1.5" points="78,-121 12,-121 "/>
<path fill="none" stroke="#2e3436" stroke-width="1.5" d="M12,-121C6,-121 0,-115 0,-109"/>
<polyline fill="none" stroke="#2e3436" stroke-width="1.5" points="0,-109 0,-97 "/>
<path fill="none" stroke="#2e3436" stroke-width="1.5" d="M0,-97C0,-91 6,-85 12,-85"/>
<text text-anchor="start" x="8" y="-100.8" font-family="FreeSans" font-size="8.00" fill="#1c2021">name = &#39;SaunaX&#39;</text>
</g>
<!-- N2 -->
<g id="node2" class="node"><title>N2</title>
<polygon fill="#ffffff" stroke="#ffffff" stroke-width="1.5" points="130.5,-85 219.5,-85 231.5,-97 231.5,-109 219.5,-121 130.5,-121 118.5,-109 118.5,-97 130.5,-85"/>
<path fill="#ffffff" stroke="#ffffff" stroke-width="1.5" d="M219.5,-85C225.5,-85 231.5,-91 231.5,-97"/>
<path fill="#ffffff" stroke="#ffffff" stroke-width="1.5" d="M231.5,-109C231.5,-115 225.5,-121 219.5,-121"/>
<path fill="#ffffff" stroke="#ffffff" stroke-width="1.5" d="M130.5,-121C124.5,-121 118.5,-115 118.5,-109"/>
<path fill="#ffffff" stroke="#ffffff" stroke-width="1.5" d="M118.5,-97C118.5,-91 124.5,-85 130.5,-85"/>
<polyline fill="none" stroke="#2e3436" stroke-width="1.5" points="130.5,-85 219.5,-85 "/>
<path fill="none" stroke="#2e3436" stroke-width="1.5" d="M219.5,-85C225.5,-85 231.5,-91 231.5,-97"/>
<polyline fill="none" stroke="#2e3436" stroke-width="1.5" points="231.5,-97 231.5,-109 "/>
<path fill="none" stroke="#2e3436" stroke-width="1.5" d="M231.5,-109C231.5,-115 225.5,-121 219.5,-121"/>
<polyline fill="none" stroke="#2e3436" stroke-width="1.5" points="219.5,-121 130.5,-121 "/>
<path fill="none" stroke="#2e3436" stroke-width="1.5" d="M130.5,-121C124.5,-121 118.5,-115 118.5,-109"/>
<polyline fill="none" stroke="#2e3436" stroke-width="1.5" points="118.5,-109 118.5,-97 "/>
<path fill="none" stroke="#2e3436" stroke-width="1.5" d="M118.5,-97C118.5,-91 124.5,-85 130.5,-85"/>
<text text-anchor="start" x="126.5" y="-100.8" font-family="FreeSans" font-size="8.00" fill="#1c2021">name = &#39;CoffeeShop1&#39;</text>
</g>
<!-- N5 -->
<g id="node4" class="node"><title>N5</title>
<polygon fill="#ffffff" stroke="#ffffff" stroke-width="1.5" points="481.5,-1 534.5,-1 546.5,-13 546.5,-25 534.5,-37 481.5,-37 469.5,-25 469.5,-13 481.5,-1"/>
<path fill="#ffffff" stroke="#ffffff" stroke-width="1.5" d="M534.5,-1C540.5,-1 546.5,-7 546.5,-13"/>
<path fill="#ffffff" stroke="#ffffff" stroke-width="1.5" d="M546.5,-25C546.5,-31 540.5,-37 534.5,-37"/>
<path fill="#ffffff" stroke="#ffffff" stroke-width="1.5" d="M481.5,-37C475.5,-37 469.5,-31 469.5,-25"/>
<path fill="#ffffff" stroke="#ffffff" stroke-width="1.5" d="M469.5,-13C469.5,-7 475.5,-1 481.5,-1"/>
<polyline fill="none" stroke="#2e3436" stroke-width="1.5" points="481.5,-1 534.5,-1 "/>
<path fill="none" stroke="#2e3436" stroke-width="1.5" d="M534.5,-1C540.5,-1 546.5,-7 546.5,-13"/>
<polyline fill="none" stroke="#2e3436" stroke-width="1.5" points="546.5,-13 546.5,-25 "/>
<path fill="none" stroke="#2e3436" stroke-width="1.5" d="M546.5,-25C546.5,-31 540.5,-37 534.5,-37"/>
<polyline fill="none" stroke="#2e3436" stroke-width="1.5" points="534.5,-37 481.5,-37 "/>
<path fill="none" stroke="#2e3436" stroke-width="1.5" d="M481.5,-37C475.5,-37 469.5,-31 469.5,-25"/>
<polyline fill="none" stroke="#2e3436" stroke-width="1.5" points="469.5,-25 469.5,-13 "/>
<path fill="none" stroke="#2e3436" stroke-width="1.5" d="M469.5,-13C469.5,-7 475.5,-1 481.5,-1"/>
<text text-anchor="start" x="477.5" y="-16.8" font-family="FreeSans" font-size="8.00" fill="#1c2021">name = &#39;Cool&#39;</text>
</g>
<!-- N2&#45;&gt;N5 -->
<g id="edge2" class="edge"><title>N2&#45;&gt;N5</title>
<path fill="none" stroke="#2e3436" stroke-width="2" d="M231.816,-87.1174C236.265,-86.0147 240.699,-84.9612 245,-84 289.926,-73.9605 302.569,-78.0429 347,-66 359.351,-62.6523 361.821,-59.9288 374,-56 402.954,-46.6596 435.884,-37.5466 461.854,-30.7017"/>
<polygon fill="#2e3436" stroke="#2e3436" points="469.331,-28.7429 462.931,-33.9085 465.83,-30.177 462.202,-31.1274 462.076,-30.6437 461.949,-30.16 465.576,-29.2096 461.22,-27.3789 469.331,-28.7429 469.331,-28.7429"/>
<text text-anchor="middle" x="389" y="-58.8" font-family="FreeSans" font-size="8.00" fill="#2e3436">tagged</text>
</g>
<!-- N8 -->
<g id="node6" class="node"><title>N8</title>
<polygon fill="#ffffff" stroke="#ffffff" stroke-width="1.5" points="288.5,-1 343.5,-1 355.5,-13 355.5,-25 343.5,-37 288.5,-37 276.5,-25 276.5,-13 288.5,-1"/>
<path fill="#ffffff" stroke="#ffffff" stroke-width="1.5" d="M343.5,-1C349.5,-1 355.5,-7 355.5,-13"/>
<path fill="#ffffff" stroke="#ffffff" stroke-width="1.5" d="M355.5,-25C355.5,-31 349.5,-37 343.5,-37"/>
<path fill="#ffffff" stroke="#ffffff" stroke-width="1.5" d="M288.5,-37C282.5,-37 276.5,-31 276.5,-25"/>
<path fill="#ffffff" stroke="#ffffff" stroke-width="1.5" d="M276.5,-13C276.5,-7 282.5,-1 288.5,-1"/>
<polyline fill="none" stroke="#2e3436" stroke-width="1.5" points="288.5,-1 343.5,-1 "/>
<path fill="none" stroke="#2e3436" stroke-width="1.5" d="M343.5,-1C349.5,-1 355.5,-7 355.5,-13"/>
<polyline fill="none" stroke="#2e3436" stroke-width="1.5" points="355.5,-13 355.5,-25 "/>
<path fill="none" stroke="#2e3436" stroke-width="1.5" d="M355.5,-25C355.5,-31 349.5,-37 343.5,-37"/>
<polyline fill="none" stroke="#2e3436" stroke-width="1.5" points="343.5,-37 288.5,-37 "/>
<path fill="none" stroke="#2e3436" stroke-width="1.5" d="M288.5,-37C282.5,-37 276.5,-31 276.5,-25"/>
<polyline fill="none" stroke="#2e3436" stroke-width="1.5" points="276.5,-25 276.5,-13 "/>
<path fill="none" stroke="#2e3436" stroke-width="1.5" d="M276.5,-13C276.5,-7 282.5,-1 288.5,-1"/>
<text text-anchor="start" x="284.5" y="-16.8" font-family="FreeSans" font-size="8.00" fill="#1c2021">name = &#39;Cosy&#39;</text>
</g>
<!-- N2&#45;&gt;N8 -->
<g id="edge4" class="edge"><title>N2&#45;&gt;N8</title>
<path fill="none" stroke="#2e3436" stroke-width="2" d="M205.248,-84.9799C226.753,-72.1681 255.774,-54.8794 278.713,-41.2135"/>
<polygon fill="#2e3436" stroke="#2e3436" points="285.315,-37.2801 280.6,-44.0182 282.35,-39.629 279.128,-41.5483 278.872,-41.1187 278.616,-40.6892 281.838,-38.7699 277.145,-38.2193 285.315,-37.2801 285.315,-37.2801"/>
<text text-anchor="middle" x="265" y="-58.8" font-family="FreeSans" font-size="8.00" fill="#2e3436">tagged</text>
</g>
<!-- N3 -->
<g id="node7" class="node"><title>N3</title>
<polygon fill="#ffffff" stroke="#ffffff" stroke-width="1.5" points="413,-85 489,-85 501,-97 501,-109 489,-121 413,-121 401,-109 401,-97 413,-85"/>
<path fill="#ffffff" stroke="#ffffff" stroke-width="1.5" d="M489,-85C495,-85 501,-91 501,-97"/>
<path fill="#ffffff" stroke="#ffffff" stroke-width="1.5" d="M501,-109C501,-115 495,-121 489,-121"/>
<path fill="#ffffff" stroke="#ffffff" stroke-width="1.5" d="M413,-121C407,-121 401,-115 401,-109"/>
<path fill="#ffffff" stroke="#ffffff" stroke-width="1.5" d="M401,-97C401,-91 407,-85 413,-85"/>
<polyline fill="none" stroke="#2e3436" stroke-width="1.5" points="413,-85 489,-85 "/>
<path fill="none" stroke="#2e3436" stroke-width="1.5" d="M489,-85C495,-85 501,-91 501,-97"/>
<polyline fill="none" stroke="#2e3436" stroke-width="1.5" points="501,-97 501,-109 "/>
<path fill="none" stroke="#2e3436" stroke-width="1.5" d="M501,-109C501,-115 495,-121 489,-121"/>
<polyline fill="none" stroke="#2e3436" stroke-width="1.5" points="489,-121 413,-121 "/>
<path fill="none" stroke="#2e3436" stroke-width="1.5" d="M413,-121C407,-121 401,-115 401,-109"/>
<polyline fill="none" stroke="#2e3436" stroke-width="1.5" points="401,-109 401,-97 "/>
<path fill="none" stroke="#2e3436" stroke-width="1.5" d="M401,-97C401,-91 407,-85 413,-85"/>
<text text-anchor="start" x="409" y="-100.8" font-family="FreeSans" font-size="8.00" fill="#1c2021">name = &#39;MelsPlace&#39;</text>
</g>
<!-- N3&#45;&gt;N5 -->
<g id="edge8" class="edge"><title>N3&#45;&gt;N5</title>
<path fill="none" stroke="#2e3436" stroke-width="2" d="M463.368,-84.7733C471.584,-72.665 482.468,-56.6261 491.431,-43.4181"/>
<polygon fill="#2e3436" stroke="#2e3436" points="495.656,-37.1912 494.237,-45.2924 493.964,-40.575 491.858,-43.678 491.445,-43.3973 491.031,-43.1165 493.137,-40.0135 488.652,-41.5022 495.656,-37.1912 495.656,-37.1912"/>
<text text-anchor="middle" x="496" y="-58.8" font-family="FreeSans" font-size="8.00" fill="#2e3436">tagged</text>
</g>
<!-- N3&#45;&gt;N8 -->
<g id="edge6" class="edge"><title>N3&#45;&gt;N8</title>
<path fill="none" stroke="#2e3436" stroke-width="2" d="M438.697,-84.5436C431.548,-74.9719 421.825,-63.704 411,-56 396.619,-45.7649 379.026,-37.8891 362.905,-32.0878"/>
<polygon fill="#2e3436" stroke="#2e3436" points="355.619,-29.5673 363.81,-28.8297 359.326,-30.3208 362.87,-31.5467 362.707,-32.0193 362.544,-32.4918 359,-31.2658 361.604,-35.2088 355.619,-29.5673 355.619,-29.5673"/>
<text text-anchor="middle" x="437" y="-58.8" font-family="FreeSans" font-size="8.00" fill="#2e3436">tagged</text>
</g>
<!-- N4 -->
<g id="node10" class="node"><title>N4</title>
<polygon fill="#ffffff" stroke="#ffffff" stroke-width="1.5" points="271.5,-85 360.5,-85 372.5,-97 372.5,-109 360.5,-121 271.5,-121 259.5,-109 259.5,-97 271.5,-85"/>
<path fill="#ffffff" stroke="#ffffff" stroke-width="1.5" d="M360.5,-85C366.5,-85 372.5,-91 372.5,-97"/>
<path fill="#ffffff" stroke="#ffffff" stroke-width="1.5" d="M372.5,-109C372.5,-115 366.5,-121 360.5,-121"/>
<path fill="#ffffff" stroke="#ffffff" stroke-width="1.5" d="M271.5,-121C265.5,-121 259.5,-115 259.5,-109"/>
<path fill="#ffffff" stroke="#ffffff" stroke-width="1.5" d="M259.5,-97C259.5,-91 265.5,-85 271.5,-85"/>
<polyline fill="none" stroke="#2e3436" stroke-width="1.5" points="271.5,-85 360.5,-85 "/>
<path fill="none" stroke="#2e3436" stroke-width="1.5" d="M360.5,-85C366.5,-85 372.5,-91 372.5,-97"/>
<polyline fill="none" stroke="#2e3436" stroke-width="1.5" points="372.5,-97 372.5,-109 "/>
<path fill="none" stroke="#2e3436" stroke-width="1.5" d="M372.5,-109C372.5,-115 366.5,-121 360.5,-121"/>
<polyline fill="none" stroke="#2e3436" stroke-width="1.5" points="360.5,-121 271.5,-121 "/>
<path fill="none" stroke="#2e3436" stroke-width="1.5" d="M271.5,-121C265.5,-121 259.5,-115 259.5,-109"/>
<polyline fill="none" stroke="#2e3436" stroke-width="1.5" points="259.5,-109 259.5,-97 "/>
<path fill="none" stroke="#2e3436" stroke-width="1.5" d="M259.5,-97C259.5,-91 265.5,-85 271.5,-85"/>
<text text-anchor="start" x="267.5" y="-100.8" font-family="FreeSans" font-size="8.00" fill="#1c2021">name = &#39;CoffeeShop3&#39;</text>
</g>
<!-- N4&#45;&gt;N8 -->
<g id="edge10" class="edge"><title>N4&#45;&gt;N8</title>
<path fill="none" stroke="#2e3436" stroke-width="2" d="M314.828,-84.9415C314.49,-78.9199 314.167,-72.1734 314,-66 313.816,-59.1932 313.964,-51.8348 314.247,-45.0061"/>
<polygon fill="#2e3436" stroke="#2e3436" points="314.63,-37.298 317.629,-44.9562 314.944,-41.0682 314.758,-44.8136 314.258,-44.7888 313.759,-44.764 313.945,-41.0186 310.887,-44.6213 314.63,-37.298 314.63,-37.298"/>
<text text-anchor="middle" x="329" y="-58.8" font-family="FreeSans" font-size="8.00" fill="#2e3436">tagged</text>
</g>
<!-- N6 -->
<g id="node12" class="node"><title>N6</title>
<polygon fill="#ffffff" stroke="#ffffff" stroke-width="1.5" points="541.5,-85 630.5,-85 642.5,-97 642.5,-109 630.5,-121 541.5,-121 529.5,-109 529.5,-97 541.5,-85"/>
<path fill="#ffffff" stroke="#ffffff" stroke-width="1.5" d="M630.5,-85C636.5,-85 642.5,-91 642.5,-97"/>
<path fill="#ffffff" stroke="#ffffff" stroke-width="1.5" d="M642.5,-109C642.5,-115 636.5,-121 630.5,-121"/>
<path fill="#ffffff" stroke="#ffffff" stroke-width="1.5" d="M541.5,-121C535.5,-121 529.5,-115 529.5,-109"/>
<path fill="#ffffff" stroke="#ffffff" stroke-width="1.5" d="M529.5,-97C529.5,-91 535.5,-85 541.5,-85"/>
<polyline fill="none" stroke="#2e3436" stroke-width="1.5" points="541.5,-85 630.5,-85 "/>
<path fill="none" stroke="#2e3436" stroke-width="1.5" d="M630.5,-85C636.5,-85 642.5,-91 642.5,-97"/>
<polyline fill="none" stroke="#2e3436" stroke-width="1.5" points="642.5,-97 642.5,-109 "/>
<path fill="none" stroke="#2e3436" stroke-width="1.5" d="M642.5,-109C642.5,-115 636.5,-121 630.5,-121"/>
<polyline fill="none" stroke="#2e3436" stroke-width="1.5" points="630.5,-121 541.5,-121 "/>
<path fill="none" stroke="#2e3436" stroke-width="1.5" d="M541.5,-121C535.5,-121 529.5,-115 529.5,-109"/>
<polyline fill="none" stroke="#2e3436" stroke-width="1.5" points="529.5,-109 529.5,-97 "/>
<path fill="none" stroke="#2e3436" stroke-width="1.5" d="M529.5,-97C529.5,-91 535.5,-85 541.5,-85"/>
<text text-anchor="start" x="537.5" y="-100.8" font-family="FreeSans" font-size="8.00" fill="#1c2021">name = &#39;CoffeeShop2&#39;</text>
</g>
<!-- N6&#45;&gt;N5 -->
<g id="edge12" class="edge"><title>N6&#45;&gt;N5</title>
<path fill="none" stroke="#2e3436" stroke-width="2" d="M569.075,-84.7733C557.627,-72.4448 542.396,-56.0416 530.008,-42.7005"/>
<polygon fill="#2e3436" stroke="#2e3436" points="524.892,-37.1912 532.468,-40.3906 527.81,-39.5989 530.362,-42.3469 529.995,-42.6872 529.629,-43.0274 527.077,-40.2794 527.522,-44.9837 524.892,-37.1912 524.892,-37.1912"/>
<text text-anchor="middle" x="564" y="-58.8" font-family="FreeSans" font-size="8.00" fill="#2e3436">tagged</text>
</g>
<!-- N7 -->
<g id="node14" class="node"><title>N7</title>
<polygon fill="#ffffff" stroke="#ffffff" stroke-width="1.5" points="682.5,-85 765.5,-85 777.5,-97 777.5,-109 765.5,-121 682.5,-121 670.5,-109 670.5,-97 682.5,-85"/>
<path fill="#ffffff" stroke="#ffffff" stroke-width="1.5" d="M765.5,-85C771.5,-85 777.5,-91 777.5,-97"/>
<path fill="#ffffff" stroke="#ffffff" stroke-width="1.5" d="M777.5,-109C777.5,-115 771.5,-121 765.5,-121"/>
<path fill="#ffffff" stroke="#ffffff" stroke-width="1.5" d="M682.5,-121C676.5,-121 670.5,-115 670.5,-109"/>
<path fill="#ffffff" stroke="#ffffff" stroke-width="1.5" d="M670.5,-97C670.5,-91 676.5,-85 682.5,-85"/>
<polyline fill="none" stroke="#2e3436" stroke-width="1.5" points="682.5,-85 765.5,-85 "/>
<path fill="none" stroke="#2e3436" stroke-width="1.5" d="M765.5,-85C771.5,-85 777.5,-91 777.5,-97"/>
<polyline fill="none" stroke="#2e3436" stroke-width="1.5" points="777.5,-97 777.5,-109 "/>
<path fill="none" stroke="#2e3436" stroke-width="1.5" d="M777.5,-109C777.5,-115 771.5,-121 765.5,-121"/>
<polyline fill="none" stroke="#2e3436" stroke-width="1.5" points="765.5,-121 682.5,-121 "/>
<path fill="none" stroke="#2e3436" stroke-width="1.5" d="M682.5,-121C676.5,-121 670.5,-115 670.5,-109"/>
<polyline fill="none" stroke="#2e3436" stroke-width="1.5" points="670.5,-109 670.5,-97 "/>
<path fill="none" stroke="#2e3436" stroke-width="1.5" d="M670.5,-97C670.5,-91 676.5,-85 682.5,-85"/>
<text text-anchor="start" x="678.5" y="-100.8" font-family="FreeSans" font-size="8.00" fill="#1c2021">name = &#39;CoffeShop2&#39;</text>
</g>
<!-- N9 -->
<g id="node15" class="node"><title>N9</title>
<polygon fill="#ffffff" stroke="#ffffff" stroke-width="1.5" points="429.5,-169 472.5,-169 484.5,-181 484.5,-193 472.5,-205 429.5,-205 417.5,-193 417.5,-181 429.5,-169"/>
<path fill="#ffffff" stroke="#ffffff" stroke-width="1.5" d="M472.5,-169C478.5,-169 484.5,-175 484.5,-181"/>
<path fill="#ffffff" stroke="#ffffff" stroke-width="1.5" d="M484.5,-193C484.5,-199 478.5,-205 472.5,-205"/>
<path fill="#ffffff" stroke="#ffffff" stroke-width="1.5" d="M429.5,-205C423.5,-205 417.5,-199 417.5,-193"/>
<path fill="#ffffff" stroke="#ffffff" stroke-width="1.5" d="M417.5,-181C417.5,-175 423.5,-169 429.5,-169"/>
<polyline fill="none" stroke="#2e3436" stroke-width="1.5" points="429.5,-169 472.5,-169 "/>
<path fill="none" stroke="#2e3436" stroke-width="1.5" d="M472.5,-169C478.5,-169 484.5,-175 484.5,-181"/>
<polyline fill="none" stroke="#2e3436" stroke-width="1.5" points="484.5,-181 484.5,-193 "/>
<path fill="none" stroke="#2e3436" stroke-width="1.5" d="M484.5,-193C484.5,-199 478.5,-205 472.5,-205"/>
<polyline fill="none" stroke="#2e3436" stroke-width="1.5" points="472.5,-205 429.5,-205 "/>
<path fill="none" stroke="#2e3436" stroke-width="1.5" d="M429.5,-205C423.5,-205 417.5,-199 417.5,-193"/>
<polyline fill="none" stroke="#2e3436" stroke-width="1.5" points="417.5,-193 417.5,-181 "/>
<path fill="none" stroke="#2e3436" stroke-width="1.5" d="M417.5,-181C417.5,-175 423.5,-169 429.5,-169"/>
<text text-anchor="start" x="425.5" y="-184.8" font-family="FreeSans" font-size="8.00" fill="#1c2021">name = &#39;Jill&#39;</text>
</g>
<!-- N9&#45;&gt;N2 -->
<g id="edge14" class="edge"><title>N9&#45;&gt;N2</title>
<path fill="none" stroke="#4e9a06" stroke-width="2" d="M417.394,-176.28C387.029,-166.639 341.085,-152.164 301,-140 280.793,-133.868 258.713,-127.329 238.762,-121.481"/>
<polygon fill="#4e9a06" stroke="#4e9a06" points="231.515,-119.36 239.661,-118.228 235.254,-119.934 238.853,-120.987 238.713,-121.467 238.572,-121.947 234.973,-120.894 237.765,-124.706 231.515,-119.36 231.515,-119.36"/>
<text text-anchor="middle" x="345.5" y="-142.8" font-family="FreeSans" font-size="8.00" fill="#4e9a06">favorite</text>
</g>
<!-- N9&#45;&gt;N3 -->
<g id="edge16" class="edge"><title>N9&#45;&gt;N3</title>
<path fill="none" stroke="#4e9a06" stroke-width="2" d="M451,-168.773C451,-157.105 451,-141.787 451,-128.87"/>
<polygon fill="#4e9a06" stroke="#4e9a06" points="451,-121.191 454.375,-128.691 451.5,-124.941 451.5,-128.691 451,-128.691 450.5,-128.691 450.5,-124.941 447.625,-128.691 451,-121.191 451,-121.191"/>
<text text-anchor="middle" x="467.5" y="-142.8" font-family="FreeSans" font-size="8.00" fill="#4e9a06">favorite</text>
</g>
<!-- N9&#45;&gt;N7 -->
<g id="edge18" class="edge"><title>N9&#45;&gt;N7</title>
<path fill="none" stroke="#4e9a06" stroke-width="2" d="M484.749,-176.616C529.189,-162.942 608.119,-138.656 663.118,-121.733"/>
<polygon fill="#4e9a06" stroke="#4e9a06" points="670.376,-119.5 664.2,-124.931 666.939,-121.08 663.355,-122.183 663.208,-121.705 663.061,-121.228 666.645,-120.125 662.215,-118.48 670.376,-119.5 670.376,-119.5"/>
<text text-anchor="middle" x="611.5" y="-142.8" font-family="FreeSans" font-size="8.00" fill="#4e9a06">favorite</text>
</g>
<!-- N10 -->
<g id="node19" class="node"><title>N10</title>
<polygon fill="#ffffff" stroke="#ffffff" stroke-width="1.5" points="151.5,-169 198.5,-169 210.5,-181 210.5,-193 198.5,-205 151.5,-205 139.5,-193 139.5,-181 151.5,-169"/>
<path fill="#ffffff" stroke="#ffffff" stroke-width="1.5" d="M198.5,-169C204.5,-169 210.5,-175 210.5,-181"/>
<path fill="#ffffff" stroke="#ffffff" stroke-width="1.5" d="M210.5,-193C210.5,-199 204.5,-205 198.5,-205"/>
<path fill="#ffffff" stroke="#ffffff" stroke-width="1.5" d="M151.5,-205C145.5,-205 139.5,-199 139.5,-193"/>
<path fill="#ffffff" stroke="#ffffff" stroke-width="1.5" d="M139.5,-181C139.5,-175 145.5,-169 151.5,-169"/>
<polyline fill="none" stroke="#2e3436" stroke-width="1.5" points="151.5,-169 198.5,-169 "/>
<path fill="none" stroke="#2e3436" stroke-width="1.5" d="M198.5,-169C204.5,-169 210.5,-175 210.5,-181"/>
<polyline fill="none" stroke="#2e3436" stroke-width="1.5" points="210.5,-181 210.5,-193 "/>
<path fill="none" stroke="#2e3436" stroke-width="1.5" d="M210.5,-193C210.5,-199 204.5,-205 198.5,-205"/>
<polyline fill="none" stroke="#2e3436" stroke-width="1.5" points="198.5,-205 151.5,-205 "/>
<path fill="none" stroke="#2e3436" stroke-width="1.5" d="M151.5,-205C145.5,-205 139.5,-199 139.5,-193"/>
<polyline fill="none" stroke="#2e3436" stroke-width="1.5" points="139.5,-193 139.5,-181 "/>
<path fill="none" stroke="#2e3436" stroke-width="1.5" d="M139.5,-181C139.5,-175 145.5,-169 151.5,-169"/>
<text text-anchor="start" x="147.5" y="-184.8" font-family="FreeSans" font-size="8.00" fill="#1c2021">name = &#39;Joe&#39;</text>
</g>
<!-- N10&#45;&gt;N1 -->
<g id="edge22" class="edge"><title>N10&#45;&gt;N1</title>
<path fill="none" stroke="#4e9a06" stroke-width="2" d="M147.112,-168.98C127.369,-156.223 100.757,-139.028 79.6506,-125.39"/>
<polygon fill="#4e9a06" stroke="#4e9a06" points="73.2907,-121.28 81.4218,-122.516 76.7118,-122.895 79.8615,-124.931 79.5901,-125.351 79.3187,-125.771 76.169,-123.735 77.7584,-128.185 73.2907,-121.28 73.2907,-121.28"/>
<text text-anchor="middle" x="130.5" y="-142.8" font-family="FreeSans" font-size="8.00" fill="#4e9a06">favorite</text>
</g>
<!-- N10&#45;&gt;N2 -->
<g id="edge20" class="edge"><title>N10&#45;&gt;N2</title>
<path fill="none" stroke="#4e9a06" stroke-width="2" d="M175,-168.773C175,-157.105 175,-141.787 175,-128.87"/>
<polygon fill="#4e9a06" stroke="#4e9a06" points="175,-121.191 178.375,-128.691 175.5,-124.941 175.5,-128.691 175,-128.691 174.5,-128.691 174.5,-124.941 171.625,-128.691 175,-121.191 175,-121.191"/>
<text text-anchor="middle" x="191.5" y="-142.8" font-family="FreeSans" font-size="8.00" fill="#4e9a06">favorite</text>
</g>
<!-- N10&#45;&gt;N3 -->
<g id="edge24" class="edge"><title>N10&#45;&gt;N3</title>
<path fill="none" stroke="#4e9a06" stroke-width="2" d="M202.118,-168.889C218.498,-158.806 240.172,-146.926 261,-140 314.679,-122.15 331.737,-134.082 387,-122 389.123,-121.536 391.278,-121.038 393.45,-120.513"/>
<polygon fill="#4e9a06" stroke="#4e9a06" points="400.872,-118.639 394.427,-123.747 397.359,-120.042 393.723,-120.96 393.601,-120.475 393.478,-119.99 397.114,-119.072 392.774,-117.203 400.872,-118.639 400.872,-118.639"/>
<text text-anchor="middle" x="277.5" y="-142.8" font-family="FreeSans" font-size="8.00" fill="#4e9a06">favorite</text>
</g>
</g>
</svg>
