<?xml version="1.0" encoding="UTF-8" standalone="no"?>
<!DOCTYPE svg PUBLIC "-//W3C//DTD SVG 1.1//EN"
 "http://www.w3.org/Graphics/SVG/1.1/DTD/svg11.dtd">
<!-- Generated by graphviz version 2.26.3 (20100126.1600)
 -->
<!-- Title: g Pages: 1 -->
<svg width="253pt" height="284pt"
 viewBox="0.00 0.00 253.00 284.00" xmlns="http://www.w3.org/2000/svg" xmlns:xlink="http://www.w3.org/1999/xlink">
<g id="graph1" class="graph" transform="scale(1 1) rotate(0) translate(4 280)">
<title>g</title>
<polygon fill="white" stroke="white" points="-4,5 -4,-280 250,-280 250,5 -4,5"/>
<!-- N1 -->
<g id="node1" class="node"><title>N1</title>
<polygon fill="#ffffff" stroke="#ffffff" stroke-width="1.5" points="177,-6 233,-6 245,-18 245,-50 233,-62 177,-62 165,-50 165,-18 177,-6"/>
<path fill="#ffffff" stroke="#ffffff" stroke-width="1.5" d="M233,-6C239,-6 245,-12 245,-18"/>
<path fill="#ffffff" stroke="#ffffff" stroke-width="1.5" d="M245,-50C245,-56 239,-62 233,-62"/>
<path fill="#ffffff" stroke="#ffffff" stroke-width="1.5" d="M177,-62C171,-62 165,-56 165,-50"/>
<path fill="#ffffff" stroke="#ffffff" stroke-width="1.5" d="M165,-18C165,-12 171,-6 177,-6"/>
<polyline fill="none" stroke="#2e3436" stroke-width="1.5" points="177,-6 233,-6 "/>
<path fill="none" stroke="#2e3436" stroke-width="1.5" d="M233,-6C239,-6 245,-12 245,-18"/>
<polyline fill="none" stroke="#2e3436" stroke-width="1.5" points="245,-18 245,-50 "/>
<path fill="none" stroke="#2e3436" stroke-width="1.5" d="M245,-50C245,-56 239,-62 233,-62"/>
<polyline fill="none" stroke="#2e3436" stroke-width="1.5" points="233,-62 177,-62 "/>
<path fill="none" stroke="#2e3436" stroke-width="1.5" d="M177,-62C171,-62 165,-56 165,-50"/>
<polyline fill="none" stroke="#2e3436" stroke-width="1.5" points="165,-50 165,-18 "/>
<path fill="none" stroke="#2e3436" stroke-width="1.5" d="M165,-18C165,-12 171,-6 177,-6"/>
<text text-anchor="middle" x="205" y="-50.8" font-family="FreeSans" font-size="8.00" fill="#1c2021">Node[1]</text>
<polyline fill="none" stroke="#2e3436" stroke-width="1.5" points="165,-44 245,-44 "/>
<text text-anchor="start" x="173" y="-32.8" font-family="FreeSans" font-size="8.00" fill="#1c2021">name = &#39;D&#39;</text>
<text text-anchor="start" x="173" y="-22.8" font-family="FreeSans" font-size="8.00" fill="#1c2021">age = 54</text>
<text text-anchor="start" x="173" y="-12.8" font-family="FreeSans" font-size="8.00" fill="#1c2021">eyes = &#39;brown&#39;</text>
</g>
<!-- N2 -->
<g id="node2" class="node"><title>N2</title>
<polygon fill="#ffffff" stroke="#ffffff" stroke-width="1.5" points="11.5,-1 124.5,-1 136.5,-13 136.5,-55 124.5,-67 11.5,-67 -0.5,-55 -0.5,-13 11.5,-1"/>
<path fill="#ffffff" stroke="#ffffff" stroke-width="1.5" d="M124.5,-1C130.5,-1 136.5,-7 136.5,-13"/>
<path fill="#ffffff" stroke="#ffffff" stroke-width="1.5" d="M136.5,-55C136.5,-61 130.5,-67 124.5,-67"/>
<path fill="#ffffff" stroke="#ffffff" stroke-width="1.5" d="M11.5,-67C5.5,-67 -0.5,-61 -0.5,-55"/>
<path fill="#ffffff" stroke="#ffffff" stroke-width="1.5" d="M-0.5,-13C-0.5,-7 5.5,-1 11.5,-1"/>
<polyline fill="none" stroke="#2e3436" stroke-width="1.5" points="11.5,-1 124.5,-1 "/>
<path fill="none" stroke="#2e3436" stroke-width="1.5" d="M124.5,-1C130.5,-1 136.5,-7 136.5,-13"/>
<polyline fill="none" stroke="#2e3436" stroke-width="1.5" points="136.5,-13 136.5,-55 "/>
<path fill="none" stroke="#2e3436" stroke-width="1.5" d="M136.5,-55C136.5,-61 130.5,-67 124.5,-67"/>
<polyline fill="none" stroke="#2e3436" stroke-width="1.5" points="124.5,-67 11.5,-67 "/>
<path fill="none" stroke="#2e3436" stroke-width="1.5" d="M11.5,-67C5.5,-67 -0.5,-61 -0.5,-55"/>
<polyline fill="none" stroke="#2e3436" stroke-width="1.5" points="-0.5,-55 -0.5,-13 "/>
<path fill="none" stroke="#2e3436" stroke-width="1.5" d="M-0.5,-13C-0.5,-7 5.5,-1 11.5,-1"/>
<text text-anchor="middle" x="68" y="-55.8" font-family="FreeSans" font-size="8.00" fill="#1c2021">Node[2]</text>
<polyline fill="none" stroke="#2e3436" stroke-width="1.5" points="-0.5,-49 136.5,-49 "/>
<text text-anchor="start" x="7.5" y="-37.8" font-family="FreeSans" font-size="8.00" fill="#1c2021">name = &#39;E&#39;</text>
<text text-anchor="start" x="7.5" y="-27.8" font-family="FreeSans" font-size="8.00" fill="#1c2021">age = 41</text>
<text text-anchor="start" x="7.5" y="-17.8" font-family="FreeSans" font-size="8.00" fill="#1c2021">eyes = &#39;blue&#39;</text>
<text text-anchor="start" x="7.5" y="-7.8" font-family="FreeSans" font-size="8.00" fill="#1c2021">array = [&#39;one&#39;, &#39;two&#39;, &#39;three&#39;]</text>
</g>
<!-- N3 -->
<g id="node3" class="node"><title>N3</title>
<polygon fill="#ffffff" stroke="#ffffff" stroke-width="1.5" points="129,-219 185,-219 197,-231 197,-263 185,-275 129,-275 117,-263 117,-231 129,-219"/>
<path fill="#ffffff" stroke="#ffffff" stroke-width="1.5" d="M185,-219C191,-219 197,-225 197,-231"/>
<path fill="#ffffff" stroke="#ffffff" stroke-width="1.5" d="M197,-263C197,-269 191,-275 185,-275"/>
<path fill="#ffffff" stroke="#ffffff" stroke-width="1.5" d="M129,-275C123,-275 117,-269 117,-263"/>
<path fill="#ffffff" stroke="#ffffff" stroke-width="1.5" d="M117,-231C117,-225 123,-219 129,-219"/>
<polyline fill="none" stroke="#2e3436" stroke-width="1.5" points="129,-219 185,-219 "/>
<path fill="none" stroke="#2e3436" stroke-width="1.5" d="M185,-219C191,-219 197,-225 197,-231"/>
<polyline fill="none" stroke="#2e3436" stroke-width="1.5" points="197,-231 197,-263 "/>
<path fill="none" stroke="#2e3436" stroke-width="1.5" d="M197,-263C197,-269 191,-275 185,-275"/>
<polyline fill="none" stroke="#2e3436" stroke-width="1.5" points="185,-275 129,-275 "/>
<path fill="none" stroke="#2e3436" stroke-width="1.5" d="M129,-275C123,-275 117,-269 117,-263"/>
<polyline fill="none" stroke="#2e3436" stroke-width="1.5" points="117,-263 117,-231 "/>
<path fill="none" stroke="#2e3436" stroke-width="1.5" d="M117,-231C117,-225 123,-219 129,-219"/>
<text text-anchor="middle" x="157" y="-263.8" font-family="FreeSans" font-size="8.00" fill="#1c2021">Node[3]</text>
<polyline fill="none" stroke="#2e3436" stroke-width="1.5" points="117,-257 197,-257 "/>
<text text-anchor="start" x="125" y="-245.8" font-family="FreeSans" font-size="8.00" fill="#1c2021">name = &#39;A&#39;</text>
<text text-anchor="start" x="125" y="-235.8" font-family="FreeSans" font-size="8.00" fill="#1c2021">age = 38</text>
<text text-anchor="start" x="125" y="-225.8" font-family="FreeSans" font-size="8.00" fill="#1c2021">eyes = &#39;brown&#39;</text>
</g>
<!-- N4 -->
<g id="node5" class="node"><title>N4</title>
<polygon fill="#ffffff" stroke="#ffffff" stroke-width="1.5" points="77,-115 125,-115 137,-127 137,-159 125,-171 77,-171 65,-159 65,-127 77,-115"/>
<path fill="#ffffff" stroke="#ffffff" stroke-width="1.5" d="M125,-115C131,-115 137,-121 137,-127"/>
<path fill="#ffffff" stroke="#ffffff" stroke-width="1.5" d="M137,-159C137,-165 131,-171 125,-171"/>
<path fill="#ffffff" stroke="#ffffff" stroke-width="1.5" d="M77,-171C71,-171 65,-165 65,-159"/>
<path fill="#ffffff" stroke="#ffffff" stroke-width="1.5" d="M65,-127C65,-121 71,-115 77,-115"/>
<polyline fill="none" stroke="#2e3436" stroke-width="1.5" points="77,-115 125,-115 "/>
<path fill="none" stroke="#2e3436" stroke-width="1.5" d="M125,-115C131,-115 137,-121 137,-127"/>
<polyline fill="none" stroke="#2e3436" stroke-width="1.5" points="137,-127 137,-159 "/>
<path fill="none" stroke="#2e3436" stroke-width="1.5" d="M137,-159C137,-165 131,-171 125,-171"/>
<polyline fill="none" stroke="#2e3436" stroke-width="1.5" points="125,-171 77,-171 "/>
<path fill="none" stroke="#2e3436" stroke-width="1.5" d="M77,-171C71,-171 65,-165 65,-159"/>
<polyline fill="none" stroke="#2e3436" stroke-width="1.5" points="65,-159 65,-127 "/>
<path fill="none" stroke="#2e3436" stroke-width="1.5" d="M65,-127C65,-121 71,-115 77,-115"/>
<text text-anchor="middle" x="101" y="-159.8" font-family="FreeSans" font-size="8.00" fill="#1c2021">Node[4]</text>
<polyline fill="none" stroke="#2e3436" stroke-width="1.5" points="65,-153 137,-153 "/>
<text text-anchor="start" x="73" y="-141.8" font-family="FreeSans" font-size="8.00" fill="#1c2021">name = &#39;B&#39;</text>
<text text-anchor="start" x="73" y="-131.8" font-family="FreeSans" font-size="8.00" fill="#1c2021">age = 25</text>
<text text-anchor="start" x="73" y="-121.8" font-family="FreeSans" font-size="8.00" fill="#1c2021">eyes = &#39;blue&#39;</text>
</g>
<!-- N3&#45;&gt;N4 -->
<g id="edge2" class="edge"><title>N3&#45;&gt;N4</title>
<path fill="none" stroke="#2e3436" stroke-width="2" d="M141.846,-218.856C135.06,-206.254 126.989,-191.266 119.821,-177.954"/>
<polygon fill="#2e3436" stroke="#2e3436" points="116.167,-171.166 122.694,-176.17 118.385,-174.231 120.163,-177.533 119.722,-177.77 119.282,-178.007 117.504,-174.705 116.751,-179.37 116.167,-171.166 116.167,-171.166"/>
<text text-anchor="middle" x="145.5" y="-192.8" font-family="FreeSans" font-size="8.00" fill="#2e3436">KNOWS</text>
</g>
<!-- N5 -->
<g id="node7" class="node"><title>N5</title>
<polygon fill="#ffffff" stroke="#ffffff" stroke-width="1.5" points="177.5,-115 232.5,-115 244.5,-127 244.5,-159 232.5,-171 177.5,-171 165.5,-159 165.5,-127 177.5,-115"/>
<path fill="#ffffff" stroke="#ffffff" stroke-width="1.5" d="M232.5,-115C238.5,-115 244.5,-121 244.5,-127"/>
<path fill="#ffffff" stroke="#ffffff" stroke-width="1.5" d="M244.5,-159C244.5,-165 238.5,-171 232.5,-171"/>
<path fill="#ffffff" stroke="#ffffff" stroke-width="1.5" d="M177.5,-171C171.5,-171 165.5,-165 165.5,-159"/>
<path fill="#ffffff" stroke="#ffffff" stroke-width="1.5" d="M165.5,-127C165.5,-121 171.5,-115 177.5,-115"/>
<polyline fill="none" stroke="#2e3436" stroke-width="1.5" points="177.5,-115 232.5,-115 "/>
<path fill="none" stroke="#2e3436" stroke-width="1.5" d="M232.5,-115C238.5,-115 244.5,-121 244.5,-127"/>
<polyline fill="none" stroke="#2e3436" stroke-width="1.5" points="244.5,-127 244.5,-159 "/>
<path fill="none" stroke="#2e3436" stroke-width="1.5" d="M244.5,-159C244.5,-165 238.5,-171 232.5,-171"/>
<polyline fill="none" stroke="#2e3436" stroke-width="1.5" points="232.5,-171 177.5,-171 "/>
<path fill="none" stroke="#2e3436" stroke-width="1.5" d="M177.5,-171C171.5,-171 165.5,-165 165.5,-159"/>
<polyline fill="none" stroke="#2e3436" stroke-width="1.5" points="165.5,-159 165.5,-127 "/>
<path fill="none" stroke="#2e3436" stroke-width="1.5" d="M165.5,-127C165.5,-121 171.5,-115 177.5,-115"/>
<text text-anchor="middle" x="205" y="-159.8" font-family="FreeSans" font-size="8.00" fill="#1c2021">Node[5]</text>
<polyline fill="none" stroke="#2e3436" stroke-width="1.5" points="165.5,-153 244.5,-153 "/>
<text text-anchor="start" x="173.5" y="-141.8" font-family="FreeSans" font-size="8.00" fill="#1c2021">name = &#39;C&#39;</text>
<text text-anchor="start" x="173.5" y="-131.8" font-family="FreeSans" font-size="8.00" fill="#1c2021">age = 53</text>
<text text-anchor="start" x="173.5" y="-121.8" font-family="FreeSans" font-size="8.00" fill="#1c2021">eyes = &#39;green&#39;</text>
</g>
<!-- N3&#45;&gt;N5 -->
<g id="edge4" class="edge"><title>N3&#45;&gt;N5</title>
<path fill="none" stroke="#2e3436" stroke-width="2" d="M169.989,-218.856C175.752,-206.37 182.597,-191.541 188.698,-178.32"/>
<polygon fill="#2e3436" stroke="#2e3436" points="192,-171.166 191.922,-179.39 190.883,-174.781 189.311,-178.186 188.857,-177.976 188.403,-177.767 189.975,-174.362 185.793,-176.562 192,-171.166 192,-171.166"/>
<text text-anchor="middle" x="197.5" y="-192.8" font-family="FreeSans" font-size="8.00" fill="#2e3436">KNOWS</text>
</g>
<!-- N4&#45;&gt;N1 -->
<g id="edge6" class="edge"><title>N4&#45;&gt;N1</title>
<path fill="none" stroke="#2e3436" stroke-width="2" d="M127.783,-114.93C141.505,-100.548 158.318,-82.9264 172.748,-67.8023"/>
<polygon fill="#2e3436" stroke="#2e3436" points="177.947,-62.3539 175.211,-70.1101 175.72,-65.4122 173.131,-68.1254 172.769,-67.7802 172.408,-67.4351 174.996,-64.7219 170.327,-65.4504 177.947,-62.3539 177.947,-62.3539"/>
<text text-anchor="middle" x="168.5" y="-88.8" font-family="FreeSans" font-size="8.00" fill="#2e3436">KNOWS</text>
</g>
<!-- N4&#45;&gt;N2 -->
<g id="edge8" class="edge"><title>N4&#45;&gt;N2</title>
<path fill="none" stroke="#4e9a06" stroke-width="2" d="M75.6179,-114.811C71.6662,-108.961 68.1765,-102.567 66,-96 63.7855,-89.3186 62.8322,-82.0074 62.6403,-74.8237"/>
<polygon fill="#4e9a06" stroke="#4e9a06" points="62.7074,-67.1143 66.0169,-74.6435 63.1747,-70.8686 63.142,-74.6184 62.642,-74.6141 62.1421,-74.6097 62.1747,-70.8598 59.2672,-74.5846 62.7074,-67.1143 62.7074,-67.1143"/>
<text text-anchor="middle" x="84.5" y="-88.8" font-family="FreeSans" font-size="8.00" fill="#4e9a06">MARRIED</text>
</g>
<!-- N5&#45;&gt;N1 -->
<g id="edge10" class="edge"><title>N5&#45;&gt;N1</title>
<path fill="none" stroke="#2e3436" stroke-width="2" d="M205,-114.93C205,-101.305 205,-84.7723 205,-70.2102"/>
<polygon fill="#2e3436" stroke="#2e3436" points="205,-62.3539 208.375,-69.8539 205.5,-66.1039 205.5,-69.8539 205,-69.8539 204.5,-69.8539 204.5,-66.1039 201.625,-69.854 205,-62.3539 205,-62.3539"/>
<text text-anchor="middle" x="220.5" y="-88.8" font-family="FreeSans" font-size="8.00" fill="#2e3436">KNOWS</text>
</g>
</g>
</svg>
