<?xml version="1.0" encoding="UTF-8" standalone="no"?>
<!DOCTYPE svg PUBLIC "-//W3C//DTD SVG 1.1//EN"
 "http://www.w3.org/Graphics/SVG/1.1/DTD/svg11.dtd">
<!-- Generated by graphviz version 2.26.3 (20100126.1600)
 -->
<!-- Title: g Pages: 1 -->
<svg width="498pt" height="214pt"
 viewBox="0.00 0.00 498.00 214.00" xmlns="http://www.w3.org/2000/svg" xmlns:xlink="http://www.w3.org/1999/xlink">
<g id="graph1" class="graph" transform="scale(1 1) rotate(0) translate(4 210)">
<title>g</title>
<polygon fill="white" stroke="white" points="-4,5 -4,-210 495,-210 495,5 -4,5"/>
<!-- N1 -->
<g id="node1" class="node"><title>N1</title>
<polygon fill="#ffffff" stroke="#ffffff" stroke-width="1.5" points="93,-1 161,-1 173,-13 173,-25 161,-37 93,-37 81,-25 81,-13 93,-1"/>
<path fill="#ffffff" stroke="#ffffff" stroke-width="1.5" d="M161,-1C167,-1 173,-7 173,-13"/>
<path fill="#ffffff" stroke="#ffffff" stroke-width="1.5" d="M173,-25C173,-31 167,-37 161,-37"/>
<path fill="#ffffff" stroke="#ffffff" stroke-width="1.5" d="M93,-37C87,-37 81,-31 81,-25"/>
<path fill="#ffffff" stroke="#ffffff" stroke-width="1.5" d="M81,-13C81,-7 87,-1 93,-1"/>
<polyline fill="none" stroke="#2e3436" stroke-width="1.5" points="93,-1 161,-1 "/>
<path fill="none" stroke="#2e3436" stroke-width="1.5" d="M161,-1C167,-1 173,-7 173,-13"/>
<polyline fill="none" stroke="#2e3436" stroke-width="1.5" points="173,-13 173,-25 "/>
<path fill="none" stroke="#2e3436" stroke-width="1.5" d="M173,-25C173,-31 167,-37 161,-37"/>
<polyline fill="none" stroke="#2e3436" stroke-width="1.5" points="161,-37 93,-37 "/>
<path fill="none" stroke="#2e3436" stroke-width="1.5" d="M93,-37C87,-37 81,-31 81,-25"/>
<polyline fill="none" stroke="#2e3436" stroke-width="1.5" points="81,-25 81,-13 "/>
<path fill="none" stroke="#2e3436" stroke-width="1.5" d="M81,-13C81,-7 87,-1 93,-1"/>
<text text-anchor="start" x="89" y="-16.8" font-family="FreeSans" font-size="8.00" fill="#1c2021">name = &#39;Animals&#39;</text>
</g>
<!-- N2 -->
<g id="node2" class="node"><title>N2</title>
<polygon fill="#ffffff" stroke="#ffffff" stroke-width="1.5" points="257,-1 317,-1 329,-13 329,-25 317,-37 257,-37 245,-25 245,-13 257,-1"/>
<path fill="#ffffff" stroke="#ffffff" stroke-width="1.5" d="M317,-1C323,-1 329,-7 329,-13"/>
<path fill="#ffffff" stroke="#ffffff" stroke-width="1.5" d="M329,-25C329,-31 323,-37 317,-37"/>
<path fill="#ffffff" stroke="#ffffff" stroke-width="1.5" d="M257,-37C251,-37 245,-31 245,-25"/>
<path fill="#ffffff" stroke="#ffffff" stroke-width="1.5" d="M245,-13C245,-7 251,-1 257,-1"/>
<polyline fill="none" stroke="#2e3436" stroke-width="1.5" points="257,-1 317,-1 "/>
<path fill="none" stroke="#2e3436" stroke-width="1.5" d="M317,-1C323,-1 329,-7 329,-13"/>
<polyline fill="none" stroke="#2e3436" stroke-width="1.5" points="329,-13 329,-25 "/>
<path fill="none" stroke="#2e3436" stroke-width="1.5" d="M329,-25C329,-31 323,-37 317,-37"/>
<polyline fill="none" stroke="#2e3436" stroke-width="1.5" points="317,-37 257,-37 "/>
<path fill="none" stroke="#2e3436" stroke-width="1.5" d="M257,-37C251,-37 245,-31 245,-25"/>
<polyline fill="none" stroke="#2e3436" stroke-width="1.5" points="245,-25 245,-13 "/>
<path fill="none" stroke="#2e3436" stroke-width="1.5" d="M245,-13C245,-7 251,-1 257,-1"/>
<text text-anchor="start" x="253" y="-16.8" font-family="FreeSans" font-size="8.00" fill="#1c2021">name = &#39;Hobby&#39;</text>
</g>
<!-- N3 -->
<g id="node3" class="node"><title>N3</title>
<polygon fill="#ffffff" stroke="#ffffff" stroke-width="1.5" points="233.5,-85 298.5,-85 310.5,-97 310.5,-109 298.5,-121 233.5,-121 221.5,-109 221.5,-97 233.5,-85"/>
<path fill="#ffffff" stroke="#ffffff" stroke-width="1.5" d="M298.5,-85C304.5,-85 310.5,-91 310.5,-97"/>
<path fill="#ffffff" stroke="#ffffff" stroke-width="1.5" d="M310.5,-109C310.5,-115 304.5,-121 298.5,-121"/>
<path fill="#ffffff" stroke="#ffffff" stroke-width="1.5" d="M233.5,-121C227.5,-121 221.5,-115 221.5,-109"/>
<path fill="#ffffff" stroke="#ffffff" stroke-width="1.5" d="M221.5,-97C221.5,-91 227.5,-85 233.5,-85"/>
<polyline fill="none" stroke="#2e3436" stroke-width="1.5" points="233.5,-85 298.5,-85 "/>
<path fill="none" stroke="#2e3436" stroke-width="1.5" d="M298.5,-85C304.5,-85 310.5,-91 310.5,-97"/>
<polyline fill="none" stroke="#2e3436" stroke-width="1.5" points="310.5,-97 310.5,-109 "/>
<path fill="none" stroke="#2e3436" stroke-width="1.5" d="M310.5,-109C310.5,-115 304.5,-121 298.5,-121"/>
<polyline fill="none" stroke="#2e3436" stroke-width="1.5" points="298.5,-121 233.5,-121 "/>
<path fill="none" stroke="#2e3436" stroke-width="1.5" d="M233.5,-121C227.5,-121 221.5,-115 221.5,-109"/>
<polyline fill="none" stroke="#2e3436" stroke-width="1.5" points="221.5,-109 221.5,-97 "/>
<path fill="none" stroke="#2e3436" stroke-width="1.5" d="M221.5,-97C221.5,-91 227.5,-85 233.5,-85"/>
<text text-anchor="start" x="229.5" y="-100.8" font-family="FreeSans" font-size="8.00" fill="#1c2021">name = &#39;Surfing&#39;</text>
</g>
<!-- N3&#45;&gt;N2 -->
<g id="edge2" class="edge"><title>N3&#45;&gt;N2</title>
<path fill="none" stroke="#2e3436" stroke-width="2" d="M270.557,-84.7733C273.501,-72.9952 277.375,-57.4981 280.624,-44.5049"/>
<polygon fill="#2e3436" stroke="#2e3436" points="282.452,-37.1912 283.907,-45.2858 282.028,-40.9505 281.118,-44.5885 280.633,-44.4672 280.148,-44.346 281.058,-40.7079 277.359,-43.6487 282.452,-37.1912 282.452,-37.1912"/>
<text text-anchor="middle" x="292" y="-58.8" font-family="FreeSans" font-size="8.00" fill="#2e3436">tagged</text>
</g>
<!-- N4 -->
<g id="node5" class="node"><title>N4</title>
<polygon fill="#ffffff" stroke="#ffffff" stroke-width="1.5" points="296,-169 350,-169 362,-181 362,-193 350,-205 296,-205 284,-193 284,-181 296,-169"/>
<path fill="#ffffff" stroke="#ffffff" stroke-width="1.5" d="M350,-169C356,-169 362,-175 362,-181"/>
<path fill="#ffffff" stroke="#ffffff" stroke-width="1.5" d="M362,-193C362,-199 356,-205 350,-205"/>
<path fill="#ffffff" stroke="#ffffff" stroke-width="1.5" d="M296,-205C290,-205 284,-199 284,-193"/>
<path fill="#ffffff" stroke="#ffffff" stroke-width="1.5" d="M284,-181C284,-175 290,-169 296,-169"/>
<polyline fill="none" stroke="#2e3436" stroke-width="1.5" points="296,-169 350,-169 "/>
<path fill="none" stroke="#2e3436" stroke-width="1.5" d="M350,-169C356,-169 362,-175 362,-181"/>
<polyline fill="none" stroke="#2e3436" stroke-width="1.5" points="362,-181 362,-193 "/>
<path fill="none" stroke="#2e3436" stroke-width="1.5" d="M362,-193C362,-199 356,-205 350,-205"/>
<polyline fill="none" stroke="#2e3436" stroke-width="1.5" points="350,-205 296,-205 "/>
<path fill="none" stroke="#2e3436" stroke-width="1.5" d="M296,-205C290,-205 284,-199 284,-193"/>
<polyline fill="none" stroke="#2e3436" stroke-width="1.5" points="284,-193 284,-181 "/>
<path fill="none" stroke="#2e3436" stroke-width="1.5" d="M284,-181C284,-175 290,-169 296,-169"/>
<text text-anchor="start" x="292" y="-184.8" font-family="FreeSans" font-size="8.00" fill="#1c2021">name = &#39;Sara&#39;</text>
</g>
<!-- N8 -->
<g id="node7" class="node"><title>N8</title>
<polygon fill="#ffffff" stroke="#ffffff" stroke-width="1.5" points="350.5,-85 407.5,-85 419.5,-97 419.5,-109 407.5,-121 350.5,-121 338.5,-109 338.5,-97 350.5,-85"/>
<path fill="#ffffff" stroke="#ffffff" stroke-width="1.5" d="M407.5,-85C413.5,-85 419.5,-91 419.5,-97"/>
<path fill="#ffffff" stroke="#ffffff" stroke-width="1.5" d="M419.5,-109C419.5,-115 413.5,-121 407.5,-121"/>
<path fill="#ffffff" stroke="#ffffff" stroke-width="1.5" d="M350.5,-121C344.5,-121 338.5,-115 338.5,-109"/>
<path fill="#ffffff" stroke="#ffffff" stroke-width="1.5" d="M338.5,-97C338.5,-91 344.5,-85 350.5,-85"/>
<polyline fill="none" stroke="#2e3436" stroke-width="1.5" points="350.5,-85 407.5,-85 "/>
<path fill="none" stroke="#2e3436" stroke-width="1.5" d="M407.5,-85C413.5,-85 419.5,-91 419.5,-97"/>
<polyline fill="none" stroke="#2e3436" stroke-width="1.5" points="419.5,-97 419.5,-109 "/>
<path fill="none" stroke="#2e3436" stroke-width="1.5" d="M419.5,-109C419.5,-115 413.5,-121 407.5,-121"/>
<polyline fill="none" stroke="#2e3436" stroke-width="1.5" points="407.5,-121 350.5,-121 "/>
<path fill="none" stroke="#2e3436" stroke-width="1.5" d="M350.5,-121C344.5,-121 338.5,-115 338.5,-109"/>
<polyline fill="none" stroke="#2e3436" stroke-width="1.5" points="338.5,-109 338.5,-97 "/>
<path fill="none" stroke="#2e3436" stroke-width="1.5" d="M338.5,-97C338.5,-91 344.5,-85 350.5,-85"/>
<text text-anchor="start" x="346.5" y="-100.8" font-family="FreeSans" font-size="8.00" fill="#1c2021">name = &#39;Bikes&#39;</text>
</g>
<!-- N4&#45;&gt;N8 -->
<g id="edge4" class="edge"><title>N4&#45;&gt;N8</title>
<path fill="none" stroke="#4e9a06" stroke-width="2" d="M335.151,-168.773C343.15,-156.775 353.722,-140.917 362.481,-127.779"/>
<polygon fill="#4e9a06" stroke="#4e9a06" points="366.873,-121.191 365.52,-129.304 365.208,-124.589 363.128,-127.709 362.712,-127.432 362.296,-127.154 364.376,-124.034 359.904,-125.559 366.873,-121.191 366.873,-121.191"/>
<text text-anchor="middle" x="368.5" y="-142.8" font-family="FreeSans" font-size="8.00" fill="#4e9a06">favorite</text>
</g>
<!-- N7 -->
<g id="node9" class="node"><title>N7</title>
<polygon fill="#ffffff" stroke="#ffffff" stroke-width="1.5" points="116.5,-85 181.5,-85 193.5,-97 193.5,-109 181.5,-121 116.5,-121 104.5,-109 104.5,-97 116.5,-85"/>
<path fill="#ffffff" stroke="#ffffff" stroke-width="1.5" d="M181.5,-85C187.5,-85 193.5,-91 193.5,-97"/>
<path fill="#ffffff" stroke="#ffffff" stroke-width="1.5" d="M193.5,-109C193.5,-115 187.5,-121 181.5,-121"/>
<path fill="#ffffff" stroke="#ffffff" stroke-width="1.5" d="M116.5,-121C110.5,-121 104.5,-115 104.5,-109"/>
<path fill="#ffffff" stroke="#ffffff" stroke-width="1.5" d="M104.5,-97C104.5,-91 110.5,-85 116.5,-85"/>
<polyline fill="none" stroke="#2e3436" stroke-width="1.5" points="116.5,-85 181.5,-85 "/>
<path fill="none" stroke="#2e3436" stroke-width="1.5" d="M181.5,-85C187.5,-85 193.5,-91 193.5,-97"/>
<polyline fill="none" stroke="#2e3436" stroke-width="1.5" points="193.5,-97 193.5,-109 "/>
<path fill="none" stroke="#2e3436" stroke-width="1.5" d="M193.5,-109C193.5,-115 187.5,-121 181.5,-121"/>
<polyline fill="none" stroke="#2e3436" stroke-width="1.5" points="181.5,-121 116.5,-121 "/>
<path fill="none" stroke="#2e3436" stroke-width="1.5" d="M116.5,-121C110.5,-121 104.5,-115 104.5,-109"/>
<polyline fill="none" stroke="#2e3436" stroke-width="1.5" points="104.5,-109 104.5,-97 "/>
<path fill="none" stroke="#2e3436" stroke-width="1.5" d="M104.5,-97C104.5,-91 110.5,-85 116.5,-85"/>
<text text-anchor="start" x="112.5" y="-100.8" font-family="FreeSans" font-size="8.00" fill="#1c2021">name = &#39;Horses&#39;</text>
</g>
<!-- N4&#45;&gt;N7 -->
<g id="edge6" class="edge"><title>N4&#45;&gt;N7</title>
<path fill="none" stroke="#4e9a06" stroke-width="2" d="M310.249,-168.94C302.332,-159.003 291.332,-147.253 279,-140 250.568,-123.278 238.693,-131.14 207,-122 204.948,-121.408 202.859,-120.792 200.753,-120.158"/>
<polygon fill="#4e9a06" stroke="#4e9a06" points="193.549,-117.95 201.708,-116.921 197.28,-118.571 200.866,-119.67 200.719,-120.148 200.573,-120.626 196.987,-119.527 199.73,-123.375 193.549,-117.95 193.549,-117.95"/>
<text text-anchor="middle" x="307.5" y="-142.8" font-family="FreeSans" font-size="8.00" fill="#4e9a06">favorite</text>
</g>
<!-- N8&#45;&gt;N2 -->
<g id="edge14" class="edge"><title>N8&#45;&gt;N2</title>
<path fill="none" stroke="#2e3436" stroke-width="2" d="M359.037,-84.7733C345.414,-72.3348 327.248,-55.7484 312.567,-42.3439"/>
<polygon fill="#2e3436" stroke="#2e3436" points="306.924,-37.1912 314.738,-39.7558 310.03,-39.3505 312.799,-41.879 312.462,-42.2482 312.125,-42.6175 309.356,-40.0889 310.187,-44.7406 306.924,-37.1912 306.924,-37.1912"/>
<text text-anchor="middle" x="350" y="-58.8" font-family="FreeSans" font-size="8.00" fill="#2e3436">tagged</text>
</g>
<!-- N7&#45;&gt;N1 -->
<g id="edge12" class="edge"><title>N7&#45;&gt;N1</title>
<path fill="none" stroke="#2e3436" stroke-width="2" d="M144.226,-84.7733C141.142,-72.9952 137.083,-57.4981 133.68,-44.5049"/>
<polygon fill="#2e3436" stroke="#2e3436" points="131.764,-37.1912 136.93,-43.5914 133.198,-40.6921 134.148,-44.3198 133.665,-44.4465 133.181,-44.5732 132.231,-40.9455 130.4,-45.3016 131.764,-37.1912 131.764,-37.1912"/>
<text text-anchor="middle" x="154" y="-58.8" font-family="FreeSans" font-size="8.00" fill="#2e3436">tagged</text>
</g>
<!-- N5 -->
<g id="node10" class="node"><title>N5</title>
<polygon fill="#ffffff" stroke="#ffffff" stroke-width="1.5" points="11.5,-85 64.5,-85 76.5,-97 76.5,-109 64.5,-121 11.5,-121 -0.5,-109 -0.5,-97 11.5,-85"/>
<path fill="#ffffff" stroke="#ffffff" stroke-width="1.5" d="M64.5,-85C70.5,-85 76.5,-91 76.5,-97"/>
<path fill="#ffffff" stroke="#ffffff" stroke-width="1.5" d="M76.5,-109C76.5,-115 70.5,-121 64.5,-121"/>
<path fill="#ffffff" stroke="#ffffff" stroke-width="1.5" d="M11.5,-121C5.5,-121 -0.5,-115 -0.5,-109"/>
<path fill="#ffffff" stroke="#ffffff" stroke-width="1.5" d="M-0.5,-97C-0.5,-91 5.5,-85 11.5,-85"/>
<polyline fill="none" stroke="#2e3436" stroke-width="1.5" points="11.5,-85 64.5,-85 "/>
<path fill="none" stroke="#2e3436" stroke-width="1.5" d="M64.5,-85C70.5,-85 76.5,-91 76.5,-97"/>
<polyline fill="none" stroke="#2e3436" stroke-width="1.5" points="76.5,-97 76.5,-109 "/>
<path fill="none" stroke="#2e3436" stroke-width="1.5" d="M76.5,-109C76.5,-115 70.5,-121 64.5,-121"/>
<polyline fill="none" stroke="#2e3436" stroke-width="1.5" points="64.5,-121 11.5,-121 "/>
<path fill="none" stroke="#2e3436" stroke-width="1.5" d="M11.5,-121C5.5,-121 -0.5,-115 -0.5,-109"/>
<polyline fill="none" stroke="#2e3436" stroke-width="1.5" points="-0.5,-109 -0.5,-97 "/>
<path fill="none" stroke="#2e3436" stroke-width="1.5" d="M-0.5,-97C-0.5,-91 5.5,-85 11.5,-85"/>
<text text-anchor="start" x="7.5" y="-100.8" font-family="FreeSans" font-size="8.00" fill="#1c2021">name = &#39;Cats&#39;</text>
</g>
<!-- N5&#45;&gt;N1 -->
<g id="edge8" class="edge"><title>N5&#45;&gt;N1</title>
<path fill="none" stroke="#2e3436" stroke-width="2" d="M57.3117,-84.7733C70.4905,-72.3348 88.0642,-55.7484 102.267,-42.3439"/>
<polygon fill="#2e3436" stroke="#2e3436" points="107.726,-37.1912 104.588,-44.7935 105.342,-40.1288 102.615,-42.7027 102.272,-42.3391 101.928,-41.9755 104.656,-39.4015 99.9551,-39.8846 107.726,-37.1912 107.726,-37.1912"/>
<text text-anchor="middle" x="101" y="-58.8" font-family="FreeSans" font-size="8.00" fill="#2e3436">tagged</text>
</g>
<!-- N6 -->
<g id="node12" class="node"><title>N6</title>
<polygon fill="#ffffff" stroke="#ffffff" stroke-width="1.5" points="414,-169 478,-169 490,-181 490,-193 478,-205 414,-205 402,-193 402,-181 414,-169"/>
<path fill="#ffffff" stroke="#ffffff" stroke-width="1.5" d="M478,-169C484,-169 490,-175 490,-181"/>
<path fill="#ffffff" stroke="#ffffff" stroke-width="1.5" d="M490,-193C490,-199 484,-205 478,-205"/>
<path fill="#ffffff" stroke="#ffffff" stroke-width="1.5" d="M414,-205C408,-205 402,-199 402,-193"/>
<path fill="#ffffff" stroke="#ffffff" stroke-width="1.5" d="M402,-181C402,-175 408,-169 414,-169"/>
<polyline fill="none" stroke="#2e3436" stroke-width="1.5" points="414,-169 478,-169 "/>
<path fill="none" stroke="#2e3436" stroke-width="1.5" d="M478,-169C484,-169 490,-175 490,-181"/>
<polyline fill="none" stroke="#2e3436" stroke-width="1.5" points="490,-181 490,-193 "/>
<path fill="none" stroke="#2e3436" stroke-width="1.5" d="M490,-193C490,-199 484,-205 478,-205"/>
<polyline fill="none" stroke="#2e3436" stroke-width="1.5" points="478,-205 414,-205 "/>
<path fill="none" stroke="#2e3436" stroke-width="1.5" d="M414,-205C408,-205 402,-199 402,-193"/>
<polyline fill="none" stroke="#2e3436" stroke-width="1.5" points="402,-193 402,-181 "/>
<path fill="none" stroke="#2e3436" stroke-width="1.5" d="M402,-181C402,-175 408,-169 414,-169"/>
<text text-anchor="start" x="410" y="-184.8" font-family="FreeSans" font-size="8.00" fill="#1c2021">name = &#39;Derrick&#39;</text>
</g>
<!-- N6&#45;&gt;N8 -->
<g id="edge10" class="edge"><title>N6&#45;&gt;N8</title>
<path fill="none" stroke="#4e9a06" stroke-width="2" d="M431.462,-168.773C421.716,-156.555 408.778,-140.334 398.19,-127.059"/>
<polygon fill="#4e9a06" stroke="#4e9a06" points="393.51,-121.191 400.825,-124.95 396.239,-123.811 398.577,-126.743 398.186,-127.055 397.795,-127.366 395.457,-124.435 395.548,-129.159 393.51,-121.191 393.51,-121.191"/>
<text text-anchor="middle" x="430.5" y="-142.8" font-family="FreeSans" font-size="8.00" fill="#4e9a06">favorite</text>
</g>
<!-- N9 -->
<g id="node16" class="node"><title>N9</title>
<polygon fill="#ffffff" stroke="#ffffff" stroke-width="1.5" points="120.5,-169 167.5,-169 179.5,-181 179.5,-193 167.5,-205 120.5,-205 108.5,-193 108.5,-181 120.5,-169"/>
<path fill="#ffffff" stroke="#ffffff" stroke-width="1.5" d="M167.5,-169C173.5,-169 179.5,-175 179.5,-181"/>
<path fill="#ffffff" stroke="#ffffff" stroke-width="1.5" d="M179.5,-193C179.5,-199 173.5,-205 167.5,-205"/>
<path fill="#ffffff" stroke="#ffffff" stroke-width="1.5" d="M120.5,-205C114.5,-205 108.5,-199 108.5,-193"/>
<path fill="#ffffff" stroke="#ffffff" stroke-width="1.5" d="M108.5,-181C108.5,-175 114.5,-169 120.5,-169"/>
<polyline fill="none" stroke="#2e3436" stroke-width="1.5" points="120.5,-169 167.5,-169 "/>
<path fill="none" stroke="#2e3436" stroke-width="1.5" d="M167.5,-169C173.5,-169 179.5,-175 179.5,-181"/>
<polyline fill="none" stroke="#2e3436" stroke-width="1.5" points="179.5,-181 179.5,-193 "/>
<path fill="none" stroke="#2e3436" stroke-width="1.5" d="M179.5,-193C179.5,-199 173.5,-205 167.5,-205"/>
<polyline fill="none" stroke="#2e3436" stroke-width="1.5" points="167.5,-205 120.5,-205 "/>
<path fill="none" stroke="#2e3436" stroke-width="1.5" d="M120.5,-205C114.5,-205 108.5,-199 108.5,-193"/>
<polyline fill="none" stroke="#2e3436" stroke-width="1.5" points="108.5,-193 108.5,-181 "/>
<path fill="none" stroke="#2e3436" stroke-width="1.5" d="M108.5,-181C108.5,-175 114.5,-169 120.5,-169"/>
<text text-anchor="start" x="116.5" y="-184.8" font-family="FreeSans" font-size="8.00" fill="#1c2021">name = &#39;Joe&#39;</text>
</g>
<!-- N9&#45;&gt;N3 -->
<g id="edge22" class="edge"><title>N9&#45;&gt;N3</title>
<path fill="none" stroke="#4e9a06" stroke-width="2" d="M153.168,-168.55C158.689,-158.98 166.494,-147.711 176,-140 182.542,-134.693 197.645,-127.906 213.646,-121.597"/>
<polygon fill="#4e9a06" stroke="#4e9a06" points="221.034,-118.739 215.257,-124.593 217.717,-120.559 214.219,-121.912 214.039,-121.445 213.858,-120.979 217.356,-119.626 212.821,-118.298 221.034,-118.739 221.034,-118.739"/>
<text text-anchor="middle" x="192.5" y="-142.8" font-family="FreeSans" font-size="8.00" fill="#4e9a06">favorite</text>
</g>
<!-- N9&#45;&gt;N8 -->
<g id="edge20" class="edge"><title>N9&#45;&gt;N8</title>
<path fill="none" stroke="#4e9a06" stroke-width="2" d="M175.661,-168.81C193.731,-159.08 217.087,-147.576 239,-140 275.907,-127.24 287.389,-132.503 325,-122 327.064,-121.424 329.163,-120.81 331.278,-120.168"/>
<polygon fill="#4e9a06" stroke="#4e9a06" points="338.493,-117.898 332.352,-123.368 335.066,-119.5 331.489,-120.626 331.339,-120.149 331.189,-119.672 334.766,-118.546 330.326,-116.93 338.493,-117.898 338.493,-117.898"/>
<text text-anchor="middle" x="255.5" y="-142.8" font-family="FreeSans" font-size="8.00" fill="#4e9a06">favorite</text>
</g>
<!-- N9&#45;&gt;N7 -->
<g id="edge18" class="edge"><title>N9&#45;&gt;N7</title>
<path fill="none" stroke="#4e9a06" stroke-width="2" d="M118.458,-168.581C110.349,-160.373 104.517,-150.254 109,-140 111.088,-135.225 114.13,-130.791 117.618,-126.773"/>
<polygon fill="#4e9a06" stroke="#4e9a06" points="122.99,-121.193 120.22,-128.937 120.749,-124.241 118.149,-126.943 117.788,-126.596 117.428,-126.25 120.029,-123.548 115.357,-124.256 122.99,-121.193 122.99,-121.193"/>
<text text-anchor="middle" x="125.5" y="-142.8" font-family="FreeSans" font-size="8.00" fill="#4e9a06">favorite</text>
</g>
<!-- N9&#45;&gt;N5 -->
<g id="edge16" class="edge"><title>N9&#45;&gt;N5</title>
<path fill="none" stroke="#4e9a06" stroke-width="2" d="M108.261,-174.436C94.6397,-168.471 79.6136,-160.349 68,-150 61.1387,-143.886 55.2405,-135.843 50.5348,-128.142"/>
<polygon fill="#4e9a06" stroke="#4e9a06" points="46.555,-121.232 53.2227,-126.047 48.8598,-124.232 50.7313,-127.481 50.298,-127.731 49.8647,-127.98 47.9932,-124.731 47.3733,-129.415 46.555,-121.232 46.555,-121.232"/>
<text text-anchor="middle" x="84.5" y="-142.8" font-family="FreeSans" font-size="8.00" fill="#4e9a06">favorite</text>
</g>
</g>
</svg>
