<?xml version="1.0" encoding="UTF-8" standalone="no"?>
<!DOCTYPE svg PUBLIC "-//W3C//DTD SVG 1.1//EN"
 "http://www.w3.org/Graphics/SVG/1.1/DTD/svg11.dtd">
<!-- Generated by graphviz version 2.26.3 (20100126.1600)
 -->
<!-- Title: g Pages: 1 -->
<svg width="165pt" height="130pt"
 viewBox="0.00 0.00 165.00 130.00" xmlns="http://www.w3.org/2000/svg" xmlns:xlink="http://www.w3.org/1999/xlink">
<g id="graph1" class="graph" transform="scale(1 1) rotate(0) translate(4 126)">
<title>g</title>
<polygon fill="white" stroke="white" points="-4,5 -4,-126 162,-126 162,5 -4,5"/>
<!-- N1 -->
<g id="node1" class="node"><title>N1</title>
<polygon fill="#ffffff" stroke="#ffffff" stroke-width="1.5" points="58.5,-85 97.5,-85 109.5,-97 109.5,-109 97.5,-121 58.5,-121 46.5,-109 46.5,-97 58.5,-85"/>
<path fill="#ffffff" stroke="#ffffff" stroke-width="1.5" d="M97.5,-85C103.5,-85 109.5,-91 109.5,-97"/>
<path fill="#ffffff" stroke="#ffffff" stroke-width="1.5" d="M109.5,-109C109.5,-115 103.5,-121 97.5,-121"/>
<path fill="#ffffff" stroke="#ffffff" stroke-width="1.5" d="M58.5,-121C52.5,-121 46.5,-115 46.5,-109"/>
<path fill="#ffffff" stroke="#ffffff" stroke-width="1.5" d="M46.5,-97C46.5,-91 52.5,-85 58.5,-85"/>
<polyline fill="none" stroke="#2e3436" stroke-width="1.5" points="58.5,-85 97.5,-85 "/>
<path fill="none" stroke="#2e3436" stroke-width="1.5" d="M97.5,-85C103.5,-85 109.5,-91 109.5,-97"/>
<polyline fill="none" stroke="#2e3436" stroke-width="1.5" points="109.5,-97 109.5,-109 "/>
<path fill="none" stroke="#2e3436" stroke-width="1.5" d="M109.5,-109C109.5,-115 103.5,-121 97.5,-121"/>
<polyline fill="none" stroke="#2e3436" stroke-width="1.5" points="97.5,-121 58.5,-121 "/>
<path fill="none" stroke="#2e3436" stroke-width="1.5" d="M58.5,-121C52.5,-121 46.5,-115 46.5,-109"/>
<polyline fill="none" stroke="#2e3436" stroke-width="1.5" points="46.5,-109 46.5,-97 "/>
<path fill="none" stroke="#2e3436" stroke-width="1.5" d="M46.5,-97C46.5,-91 52.5,-85 58.5,-85"/>
<text text-anchor="middle" x="78" y="-109.8" font-family="FreeSans" font-size="8.00" fill="#1c2021">Node[1]</text>
<polyline fill="none" stroke="#2e3436" stroke-width="1.5" points="46.5,-103 109.5,-103 "/>
<text text-anchor="start" x="54.5" y="-91.8" font-family="FreeSans" font-size="8.00" fill="#1c2021">name = &#39;A&#39;</text>
</g>
<!-- N2 -->
<g id="node3" class="node"><title>N2</title>
<polygon fill="#ffffff" stroke="#ffffff" stroke-width="1.5" points="12,-1 52,-1 64,-13 64,-25 52,-37 12,-37 0,-25 0,-13 12,-1"/>
<path fill="#ffffff" stroke="#ffffff" stroke-width="1.5" d="M52,-1C58,-1 64,-7 64,-13"/>
<path fill="#ffffff" stroke="#ffffff" stroke-width="1.5" d="M64,-25C64,-31 58,-37 52,-37"/>
<path fill="#ffffff" stroke="#ffffff" stroke-width="1.5" d="M12,-37C6,-37 0,-31 0,-25"/>
<path fill="#ffffff" stroke="#ffffff" stroke-width="1.5" d="M0,-13C0,-7 6,-1 12,-1"/>
<polyline fill="none" stroke="#2e3436" stroke-width="1.5" points="12,-1 52,-1 "/>
<path fill="none" stroke="#2e3436" stroke-width="1.5" d="M52,-1C58,-1 64,-7 64,-13"/>
<polyline fill="none" stroke="#2e3436" stroke-width="1.5" points="64,-13 64,-25 "/>
<path fill="none" stroke="#2e3436" stroke-width="1.5" d="M64,-25C64,-31 58,-37 52,-37"/>
<polyline fill="none" stroke="#2e3436" stroke-width="1.5" points="52,-37 12,-37 "/>
<path fill="none" stroke="#2e3436" stroke-width="1.5" d="M12,-37C6,-37 0,-31 0,-25"/>
<polyline fill="none" stroke="#2e3436" stroke-width="1.5" points="0,-25 0,-13 "/>
<path fill="none" stroke="#2e3436" stroke-width="1.5" d="M0,-13C0,-7 6,-1 12,-1"/>
<text text-anchor="middle" x="32" y="-25.8" font-family="FreeSans" font-size="8.00" fill="#1c2021">Node[2]</text>
<polyline fill="none" stroke="#2e3436" stroke-width="1.5" points="0,-19 64,-19 "/>
<text text-anchor="start" x="8" y="-7.8" font-family="FreeSans" font-size="8.00" fill="#1c2021">name = &#39;B&#39;</text>
</g>
<!-- N1&#45;&gt;N2 -->
<g id="edge2" class="edge"><title>N1&#45;&gt;N2</title>
<path fill="none" stroke="#2e3436" stroke-width="2" d="M68.0187,-84.7733C61.4482,-72.7751 52.7643,-56.9174 45.5695,-43.779"/>
<polygon fill="#2e3436" stroke="#2e3436" points="41.9618,-37.1912 48.5245,-42.1483 44.2016,-40.2401 46.0028,-43.5293 45.5642,-43.7694 45.1257,-44.0096 43.3245,-40.7205 42.604,-45.3905 41.9618,-37.1912 41.9618,-37.1912"/>
<text text-anchor="middle" x="72.5" y="-58.8" font-family="FreeSans" font-size="8.00" fill="#2e3436">KNOWS</text>
</g>
<!-- N3 -->
<g id="node5" class="node"><title>N3</title>
<polygon fill="#ffffff" stroke="#ffffff" stroke-width="1.5" points="105,-1 145,-1 157,-13 157,-25 145,-37 105,-37 93,-25 93,-13 105,-1"/>
<path fill="#ffffff" stroke="#ffffff" stroke-width="1.5" d="M145,-1C151,-1 157,-7 157,-13"/>
<path fill="#ffffff" stroke="#ffffff" stroke-width="1.5" d="M157,-25C157,-31 151,-37 145,-37"/>
<path fill="#ffffff" stroke="#ffffff" stroke-width="1.5" d="M105,-37C99,-37 93,-31 93,-25"/>
<path fill="#ffffff" stroke="#ffffff" stroke-width="1.5" d="M93,-13C93,-7 99,-1 105,-1"/>
<polyline fill="none" stroke="#2e3436" stroke-width="1.5" points="105,-1 145,-1 "/>
<path fill="none" stroke="#2e3436" stroke-width="1.5" d="M145,-1C151,-1 157,-7 157,-13"/>
<polyline fill="none" stroke="#2e3436" stroke-width="1.5" points="157,-13 157,-25 "/>
<path fill="none" stroke="#2e3436" stroke-width="1.5" d="M157,-25C157,-31 151,-37 145,-37"/>
<polyline fill="none" stroke="#2e3436" stroke-width="1.5" points="145,-37 105,-37 "/>
<path fill="none" stroke="#2e3436" stroke-width="1.5" d="M105,-37C99,-37 93,-31 93,-25"/>
<polyline fill="none" stroke="#2e3436" stroke-width="1.5" points="93,-25 93,-13 "/>
<path fill="none" stroke="#2e3436" stroke-width="1.5" d="M93,-13C93,-7 99,-1 105,-1"/>
<text text-anchor="middle" x="125" y="-25.8" font-family="FreeSans" font-size="8.00" fill="#1c2021">Node[3]</text>
<polyline fill="none" stroke="#2e3436" stroke-width="1.5" points="93,-19 157,-19 "/>
<text text-anchor="start" x="101" y="-7.8" font-family="FreeSans" font-size="8.00" fill="#1c2021">name = &#39;C&#39;</text>
</g>
<!-- N1&#45;&gt;N3 -->
<g id="edge4" class="edge"><title>N1&#45;&gt;N3</title>
<path fill="none" stroke="#2e3436" stroke-width="2" d="M88.1983,-84.7733C94.9116,-72.7751 103.784,-56.9174 111.136,-43.779"/>
<polygon fill="#2e3436" stroke="#2e3436" points="114.822,-37.1912 114.105,-45.3843 113.427,-40.7079 111.596,-43.9805 111.159,-43.7363 110.723,-43.4922 112.554,-40.2196 108.214,-42.0883 114.822,-37.1912 114.822,-37.1912"/>
<text text-anchor="middle" x="117.5" y="-58.8" font-family="FreeSans" font-size="8.00" fill="#2e3436">KNOWS</text>
</g>
</g>
</svg>
