<?xml version="1.0" encoding="UTF-8" standalone="no"?>
<!DOCTYPE svg PUBLIC "-//W3C//DTD SVG 1.1//EN"
 "http://www.w3.org/Graphics/SVG/1.1/DTD/svg11.dtd">
<!-- Generated by graphviz version 2.26.3 (20100126.1600)
 -->
<!-- Title: g Pages: 1 -->
<svg width="84pt" height="150pt"
 viewBox="0.00 0.00 84.00 150.00" xmlns="http://www.w3.org/2000/svg" xmlns:xlink="http://www.w3.org/1999/xlink">
<g id="graph1" class="graph" transform="scale(1 1) rotate(0) translate(4 146)">
<title>g</title>
<polygon fill="white" stroke="white" points="-4,5 -4,-146 81,-146 81,5 -4,5"/>
<!-- N1 -->
<g id="node1" class="node"><title>N1</title>
<polygon fill="#ffffff" stroke="#ffffff" stroke-width="1.5" points="11.5,-85 64.5,-85 76.5,-97 76.5,-129 64.5,-141 11.5,-141 -0.5,-129 -0.5,-97 11.5,-85"/>
<path fill="#ffffff" stroke="#ffffff" stroke-width="1.5" d="M64.5,-85C70.5,-85 76.5,-91 76.5,-97"/>
<path fill="#ffffff" stroke="#ffffff" stroke-width="1.5" d="M76.5,-129C76.5,-135 70.5,-141 64.5,-141"/>
<path fill="#ffffff" stroke="#ffffff" stroke-width="1.5" d="M11.5,-141C5.5,-141 -0.5,-135 -0.5,-129"/>
<path fill="#ffffff" stroke="#ffffff" stroke-width="1.5" d="M-0.5,-97C-0.5,-91 5.5,-85 11.5,-85"/>
<polyline fill="none" stroke="#2e3436" stroke-width="1.5" points="11.5,-85 64.5,-85 "/>
<path fill="none" stroke="#2e3436" stroke-width="1.5" d="M64.5,-85C70.5,-85 76.5,-91 76.5,-97"/>
<polyline fill="none" stroke="#2e3436" stroke-width="1.5" points="76.5,-97 76.5,-129 "/>
<path fill="none" stroke="#2e3436" stroke-width="1.5" d="M76.5,-129C76.5,-135 70.5,-141 64.5,-141"/>
<polyline fill="none" stroke="#2e3436" stroke-width="1.5" points="64.5,-141 11.5,-141 "/>
<path fill="none" stroke="#2e3436" stroke-width="1.5" d="M11.5,-141C5.5,-141 -0.5,-135 -0.5,-129"/>
<polyline fill="none" stroke="#2e3436" stroke-width="1.5" points="-0.5,-129 -0.5,-97 "/>
<path fill="none" stroke="#2e3436" stroke-width="1.5" d="M-0.5,-97C-0.5,-91 5.5,-85 11.5,-85"/>
<text text-anchor="middle" x="38" y="-129.8" font-family="FreeSans" font-size="8.00" fill="#1c2021">Node[1]</text>
<polyline fill="none" stroke="#2e3436" stroke-width="1.5" points="-0.5,-123 76.5,-123 "/>
<text text-anchor="start" x="7.5" y="-111.8" font-family="FreeSans" font-size="8.00" fill="#1c2021">name = &#39;A&#39;</text>
<text text-anchor="start" x="7.5" y="-101.8" font-family="FreeSans" font-size="8.00" fill="#1c2021">happy = &#39;Yes!&#39;</text>
<text text-anchor="start" x="7.5" y="-91.8" font-family="FreeSans" font-size="8.00" fill="#1c2021">age = 55</text>
</g>
<!-- N2 -->
<g id="node3" class="node"><title>N2</title>
<polygon fill="#ffffff" stroke="#ffffff" stroke-width="1.5" points="18,-1 58,-1 70,-13 70,-25 58,-37 18,-37 6,-25 6,-13 18,-1"/>
<path fill="#ffffff" stroke="#ffffff" stroke-width="1.5" d="M58,-1C64,-1 70,-7 70,-13"/>
<path fill="#ffffff" stroke="#ffffff" stroke-width="1.5" d="M70,-25C70,-31 64,-37 58,-37"/>
<path fill="#ffffff" stroke="#ffffff" stroke-width="1.5" d="M18,-37C12,-37 6,-31 6,-25"/>
<path fill="#ffffff" stroke="#ffffff" stroke-width="1.5" d="M6,-13C6,-7 12,-1 18,-1"/>
<polyline fill="none" stroke="#2e3436" stroke-width="1.5" points="18,-1 58,-1 "/>
<path fill="none" stroke="#2e3436" stroke-width="1.5" d="M58,-1C64,-1 70,-7 70,-13"/>
<polyline fill="none" stroke="#2e3436" stroke-width="1.5" points="70,-13 70,-25 "/>
<path fill="none" stroke="#2e3436" stroke-width="1.5" d="M70,-25C70,-31 64,-37 58,-37"/>
<polyline fill="none" stroke="#2e3436" stroke-width="1.5" points="58,-37 18,-37 "/>
<path fill="none" stroke="#2e3436" stroke-width="1.5" d="M18,-37C12,-37 6,-31 6,-25"/>
<polyline fill="none" stroke="#2e3436" stroke-width="1.5" points="6,-25 6,-13 "/>
<path fill="none" stroke="#2e3436" stroke-width="1.5" d="M6,-13C6,-7 12,-1 18,-1"/>
<text text-anchor="middle" x="38" y="-25.8" font-family="FreeSans" font-size="8.00" fill="#1c2021">Node[2]</text>
<polyline fill="none" stroke="#2e3436" stroke-width="1.5" points="6,-19 70,-19 "/>
<text text-anchor="start" x="14" y="-7.8" font-family="FreeSans" font-size="8.00" fill="#1c2021">name = &#39;B&#39;</text>
</g>
<!-- N1&#45;&gt;N2 -->
<g id="edge2" class="edge"><title>N1&#45;&gt;N2</title>
<path fill="none" stroke="#2e3436" stroke-width="2" d="M13.505,-84.9853C9.5972,-79.0727 6.14054,-72.611 4,-66 1.38733,-57.9308 4.17343,-50.0841 9.08889,-43.1868"/>
<polygon fill="#2e3436" stroke="#2e3436" points="14.1079,-37.1404 11.9145,-45.0669 12.0975,-40.3452 9.70233,-43.2306 9.3176,-42.9113 8.93288,-42.5919 11.328,-39.7065 6.72069,-40.7556 14.1079,-37.1404 14.1079,-37.1404"/>
<text text-anchor="middle" x="19.5" y="-58.8" font-family="FreeSans" font-size="8.00" fill="#2e3436">KNOWS</text>
</g>
<!-- N1&#45;&gt;N2 -->
<g id="edge4" class="edge"><title>N1&#45;&gt;N2</title>
<path fill="none" stroke="#4e9a06" stroke-width="2" d="M38,-84.7969C38,-72.1095 38,-57.2342 38,-44.8401"/>
<polygon fill="#4e9a06" stroke="#4e9a06" points="38,-37.1015 41.3751,-44.6015 38.5,-40.8515 38.5001,-44.6015 38.0001,-44.6015 37.5001,-44.6015 37.5,-40.8515 34.6251,-44.6016 38,-37.1015 38,-37.1015"/>
<text text-anchor="middle" x="55.5" y="-58.8" font-family="FreeSans" font-size="8.00" fill="#4e9a06">BLOCKS</text>
</g>
</g>
</svg>
