<?xml version="1.0" encoding="UTF-8" standalone="no"?>
<!DOCTYPE svg PUBLIC "-//W3C//DTD SVG 1.1//EN"
 "http://www.w3.org/Graphics/SVG/1.1/DTD/svg11.dtd">
<!-- Generated by graphviz version 2.26.3 (20100126.1600)
 -->
<!-- Title: g Pages: 1 -->
<svg width="96pt" height="160pt"
 viewBox="0.00 0.00 96.00 160.00" xmlns="http://www.w3.org/2000/svg" xmlns:xlink="http://www.w3.org/1999/xlink">
<g id="graph1" class="graph" transform="scale(1 1) rotate(0) translate(4 156)">
<title>g</title>
<polygon fill="white" stroke="white" points="-4,5 -4,-156 93,-156 93,5 -4,5"/>
<!-- N1 -->
<g id="node1" class="node"><title>N1</title>
<polygon fill="#ffffff" stroke="#ffffff" stroke-width="1.5" points="16,-1 72,-1 84,-13 84,-35 72,-47 16,-47 4,-35 4,-13 16,-1"/>
<path fill="#ffffff" stroke="#ffffff" stroke-width="1.5" d="M72,-1C78,-1 84,-7 84,-13"/>
<path fill="#ffffff" stroke="#ffffff" stroke-width="1.5" d="M84,-35C84,-41 78,-47 72,-47"/>
<path fill="#ffffff" stroke="#ffffff" stroke-width="1.5" d="M16,-47C10,-47 4,-41 4,-35"/>
<path fill="#ffffff" stroke="#ffffff" stroke-width="1.5" d="M4,-13C4,-7 10,-1 16,-1"/>
<polyline fill="none" stroke="#2e3436" stroke-width="1.5" points="16,-1 72,-1 "/>
<path fill="none" stroke="#2e3436" stroke-width="1.5" d="M72,-1C78,-1 84,-7 84,-13"/>
<polyline fill="none" stroke="#2e3436" stroke-width="1.5" points="84,-13 84,-35 "/>
<path fill="none" stroke="#2e3436" stroke-width="1.5" d="M84,-35C84,-41 78,-47 72,-47"/>
<polyline fill="none" stroke="#2e3436" stroke-width="1.5" points="72,-47 16,-47 "/>
<path fill="none" stroke="#2e3436" stroke-width="1.5" d="M16,-47C10,-47 4,-41 4,-35"/>
<polyline fill="none" stroke="#2e3436" stroke-width="1.5" points="4,-35 4,-13 "/>
<path fill="none" stroke="#2e3436" stroke-width="1.5" d="M4,-13C4,-7 10,-1 16,-1"/>
<text text-anchor="middle" x="44" y="-35.8" font-family="FreeSans" font-size="8.00" fill="#1c2021">Node[1]</text>
<polyline fill="none" stroke="#2e3436" stroke-width="1.5" points="4,-29 84,-29 "/>
<text text-anchor="start" x="12" y="-17.8" font-family="FreeSans" font-size="8.00" fill="#1c2021">name = &#39;Peter&#39;</text>
<text text-anchor="start" x="12" y="-7.8" font-family="FreeSans" font-size="8.00" fill="#1c2021">age = 34</text>
</g>
<!-- N2 -->
<g id="node2" class="node"><title>N2</title>
<polygon fill="#ffffff" stroke="#ffffff" stroke-width="1.5" points="12,-95 76,-95 88,-107 88,-139 76,-151 12,-151 0,-139 0,-107 12,-95"/>
<path fill="#ffffff" stroke="#ffffff" stroke-width="1.5" d="M76,-95C82,-95 88,-101 88,-107"/>
<path fill="#ffffff" stroke="#ffffff" stroke-width="1.5" d="M88,-139C88,-145 82,-151 76,-151"/>
<path fill="#ffffff" stroke="#ffffff" stroke-width="1.5" d="M12,-151C6,-151 0,-145 0,-139"/>
<path fill="#ffffff" stroke="#ffffff" stroke-width="1.5" d="M0,-107C0,-101 6,-95 12,-95"/>
<polyline fill="none" stroke="#2e3436" stroke-width="1.5" points="12,-95 76,-95 "/>
<path fill="none" stroke="#2e3436" stroke-width="1.5" d="M76,-95C82,-95 88,-101 88,-107"/>
<polyline fill="none" stroke="#2e3436" stroke-width="1.5" points="88,-107 88,-139 "/>
<path fill="none" stroke="#2e3436" stroke-width="1.5" d="M88,-139C88,-145 82,-151 76,-151"/>
<polyline fill="none" stroke="#2e3436" stroke-width="1.5" points="76,-151 12,-151 "/>
<path fill="none" stroke="#2e3436" stroke-width="1.5" d="M12,-151C6,-151 0,-145 0,-139"/>
<polyline fill="none" stroke="#2e3436" stroke-width="1.5" points="0,-139 0,-107 "/>
<path fill="none" stroke="#2e3436" stroke-width="1.5" d="M0,-107C0,-101 6,-95 12,-95"/>
<text text-anchor="middle" x="44" y="-139.8" font-family="FreeSans" font-size="8.00" fill="#1c2021">Node[2]</text>
<polyline fill="none" stroke="#2e3436" stroke-width="1.5" points="0,-133 88,-133 "/>
<text text-anchor="start" x="8" y="-121.8" font-family="FreeSans" font-size="8.00" fill="#1c2021">name = &#39;Andres&#39;</text>
<text text-anchor="start" x="8" y="-111.8" font-family="FreeSans" font-size="8.00" fill="#1c2021">age = 36</text>
<text text-anchor="start" x="8" y="-101.8" font-family="FreeSans" font-size="8.00" fill="#1c2021">awesome = true</text>
</g>
<!-- N2&#45;&gt;N1 -->
<g id="edge2" class="edge"><title>N2&#45;&gt;N1</title>
<path fill="none" stroke="#2e3436" stroke-width="2" d="M44,-94.8954C44,-82.3976 44,-67.6465 44,-54.8453"/>
<polygon fill="#2e3436" stroke="#2e3436" points="44,-47.1642 47.3751,-54.6642 44.5,-50.9142 44.5001,-54.6642 44.0001,-54.6642 43.5001,-54.6642 43.5,-50.9142 40.6251,-54.6643 44,-47.1642 44,-47.1642"/>
<text text-anchor="middle" x="59.5" y="-68.8" font-family="FreeSans" font-size="8.00" fill="#2e3436">KNOWS</text>
</g>
</g>
</svg>
