<?xml version="1.0" encoding="UTF-8" standalone="no"?>
<!DOCTYPE svg PUBLIC "-//W3C//DTD SVG 1.1//EN"
 "http://www.w3.org/Graphics/SVG/1.1/DTD/svg11.dtd">
<!-- Generated by graphviz version 2.26.3 (20100126.1600)
 -->
<!-- Title: g Pages: 1 -->
<svg width="285pt" height="298pt"
 viewBox="0.00 0.00 285.00 298.00" xmlns="http://www.w3.org/2000/svg" xmlns:xlink="http://www.w3.org/1999/xlink">
<g id="graph1" class="graph" transform="scale(1 1) rotate(0) translate(4 294)">
<title>g</title>
<polygon fill="white" stroke="white" points="-4,5 -4,-294 282,-294 282,5 -4,5"/>
<!-- N1 -->
<g id="node1" class="node"><title>N1</title>
<polygon fill="#ffffff" stroke="#ffffff" stroke-width="1.5" points="35.5,-85 82.5,-85 94.5,-97 94.5,-109 82.5,-121 35.5,-121 23.5,-109 23.5,-97 35.5,-85"/>
<path fill="#ffffff" stroke="#ffffff" stroke-width="1.5" d="M82.5,-85C88.5,-85 94.5,-91 94.5,-97"/>
<path fill="#ffffff" stroke="#ffffff" stroke-width="1.5" d="M94.5,-109C94.5,-115 88.5,-121 82.5,-121"/>
<path fill="#ffffff" stroke="#ffffff" stroke-width="1.5" d="M35.5,-121C29.5,-121 23.5,-115 23.5,-109"/>
<path fill="#ffffff" stroke="#ffffff" stroke-width="1.5" d="M23.5,-97C23.5,-91 29.5,-85 35.5,-85"/>
<polyline fill="none" stroke="#2e3436" stroke-width="1.5" points="35.5,-85 82.5,-85 "/>
<path fill="none" stroke="#2e3436" stroke-width="1.5" d="M82.5,-85C88.5,-85 94.5,-91 94.5,-97"/>
<polyline fill="none" stroke="#2e3436" stroke-width="1.5" points="94.5,-97 94.5,-109 "/>
<path fill="none" stroke="#2e3436" stroke-width="1.5" d="M94.5,-109C94.5,-115 88.5,-121 82.5,-121"/>
<polyline fill="none" stroke="#2e3436" stroke-width="1.5" points="82.5,-121 35.5,-121 "/>
<path fill="none" stroke="#2e3436" stroke-width="1.5" d="M35.5,-121C29.5,-121 23.5,-115 23.5,-109"/>
<polyline fill="none" stroke="#2e3436" stroke-width="1.5" points="23.5,-109 23.5,-97 "/>
<path fill="none" stroke="#2e3436" stroke-width="1.5" d="M23.5,-97C23.5,-91 29.5,-85 35.5,-85"/>
<text text-anchor="start" x="31.5" y="-100.8" font-family="FreeSans" font-size="8.00" fill="#1c2021">name = &#39;Bill&#39;</text>
</g>
<!-- N3 -->
<g id="node3" class="node"><title>N3</title>
<polygon fill="#ffffff" stroke="#ffffff" stroke-width="1.5" points="12,-1 76,-1 88,-13 88,-25 76,-37 12,-37 0,-25 0,-13 12,-1"/>
<path fill="#ffffff" stroke="#ffffff" stroke-width="1.5" d="M76,-1C82,-1 88,-7 88,-13"/>
<path fill="#ffffff" stroke="#ffffff" stroke-width="1.5" d="M88,-25C88,-31 82,-37 76,-37"/>
<path fill="#ffffff" stroke="#ffffff" stroke-width="1.5" d="M12,-37C6,-37 0,-31 0,-25"/>
<path fill="#ffffff" stroke="#ffffff" stroke-width="1.5" d="M0,-13C0,-7 6,-1 12,-1"/>
<polyline fill="none" stroke="#2e3436" stroke-width="1.5" points="12,-1 76,-1 "/>
<path fill="none" stroke="#2e3436" stroke-width="1.5" d="M76,-1C82,-1 88,-7 88,-13"/>
<polyline fill="none" stroke="#2e3436" stroke-width="1.5" points="88,-13 88,-25 "/>
<path fill="none" stroke="#2e3436" stroke-width="1.5" d="M88,-25C88,-31 82,-37 76,-37"/>
<polyline fill="none" stroke="#2e3436" stroke-width="1.5" points="76,-37 12,-37 "/>
<path fill="none" stroke="#2e3436" stroke-width="1.5" d="M12,-37C6,-37 0,-31 0,-25"/>
<polyline fill="none" stroke="#2e3436" stroke-width="1.5" points="0,-25 0,-13 "/>
<path fill="none" stroke="#2e3436" stroke-width="1.5" d="M0,-13C0,-7 6,-1 12,-1"/>
<text text-anchor="start" x="8" y="-16.8" font-family="FreeSans" font-size="8.00" fill="#1c2021">name = &#39;Derrick&#39;</text>
</g>
<!-- N1&#45;&gt;N3 -->
<g id="edge2" class="edge"><title>N1&#45;&gt;N3</title>
<path fill="none" stroke="#2e3436" stroke-width="2" d="M48.7197,-84.7235C45.9762,-78.9189 43.3897,-72.3534 42,-66 40.5199,-59.2333 40.24,-51.7915 40.5275,-44.8646"/>
<polygon fill="#2e3436" stroke="#2e3436" points="41.0878,-37.041 43.9184,-44.763 41.3186,-40.8171 41.0507,-44.5576 40.552,-44.5218 40.0533,-44.4861 40.3212,-40.7457 37.1856,-44.2807 41.0878,-37.041 41.0878,-37.041"/>
<text text-anchor="middle" x="56" y="-58.8" font-family="FreeSans" font-size="8.00" fill="#2e3436">knows</text>
</g>
<!-- N4 -->
<g id="node5" class="node"><title>N4</title>
<polygon fill="#ffffff" stroke="#ffffff" stroke-width="1.5" points="129.5,-1 176.5,-1 188.5,-13 188.5,-25 176.5,-37 129.5,-37 117.5,-25 117.5,-13 129.5,-1"/>
<path fill="#ffffff" stroke="#ffffff" stroke-width="1.5" d="M176.5,-1C182.5,-1 188.5,-7 188.5,-13"/>
<path fill="#ffffff" stroke="#ffffff" stroke-width="1.5" d="M188.5,-25C188.5,-31 182.5,-37 176.5,-37"/>
<path fill="#ffffff" stroke="#ffffff" stroke-width="1.5" d="M129.5,-37C123.5,-37 117.5,-31 117.5,-25"/>
<path fill="#ffffff" stroke="#ffffff" stroke-width="1.5" d="M117.5,-13C117.5,-7 123.5,-1 129.5,-1"/>
<polyline fill="none" stroke="#2e3436" stroke-width="1.5" points="129.5,-1 176.5,-1 "/>
<path fill="none" stroke="#2e3436" stroke-width="1.5" d="M176.5,-1C182.5,-1 188.5,-7 188.5,-13"/>
<polyline fill="none" stroke="#2e3436" stroke-width="1.5" points="188.5,-13 188.5,-25 "/>
<path fill="none" stroke="#2e3436" stroke-width="1.5" d="M188.5,-25C188.5,-31 182.5,-37 176.5,-37"/>
<polyline fill="none" stroke="#2e3436" stroke-width="1.5" points="176.5,-37 129.5,-37 "/>
<path fill="none" stroke="#2e3436" stroke-width="1.5" d="M129.5,-37C123.5,-37 117.5,-31 117.5,-25"/>
<polyline fill="none" stroke="#2e3436" stroke-width="1.5" points="117.5,-25 117.5,-13 "/>
<path fill="none" stroke="#2e3436" stroke-width="1.5" d="M117.5,-13C117.5,-7 123.5,-1 129.5,-1"/>
<text text-anchor="start" x="125.5" y="-16.8" font-family="FreeSans" font-size="8.00" fill="#1c2021">name = &#39;Ian&#39;</text>
</g>
<!-- N1&#45;&gt;N4 -->
<g id="edge4" class="edge"><title>N1&#45;&gt;N4</title>
<path fill="none" stroke="#2e3436" stroke-width="2" d="M75.0304,-84.9277C83.35,-75.8995 93.8708,-65.0092 104,-56 109.381,-51.2136 115.335,-46.3765 121.185,-41.8489"/>
<polygon fill="#2e3436" stroke="#2e3436" points="127.459,-37.0744 123.534,-44.302 124.777,-39.7432 121.793,-42.0142 121.49,-41.6163 121.187,-41.2184 124.172,-38.9474 119.446,-38.9305 127.459,-37.0744 127.459,-37.0744"/>
<text text-anchor="middle" x="118" y="-58.8" font-family="FreeSans" font-size="8.00" fill="#2e3436">knows</text>
</g>
<!-- N2 -->
<g id="node6" class="node"><title>N2</title>
<polygon fill="#ffffff" stroke="#ffffff" stroke-width="1.5" points="126,-169 180,-169 192,-181 192,-193 180,-205 126,-205 114,-193 114,-181 126,-169"/>
<path fill="#ffffff" stroke="#ffffff" stroke-width="1.5" d="M180,-169C186,-169 192,-175 192,-181"/>
<path fill="#ffffff" stroke="#ffffff" stroke-width="1.5" d="M192,-193C192,-199 186,-205 180,-205"/>
<path fill="#ffffff" stroke="#ffffff" stroke-width="1.5" d="M126,-205C120,-205 114,-199 114,-193"/>
<path fill="#ffffff" stroke="#ffffff" stroke-width="1.5" d="M114,-181C114,-175 120,-169 126,-169"/>
<polyline fill="none" stroke="#2e3436" stroke-width="1.5" points="126,-169 180,-169 "/>
<path fill="none" stroke="#2e3436" stroke-width="1.5" d="M180,-169C186,-169 192,-175 192,-181"/>
<polyline fill="none" stroke="#2e3436" stroke-width="1.5" points="192,-181 192,-193 "/>
<path fill="none" stroke="#2e3436" stroke-width="1.5" d="M192,-193C192,-199 186,-205 180,-205"/>
<polyline fill="none" stroke="#2e3436" stroke-width="1.5" points="180,-205 126,-205 "/>
<path fill="none" stroke="#2e3436" stroke-width="1.5" d="M126,-205C120,-205 114,-199 114,-193"/>
<polyline fill="none" stroke="#2e3436" stroke-width="1.5" points="114,-193 114,-181 "/>
<path fill="none" stroke="#2e3436" stroke-width="1.5" d="M114,-181C114,-175 120,-169 126,-169"/>
<text text-anchor="start" x="122" y="-184.8" font-family="FreeSans" font-size="8.00" fill="#1c2021">name = &#39;Sara&#39;</text>
</g>
<!-- N2&#45;&gt;N1 -->
<g id="edge6" class="edge"><title>N2&#45;&gt;N1</title>
<path fill="none" stroke="#2e3436" stroke-width="2" d="M127.459,-168.926C119.717,-163.129 111.328,-156.518 104,-150 95.9283,-142.821 87.6079,-134.447 80.3509,-126.773"/>
<polygon fill="#2e3436" stroke="#2e3436" points="75.0304,-121.072 82.6151,-124.253 77.9546,-123.473 80.5133,-126.214 80.1478,-126.555 79.7822,-126.896 77.2236,-124.155 77.6804,-128.858 75.0304,-121.072 75.0304,-121.072"/>
<text text-anchor="middle" x="118" y="-142.8" font-family="FreeSans" font-size="8.00" fill="#2e3436">knows</text>
</g>
<!-- N2&#45;&gt;N4 -->
<g id="edge8" class="edge"><title>N2&#45;&gt;N4</title>
<path fill="none" stroke="#2e3436" stroke-width="2" d="M153,-168.701C153,-138.705 153,-78.99 153,-44.7399"/>
<polygon fill="#2e3436" stroke="#2e3436" points="153,-37.0219 156.375,-44.5219 153.5,-40.7719 153.5,-44.5219 153,-44.5219 152.5,-44.5219 152.5,-40.7719 149.625,-44.522 153,-37.0219 153,-37.0219"/>
<text text-anchor="middle" x="167" y="-100.8" font-family="FreeSans" font-size="8.00" fill="#2e3436">knows</text>
</g>
<!-- N5 -->
<g id="node10" class="node"><title>N5</title>
<polygon fill="#ffffff" stroke="#ffffff" stroke-width="1.5" points="222.5,-85 265.5,-85 277.5,-97 277.5,-109 265.5,-121 222.5,-121 210.5,-109 210.5,-97 222.5,-85"/>
<path fill="#ffffff" stroke="#ffffff" stroke-width="1.5" d="M265.5,-85C271.5,-85 277.5,-91 277.5,-97"/>
<path fill="#ffffff" stroke="#ffffff" stroke-width="1.5" d="M277.5,-109C277.5,-115 271.5,-121 265.5,-121"/>
<path fill="#ffffff" stroke="#ffffff" stroke-width="1.5" d="M222.5,-121C216.5,-121 210.5,-115 210.5,-109"/>
<path fill="#ffffff" stroke="#ffffff" stroke-width="1.5" d="M210.5,-97C210.5,-91 216.5,-85 222.5,-85"/>
<polyline fill="none" stroke="#2e3436" stroke-width="1.5" points="222.5,-85 265.5,-85 "/>
<path fill="none" stroke="#2e3436" stroke-width="1.5" d="M265.5,-85C271.5,-85 277.5,-91 277.5,-97"/>
<polyline fill="none" stroke="#2e3436" stroke-width="1.5" points="277.5,-97 277.5,-109 "/>
<path fill="none" stroke="#2e3436" stroke-width="1.5" d="M277.5,-109C277.5,-115 271.5,-121 265.5,-121"/>
<polyline fill="none" stroke="#2e3436" stroke-width="1.5" points="265.5,-121 222.5,-121 "/>
<path fill="none" stroke="#2e3436" stroke-width="1.5" d="M222.5,-121C216.5,-121 210.5,-115 210.5,-109"/>
<polyline fill="none" stroke="#2e3436" stroke-width="1.5" points="210.5,-109 210.5,-97 "/>
<path fill="none" stroke="#2e3436" stroke-width="1.5" d="M210.5,-97C210.5,-91 216.5,-85 222.5,-85"/>
<text text-anchor="start" x="218.5" y="-100.8" font-family="FreeSans" font-size="8.00" fill="#1c2021">name = &#39;Jill&#39;</text>
</g>
<!-- N2&#45;&gt;N5 -->
<g id="edge10" class="edge"><title>N2&#45;&gt;N5</title>
<path fill="none" stroke="#2e3436" stroke-width="2" d="M172.746,-168.773C186.221,-156.335 204.189,-139.748 218.711,-126.344"/>
<polygon fill="#2e3436" stroke="#2e3436" points="224.293,-121.191 221.071,-128.758 221.877,-124.102 219.121,-126.646 218.782,-126.278 218.443,-125.911 221.198,-123.367 216.493,-123.798 224.293,-121.191 224.293,-121.191"/>
<text text-anchor="middle" x="215" y="-142.8" font-family="FreeSans" font-size="8.00" fill="#2e3436">knows</text>
</g>
<!-- N6 -->
<g id="node11" class="node"><title>N6</title>
<polygon fill="#ffffff" stroke="#ffffff" stroke-width="1.5" points="69.5,-253 116.5,-253 128.5,-265 128.5,-277 116.5,-289 69.5,-289 57.5,-277 57.5,-265 69.5,-253"/>
<path fill="#ffffff" stroke="#ffffff" stroke-width="1.5" d="M116.5,-253C122.5,-253 128.5,-259 128.5,-265"/>
<path fill="#ffffff" stroke="#ffffff" stroke-width="1.5" d="M128.5,-277C128.5,-283 122.5,-289 116.5,-289"/>
<path fill="#ffffff" stroke="#ffffff" stroke-width="1.5" d="M69.5,-289C63.5,-289 57.5,-283 57.5,-277"/>
<path fill="#ffffff" stroke="#ffffff" stroke-width="1.5" d="M57.5,-265C57.5,-259 63.5,-253 69.5,-253"/>
<polyline fill="none" stroke="#2e3436" stroke-width="1.5" points="69.5,-253 116.5,-253 "/>
<path fill="none" stroke="#2e3436" stroke-width="1.5" d="M116.5,-253C122.5,-253 128.5,-259 128.5,-265"/>
<polyline fill="none" stroke="#2e3436" stroke-width="1.5" points="128.5,-265 128.5,-277 "/>
<path fill="none" stroke="#2e3436" stroke-width="1.5" d="M128.5,-277C128.5,-283 122.5,-289 116.5,-289"/>
<polyline fill="none" stroke="#2e3436" stroke-width="1.5" points="116.5,-289 69.5,-289 "/>
<path fill="none" stroke="#2e3436" stroke-width="1.5" d="M69.5,-289C63.5,-289 57.5,-283 57.5,-277"/>
<polyline fill="none" stroke="#2e3436" stroke-width="1.5" points="57.5,-277 57.5,-265 "/>
<path fill="none" stroke="#2e3436" stroke-width="1.5" d="M57.5,-265C57.5,-259 63.5,-253 69.5,-253"/>
<text text-anchor="start" x="65.5" y="-268.8" font-family="FreeSans" font-size="8.00" fill="#1c2021">name = &#39;Joe&#39;</text>
</g>
<!-- N6&#45;&gt;N1 -->
<g id="edge12" class="edge"><title>N6&#45;&gt;N1</title>
<path fill="none" stroke="#2e3436" stroke-width="2" d="M86.0945,-252.762C81.4649,-239.871 75.5816,-222.09 72,-206 66.201,-179.948 62.761,-149.571 60.8913,-128.59"/>
<polygon fill="#2e3436" stroke="#2e3436" points="60.2499,-121.038 64.2475,-128.225 61.0655,-124.732 61.3828,-128.469 60.8846,-128.511 60.3864,-128.553 60.069,-124.817 57.5217,-128.797 60.2499,-121.038 60.2499,-121.038"/>
<text text-anchor="middle" x="86" y="-184.8" font-family="FreeSans" font-size="8.00" fill="#2e3436">knows</text>
</g>
<!-- N6&#45;&gt;N2 -->
<g id="edge14" class="edge"><title>N6&#45;&gt;N2</title>
<path fill="none" stroke="#2e3436" stroke-width="2" d="M106.019,-252.773C114.668,-240.665 126.124,-224.626 135.558,-211.418"/>
<polygon fill="#2e3436" stroke="#2e3436" points="140.006,-205.191 138.393,-213.256 138.234,-208.533 136.054,-211.585 135.647,-211.294 135.24,-211.004 137.42,-207.952 132.901,-209.332 140.006,-205.191 140.006,-205.191"/>
<text text-anchor="middle" x="138" y="-226.8" font-family="FreeSans" font-size="8.00" fill="#2e3436">knows</text>
</g>
</g>
</svg>
