<?xml version="1.0" encoding="UTF-8" standalone="no"?>
<!DOCTYPE svg PUBLIC "-//W3C//DTD SVG 1.1//EN"
 "http://www.w3.org/Graphics/SVG/1.1/DTD/svg11.dtd">
<!-- Generated by graphviz version 2.26.3 (20100126.1600)
 -->
<!-- Title: g Pages: 1 -->
<svg width="504pt" height="261pt"
 viewBox="0.00 0.00 504.00 261.29" xmlns="http://www.w3.org/2000/svg" xmlns:xlink="http://www.w3.org/1999/xlink">
<g id="graph1" class="graph" transform="scale(0.725839 0.725839) rotate(0) translate(4 355.985)">
<title>g</title>
<polygon fill="white" stroke="white" points="-4,5 -4,-355.985 691.369,-355.985 691.369,5 -4,5"/>
<!-- N1 -->
<g id="node1" class="node"><title>N1</title>
<polygon fill="#ffffff" stroke="#ffffff" stroke-width="1.5" points="13,-192.732 65,-192.732 77,-204.732 77,-216.732 65,-228.732 13,-228.732 1,-216.732 1,-204.732 13,-192.732"/>
<path fill="#ffffff" stroke="#ffffff" stroke-width="1.5" d="M65,-192.732C71,-192.732 77,-198.732 77,-204.732"/>
<path fill="#ffffff" stroke="#ffffff" stroke-width="1.5" d="M77,-216.732C77,-222.732 71,-228.732 65,-228.732"/>
<path fill="#ffffff" stroke="#ffffff" stroke-width="1.5" d="M13,-228.732C7,-228.732 1,-222.732 1,-216.732"/>
<path fill="#ffffff" stroke="#ffffff" stroke-width="1.5" d="M1,-204.732C1,-198.732 7,-192.732 13,-192.732"/>
<polyline fill="none" stroke="#2e3436" stroke-width="1.5" points="13,-192.732 65,-192.732 "/>
<path fill="none" stroke="#2e3436" stroke-width="1.5" d="M65,-192.732C71,-192.732 77,-198.732 77,-204.732"/>
<polyline fill="none" stroke="#2e3436" stroke-width="1.5" points="77,-204.732 77,-216.732 "/>
<path fill="none" stroke="#2e3436" stroke-width="1.5" d="M77,-216.732C77,-222.732 71,-228.732 65,-228.732"/>
<polyline fill="none" stroke="#2e3436" stroke-width="1.5" points="65,-228.732 13,-228.732 "/>
<path fill="none" stroke="#2e3436" stroke-width="1.5" d="M13,-228.732C7,-228.732 1,-222.732 1,-216.732"/>
<polyline fill="none" stroke="#2e3436" stroke-width="1.5" points="1,-216.732 1,-204.732 "/>
<path fill="none" stroke="#2e3436" stroke-width="1.5" d="M1,-204.732C1,-198.732 7,-192.732 13,-192.732"/>
<text text-anchor="start" x="9" y="-208.532" font-family="FreeSans" font-size="8.00" fill="#1c2021">name = &#39;cats&#39;</text>
</g>
<!-- N2 -->
<g id="node2" class="node"><title>N2</title>
<polygon fill="#ffffff" stroke="#ffffff" stroke-width="1.5" points="258.173,-1.5 320.173,-1.5 332.173,-13.5 332.173,-25.5 320.173,-37.5 258.173,-37.5 246.173,-25.5 246.173,-13.5 258.173,-1.5"/>
<path fill="#ffffff" stroke="#ffffff" stroke-width="1.5" d="M320.173,-1.5C326.173,-1.5 332.173,-7.5 332.173,-13.5"/>
<path fill="#ffffff" stroke="#ffffff" stroke-width="1.5" d="M332.173,-25.5C332.173,-31.5 326.173,-37.5 320.173,-37.5"/>
<path fill="#ffffff" stroke="#ffffff" stroke-width="1.5" d="M258.173,-37.5C252.173,-37.5 246.173,-31.5 246.173,-25.5"/>
<path fill="#ffffff" stroke="#ffffff" stroke-width="1.5" d="M246.173,-13.5C246.173,-7.5 252.173,-1.5 258.173,-1.5"/>
<polyline fill="none" stroke="#2e3436" stroke-width="1.5" points="258.173,-1.5 320.173,-1.5 "/>
<path fill="none" stroke="#2e3436" stroke-width="1.5" d="M320.173,-1.5C326.173,-1.5 332.173,-7.5 332.173,-13.5"/>
<polyline fill="none" stroke="#2e3436" stroke-width="1.5" points="332.173,-13.5 332.173,-25.5 "/>
<path fill="none" stroke="#2e3436" stroke-width="1.5" d="M332.173,-25.5C332.173,-31.5 326.173,-37.5 320.173,-37.5"/>
<polyline fill="none" stroke="#2e3436" stroke-width="1.5" points="320.173,-37.5 258.173,-37.5 "/>
<path fill="none" stroke="#2e3436" stroke-width="1.5" d="M258.173,-37.5C252.173,-37.5 246.173,-31.5 246.173,-25.5"/>
<polyline fill="none" stroke="#2e3436" stroke-width="1.5" points="246.173,-25.5 246.173,-13.5 "/>
<path fill="none" stroke="#2e3436" stroke-width="1.5" d="M246.173,-13.5C246.173,-7.5 252.173,-1.5 258.173,-1.5"/>
<text text-anchor="start" x="254.173" y="-17.3" font-family="FreeSans" font-size="8.00" fill="#1c2021">name = &#39;nature&#39;</text>
</g>
<!-- N3 -->
<g id="node3" class="node"><title>N3</title>
<polygon fill="#ffffff" stroke="#ffffff" stroke-width="1.5" points="623.369,-263.556 673.369,-263.556 685.369,-275.556 685.369,-287.556 673.369,-299.556 623.369,-299.556 611.369,-287.556 611.369,-275.556 623.369,-263.556"/>
<path fill="#ffffff" stroke="#ffffff" stroke-width="1.5" d="M673.369,-263.556C679.369,-263.556 685.369,-269.556 685.369,-275.556"/>
<path fill="#ffffff" stroke="#ffffff" stroke-width="1.5" d="M685.369,-287.556C685.369,-293.556 679.369,-299.556 673.369,-299.556"/>
<path fill="#ffffff" stroke="#ffffff" stroke-width="1.5" d="M623.369,-299.556C617.369,-299.556 611.369,-293.556 611.369,-287.556"/>
<path fill="#ffffff" stroke="#ffffff" stroke-width="1.5" d="M611.369,-275.556C611.369,-269.556 617.369,-263.556 623.369,-263.556"/>
<polyline fill="none" stroke="#2e3436" stroke-width="1.5" points="623.369,-263.556 673.369,-263.556 "/>
<path fill="none" stroke="#2e3436" stroke-width="1.5" d="M673.369,-263.556C679.369,-263.556 685.369,-269.556 685.369,-275.556"/>
<polyline fill="none" stroke="#2e3436" stroke-width="1.5" points="685.369,-275.556 685.369,-287.556 "/>
<path fill="none" stroke="#2e3436" stroke-width="1.5" d="M685.369,-287.556C685.369,-293.556 679.369,-299.556 673.369,-299.556"/>
<polyline fill="none" stroke="#2e3436" stroke-width="1.5" points="673.369,-299.556 623.369,-299.556 "/>
<path fill="none" stroke="#2e3436" stroke-width="1.5" d="M623.369,-299.556C617.369,-299.556 611.369,-293.556 611.369,-287.556"/>
<polyline fill="none" stroke="#2e3436" stroke-width="1.5" points="611.369,-287.556 611.369,-275.556 "/>
<path fill="none" stroke="#2e3436" stroke-width="1.5" d="M611.369,-275.556C611.369,-269.556 617.369,-263.556 623.369,-263.556"/>
<text text-anchor="start" x="619.369" y="-279.356" font-family="FreeSans" font-size="8.00" fill="#1c2021">name = &#39;Ben&#39;</text>
</g>
<!-- N4 -->
<g id="node4" class="node"><title>N4</title>
<polygon fill="#ffffff" stroke="#ffffff" stroke-width="1.5" points="517.63,-230.101 571.63,-230.101 583.63,-242.101 583.63,-254.101 571.63,-266.101 517.63,-266.101 505.63,-254.101 505.63,-242.101 517.63,-230.101"/>
<path fill="#ffffff" stroke="#ffffff" stroke-width="1.5" d="M571.63,-230.101C577.63,-230.101 583.63,-236.101 583.63,-242.101"/>
<path fill="#ffffff" stroke="#ffffff" stroke-width="1.5" d="M583.63,-254.101C583.63,-260.101 577.63,-266.101 571.63,-266.101"/>
<path fill="#ffffff" stroke="#ffffff" stroke-width="1.5" d="M517.63,-266.101C511.63,-266.101 505.63,-260.101 505.63,-254.101"/>
<path fill="#ffffff" stroke="#ffffff" stroke-width="1.5" d="M505.63,-242.101C505.63,-236.101 511.63,-230.101 517.63,-230.101"/>
<polyline fill="none" stroke="#2e3436" stroke-width="1.5" points="517.63,-230.101 571.63,-230.101 "/>
<path fill="none" stroke="#2e3436" stroke-width="1.5" d="M571.63,-230.101C577.63,-230.101 583.63,-236.101 583.63,-242.101"/>
<polyline fill="none" stroke="#2e3436" stroke-width="1.5" points="583.63,-242.101 583.63,-254.101 "/>
<path fill="none" stroke="#2e3436" stroke-width="1.5" d="M583.63,-254.101C583.63,-260.101 577.63,-266.101 571.63,-266.101"/>
<polyline fill="none" stroke="#2e3436" stroke-width="1.5" points="571.63,-266.101 517.63,-266.101 "/>
<path fill="none" stroke="#2e3436" stroke-width="1.5" d="M517.63,-266.101C511.63,-266.101 505.63,-260.101 505.63,-254.101"/>
<polyline fill="none" stroke="#2e3436" stroke-width="1.5" points="505.63,-254.101 505.63,-242.101 "/>
<path fill="none" stroke="#2e3436" stroke-width="1.5" d="M505.63,-242.101C505.63,-236.101 511.63,-230.101 517.63,-230.101"/>
<text text-anchor="start" x="513.63" y="-245.901" font-family="FreeSans" font-size="8.00" fill="#1c2021">name = &#39;Sara&#39;</text>
</g>
<!-- N4&#45;&gt;N1 -->
<g id="edge10" class="edge"><title>N4&#45;&gt;N1</title>
<path fill="none" stroke="#4e9a06" stroke-width="2" d="M505.375,-245.2C413.202,-238.388 183.315,-221.398 84.8938,-214.124"/>
<polygon fill="#4e9a06" stroke="#4e9a06" points="77.1923,-213.554 84.9207,-210.741 80.9689,-213.332 84.7087,-213.609 84.6719,-214.107 84.635,-214.606 80.8952,-214.329 84.4231,-217.473 77.1923,-213.554 77.1923,-213.554"/>
<text text-anchor="middle" x="295.134" y="-233.462" font-family="FreeSans" font-size="8.00" fill="#4e9a06">LIKES</text>
</g>
<!-- N4&#45;&gt;N3 -->
<g id="edge4" class="edge"><title>N4&#45;&gt;N3</title>
<path fill="none" stroke="#2e3436" stroke-width="2" d="M583.85,-260.749C590.423,-262.869 597.285,-265.082 603.977,-267.24"/>
<polygon fill="#2e3436" stroke="#2e3436" points="611.151,-269.554 602.977,-270.464 607.428,-268.878 603.859,-267.727 604.013,-267.252 604.166,-266.776 607.735,-267.927 605.049,-264.039 611.151,-269.554 611.151,-269.554"/>
<text text-anchor="middle" x="590.913" y="-271.795" font-family="FreeSans" font-size="8.00" fill="#2e3436">FOLLOWS</text>
</g>
<!-- N8 -->
<g id="node6" class="node"><title>N8</title>
<polygon fill="#ffffff" stroke="#ffffff" stroke-width="1.5" points="333.473,-94.3883 380.473,-94.3883 392.473,-106.388 392.473,-118.388 380.473,-130.388 333.473,-130.388 321.473,-118.388 321.473,-106.388 333.473,-94.3883"/>
<path fill="#ffffff" stroke="#ffffff" stroke-width="1.5" d="M380.473,-94.3883C386.473,-94.3883 392.473,-100.388 392.473,-106.388"/>
<path fill="#ffffff" stroke="#ffffff" stroke-width="1.5" d="M392.473,-118.388C392.473,-124.388 386.473,-130.388 380.473,-130.388"/>
<path fill="#ffffff" stroke="#ffffff" stroke-width="1.5" d="M333.473,-130.388C327.473,-130.388 321.473,-124.388 321.473,-118.388"/>
<path fill="#ffffff" stroke="#ffffff" stroke-width="1.5" d="M321.473,-106.388C321.473,-100.388 327.473,-94.3883 333.473,-94.3883"/>
<polyline fill="none" stroke="#2e3436" stroke-width="1.5" points="333.473,-94.3883 380.473,-94.3883 "/>
<path fill="none" stroke="#2e3436" stroke-width="1.5" d="M380.473,-94.3883C386.473,-94.3883 392.473,-100.388 392.473,-106.388"/>
<polyline fill="none" stroke="#2e3436" stroke-width="1.5" points="392.473,-106.388 392.473,-118.388 "/>
<path fill="none" stroke="#2e3436" stroke-width="1.5" d="M392.473,-118.388C392.473,-124.388 386.473,-130.388 380.473,-130.388"/>
<polyline fill="none" stroke="#2e3436" stroke-width="1.5" points="380.473,-130.388 333.473,-130.388 "/>
<path fill="none" stroke="#2e3436" stroke-width="1.5" d="M333.473,-130.388C327.473,-130.388 321.473,-124.388 321.473,-118.388"/>
<polyline fill="none" stroke="#2e3436" stroke-width="1.5" points="321.473,-118.388 321.473,-106.388 "/>
<path fill="none" stroke="#2e3436" stroke-width="1.5" d="M321.473,-106.388C321.473,-100.388 327.473,-94.3883 333.473,-94.3883"/>
<text text-anchor="start" x="329.473" y="-110.188" font-family="FreeSans" font-size="8.00" fill="#1c2021">name = &#39;Joe&#39;</text>
</g>
<!-- N4&#45;&gt;N8 -->
<g id="edge2" class="edge"><title>N4&#45;&gt;N8</title>
<path fill="none" stroke="#2e3436" stroke-width="2" d="M530.446,-229.821C502.705,-204.18 441.016,-158.717 399.126,-132.302"/>
<polygon fill="#2e3436" stroke="#2e3436" points="392.581,-128.232 400.733,-129.327 396.03,-129.788 399.214,-131.768 398.95,-132.193 398.686,-132.618 395.502,-130.637 397.168,-135.059 392.581,-128.232 392.581,-128.232"/>
<text text-anchor="middle" x="473.786" y="-166.862" font-family="FreeSans" font-size="8.00" fill="#2e3436">FOLLOWS</text>
</g>
<!-- N5 -->
<g id="node9" class="node"><title>N5</title>
<polygon fill="#ffffff" stroke="#ffffff" stroke-width="1.5" points="472.102,-94.0741 528.102,-94.0741 540.102,-106.074 540.102,-118.074 528.102,-130.074 472.102,-130.074 460.102,-118.074 460.102,-106.074 472.102,-94.0741"/>
<path fill="#ffffff" stroke="#ffffff" stroke-width="1.5" d="M528.102,-94.0741C534.102,-94.0741 540.102,-100.074 540.102,-106.074"/>
<path fill="#ffffff" stroke="#ffffff" stroke-width="1.5" d="M540.102,-118.074C540.102,-124.074 534.102,-130.074 528.102,-130.074"/>
<path fill="#ffffff" stroke="#ffffff" stroke-width="1.5" d="M472.102,-130.074C466.102,-130.074 460.102,-124.074 460.102,-118.074"/>
<path fill="#ffffff" stroke="#ffffff" stroke-width="1.5" d="M460.102,-106.074C460.102,-100.074 466.102,-94.0741 472.102,-94.0741"/>
<polyline fill="none" stroke="#2e3436" stroke-width="1.5" points="472.102,-94.0741 528.102,-94.0741 "/>
<path fill="none" stroke="#2e3436" stroke-width="1.5" d="M528.102,-94.0741C534.102,-94.0741 540.102,-100.074 540.102,-106.074"/>
<polyline fill="none" stroke="#2e3436" stroke-width="1.5" points="540.102,-106.074 540.102,-118.074 "/>
<path fill="none" stroke="#2e3436" stroke-width="1.5" d="M540.102,-118.074C540.102,-124.074 534.102,-130.074 528.102,-130.074"/>
<polyline fill="none" stroke="#2e3436" stroke-width="1.5" points="528.102,-130.074 472.102,-130.074 "/>
<path fill="none" stroke="#2e3436" stroke-width="1.5" d="M472.102,-130.074C466.102,-130.074 460.102,-124.074 460.102,-118.074"/>
<polyline fill="none" stroke="#2e3436" stroke-width="1.5" points="460.102,-118.074 460.102,-106.074 "/>
<path fill="none" stroke="#2e3436" stroke-width="1.5" d="M460.102,-106.074C460.102,-100.074 466.102,-94.0741 472.102,-94.0741"/>
<text text-anchor="start" x="468.102" y="-109.874" font-family="FreeSans" font-size="8.00" fill="#1c2021">name = &#39;bikes&#39;</text>
</g>
<!-- N4&#45;&gt;N5 -->
<g id="edge6" class="edge"><title>N4&#45;&gt;N5</title>
<path fill="none" stroke="#4e9a06" stroke-width="2" d="M538.717,-230.038C530.933,-206.257 517.204,-164.317 508.387,-137.383"/>
<polygon fill="#4e9a06" stroke="#4e9a06" points="506.039,-130.212 511.58,-136.29 507.681,-133.62 508.848,-137.184 508.373,-137.34 507.898,-137.496 506.731,-133.932 505.165,-138.39 506.039,-130.212 506.039,-130.212"/>
<text text-anchor="middle" x="510.552" y="-185.511" font-family="FreeSans" font-size="8.00" fill="#4e9a06">LIKES</text>
</g>
<!-- N7 -->
<g id="node11" class="node"><title>N7</title>
<polygon fill="#ffffff" stroke="#ffffff" stroke-width="1.5" points="402.521,-314.485 455.521,-314.485 467.521,-326.485 467.521,-338.485 455.521,-350.485 402.521,-350.485 390.521,-338.485 390.521,-326.485 402.521,-314.485"/>
<path fill="#ffffff" stroke="#ffffff" stroke-width="1.5" d="M455.521,-314.485C461.521,-314.485 467.521,-320.485 467.521,-326.485"/>
<path fill="#ffffff" stroke="#ffffff" stroke-width="1.5" d="M467.521,-338.485C467.521,-344.485 461.521,-350.485 455.521,-350.485"/>
<path fill="#ffffff" stroke="#ffffff" stroke-width="1.5" d="M402.521,-350.485C396.521,-350.485 390.521,-344.485 390.521,-338.485"/>
<path fill="#ffffff" stroke="#ffffff" stroke-width="1.5" d="M390.521,-326.485C390.521,-320.485 396.521,-314.485 402.521,-314.485"/>
<polyline fill="none" stroke="#2e3436" stroke-width="1.5" points="402.521,-314.485 455.521,-314.485 "/>
<path fill="none" stroke="#2e3436" stroke-width="1.5" d="M455.521,-314.485C461.521,-314.485 467.521,-320.485 467.521,-326.485"/>
<polyline fill="none" stroke="#2e3436" stroke-width="1.5" points="467.521,-326.485 467.521,-338.485 "/>
<path fill="none" stroke="#2e3436" stroke-width="1.5" d="M467.521,-338.485C467.521,-344.485 461.521,-350.485 455.521,-350.485"/>
<polyline fill="none" stroke="#2e3436" stroke-width="1.5" points="455.521,-350.485 402.521,-350.485 "/>
<path fill="none" stroke="#2e3436" stroke-width="1.5" d="M402.521,-350.485C396.521,-350.485 390.521,-344.485 390.521,-338.485"/>
<polyline fill="none" stroke="#2e3436" stroke-width="1.5" points="390.521,-338.485 390.521,-326.485 "/>
<path fill="none" stroke="#2e3436" stroke-width="1.5" d="M390.521,-326.485C390.521,-320.485 396.521,-314.485 402.521,-314.485"/>
<text text-anchor="start" x="398.521" y="-330.285" font-family="FreeSans" font-size="8.00" fill="#1c2021">name = &#39;cars&#39;</text>
</g>
<!-- N4&#45;&gt;N7 -->
<g id="edge8" class="edge"><title>N4&#45;&gt;N7</title>
<path fill="none" stroke="#4e9a06" stroke-width="2" d="M519.829,-266.204C502.304,-278.995 478.693,-296.229 459.939,-309.918"/>
<polygon fill="#4e9a06" stroke="#4e9a06" points="453.781,-314.412 457.849,-307.265 456.515,-311.798 459.544,-309.587 459.839,-309.991 460.134,-310.395 457.105,-312.605 461.829,-312.717 453.781,-314.412 453.781,-314.412"/>
<text text-anchor="middle" x="482.884" y="-275.861" font-family="FreeSans" font-size="8.00" fill="#4e9a06">LIKES</text>
</g>
<!-- N8&#45;&gt;N2 -->
<g id="edge26" class="edge"><title>N8&#45;&gt;N2</title>
<path fill="none" stroke="#4e9a06" stroke-width="2" d="M343.578,-94.0366C333.177,-79.7876 318.652,-59.8877 307.226,-44.2337"/>
<polygon fill="#4e9a06" stroke="#4e9a06" points="302.54,-37.8136 309.688,-41.8818 305.155,-40.5478 307.366,-43.5768 306.962,-43.8716 306.558,-44.1664 304.347,-41.1374 304.236,-45.8614 302.54,-37.8136 302.54,-37.8136"/>
<text text-anchor="middle" x="314.402" y="-74.9351" font-family="FreeSans" font-size="8.00" fill="#4e9a06">LIKES</text>
</g>
<!-- N8&#45;&gt;N4 -->
<g id="edge18" class="edge"><title>N8&#45;&gt;N4</title>
<path fill="none" stroke="#2e3436" stroke-width="2" d="M370.273,-130.468C396.821,-155.609 456.633,-199.924 498.844,-226.625"/>
<polygon fill="#2e3436" stroke="#2e3436" points="505.46,-230.754 497.311,-229.647 502.014,-229.193 498.833,-227.208 499.097,-226.783 499.362,-226.359 502.543,-228.345 500.884,-223.92 505.46,-230.754 505.46,-230.754"/>
<text text-anchor="middle" x="425.559" y="-188.347" font-family="FreeSans" font-size="8.00" fill="#2e3436">FOLLOWS</text>
</g>
<!-- N8&#45;&gt;N5 -->
<g id="edge24" class="edge"><title>N8&#45;&gt;N5</title>
<path fill="none" stroke="#4e9a06" stroke-width="2" d="M392.721,-112.31C410.776,-112.27 432.929,-112.222 452.415,-112.179"/>
<polygon fill="#4e9a06" stroke="#4e9a06" points="460.018,-112.162 452.525,-115.554 456.269,-112.67 452.519,-112.679 452.518,-112.179 452.517,-111.679 456.267,-111.67 452.51,-108.804 460.018,-112.162 460.018,-112.162"/>
<text text-anchor="middle" x="422.568" y="-116.044" font-family="FreeSans" font-size="8.00" fill="#4e9a06">LIKES</text>
</g>
<!-- N6 -->
<g id="node13" class="node"><title>N6</title>
<polygon fill="#ffffff" stroke="#ffffff" stroke-width="1.5" points="284.542,-230.61 341.542,-230.61 353.542,-242.61 353.542,-254.61 341.542,-266.61 284.542,-266.61 272.542,-254.61 272.542,-242.61 284.542,-230.61"/>
<path fill="#ffffff" stroke="#ffffff" stroke-width="1.5" d="M341.542,-230.61C347.542,-230.61 353.542,-236.61 353.542,-242.61"/>
<path fill="#ffffff" stroke="#ffffff" stroke-width="1.5" d="M353.542,-254.61C353.542,-260.61 347.542,-266.61 341.542,-266.61"/>
<path fill="#ffffff" stroke="#ffffff" stroke-width="1.5" d="M284.542,-266.61C278.542,-266.61 272.542,-260.61 272.542,-254.61"/>
<path fill="#ffffff" stroke="#ffffff" stroke-width="1.5" d="M272.542,-242.61C272.542,-236.61 278.542,-230.61 284.542,-230.61"/>
<polyline fill="none" stroke="#2e3436" stroke-width="1.5" points="284.542,-230.61 341.542,-230.61 "/>
<path fill="none" stroke="#2e3436" stroke-width="1.5" d="M341.542,-230.61C347.542,-230.61 353.542,-236.61 353.542,-242.61"/>
<polyline fill="none" stroke="#2e3436" stroke-width="1.5" points="353.542,-242.61 353.542,-254.61 "/>
<path fill="none" stroke="#2e3436" stroke-width="1.5" d="M353.542,-254.61C353.542,-260.61 347.542,-266.61 341.542,-266.61"/>
<polyline fill="none" stroke="#2e3436" stroke-width="1.5" points="341.542,-266.61 284.542,-266.61 "/>
<path fill="none" stroke="#2e3436" stroke-width="1.5" d="M284.542,-266.61C278.542,-266.61 272.542,-260.61 272.542,-254.61"/>
<polyline fill="none" stroke="#2e3436" stroke-width="1.5" points="272.542,-254.61 272.542,-242.61 "/>
<path fill="none" stroke="#2e3436" stroke-width="1.5" d="M272.542,-242.61C272.542,-236.61 278.542,-230.61 284.542,-230.61"/>
<text text-anchor="start" x="280.542" y="-246.41" font-family="FreeSans" font-size="8.00" fill="#1c2021">name = &#39;Maria&#39;</text>
</g>
<!-- N8&#45;&gt;N6 -->
<g id="edge22" class="edge"><title>N8&#45;&gt;N6</title>
<path fill="none" stroke="#a40000" stroke-width="2" d="M323.684,-130.649C306.367,-154.585 294.168,-195.681 297.14,-222.756"/>
<polygon fill="#a40000" stroke="#a40000" points="298.474,-230.334 293.85,-223.532 297.331,-226.727 296.681,-223.034 297.174,-222.947 297.666,-222.86 298.316,-226.554 300.498,-222.362 298.474,-230.334 298.474,-230.334"/>
<text text-anchor="middle" x="295.412" y="-170.503" font-family="FreeSans" font-size="8.00" fill="#a40000">LOVES</text>
</g>
<!-- N8&#45;&gt;N6 -->
<g id="edge20" class="edge"><title>N8&#45;&gt;N6</title>
<path fill="none" stroke="#2e3436" stroke-width="2" d="M371.904,-130.55C378.449,-154.795 368.198,-196.563 351.551,-223.613"/>
<polygon fill="#2e3436" stroke="#2e3436" points="347.187,-230.153 348.542,-222.041 348.852,-226.756 350.933,-223.637 351.349,-223.914 351.765,-224.192 349.684,-227.311 354.157,-225.788 347.187,-230.153 347.187,-230.153"/>
<text text-anchor="middle" x="379.727" y="-177.881" font-family="FreeSans" font-size="8.00" fill="#2e3436">FOLLOWS</text>
</g>
<!-- N6&#45;&gt;N8 -->
<g id="edge12" class="edge"><title>N6&#45;&gt;N8</title>
<path fill="none" stroke="#2e3436" stroke-width="2" d="M327.66,-230.483C339.275,-206.707 352.843,-164.986 357.826,-138.001"/>
<polygon fill="#2e3436" stroke="#2e3436" points="359.04,-130.472 361.178,-138.414 358.937,-134.254 358.34,-137.956 357.846,-137.876 357.352,-137.797 357.95,-134.095 354.514,-137.339 359.04,-130.472 359.04,-130.472"/>
<text text-anchor="middle" x="324.743" y="-177.042" font-family="FreeSans" font-size="8.00" fill="#2e3436">FOLLOWS</text>
</g>
<!-- N6&#45;&gt;N8 -->
<g id="edge14" class="edge"><title>N6&#45;&gt;N8</title>
<path fill="none" stroke="#a40000" stroke-width="2" d="M311.469,-230.557C314.982,-206.653 328.007,-164.508 339.776,-137.517"/>
<polygon fill="#a40000" stroke="#a40000" points="342.893,-130.668 342.858,-138.892 341.794,-134.288 340.241,-137.701 339.786,-137.494 339.331,-137.287 340.884,-133.874 336.714,-136.096 342.893,-130.668 342.893,-130.668"/>
<text text-anchor="middle" x="310.622" y="-177.837" font-family="FreeSans" font-size="8.00" fill="#a40000">LOVES</text>
</g>
<!-- N6&#45;&gt;N7 -->
<g id="edge16" class="edge"><title>N6&#45;&gt;N7</title>
<path fill="none" stroke="#4e9a06" stroke-width="2" d="M338.208,-266.809C355.685,-279.449 379.095,-296.379 397.768,-309.883"/>
<polygon fill="#4e9a06" stroke="#4e9a06" points="403.904,-314.321 395.849,-312.66 400.573,-312.528 397.534,-310.331 397.827,-309.926 398.12,-309.52 401.159,-311.718 399.805,-307.191 403.904,-314.321 403.904,-314.321"/>
<text text-anchor="middle" x="374.988" y="-276.146" font-family="FreeSans" font-size="8.00" fill="#4e9a06">LIKES</text>
</g>
</g>
</svg>
