<?xml version="1.0" encoding="UTF-8" standalone="no"?>
<!DOCTYPE svg PUBLIC "-//W3C//DTD SVG 1.1//EN"
 "http://www.w3.org/Graphics/SVG/1.1/DTD/svg11.dtd">
<!-- Generated by graphviz version 2.26.3 (20100126.1600)
 -->
<!-- Title: g Pages: 1 -->
<svg width="504pt" height="321pt"
 viewBox="0.00 0.00 504.00 320.64" xmlns="http://www.w3.org/2000/svg" xmlns:xlink="http://www.w3.org/1999/xlink">
<g id="graph1" class="graph" transform="scale(0.921389 0.921389) rotate(0) translate(4 344)">
<title>g</title>
<polygon fill="white" stroke="white" points="-4,5 -4,-344 544,-344 544,5 -4,5"/>
<!-- N1 -->
<g id="node1" class="node"><title>N1</title>
<polygon fill="#ffffff" stroke="#ffffff" stroke-width="1.5" points="349.5,-303 426.5,-303 438.5,-315 438.5,-327 426.5,-339 349.5,-339 337.5,-327 337.5,-315 349.5,-303"/>
<path fill="#ffffff" stroke="#ffffff" stroke-width="1.5" d="M426.5,-303C432.5,-303 438.5,-309 438.5,-315"/>
<path fill="#ffffff" stroke="#ffffff" stroke-width="1.5" d="M438.5,-327C438.5,-333 432.5,-339 426.5,-339"/>
<path fill="#ffffff" stroke="#ffffff" stroke-width="1.5" d="M349.5,-339C343.5,-339 337.5,-333 337.5,-327"/>
<path fill="#ffffff" stroke="#ffffff" stroke-width="1.5" d="M337.5,-315C337.5,-309 343.5,-303 349.5,-303"/>
<polyline fill="none" stroke="#2e3436" stroke-width="1.5" points="349.5,-303 426.5,-303 "/>
<path fill="none" stroke="#2e3436" stroke-width="1.5" d="M426.5,-303C432.5,-303 438.5,-309 438.5,-315"/>
<polyline fill="none" stroke="#2e3436" stroke-width="1.5" points="438.5,-315 438.5,-327 "/>
<path fill="none" stroke="#2e3436" stroke-width="1.5" d="M438.5,-327C438.5,-333 432.5,-339 426.5,-339"/>
<polyline fill="none" stroke="#2e3436" stroke-width="1.5" points="426.5,-339 349.5,-339 "/>
<path fill="none" stroke="#2e3436" stroke-width="1.5" d="M349.5,-339C343.5,-339 337.5,-333 337.5,-327"/>
<polyline fill="none" stroke="#2e3436" stroke-width="1.5" points="337.5,-327 337.5,-315 "/>
<path fill="none" stroke="#2e3436" stroke-width="1.5" d="M337.5,-315C337.5,-309 343.5,-303 349.5,-303"/>
<text text-anchor="start" x="345.5" y="-318.8" font-family="FreeSans" font-size="8.00" fill="#1c2021">name = &#39;Clark Kent&#39;</text>
</g>
<!-- N2 -->
<g id="node3" class="node"><title>N2</title>
<polygon fill="#ffffff" stroke="#ffffff" stroke-width="1.5" points="195,-209 269,-209 281,-221 281,-233 269,-245 195,-245 183,-233 183,-221 195,-209"/>
<path fill="#ffffff" stroke="#ffffff" stroke-width="1.5" d="M269,-209C275,-209 281,-215 281,-221"/>
<path fill="#ffffff" stroke="#ffffff" stroke-width="1.5" d="M281,-233C281,-239 275,-245 269,-245"/>
<path fill="#ffffff" stroke="#ffffff" stroke-width="1.5" d="M195,-245C189,-245 183,-239 183,-233"/>
<path fill="#ffffff" stroke="#ffffff" stroke-width="1.5" d="M183,-221C183,-215 189,-209 195,-209"/>
<polyline fill="none" stroke="#2e3436" stroke-width="1.5" points="195,-209 269,-209 "/>
<path fill="none" stroke="#2e3436" stroke-width="1.5" d="M269,-209C275,-209 281,-215 281,-221"/>
<polyline fill="none" stroke="#2e3436" stroke-width="1.5" points="281,-221 281,-233 "/>
<path fill="none" stroke="#2e3436" stroke-width="1.5" d="M281,-233C281,-239 275,-245 269,-245"/>
<polyline fill="none" stroke="#2e3436" stroke-width="1.5" points="269,-245 195,-245 "/>
<path fill="none" stroke="#2e3436" stroke-width="1.5" d="M195,-245C189,-245 183,-239 183,-233"/>
<polyline fill="none" stroke="#2e3436" stroke-width="1.5" points="183,-233 183,-221 "/>
<path fill="none" stroke="#2e3436" stroke-width="1.5" d="M183,-221C183,-215 189,-209 195,-209"/>
<text text-anchor="start" x="191" y="-224.8" font-family="FreeSans" font-size="8.00" fill="#1c2021">name = &#39;Lois Lane&#39;</text>
</g>
<!-- N1&#45;&gt;N2 -->
<g id="edge2" class="edge"><title>N1&#45;&gt;N2</title>
<path fill="none" stroke="#2e3436" stroke-width="2" d="M357.922,-302.876C332.456,-287.531 295.863,-265.482 268.681,-249.103"/>
<polygon fill="#2e3436" stroke="#2e3436" points="261.986,-245.069 270.152,-246.049 265.456,-246.576 268.668,-248.511 268.41,-248.939 268.152,-249.368 264.94,-247.432 266.668,-251.83 261.986,-245.069 261.986,-245.069"/>
<text text-anchor="middle" x="346" y="-276.8" font-family="FreeSans" font-size="8.00" fill="#2e3436">KNOWS</text>
<text text-anchor="start" x="323" y="-266.8" font-family="FreeSans" font-size="8.00" fill="#2e3436">weight = 4</text>
</g>
<!-- N3 -->
<g id="node5" class="node"><title>N3</title>
<polygon fill="#ffffff" stroke="#ffffff" stroke-width="1.5" points="344.5,-209 431.5,-209 443.5,-221 443.5,-233 431.5,-245 344.5,-245 332.5,-233 332.5,-221 344.5,-209"/>
<path fill="#ffffff" stroke="#ffffff" stroke-width="1.5" d="M431.5,-209C437.5,-209 443.5,-215 443.5,-221"/>
<path fill="#ffffff" stroke="#ffffff" stroke-width="1.5" d="M443.5,-233C443.5,-239 437.5,-245 431.5,-245"/>
<path fill="#ffffff" stroke="#ffffff" stroke-width="1.5" d="M344.5,-245C338.5,-245 332.5,-239 332.5,-233"/>
<path fill="#ffffff" stroke="#ffffff" stroke-width="1.5" d="M332.5,-221C332.5,-215 338.5,-209 344.5,-209"/>
<polyline fill="none" stroke="#2e3436" stroke-width="1.5" points="344.5,-209 431.5,-209 "/>
<path fill="none" stroke="#2e3436" stroke-width="1.5" d="M431.5,-209C437.5,-209 443.5,-215 443.5,-221"/>
<polyline fill="none" stroke="#2e3436" stroke-width="1.5" points="443.5,-221 443.5,-233 "/>
<path fill="none" stroke="#2e3436" stroke-width="1.5" d="M443.5,-233C443.5,-239 437.5,-245 431.5,-245"/>
<polyline fill="none" stroke="#2e3436" stroke-width="1.5" points="431.5,-245 344.5,-245 "/>
<path fill="none" stroke="#2e3436" stroke-width="1.5" d="M344.5,-245C338.5,-245 332.5,-239 332.5,-233"/>
<polyline fill="none" stroke="#2e3436" stroke-width="1.5" points="332.5,-233 332.5,-221 "/>
<path fill="none" stroke="#2e3436" stroke-width="1.5" d="M332.5,-221C332.5,-215 338.5,-209 344.5,-209"/>
<text text-anchor="start" x="340.5" y="-224.8" font-family="FreeSans" font-size="8.00" fill="#1c2021">name = &#39;Jimmy Olsen&#39;</text>
</g>
<!-- N1&#45;&gt;N3 -->
<g id="edge4" class="edge"><title>N1&#45;&gt;N3</title>
<path fill="none" stroke="#2e3436" stroke-width="2" d="M388,-302.876C388,-288.701 388,-268.806 388,-252.944"/>
<polygon fill="#2e3436" stroke="#2e3436" points="388,-245.069 391.375,-252.568 388.5,-248.818 388.5,-252.568 388,-252.569 387.5,-252.569 387.5,-248.819 384.625,-252.569 388,-245.069 388,-245.069"/>
<text text-anchor="middle" x="411" y="-276.8" font-family="FreeSans" font-size="8.00" fill="#2e3436">KNOWS</text>
<text text-anchor="start" x="388" y="-266.8" font-family="FreeSans" font-size="8.00" fill="#2e3436">weight = 4</text>
</g>
<!-- N6 -->
<g id="node7" class="node"><title>N6</title>
<polygon fill="#ffffff" stroke="#ffffff" stroke-width="1.5" points="349.5,-1 432.5,-1 444.5,-13 444.5,-25 432.5,-37 349.5,-37 337.5,-25 337.5,-13 349.5,-1"/>
<path fill="#ffffff" stroke="#ffffff" stroke-width="1.5" d="M432.5,-1C438.5,-1 444.5,-7 444.5,-13"/>
<path fill="#ffffff" stroke="#ffffff" stroke-width="1.5" d="M444.5,-25C444.5,-31 438.5,-37 432.5,-37"/>
<path fill="#ffffff" stroke="#ffffff" stroke-width="1.5" d="M349.5,-37C343.5,-37 337.5,-31 337.5,-25"/>
<path fill="#ffffff" stroke="#ffffff" stroke-width="1.5" d="M337.5,-13C337.5,-7 343.5,-1 349.5,-1"/>
<polyline fill="none" stroke="#2e3436" stroke-width="1.5" points="349.5,-1 432.5,-1 "/>
<path fill="none" stroke="#2e3436" stroke-width="1.5" d="M432.5,-1C438.5,-1 444.5,-7 444.5,-13"/>
<polyline fill="none" stroke="#2e3436" stroke-width="1.5" points="444.5,-13 444.5,-25 "/>
<path fill="none" stroke="#2e3436" stroke-width="1.5" d="M444.5,-25C444.5,-31 438.5,-37 432.5,-37"/>
<polyline fill="none" stroke="#2e3436" stroke-width="1.5" points="432.5,-37 349.5,-37 "/>
<path fill="none" stroke="#2e3436" stroke-width="1.5" d="M349.5,-37C343.5,-37 337.5,-31 337.5,-25"/>
<polyline fill="none" stroke="#2e3436" stroke-width="1.5" points="337.5,-25 337.5,-13 "/>
<path fill="none" stroke="#2e3436" stroke-width="1.5" d="M337.5,-13C337.5,-7 343.5,-1 349.5,-1"/>
<text text-anchor="start" x="345.5" y="-16.8" font-family="FreeSans" font-size="8.00" fill="#1c2021">name = &#39;Daily Planet&#39;</text>
</g>
<!-- N1&#45;&gt;N6 -->
<g id="edge6" class="edge"><title>N1&#45;&gt;N6</title>
<path fill="none" stroke="#4e9a06" stroke-width="2" d="M419.766,-302.98C427.406,-297.59 435.064,-291.178 441,-284 463.915,-256.292 487.136,-161.047 490,-142 492.511,-125.299 496.381,-119.637 490,-104 478.719,-76.3557 465.697,-75.398 443,-56 437.251,-51.087 430.872,-46.1639 424.607,-41.5851"/>
<polygon fill="#4e9a06" stroke="#4e9a06" points="418.407,-37.1343 426.468,-38.7666 421.745,-38.9151 424.791,-41.1021 424.5,-41.5082 424.208,-41.9144 421.162,-39.7274 422.531,-44.2499 418.407,-37.1343 418.407,-37.1343"/>
<text text-anchor="middle" x="512.5" y="-182.8" font-family="FreeSans" font-size="8.00" fill="#4e9a06">WORKSAT</text>
<text text-anchor="start" x="486" y="-172.8" font-family="FreeSans" font-size="8.00" fill="#4e9a06">weight = 2</text>
<text text-anchor="start" x="486" y="-162.8" font-family="FreeSans" font-size="8.00" fill="#4e9a06">activity = 45</text>
</g>
<!-- N2&#45;&gt;N6 -->
<g id="edge12" class="edge"><title>N2&#45;&gt;N6</title>
<path fill="none" stroke="#4e9a06" stroke-width="2" d="M221.446,-208.674C208.828,-184.282 190.953,-140.037 204,-104 213.454,-77.8889 220.491,-70.7819 244,-56 269.659,-39.8661 301.983,-30.7603 329.782,-25.6244"/>
<polygon fill="#4e9a06" stroke="#4e9a06" points="337.494,-24.2786 330.686,-28.8929 333.886,-25.4159 330.191,-26.0607 330.106,-25.5681 330.02,-25.0756 333.714,-24.4308 329.525,-22.2434 337.494,-24.2786 337.494,-24.2786"/>
<text text-anchor="middle" x="230.5" y="-130.8" font-family="FreeSans" font-size="8.00" fill="#4e9a06">WORKSAT</text>
<text text-anchor="start" x="204" y="-120.8" font-family="FreeSans" font-size="8.00" fill="#4e9a06">weight = 2</text>
<text text-anchor="start" x="204" y="-110.8" font-family="FreeSans" font-size="8.00" fill="#4e9a06">activity = 56</text>
</g>
<!-- N4 -->
<g id="node9" class="node"><title>N4</title>
<polygon fill="#ffffff" stroke="#ffffff" stroke-width="1.5" points="284,-105 366,-105 378,-117 378,-129 366,-141 284,-141 272,-129 272,-117 284,-105"/>
<path fill="#ffffff" stroke="#ffffff" stroke-width="1.5" d="M366,-105C372,-105 378,-111 378,-117"/>
<path fill="#ffffff" stroke="#ffffff" stroke-width="1.5" d="M378,-129C378,-135 372,-141 366,-141"/>
<path fill="#ffffff" stroke="#ffffff" stroke-width="1.5" d="M284,-141C278,-141 272,-135 272,-129"/>
<path fill="#ffffff" stroke="#ffffff" stroke-width="1.5" d="M272,-117C272,-111 278,-105 284,-105"/>
<polyline fill="none" stroke="#2e3436" stroke-width="1.5" points="284,-105 366,-105 "/>
<path fill="none" stroke="#2e3436" stroke-width="1.5" d="M366,-105C372,-105 378,-111 378,-117"/>
<polyline fill="none" stroke="#2e3436" stroke-width="1.5" points="378,-117 378,-129 "/>
<path fill="none" stroke="#2e3436" stroke-width="1.5" d="M378,-129C378,-135 372,-141 366,-141"/>
<polyline fill="none" stroke="#2e3436" stroke-width="1.5" points="366,-141 284,-141 "/>
<path fill="none" stroke="#2e3436" stroke-width="1.5" d="M284,-141C278,-141 272,-135 272,-129"/>
<polyline fill="none" stroke="#2e3436" stroke-width="1.5" points="272,-129 272,-117 "/>
<path fill="none" stroke="#2e3436" stroke-width="1.5" d="M272,-117C272,-111 278,-105 284,-105"/>
<text text-anchor="start" x="280" y="-120.8" font-family="FreeSans" font-size="8.00" fill="#1c2021">name = &#39;Perry White&#39;</text>
</g>
<!-- N2&#45;&gt;N4 -->
<g id="edge8" class="edge"><title>N2&#45;&gt;N4</title>
<path fill="none" stroke="#2e3436" stroke-width="2" d="M248.199,-208.885C263.574,-191.691 286.777,-165.744 303.655,-146.87"/>
<polygon fill="#2e3436" stroke="#2e3436" points="308.674,-141.257 306.191,-149.097 306.547,-144.385 304.048,-147.181 303.675,-146.848 303.302,-146.514 305.802,-143.719 301.159,-144.598 308.674,-141.257 308.674,-141.257"/>
<text text-anchor="middle" x="313" y="-177.8" font-family="FreeSans" font-size="8.00" fill="#2e3436">KNOWS</text>
<text text-anchor="start" x="290" y="-167.8" font-family="FreeSans" font-size="8.00" fill="#2e3436">weight = 4</text>
</g>
<!-- N5 -->
<g id="node11" class="node"><title>N5</title>
<polygon fill="#ffffff" stroke="#ffffff" stroke-width="1.5" points="12,-105 120,-105 132,-117 132,-129 120,-141 12,-141 0,-129 0,-117 12,-105"/>
<path fill="#ffffff" stroke="#ffffff" stroke-width="1.5" d="M120,-105C126,-105 132,-111 132,-117"/>
<path fill="#ffffff" stroke="#ffffff" stroke-width="1.5" d="M132,-129C132,-135 126,-141 120,-141"/>
<path fill="#ffffff" stroke="#ffffff" stroke-width="1.5" d="M12,-141C6,-141 0,-135 0,-129"/>
<path fill="#ffffff" stroke="#ffffff" stroke-width="1.5" d="M0,-117C0,-111 6,-105 12,-105"/>
<polyline fill="none" stroke="#2e3436" stroke-width="1.5" points="12,-105 120,-105 "/>
<path fill="none" stroke="#2e3436" stroke-width="1.5" d="M120,-105C126,-105 132,-111 132,-117"/>
<polyline fill="none" stroke="#2e3436" stroke-width="1.5" points="132,-117 132,-129 "/>
<path fill="none" stroke="#2e3436" stroke-width="1.5" d="M132,-129C132,-135 126,-141 120,-141"/>
<polyline fill="none" stroke="#2e3436" stroke-width="1.5" points="120,-141 12,-141 "/>
<path fill="none" stroke="#2e3436" stroke-width="1.5" d="M12,-141C6,-141 0,-135 0,-129"/>
<polyline fill="none" stroke="#2e3436" stroke-width="1.5" points="0,-129 0,-117 "/>
<path fill="none" stroke="#2e3436" stroke-width="1.5" d="M0,-117C0,-111 6,-105 12,-105"/>
<text text-anchor="start" x="8" y="-120.8" font-family="FreeSans" font-size="8.00" fill="#1c2021">name = &#39;Anderson Cooper&#39;</text>
</g>
<!-- N2&#45;&gt;N5 -->
<g id="edge10" class="edge"><title>N2&#45;&gt;N5</title>
<path fill="none" stroke="#2e3436" stroke-width="2" d="M182.779,-216.669C162.765,-210.939 140.132,-202.392 122,-190 105.611,-178.799 91.3363,-161.527 81.301,-147.325"/>
<polygon fill="#2e3436" stroke="#2e3436" points="76.9962,-141.049 84.0217,-145.325 79.5297,-143.859 81.6508,-146.951 81.2385,-147.234 80.8262,-147.517 78.705,-144.424 78.4553,-149.143 76.9962,-141.049 76.9962,-141.049"/>
<text text-anchor="middle" x="145" y="-177.8" font-family="FreeSans" font-size="8.00" fill="#2e3436">KNOWS</text>
<text text-anchor="start" x="122" y="-167.8" font-family="FreeSans" font-size="8.00" fill="#2e3436">weight = 4</text>
</g>
<!-- N3&#45;&gt;N6 -->
<g id="edge16" class="edge"><title>N3&#45;&gt;N6</title>
<path fill="none" stroke="#4e9a06" stroke-width="2" d="M405.392,-208.779C409.688,-203.178 413.712,-196.709 416,-190 435.227,-133.632 434.957,-112.786 417,-56 415.666,-51.78 413.658,-47.6243 411.338,-43.7092"/>
<polygon fill="#4e9a06" stroke="#4e9a06" points="407.204,-37.3788 414.131,-41.8127 409.673,-40.2451 411.724,-43.3848 411.305,-43.6582 410.887,-43.9316 408.836,-40.7919 408.479,-45.5037 407.204,-37.3788 407.204,-37.3788"/>
<text text-anchor="middle" x="456.5" y="-130.8" font-family="FreeSans" font-size="8.00" fill="#4e9a06">WORKSAT</text>
<text text-anchor="start" x="430" y="-120.8" font-family="FreeSans" font-size="8.00" fill="#4e9a06">weight = 2</text>
<text text-anchor="start" x="430" y="-110.8" font-family="FreeSans" font-size="8.00" fill="#4e9a06">activity = 10</text>
</g>
<!-- N3&#45;&gt;N4 -->
<g id="edge14" class="edge"><title>N3&#45;&gt;N4</title>
<path fill="none" stroke="#2e3436" stroke-width="2" d="M377.026,-208.885C366.791,-191.988 351.433,-166.636 340.055,-147.852"/>
<polygon fill="#2e3436" stroke="#2e3436" points="336.059,-141.257 342.832,-145.923 338.43,-144.205 340.373,-147.413 339.945,-147.672 339.518,-147.931 337.575,-144.723 337.059,-149.42 336.059,-141.257 336.059,-141.257"/>
<text text-anchor="middle" x="386" y="-177.8" font-family="FreeSans" font-size="8.00" fill="#2e3436">KNOWS</text>
<text text-anchor="start" x="363" y="-167.8" font-family="FreeSans" font-size="8.00" fill="#2e3436">weight = 4</text>
</g>
<!-- N4&#45;&gt;N6 -->
<g id="edge18" class="edge"><title>N4&#45;&gt;N6</title>
<path fill="none" stroke="#4e9a06" stroke-width="2" d="M335.746,-104.948C343.892,-91.3841 355.449,-72.4001 366,-56 368.587,-51.9781 371.38,-47.7461 374.127,-43.6388"/>
<polygon fill="#4e9a06" stroke="#4e9a06" points="378.373,-37.3351 376.983,-45.4411 376.693,-40.7247 374.598,-43.835 374.183,-43.5557 373.769,-43.2763 375.864,-40.1661 371.384,-41.6702 378.373,-37.3351 378.373,-37.3351"/>
<text text-anchor="middle" x="390" y="-78.8" font-family="FreeSans" font-size="8.00" fill="#4e9a06">WORKSAT</text>
<text text-anchor="start" x="366" y="-68.8" font-family="FreeSans" font-size="8.00" fill="#4e9a06">weight = 2</text>
<text text-anchor="start" x="366" y="-58.8" font-family="FreeSans" font-size="8.00" fill="#4e9a06">activity = 6</text>
</g>
<!-- N7 -->
<g id="node17" class="node"><title>N7</title>
<polygon fill="#ffffff" stroke="#ffffff" stroke-width="1.5" points="179,-1 231,-1 243,-13 243,-25 231,-37 179,-37 167,-25 167,-13 179,-1"/>
<path fill="#ffffff" stroke="#ffffff" stroke-width="1.5" d="M231,-1C237,-1 243,-7 243,-13"/>
<path fill="#ffffff" stroke="#ffffff" stroke-width="1.5" d="M243,-25C243,-31 237,-37 231,-37"/>
<path fill="#ffffff" stroke="#ffffff" stroke-width="1.5" d="M179,-37C173,-37 167,-31 167,-25"/>
<path fill="#ffffff" stroke="#ffffff" stroke-width="1.5" d="M167,-13C167,-7 173,-1 179,-1"/>
<polyline fill="none" stroke="#2e3436" stroke-width="1.5" points="179,-1 231,-1 "/>
<path fill="none" stroke="#2e3436" stroke-width="1.5" d="M231,-1C237,-1 243,-7 243,-13"/>
<polyline fill="none" stroke="#2e3436" stroke-width="1.5" points="243,-13 243,-25 "/>
<path fill="none" stroke="#2e3436" stroke-width="1.5" d="M243,-25C243,-31 237,-37 231,-37"/>
<polyline fill="none" stroke="#2e3436" stroke-width="1.5" points="231,-37 179,-37 "/>
<path fill="none" stroke="#2e3436" stroke-width="1.5" d="M179,-37C173,-37 167,-31 167,-25"/>
<polyline fill="none" stroke="#2e3436" stroke-width="1.5" points="167,-25 167,-13 "/>
<path fill="none" stroke="#2e3436" stroke-width="1.5" d="M167,-13C167,-7 173,-1 179,-1"/>
<text text-anchor="start" x="175" y="-16.8" font-family="FreeSans" font-size="8.00" fill="#1c2021">name = &#39;CNN&#39;</text>
</g>
<!-- N4&#45;&gt;N7 -->
<g id="edge20" class="edge"><title>N4&#45;&gt;N7</title>
<path fill="none" stroke="#4e9a06" stroke-width="2" d="M304.098,-104.885C284.088,-87.5429 253.803,-61.2957 231.981,-42.3831"/>
<polygon fill="#4e9a06" stroke="#4e9a06" points="226.066,-37.2568 233.944,-39.6183 229.227,-39.3349 232.061,-41.7909 231.733,-42.1688 231.406,-42.5466 228.572,-40.0906 229.523,-44.7192 226.066,-37.2568 226.066,-37.2568"/>
<text text-anchor="middle" x="304" y="-78.8" font-family="FreeSans" font-size="8.00" fill="#4e9a06">WORKSAT</text>
<text text-anchor="start" x="280" y="-68.8" font-family="FreeSans" font-size="8.00" fill="#4e9a06">weight = 2</text>
<text text-anchor="start" x="280" y="-58.8" font-family="FreeSans" font-size="8.00" fill="#4e9a06">activity = 3</text>
</g>
<!-- N5&#45;&gt;N7 -->
<g id="edge22" class="edge"><title>N5&#45;&gt;N7</title>
<path fill="none" stroke="#4e9a06" stroke-width="2" d="M77.1382,-104.744C86.9102,-89.9803 102.299,-69.4979 120,-56 131.879,-46.9415 146.318,-39.5876 159.9,-33.8932"/>
<polygon fill="#4e9a06" stroke="#4e9a06" points="166.905,-31.0664 161.213,-37.0027 163.615,-32.9333 160.137,-34.3365 159.95,-33.8728 159.763,-33.4092 163.241,-32.006 158.687,-30.743 166.905,-31.0664 166.905,-31.0664"/>
<text text-anchor="middle" x="144" y="-78.8" font-family="FreeSans" font-size="8.00" fill="#4e9a06">WORKSAT</text>
<text text-anchor="start" x="120" y="-68.8" font-family="FreeSans" font-size="8.00" fill="#4e9a06">weight = 2</text>
<text text-anchor="start" x="120" y="-58.8" font-family="FreeSans" font-size="8.00" fill="#4e9a06">activity = 2</text>
</g>
</g>
</svg>
