<?xml version="1.0" encoding="UTF-8" standalone="no"?>
<!DOCTYPE svg PUBLIC "-//W3C//DTD SVG 1.1//EN"
 "http://www.w3.org/Graphics/SVG/1.1/DTD/svg11.dtd">
<!-- Generated by graphviz version 2.26.3 (20100126.1600)
 -->
<!-- Title: g Pages: 1 -->
<svg width="504pt" height="85pt"
 viewBox="0.00 0.00 504.00 85.36" xmlns="http://www.w3.org/2000/svg" xmlns:xlink="http://www.w3.org/1999/xlink">
<g id="graph1" class="graph" transform="scale(0.3989 0.3989) rotate(0) translate(4 210)">
<title>g</title>
<polygon fill="white" stroke="white" points="-4,5 -4,-210 1260.47,-210 1260.47,5 -4,5"/>
<!-- N1 -->
<g id="node1" class="node"><title>N1</title>
<polygon fill="#ffffff" stroke="#ffffff" stroke-width="1.5" points="157.973,-85 230.973,-85 242.973,-97 242.973,-109 230.973,-121 157.973,-121 145.973,-109 145.973,-97 157.973,-85"/>
<path fill="#ffffff" stroke="#ffffff" stroke-width="1.5" d="M230.973,-85C236.973,-85 242.973,-91 242.973,-97"/>
<path fill="#ffffff" stroke="#ffffff" stroke-width="1.5" d="M242.973,-109C242.973,-115 236.973,-121 230.973,-121"/>
<path fill="#ffffff" stroke="#ffffff" stroke-width="1.5" d="M157.973,-121C151.973,-121 145.973,-115 145.973,-109"/>
<path fill="#ffffff" stroke="#ffffff" stroke-width="1.5" d="M145.973,-97C145.973,-91 151.973,-85 157.973,-85"/>
<polyline fill="none" stroke="#2e3436" stroke-width="1.5" points="157.973,-85 230.973,-85 "/>
<path fill="none" stroke="#2e3436" stroke-width="1.5" d="M230.973,-85C236.973,-85 242.973,-91 242.973,-97"/>
<polyline fill="none" stroke="#2e3436" stroke-width="1.5" points="242.973,-97 242.973,-109 "/>
<path fill="none" stroke="#2e3436" stroke-width="1.5" d="M242.973,-109C242.973,-115 236.973,-121 230.973,-121"/>
<polyline fill="none" stroke="#2e3436" stroke-width="1.5" points="230.973,-121 157.973,-121 "/>
<path fill="none" stroke="#2e3436" stroke-width="1.5" d="M157.973,-121C151.973,-121 145.973,-115 145.973,-109"/>
<polyline fill="none" stroke="#2e3436" stroke-width="1.5" points="145.973,-109 145.973,-97 "/>
<path fill="none" stroke="#2e3436" stroke-width="1.5" d="M145.973,-97C145.973,-91 151.973,-85 157.973,-85"/>
<text text-anchor="start" x="153.973" y="-100.8" font-family="FreeSans" font-size="8.00" fill="#1c2021">name = &#39;U2G2R34&#39;</text>
</g>
<!-- N12 -->
<g id="node3" class="node"><title>N12</title>
<polygon fill="#ffffff" stroke="#ffffff" stroke-width="1.5" points="11.9734,-1 76.9734,-1 88.9734,-13 88.9734,-25 76.9734,-37 11.9734,-37 -0.0265542,-25 -0.0265542,-13 11.9734,-1"/>
<path fill="#ffffff" stroke="#ffffff" stroke-width="1.5" d="M76.9734,-1C82.9734,-1 88.9734,-7 88.9734,-13"/>
<path fill="#ffffff" stroke="#ffffff" stroke-width="1.5" d="M88.9734,-25C88.9734,-31 82.9734,-37 76.9734,-37"/>
<path fill="#ffffff" stroke="#ffffff" stroke-width="1.5" d="M11.9734,-37C5.97345,-37 -0.0265542,-31 -0.0265542,-25"/>
<path fill="#ffffff" stroke="#ffffff" stroke-width="1.5" d="M-0.0265542,-13C-0.0265542,-7 5.97345,-1 11.9734,-1"/>
<polyline fill="none" stroke="#2e3436" stroke-width="1.5" points="11.9734,-1 76.9734,-1 "/>
<path fill="none" stroke="#2e3436" stroke-width="1.5" d="M76.9734,-1C82.9734,-1 88.9734,-7 88.9734,-13"/>
<polyline fill="none" stroke="#2e3436" stroke-width="1.5" points="88.9734,-13 88.9734,-25 "/>
<path fill="none" stroke="#2e3436" stroke-width="1.5" d="M88.9734,-25C88.9734,-31 82.9734,-37 76.9734,-37"/>
<polyline fill="none" stroke="#2e3436" stroke-width="1.5" points="76.9734,-37 11.9734,-37 "/>
<path fill="none" stroke="#2e3436" stroke-width="1.5" d="M11.9734,-37C5.97345,-37 -0.0265542,-31 -0.0265542,-25"/>
<polyline fill="none" stroke="#2e3436" stroke-width="1.5" points="-0.0265542,-25 -0.0265542,-13 "/>
<path fill="none" stroke="#2e3436" stroke-width="1.5" d="M-0.0265542,-13C-0.0265542,-7 5.97345,-1 11.9734,-1"/>
<text text-anchor="start" x="7.97345" y="-16.8" font-family="FreeSans" font-size="8.00" fill="#1c2021">name = &#39;Group2&#39;</text>
</g>
<!-- N1&#45;&gt;N12 -->
<g id="edge2" class="edge"><title>N1&#45;&gt;N12</title>
<path fill="none" stroke="#2e3436" stroke-width="2" d="M145.95,-100.447C95.4247,-96.6528 21.2049,-87.4959 3.47345,-66 -3.02056,-58.1273 0.824493,-49.6808 8.27589,-42.1503"/>
<polygon fill="#2e3436" stroke="#2e3436" points="13.928,-37.1014 10.583,-44.6149 11.4644,-39.9725 8.66767,-42.4708 8.33457,-42.0979 8.00147,-41.725 10.7982,-39.2267 6.08617,-39.5808 13.928,-37.1014 13.928,-37.1014"/>
<text text-anchor="middle" x="24.9734" y="-58.8" font-family="FreeSans" font-size="8.00" fill="#2e3436">hasGroup</text>
</g>
<!-- N13 -->
<g id="node5" class="node"><title>N13</title>
<polygon fill="#ffffff" stroke="#ffffff" stroke-width="1.5" points="198.973,-1 255.973,-1 267.973,-13 267.973,-25 255.973,-37 198.973,-37 186.973,-25 186.973,-13 198.973,-1"/>
<path fill="#ffffff" stroke="#ffffff" stroke-width="1.5" d="M255.973,-1C261.973,-1 267.973,-7 267.973,-13"/>
<path fill="#ffffff" stroke="#ffffff" stroke-width="1.5" d="M267.973,-25C267.973,-31 261.973,-37 255.973,-37"/>
<path fill="#ffffff" stroke="#ffffff" stroke-width="1.5" d="M198.973,-37C192.973,-37 186.973,-31 186.973,-25"/>
<path fill="#ffffff" stroke="#ffffff" stroke-width="1.5" d="M186.973,-13C186.973,-7 192.973,-1 198.973,-1"/>
<polyline fill="none" stroke="#2e3436" stroke-width="1.5" points="198.973,-1 255.973,-1 "/>
<path fill="none" stroke="#2e3436" stroke-width="1.5" d="M255.973,-1C261.973,-1 267.973,-7 267.973,-13"/>
<polyline fill="none" stroke="#2e3436" stroke-width="1.5" points="267.973,-13 267.973,-25 "/>
<path fill="none" stroke="#2e3436" stroke-width="1.5" d="M267.973,-25C267.973,-31 261.973,-37 255.973,-37"/>
<polyline fill="none" stroke="#2e3436" stroke-width="1.5" points="255.973,-37 198.973,-37 "/>
<path fill="none" stroke="#2e3436" stroke-width="1.5" d="M198.973,-37C192.973,-37 186.973,-31 186.973,-25"/>
<polyline fill="none" stroke="#2e3436" stroke-width="1.5" points="186.973,-25 186.973,-13 "/>
<path fill="none" stroke="#2e3436" stroke-width="1.5" d="M186.973,-13C186.973,-7 192.973,-1 198.973,-1"/>
<text text-anchor="start" x="194.973" y="-16.8" font-family="FreeSans" font-size="8.00" fill="#1c2021">name = &#39;Role3&#39;</text>
</g>
<!-- N1&#45;&gt;N13 -->
<g id="edge4" class="edge"><title>N1&#45;&gt;N13</title>
<path fill="none" stroke="#4e9a06" stroke-width="2" d="M166.825,-84.5731C157.803,-76.2037 151.471,-65.9623 157.473,-56 162.84,-47.0941 171.146,-40.2209 180.186,-34.9566"/>
<polygon fill="#4e9a06" stroke="#4e9a06" points="186.867,-31.4017 181.832,-37.9042 183.792,-33.6046 180.481,-35.3661 180.246,-34.9247 180.011,-34.4833 183.322,-32.7218 178.661,-31.9452 186.867,-31.4017 186.867,-31.4017"/>
<text text-anchor="middle" x="174.473" y="-58.8" font-family="FreeSans" font-size="8.00" fill="#4e9a06">hasRole</text>
</g>
<!-- N7 -->
<g id="node7" class="node"><title>N7</title>
<polygon fill="#ffffff" stroke="#ffffff" stroke-width="1.5" points="355.973,-1 412.973,-1 424.973,-13 424.973,-25 412.973,-37 355.973,-37 343.973,-25 343.973,-13 355.973,-1"/>
<path fill="#ffffff" stroke="#ffffff" stroke-width="1.5" d="M412.973,-1C418.973,-1 424.973,-7 424.973,-13"/>
<path fill="#ffffff" stroke="#ffffff" stroke-width="1.5" d="M424.973,-25C424.973,-31 418.973,-37 412.973,-37"/>
<path fill="#ffffff" stroke="#ffffff" stroke-width="1.5" d="M355.973,-37C349.973,-37 343.973,-31 343.973,-25"/>
<path fill="#ffffff" stroke="#ffffff" stroke-width="1.5" d="M343.973,-13C343.973,-7 349.973,-1 355.973,-1"/>
<polyline fill="none" stroke="#2e3436" stroke-width="1.5" points="355.973,-1 412.973,-1 "/>
<path fill="none" stroke="#2e3436" stroke-width="1.5" d="M412.973,-1C418.973,-1 424.973,-7 424.973,-13"/>
<polyline fill="none" stroke="#2e3436" stroke-width="1.5" points="424.973,-13 424.973,-25 "/>
<path fill="none" stroke="#2e3436" stroke-width="1.5" d="M424.973,-25C424.973,-31 418.973,-37 412.973,-37"/>
<polyline fill="none" stroke="#2e3436" stroke-width="1.5" points="412.973,-37 355.973,-37 "/>
<path fill="none" stroke="#2e3436" stroke-width="1.5" d="M355.973,-37C349.973,-37 343.973,-31 343.973,-25"/>
<polyline fill="none" stroke="#2e3436" stroke-width="1.5" points="343.973,-25 343.973,-13 "/>
<path fill="none" stroke="#2e3436" stroke-width="1.5" d="M343.973,-13C343.973,-7 349.973,-1 355.973,-1"/>
<text text-anchor="start" x="351.973" y="-16.8" font-family="FreeSans" font-size="8.00" fill="#1c2021">name = &#39;Role4&#39;</text>
</g>
<!-- N1&#45;&gt;N7 -->
<g id="edge6" class="edge"><title>N1&#45;&gt;N7</title>
<path fill="none" stroke="#4e9a06" stroke-width="2" d="M243.034,-90.3351C280.431,-80.4941 326.427,-68.1629 330.473,-66 341.803,-59.9439 352.786,-51.1165 361.856,-42.7428"/>
<polygon fill="#4e9a06" stroke="#4e9a06" points="367.525,-37.3393 364.425,-44.9571 365.156,-40.2887 362.441,-42.8761 362.096,-42.5142 361.751,-42.1523 364.466,-39.5648 359.767,-40.0713 367.525,-37.3393 367.525,-37.3393"/>
<text text-anchor="middle" x="361.473" y="-58.8" font-family="FreeSans" font-size="8.00" fill="#4e9a06">hasRole</text>
</g>
<!-- N2 -->
<g id="node8" class="node"><title>N2</title>
<polygon fill="#ffffff" stroke="#ffffff" stroke-width="1.5" points="423.973,-85 496.973,-85 508.973,-97 508.973,-109 496.973,-121 423.973,-121 411.973,-109 411.973,-97 423.973,-85"/>
<path fill="#ffffff" stroke="#ffffff" stroke-width="1.5" d="M496.973,-85C502.973,-85 508.973,-91 508.973,-97"/>
<path fill="#ffffff" stroke="#ffffff" stroke-width="1.5" d="M508.973,-109C508.973,-115 502.973,-121 496.973,-121"/>
<path fill="#ffffff" stroke="#ffffff" stroke-width="1.5" d="M423.973,-121C417.973,-121 411.973,-115 411.973,-109"/>
<path fill="#ffffff" stroke="#ffffff" stroke-width="1.5" d="M411.973,-97C411.973,-91 417.973,-85 423.973,-85"/>
<polyline fill="none" stroke="#2e3436" stroke-width="1.5" points="423.973,-85 496.973,-85 "/>
<path fill="none" stroke="#2e3436" stroke-width="1.5" d="M496.973,-85C502.973,-85 508.973,-91 508.973,-97"/>
<polyline fill="none" stroke="#2e3436" stroke-width="1.5" points="508.973,-97 508.973,-109 "/>
<path fill="none" stroke="#2e3436" stroke-width="1.5" d="M508.973,-109C508.973,-115 502.973,-121 496.973,-121"/>
<polyline fill="none" stroke="#2e3436" stroke-width="1.5" points="496.973,-121 423.973,-121 "/>
<path fill="none" stroke="#2e3436" stroke-width="1.5" d="M423.973,-121C417.973,-121 411.973,-115 411.973,-109"/>
<polyline fill="none" stroke="#2e3436" stroke-width="1.5" points="411.973,-109 411.973,-97 "/>
<path fill="none" stroke="#2e3436" stroke-width="1.5" d="M411.973,-97C411.973,-91 417.973,-85 423.973,-85"/>
<text text-anchor="start" x="419.973" y="-100.8" font-family="FreeSans" font-size="8.00" fill="#1c2021">name = &#39;U1G3R34&#39;</text>
</g>
<!-- N2&#45;&gt;N13 -->
<g id="edge10" class="edge"><title>N2&#45;&gt;N13</title>
<path fill="none" stroke="#4e9a06" stroke-width="2" d="M411.958,-88.5951C405.762,-86.9463 399.486,-85.3688 393.473,-84 347.734,-73.5867 332.495,-84.699 289.473,-66 276.115,-60.1939 263.01,-50.9397 252.314,-42.1725"/>
<polygon fill="#4e9a06" stroke="#4e9a06" points="246.312,-37.0965 254.218,-39.3623 249.498,-39.1361 252.361,-41.5576 252.039,-41.9394 251.716,-42.3212 248.852,-39.8997 249.859,-44.5165 246.312,-37.0965 246.312,-37.0965"/>
<text text-anchor="middle" x="306.473" y="-58.8" font-family="FreeSans" font-size="8.00" fill="#4e9a06">hasRole</text>
</g>
<!-- N2&#45;&gt;N7 -->
<g id="edge12" class="edge"><title>N2&#45;&gt;N7</title>
<path fill="none" stroke="#4e9a06" stroke-width="2" d="M443.983,-84.7733C432.928,-72.5549 418.252,-56.3342 406.241,-43.0586"/>
<polygon fill="#4e9a06" stroke="#4e9a06" points="400.932,-37.1912 408.467,-40.4884 403.819,-39.6365 406.335,-42.4173 405.964,-42.7527 405.593,-43.0882 403.077,-40.3074 403.461,-45.0171 400.932,-37.1912 400.932,-37.1912"/>
<text text-anchor="middle" x="441.473" y="-58.8" font-family="FreeSans" font-size="8.00" fill="#4e9a06">hasRole</text>
</g>
<!-- N14 -->
<g id="node10" class="node"><title>N14</title>
<polygon fill="#ffffff" stroke="#ffffff" stroke-width="1.5" points="486.973,-1 551.973,-1 563.973,-13 563.973,-25 551.973,-37 486.973,-37 474.973,-25 474.973,-13 486.973,-1"/>
<path fill="#ffffff" stroke="#ffffff" stroke-width="1.5" d="M551.973,-1C557.973,-1 563.973,-7 563.973,-13"/>
<path fill="#ffffff" stroke="#ffffff" stroke-width="1.5" d="M563.973,-25C563.973,-31 557.973,-37 551.973,-37"/>
<path fill="#ffffff" stroke="#ffffff" stroke-width="1.5" d="M486.973,-37C480.973,-37 474.973,-31 474.973,-25"/>
<path fill="#ffffff" stroke="#ffffff" stroke-width="1.5" d="M474.973,-13C474.973,-7 480.973,-1 486.973,-1"/>
<polyline fill="none" stroke="#2e3436" stroke-width="1.5" points="486.973,-1 551.973,-1 "/>
<path fill="none" stroke="#2e3436" stroke-width="1.5" d="M551.973,-1C557.973,-1 563.973,-7 563.973,-13"/>
<polyline fill="none" stroke="#2e3436" stroke-width="1.5" points="563.973,-13 563.973,-25 "/>
<path fill="none" stroke="#2e3436" stroke-width="1.5" d="M563.973,-25C563.973,-31 557.973,-37 551.973,-37"/>
<polyline fill="none" stroke="#2e3436" stroke-width="1.5" points="551.973,-37 486.973,-37 "/>
<path fill="none" stroke="#2e3436" stroke-width="1.5" d="M486.973,-37C480.973,-37 474.973,-31 474.973,-25"/>
<polyline fill="none" stroke="#2e3436" stroke-width="1.5" points="474.973,-25 474.973,-13 "/>
<path fill="none" stroke="#2e3436" stroke-width="1.5" d="M474.973,-13C474.973,-7 480.973,-1 486.973,-1"/>
<text text-anchor="start" x="482.973" y="-16.8" font-family="FreeSans" font-size="8.00" fill="#1c2021">name = &#39;Group3&#39;</text>
</g>
<!-- N2&#45;&gt;N14 -->
<g id="edge8" class="edge"><title>N2&#45;&gt;N14</title>
<path fill="none" stroke="#2e3436" stroke-width="2" d="M473.276,-84.7733C481.78,-72.665 493.046,-56.6261 502.323,-43.4181"/>
<polygon fill="#2e3436" stroke="#2e3436" points="506.696,-37.1912 505.147,-45.2684 504.95,-40.5473 502.795,-43.6159 502.385,-43.3286 501.976,-43.0412 504.132,-39.9725 499.624,-41.3887 506.696,-37.1912 506.696,-37.1912"/>
<text text-anchor="middle" x="512.973" y="-58.8" font-family="FreeSans" font-size="8.00" fill="#2e3436">hasGroup</text>
</g>
<!-- N3 -->
<g id="node13" class="node"><title>N3</title>
<polygon fill="#ffffff" stroke="#ffffff" stroke-width="1.5" points="451.973,-169 510.973,-169 522.973,-181 522.973,-193 510.973,-205 451.973,-205 439.973,-193 439.973,-181 451.973,-169"/>
<path fill="#ffffff" stroke="#ffffff" stroke-width="1.5" d="M510.973,-169C516.973,-169 522.973,-175 522.973,-181"/>
<path fill="#ffffff" stroke="#ffffff" stroke-width="1.5" d="M522.973,-193C522.973,-199 516.973,-205 510.973,-205"/>
<path fill="#ffffff" stroke="#ffffff" stroke-width="1.5" d="M451.973,-205C445.973,-205 439.973,-199 439.973,-193"/>
<path fill="#ffffff" stroke="#ffffff" stroke-width="1.5" d="M439.973,-181C439.973,-175 445.973,-169 451.973,-169"/>
<polyline fill="none" stroke="#2e3436" stroke-width="1.5" points="451.973,-169 510.973,-169 "/>
<path fill="none" stroke="#2e3436" stroke-width="1.5" d="M510.973,-169C516.973,-169 522.973,-175 522.973,-181"/>
<polyline fill="none" stroke="#2e3436" stroke-width="1.5" points="522.973,-181 522.973,-193 "/>
<path fill="none" stroke="#2e3436" stroke-width="1.5" d="M522.973,-193C522.973,-199 516.973,-205 510.973,-205"/>
<polyline fill="none" stroke="#2e3436" stroke-width="1.5" points="510.973,-205 451.973,-205 "/>
<path fill="none" stroke="#2e3436" stroke-width="1.5" d="M451.973,-205C445.973,-205 439.973,-199 439.973,-193"/>
<polyline fill="none" stroke="#2e3436" stroke-width="1.5" points="439.973,-193 439.973,-181 "/>
<path fill="none" stroke="#2e3436" stroke-width="1.5" d="M439.973,-181C439.973,-175 445.973,-169 451.973,-169"/>
<text text-anchor="start" x="447.973" y="-184.8" font-family="FreeSans" font-size="8.00" fill="#1c2021">name = &#39;User2&#39;</text>
</g>
<!-- N3&#45;&gt;N1 -->
<g id="edge16" class="edge"><title>N3&#45;&gt;N1</title>
<path fill="none" stroke="#a40000" stroke-width="2" d="M439.659,-179.818C405.156,-173.423 355.119,-163.065 312.473,-150 288.89,-142.775 263.388,-132.89 242.146,-124.05"/>
<polygon fill="#a40000" stroke="#a40000" points="235.114,-121.098 243.336,-120.89 238.765,-122.089 242.223,-123.54 242.029,-124.001 241.836,-124.463 238.378,-123.011 240.723,-127.113 235.114,-121.098 235.114,-121.098"/>
<text text-anchor="middle" x="346.473" y="-142.8" font-family="FreeSans" font-size="8.00" fill="#a40000">hasRoleInGroup</text>
</g>
<!-- N9 -->
<g id="node15" class="node"><title>N9</title>
<polygon fill="#ffffff" stroke="#ffffff" stroke-width="1.5" points="820.973,-85 893.973,-85 905.973,-97 905.973,-109 893.973,-121 820.973,-121 808.973,-109 808.973,-97 820.973,-85"/>
<path fill="#ffffff" stroke="#ffffff" stroke-width="1.5" d="M893.973,-85C899.973,-85 905.973,-91 905.973,-97"/>
<path fill="#ffffff" stroke="#ffffff" stroke-width="1.5" d="M905.973,-109C905.973,-115 899.973,-121 893.973,-121"/>
<path fill="#ffffff" stroke="#ffffff" stroke-width="1.5" d="M820.973,-121C814.973,-121 808.973,-115 808.973,-109"/>
<path fill="#ffffff" stroke="#ffffff" stroke-width="1.5" d="M808.973,-97C808.973,-91 814.973,-85 820.973,-85"/>
<polyline fill="none" stroke="#2e3436" stroke-width="1.5" points="820.973,-85 893.973,-85 "/>
<path fill="none" stroke="#2e3436" stroke-width="1.5" d="M893.973,-85C899.973,-85 905.973,-91 905.973,-97"/>
<polyline fill="none" stroke="#2e3436" stroke-width="1.5" points="905.973,-97 905.973,-109 "/>
<path fill="none" stroke="#2e3436" stroke-width="1.5" d="M905.973,-109C905.973,-115 899.973,-121 893.973,-121"/>
<polyline fill="none" stroke="#2e3436" stroke-width="1.5" points="893.973,-121 820.973,-121 "/>
<path fill="none" stroke="#2e3436" stroke-width="1.5" d="M820.973,-121C814.973,-121 808.973,-115 808.973,-109"/>
<polyline fill="none" stroke="#2e3436" stroke-width="1.5" points="808.973,-109 808.973,-97 "/>
<path fill="none" stroke="#2e3436" stroke-width="1.5" d="M808.973,-97C808.973,-91 814.973,-85 820.973,-85"/>
<text text-anchor="start" x="816.973" y="-100.8" font-family="FreeSans" font-size="8.00" fill="#1c2021">name = &#39;U2G1R25&#39;</text>
</g>
<!-- N3&#45;&gt;N9 -->
<g id="edge14" class="edge"><title>N3&#45;&gt;N9</title>
<path fill="none" stroke="#a40000" stroke-width="2" d="M523.136,-171.997C527.936,-170.527 532.789,-169.156 537.473,-168 587.275,-155.715 601.107,-159.711 651.473,-150 702.507,-140.161 760.15,-126.817 801.455,-116.861"/>
<polygon fill="#a40000" stroke="#a40000" points="808.972,-115.043 802.475,-120.086 805.444,-116.41 801.799,-117.292 801.682,-116.806 801.564,-116.32 805.209,-115.438 800.889,-113.525 808.972,-115.043 808.972,-115.043"/>
<text text-anchor="middle" x="730.473" y="-142.8" font-family="FreeSans" font-size="8.00" fill="#a40000">hasRoleInGroup</text>
</g>
<!-- N17 -->
<g id="node18" class="node"><title>N17</title>
<polygon fill="#ffffff" stroke="#ffffff" stroke-width="1.5" points="577.973,-85 650.973,-85 662.973,-97 662.973,-109 650.973,-121 577.973,-121 565.973,-109 565.973,-97 577.973,-85"/>
<path fill="#ffffff" stroke="#ffffff" stroke-width="1.5" d="M650.973,-85C656.973,-85 662.973,-91 662.973,-97"/>
<path fill="#ffffff" stroke="#ffffff" stroke-width="1.5" d="M662.973,-109C662.973,-115 656.973,-121 650.973,-121"/>
<path fill="#ffffff" stroke="#ffffff" stroke-width="1.5" d="M577.973,-121C571.973,-121 565.973,-115 565.973,-109"/>
<path fill="#ffffff" stroke="#ffffff" stroke-width="1.5" d="M565.973,-97C565.973,-91 571.973,-85 577.973,-85"/>
<polyline fill="none" stroke="#2e3436" stroke-width="1.5" points="577.973,-85 650.973,-85 "/>
<path fill="none" stroke="#2e3436" stroke-width="1.5" d="M650.973,-85C656.973,-85 662.973,-91 662.973,-97"/>
<polyline fill="none" stroke="#2e3436" stroke-width="1.5" points="662.973,-97 662.973,-109 "/>
<path fill="none" stroke="#2e3436" stroke-width="1.5" d="M662.973,-109C662.973,-115 656.973,-121 650.973,-121"/>
<polyline fill="none" stroke="#2e3436" stroke-width="1.5" points="650.973,-121 577.973,-121 "/>
<path fill="none" stroke="#2e3436" stroke-width="1.5" d="M577.973,-121C571.973,-121 565.973,-115 565.973,-109"/>
<polyline fill="none" stroke="#2e3436" stroke-width="1.5" points="565.973,-109 565.973,-97 "/>
<path fill="none" stroke="#2e3436" stroke-width="1.5" d="M565.973,-97C565.973,-91 571.973,-85 577.973,-85"/>
<text text-anchor="start" x="573.973" y="-100.8" font-family="FreeSans" font-size="8.00" fill="#1c2021">name = &#39;U2G3R56&#39;</text>
</g>
<!-- N3&#45;&gt;N17 -->
<g id="edge18" class="edge"><title>N3&#45;&gt;N17</title>
<path fill="none" stroke="#a40000" stroke-width="2" d="M523.137,-172.04C537.143,-166.143 552.495,-158.685 565.473,-150 575.344,-143.395 585.034,-134.71 593.158,-126.604"/>
<polygon fill="#a40000" stroke="#a40000" points="598.515,-121.117 595.69,-128.842 596.252,-124.15 593.633,-126.833 593.275,-126.484 592.917,-126.134 595.537,-123.451 590.86,-124.126 598.515,-121.117 598.515,-121.117"/>
<text text-anchor="middle" x="610.473" y="-142.8" font-family="FreeSans" font-size="8.00" fill="#a40000">hasRoleInGroup</text>
</g>
<!-- N11 -->
<g id="node28" class="node"><title>N11</title>
<polygon fill="#ffffff" stroke="#ffffff" stroke-width="1.5" points="896.973,-1 953.973,-1 965.973,-13 965.973,-25 953.973,-37 896.973,-37 884.973,-25 884.973,-13 896.973,-1"/>
<path fill="#ffffff" stroke="#ffffff" stroke-width="1.5" d="M953.973,-1C959.973,-1 965.973,-7 965.973,-13"/>
<path fill="#ffffff" stroke="#ffffff" stroke-width="1.5" d="M965.973,-25C965.973,-31 959.973,-37 953.973,-37"/>
<path fill="#ffffff" stroke="#ffffff" stroke-width="1.5" d="M896.973,-37C890.973,-37 884.973,-31 884.973,-25"/>
<path fill="#ffffff" stroke="#ffffff" stroke-width="1.5" d="M884.973,-13C884.973,-7 890.973,-1 896.973,-1"/>
<polyline fill="none" stroke="#2e3436" stroke-width="1.5" points="896.973,-1 953.973,-1 "/>
<path fill="none" stroke="#2e3436" stroke-width="1.5" d="M953.973,-1C959.973,-1 965.973,-7 965.973,-13"/>
<polyline fill="none" stroke="#2e3436" stroke-width="1.5" points="965.973,-13 965.973,-25 "/>
<path fill="none" stroke="#2e3436" stroke-width="1.5" d="M965.973,-25C965.973,-31 959.973,-37 953.973,-37"/>
<polyline fill="none" stroke="#2e3436" stroke-width="1.5" points="953.973,-37 896.973,-37 "/>
<path fill="none" stroke="#2e3436" stroke-width="1.5" d="M896.973,-37C890.973,-37 884.973,-31 884.973,-25"/>
<polyline fill="none" stroke="#2e3436" stroke-width="1.5" points="884.973,-25 884.973,-13 "/>
<path fill="none" stroke="#2e3436" stroke-width="1.5" d="M884.973,-13C884.973,-7 890.973,-1 896.973,-1"/>
<text text-anchor="start" x="892.973" y="-16.8" font-family="FreeSans" font-size="8.00" fill="#1c2021">name = &#39;Role2&#39;</text>
</g>
<!-- N9&#45;&gt;N11 -->
<g id="edge34" class="edge"><title>N9&#45;&gt;N11</title>
<path fill="none" stroke="#4e9a06" stroke-width="2" d="M875.826,-84.6581C881.36,-78.8509 887.327,-72.3004 892.473,-66 898.171,-59.0238 903.958,-51.1181 909.06,-43.8076"/>
<polygon fill="#4e9a06" stroke="#4e9a06" points="913.532,-37.305 912.063,-45.3973 911.819,-40.6783 909.694,-43.7682 909.282,-43.4849 908.87,-43.2016 910.995,-40.1116 906.501,-41.5725 913.532,-37.305 913.532,-37.305"/>
<text text-anchor="middle" x="916.473" y="-58.8" font-family="FreeSans" font-size="8.00" fill="#4e9a06">hasRole</text>
</g>
<!-- N8 -->
<g id="node30" class="node"><title>N8</title>
<polygon fill="#ffffff" stroke="#ffffff" stroke-width="1.5" points="747.973,-1 804.973,-1 816.973,-13 816.973,-25 804.973,-37 747.973,-37 735.973,-25 735.973,-13 747.973,-1"/>
<path fill="#ffffff" stroke="#ffffff" stroke-width="1.5" d="M804.973,-1C810.973,-1 816.973,-7 816.973,-13"/>
<path fill="#ffffff" stroke="#ffffff" stroke-width="1.5" d="M816.973,-25C816.973,-31 810.973,-37 804.973,-37"/>
<path fill="#ffffff" stroke="#ffffff" stroke-width="1.5" d="M747.973,-37C741.973,-37 735.973,-31 735.973,-25"/>
<path fill="#ffffff" stroke="#ffffff" stroke-width="1.5" d="M735.973,-13C735.973,-7 741.973,-1 747.973,-1"/>
<polyline fill="none" stroke="#2e3436" stroke-width="1.5" points="747.973,-1 804.973,-1 "/>
<path fill="none" stroke="#2e3436" stroke-width="1.5" d="M804.973,-1C810.973,-1 816.973,-7 816.973,-13"/>
<polyline fill="none" stroke="#2e3436" stroke-width="1.5" points="816.973,-13 816.973,-25 "/>
<path fill="none" stroke="#2e3436" stroke-width="1.5" d="M816.973,-25C816.973,-31 810.973,-37 804.973,-37"/>
<polyline fill="none" stroke="#2e3436" stroke-width="1.5" points="804.973,-37 747.973,-37 "/>
<path fill="none" stroke="#2e3436" stroke-width="1.5" d="M747.973,-37C741.973,-37 735.973,-31 735.973,-25"/>
<polyline fill="none" stroke="#2e3436" stroke-width="1.5" points="735.973,-25 735.973,-13 "/>
<path fill="none" stroke="#2e3436" stroke-width="1.5" d="M735.973,-13C735.973,-7 741.973,-1 747.973,-1"/>
<text text-anchor="start" x="743.973" y="-16.8" font-family="FreeSans" font-size="8.00" fill="#1c2021">name = &#39;Role5&#39;</text>
</g>
<!-- N9&#45;&gt;N8 -->
<g id="edge36" class="edge"><title>N9&#45;&gt;N8</title>
<path fill="none" stroke="#4e9a06" stroke-width="2" d="M809.622,-84.8505C801.249,-79.836 793.352,-73.6178 787.473,-66 782.811,-59.9584 780.074,-52.268 778.482,-44.8662"/>
<polygon fill="#4e9a06" stroke="#4e9a06" points="777.168,-37.0394 781.738,-43.8767 778.282,-40.6548 778.903,-44.353 778.41,-44.4358 777.917,-44.5187 777.296,-40.8205 775.082,-44.9949 777.168,-37.0394 777.168,-37.0394"/>
<text text-anchor="middle" x="804.473" y="-58.8" font-family="FreeSans" font-size="8.00" fill="#4e9a06">hasRole</text>
</g>
<!-- N10 -->
<g id="node32" class="node"><title>N10</title>
<polygon fill="#ffffff" stroke="#ffffff" stroke-width="1.5" points="1048.97,-1 1113.97,-1 1125.97,-13 1125.97,-25 1113.97,-37 1048.97,-37 1036.97,-25 1036.97,-13 1048.97,-1"/>
<path fill="#ffffff" stroke="#ffffff" stroke-width="1.5" d="M1113.97,-1C1119.97,-1 1125.97,-7 1125.97,-13"/>
<path fill="#ffffff" stroke="#ffffff" stroke-width="1.5" d="M1125.97,-25C1125.97,-31 1119.97,-37 1113.97,-37"/>
<path fill="#ffffff" stroke="#ffffff" stroke-width="1.5" d="M1048.97,-37C1042.97,-37 1036.97,-31 1036.97,-25"/>
<path fill="#ffffff" stroke="#ffffff" stroke-width="1.5" d="M1036.97,-13C1036.97,-7 1042.97,-1 1048.97,-1"/>
<polyline fill="none" stroke="#2e3436" stroke-width="1.5" points="1048.97,-1 1113.97,-1 "/>
<path fill="none" stroke="#2e3436" stroke-width="1.5" d="M1113.97,-1C1119.97,-1 1125.97,-7 1125.97,-13"/>
<polyline fill="none" stroke="#2e3436" stroke-width="1.5" points="1125.97,-13 1125.97,-25 "/>
<path fill="none" stroke="#2e3436" stroke-width="1.5" d="M1125.97,-25C1125.97,-31 1119.97,-37 1113.97,-37"/>
<polyline fill="none" stroke="#2e3436" stroke-width="1.5" points="1113.97,-37 1048.97,-37 "/>
<path fill="none" stroke="#2e3436" stroke-width="1.5" d="M1048.97,-37C1042.97,-37 1036.97,-31 1036.97,-25"/>
<polyline fill="none" stroke="#2e3436" stroke-width="1.5" points="1036.97,-25 1036.97,-13 "/>
<path fill="none" stroke="#2e3436" stroke-width="1.5" d="M1036.97,-13C1036.97,-7 1042.97,-1 1048.97,-1"/>
<text text-anchor="start" x="1044.97" y="-16.8" font-family="FreeSans" font-size="8.00" fill="#1c2021">name = &#39;Group1&#39;</text>
</g>
<!-- N9&#45;&gt;N10 -->
<g id="edge32" class="edge"><title>N9&#45;&gt;N10</title>
<path fill="none" stroke="#2e3436" stroke-width="2" d="M906.116,-99.1274C941.599,-94.7567 990.004,-85.5061 1028.47,-66 1039.99,-60.1601 1050.98,-51.204 1059.93,-42.6704"/>
<polygon fill="#2e3436" stroke="#2e3436" points="1065.5,-37.1607 1062.54,-44.8333 1063.19,-40.1524 1060.52,-42.7885 1060.17,-42.4329 1059.82,-42.0772 1062.48,-39.4411 1057.8,-40.0324 1065.5,-37.1607 1065.5,-37.1607"/>
<text text-anchor="middle" x="1063.97" y="-58.8" font-family="FreeSans" font-size="8.00" fill="#2e3436">hasGroup</text>
</g>
<!-- N17&#45;&gt;N14 -->
<g id="edge44" class="edge"><title>N17&#45;&gt;N14</title>
<path fill="none" stroke="#2e3436" stroke-width="2" d="M593.86,-84.7733C579.793,-72.3348 561.034,-55.7484 545.874,-42.3439"/>
<polygon fill="#2e3436" stroke="#2e3436" points="540.047,-37.1912 547.901,-39.6309 543.187,-39.3006 545.997,-41.7847 545.665,-42.1592 545.334,-42.5338 542.525,-40.0498 543.43,-44.6876 540.047,-37.1912 540.047,-37.1912"/>
<text text-anchor="middle" x="590.973" y="-58.8" font-family="FreeSans" font-size="8.00" fill="#2e3436">hasGroup</text>
</g>
<!-- N5 -->
<g id="node25" class="node"><title>N5</title>
<polygon fill="#ffffff" stroke="#ffffff" stroke-width="1.5" points="624.973,-1 681.973,-1 693.973,-13 693.973,-25 681.973,-37 624.973,-37 612.973,-25 612.973,-13 624.973,-1"/>
<path fill="#ffffff" stroke="#ffffff" stroke-width="1.5" d="M681.973,-1C687.973,-1 693.973,-7 693.973,-13"/>
<path fill="#ffffff" stroke="#ffffff" stroke-width="1.5" d="M693.973,-25C693.973,-31 687.973,-37 681.973,-37"/>
<path fill="#ffffff" stroke="#ffffff" stroke-width="1.5" d="M624.973,-37C618.973,-37 612.973,-31 612.973,-25"/>
<path fill="#ffffff" stroke="#ffffff" stroke-width="1.5" d="M612.973,-13C612.973,-7 618.973,-1 624.973,-1"/>
<polyline fill="none" stroke="#2e3436" stroke-width="1.5" points="624.973,-1 681.973,-1 "/>
<path fill="none" stroke="#2e3436" stroke-width="1.5" d="M681.973,-1C687.973,-1 693.973,-7 693.973,-13"/>
<polyline fill="none" stroke="#2e3436" stroke-width="1.5" points="693.973,-13 693.973,-25 "/>
<path fill="none" stroke="#2e3436" stroke-width="1.5" d="M693.973,-25C693.973,-31 687.973,-37 681.973,-37"/>
<polyline fill="none" stroke="#2e3436" stroke-width="1.5" points="681.973,-37 624.973,-37 "/>
<path fill="none" stroke="#2e3436" stroke-width="1.5" d="M624.973,-37C618.973,-37 612.973,-31 612.973,-25"/>
<polyline fill="none" stroke="#2e3436" stroke-width="1.5" points="612.973,-25 612.973,-13 "/>
<path fill="none" stroke="#2e3436" stroke-width="1.5" d="M612.973,-13C612.973,-7 618.973,-1 624.973,-1"/>
<text text-anchor="start" x="620.973" y="-16.8" font-family="FreeSans" font-size="8.00" fill="#1c2021">name = &#39;Role6&#39;</text>
</g>
<!-- N17&#45;&gt;N5 -->
<g id="edge48" class="edge"><title>N17&#45;&gt;N5</title>
<path fill="none" stroke="#4e9a06" stroke-width="2" d="M622.936,-84.7733C628.455,-72.8851 635.734,-57.2081 641.801,-44.1413"/>
<polygon fill="#4e9a06" stroke="#4e9a06" points="645.028,-37.1912 644.93,-45.415 643.902,-40.803 642.323,-44.2043 641.869,-43.9938 641.416,-43.7832 642.995,-40.3819 638.808,-42.5725 645.028,-37.1912 645.028,-37.1912"/>
<text text-anchor="middle" x="651.473" y="-58.8" font-family="FreeSans" font-size="8.00" fill="#4e9a06">hasRole</text>
</g>
<!-- N17&#45;&gt;N8 -->
<g id="edge46" class="edge"><title>N17&#45;&gt;N8</title>
<path fill="none" stroke="#4e9a06" stroke-width="2" d="M649.227,-84.9799C674.232,-72.0139 708.081,-54.4625 734.582,-40.7215"/>
<polygon fill="#4e9a06" stroke="#4e9a06" points="741.499,-37.135 736.394,-43.5836 738.4,-39.3051 735.071,-41.0313 734.841,-40.5875 734.61,-40.1436 737.939,-38.4174 733.287,-37.5913 741.499,-37.135 741.499,-37.135"/>
<text text-anchor="middle" x="716.473" y="-58.8" font-family="FreeSans" font-size="8.00" fill="#4e9a06">hasRole</text>
</g>
<!-- N4 -->
<g id="node19" class="node"><title>N4</title>
<polygon fill="#ffffff" stroke="#ffffff" stroke-width="1.5" points="562.973,-169 621.973,-169 633.973,-181 633.973,-193 621.973,-205 562.973,-205 550.973,-193 550.973,-181 562.973,-169"/>
<path fill="#ffffff" stroke="#ffffff" stroke-width="1.5" d="M621.973,-169C627.973,-169 633.973,-175 633.973,-181"/>
<path fill="#ffffff" stroke="#ffffff" stroke-width="1.5" d="M633.973,-193C633.973,-199 627.973,-205 621.973,-205"/>
<path fill="#ffffff" stroke="#ffffff" stroke-width="1.5" d="M562.973,-205C556.973,-205 550.973,-199 550.973,-193"/>
<path fill="#ffffff" stroke="#ffffff" stroke-width="1.5" d="M550.973,-181C550.973,-175 556.973,-169 562.973,-169"/>
<polyline fill="none" stroke="#2e3436" stroke-width="1.5" points="562.973,-169 621.973,-169 "/>
<path fill="none" stroke="#2e3436" stroke-width="1.5" d="M621.973,-169C627.973,-169 633.973,-175 633.973,-181"/>
<polyline fill="none" stroke="#2e3436" stroke-width="1.5" points="633.973,-181 633.973,-193 "/>
<path fill="none" stroke="#2e3436" stroke-width="1.5" d="M633.973,-193C633.973,-199 627.973,-205 621.973,-205"/>
<polyline fill="none" stroke="#2e3436" stroke-width="1.5" points="621.973,-205 562.973,-205 "/>
<path fill="none" stroke="#2e3436" stroke-width="1.5" d="M562.973,-205C556.973,-205 550.973,-199 550.973,-193"/>
<polyline fill="none" stroke="#2e3436" stroke-width="1.5" points="550.973,-193 550.973,-181 "/>
<path fill="none" stroke="#2e3436" stroke-width="1.5" d="M550.973,-181C550.973,-175 556.973,-169 562.973,-169"/>
<text text-anchor="start" x="558.973" y="-184.8" font-family="FreeSans" font-size="8.00" fill="#1c2021">name = &#39;User1&#39;</text>
</g>
<!-- N4&#45;&gt;N2 -->
<g id="edge24" class="edge"><title>N4&#45;&gt;N2</title>
<path fill="none" stroke="#a40000" stroke-width="2" d="M550.757,-172.515C526.336,-163.814 499.349,-153.728 494.473,-150 486.598,-143.979 479.752,-135.639 474.308,-127.654"/>
<polygon fill="#a40000" stroke="#a40000" points="470.073,-121.088 476.975,-125.561 472.526,-123.968 474.559,-127.12 474.139,-127.391 473.719,-127.662 471.686,-124.51 471.303,-129.22 470.073,-121.088 470.073,-121.088"/>
<text text-anchor="middle" x="528.473" y="-142.8" font-family="FreeSans" font-size="8.00" fill="#a40000">hasRoleInGroup</text>
</g>
<!-- N15 -->
<g id="node21" class="node"><title>N15</title>
<polygon fill="#ffffff" stroke="#ffffff" stroke-width="1.5" points="1028.97,-85 1101.97,-85 1113.97,-97 1113.97,-109 1101.97,-121 1028.97,-121 1016.97,-109 1016.97,-97 1028.97,-85"/>
<path fill="#ffffff" stroke="#ffffff" stroke-width="1.5" d="M1101.97,-85C1107.97,-85 1113.97,-91 1113.97,-97"/>
<path fill="#ffffff" stroke="#ffffff" stroke-width="1.5" d="M1113.97,-109C1113.97,-115 1107.97,-121 1101.97,-121"/>
<path fill="#ffffff" stroke="#ffffff" stroke-width="1.5" d="M1028.97,-121C1022.97,-121 1016.97,-115 1016.97,-109"/>
<path fill="#ffffff" stroke="#ffffff" stroke-width="1.5" d="M1016.97,-97C1016.97,-91 1022.97,-85 1028.97,-85"/>
<polyline fill="none" stroke="#2e3436" stroke-width="1.5" points="1028.97,-85 1101.97,-85 "/>
<path fill="none" stroke="#2e3436" stroke-width="1.5" d="M1101.97,-85C1107.97,-85 1113.97,-91 1113.97,-97"/>
<polyline fill="none" stroke="#2e3436" stroke-width="1.5" points="1113.97,-97 1113.97,-109 "/>
<path fill="none" stroke="#2e3436" stroke-width="1.5" d="M1113.97,-109C1113.97,-115 1107.97,-121 1101.97,-121"/>
<polyline fill="none" stroke="#2e3436" stroke-width="1.5" points="1101.97,-121 1028.97,-121 "/>
<path fill="none" stroke="#2e3436" stroke-width="1.5" d="M1028.97,-121C1022.97,-121 1016.97,-115 1016.97,-109"/>
<polyline fill="none" stroke="#2e3436" stroke-width="1.5" points="1016.97,-109 1016.97,-97 "/>
<path fill="none" stroke="#2e3436" stroke-width="1.5" d="M1016.97,-97C1016.97,-91 1022.97,-85 1028.97,-85"/>
<text text-anchor="start" x="1024.97" y="-100.8" font-family="FreeSans" font-size="8.00" fill="#1c2021">name = &#39;U1G1R12&#39;</text>
</g>
<!-- N4&#45;&gt;N15 -->
<g id="edge20" class="edge"><title>N4&#45;&gt;N15</title>
<path fill="none" stroke="#a40000" stroke-width="2" d="M634.034,-179.619C719.086,-164.515 913.06,-130.067 1009.25,-112.985"/>
<polygon fill="#a40000" stroke="#a40000" points="1016.84,-111.636 1010.05,-116.271 1013.24,-112.784 1009.55,-113.44 1009.46,-112.948 1009.37,-112.455 1013.06,-111.8 1008.87,-109.625 1016.84,-111.636 1016.84,-111.636"/>
<text text-anchor="middle" x="876.473" y="-142.8" font-family="FreeSans" font-size="8.00" fill="#a40000">hasRoleInGroup</text>
</g>
<!-- N6 -->
<g id="node23" class="node"><title>N6</title>
<polygon fill="#ffffff" stroke="#ffffff" stroke-width="1.5" points="293.973,-85 366.973,-85 378.973,-97 378.973,-109 366.973,-121 293.973,-121 281.973,-109 281.973,-97 293.973,-85"/>
<path fill="#ffffff" stroke="#ffffff" stroke-width="1.5" d="M366.973,-85C372.973,-85 378.973,-91 378.973,-97"/>
<path fill="#ffffff" stroke="#ffffff" stroke-width="1.5" d="M378.973,-109C378.973,-115 372.973,-121 366.973,-121"/>
<path fill="#ffffff" stroke="#ffffff" stroke-width="1.5" d="M293.973,-121C287.973,-121 281.973,-115 281.973,-109"/>
<path fill="#ffffff" stroke="#ffffff" stroke-width="1.5" d="M281.973,-97C281.973,-91 287.973,-85 293.973,-85"/>
<polyline fill="none" stroke="#2e3436" stroke-width="1.5" points="293.973,-85 366.973,-85 "/>
<path fill="none" stroke="#2e3436" stroke-width="1.5" d="M366.973,-85C372.973,-85 378.973,-91 378.973,-97"/>
<polyline fill="none" stroke="#2e3436" stroke-width="1.5" points="378.973,-97 378.973,-109 "/>
<path fill="none" stroke="#2e3436" stroke-width="1.5" d="M378.973,-109C378.973,-115 372.973,-121 366.973,-121"/>
<polyline fill="none" stroke="#2e3436" stroke-width="1.5" points="366.973,-121 293.973,-121 "/>
<path fill="none" stroke="#2e3436" stroke-width="1.5" d="M293.973,-121C287.973,-121 281.973,-115 281.973,-109"/>
<polyline fill="none" stroke="#2e3436" stroke-width="1.5" points="281.973,-109 281.973,-97 "/>
<path fill="none" stroke="#2e3436" stroke-width="1.5" d="M281.973,-97C281.973,-91 287.973,-85 293.973,-85"/>
<text text-anchor="start" x="289.973" y="-100.8" font-family="FreeSans" font-size="8.00" fill="#1c2021">name = &#39;U1G2R23&#39;</text>
</g>
<!-- N4&#45;&gt;N6 -->
<g id="edge22" class="edge"><title>N4&#45;&gt;N6</title>
<path fill="none" stroke="#a40000" stroke-width="2" d="M550.682,-171.626C546.257,-170.28 541.796,-169.038 537.473,-168 481.184,-154.486 463.039,-169.331 408.473,-150 391.953,-144.147 375.113,-134.55 361.329,-125.548"/>
<polygon fill="#a40000" stroke="#a40000" points="354.823,-121.196 362.933,-122.561 358.218,-122.866 361.335,-124.95 361.057,-125.366 360.779,-125.782 357.662,-123.697 359.18,-128.171 354.823,-121.196 354.823,-121.196"/>
<text text-anchor="middle" x="442.473" y="-142.8" font-family="FreeSans" font-size="8.00" fill="#a40000">hasRoleInGroup</text>
</g>
<!-- N15&#45;&gt;N11 -->
<g id="edge42" class="edge"><title>N15&#45;&gt;N11</title>
<path fill="none" stroke="#4e9a06" stroke-width="2" d="M1026.46,-84.9048C1014.99,-79.2103 1002.55,-72.66 991.473,-66 979.279,-58.6697 966.417,-49.7946 955.319,-41.7399"/>
<polygon fill="#4e9a06" stroke="#4e9a06" points="949.007,-37.1101 957.051,-38.8246 952.327,-38.9249 955.351,-41.1428 955.055,-41.546 954.759,-41.9492 951.735,-39.7312 953.059,-44.2674 949.007,-37.1101 949.007,-37.1101"/>
<text text-anchor="middle" x="1008.47" y="-58.8" font-family="FreeSans" font-size="8.00" fill="#4e9a06">hasRole</text>
</g>
<!-- N15&#45;&gt;N10 -->
<g id="edge38" class="edge"><title>N15&#45;&gt;N10</title>
<path fill="none" stroke="#2e3436" stroke-width="2" d="M1091.48,-84.807C1097.15,-79.4579 1102.37,-73.1074 1105.47,-66 1108.73,-58.5444 1106.84,-50.6052 1102.98,-43.4151"/>
<polygon fill="#2e3436" stroke="#2e3436" points="1098.98,-37.058 1105.83,-41.6032 1101.4,-39.9638 1103.4,-43.1362 1102.98,-43.4029 1102.55,-43.6695 1100.55,-40.4971 1100.12,-45.2025 1098.98,-37.058 1098.98,-37.058"/>
<text text-anchor="middle" x="1127.97" y="-58.8" font-family="FreeSans" font-size="8.00" fill="#2e3436">hasGroup</text>
</g>
<!-- N16 -->
<g id="node37" class="node"><title>N16</title>
<polygon fill="#ffffff" stroke="#ffffff" stroke-width="1.5" points="1186.97,-1 1243.97,-1 1255.97,-13 1255.97,-25 1243.97,-37 1186.97,-37 1174.97,-25 1174.97,-13 1186.97,-1"/>
<path fill="#ffffff" stroke="#ffffff" stroke-width="1.5" d="M1243.97,-1C1249.97,-1 1255.97,-7 1255.97,-13"/>
<path fill="#ffffff" stroke="#ffffff" stroke-width="1.5" d="M1255.97,-25C1255.97,-31 1249.97,-37 1243.97,-37"/>
<path fill="#ffffff" stroke="#ffffff" stroke-width="1.5" d="M1186.97,-37C1180.97,-37 1174.97,-31 1174.97,-25"/>
<path fill="#ffffff" stroke="#ffffff" stroke-width="1.5" d="M1174.97,-13C1174.97,-7 1180.97,-1 1186.97,-1"/>
<polyline fill="none" stroke="#2e3436" stroke-width="1.5" points="1186.97,-1 1243.97,-1 "/>
<path fill="none" stroke="#2e3436" stroke-width="1.5" d="M1243.97,-1C1249.97,-1 1255.97,-7 1255.97,-13"/>
<polyline fill="none" stroke="#2e3436" stroke-width="1.5" points="1255.97,-13 1255.97,-25 "/>
<path fill="none" stroke="#2e3436" stroke-width="1.5" d="M1255.97,-25C1255.97,-31 1249.97,-37 1243.97,-37"/>
<polyline fill="none" stroke="#2e3436" stroke-width="1.5" points="1243.97,-37 1186.97,-37 "/>
<path fill="none" stroke="#2e3436" stroke-width="1.5" d="M1186.97,-37C1180.97,-37 1174.97,-31 1174.97,-25"/>
<polyline fill="none" stroke="#2e3436" stroke-width="1.5" points="1174.97,-25 1174.97,-13 "/>
<path fill="none" stroke="#2e3436" stroke-width="1.5" d="M1174.97,-13C1174.97,-7 1180.97,-1 1186.97,-1"/>
<text text-anchor="start" x="1182.97" y="-16.8" font-family="FreeSans" font-size="8.00" fill="#1c2021">name = &#39;Role1&#39;</text>
</g>
<!-- N15&#45;&gt;N16 -->
<g id="edge40" class="edge"><title>N15&#45;&gt;N16</title>
<path fill="none" stroke="#4e9a06" stroke-width="2" d="M1114.4,-86.0931C1128.38,-80.4734 1143.37,-73.6657 1156.47,-66 1168.08,-59.2084 1179.87,-50.303 1189.83,-42.0724"/>
<polygon fill="#4e9a06" stroke="#4e9a06" points="1195.77,-37.0599 1192.21,-44.4747 1193.23,-39.8595 1190.36,-42.2768 1190.04,-41.8945 1189.71,-41.5123 1192.58,-39.0949 1187.86,-39.3143 1195.77,-37.0599 1195.77,-37.0599"/>
<text text-anchor="middle" x="1186.47" y="-58.8" font-family="FreeSans" font-size="8.00" fill="#4e9a06">hasRole</text>
</g>
<!-- N6&#45;&gt;N12 -->
<g id="edge26" class="edge"><title>N6&#45;&gt;N12</title>
<path fill="none" stroke="#2e3436" stroke-width="2" d="M281.718,-89.5065C273.34,-87.4682 264.687,-85.537 256.473,-84 190.04,-71.5686 168.047,-91.5433 105.473,-66 92.0225,-60.5091 78.9992,-51.2106 68.4643,-42.3266"/>
<polygon fill="#2e3436" stroke="#2e3436" points="62.5647,-37.1756 70.4341,-39.566 65.7184,-39.2653 68.5432,-41.7317 68.2143,-42.1084 67.8855,-42.485 65.0607,-40.0186 65.9946,-44.6507 62.5647,-37.1756 62.5647,-37.1756"/>
<text text-anchor="middle" x="126.973" y="-58.8" font-family="FreeSans" font-size="8.00" fill="#2e3436">hasGroup</text>
</g>
<!-- N6&#45;&gt;N13 -->
<g id="edge30" class="edge"><title>N6&#45;&gt;N13</title>
<path fill="none" stroke="#4e9a06" stroke-width="2" d="M281.898,-91.6752C257.852,-84.9845 232.481,-75.899 225.473,-66 221.176,-59.9298 220.189,-52.2311 220.701,-44.8306"/>
<polygon fill="#4e9a06" stroke="#4e9a06" points="221.76,-37.0084 224.099,-44.8931 221.752,-40.7915 221.25,-44.5077 220.754,-44.4407 220.259,-44.3736 220.761,-40.6575 217.41,-43.9882 221.76,-37.0084 221.76,-37.0084"/>
<text text-anchor="middle" x="242.473" y="-58.8" font-family="FreeSans" font-size="8.00" fill="#4e9a06">hasRole</text>
</g>
<!-- N6&#45;&gt;N11 -->
<g id="edge28" class="edge"><title>N6&#45;&gt;N11</title>
<path fill="none" stroke="#4e9a06" stroke-width="2" d="M379.204,-87.9361C385.635,-86.3758 392.178,-84.9988 398.473,-84 492.054,-69.1528 732.413,-88.42 824.473,-66 836.437,-63.0865 861.485,-51.4443 883.643,-40.4769"/>
<polygon fill="#4e9a06" stroke="#4e9a06" points="890.409,-37.1054 885.201,-43.4712 887.275,-39.2254 883.919,-40.898 883.696,-40.4504 883.473,-40.0029 886.829,-38.3304 882.191,-37.4297 890.409,-37.1054 890.409,-37.1054"/>
<text text-anchor="middle" x="865.473" y="-58.8" font-family="FreeSans" font-size="8.00" fill="#4e9a06">hasRole</text>
</g>
</g>
</svg>
