<?xml version="1.0" encoding="UTF-8" standalone="no"?>
<!DOCTYPE svg PUBLIC "-//W3C//DTD SVG 1.1//EN"
 "http://www.w3.org/Graphics/SVG/1.1/DTD/svg11.dtd">
<!-- Generated by graphviz version 2.26.3 (20100126.1600)
 -->
<!-- Title: g Pages: 1 -->
<svg width="408pt" height="214pt"
 viewBox="0.00 0.00 408.12 214.00" xmlns="http://www.w3.org/2000/svg" xmlns:xlink="http://www.w3.org/1999/xlink">
<g id="graph1" class="graph" transform="scale(1 1) rotate(0) translate(4 210)">
<title>g</title>
<polygon fill="white" stroke="white" points="-4,5 -4,-210 405.117,-210 405.117,5 -4,5"/>
<!-- N1 -->
<g id="node1" class="node"><title>N1</title>
<polygon fill="#ffffff" stroke="#ffffff" stroke-width="1.5" points="221.617,-85 268.617,-85 280.617,-97 280.617,-109 268.617,-121 221.617,-121 209.617,-109 209.617,-97 221.617,-85"/>
<path fill="#ffffff" stroke="#ffffff" stroke-width="1.5" d="M268.617,-85C274.617,-85 280.617,-91 280.617,-97"/>
<path fill="#ffffff" stroke="#ffffff" stroke-width="1.5" d="M280.617,-109C280.617,-115 274.617,-121 268.617,-121"/>
<path fill="#ffffff" stroke="#ffffff" stroke-width="1.5" d="M221.617,-121C215.617,-121 209.617,-115 209.617,-109"/>
<path fill="#ffffff" stroke="#ffffff" stroke-width="1.5" d="M209.617,-97C209.617,-91 215.617,-85 221.617,-85"/>
<polyline fill="none" stroke="#2e3436" stroke-width="1.5" points="221.617,-85 268.617,-85 "/>
<path fill="none" stroke="#2e3436" stroke-width="1.5" d="M268.617,-85C274.617,-85 280.617,-91 280.617,-97"/>
<polyline fill="none" stroke="#2e3436" stroke-width="1.5" points="280.617,-97 280.617,-109 "/>
<path fill="none" stroke="#2e3436" stroke-width="1.5" d="M280.617,-109C280.617,-115 274.617,-121 268.617,-121"/>
<polyline fill="none" stroke="#2e3436" stroke-width="1.5" points="268.617,-121 221.617,-121 "/>
<path fill="none" stroke="#2e3436" stroke-width="1.5" d="M221.617,-121C215.617,-121 209.617,-115 209.617,-109"/>
<polyline fill="none" stroke="#2e3436" stroke-width="1.5" points="209.617,-109 209.617,-97 "/>
<path fill="none" stroke="#2e3436" stroke-width="1.5" d="M209.617,-97C209.617,-91 215.617,-85 221.617,-85"/>
<text text-anchor="middle" x="245.117" y="-109.8" font-family="FreeSans" font-size="8.00" fill="#1c2021">Node[1]</text>
<polyline fill="none" stroke="#2e3436" stroke-width="1.5" points="209.617,-103 280.617,-103 "/>
<text text-anchor="start" x="217.617" y="-91.8" font-family="FreeSans" font-size="8.00" fill="#1c2021">name = &#39;Bill&#39;</text>
</g>
<!-- N2 -->
<g id="node3" class="node"><title>N2</title>
<polygon fill="#ffffff" stroke="#ffffff" stroke-width="1.5" points="155.617,-1 220.617,-1 232.617,-13 232.617,-25 220.617,-37 155.617,-37 143.617,-25 143.617,-13 155.617,-1"/>
<path fill="#ffffff" stroke="#ffffff" stroke-width="1.5" d="M220.617,-1C226.617,-1 232.617,-7 232.617,-13"/>
<path fill="#ffffff" stroke="#ffffff" stroke-width="1.5" d="M232.617,-25C232.617,-31 226.617,-37 220.617,-37"/>
<path fill="#ffffff" stroke="#ffffff" stroke-width="1.5" d="M155.617,-37C149.617,-37 143.617,-31 143.617,-25"/>
<path fill="#ffffff" stroke="#ffffff" stroke-width="1.5" d="M143.617,-13C143.617,-7 149.617,-1 155.617,-1"/>
<polyline fill="none" stroke="#2e3436" stroke-width="1.5" points="155.617,-1 220.617,-1 "/>
<path fill="none" stroke="#2e3436" stroke-width="1.5" d="M220.617,-1C226.617,-1 232.617,-7 232.617,-13"/>
<polyline fill="none" stroke="#2e3436" stroke-width="1.5" points="232.617,-13 232.617,-25 "/>
<path fill="none" stroke="#2e3436" stroke-width="1.5" d="M232.617,-25C232.617,-31 226.617,-37 220.617,-37"/>
<polyline fill="none" stroke="#2e3436" stroke-width="1.5" points="220.617,-37 155.617,-37 "/>
<path fill="none" stroke="#2e3436" stroke-width="1.5" d="M155.617,-37C149.617,-37 143.617,-31 143.617,-25"/>
<polyline fill="none" stroke="#2e3436" stroke-width="1.5" points="143.617,-25 143.617,-13 "/>
<path fill="none" stroke="#2e3436" stroke-width="1.5" d="M143.617,-13C143.617,-7 149.617,-1 155.617,-1"/>
<text text-anchor="middle" x="188.117" y="-25.8" font-family="FreeSans" font-size="8.00" fill="#1c2021">Node[2]</text>
<polyline fill="none" stroke="#2e3436" stroke-width="1.5" points="143.617,-19 232.617,-19 "/>
<text text-anchor="start" x="151.617" y="-7.8" font-family="FreeSans" font-size="8.00" fill="#1c2021">name = &#39;Group1&#39;</text>
</g>
<!-- N1&#45;&gt;N2 -->
<g id="edge2" class="edge"><title>N1&#45;&gt;N2</title>
<path fill="none" stroke="#2e3436" stroke-width="2" d="M232.749,-84.7733C224.533,-72.665 213.649,-56.6261 204.686,-43.4181"/>
<polygon fill="#2e3436" stroke="#2e3436" points="200.461,-37.1912 207.465,-41.5022 202.98,-40.0135 205.086,-43.1165 204.672,-43.3973 204.259,-43.678 202.153,-40.575 201.88,-45.2924 200.461,-37.1912 200.461,-37.1912"/>
<text text-anchor="middle" x="257.617" y="-58.8" font-family="FreeSans" font-size="8.00" fill="#2e3436">member_of_group</text>
</g>
<!-- N3 -->
<g id="node4" class="node"><title>N3</title>
<polygon fill="#ffffff" stroke="#ffffff" stroke-width="1.5" points="113.117,-85 163.117,-85 175.117,-97 175.117,-109 163.117,-121 113.117,-121 101.117,-109 101.117,-97 113.117,-85"/>
<path fill="#ffffff" stroke="#ffffff" stroke-width="1.5" d="M163.117,-85C169.117,-85 175.117,-91 175.117,-97"/>
<path fill="#ffffff" stroke="#ffffff" stroke-width="1.5" d="M175.117,-109C175.117,-115 169.117,-121 163.117,-121"/>
<path fill="#ffffff" stroke="#ffffff" stroke-width="1.5" d="M113.117,-121C107.117,-121 101.117,-115 101.117,-109"/>
<path fill="#ffffff" stroke="#ffffff" stroke-width="1.5" d="M101.117,-97C101.117,-91 107.117,-85 113.117,-85"/>
<polyline fill="none" stroke="#2e3436" stroke-width="1.5" points="113.117,-85 163.117,-85 "/>
<path fill="none" stroke="#2e3436" stroke-width="1.5" d="M163.117,-85C169.117,-85 175.117,-91 175.117,-97"/>
<polyline fill="none" stroke="#2e3436" stroke-width="1.5" points="175.117,-97 175.117,-109 "/>
<path fill="none" stroke="#2e3436" stroke-width="1.5" d="M175.117,-109C175.117,-115 169.117,-121 163.117,-121"/>
<polyline fill="none" stroke="#2e3436" stroke-width="1.5" points="163.117,-121 113.117,-121 "/>
<path fill="none" stroke="#2e3436" stroke-width="1.5" d="M113.117,-121C107.117,-121 101.117,-115 101.117,-109"/>
<polyline fill="none" stroke="#2e3436" stroke-width="1.5" points="101.117,-109 101.117,-97 "/>
<path fill="none" stroke="#2e3436" stroke-width="1.5" d="M101.117,-97C101.117,-91 107.117,-85 113.117,-85"/>
<text text-anchor="middle" x="138.117" y="-109.8" font-family="FreeSans" font-size="8.00" fill="#1c2021">Node[3]</text>
<polyline fill="none" stroke="#2e3436" stroke-width="1.5" points="101.117,-103 175.117,-103 "/>
<text text-anchor="start" x="109.117" y="-91.8" font-family="FreeSans" font-size="8.00" fill="#1c2021">name = &#39;Bob&#39;</text>
</g>
<!-- N3&#45;&gt;N2 -->
<g id="edge4" class="edge"><title>N3&#45;&gt;N2</title>
<path fill="none" stroke="#2e3436" stroke-width="2" d="M129.7,-84.6739C126.802,-75.581 125.342,-64.7095 130.117,-56 133.024,-50.6979 137.049,-46.0459 141.637,-41.9942"/>
<polygon fill="#2e3436" stroke="#2e3436" points="147.707,-37.1793 143.928,-44.4844 145.08,-39.9015 142.142,-42.2319 141.831,-41.8402 141.52,-41.4484 144.458,-39.118 139.734,-39.196 147.707,-37.1793 147.707,-37.1793"/>
<text text-anchor="middle" x="169.617" y="-58.8" font-family="FreeSans" font-size="8.00" fill="#2e3436">member_of_group</text>
</g>
<!-- N4 -->
<g id="node6" class="node"><title>N4</title>
<polygon fill="#ffffff" stroke="#ffffff" stroke-width="1.5" points="114.617,-169 157.617,-169 169.617,-181 169.617,-193 157.617,-205 114.617,-205 102.617,-193 102.617,-181 114.617,-169"/>
<path fill="#ffffff" stroke="#ffffff" stroke-width="1.5" d="M157.617,-169C163.617,-169 169.617,-175 169.617,-181"/>
<path fill="#ffffff" stroke="#ffffff" stroke-width="1.5" d="M169.617,-193C169.617,-199 163.617,-205 157.617,-205"/>
<path fill="#ffffff" stroke="#ffffff" stroke-width="1.5" d="M114.617,-205C108.617,-205 102.617,-199 102.617,-193"/>
<path fill="#ffffff" stroke="#ffffff" stroke-width="1.5" d="M102.617,-181C102.617,-175 108.617,-169 114.617,-169"/>
<polyline fill="none" stroke="#2e3436" stroke-width="1.5" points="114.617,-169 157.617,-169 "/>
<path fill="none" stroke="#2e3436" stroke-width="1.5" d="M157.617,-169C163.617,-169 169.617,-175 169.617,-181"/>
<polyline fill="none" stroke="#2e3436" stroke-width="1.5" points="169.617,-181 169.617,-193 "/>
<path fill="none" stroke="#2e3436" stroke-width="1.5" d="M169.617,-193C169.617,-199 163.617,-205 157.617,-205"/>
<polyline fill="none" stroke="#2e3436" stroke-width="1.5" points="157.617,-205 114.617,-205 "/>
<path fill="none" stroke="#2e3436" stroke-width="1.5" d="M114.617,-205C108.617,-205 102.617,-199 102.617,-193"/>
<polyline fill="none" stroke="#2e3436" stroke-width="1.5" points="102.617,-193 102.617,-181 "/>
<path fill="none" stroke="#2e3436" stroke-width="1.5" d="M102.617,-181C102.617,-175 108.617,-169 114.617,-169"/>
<text text-anchor="middle" x="136.117" y="-193.8" font-family="FreeSans" font-size="8.00" fill="#1c2021">Node[4]</text>
<polyline fill="none" stroke="#2e3436" stroke-width="1.5" points="102.617,-187 169.617,-187 "/>
<text text-anchor="start" x="110.617" y="-175.8" font-family="FreeSans" font-size="8.00" fill="#1c2021">name = &#39;Jill&#39;</text>
</g>
<!-- N4&#45;&gt;N1 -->
<g id="edge8" class="edge"><title>N4&#45;&gt;N1</title>
<path fill="none" stroke="#4e9a06" stroke-width="2" d="M159.5,-168.98C175.768,-156.443 197.599,-139.619 215.144,-126.098"/>
<polygon fill="#4e9a06" stroke="#4e9a06" points="221.396,-121.28 217.516,-128.532 218.731,-123.965 215.761,-126.254 215.456,-125.858 215.151,-125.462 218.121,-123.173 213.396,-123.185 221.396,-121.28 221.396,-121.28"/>
<text text-anchor="middle" x="207.117" y="-142.8" font-family="FreeSans" font-size="8.00" fill="#4e9a06">knows</text>
</g>
<!-- N4&#45;&gt;N2 -->
<g id="edge6" class="edge"><title>N4&#45;&gt;N2</title>
<path fill="none" stroke="#2e3436" stroke-width="2" d="M102.49,-176.851C54.9688,-160.724 -22.892,-126.662 7.11706,-84 22.3425,-62.3549 88.113,-42.5929 135.994,-30.6813"/>
<polygon fill="#2e3436" stroke="#2e3436" points="143.514,-28.8379 137.034,-33.9014 139.991,-30.2163 136.349,-31.1091 136.23,-30.6235 136.111,-30.1378 139.753,-29.245 135.427,-27.3455 143.514,-28.8379 143.514,-28.8379"/>
<text text-anchor="middle" x="46.6171" y="-100.8" font-family="FreeSans" font-size="8.00" fill="#2e3436">member_of_group</text>
</g>
<!-- N5 -->
<g id="node9" class="node"><title>N5</title>
<polygon fill="#ffffff" stroke="#ffffff" stroke-width="1.5" points="283.617,-169 330.617,-169 342.617,-181 342.617,-193 330.617,-205 283.617,-205 271.617,-193 271.617,-181 283.617,-169"/>
<path fill="#ffffff" stroke="#ffffff" stroke-width="1.5" d="M330.617,-169C336.617,-169 342.617,-175 342.617,-181"/>
<path fill="#ffffff" stroke="#ffffff" stroke-width="1.5" d="M342.617,-193C342.617,-199 336.617,-205 330.617,-205"/>
<path fill="#ffffff" stroke="#ffffff" stroke-width="1.5" d="M283.617,-205C277.617,-205 271.617,-199 271.617,-193"/>
<path fill="#ffffff" stroke="#ffffff" stroke-width="1.5" d="M271.617,-181C271.617,-175 277.617,-169 283.617,-169"/>
<polyline fill="none" stroke="#2e3436" stroke-width="1.5" points="283.617,-169 330.617,-169 "/>
<path fill="none" stroke="#2e3436" stroke-width="1.5" d="M330.617,-169C336.617,-169 342.617,-175 342.617,-181"/>
<polyline fill="none" stroke="#2e3436" stroke-width="1.5" points="342.617,-181 342.617,-193 "/>
<path fill="none" stroke="#2e3436" stroke-width="1.5" d="M342.617,-193C342.617,-199 336.617,-205 330.617,-205"/>
<polyline fill="none" stroke="#2e3436" stroke-width="1.5" points="330.617,-205 283.617,-205 "/>
<path fill="none" stroke="#2e3436" stroke-width="1.5" d="M283.617,-205C277.617,-205 271.617,-199 271.617,-193"/>
<polyline fill="none" stroke="#2e3436" stroke-width="1.5" points="271.617,-193 271.617,-181 "/>
<path fill="none" stroke="#2e3436" stroke-width="1.5" d="M271.617,-181C271.617,-175 277.617,-169 283.617,-169"/>
<text text-anchor="middle" x="307.117" y="-193.8" font-family="FreeSans" font-size="8.00" fill="#1c2021">Node[5]</text>
<polyline fill="none" stroke="#2e3436" stroke-width="1.5" points="271.617,-187 342.617,-187 "/>
<text text-anchor="start" x="279.617" y="-175.8" font-family="FreeSans" font-size="8.00" fill="#1c2021">name = &#39;Joe&#39;</text>
</g>
<!-- N5&#45;&gt;N1 -->
<g id="edge12" class="edge"><title>N5&#45;&gt;N1</title>
<path fill="none" stroke="#4e9a06" stroke-width="2" d="M293.664,-168.773C284.727,-156.665 272.889,-140.626 263.14,-127.418"/>
<polygon fill="#4e9a06" stroke="#4e9a06" points="258.544,-121.191 265.713,-125.221 261.173,-123.911 263.4,-126.929 262.998,-127.226 262.596,-127.522 260.369,-124.505 260.282,-129.23 258.544,-121.191 258.544,-121.191"/>
<text text-anchor="middle" x="291.117" y="-142.8" font-family="FreeSans" font-size="8.00" fill="#4e9a06">knows</text>
</g>
<!-- N5&#45;&gt;N2 -->
<g id="edge10" class="edge"><title>N5&#45;&gt;N2</title>
<path fill="none" stroke="#2e3436" stroke-width="2" d="M313.024,-168.57C320.656,-140.846 330.103,-88.2332 304.117,-56 295.689,-45.5454 267.053,-36.3544 240.345,-29.7478"/>
<polygon fill="#2e3436" stroke="#2e3436" points="232.881,-27.954 240.962,-26.4251 236.644,-28.3442 240.29,-29.2205 240.173,-29.7067 240.057,-30.1928 236.41,-29.3165 239.385,-32.9882 232.881,-27.954 232.881,-27.954"/>
<text text-anchor="middle" x="360.617" y="-100.8" font-family="FreeSans" font-size="8.00" fill="#2e3436">member_of_group</text>
</g>
</g>
</svg>
