<?xml version="1.0" encoding="UTF-8" standalone="no"?>
<!DOCTYPE svg PUBLIC "-//W3C//DTD SVG 1.1//EN"
 "http://www.w3.org/Graphics/SVG/1.1/DTD/svg11.dtd">
<!-- Generated by graphviz version 2.26.3 (20100126.1600)
 -->
<!-- Title: g Pages: 1 -->
<svg width="413pt" height="550pt"
 viewBox="0.00 0.00 413.00 550.00" xmlns="http://www.w3.org/2000/svg" xmlns:xlink="http://www.w3.org/1999/xlink">
<g id="graph1" class="graph" transform="scale(1 1) rotate(0) translate(4 546)">
<title>g</title>
<polygon fill="white" stroke="white" points="-4,5 -4,-546 410,-546 410,5 -4,5"/>
<!-- N1 -->
<g id="node1" class="node"><title>N1</title>
<polygon fill="#ffffff" stroke="#ffffff" stroke-width="1.5" points="210.5,-421 257.5,-421 269.5,-433 269.5,-445 257.5,-457 210.5,-457 198.5,-445 198.5,-433 210.5,-421"/>
<path fill="#ffffff" stroke="#ffffff" stroke-width="1.5" d="M257.5,-421C263.5,-421 269.5,-427 269.5,-433"/>
<path fill="#ffffff" stroke="#ffffff" stroke-width="1.5" d="M269.5,-445C269.5,-451 263.5,-457 257.5,-457"/>
<path fill="#ffffff" stroke="#ffffff" stroke-width="1.5" d="M210.5,-457C204.5,-457 198.5,-451 198.5,-445"/>
<path fill="#ffffff" stroke="#ffffff" stroke-width="1.5" d="M198.5,-433C198.5,-427 204.5,-421 210.5,-421"/>
<polyline fill="none" stroke="#2e3436" stroke-width="1.5" points="210.5,-421 257.5,-421 "/>
<path fill="none" stroke="#2e3436" stroke-width="1.5" d="M257.5,-421C263.5,-421 269.5,-427 269.5,-433"/>
<polyline fill="none" stroke="#2e3436" stroke-width="1.5" points="269.5,-433 269.5,-445 "/>
<path fill="none" stroke="#2e3436" stroke-width="1.5" d="M269.5,-445C269.5,-451 263.5,-457 257.5,-457"/>
<polyline fill="none" stroke="#2e3436" stroke-width="1.5" points="257.5,-457 210.5,-457 "/>
<path fill="none" stroke="#2e3436" stroke-width="1.5" d="M210.5,-457C204.5,-457 198.5,-451 198.5,-445"/>
<polyline fill="none" stroke="#2e3436" stroke-width="1.5" points="198.5,-445 198.5,-433 "/>
<path fill="none" stroke="#2e3436" stroke-width="1.5" d="M198.5,-433C198.5,-427 204.5,-421 210.5,-421"/>
<text text-anchor="middle" x="234" y="-445.8" font-family="FreeSans" font-size="8.00" fill="#1c2021">Node[1]</text>
<polyline fill="none" stroke="#2e3436" stroke-width="1.5" points="198.5,-439 269.5,-439 "/>
<text text-anchor="start" x="206.5" y="-427.8" font-family="FreeSans" font-size="8.00" fill="#1c2021">name = &#39;Bill&#39;</text>
</g>
<!-- N3 -->
<g id="node3" class="node"><title>N3</title>
<polygon fill="#ffffff" stroke="#ffffff" stroke-width="1.5" points="55,-337 117,-337 129,-349 129,-361 117,-373 55,-373 43,-361 43,-349 55,-337"/>
<path fill="#ffffff" stroke="#ffffff" stroke-width="1.5" d="M117,-337C123,-337 129,-343 129,-349"/>
<path fill="#ffffff" stroke="#ffffff" stroke-width="1.5" d="M129,-361C129,-367 123,-373 117,-373"/>
<path fill="#ffffff" stroke="#ffffff" stroke-width="1.5" d="M55,-373C49,-373 43,-367 43,-361"/>
<path fill="#ffffff" stroke="#ffffff" stroke-width="1.5" d="M43,-349C43,-343 49,-337 55,-337"/>
<polyline fill="none" stroke="#2e3436" stroke-width="1.5" points="55,-337 117,-337 "/>
<path fill="none" stroke="#2e3436" stroke-width="1.5" d="M117,-337C123,-337 129,-343 129,-349"/>
<polyline fill="none" stroke="#2e3436" stroke-width="1.5" points="129,-349 129,-361 "/>
<path fill="none" stroke="#2e3436" stroke-width="1.5" d="M129,-361C129,-367 123,-373 117,-373"/>
<polyline fill="none" stroke="#2e3436" stroke-width="1.5" points="117,-373 55,-373 "/>
<path fill="none" stroke="#2e3436" stroke-width="1.5" d="M55,-373C49,-373 43,-367 43,-361"/>
<polyline fill="none" stroke="#2e3436" stroke-width="1.5" points="43,-361 43,-349 "/>
<path fill="none" stroke="#2e3436" stroke-width="1.5" d="M43,-349C43,-343 49,-337 55,-337"/>
<text text-anchor="middle" x="86" y="-361.8" font-family="FreeSans" font-size="8.00" fill="#1c2021">Node[3]</text>
<polyline fill="none" stroke="#2e3436" stroke-width="1.5" points="43,-355 129,-355 "/>
<text text-anchor="start" x="51" y="-343.8" font-family="FreeSans" font-size="8.00" fill="#1c2021">name = &#39;Bill_s1&#39;</text>
</g>
<!-- N1&#45;&gt;N3 -->
<g id="edge2" class="edge"><title>N1&#45;&gt;N3</title>
<path fill="none" stroke="#2e3436" stroke-width="2" d="M202.25,-420.98C179.503,-408.069 148.745,-390.612 124.581,-376.897"/>
<polygon fill="#2e3436" stroke="#2e3436" points="117.952,-373.135 126.141,-373.902 121.46,-374.551 124.722,-376.402 124.475,-376.837 124.228,-377.272 120.967,-375.421 122.809,-379.772 117.952,-373.135 117.952,-373.135"/>
<text text-anchor="middle" x="173" y="-394.8" font-family="FreeSans" font-size="8.00" fill="#2e3436">has</text>
</g>
<!-- N12 -->
<g id="node5" class="node"><title>N12</title>
<polygon fill="#ffffff" stroke="#ffffff" stroke-width="1.5" points="210.5,-337 257.5,-337 269.5,-349 269.5,-361 257.5,-373 210.5,-373 198.5,-361 198.5,-349 210.5,-337"/>
<path fill="#ffffff" stroke="#ffffff" stroke-width="1.5" d="M257.5,-337C263.5,-337 269.5,-343 269.5,-349"/>
<path fill="#ffffff" stroke="#ffffff" stroke-width="1.5" d="M269.5,-361C269.5,-367 263.5,-373 257.5,-373"/>
<path fill="#ffffff" stroke="#ffffff" stroke-width="1.5" d="M210.5,-373C204.5,-373 198.5,-367 198.5,-361"/>
<path fill="#ffffff" stroke="#ffffff" stroke-width="1.5" d="M198.5,-349C198.5,-343 204.5,-337 210.5,-337"/>
<polyline fill="none" stroke="#2e3436" stroke-width="1.5" points="210.5,-337 257.5,-337 "/>
<path fill="none" stroke="#2e3436" stroke-width="1.5" d="M257.5,-337C263.5,-337 269.5,-343 269.5,-349"/>
<polyline fill="none" stroke="#2e3436" stroke-width="1.5" points="269.5,-349 269.5,-361 "/>
<path fill="none" stroke="#2e3436" stroke-width="1.5" d="M269.5,-361C269.5,-367 263.5,-373 257.5,-373"/>
<polyline fill="none" stroke="#2e3436" stroke-width="1.5" points="257.5,-373 210.5,-373 "/>
<path fill="none" stroke="#2e3436" stroke-width="1.5" d="M210.5,-373C204.5,-373 198.5,-367 198.5,-361"/>
<polyline fill="none" stroke="#2e3436" stroke-width="1.5" points="198.5,-361 198.5,-349 "/>
<path fill="none" stroke="#2e3436" stroke-width="1.5" d="M198.5,-349C198.5,-343 204.5,-337 210.5,-337"/>
<text text-anchor="middle" x="234" y="-361.8" font-family="FreeSans" font-size="8.00" fill="#1c2021">Node[12]</text>
<polyline fill="none" stroke="#2e3436" stroke-width="1.5" points="198.5,-355 269.5,-355 "/>
<text text-anchor="start" x="206.5" y="-343.8" font-family="FreeSans" font-size="8.00" fill="#1c2021">name = &#39;Joe&#39;</text>
</g>
<!-- N1&#45;&gt;N12 -->
<g id="edge4" class="edge"><title>N1&#45;&gt;N12</title>
<path fill="none" stroke="#4e9a06" stroke-width="2" d="M234,-420.773C234,-409.105 234,-393.787 234,-380.87"/>
<polygon fill="#4e9a06" stroke="#4e9a06" points="234,-373.191 237.375,-380.691 234.5,-376.941 234.5,-380.691 234,-380.691 233.5,-380.691 233.5,-376.941 230.625,-380.691 234,-373.191 234,-373.191"/>
<text text-anchor="middle" x="259" y="-394.8" font-family="FreeSans" font-size="8.00" fill="#4e9a06">jane_knows</text>
</g>
<!-- N5 -->
<g id="node10" class="node"><title>N5</title>
<polygon fill="#ffffff" stroke="#ffffff" stroke-width="1.5" points="12,-253 74,-253 86,-265 86,-277 74,-289 12,-289 0,-277 0,-265 12,-253"/>
<path fill="#ffffff" stroke="#ffffff" stroke-width="1.5" d="M74,-253C80,-253 86,-259 86,-265"/>
<path fill="#ffffff" stroke="#ffffff" stroke-width="1.5" d="M86,-277C86,-283 80,-289 74,-289"/>
<path fill="#ffffff" stroke="#ffffff" stroke-width="1.5" d="M12,-289C6,-289 0,-283 0,-277"/>
<path fill="#ffffff" stroke="#ffffff" stroke-width="1.5" d="M0,-265C0,-259 6,-253 12,-253"/>
<polyline fill="none" stroke="#2e3436" stroke-width="1.5" points="12,-253 74,-253 "/>
<path fill="none" stroke="#2e3436" stroke-width="1.5" d="M74,-253C80,-253 86,-259 86,-265"/>
<polyline fill="none" stroke="#2e3436" stroke-width="1.5" points="86,-265 86,-277 "/>
<path fill="none" stroke="#2e3436" stroke-width="1.5" d="M86,-277C86,-283 80,-289 74,-289"/>
<polyline fill="none" stroke="#2e3436" stroke-width="1.5" points="74,-289 12,-289 "/>
<path fill="none" stroke="#2e3436" stroke-width="1.5" d="M12,-289C6,-289 0,-283 0,-277"/>
<polyline fill="none" stroke="#2e3436" stroke-width="1.5" points="0,-277 0,-265 "/>
<path fill="none" stroke="#2e3436" stroke-width="1.5" d="M0,-265C0,-259 6,-253 12,-253"/>
<text text-anchor="middle" x="43" y="-277.8" font-family="FreeSans" font-size="8.00" fill="#1c2021">Node[5]</text>
<polyline fill="none" stroke="#2e3436" stroke-width="1.5" points="0,-271 86,-271 "/>
<text text-anchor="start" x="8" y="-259.8" font-family="FreeSans" font-size="8.00" fill="#1c2021">name = &#39;Bill_s2&#39;</text>
</g>
<!-- N3&#45;&gt;N5 -->
<g id="edge8" class="edge"><title>N3&#45;&gt;N5</title>
<path fill="none" stroke="#a40000" stroke-width="2" d="M76.6696,-336.773C70.5841,-324.885 62.5589,-309.208 55.87,-296.141"/>
<polygon fill="#a40000" stroke="#a40000" points="52.3122,-289.191 58.734,-294.329 54.466,-292.301 56.1748,-295.639 55.7297,-295.867 55.2847,-296.095 53.5759,-292.757 52.7255,-297.405 52.3122,-289.191 52.3122,-289.191"/>
<text text-anchor="middle" x="75.5" y="-310.8" font-family="FreeSans" font-size="8.00" fill="#a40000">next</text>
</g>
<!-- N7 -->
<g id="node13" class="node"><title>N7</title>
<polygon fill="#ffffff" stroke="#ffffff" stroke-width="1.5" points="127,-253 189,-253 201,-265 201,-277 189,-289 127,-289 115,-277 115,-265 127,-253"/>
<path fill="#ffffff" stroke="#ffffff" stroke-width="1.5" d="M189,-253C195,-253 201,-259 201,-265"/>
<path fill="#ffffff" stroke="#ffffff" stroke-width="1.5" d="M201,-277C201,-283 195,-289 189,-289"/>
<path fill="#ffffff" stroke="#ffffff" stroke-width="1.5" d="M127,-289C121,-289 115,-283 115,-277"/>
<path fill="#ffffff" stroke="#ffffff" stroke-width="1.5" d="M115,-265C115,-259 121,-253 127,-253"/>
<polyline fill="none" stroke="#2e3436" stroke-width="1.5" points="127,-253 189,-253 "/>
<path fill="none" stroke="#2e3436" stroke-width="1.5" d="M189,-253C195,-253 201,-259 201,-265"/>
<polyline fill="none" stroke="#2e3436" stroke-width="1.5" points="201,-265 201,-277 "/>
<path fill="none" stroke="#2e3436" stroke-width="1.5" d="M201,-277C201,-283 195,-289 189,-289"/>
<polyline fill="none" stroke="#2e3436" stroke-width="1.5" points="189,-289 127,-289 "/>
<path fill="none" stroke="#2e3436" stroke-width="1.5" d="M127,-289C121,-289 115,-283 115,-277"/>
<polyline fill="none" stroke="#2e3436" stroke-width="1.5" points="115,-277 115,-265 "/>
<path fill="none" stroke="#2e3436" stroke-width="1.5" d="M115,-265C115,-259 121,-253 127,-253"/>
<text text-anchor="middle" x="158" y="-277.8" font-family="FreeSans" font-size="8.00" fill="#1c2021">Node[7]</text>
<polyline fill="none" stroke="#2e3436" stroke-width="1.5" points="115,-271 201,-271 "/>
<text text-anchor="start" x="123" y="-259.8" font-family="FreeSans" font-size="8.00" fill="#1c2021">name = &#39;Joe_s1&#39;</text>
</g>
<!-- N12&#45;&gt;N7 -->
<g id="edge22" class="edge"><title>N12&#45;&gt;N7</title>
<path fill="none" stroke="#2e3436" stroke-width="2" d="M217.509,-336.773C206.454,-324.555 191.779,-308.334 179.767,-295.059"/>
<polygon fill="#2e3436" stroke="#2e3436" points="174.459,-289.191 181.993,-292.488 177.345,-291.636 179.861,-294.417 179.491,-294.753 179.12,-295.088 176.604,-292.307 176.988,-297.017 174.459,-289.191 174.459,-289.191"/>
<text text-anchor="middle" x="207" y="-310.8" font-family="FreeSans" font-size="8.00" fill="#2e3436">has</text>
</g>
<!-- N8 -->
<g id="node16" class="node"><title>N8</title>
<polygon fill="#ffffff" stroke="#ffffff" stroke-width="1.5" points="242,-253 292,-253 304,-265 304,-277 292,-289 242,-289 230,-277 230,-265 242,-253"/>
<path fill="#ffffff" stroke="#ffffff" stroke-width="1.5" d="M292,-253C298,-253 304,-259 304,-265"/>
<path fill="#ffffff" stroke="#ffffff" stroke-width="1.5" d="M304,-277C304,-283 298,-289 292,-289"/>
<path fill="#ffffff" stroke="#ffffff" stroke-width="1.5" d="M242,-289C236,-289 230,-283 230,-277"/>
<path fill="#ffffff" stroke="#ffffff" stroke-width="1.5" d="M230,-265C230,-259 236,-253 242,-253"/>
<polyline fill="none" stroke="#2e3436" stroke-width="1.5" points="242,-253 292,-253 "/>
<path fill="none" stroke="#2e3436" stroke-width="1.5" d="M292,-253C298,-253 304,-259 304,-265"/>
<polyline fill="none" stroke="#2e3436" stroke-width="1.5" points="304,-265 304,-277 "/>
<path fill="none" stroke="#2e3436" stroke-width="1.5" d="M304,-277C304,-283 298,-289 292,-289"/>
<polyline fill="none" stroke="#2e3436" stroke-width="1.5" points="292,-289 242,-289 "/>
<path fill="none" stroke="#2e3436" stroke-width="1.5" d="M242,-289C236,-289 230,-283 230,-277"/>
<polyline fill="none" stroke="#2e3436" stroke-width="1.5" points="230,-277 230,-265 "/>
<path fill="none" stroke="#2e3436" stroke-width="1.5" d="M230,-265C230,-259 236,-253 242,-253"/>
<text text-anchor="middle" x="267" y="-277.8" font-family="FreeSans" font-size="8.00" fill="#1c2021">Node[8]</text>
<polyline fill="none" stroke="#2e3436" stroke-width="1.5" points="230,-271 304,-271 "/>
<text text-anchor="start" x="238" y="-259.8" font-family="FreeSans" font-size="8.00" fill="#1c2021">name = &#39;Bob&#39;</text>
</g>
<!-- N12&#45;&gt;N8 -->
<g id="edge24" class="edge"><title>N12&#45;&gt;N8</title>
<path fill="none" stroke="#4e9a06" stroke-width="2" d="M241.161,-336.773C245.788,-324.995 251.876,-309.498 256.98,-296.505"/>
<polygon fill="#4e9a06" stroke="#4e9a06" points="259.853,-289.191 260.252,-297.406 258.948,-292.864 257.576,-296.355 257.111,-296.172 256.646,-295.989 258.017,-292.499 253.97,-294.938 259.853,-289.191 259.853,-289.191"/>
<text text-anchor="middle" x="277" y="-310.8" font-family="FreeSans" font-size="8.00" fill="#4e9a06">jane_knows</text>
</g>
<!-- N2 -->
<g id="node6" class="node"><title>N2</title>
<polygon fill="#ffffff" stroke="#ffffff" stroke-width="1.5" points="330.5,-85 393.5,-85 405.5,-97 405.5,-109 393.5,-121 330.5,-121 318.5,-109 318.5,-97 330.5,-85"/>
<path fill="#ffffff" stroke="#ffffff" stroke-width="1.5" d="M393.5,-85C399.5,-85 405.5,-91 405.5,-97"/>
<path fill="#ffffff" stroke="#ffffff" stroke-width="1.5" d="M405.5,-109C405.5,-115 399.5,-121 393.5,-121"/>
<path fill="#ffffff" stroke="#ffffff" stroke-width="1.5" d="M330.5,-121C324.5,-121 318.5,-115 318.5,-109"/>
<path fill="#ffffff" stroke="#ffffff" stroke-width="1.5" d="M318.5,-97C318.5,-91 324.5,-85 330.5,-85"/>
<polyline fill="none" stroke="#2e3436" stroke-width="1.5" points="330.5,-85 393.5,-85 "/>
<path fill="none" stroke="#2e3436" stroke-width="1.5" d="M393.5,-85C399.5,-85 405.5,-91 405.5,-97"/>
<polyline fill="none" stroke="#2e3436" stroke-width="1.5" points="405.5,-97 405.5,-109 "/>
<path fill="none" stroke="#2e3436" stroke-width="1.5" d="M405.5,-109C405.5,-115 399.5,-121 393.5,-121"/>
<polyline fill="none" stroke="#2e3436" stroke-width="1.5" points="393.5,-121 330.5,-121 "/>
<path fill="none" stroke="#2e3436" stroke-width="1.5" d="M330.5,-121C324.5,-121 318.5,-115 318.5,-109"/>
<polyline fill="none" stroke="#2e3436" stroke-width="1.5" points="318.5,-109 318.5,-97 "/>
<path fill="none" stroke="#2e3436" stroke-width="1.5" d="M318.5,-97C318.5,-91 324.5,-85 330.5,-85"/>
<text text-anchor="middle" x="362" y="-109.8" font-family="FreeSans" font-size="8.00" fill="#1c2021">Node[2]</text>
<polyline fill="none" stroke="#2e3436" stroke-width="1.5" points="318.5,-103 405.5,-103 "/>
<text text-anchor="start" x="326.5" y="-91.8" font-family="FreeSans" font-size="8.00" fill="#1c2021">name = &#39;Ted_s1&#39;</text>
</g>
<!-- N4 -->
<g id="node8" class="node"><title>N4</title>
<polygon fill="#ffffff" stroke="#ffffff" stroke-width="1.5" points="330.5,-1 393.5,-1 405.5,-13 405.5,-25 393.5,-37 330.5,-37 318.5,-25 318.5,-13 330.5,-1"/>
<path fill="#ffffff" stroke="#ffffff" stroke-width="1.5" d="M393.5,-1C399.5,-1 405.5,-7 405.5,-13"/>
<path fill="#ffffff" stroke="#ffffff" stroke-width="1.5" d="M405.5,-25C405.5,-31 399.5,-37 393.5,-37"/>
<path fill="#ffffff" stroke="#ffffff" stroke-width="1.5" d="M330.5,-37C324.5,-37 318.5,-31 318.5,-25"/>
<path fill="#ffffff" stroke="#ffffff" stroke-width="1.5" d="M318.5,-13C318.5,-7 324.5,-1 330.5,-1"/>
<polyline fill="none" stroke="#2e3436" stroke-width="1.5" points="330.5,-1 393.5,-1 "/>
<path fill="none" stroke="#2e3436" stroke-width="1.5" d="M393.5,-1C399.5,-1 405.5,-7 405.5,-13"/>
<polyline fill="none" stroke="#2e3436" stroke-width="1.5" points="405.5,-13 405.5,-25 "/>
<path fill="none" stroke="#2e3436" stroke-width="1.5" d="M405.5,-25C405.5,-31 399.5,-37 393.5,-37"/>
<polyline fill="none" stroke="#2e3436" stroke-width="1.5" points="393.5,-37 330.5,-37 "/>
<path fill="none" stroke="#2e3436" stroke-width="1.5" d="M330.5,-37C324.5,-37 318.5,-31 318.5,-25"/>
<polyline fill="none" stroke="#2e3436" stroke-width="1.5" points="318.5,-25 318.5,-13 "/>
<path fill="none" stroke="#2e3436" stroke-width="1.5" d="M318.5,-13C318.5,-7 324.5,-1 330.5,-1"/>
<text text-anchor="middle" x="362" y="-25.8" font-family="FreeSans" font-size="8.00" fill="#1c2021">Node[4]</text>
<polyline fill="none" stroke="#2e3436" stroke-width="1.5" points="318.5,-19 405.5,-19 "/>
<text text-anchor="start" x="326.5" y="-7.8" font-family="FreeSans" font-size="8.00" fill="#1c2021">name = &#39;Ted_s2&#39;</text>
</g>
<!-- N2&#45;&gt;N4 -->
<g id="edge6" class="edge"><title>N2&#45;&gt;N4</title>
<path fill="none" stroke="#a40000" stroke-width="2" d="M362,-84.7733C362,-73.1053 362,-57.7874 362,-44.8699"/>
<polygon fill="#a40000" stroke="#a40000" points="362,-37.1912 365.375,-44.6911 362.5,-40.9412 362.5,-44.6912 362,-44.6912 361.5,-44.6912 361.5,-40.9412 358.625,-44.6912 362,-37.1912 362,-37.1912"/>
<text text-anchor="middle" x="371.5" y="-58.8" font-family="FreeSans" font-size="8.00" fill="#a40000">next</text>
</g>
<!-- N6 -->
<g id="node11" class="node"><title>N6</title>
<polygon fill="#ffffff" stroke="#ffffff" stroke-width="1.5" points="208,-505 260,-505 272,-517 272,-529 260,-541 208,-541 196,-529 196,-517 208,-505"/>
<path fill="#ffffff" stroke="#ffffff" stroke-width="1.5" d="M260,-505C266,-505 272,-511 272,-517"/>
<path fill="#ffffff" stroke="#ffffff" stroke-width="1.5" d="M272,-529C272,-535 266,-541 260,-541"/>
<path fill="#ffffff" stroke="#ffffff" stroke-width="1.5" d="M208,-541C202,-541 196,-535 196,-529"/>
<path fill="#ffffff" stroke="#ffffff" stroke-width="1.5" d="M196,-517C196,-511 202,-505 208,-505"/>
<polyline fill="none" stroke="#2e3436" stroke-width="1.5" points="208,-505 260,-505 "/>
<path fill="none" stroke="#2e3436" stroke-width="1.5" d="M260,-505C266,-505 272,-511 272,-517"/>
<polyline fill="none" stroke="#2e3436" stroke-width="1.5" points="272,-517 272,-529 "/>
<path fill="none" stroke="#2e3436" stroke-width="1.5" d="M272,-529C272,-535 266,-541 260,-541"/>
<polyline fill="none" stroke="#2e3436" stroke-width="1.5" points="260,-541 208,-541 "/>
<path fill="none" stroke="#2e3436" stroke-width="1.5" d="M208,-541C202,-541 196,-535 196,-529"/>
<polyline fill="none" stroke="#2e3436" stroke-width="1.5" points="196,-529 196,-517 "/>
<path fill="none" stroke="#2e3436" stroke-width="1.5" d="M196,-517C196,-511 202,-505 208,-505"/>
<text text-anchor="middle" x="234" y="-529.8" font-family="FreeSans" font-size="8.00" fill="#1c2021">Node[6]</text>
<polyline fill="none" stroke="#2e3436" stroke-width="1.5" points="196,-523 272,-523 "/>
<text text-anchor="start" x="204" y="-511.8" font-family="FreeSans" font-size="8.00" fill="#1c2021">name = &#39;Jane&#39;</text>
</g>
<!-- N6&#45;&gt;N1 -->
<g id="edge10" class="edge"><title>N6&#45;&gt;N1</title>
<path fill="none" stroke="#4e9a06" stroke-width="2" d="M234,-504.773C234,-493.105 234,-477.787 234,-464.87"/>
<polygon fill="#4e9a06" stroke="#4e9a06" points="234,-457.191 237.375,-464.691 234.5,-460.941 234.5,-464.691 234,-464.691 233.5,-464.691 233.5,-460.941 230.625,-464.691 234,-457.191 234,-457.191"/>
<text text-anchor="middle" x="259" y="-478.8" font-family="FreeSans" font-size="8.00" fill="#4e9a06">jane_knows</text>
</g>
<!-- N10 -->
<g id="node15" class="node"><title>N10</title>
<polygon fill="#ffffff" stroke="#ffffff" stroke-width="1.5" points="102,-169 164,-169 176,-181 176,-193 164,-205 102,-205 90,-193 90,-181 102,-169"/>
<path fill="#ffffff" stroke="#ffffff" stroke-width="1.5" d="M164,-169C170,-169 176,-175 176,-181"/>
<path fill="#ffffff" stroke="#ffffff" stroke-width="1.5" d="M176,-193C176,-199 170,-205 164,-205"/>
<path fill="#ffffff" stroke="#ffffff" stroke-width="1.5" d="M102,-205C96,-205 90,-199 90,-193"/>
<path fill="#ffffff" stroke="#ffffff" stroke-width="1.5" d="M90,-181C90,-175 96,-169 102,-169"/>
<polyline fill="none" stroke="#2e3436" stroke-width="1.5" points="102,-169 164,-169 "/>
<path fill="none" stroke="#2e3436" stroke-width="1.5" d="M164,-169C170,-169 176,-175 176,-181"/>
<polyline fill="none" stroke="#2e3436" stroke-width="1.5" points="176,-181 176,-193 "/>
<path fill="none" stroke="#2e3436" stroke-width="1.5" d="M176,-193C176,-199 170,-205 164,-205"/>
<polyline fill="none" stroke="#2e3436" stroke-width="1.5" points="164,-205 102,-205 "/>
<path fill="none" stroke="#2e3436" stroke-width="1.5" d="M102,-205C96,-205 90,-199 90,-193"/>
<polyline fill="none" stroke="#2e3436" stroke-width="1.5" points="90,-193 90,-181 "/>
<path fill="none" stroke="#2e3436" stroke-width="1.5" d="M90,-181C90,-175 96,-169 102,-169"/>
<text text-anchor="middle" x="133" y="-193.8" font-family="FreeSans" font-size="8.00" fill="#1c2021">Node[10]</text>
<polyline fill="none" stroke="#2e3436" stroke-width="1.5" points="90,-187 176,-187 "/>
<text text-anchor="start" x="98" y="-175.8" font-family="FreeSans" font-size="8.00" fill="#1c2021">name = &#39;Joe_s2&#39;</text>
</g>
<!-- N7&#45;&gt;N10 -->
<g id="edge12" class="edge"><title>N7&#45;&gt;N10</title>
<path fill="none" stroke="#a40000" stroke-width="2" d="M152.575,-252.773C149.07,-240.995 144.458,-225.498 140.591,-212.505"/>
<polygon fill="#a40000" stroke="#a40000" points="138.414,-205.191 143.788,-211.417 139.963,-208.643 141.033,-212.237 140.554,-212.38 140.074,-212.522 139.005,-208.928 137.319,-213.342 138.414,-205.191 138.414,-205.191"/>
<text text-anchor="middle" x="156.5" y="-226.8" font-family="FreeSans" font-size="8.00" fill="#a40000">next</text>
</g>
<!-- N11 -->
<g id="node18" class="node"><title>N11</title>
<polygon fill="#ffffff" stroke="#ffffff" stroke-width="1.5" points="216.5,-169 281.5,-169 293.5,-181 293.5,-193 281.5,-205 216.5,-205 204.5,-193 204.5,-181 216.5,-169"/>
<path fill="#ffffff" stroke="#ffffff" stroke-width="1.5" d="M281.5,-169C287.5,-169 293.5,-175 293.5,-181"/>
<path fill="#ffffff" stroke="#ffffff" stroke-width="1.5" d="M293.5,-193C293.5,-199 287.5,-205 281.5,-205"/>
<path fill="#ffffff" stroke="#ffffff" stroke-width="1.5" d="M216.5,-205C210.5,-205 204.5,-199 204.5,-193"/>
<path fill="#ffffff" stroke="#ffffff" stroke-width="1.5" d="M204.5,-181C204.5,-175 210.5,-169 216.5,-169"/>
<polyline fill="none" stroke="#2e3436" stroke-width="1.5" points="216.5,-169 281.5,-169 "/>
<path fill="none" stroke="#2e3436" stroke-width="1.5" d="M281.5,-169C287.5,-169 293.5,-175 293.5,-181"/>
<polyline fill="none" stroke="#2e3436" stroke-width="1.5" points="293.5,-181 293.5,-193 "/>
<path fill="none" stroke="#2e3436" stroke-width="1.5" d="M293.5,-193C293.5,-199 287.5,-205 281.5,-205"/>
<polyline fill="none" stroke="#2e3436" stroke-width="1.5" points="281.5,-205 216.5,-205 "/>
<path fill="none" stroke="#2e3436" stroke-width="1.5" d="M216.5,-205C210.5,-205 204.5,-199 204.5,-193"/>
<polyline fill="none" stroke="#2e3436" stroke-width="1.5" points="204.5,-193 204.5,-181 "/>
<path fill="none" stroke="#2e3436" stroke-width="1.5" d="M204.5,-181C204.5,-175 210.5,-169 216.5,-169"/>
<text text-anchor="middle" x="249" y="-193.8" font-family="FreeSans" font-size="8.00" fill="#1c2021">Node[11]</text>
<polyline fill="none" stroke="#2e3436" stroke-width="1.5" points="204.5,-187 293.5,-187 "/>
<text text-anchor="start" x="212.5" y="-175.8" font-family="FreeSans" font-size="8.00" fill="#1c2021">name = &#39;Bob_s1&#39;</text>
</g>
<!-- N8&#45;&gt;N11 -->
<g id="edge14" class="edge"><title>N8&#45;&gt;N11</title>
<path fill="none" stroke="#2e3436" stroke-width="2" d="M254.921,-252.92C251.694,-247.123 248.648,-240.513 247,-234 245.301,-227.285 244.948,-219.86 245.234,-212.934"/>
<polygon fill="#2e3436" stroke="#2e3436" points="245.823,-205.104 248.626,-212.835 246.04,-208.88 245.759,-212.62 245.261,-212.582 244.762,-212.545 245.043,-208.806 241.895,-212.329 245.823,-205.104 245.823,-205.104"/>
<text text-anchor="middle" x="255" y="-226.8" font-family="FreeSans" font-size="8.00" fill="#2e3436">has</text>
</g>
<!-- N9 -->
<g id="node20" class="node"><title>N9</title>
<polygon fill="#ffffff" stroke="#ffffff" stroke-width="1.5" points="338,-169 386,-169 398,-181 398,-193 386,-205 338,-205 326,-193 326,-181 338,-169"/>
<path fill="#ffffff" stroke="#ffffff" stroke-width="1.5" d="M386,-169C392,-169 398,-175 398,-181"/>
<path fill="#ffffff" stroke="#ffffff" stroke-width="1.5" d="M398,-193C398,-199 392,-205 386,-205"/>
<path fill="#ffffff" stroke="#ffffff" stroke-width="1.5" d="M338,-205C332,-205 326,-199 326,-193"/>
<path fill="#ffffff" stroke="#ffffff" stroke-width="1.5" d="M326,-181C326,-175 332,-169 338,-169"/>
<polyline fill="none" stroke="#2e3436" stroke-width="1.5" points="338,-169 386,-169 "/>
<path fill="none" stroke="#2e3436" stroke-width="1.5" d="M386,-169C392,-169 398,-175 398,-181"/>
<polyline fill="none" stroke="#2e3436" stroke-width="1.5" points="398,-181 398,-193 "/>
<path fill="none" stroke="#2e3436" stroke-width="1.5" d="M398,-193C398,-199 392,-205 386,-205"/>
<polyline fill="none" stroke="#2e3436" stroke-width="1.5" points="386,-205 338,-205 "/>
<path fill="none" stroke="#2e3436" stroke-width="1.5" d="M338,-205C332,-205 326,-199 326,-193"/>
<polyline fill="none" stroke="#2e3436" stroke-width="1.5" points="326,-193 326,-181 "/>
<path fill="none" stroke="#2e3436" stroke-width="1.5" d="M326,-181C326,-175 332,-169 338,-169"/>
<text text-anchor="middle" x="362" y="-193.8" font-family="FreeSans" font-size="8.00" fill="#1c2021">Node[9]</text>
<polyline fill="none" stroke="#2e3436" stroke-width="1.5" points="326,-187 398,-187 "/>
<text text-anchor="start" x="334" y="-175.8" font-family="FreeSans" font-size="8.00" fill="#1c2021">name = &#39;Ted&#39;</text>
</g>
<!-- N8&#45;&gt;N9 -->
<g id="edge16" class="edge"><title>N8&#45;&gt;N9</title>
<path fill="none" stroke="#204a87" stroke-width="2" d="M275.764,-252.995C280.99,-243.556 288.3,-232.27 297,-224 303.544,-217.779 311.328,-212.208 319.196,-207.393"/>
<polygon fill="#204a87" stroke="#204a87" points="325.799,-203.528 321.031,-210.23 322.815,-205.854 319.579,-207.748 319.326,-207.317 319.074,-206.885 322.31,-204.991 317.622,-204.404 325.799,-203.528 325.799,-203.528"/>
<text text-anchor="middle" x="321" y="-226.8" font-family="FreeSans" font-size="8.00" fill="#204a87">bob_knows</text>
</g>
<!-- N9&#45;&gt;N1 -->
<g id="edge20" class="edge"><title>N9&#45;&gt;N1</title>
<path fill="none" stroke="#204a87" stroke-width="2" d="M360.151,-205.047C355.29,-244.587 339.027,-340.254 291,-402 286.744,-407.471 281.44,-412.38 275.793,-416.696"/>
<polygon fill="#204a87" stroke="#204a87" points="269.563,-421.145 273.704,-414.04 272.324,-418.559 275.375,-416.379 275.666,-416.786 275.957,-417.193 272.905,-419.373 277.628,-419.533 269.563,-421.145 269.563,-421.145"/>
<text text-anchor="middle" x="362" y="-310.8" font-family="FreeSans" font-size="8.00" fill="#204a87">bob_knows</text>
</g>
<!-- N9&#45;&gt;N2 -->
<g id="edge18" class="edge"><title>N9&#45;&gt;N2</title>
<path fill="none" stroke="#2e3436" stroke-width="2" d="M362,-168.773C362,-157.105 362,-141.787 362,-128.87"/>
<polygon fill="#2e3436" stroke="#2e3436" points="362,-121.191 365.375,-128.691 362.5,-124.941 362.5,-128.691 362,-128.691 361.5,-128.691 361.5,-124.941 358.625,-128.691 362,-121.191 362,-121.191"/>
<text text-anchor="middle" x="370" y="-142.8" font-family="FreeSans" font-size="8.00" fill="#2e3436">has</text>
</g>
</g>
</svg>
