<?xml version="1.0" encoding="UTF-8" standalone="no"?>
<!DOCTYPE svg PUBLIC "-//W3C//DTD SVG 1.1//EN"
 "http://www.w3.org/Graphics/SVG/1.1/DTD/svg11.dtd">
<!-- Generated by graphviz version 2.26.3 (20100126.1600)
 -->
<!-- Title: g Pages: 1 -->
<svg width="450pt" height="79pt"
 viewBox="0.00 0.00 450.00 79.00" xmlns="http://www.w3.org/2000/svg" xmlns:xlink="http://www.w3.org/1999/xlink">
<g id="graph1" class="graph" transform="scale(1 1) rotate(0) translate(4 75)">
<title>g</title>
<polygon fill="white" stroke="white" points="-4,5 -4,-75 447,-75 447,5 -4,5"/>
<!-- N1 -->
<g id="node1" class="node"><title>N1</title>
<polygon fill="#ffffff" stroke="#ffffff" stroke-width="1.5" points="390.5,-0 429.5,-0 441.5,-12 441.5,-24 429.5,-36 390.5,-36 378.5,-24 378.5,-12 390.5,-0"/>
<path fill="#ffffff" stroke="#ffffff" stroke-width="1.5" d="M429.5,-0C435.5,-0 441.5,-6 441.5,-12"/>
<path fill="#ffffff" stroke="#ffffff" stroke-width="1.5" d="M441.5,-24C441.5,-30 435.5,-36 429.5,-36"/>
<path fill="#ffffff" stroke="#ffffff" stroke-width="1.5" d="M390.5,-36C384.5,-36 378.5,-30 378.5,-24"/>
<path fill="#ffffff" stroke="#ffffff" stroke-width="1.5" d="M378.5,-12C378.5,-6 384.5,-0 390.5,-0"/>
<polyline fill="none" stroke="#2e3436" stroke-width="1.5" points="390.5,-0 429.5,-0 "/>
<path fill="none" stroke="#2e3436" stroke-width="1.5" d="M429.5,-0C435.5,-0 441.5,-6 441.5,-12"/>
<polyline fill="none" stroke="#2e3436" stroke-width="1.5" points="441.5,-12 441.5,-24 "/>
<path fill="none" stroke="#2e3436" stroke-width="1.5" d="M441.5,-24C441.5,-30 435.5,-36 429.5,-36"/>
<polyline fill="none" stroke="#2e3436" stroke-width="1.5" points="429.5,-36 390.5,-36 "/>
<path fill="none" stroke="#2e3436" stroke-width="1.5" d="M390.5,-36C384.5,-36 378.5,-30 378.5,-24"/>
<polyline fill="none" stroke="#2e3436" stroke-width="1.5" points="378.5,-24 378.5,-12 "/>
<path fill="none" stroke="#2e3436" stroke-width="1.5" d="M378.5,-12C378.5,-6 384.5,-0 390.5,-0"/>
<text text-anchor="start" x="386.5" y="-20.8" font-family="FreeSans" font-size="8.00" fill="#1c2021">name = &#39;A&#39;</text>
<text text-anchor="start" x="386.5" y="-10.8" font-family="FreeSans" font-size="8.00" fill="#1c2021">value = 10</text>
</g>
<!-- N2 -->
<g id="node3" class="node"><title>N2</title>
<polygon fill="#ffffff" stroke="#ffffff" stroke-width="1.5" points="270,-35 310,-35 322,-47 322,-59 310,-71 270,-71 258,-59 258,-47 270,-35"/>
<path fill="#ffffff" stroke="#ffffff" stroke-width="1.5" d="M310,-35C316,-35 322,-41 322,-47"/>
<path fill="#ffffff" stroke="#ffffff" stroke-width="1.5" d="M322,-59C322,-65 316,-71 310,-71"/>
<path fill="#ffffff" stroke="#ffffff" stroke-width="1.5" d="M270,-71C264,-71 258,-65 258,-59"/>
<path fill="#ffffff" stroke="#ffffff" stroke-width="1.5" d="M258,-47C258,-41 264,-35 270,-35"/>
<polyline fill="none" stroke="#2e3436" stroke-width="1.5" points="270,-35 310,-35 "/>
<path fill="none" stroke="#2e3436" stroke-width="1.5" d="M310,-35C316,-35 322,-41 322,-47"/>
<polyline fill="none" stroke="#2e3436" stroke-width="1.5" points="322,-47 322,-59 "/>
<path fill="none" stroke="#2e3436" stroke-width="1.5" d="M322,-59C322,-65 316,-71 310,-71"/>
<polyline fill="none" stroke="#2e3436" stroke-width="1.5" points="310,-71 270,-71 "/>
<path fill="none" stroke="#2e3436" stroke-width="1.5" d="M270,-71C264,-71 258,-65 258,-59"/>
<polyline fill="none" stroke="#2e3436" stroke-width="1.5" points="258,-59 258,-47 "/>
<path fill="none" stroke="#2e3436" stroke-width="1.5" d="M258,-47C258,-41 264,-35 270,-35"/>
<text text-anchor="start" x="266" y="-55.8" font-family="FreeSans" font-size="8.00" fill="#1c2021">name = &#39;B&#39;</text>
<text text-anchor="start" x="266" y="-45.8" font-family="FreeSans" font-size="8.00" fill="#1c2021">value = 20</text>
</g>
<!-- N1&#45;&gt;N2 -->
<g id="edge2" class="edge"><title>N1&#45;&gt;N2</title>
<path fill="none" stroke="#2e3436" stroke-width="2" d="M378.471,-27.1958C363.552,-31.5472 345.576,-36.7903 329.735,-41.4106"/>
<polygon fill="#2e3436" stroke="#2e3436" points="322.153,-43.6221 328.408,-38.282 325.613,-42.092 329.213,-41.042 329.353,-41.522 329.493,-42.002 325.893,-43.052 330.298,-44.762 322.153,-43.6221 322.153,-43.6221"/>
<text text-anchor="middle" x="350" y="-39.8" font-family="FreeSans" font-size="8.00" fill="#2e3436">LINK</text>
</g>
<!-- N3 -->
<g id="node5" class="node"><title>N3</title>
<polygon fill="#ffffff" stroke="#ffffff" stroke-width="1.5" points="150,-35 190,-35 202,-47 202,-59 190,-71 150,-71 138,-59 138,-47 150,-35"/>
<path fill="#ffffff" stroke="#ffffff" stroke-width="1.5" d="M190,-35C196,-35 202,-41 202,-47"/>
<path fill="#ffffff" stroke="#ffffff" stroke-width="1.5" d="M202,-59C202,-65 196,-71 190,-71"/>
<path fill="#ffffff" stroke="#ffffff" stroke-width="1.5" d="M150,-71C144,-71 138,-65 138,-59"/>
<path fill="#ffffff" stroke="#ffffff" stroke-width="1.5" d="M138,-47C138,-41 144,-35 150,-35"/>
<polyline fill="none" stroke="#2e3436" stroke-width="1.5" points="150,-35 190,-35 "/>
<path fill="none" stroke="#2e3436" stroke-width="1.5" d="M190,-35C196,-35 202,-41 202,-47"/>
<polyline fill="none" stroke="#2e3436" stroke-width="1.5" points="202,-47 202,-59 "/>
<path fill="none" stroke="#2e3436" stroke-width="1.5" d="M202,-59C202,-65 196,-71 190,-71"/>
<polyline fill="none" stroke="#2e3436" stroke-width="1.5" points="190,-71 150,-71 "/>
<path fill="none" stroke="#2e3436" stroke-width="1.5" d="M150,-71C144,-71 138,-65 138,-59"/>
<polyline fill="none" stroke="#2e3436" stroke-width="1.5" points="138,-59 138,-47 "/>
<path fill="none" stroke="#2e3436" stroke-width="1.5" d="M138,-47C138,-41 144,-35 150,-35"/>
<text text-anchor="start" x="146" y="-55.8" font-family="FreeSans" font-size="8.00" fill="#1c2021">name = &#39;C&#39;</text>
<text text-anchor="start" x="146" y="-45.8" font-family="FreeSans" font-size="8.00" fill="#1c2021">value = 30</text>
</g>
<!-- N2&#45;&gt;N3 -->
<g id="edge4" class="edge"><title>N2&#45;&gt;N3</title>
<path fill="none" stroke="#2e3436" stroke-width="2" d="M257.842,-53C243.181,-53 225.669,-53 210.153,-53"/>
<polygon fill="#2e3436" stroke="#2e3436" points="202.247,-53 209.747,-49.6251 205.997,-52.5 209.747,-52.5001 209.747,-53.0001 209.747,-53.5001 205.997,-53.5 209.747,-56.3751 202.247,-53 202.247,-53"/>
<text text-anchor="middle" x="230" y="-55.8" font-family="FreeSans" font-size="8.00" fill="#2e3436">LINK</text>
</g>
<!-- N4 -->
<g id="node7" class="node"><title>N4</title>
<polygon fill="#ffffff" stroke="#ffffff" stroke-width="1.5" points="12,-0 70,-0 82,-12 82,-24 70,-36 12,-36 0,-24 0,-12 12,-0"/>
<path fill="#ffffff" stroke="#ffffff" stroke-width="1.5" d="M70,-0C76,-0 82,-6 82,-12"/>
<path fill="#ffffff" stroke="#ffffff" stroke-width="1.5" d="M82,-24C82,-30 76,-36 70,-36"/>
<path fill="#ffffff" stroke="#ffffff" stroke-width="1.5" d="M12,-36C6,-36 0,-30 0,-24"/>
<path fill="#ffffff" stroke="#ffffff" stroke-width="1.5" d="M0,-12C0,-6 6,-0 12,-0"/>
<polyline fill="none" stroke="#2e3436" stroke-width="1.5" points="12,-0 70,-0 "/>
<path fill="none" stroke="#2e3436" stroke-width="1.5" d="M70,-0C76,-0 82,-6 82,-12"/>
<polyline fill="none" stroke="#2e3436" stroke-width="1.5" points="82,-12 82,-24 "/>
<path fill="none" stroke="#2e3436" stroke-width="1.5" d="M82,-24C82,-30 76,-36 70,-36"/>
<polyline fill="none" stroke="#2e3436" stroke-width="1.5" points="70,-36 12,-36 "/>
<path fill="none" stroke="#2e3436" stroke-width="1.5" d="M12,-36C6,-36 0,-30 0,-24"/>
<polyline fill="none" stroke="#2e3436" stroke-width="1.5" points="0,-24 0,-12 "/>
<path fill="none" stroke="#2e3436" stroke-width="1.5" d="M0,-12C0,-6 6,-0 12,-0"/>
<text text-anchor="start" x="8" y="-15.8" font-family="FreeSans" font-size="8.00" fill="#1c2021">name = &#39;ROOT&#39;</text>
</g>
<!-- N3&#45;&gt;N4 -->
<g id="edge6" class="edge"><title>N3&#45;&gt;N4</title>
<path fill="none" stroke="#2e3436" stroke-width="2" d="M137.781,-44.2583C123.155,-40.2901 105.546,-35.5124 89.3799,-31.1263"/>
<polygon fill="#2e3436" stroke="#2e3436" points="82.0699,-29.143 90.192,-27.8497 85.82,-29.6424 89.4391,-30.6244 89.3082,-31.1069 89.1773,-31.5895 85.5581,-30.6075 88.4244,-34.3642 82.0699,-29.143 82.0699,-29.143"/>
<text text-anchor="middle" x="110" y="-40.8" font-family="FreeSans" font-size="8.00" fill="#2e3436">LINK</text>
</g>
<!-- N4&#45;&gt;N1 -->
<g id="edge8" class="edge"><title>N4&#45;&gt;N1</title>
<path fill="none" stroke="#2e3436" stroke-width="2" d="M82.2646,-18C153.835,-18 300.058,-18 370.43,-18"/>
<polygon fill="#2e3436" stroke="#2e3436" points="378.22,-18 370.72,-21.3751 374.47,-18.5 370.72,-18.5001 370.72,-18.0001 370.72,-17.5001 374.47,-17.5 370.72,-14.6251 378.22,-18 378.22,-18"/>
<text text-anchor="middle" x="230" y="-20.8" font-family="FreeSans" font-size="8.00" fill="#2e3436">LINK</text>
</g>
</g>
</svg>
