<?xml version="1.0" encoding="UTF-8" standalone="no"?>
<!DOCTYPE svg PUBLIC "-//W3C//DTD SVG 1.1//EN"
 "http://www.w3.org/Graphics/SVG/1.1/DTD/svg11.dtd">
<!-- Generated by graphviz version 2.26.3 (20100126.1600)
 -->
<!-- Title: g Pages: 1 -->
<svg width="447pt" height="214pt"
 viewBox="0.00 0.00 447.00 214.00" xmlns="http://www.w3.org/2000/svg" xmlns:xlink="http://www.w3.org/1999/xlink">
<g id="graph1" class="graph" transform="scale(1 1) rotate(0) translate(4 210)">
<title>g</title>
<polygon fill="white" stroke="white" points="-4,5 -4,-210 444,-210 444,5 -4,5"/>
<!-- N1 -->
<g id="node1" class="node"><title>N1</title>
<polygon fill="#ffffff" stroke="#ffffff" stroke-width="1.5" points="198,-85 252,-85 264,-97 264,-109 252,-121 198,-121 186,-109 186,-97 198,-85"/>
<path fill="#ffffff" stroke="#ffffff" stroke-width="1.5" d="M252,-85C258,-85 264,-91 264,-97"/>
<path fill="#ffffff" stroke="#ffffff" stroke-width="1.5" d="M264,-109C264,-115 258,-121 252,-121"/>
<path fill="#ffffff" stroke="#ffffff" stroke-width="1.5" d="M198,-121C192,-121 186,-115 186,-109"/>
<path fill="#ffffff" stroke="#ffffff" stroke-width="1.5" d="M186,-97C186,-91 192,-85 198,-85"/>
<polyline fill="none" stroke="#2e3436" stroke-width="1.5" points="198,-85 252,-85 "/>
<path fill="none" stroke="#2e3436" stroke-width="1.5" d="M252,-85C258,-85 264,-91 264,-97"/>
<polyline fill="none" stroke="#2e3436" stroke-width="1.5" points="264,-97 264,-109 "/>
<path fill="none" stroke="#2e3436" stroke-width="1.5" d="M264,-109C264,-115 258,-121 252,-121"/>
<polyline fill="none" stroke="#2e3436" stroke-width="1.5" points="252,-121 198,-121 "/>
<path fill="none" stroke="#2e3436" stroke-width="1.5" d="M198,-121C192,-121 186,-115 186,-109"/>
<polyline fill="none" stroke="#2e3436" stroke-width="1.5" points="186,-109 186,-97 "/>
<path fill="none" stroke="#2e3436" stroke-width="1.5" d="M186,-97C186,-91 192,-85 198,-85"/>
<text text-anchor="start" x="194" y="-100.8" font-family="FreeSans" font-size="8.00" fill="#1c2021">name = &#39;Sara&#39;</text>
</g>
<!-- N2 -->
<g id="node3" class="node"><title>N2</title>
<polygon fill="#ffffff" stroke="#ffffff" stroke-width="1.5" points="347.5,-1 400.5,-1 412.5,-13 412.5,-25 400.5,-37 347.5,-37 335.5,-25 335.5,-13 347.5,-1"/>
<path fill="#ffffff" stroke="#ffffff" stroke-width="1.5" d="M400.5,-1C406.5,-1 412.5,-7 412.5,-13"/>
<path fill="#ffffff" stroke="#ffffff" stroke-width="1.5" d="M412.5,-25C412.5,-31 406.5,-37 400.5,-37"/>
<path fill="#ffffff" stroke="#ffffff" stroke-width="1.5" d="M347.5,-37C341.5,-37 335.5,-31 335.5,-25"/>
<path fill="#ffffff" stroke="#ffffff" stroke-width="1.5" d="M335.5,-13C335.5,-7 341.5,-1 347.5,-1"/>
<polyline fill="none" stroke="#2e3436" stroke-width="1.5" points="347.5,-1 400.5,-1 "/>
<path fill="none" stroke="#2e3436" stroke-width="1.5" d="M400.5,-1C406.5,-1 412.5,-7 412.5,-13"/>
<polyline fill="none" stroke="#2e3436" stroke-width="1.5" points="412.5,-13 412.5,-25 "/>
<path fill="none" stroke="#2e3436" stroke-width="1.5" d="M412.5,-25C412.5,-31 406.5,-37 400.5,-37"/>
<polyline fill="none" stroke="#2e3436" stroke-width="1.5" points="400.5,-37 347.5,-37 "/>
<path fill="none" stroke="#2e3436" stroke-width="1.5" d="M347.5,-37C341.5,-37 335.5,-31 335.5,-25"/>
<polyline fill="none" stroke="#2e3436" stroke-width="1.5" points="335.5,-25 335.5,-13 "/>
<path fill="none" stroke="#2e3436" stroke-width="1.5" d="M335.5,-13C335.5,-7 341.5,-1 347.5,-1"/>
<text text-anchor="start" x="343.5" y="-16.8" font-family="FreeSans" font-size="8.00" fill="#1c2021">name = &#39;Cats&#39;</text>
</g>
<!-- N1&#45;&gt;N2 -->
<g id="edge2" class="edge"><title>N1&#45;&gt;N2</title>
<path fill="none" stroke="#2e3436" stroke-width="2" d="M225.805,-84.7723C227.174,-75.0303 230.441,-63.527 238,-56 250.735,-43.319 293.631,-33.0088 327.884,-26.5237"/>
<polygon fill="#2e3436" stroke="#2e3436" points="335.491,-25.1185 328.728,-29.7999 331.894,-26.2915 328.206,-26.9727 328.115,-26.481 328.024,-25.9893 331.712,-25.3081 327.502,-23.1622 335.491,-25.1185 335.491,-25.1185"/>
<text text-anchor="middle" x="254.5" y="-58.8" font-family="FreeSans" font-size="8.00" fill="#2e3436">favorite</text>
</g>
<!-- N4 -->
<g id="node5" class="node"><title>N4</title>
<polygon fill="#ffffff" stroke="#ffffff" stroke-width="1.5" points="119.5,-1 176.5,-1 188.5,-13 188.5,-25 176.5,-37 119.5,-37 107.5,-25 107.5,-13 119.5,-1"/>
<path fill="#ffffff" stroke="#ffffff" stroke-width="1.5" d="M176.5,-1C182.5,-1 188.5,-7 188.5,-13"/>
<path fill="#ffffff" stroke="#ffffff" stroke-width="1.5" d="M188.5,-25C188.5,-31 182.5,-37 176.5,-37"/>
<path fill="#ffffff" stroke="#ffffff" stroke-width="1.5" d="M119.5,-37C113.5,-37 107.5,-31 107.5,-25"/>
<path fill="#ffffff" stroke="#ffffff" stroke-width="1.5" d="M107.5,-13C107.5,-7 113.5,-1 119.5,-1"/>
<polyline fill="none" stroke="#2e3436" stroke-width="1.5" points="119.5,-1 176.5,-1 "/>
<path fill="none" stroke="#2e3436" stroke-width="1.5" d="M176.5,-1C182.5,-1 188.5,-7 188.5,-13"/>
<polyline fill="none" stroke="#2e3436" stroke-width="1.5" points="188.5,-13 188.5,-25 "/>
<path fill="none" stroke="#2e3436" stroke-width="1.5" d="M188.5,-25C188.5,-31 182.5,-37 176.5,-37"/>
<polyline fill="none" stroke="#2e3436" stroke-width="1.5" points="176.5,-37 119.5,-37 "/>
<path fill="none" stroke="#2e3436" stroke-width="1.5" d="M119.5,-37C113.5,-37 107.5,-31 107.5,-25"/>
<polyline fill="none" stroke="#2e3436" stroke-width="1.5" points="107.5,-25 107.5,-13 "/>
<path fill="none" stroke="#2e3436" stroke-width="1.5" d="M107.5,-13C107.5,-7 113.5,-1 119.5,-1"/>
<text text-anchor="start" x="115.5" y="-16.8" font-family="FreeSans" font-size="8.00" fill="#1c2021">name = &#39;Bikes&#39;</text>
</g>
<!-- N1&#45;&gt;N4 -->
<g id="edge4" class="edge"><title>N1&#45;&gt;N4</title>
<path fill="none" stroke="#2e3436" stroke-width="2" d="M192.797,-84.9245C185.011,-79.5359 177.167,-73.1374 171,-66 165.566,-59.7104 161.078,-51.9126 157.554,-44.4883"/>
<polygon fill="#2e3436" stroke="#2e3436" points="154.352,-37.2581 160.475,-42.7492 156.328,-40.4845 157.846,-43.9133 157.389,-44.1158 156.932,-44.3182 155.413,-40.8894 154.303,-45.4824 154.352,-37.2581 154.352,-37.2581"/>
<text text-anchor="middle" x="187.5" y="-58.8" font-family="FreeSans" font-size="8.00" fill="#2e3436">favorite</text>
</g>
<!-- N3 -->
<g id="node6" class="node"><title>N3</title>
<polygon fill="#ffffff" stroke="#ffffff" stroke-width="1.5" points="305,-85 369,-85 381,-97 381,-109 369,-121 305,-121 293,-109 293,-97 305,-85"/>
<path fill="#ffffff" stroke="#ffffff" stroke-width="1.5" d="M369,-85C375,-85 381,-91 381,-97"/>
<path fill="#ffffff" stroke="#ffffff" stroke-width="1.5" d="M381,-109C381,-115 375,-121 369,-121"/>
<path fill="#ffffff" stroke="#ffffff" stroke-width="1.5" d="M305,-121C299,-121 293,-115 293,-109"/>
<path fill="#ffffff" stroke="#ffffff" stroke-width="1.5" d="M293,-97C293,-91 299,-85 305,-85"/>
<polyline fill="none" stroke="#2e3436" stroke-width="1.5" points="305,-85 369,-85 "/>
<path fill="none" stroke="#2e3436" stroke-width="1.5" d="M369,-85C375,-85 381,-91 381,-97"/>
<polyline fill="none" stroke="#2e3436" stroke-width="1.5" points="381,-97 381,-109 "/>
<path fill="none" stroke="#2e3436" stroke-width="1.5" d="M381,-109C381,-115 375,-121 369,-121"/>
<polyline fill="none" stroke="#2e3436" stroke-width="1.5" points="369,-121 305,-121 "/>
<path fill="none" stroke="#2e3436" stroke-width="1.5" d="M305,-121C299,-121 293,-115 293,-109"/>
<polyline fill="none" stroke="#2e3436" stroke-width="1.5" points="293,-109 293,-97 "/>
<path fill="none" stroke="#2e3436" stroke-width="1.5" d="M293,-97C293,-91 299,-85 305,-85"/>
<text text-anchor="start" x="301" y="-100.8" font-family="FreeSans" font-size="8.00" fill="#1c2021">name = &#39;Derrick&#39;</text>
</g>
<!-- N3&#45;&gt;N2 -->
<g id="edge6" class="edge"><title>N3&#45;&gt;N2</title>
<path fill="none" stroke="#2e3436" stroke-width="2" d="M345.028,-84.7733C350.265,-72.8851 357.17,-57.2081 362.926,-44.1413"/>
<polygon fill="#2e3436" stroke="#2e3436" points="365.987,-37.1912 366.053,-45.4153 364.933,-40.8246 363.421,-44.2564 362.964,-44.0548 362.506,-43.8533 364.018,-40.4215 359.875,-42.6943 365.987,-37.1912 365.987,-37.1912"/>
<text text-anchor="middle" x="373.5" y="-58.8" font-family="FreeSans" font-size="8.00" fill="#2e3436">favorite</text>
</g>
<!-- N3&#45;&gt;N4 -->
<g id="edge8" class="edge"><title>N3&#45;&gt;N4</title>
<path fill="none" stroke="#2e3436" stroke-width="2" d="M316.661,-84.8936C304.883,-75.1895 289.381,-63.6838 274,-56 249.417,-43.7196 220.052,-34.801 195.856,-28.8009"/>
<polygon fill="#2e3436" stroke="#2e3436" points="188.524,-27.032 196.607,-25.5102 192.287,-27.4255 195.933,-28.305 195.815,-28.791 195.698,-29.2771 192.053,-28.3976 195.024,-32.0719 188.524,-27.032 188.524,-27.032"/>
<text text-anchor="middle" x="307.5" y="-58.8" font-family="FreeSans" font-size="8.00" fill="#2e3436">favorite</text>
</g>
<!-- N5 -->
<g id="node9" class="node"><title>N5</title>
<polygon fill="#ffffff" stroke="#ffffff" stroke-width="1.5" points="11.5,-85 54.5,-85 66.5,-97 66.5,-109 54.5,-121 11.5,-121 -0.5,-109 -0.5,-97 11.5,-85"/>
<path fill="#ffffff" stroke="#ffffff" stroke-width="1.5" d="M54.5,-85C60.5,-85 66.5,-91 66.5,-97"/>
<path fill="#ffffff" stroke="#ffffff" stroke-width="1.5" d="M66.5,-109C66.5,-115 60.5,-121 54.5,-121"/>
<path fill="#ffffff" stroke="#ffffff" stroke-width="1.5" d="M11.5,-121C5.5,-121 -0.5,-115 -0.5,-109"/>
<path fill="#ffffff" stroke="#ffffff" stroke-width="1.5" d="M-0.5,-97C-0.5,-91 5.5,-85 11.5,-85"/>
<polyline fill="none" stroke="#2e3436" stroke-width="1.5" points="11.5,-85 54.5,-85 "/>
<path fill="none" stroke="#2e3436" stroke-width="1.5" d="M54.5,-85C60.5,-85 66.5,-91 66.5,-97"/>
<polyline fill="none" stroke="#2e3436" stroke-width="1.5" points="66.5,-97 66.5,-109 "/>
<path fill="none" stroke="#2e3436" stroke-width="1.5" d="M66.5,-109C66.5,-115 60.5,-121 54.5,-121"/>
<polyline fill="none" stroke="#2e3436" stroke-width="1.5" points="54.5,-121 11.5,-121 "/>
<path fill="none" stroke="#2e3436" stroke-width="1.5" d="M11.5,-121C5.5,-121 -0.5,-115 -0.5,-109"/>
<polyline fill="none" stroke="#2e3436" stroke-width="1.5" points="-0.5,-109 -0.5,-97 "/>
<path fill="none" stroke="#2e3436" stroke-width="1.5" d="M-0.5,-97C-0.5,-91 5.5,-85 11.5,-85"/>
<text text-anchor="start" x="7.5" y="-100.8" font-family="FreeSans" font-size="8.00" fill="#1c2021">name = &#39;Jill&#39;</text>
</g>
<!-- N5&#45;&gt;N4 -->
<g id="edge10" class="edge"><title>N5&#45;&gt;N4</title>
<path fill="none" stroke="#2e3436" stroke-width="2" d="M43.9236,-84.7717C50.3139,-75.2669 59.0704,-63.9901 69,-56 78.292,-48.523 89.3428,-42.1448 100.191,-36.897"/>
<polygon fill="#2e3436" stroke="#2e3436" points="107.27,-33.6115 101.888,-39.8303 104.079,-35.6438 100.678,-37.2225 100.467,-36.7689 100.257,-36.3154 103.658,-34.7367 99.0464,-33.7076 107.27,-33.6115 107.27,-33.6115"/>
<text text-anchor="middle" x="85.5" y="-58.8" font-family="FreeSans" font-size="8.00" fill="#2e3436">favorite</text>
</g>
<!-- N6 -->
<g id="node11" class="node"><title>N6</title>
<polygon fill="#ffffff" stroke="#ffffff" stroke-width="1.5" points="201.5,-169 248.5,-169 260.5,-181 260.5,-193 248.5,-205 201.5,-205 189.5,-193 189.5,-181 201.5,-169"/>
<path fill="#ffffff" stroke="#ffffff" stroke-width="1.5" d="M248.5,-169C254.5,-169 260.5,-175 260.5,-181"/>
<path fill="#ffffff" stroke="#ffffff" stroke-width="1.5" d="M260.5,-193C260.5,-199 254.5,-205 248.5,-205"/>
<path fill="#ffffff" stroke="#ffffff" stroke-width="1.5" d="M201.5,-205C195.5,-205 189.5,-199 189.5,-193"/>
<path fill="#ffffff" stroke="#ffffff" stroke-width="1.5" d="M189.5,-181C189.5,-175 195.5,-169 201.5,-169"/>
<polyline fill="none" stroke="#2e3436" stroke-width="1.5" points="201.5,-169 248.5,-169 "/>
<path fill="none" stroke="#2e3436" stroke-width="1.5" d="M248.5,-169C254.5,-169 260.5,-175 260.5,-181"/>
<polyline fill="none" stroke="#2e3436" stroke-width="1.5" points="260.5,-181 260.5,-193 "/>
<path fill="none" stroke="#2e3436" stroke-width="1.5" d="M260.5,-193C260.5,-199 254.5,-205 248.5,-205"/>
<polyline fill="none" stroke="#2e3436" stroke-width="1.5" points="248.5,-205 201.5,-205 "/>
<path fill="none" stroke="#2e3436" stroke-width="1.5" d="M201.5,-205C195.5,-205 189.5,-199 189.5,-193"/>
<polyline fill="none" stroke="#2e3436" stroke-width="1.5" points="189.5,-193 189.5,-181 "/>
<path fill="none" stroke="#2e3436" stroke-width="1.5" d="M189.5,-181C189.5,-175 195.5,-169 201.5,-169"/>
<text text-anchor="start" x="197.5" y="-184.8" font-family="FreeSans" font-size="8.00" fill="#1c2021">name = &#39;Joe&#39;</text>
</g>
<!-- N6&#45;&gt;N1 -->
<g id="edge16" class="edge"><title>N6&#45;&gt;N1</title>
<path fill="none" stroke="#4e9a06" stroke-width="2" d="M225,-168.773C225,-157.105 225,-141.787 225,-128.87"/>
<polygon fill="#4e9a06" stroke="#4e9a06" points="225,-121.191 228.375,-128.691 225.5,-124.941 225.5,-128.691 225,-128.691 224.5,-128.691 224.5,-124.941 221.625,-128.691 225,-121.191 225,-121.191"/>
<text text-anchor="middle" x="237.5" y="-142.8" font-family="FreeSans" font-size="8.00" fill="#4e9a06">friend</text>
</g>
<!-- N6&#45;&gt;N2 -->
<g id="edge12" class="edge"><title>N6&#45;&gt;N2</title>
<path fill="none" stroke="#2e3436" stroke-width="2" d="M260.725,-178.424C305.978,-166.761 380.019,-144.735 396,-122 412.871,-97.9997 405.053,-84.2097 397,-56 395.832,-51.9089 394.067,-47.8294 392.024,-43.9537"/>
<polygon fill="#2e3436" stroke="#2e3436" points="388.113,-37.2394 394.804,-42.0222 390.433,-40.2284 392.32,-43.469 391.888,-43.7206 391.456,-43.9722 389.569,-40.7316 388.971,-45.419 388.113,-37.2394 388.113,-37.2394"/>
<text text-anchor="middle" x="422.5" y="-100.8" font-family="FreeSans" font-size="8.00" fill="#2e3436">favorite</text>
</g>
<!-- N6&#45;&gt;N4 -->
<g id="edge14" class="edge"><title>N6&#45;&gt;N4</title>
<path fill="none" stroke="#2e3436" stroke-width="2" d="M189.163,-170.426C170.223,-159.571 148.728,-143.407 138,-122 125.831,-97.7183 131.522,-66.196 138.222,-44.4523"/>
<polygon fill="#2e3436" stroke="#2e3436" points="140.607,-37.197 141.471,-45.3759 139.911,-40.9157 138.74,-44.4782 138.265,-44.3221 137.79,-44.1659 138.961,-40.6034 135.059,-43.2682 140.607,-37.197 140.607,-37.197"/>
<text text-anchor="middle" x="154.5" y="-100.8" font-family="FreeSans" font-size="8.00" fill="#2e3436">favorite</text>
</g>
</g>
</svg>
