<?xml version="1.0" encoding="UTF-8" standalone="no"?>
<!DOCTYPE svg PUBLIC "-//W3C//DTD SVG 1.1//EN"
 "http://www.w3.org/Graphics/SVG/1.1/DTD/svg11.dtd">
<!-- Generated by graphviz version 2.26.3 (20100126.1600)
 -->
<!-- Title: g Pages: 1 -->
<svg width="298pt" height="160pt"
 viewBox="0.00 0.00 298.00 160.00" xmlns="http://www.w3.org/2000/svg" xmlns:xlink="http://www.w3.org/1999/xlink">
<g id="graph1" class="graph" transform="scale(1 1) rotate(0) translate(4 156)">
<title>g</title>
<polygon fill="white" stroke="white" points="-4,5 -4,-156 295,-156 295,5 -4,5"/>
<!-- N1 -->
<g id="node1" class="node"><title>N1</title>
<polygon fill="#ffffff" stroke="#ffffff" stroke-width="1.5" points="12,-6 68,-6 80,-18 80,-40 68,-52 12,-52 0,-40 0,-18 12,-6"/>
<path fill="#ffffff" stroke="#ffffff" stroke-width="1.5" d="M68,-6C74,-6 80,-12 80,-18"/>
<path fill="#ffffff" stroke="#ffffff" stroke-width="1.5" d="M80,-40C80,-46 74,-52 68,-52"/>
<path fill="#ffffff" stroke="#ffffff" stroke-width="1.5" d="M12,-52C6,-52 0,-46 0,-40"/>
<path fill="#ffffff" stroke="#ffffff" stroke-width="1.5" d="M0,-18C0,-12 6,-6 12,-6"/>
<polyline fill="none" stroke="#2e3436" stroke-width="1.5" points="12,-6 68,-6 "/>
<path fill="none" stroke="#2e3436" stroke-width="1.5" d="M68,-6C74,-6 80,-12 80,-18"/>
<polyline fill="none" stroke="#2e3436" stroke-width="1.5" points="80,-18 80,-40 "/>
<path fill="none" stroke="#2e3436" stroke-width="1.5" d="M80,-40C80,-46 74,-52 68,-52"/>
<polyline fill="none" stroke="#2e3436" stroke-width="1.5" points="68,-52 12,-52 "/>
<path fill="none" stroke="#2e3436" stroke-width="1.5" d="M12,-52C6,-52 0,-46 0,-40"/>
<polyline fill="none" stroke="#2e3436" stroke-width="1.5" points="0,-40 0,-18 "/>
<path fill="none" stroke="#2e3436" stroke-width="1.5" d="M0,-18C0,-12 6,-6 12,-6"/>
<text text-anchor="middle" x="40" y="-40.8" font-family="FreeSans" font-size="8.00" fill="#1c2021">Node[1]</text>
<polyline fill="none" stroke="#2e3436" stroke-width="1.5" points="0,-34 80,-34 "/>
<text text-anchor="start" x="8" y="-22.8" font-family="FreeSans" font-size="8.00" fill="#1c2021">name = &#39;D&#39;</text>
<text text-anchor="start" x="8" y="-12.8" font-family="FreeSans" font-size="8.00" fill="#1c2021">eyes = &#39;brown&#39;</text>
</g>
<!-- N2 -->
<g id="node2" class="node"><title>N2</title>
<polygon fill="#ffffff" stroke="#ffffff" stroke-width="1.5" points="121,-105 173,-105 185,-117 185,-139 173,-151 121,-151 109,-139 109,-117 121,-105"/>
<path fill="#ffffff" stroke="#ffffff" stroke-width="1.5" d="M173,-105C179,-105 185,-111 185,-117"/>
<path fill="#ffffff" stroke="#ffffff" stroke-width="1.5" d="M185,-139C185,-145 179,-151 173,-151"/>
<path fill="#ffffff" stroke="#ffffff" stroke-width="1.5" d="M121,-151C115,-151 109,-145 109,-139"/>
<path fill="#ffffff" stroke="#ffffff" stroke-width="1.5" d="M109,-117C109,-111 115,-105 121,-105"/>
<polyline fill="none" stroke="#2e3436" stroke-width="1.5" points="121,-105 173,-105 "/>
<path fill="none" stroke="#2e3436" stroke-width="1.5" d="M173,-105C179,-105 185,-111 185,-117"/>
<polyline fill="none" stroke="#2e3436" stroke-width="1.5" points="185,-117 185,-139 "/>
<path fill="none" stroke="#2e3436" stroke-width="1.5" d="M185,-139C185,-145 179,-151 173,-151"/>
<polyline fill="none" stroke="#2e3436" stroke-width="1.5" points="173,-151 121,-151 "/>
<path fill="none" stroke="#2e3436" stroke-width="1.5" d="M121,-151C115,-151 109,-145 109,-139"/>
<polyline fill="none" stroke="#2e3436" stroke-width="1.5" points="109,-139 109,-117 "/>
<path fill="none" stroke="#2e3436" stroke-width="1.5" d="M109,-117C109,-111 115,-105 121,-105"/>
<text text-anchor="middle" x="147" y="-139.8" font-family="FreeSans" font-size="8.00" fill="#1c2021">Node[2]</text>
<polyline fill="none" stroke="#2e3436" stroke-width="1.5" points="109,-133 185,-133 "/>
<text text-anchor="start" x="117" y="-121.8" font-family="FreeSans" font-size="8.00" fill="#1c2021">name = &#39;A&#39;</text>
<text text-anchor="start" x="117" y="-111.8" font-family="FreeSans" font-size="8.00" fill="#1c2021">property = 13</text>
</g>
<!-- N2&#45;&gt;N1 -->
<g id="edge6" class="edge"><title>N2&#45;&gt;N1</title>
<path fill="none" stroke="#2e3436" stroke-width="2" d="M121.913,-104.789C106.62,-90.6386 86.9618,-72.4506 70.7373,-57.4392"/>
<polygon fill="#2e3436" stroke="#2e3436" points="64.9296,-52.0657 72.7268,-54.6819 68.0217,-54.2454 70.7743,-56.7922 70.4347,-57.1592 70.0951,-57.5262 67.3426,-54.9795 68.1426,-59.6365 64.9296,-52.0657 64.9296,-52.0657"/>
<text text-anchor="middle" x="115.5" y="-78.8" font-family="FreeSans" font-size="8.00" fill="#2e3436">KNOWS</text>
</g>
<!-- N3 -->
<g id="node4" class="node"><title>N3</title>
<polygon fill="#ffffff" stroke="#ffffff" stroke-width="1.5" points="121,-1 173,-1 185,-13 185,-45 173,-57 121,-57 109,-45 109,-13 121,-1"/>
<path fill="#ffffff" stroke="#ffffff" stroke-width="1.5" d="M173,-1C179,-1 185,-7 185,-13"/>
<path fill="#ffffff" stroke="#ffffff" stroke-width="1.5" d="M185,-45C185,-51 179,-57 173,-57"/>
<path fill="#ffffff" stroke="#ffffff" stroke-width="1.5" d="M121,-57C115,-57 109,-51 109,-45"/>
<path fill="#ffffff" stroke="#ffffff" stroke-width="1.5" d="M109,-13C109,-7 115,-1 121,-1"/>
<polyline fill="none" stroke="#2e3436" stroke-width="1.5" points="121,-1 173,-1 "/>
<path fill="none" stroke="#2e3436" stroke-width="1.5" d="M173,-1C179,-1 185,-7 185,-13"/>
<polyline fill="none" stroke="#2e3436" stroke-width="1.5" points="185,-13 185,-45 "/>
<path fill="none" stroke="#2e3436" stroke-width="1.5" d="M185,-45C185,-51 179,-57 173,-57"/>
<polyline fill="none" stroke="#2e3436" stroke-width="1.5" points="173,-57 121,-57 "/>
<path fill="none" stroke="#2e3436" stroke-width="1.5" d="M121,-57C115,-57 109,-51 109,-45"/>
<polyline fill="none" stroke="#2e3436" stroke-width="1.5" points="109,-45 109,-13 "/>
<path fill="none" stroke="#2e3436" stroke-width="1.5" d="M109,-13C109,-7 115,-1 121,-1"/>
<text text-anchor="middle" x="147" y="-45.8" font-family="FreeSans" font-size="8.00" fill="#1c2021">Node[3]</text>
<polyline fill="none" stroke="#2e3436" stroke-width="1.5" points="109,-39 185,-39 "/>
<text text-anchor="start" x="117" y="-27.8" font-family="FreeSans" font-size="8.00" fill="#1c2021">name = &#39;B&#39;</text>
<text text-anchor="start" x="117" y="-17.8" font-family="FreeSans" font-size="8.00" fill="#1c2021">property = 33</text>
<text text-anchor="start" x="117" y="-7.8" font-family="FreeSans" font-size="8.00" fill="#1c2021">eyes = &#39;blue&#39;</text>
</g>
<!-- N2&#45;&gt;N3 -->
<g id="edge2" class="edge"><title>N2&#45;&gt;N3</title>
<path fill="none" stroke="#2e3436" stroke-width="2" d="M147,-104.789C147,-92.8452 147,-78.0249 147,-64.6661"/>
<polygon fill="#2e3436" stroke="#2e3436" points="147,-57.0024 150.375,-64.5023 147.5,-60.7524 147.5,-64.5024 147,-64.5024 146.5,-64.5024 146.5,-60.7524 143.625,-64.5024 147,-57.0024 147,-57.0024"/>
<text text-anchor="middle" x="162.5" y="-78.8" font-family="FreeSans" font-size="8.00" fill="#2e3436">KNOWS</text>
</g>
<!-- N4 -->
<g id="node6" class="node"><title>N4</title>
<polygon fill="#ffffff" stroke="#ffffff" stroke-width="1.5" points="226,-1 278,-1 290,-13 290,-45 278,-57 226,-57 214,-45 214,-13 226,-1"/>
<path fill="#ffffff" stroke="#ffffff" stroke-width="1.5" d="M278,-1C284,-1 290,-7 290,-13"/>
<path fill="#ffffff" stroke="#ffffff" stroke-width="1.5" d="M290,-45C290,-51 284,-57 278,-57"/>
<path fill="#ffffff" stroke="#ffffff" stroke-width="1.5" d="M226,-57C220,-57 214,-51 214,-45"/>
<path fill="#ffffff" stroke="#ffffff" stroke-width="1.5" d="M214,-13C214,-7 220,-1 226,-1"/>
<polyline fill="none" stroke="#2e3436" stroke-width="1.5" points="226,-1 278,-1 "/>
<path fill="none" stroke="#2e3436" stroke-width="1.5" d="M278,-1C284,-1 290,-7 290,-13"/>
<polyline fill="none" stroke="#2e3436" stroke-width="1.5" points="290,-13 290,-45 "/>
<path fill="none" stroke="#2e3436" stroke-width="1.5" d="M290,-45C290,-51 284,-57 278,-57"/>
<polyline fill="none" stroke="#2e3436" stroke-width="1.5" points="278,-57 226,-57 "/>
<path fill="none" stroke="#2e3436" stroke-width="1.5" d="M226,-57C220,-57 214,-51 214,-45"/>
<polyline fill="none" stroke="#2e3436" stroke-width="1.5" points="214,-45 214,-13 "/>
<path fill="none" stroke="#2e3436" stroke-width="1.5" d="M214,-13C214,-7 220,-1 226,-1"/>
<text text-anchor="middle" x="252" y="-45.8" font-family="FreeSans" font-size="8.00" fill="#1c2021">Node[4]</text>
<polyline fill="none" stroke="#2e3436" stroke-width="1.5" points="214,-39 290,-39 "/>
<text text-anchor="start" x="222" y="-27.8" font-family="FreeSans" font-size="8.00" fill="#1c2021">name = &#39;C&#39;</text>
<text text-anchor="start" x="222" y="-17.8" font-family="FreeSans" font-size="8.00" fill="#1c2021">property = 44</text>
<text text-anchor="start" x="222" y="-7.8" font-family="FreeSans" font-size="8.00" fill="#1c2021">eyes = &#39;blue&#39;</text>
</g>
<!-- N2&#45;&gt;N4 -->
<g id="edge4" class="edge"><title>N2&#45;&gt;N4</title>
<path fill="none" stroke="#2e3436" stroke-width="2" d="M171.618,-104.789C184.996,-92.1754 201.776,-76.3537 216.54,-62.4334"/>
<polygon fill="#2e3436" stroke="#2e3436" points="222.3,-57.0024 219.159,-64.6031 219.915,-59.9387 217.187,-62.5113 216.844,-62.1475 216.501,-61.7837 219.229,-59.2112 214.528,-59.6919 222.3,-57.0024 222.3,-57.0024"/>
<text text-anchor="middle" x="214.5" y="-78.8" font-family="FreeSans" font-size="8.00" fill="#2e3436">KNOWS</text>
</g>
</g>
</svg>
