<?xml version="1.0" encoding="UTF-8" standalone="no"?>
<!DOCTYPE svg PUBLIC "-//W3C//DTD SVG 1.1//EN"
 "http://www.w3.org/Graphics/SVG/1.1/DTD/svg11.dtd">
<!-- Generated by graphviz version 2.26.3 (20100126.1600)
 -->
<!-- Title: g Pages: 1 -->
<svg width="78pt" height="264pt"
 viewBox="0.00 0.00 78.00 264.00" xmlns="http://www.w3.org/2000/svg" xmlns:xlink="http://www.w3.org/1999/xlink">
<g id="graph1" class="graph" transform="scale(1 1) rotate(0) translate(4 260)">
<title>g</title>
<polygon fill="white" stroke="white" points="-4,5 -4,-260 75,-260 75,5 -4,5"/>
<!-- N1 -->
<g id="node1" class="node"><title>N1</title>
<polygon fill="#ffffff" stroke="#ffffff" stroke-width="1.5" points="11.5,-199 58.5,-199 70.5,-211 70.5,-243 58.5,-255 11.5,-255 -0.5,-243 -0.5,-211 11.5,-199"/>
<path fill="#ffffff" stroke="#ffffff" stroke-width="1.5" d="M58.5,-199C64.5,-199 70.5,-205 70.5,-211"/>
<path fill="#ffffff" stroke="#ffffff" stroke-width="1.5" d="M70.5,-243C70.5,-249 64.5,-255 58.5,-255"/>
<path fill="#ffffff" stroke="#ffffff" stroke-width="1.5" d="M11.5,-255C5.5,-255 -0.5,-249 -0.5,-243"/>
<path fill="#ffffff" stroke="#ffffff" stroke-width="1.5" d="M-0.5,-211C-0.5,-205 5.5,-199 11.5,-199"/>
<polyline fill="none" stroke="#2e3436" stroke-width="1.5" points="11.5,-199 58.5,-199 "/>
<path fill="none" stroke="#2e3436" stroke-width="1.5" d="M58.5,-199C64.5,-199 70.5,-205 70.5,-211"/>
<polyline fill="none" stroke="#2e3436" stroke-width="1.5" points="70.5,-211 70.5,-243 "/>
<path fill="none" stroke="#2e3436" stroke-width="1.5" d="M70.5,-243C70.5,-249 64.5,-255 58.5,-255"/>
<polyline fill="none" stroke="#2e3436" stroke-width="1.5" points="58.5,-255 11.5,-255 "/>
<path fill="none" stroke="#2e3436" stroke-width="1.5" d="M11.5,-255C5.5,-255 -0.5,-249 -0.5,-243"/>
<polyline fill="none" stroke="#2e3436" stroke-width="1.5" points="-0.5,-243 -0.5,-211 "/>
<path fill="none" stroke="#2e3436" stroke-width="1.5" d="M-0.5,-211C-0.5,-205 5.5,-199 11.5,-199"/>
<text text-anchor="middle" x="35" y="-243.8" font-family="FreeSans" font-size="8.00" fill="#1c2021">Node[1]</text>
<polyline fill="none" stroke="#2e3436" stroke-width="1.5" points="-0.5,-237 70.5,-237 "/>
<text text-anchor="start" x="7.5" y="-225.8" font-family="FreeSans" font-size="8.00" fill="#1c2021">name = &#39;A&#39;</text>
<text text-anchor="start" x="7.5" y="-215.8" font-family="FreeSans" font-size="8.00" fill="#1c2021">age = 34</text>
<text text-anchor="start" x="7.5" y="-205.8" font-family="FreeSans" font-size="8.00" fill="#1c2021">length = 170</text>
</g>
<!-- N2 -->
<g id="node3" class="node"><title>N2</title>
<polygon fill="#ffffff" stroke="#ffffff" stroke-width="1.5" points="15,-105 55,-105 67,-117 67,-139 55,-151 15,-151 3,-139 3,-117 15,-105"/>
<path fill="#ffffff" stroke="#ffffff" stroke-width="1.5" d="M55,-105C61,-105 67,-111 67,-117"/>
<path fill="#ffffff" stroke="#ffffff" stroke-width="1.5" d="M67,-139C67,-145 61,-151 55,-151"/>
<path fill="#ffffff" stroke="#ffffff" stroke-width="1.5" d="M15,-151C9,-151 3,-145 3,-139"/>
<path fill="#ffffff" stroke="#ffffff" stroke-width="1.5" d="M3,-117C3,-111 9,-105 15,-105"/>
<polyline fill="none" stroke="#2e3436" stroke-width="1.5" points="15,-105 55,-105 "/>
<path fill="none" stroke="#2e3436" stroke-width="1.5" d="M55,-105C61,-105 67,-111 67,-117"/>
<polyline fill="none" stroke="#2e3436" stroke-width="1.5" points="67,-117 67,-139 "/>
<path fill="none" stroke="#2e3436" stroke-width="1.5" d="M67,-139C67,-145 61,-151 55,-151"/>
<polyline fill="none" stroke="#2e3436" stroke-width="1.5" points="55,-151 15,-151 "/>
<path fill="none" stroke="#2e3436" stroke-width="1.5" d="M15,-151C9,-151 3,-145 3,-139"/>
<polyline fill="none" stroke="#2e3436" stroke-width="1.5" points="3,-139 3,-117 "/>
<path fill="none" stroke="#2e3436" stroke-width="1.5" d="M3,-117C3,-111 9,-105 15,-105"/>
<text text-anchor="middle" x="35" y="-139.8" font-family="FreeSans" font-size="8.00" fill="#1c2021">Node[2]</text>
<polyline fill="none" stroke="#2e3436" stroke-width="1.5" points="3,-133 67,-133 "/>
<text text-anchor="start" x="11" y="-121.8" font-family="FreeSans" font-size="8.00" fill="#1c2021">name = &#39;B&#39;</text>
<text text-anchor="start" x="11" y="-111.8" font-family="FreeSans" font-size="8.00" fill="#1c2021">age = 34</text>
</g>
<!-- N1&#45;&gt;N2 -->
<g id="edge2" class="edge"><title>N1&#45;&gt;N2</title>
<path fill="none" stroke="#2e3436" stroke-width="2" d="M35,-198.895C35,-186.398 35,-171.647 35,-158.845"/>
<polygon fill="#2e3436" stroke="#2e3436" points="35,-151.164 38.3751,-158.664 35.5,-154.914 35.5001,-158.664 35.0001,-158.664 34.5001,-158.664 34.5,-154.914 31.6251,-158.664 35,-151.164 35,-151.164"/>
<text text-anchor="middle" x="50.5" y="-172.8" font-family="FreeSans" font-size="8.00" fill="#2e3436">KNOWS</text>
</g>
<!-- N3 -->
<g id="node5" class="node"><title>N3</title>
<polygon fill="#ffffff" stroke="#ffffff" stroke-width="1.5" points="11.5,-1 58.5,-1 70.5,-13 70.5,-45 58.5,-57 11.5,-57 -0.5,-45 -0.5,-13 11.5,-1"/>
<path fill="#ffffff" stroke="#ffffff" stroke-width="1.5" d="M58.5,-1C64.5,-1 70.5,-7 70.5,-13"/>
<path fill="#ffffff" stroke="#ffffff" stroke-width="1.5" d="M70.5,-45C70.5,-51 64.5,-57 58.5,-57"/>
<path fill="#ffffff" stroke="#ffffff" stroke-width="1.5" d="M11.5,-57C5.5,-57 -0.5,-51 -0.5,-45"/>
<path fill="#ffffff" stroke="#ffffff" stroke-width="1.5" d="M-0.5,-13C-0.5,-7 5.5,-1 11.5,-1"/>
<polyline fill="none" stroke="#2e3436" stroke-width="1.5" points="11.5,-1 58.5,-1 "/>
<path fill="none" stroke="#2e3436" stroke-width="1.5" d="M58.5,-1C64.5,-1 70.5,-7 70.5,-13"/>
<polyline fill="none" stroke="#2e3436" stroke-width="1.5" points="70.5,-13 70.5,-45 "/>
<path fill="none" stroke="#2e3436" stroke-width="1.5" d="M70.5,-45C70.5,-51 64.5,-57 58.5,-57"/>
<polyline fill="none" stroke="#2e3436" stroke-width="1.5" points="58.5,-57 11.5,-57 "/>
<path fill="none" stroke="#2e3436" stroke-width="1.5" d="M11.5,-57C5.5,-57 -0.5,-51 -0.5,-45"/>
<polyline fill="none" stroke="#2e3436" stroke-width="1.5" points="-0.5,-45 -0.5,-13 "/>
<path fill="none" stroke="#2e3436" stroke-width="1.5" d="M-0.5,-13C-0.5,-7 5.5,-1 11.5,-1"/>
<text text-anchor="middle" x="35" y="-45.8" font-family="FreeSans" font-size="8.00" fill="#1c2021">Node[3]</text>
<polyline fill="none" stroke="#2e3436" stroke-width="1.5" points="-0.5,-39 70.5,-39 "/>
<text text-anchor="start" x="7.5" y="-27.8" font-family="FreeSans" font-size="8.00" fill="#1c2021">name = &#39;C&#39;</text>
<text text-anchor="start" x="7.5" y="-17.8" font-family="FreeSans" font-size="8.00" fill="#1c2021">age = 32</text>
<text text-anchor="start" x="7.5" y="-7.8" font-family="FreeSans" font-size="8.00" fill="#1c2021">length = 185</text>
</g>
<!-- N2&#45;&gt;N3 -->
<g id="edge4" class="edge"><title>N2&#45;&gt;N3</title>
<path fill="none" stroke="#2e3436" stroke-width="2" d="M35,-104.789C35,-92.8452 35,-78.0249 35,-64.6661"/>
<polygon fill="#2e3436" stroke="#2e3436" points="35,-57.0024 38.3751,-64.5023 35.5,-60.7524 35.5001,-64.5024 35.0001,-64.5024 34.5001,-64.5024 34.5,-60.7524 31.6251,-64.5024 35,-57.0024 35,-57.0024"/>
<text text-anchor="middle" x="50.5" y="-78.8" font-family="FreeSans" font-size="8.00" fill="#2e3436">KNOWS</text>
</g>
</g>
</svg>
