<?xml version="1.0" encoding="UTF-8" standalone="no"?>
<!DOCTYPE svg PUBLIC "-//W3C//DTD SVG 1.1//EN"
 "http://www.w3.org/Graphics/SVG/1.1/DTD/svg11.dtd">
<!-- Generated by graphviz version 2.26.3 (20100126.1600)
 -->
<!-- Title: g Pages: 1 -->
<svg width="227pt" height="214pt"
 viewBox="0.00 0.00 227.00 214.00" xmlns="http://www.w3.org/2000/svg" xmlns:xlink="http://www.w3.org/1999/xlink">
<g id="graph1" class="graph" transform="scale(1 1) rotate(0) translate(4 210)">
<title>g</title>
<polygon fill="white" stroke="white" points="-4,5 -4,-210 224,-210 224,5 -4,5"/>
<!-- N1 -->
<g id="node1" class="node"><title>N1</title>
<polygon fill="#ffffff" stroke="#ffffff" stroke-width="1.5" points="11.5,-85 50.5,-85 62.5,-97 62.5,-109 50.5,-121 11.5,-121 -0.5,-109 -0.5,-97 11.5,-85"/>
<path fill="#ffffff" stroke="#ffffff" stroke-width="1.5" d="M50.5,-85C56.5,-85 62.5,-91 62.5,-97"/>
<path fill="#ffffff" stroke="#ffffff" stroke-width="1.5" d="M62.5,-109C62.5,-115 56.5,-121 50.5,-121"/>
<path fill="#ffffff" stroke="#ffffff" stroke-width="1.5" d="M11.5,-121C5.5,-121 -0.5,-115 -0.5,-109"/>
<path fill="#ffffff" stroke="#ffffff" stroke-width="1.5" d="M-0.5,-97C-0.5,-91 5.5,-85 11.5,-85"/>
<polyline fill="none" stroke="#2e3436" stroke-width="1.5" points="11.5,-85 50.5,-85 "/>
<path fill="none" stroke="#2e3436" stroke-width="1.5" d="M50.5,-85C56.5,-85 62.5,-91 62.5,-97"/>
<polyline fill="none" stroke="#2e3436" stroke-width="1.5" points="62.5,-97 62.5,-109 "/>
<path fill="none" stroke="#2e3436" stroke-width="1.5" d="M62.5,-109C62.5,-115 56.5,-121 50.5,-121"/>
<polyline fill="none" stroke="#2e3436" stroke-width="1.5" points="50.5,-121 11.5,-121 "/>
<path fill="none" stroke="#2e3436" stroke-width="1.5" d="M11.5,-121C5.5,-121 -0.5,-115 -0.5,-109"/>
<polyline fill="none" stroke="#2e3436" stroke-width="1.5" points="-0.5,-109 -0.5,-97 "/>
<path fill="none" stroke="#2e3436" stroke-width="1.5" d="M-0.5,-97C-0.5,-91 5.5,-85 11.5,-85"/>
<text text-anchor="middle" x="31" y="-109.8" font-family="FreeSans" font-size="8.00" fill="#1c2021">Node[1]</text>
<polyline fill="none" stroke="#2e3436" stroke-width="1.5" points="-0.5,-103 62.5,-103 "/>
<text text-anchor="start" x="7.5" y="-91.8" font-family="FreeSans" font-size="8.00" fill="#1c2021">name = &#39;A&#39;</text>
</g>
<!-- N4 -->
<g id="node3" class="node"><title>N4</title>
<polygon fill="#ffffff" stroke="#ffffff" stroke-width="1.5" points="65,-1 105,-1 117,-13 117,-25 105,-37 65,-37 53,-25 53,-13 65,-1"/>
<path fill="#ffffff" stroke="#ffffff" stroke-width="1.5" d="M105,-1C111,-1 117,-7 117,-13"/>
<path fill="#ffffff" stroke="#ffffff" stroke-width="1.5" d="M117,-25C117,-31 111,-37 105,-37"/>
<path fill="#ffffff" stroke="#ffffff" stroke-width="1.5" d="M65,-37C59,-37 53,-31 53,-25"/>
<path fill="#ffffff" stroke="#ffffff" stroke-width="1.5" d="M53,-13C53,-7 59,-1 65,-1"/>
<polyline fill="none" stroke="#2e3436" stroke-width="1.5" points="65,-1 105,-1 "/>
<path fill="none" stroke="#2e3436" stroke-width="1.5" d="M105,-1C111,-1 117,-7 117,-13"/>
<polyline fill="none" stroke="#2e3436" stroke-width="1.5" points="117,-13 117,-25 "/>
<path fill="none" stroke="#2e3436" stroke-width="1.5" d="M117,-25C117,-31 111,-37 105,-37"/>
<polyline fill="none" stroke="#2e3436" stroke-width="1.5" points="105,-37 65,-37 "/>
<path fill="none" stroke="#2e3436" stroke-width="1.5" d="M65,-37C59,-37 53,-31 53,-25"/>
<polyline fill="none" stroke="#2e3436" stroke-width="1.5" points="53,-25 53,-13 "/>
<path fill="none" stroke="#2e3436" stroke-width="1.5" d="M53,-13C53,-7 59,-1 65,-1"/>
<text text-anchor="middle" x="85" y="-25.8" font-family="FreeSans" font-size="8.00" fill="#1c2021">Node[4]</text>
<polyline fill="none" stroke="#2e3436" stroke-width="1.5" points="53,-19 117,-19 "/>
<text text-anchor="start" x="61" y="-7.8" font-family="FreeSans" font-size="8.00" fill="#1c2021">name = &#39;C&#39;</text>
</g>
<!-- N1&#45;&gt;N4 -->
<g id="edge2" class="edge"><title>N1&#45;&gt;N4</title>
<path fill="none" stroke="#2e3436" stroke-width="2" d="M42.7172,-84.7733C50.4303,-72.7751 60.6245,-56.9174 69.0706,-43.779"/>
<polygon fill="#2e3436" stroke="#2e3436" points="73.3057,-37.1912 72.0889,-45.3251 71.6984,-40.616 69.6705,-43.7704 69.2499,-43.5 68.8294,-43.2296 70.8572,-40.0752 66.411,-41.675 73.3057,-37.1912 73.3057,-37.1912"/>
<text text-anchor="middle" x="75.5" y="-58.8" font-family="FreeSans" font-size="8.00" fill="#2e3436">KNOWS</text>
</g>
<!-- N2 -->
<g id="node4" class="node"><title>N2</title>
<polygon fill="#ffffff" stroke="#ffffff" stroke-width="1.5" points="94.5,-169 145.5,-169 157.5,-181 157.5,-193 145.5,-205 94.5,-205 82.5,-193 82.5,-181 94.5,-169"/>
<path fill="#ffffff" stroke="#ffffff" stroke-width="1.5" d="M145.5,-169C151.5,-169 157.5,-175 157.5,-181"/>
<path fill="#ffffff" stroke="#ffffff" stroke-width="1.5" d="M157.5,-193C157.5,-199 151.5,-205 145.5,-205"/>
<path fill="#ffffff" stroke="#ffffff" stroke-width="1.5" d="M94.5,-205C88.5,-205 82.5,-199 82.5,-193"/>
<path fill="#ffffff" stroke="#ffffff" stroke-width="1.5" d="M82.5,-181C82.5,-175 88.5,-169 94.5,-169"/>
<polyline fill="none" stroke="#2e3436" stroke-width="1.5" points="94.5,-169 145.5,-169 "/>
<path fill="none" stroke="#2e3436" stroke-width="1.5" d="M145.5,-169C151.5,-169 157.5,-175 157.5,-181"/>
<polyline fill="none" stroke="#2e3436" stroke-width="1.5" points="157.5,-181 157.5,-193 "/>
<path fill="none" stroke="#2e3436" stroke-width="1.5" d="M157.5,-193C157.5,-199 151.5,-205 145.5,-205"/>
<polyline fill="none" stroke="#2e3436" stroke-width="1.5" points="145.5,-205 94.5,-205 "/>
<path fill="none" stroke="#2e3436" stroke-width="1.5" d="M94.5,-205C88.5,-205 82.5,-199 82.5,-193"/>
<polyline fill="none" stroke="#2e3436" stroke-width="1.5" points="82.5,-193 82.5,-181 "/>
<path fill="none" stroke="#2e3436" stroke-width="1.5" d="M82.5,-181C82.5,-175 88.5,-169 94.5,-169"/>
<text text-anchor="middle" x="120" y="-193.8" font-family="FreeSans" font-size="8.00" fill="#1c2021">Node[2]</text>
<polyline fill="none" stroke="#2e3436" stroke-width="1.5" points="82.5,-187 157.5,-187 "/>
<text text-anchor="start" x="90.5" y="-175.8" font-family="FreeSans" font-size="8.00" fill="#1c2021">name = &#39;root&#39;</text>
</g>
<!-- N2&#45;&gt;N1 -->
<g id="edge4" class="edge"><title>N2&#45;&gt;N1</title>
<path fill="none" stroke="#4e9a06" stroke-width="2" d="M100.688,-168.773C87.5095,-156.335 69.9358,-139.748 55.7334,-126.344"/>
<polygon fill="#4e9a06" stroke="#4e9a06" points="50.274,-121.191 58.0449,-123.885 53.3443,-123.402 56.0715,-125.975 55.7283,-126.339 55.3851,-126.703 52.658,-124.129 53.4118,-128.794 50.274,-121.191 50.274,-121.191"/>
<text text-anchor="middle" x="82" y="-142.8" font-family="FreeSans" font-size="8.00" fill="#4e9a06">X</text>
</g>
<!-- N2&#45;&gt;N4 -->
<g id="edge8" class="edge"><title>N2&#45;&gt;N4</title>
<path fill="none" stroke="#4e9a06" stroke-width="2" d="M117.97,-168.998C114.876,-143.557 108.241,-95.7517 98,-56 97.0271,-52.2233 95.8387,-48.2842 94.5799,-44.4446"/>
<polygon fill="#4e9a06" stroke="#4e9a06" points="92.1108,-37.2521 97.7382,-43.2499 93.8014,-40.6366 95.019,-44.1834 94.5461,-44.3458 94.0732,-44.5081 92.8555,-40.9613 91.3539,-45.4416 92.1108,-37.2521 92.1108,-37.2521"/>
<text text-anchor="middle" x="115" y="-100.8" font-family="FreeSans" font-size="8.00" fill="#4e9a06">X</text>
</g>
<!-- N3 -->
<g id="node7" class="node"><title>N3</title>
<polygon fill="#ffffff" stroke="#ffffff" stroke-width="1.5" points="167,-85 207,-85 219,-97 219,-109 207,-121 167,-121 155,-109 155,-97 167,-85"/>
<path fill="#ffffff" stroke="#ffffff" stroke-width="1.5" d="M207,-85C213,-85 219,-91 219,-97"/>
<path fill="#ffffff" stroke="#ffffff" stroke-width="1.5" d="M219,-109C219,-115 213,-121 207,-121"/>
<path fill="#ffffff" stroke="#ffffff" stroke-width="1.5" d="M167,-121C161,-121 155,-115 155,-109"/>
<path fill="#ffffff" stroke="#ffffff" stroke-width="1.5" d="M155,-97C155,-91 161,-85 167,-85"/>
<polyline fill="none" stroke="#2e3436" stroke-width="1.5" points="167,-85 207,-85 "/>
<path fill="none" stroke="#2e3436" stroke-width="1.5" d="M207,-85C213,-85 219,-91 219,-97"/>
<polyline fill="none" stroke="#2e3436" stroke-width="1.5" points="219,-97 219,-109 "/>
<path fill="none" stroke="#2e3436" stroke-width="1.5" d="M219,-109C219,-115 213,-121 207,-121"/>
<polyline fill="none" stroke="#2e3436" stroke-width="1.5" points="207,-121 167,-121 "/>
<path fill="none" stroke="#2e3436" stroke-width="1.5" d="M167,-121C161,-121 155,-115 155,-109"/>
<polyline fill="none" stroke="#2e3436" stroke-width="1.5" points="155,-109 155,-97 "/>
<path fill="none" stroke="#2e3436" stroke-width="1.5" d="M155,-97C155,-91 161,-85 167,-85"/>
<text text-anchor="middle" x="187" y="-109.8" font-family="FreeSans" font-size="8.00" fill="#1c2021">Node[3]</text>
<polyline fill="none" stroke="#2e3436" stroke-width="1.5" points="155,-103 219,-103 "/>
<text text-anchor="start" x="163" y="-91.8" font-family="FreeSans" font-size="8.00" fill="#1c2021">name = &#39;B&#39;</text>
</g>
<!-- N2&#45;&gt;N3 -->
<g id="edge6" class="edge"><title>N2&#45;&gt;N3</title>
<path fill="none" stroke="#4e9a06" stroke-width="2" d="M134.538,-168.773C144.284,-156.555 157.222,-140.334 167.81,-127.059"/>
<polygon fill="#4e9a06" stroke="#4e9a06" points="172.49,-121.191 170.452,-129.159 170.543,-124.435 168.205,-127.366 167.814,-127.055 167.423,-126.743 169.761,-123.811 165.175,-124.95 172.49,-121.191 172.49,-121.191"/>
<text text-anchor="middle" x="158" y="-142.8" font-family="FreeSans" font-size="8.00" fill="#4e9a06">X</text>
</g>
</g>
</svg>
