<?xml version="1.0" encoding="UTF-8" standalone="no"?>
<!DOCTYPE svg PUBLIC "-//W3C//DTD SVG 1.1//EN"
 "http://www.w3.org/Graphics/SVG/1.1/DTD/svg11.dtd">
<!-- Generated by graphviz version 2.26.3 (20100126.1600)
 -->
<!-- Title: g Pages: 1 -->
<svg width="179pt" height="140pt"
 viewBox="0.00 0.00 179.00 140.00" xmlns="http://www.w3.org/2000/svg" xmlns:xlink="http://www.w3.org/1999/xlink">
<g id="graph1" class="graph" transform="scale(1 1) rotate(0) translate(4 136)">
<title>g</title>
<polygon fill="white" stroke="white" points="-4,5 -4,-136 176,-136 176,5 -4,5"/>
<!-- N1 -->
<g id="node1" class="node"><title>N1</title>
<polygon fill="#ffffff" stroke="#ffffff" stroke-width="1.5" points="11.5,-95 58.5,-95 70.5,-107 70.5,-119 58.5,-131 11.5,-131 -0.5,-119 -0.5,-107 11.5,-95"/>
<path fill="#ffffff" stroke="#ffffff" stroke-width="1.5" d="M58.5,-95C64.5,-95 70.5,-101 70.5,-107"/>
<path fill="#ffffff" stroke="#ffffff" stroke-width="1.5" d="M70.5,-119C70.5,-125 64.5,-131 58.5,-131"/>
<path fill="#ffffff" stroke="#ffffff" stroke-width="1.5" d="M11.5,-131C5.5,-131 -0.5,-125 -0.5,-119"/>
<path fill="#ffffff" stroke="#ffffff" stroke-width="1.5" d="M-0.5,-107C-0.5,-101 5.5,-95 11.5,-95"/>
<polyline fill="none" stroke="#2e3436" stroke-width="1.5" points="11.5,-95 58.5,-95 "/>
<path fill="none" stroke="#2e3436" stroke-width="1.5" d="M58.5,-95C64.5,-95 70.5,-101 70.5,-107"/>
<polyline fill="none" stroke="#2e3436" stroke-width="1.5" points="70.5,-107 70.5,-119 "/>
<path fill="none" stroke="#2e3436" stroke-width="1.5" d="M70.5,-119C70.5,-125 64.5,-131 58.5,-131"/>
<polyline fill="none" stroke="#2e3436" stroke-width="1.5" points="58.5,-131 11.5,-131 "/>
<path fill="none" stroke="#2e3436" stroke-width="1.5" d="M11.5,-131C5.5,-131 -0.5,-125 -0.5,-119"/>
<polyline fill="none" stroke="#2e3436" stroke-width="1.5" points="-0.5,-119 -0.5,-107 "/>
<path fill="none" stroke="#2e3436" stroke-width="1.5" d="M-0.5,-107C-0.5,-101 5.5,-95 11.5,-95"/>
<text text-anchor="start" x="7.5" y="-110.8" font-family="FreeSans" font-size="8.00" fill="#1c2021">name = &#39;me&#39;</text>
</g>
<!-- N2 -->
<g id="node3" class="node"><title>N2</title>
<polygon fill="#ffffff" stroke="#ffffff" stroke-width="1.5" points="57,-1 113,-1 125,-13 125,-25 113,-37 57,-37 45,-25 45,-13 57,-1"/>
<path fill="#ffffff" stroke="#ffffff" stroke-width="1.5" d="M113,-1C119,-1 125,-7 125,-13"/>
<path fill="#ffffff" stroke="#ffffff" stroke-width="1.5" d="M125,-25C125,-31 119,-37 113,-37"/>
<path fill="#ffffff" stroke="#ffffff" stroke-width="1.5" d="M57,-37C51,-37 45,-31 45,-25"/>
<path fill="#ffffff" stroke="#ffffff" stroke-width="1.5" d="M45,-13C45,-7 51,-1 57,-1"/>
<polyline fill="none" stroke="#2e3436" stroke-width="1.5" points="57,-1 113,-1 "/>
<path fill="none" stroke="#2e3436" stroke-width="1.5" d="M113,-1C119,-1 125,-7 125,-13"/>
<polyline fill="none" stroke="#2e3436" stroke-width="1.5" points="125,-13 125,-25 "/>
<path fill="none" stroke="#2e3436" stroke-width="1.5" d="M125,-25C125,-31 119,-37 113,-37"/>
<polyline fill="none" stroke="#2e3436" stroke-width="1.5" points="113,-37 57,-37 "/>
<path fill="none" stroke="#2e3436" stroke-width="1.5" d="M57,-37C51,-37 45,-31 45,-25"/>
<polyline fill="none" stroke="#2e3436" stroke-width="1.5" points="45,-25 45,-13 "/>
<path fill="none" stroke="#2e3436" stroke-width="1.5" d="M45,-13C45,-7 51,-1 57,-1"/>
<text text-anchor="start" x="53" y="-16.8" font-family="FreeSans" font-size="8.00" fill="#1c2021">name = &#39;meat&#39;</text>
</g>
<!-- N1&#45;&gt;N2 -->
<g id="edge2" class="edge"><title>N1&#45;&gt;N2</title>
<path fill="none" stroke="#2e3436" stroke-width="2" d="M37.8174,-94.959C40.1653,-83.309 44.2454,-68.1207 51,-56 53.5109,-51.4944 56.6755,-47.0964 60.0581,-42.9966"/>
<polygon fill="#2e3436" stroke="#2e3436" points="65.119,-37.2255 62.7115,-45.0897 63.0224,-40.3746 60.5499,-43.1941 60.1739,-42.8644 59.798,-42.5348 62.2705,-39.7153 57.6364,-40.6392 65.119,-37.2255 65.119,-37.2255"/>
<text text-anchor="middle" x="75" y="-68.8" font-family="FreeSans" font-size="8.00" fill="#2e3436">ATE</text>
<text text-anchor="start" x="51" y="-58.8" font-family="FreeSans" font-size="8.00" fill="#2e3436">times = 10</text>
</g>
<!-- N3 -->
<g id="node4" class="node"><title>N3</title>
<polygon fill="#ffffff" stroke="#ffffff" stroke-width="1.5" points="110.5,-95 159.5,-95 171.5,-107 171.5,-119 159.5,-131 110.5,-131 98.5,-119 98.5,-107 110.5,-95"/>
<path fill="#ffffff" stroke="#ffffff" stroke-width="1.5" d="M159.5,-95C165.5,-95 171.5,-101 171.5,-107"/>
<path fill="#ffffff" stroke="#ffffff" stroke-width="1.5" d="M171.5,-119C171.5,-125 165.5,-131 159.5,-131"/>
<path fill="#ffffff" stroke="#ffffff" stroke-width="1.5" d="M110.5,-131C104.5,-131 98.5,-125 98.5,-119"/>
<path fill="#ffffff" stroke="#ffffff" stroke-width="1.5" d="M98.5,-107C98.5,-101 104.5,-95 110.5,-95"/>
<polyline fill="none" stroke="#2e3436" stroke-width="1.5" points="110.5,-95 159.5,-95 "/>
<path fill="none" stroke="#2e3436" stroke-width="1.5" d="M159.5,-95C165.5,-95 171.5,-101 171.5,-107"/>
<polyline fill="none" stroke="#2e3436" stroke-width="1.5" points="171.5,-107 171.5,-119 "/>
<path fill="none" stroke="#2e3436" stroke-width="1.5" d="M171.5,-119C171.5,-125 165.5,-131 159.5,-131"/>
<polyline fill="none" stroke="#2e3436" stroke-width="1.5" points="159.5,-131 110.5,-131 "/>
<path fill="none" stroke="#2e3436" stroke-width="1.5" d="M110.5,-131C104.5,-131 98.5,-125 98.5,-119"/>
<polyline fill="none" stroke="#2e3436" stroke-width="1.5" points="98.5,-119 98.5,-107 "/>
<path fill="none" stroke="#2e3436" stroke-width="1.5" d="M98.5,-107C98.5,-101 104.5,-95 110.5,-95"/>
<text text-anchor="start" x="106.5" y="-110.8" font-family="FreeSans" font-size="8.00" fill="#1c2021">name = &#39;you&#39;</text>
</g>
<!-- N3&#45;&gt;N2 -->
<g id="edge4" class="edge"><title>N3&#45;&gt;N2</title>
<path fill="none" stroke="#2e3436" stroke-width="2" d="M125.359,-94.8759C117.682,-80.4413 106.848,-60.074 98.3378,-44.075"/>
<polygon fill="#2e3436" stroke="#2e3436" points="94.6109,-37.0685 101.113,-42.1051 96.8134,-40.1445 98.5745,-43.4552 98.1331,-43.6901 97.6916,-43.9249 95.9305,-40.6141 95.1534,-45.275 94.6109,-37.0685 94.6109,-37.0685"/>
<text text-anchor="middle" x="135.5" y="-68.8" font-family="FreeSans" font-size="8.00" fill="#2e3436">ATE</text>
<text text-anchor="start" x="114" y="-58.8" font-family="FreeSans" font-size="8.00" fill="#2e3436">times = 5</text>
</g>
</g>
</svg>
