<?xml version="1.0" encoding="UTF-8" standalone="no"?>
<!DOCTYPE svg PUBLIC "-//W3C//DTD SVG 1.1//EN"
 "http://www.w3.org/Graphics/SVG/1.1/DTD/svg11.dtd">
<!-- Generated by graphviz version 2.26.3 (20100126.1600)
 -->
<!-- Title: g Pages: 1 -->
<svg width="217pt" height="298pt"
 viewBox="0.00 0.00 217.00 298.00" xmlns="http://www.w3.org/2000/svg" xmlns:xlink="http://www.w3.org/1999/xlink">
<g id="graph1" class="graph" transform="scale(1 1) rotate(0) translate(4 294)">
<title>g</title>
<polygon fill="white" stroke="white" points="-4,5 -4,-294 214,-294 214,5 -4,5"/>
<!-- N1 -->
<g id="node1" class="node"><title>N1</title>
<polygon fill="#ffffff" stroke="#ffffff" stroke-width="1.5" points="106.5,-253 163.5,-253 175.5,-265 175.5,-277 163.5,-289 106.5,-289 94.5,-277 94.5,-265 106.5,-253"/>
<path fill="#ffffff" stroke="#ffffff" stroke-width="1.5" d="M163.5,-253C169.5,-253 175.5,-259 175.5,-265"/>
<path fill="#ffffff" stroke="#ffffff" stroke-width="1.5" d="M175.5,-277C175.5,-283 169.5,-289 163.5,-289"/>
<path fill="#ffffff" stroke="#ffffff" stroke-width="1.5" d="M106.5,-289C100.5,-289 94.5,-283 94.5,-277"/>
<path fill="#ffffff" stroke="#ffffff" stroke-width="1.5" d="M94.5,-265C94.5,-259 100.5,-253 106.5,-253"/>
<polyline fill="none" stroke="#2e3436" stroke-width="1.5" points="106.5,-253 163.5,-253 "/>
<path fill="none" stroke="#2e3436" stroke-width="1.5" d="M163.5,-253C169.5,-253 175.5,-259 175.5,-265"/>
<polyline fill="none" stroke="#2e3436" stroke-width="1.5" points="175.5,-265 175.5,-277 "/>
<path fill="none" stroke="#2e3436" stroke-width="1.5" d="M175.5,-277C175.5,-283 169.5,-289 163.5,-289"/>
<polyline fill="none" stroke="#2e3436" stroke-width="1.5" points="163.5,-289 106.5,-289 "/>
<path fill="none" stroke="#2e3436" stroke-width="1.5" d="M106.5,-289C100.5,-289 94.5,-283 94.5,-277"/>
<polyline fill="none" stroke="#2e3436" stroke-width="1.5" points="94.5,-277 94.5,-265 "/>
<path fill="none" stroke="#2e3436" stroke-width="1.5" d="M94.5,-265C94.5,-259 100.5,-253 106.5,-253"/>
<text text-anchor="middle" x="135" y="-277.8" font-family="FreeSans" font-size="8.00" fill="#1c2021">Node[1]</text>
<polyline fill="none" stroke="#2e3436" stroke-width="1.5" points="94.5,-271 175.5,-271 "/>
<text text-anchor="start" x="102.5" y="-259.8" font-family="FreeSans" font-size="8.00" fill="#1c2021">name = &#39;David&#39;</text>
</g>
<!-- N3 -->
<g id="node3" class="node"><title>N3</title>
<polygon fill="#ffffff" stroke="#ffffff" stroke-width="1.5" points="27,-169 91,-169 103,-181 103,-193 91,-205 27,-205 15,-193 15,-181 27,-169"/>
<path fill="#ffffff" stroke="#ffffff" stroke-width="1.5" d="M91,-169C97,-169 103,-175 103,-181"/>
<path fill="#ffffff" stroke="#ffffff" stroke-width="1.5" d="M103,-193C103,-199 97,-205 91,-205"/>
<path fill="#ffffff" stroke="#ffffff" stroke-width="1.5" d="M27,-205C21,-205 15,-199 15,-193"/>
<path fill="#ffffff" stroke="#ffffff" stroke-width="1.5" d="M15,-181C15,-175 21,-169 27,-169"/>
<polyline fill="none" stroke="#2e3436" stroke-width="1.5" points="27,-169 91,-169 "/>
<path fill="none" stroke="#2e3436" stroke-width="1.5" d="M91,-169C97,-169 103,-175 103,-181"/>
<polyline fill="none" stroke="#2e3436" stroke-width="1.5" points="103,-181 103,-193 "/>
<path fill="none" stroke="#2e3436" stroke-width="1.5" d="M103,-193C103,-199 97,-205 91,-205"/>
<polyline fill="none" stroke="#2e3436" stroke-width="1.5" points="91,-205 27,-205 "/>
<path fill="none" stroke="#2e3436" stroke-width="1.5" d="M27,-205C21,-205 15,-199 15,-193"/>
<polyline fill="none" stroke="#2e3436" stroke-width="1.5" points="15,-193 15,-181 "/>
<path fill="none" stroke="#2e3436" stroke-width="1.5" d="M15,-181C15,-175 21,-169 27,-169"/>
<text text-anchor="middle" x="59" y="-193.8" font-family="FreeSans" font-size="8.00" fill="#1c2021">Node[3]</text>
<polyline fill="none" stroke="#2e3436" stroke-width="1.5" points="15,-187 103,-187 "/>
<text text-anchor="start" x="23" y="-175.8" font-family="FreeSans" font-size="8.00" fill="#1c2021">name = &#39;Anders&#39;</text>
</g>
<!-- N1&#45;&gt;N3 -->
<g id="edge2" class="edge"><title>N1&#45;&gt;N3</title>
<path fill="none" stroke="#2e3436" stroke-width="2" d="M118.509,-252.773C107.454,-240.555 92.7786,-224.334 80.7673,-211.059"/>
<polygon fill="#2e3436" stroke="#2e3436" points="75.4587,-205.191 82.9933,-208.488 78.3454,-207.636 80.8613,-210.417 80.4906,-210.753 80.1198,-211.088 77.6039,-208.307 77.9879,-213.017 75.4587,-205.191 75.4587,-205.191"/>
<text text-anchor="middle" x="115.5" y="-226.8" font-family="FreeSans" font-size="8.00" fill="#2e3436">KNOWS</text>
</g>
<!-- N4 -->
<g id="node6" class="node"><title>N4</title>
<polygon fill="#ffffff" stroke="#ffffff" stroke-width="1.5" points="123,-85 197,-85 209,-97 209,-109 197,-121 123,-121 111,-109 111,-97 123,-85"/>
<path fill="#ffffff" stroke="#ffffff" stroke-width="1.5" d="M197,-85C203,-85 209,-91 209,-97"/>
<path fill="#ffffff" stroke="#ffffff" stroke-width="1.5" d="M209,-109C209,-115 203,-121 197,-121"/>
<path fill="#ffffff" stroke="#ffffff" stroke-width="1.5" d="M123,-121C117,-121 111,-115 111,-109"/>
<path fill="#ffffff" stroke="#ffffff" stroke-width="1.5" d="M111,-97C111,-91 117,-85 123,-85"/>
<polyline fill="none" stroke="#2e3436" stroke-width="1.5" points="123,-85 197,-85 "/>
<path fill="none" stroke="#2e3436" stroke-width="1.5" d="M197,-85C203,-85 209,-91 209,-97"/>
<polyline fill="none" stroke="#2e3436" stroke-width="1.5" points="209,-97 209,-109 "/>
<path fill="none" stroke="#2e3436" stroke-width="1.5" d="M209,-109C209,-115 203,-121 197,-121"/>
<polyline fill="none" stroke="#2e3436" stroke-width="1.5" points="197,-121 123,-121 "/>
<path fill="none" stroke="#2e3436" stroke-width="1.5" d="M123,-121C117,-121 111,-115 111,-109"/>
<polyline fill="none" stroke="#2e3436" stroke-width="1.5" points="111,-109 111,-97 "/>
<path fill="none" stroke="#2e3436" stroke-width="1.5" d="M111,-97C111,-91 117,-85 123,-85"/>
<text text-anchor="middle" x="160" y="-109.8" font-family="FreeSans" font-size="8.00" fill="#1c2021">Node[4]</text>
<polyline fill="none" stroke="#2e3436" stroke-width="1.5" points="111,-103 209,-103 "/>
<text text-anchor="start" x="119" y="-91.8" font-family="FreeSans" font-size="8.00" fill="#1c2021">name = &#39;Bossman&#39;</text>
</g>
<!-- N3&#45;&gt;N4 -->
<g id="edge4" class="edge"><title>N3&#45;&gt;N4</title>
<path fill="none" stroke="#2e3436" stroke-width="2" d="M76.5685,-168.937C85.6565,-159.911 97.1041,-149.02 108,-140 113.889,-135.125 120.381,-130.19 126.723,-125.581"/>
<polygon fill="#2e3436" stroke="#2e3436" points="132.988,-121.096 128.855,-128.206 130.23,-123.685 127.181,-125.869 126.89,-125.462 126.599,-125.055 129.648,-122.872 124.925,-122.718 132.988,-121.096 132.988,-121.096"/>
<text text-anchor="middle" x="123.5" y="-142.8" font-family="FreeSans" font-size="8.00" fill="#2e3436">KNOWS</text>
</g>
<!-- N5 -->
<g id="node8" class="node"><title>N5</title>
<polygon fill="#ffffff" stroke="#ffffff" stroke-width="1.5" points="11.5,-85 70.5,-85 82.5,-97 82.5,-109 70.5,-121 11.5,-121 -0.5,-109 -0.5,-97 11.5,-85"/>
<path fill="#ffffff" stroke="#ffffff" stroke-width="1.5" d="M70.5,-85C76.5,-85 82.5,-91 82.5,-97"/>
<path fill="#ffffff" stroke="#ffffff" stroke-width="1.5" d="M82.5,-109C82.5,-115 76.5,-121 70.5,-121"/>
<path fill="#ffffff" stroke="#ffffff" stroke-width="1.5" d="M11.5,-121C5.5,-121 -0.5,-115 -0.5,-109"/>
<path fill="#ffffff" stroke="#ffffff" stroke-width="1.5" d="M-0.5,-97C-0.5,-91 5.5,-85 11.5,-85"/>
<polyline fill="none" stroke="#2e3436" stroke-width="1.5" points="11.5,-85 70.5,-85 "/>
<path fill="none" stroke="#2e3436" stroke-width="1.5" d="M70.5,-85C76.5,-85 82.5,-91 82.5,-97"/>
<polyline fill="none" stroke="#2e3436" stroke-width="1.5" points="82.5,-97 82.5,-109 "/>
<path fill="none" stroke="#2e3436" stroke-width="1.5" d="M82.5,-109C82.5,-115 76.5,-121 70.5,-121"/>
<polyline fill="none" stroke="#2e3436" stroke-width="1.5" points="70.5,-121 11.5,-121 "/>
<path fill="none" stroke="#2e3436" stroke-width="1.5" d="M11.5,-121C5.5,-121 -0.5,-115 -0.5,-109"/>
<polyline fill="none" stroke="#2e3436" stroke-width="1.5" points="-0.5,-109 -0.5,-97 "/>
<path fill="none" stroke="#2e3436" stroke-width="1.5" d="M-0.5,-97C-0.5,-91 5.5,-85 11.5,-85"/>
<text text-anchor="middle" x="41" y="-109.8" font-family="FreeSans" font-size="8.00" fill="#1c2021">Node[5]</text>
<polyline fill="none" stroke="#2e3436" stroke-width="1.5" points="-0.5,-103 82.5,-103 "/>
<text text-anchor="start" x="7.5" y="-91.8" font-family="FreeSans" font-size="8.00" fill="#1c2021">name = &#39;Cesar&#39;</text>
</g>
<!-- N3&#45;&gt;N5 -->
<g id="edge6" class="edge"><title>N3&#45;&gt;N5</title>
<path fill="none" stroke="#4e9a06" stroke-width="2" d="M46.9209,-168.92C43.6939,-163.123 40.6475,-156.513 39,-150 37.3012,-143.285 36.9476,-135.86 37.2342,-128.934"/>
<polygon fill="#4e9a06" stroke="#4e9a06" points="37.8226,-121.104 40.6261,-128.835 38.0402,-124.88 37.7591,-128.62 37.2605,-128.582 36.762,-128.545 37.043,-124.806 33.895,-128.329 37.8226,-121.104 37.8226,-121.104"/>
<text text-anchor="middle" x="56.5" y="-142.8" font-family="FreeSans" font-size="8.00" fill="#4e9a06">BLOCKS</text>
</g>
<!-- N2 -->
<g id="node4" class="node"><title>N2</title>
<polygon fill="#ffffff" stroke="#ffffff" stroke-width="1.5" points="81,-1 133,-1 145,-13 145,-25 133,-37 81,-37 69,-25 69,-13 81,-1"/>
<path fill="#ffffff" stroke="#ffffff" stroke-width="1.5" d="M133,-1C139,-1 145,-7 145,-13"/>
<path fill="#ffffff" stroke="#ffffff" stroke-width="1.5" d="M145,-25C145,-31 139,-37 133,-37"/>
<path fill="#ffffff" stroke="#ffffff" stroke-width="1.5" d="M81,-37C75,-37 69,-31 69,-25"/>
<path fill="#ffffff" stroke="#ffffff" stroke-width="1.5" d="M69,-13C69,-7 75,-1 81,-1"/>
<polyline fill="none" stroke="#2e3436" stroke-width="1.5" points="81,-1 133,-1 "/>
<path fill="none" stroke="#2e3436" stroke-width="1.5" d="M133,-1C139,-1 145,-7 145,-13"/>
<polyline fill="none" stroke="#2e3436" stroke-width="1.5" points="145,-13 145,-25 "/>
<path fill="none" stroke="#2e3436" stroke-width="1.5" d="M145,-25C145,-31 139,-37 133,-37"/>
<polyline fill="none" stroke="#2e3436" stroke-width="1.5" points="133,-37 81,-37 "/>
<path fill="none" stroke="#2e3436" stroke-width="1.5" d="M81,-37C75,-37 69,-31 69,-25"/>
<polyline fill="none" stroke="#2e3436" stroke-width="1.5" points="69,-25 69,-13 "/>
<path fill="none" stroke="#2e3436" stroke-width="1.5" d="M69,-13C69,-7 75,-1 81,-1"/>
<text text-anchor="middle" x="107" y="-25.8" font-family="FreeSans" font-size="8.00" fill="#1c2021">Node[2]</text>
<polyline fill="none" stroke="#2e3436" stroke-width="1.5" points="69,-19 145,-19 "/>
<text text-anchor="start" x="77" y="-7.8" font-family="FreeSans" font-size="8.00" fill="#1c2021">name = &#39;Emil&#39;</text>
</g>
<!-- N4&#45;&gt;N1 -->
<g id="edge10" class="edge"><title>N4&#45;&gt;N1</title>
<path fill="none" stroke="#4e9a06" stroke-width="2" d="M157.318,-121.022C152.882,-150.834 143.998,-210.536 138.878,-244.942"/>
<polygon fill="#4e9a06" stroke="#4e9a06" points="137.723,-252.701 135.489,-244.786 137.78,-248.918 138.332,-245.209 138.827,-245.283 139.322,-245.357 138.77,-249.066 142.165,-245.78 137.723,-252.701 137.723,-252.701"/>
<text text-anchor="middle" x="166.5" y="-184.8" font-family="FreeSans" font-size="8.00" fill="#4e9a06">BLOCKS</text>
</g>
<!-- N4&#45;&gt;N2 -->
<g id="edge8" class="edge"><title>N4&#45;&gt;N2</title>
<path fill="none" stroke="#2e3436" stroke-width="2" d="M148.5,-84.7733C140.93,-72.7751 130.924,-56.9174 122.634,-43.779"/>
<polygon fill="#2e3436" stroke="#2e3436" points="118.478,-37.1912 125.334,-41.7332 120.902,-40.0959 122.903,-43.2673 122.48,-43.5342 122.057,-43.801 120.056,-40.6295 119.626,-45.3351 118.478,-37.1912 118.478,-37.1912"/>
<text text-anchor="middle" x="150.5" y="-58.8" font-family="FreeSans" font-size="8.00" fill="#2e3436">KNOWS</text>
</g>
<!-- N5&#45;&gt;N2 -->
<g id="edge12" class="edge"><title>N5&#45;&gt;N2</title>
<path fill="none" stroke="#2e3436" stroke-width="2" d="M55.321,-84.7733C64.8347,-72.665 77.4366,-56.6261 87.8143,-43.4181"/>
<polygon fill="#2e3436" stroke="#2e3436" points="92.7069,-37.1912 90.7271,-45.1737 90.7832,-40.4488 88.4664,-43.3975 88.0732,-43.0886 87.6801,-42.7797 89.9969,-39.831 85.4194,-41.0034 92.7069,-37.1912 92.7069,-37.1912"/>
<text text-anchor="middle" x="91.5" y="-58.8" font-family="FreeSans" font-size="8.00" fill="#2e3436">KNOWS</text>
</g>
</g>
</svg>
