<?xml version="1.0" encoding="UTF-8" standalone="no"?>
<!DOCTYPE svg PUBLIC "-//W3C//DTD SVG 1.1//EN"
 "http://www.w3.org/Graphics/SVG/1.1/DTD/svg11.dtd">
<!-- Generated by graphviz version 2.26.3 (20100126.1600)
 -->
<!-- Title: g Pages: 1 -->
<svg width="201pt" height="160pt"
 viewBox="0.00 0.00 201.00 160.00" xmlns="http://www.w3.org/2000/svg" xmlns:xlink="http://www.w3.org/1999/xlink">
<g id="graph1" class="graph" transform="scale(1 1) rotate(0) translate(4 156)">
<title>g</title>
<polygon fill="white" stroke="white" points="-4,5 -4,-156 198,-156 198,5 -4,5"/>
<!-- N1 -->
<g id="node1" class="node"><title>N1</title>
<polygon fill="#ffffff" stroke="#ffffff" stroke-width="1.5" points="11.5,-1 72.5,-1 84.5,-13 84.5,-35 72.5,-47 11.5,-47 -0.5,-35 -0.5,-13 11.5,-1"/>
<path fill="#ffffff" stroke="#ffffff" stroke-width="1.5" d="M72.5,-1C78.5,-1 84.5,-7 84.5,-13"/>
<path fill="#ffffff" stroke="#ffffff" stroke-width="1.5" d="M84.5,-35C84.5,-41 78.5,-47 72.5,-47"/>
<path fill="#ffffff" stroke="#ffffff" stroke-width="1.5" d="M11.5,-47C5.5,-47 -0.5,-41 -0.5,-35"/>
<path fill="#ffffff" stroke="#ffffff" stroke-width="1.5" d="M-0.5,-13C-0.5,-7 5.5,-1 11.5,-1"/>
<polyline fill="none" stroke="#2e3436" stroke-width="1.5" points="11.5,-1 72.5,-1 "/>
<path fill="none" stroke="#2e3436" stroke-width="1.5" d="M72.5,-1C78.5,-1 84.5,-7 84.5,-13"/>
<polyline fill="none" stroke="#2e3436" stroke-width="1.5" points="84.5,-13 84.5,-35 "/>
<path fill="none" stroke="#2e3436" stroke-width="1.5" d="M84.5,-35C84.5,-41 78.5,-47 72.5,-47"/>
<polyline fill="none" stroke="#2e3436" stroke-width="1.5" points="72.5,-47 11.5,-47 "/>
<path fill="none" stroke="#2e3436" stroke-width="1.5" d="M11.5,-47C5.5,-47 -0.5,-41 -0.5,-35"/>
<polyline fill="none" stroke="#2e3436" stroke-width="1.5" points="-0.5,-35 -0.5,-13 "/>
<path fill="none" stroke="#2e3436" stroke-width="1.5" d="M-0.5,-13C-0.5,-7 5.5,-1 11.5,-1"/>
<text text-anchor="middle" x="42" y="-35.8" font-family="FreeSans" font-size="8.00" fill="#1c2021">Node[1]</text>
<polyline fill="none" stroke="#2e3436" stroke-width="1.5" points="-0.5,-29 84.5,-29 "/>
<text text-anchor="start" x="7.5" y="-17.8" font-family="FreeSans" font-size="8.00" fill="#1c2021">name = &#39;Tobias&#39;</text>
<text text-anchor="start" x="7.5" y="-7.8" font-family="FreeSans" font-size="8.00" fill="#1c2021">age = 25</text>
</g>
<!-- N2 -->
<g id="node2" class="node"><title>N2</title>
<polygon fill="#ffffff" stroke="#ffffff" stroke-width="1.5" points="125,-1 181,-1 193,-13 193,-35 181,-47 125,-47 113,-35 113,-13 125,-1"/>
<path fill="#ffffff" stroke="#ffffff" stroke-width="1.5" d="M181,-1C187,-1 193,-7 193,-13"/>
<path fill="#ffffff" stroke="#ffffff" stroke-width="1.5" d="M193,-35C193,-41 187,-47 181,-47"/>
<path fill="#ffffff" stroke="#ffffff" stroke-width="1.5" d="M125,-47C119,-47 113,-41 113,-35"/>
<path fill="#ffffff" stroke="#ffffff" stroke-width="1.5" d="M113,-13C113,-7 119,-1 125,-1"/>
<polyline fill="none" stroke="#2e3436" stroke-width="1.5" points="125,-1 181,-1 "/>
<path fill="none" stroke="#2e3436" stroke-width="1.5" d="M181,-1C187,-1 193,-7 193,-13"/>
<polyline fill="none" stroke="#2e3436" stroke-width="1.5" points="193,-13 193,-35 "/>
<path fill="none" stroke="#2e3436" stroke-width="1.5" d="M193,-35C193,-41 187,-47 181,-47"/>
<polyline fill="none" stroke="#2e3436" stroke-width="1.5" points="181,-47 125,-47 "/>
<path fill="none" stroke="#2e3436" stroke-width="1.5" d="M125,-47C119,-47 113,-41 113,-35"/>
<polyline fill="none" stroke="#2e3436" stroke-width="1.5" points="113,-35 113,-13 "/>
<path fill="none" stroke="#2e3436" stroke-width="1.5" d="M113,-13C113,-7 119,-1 125,-1"/>
<text text-anchor="middle" x="153" y="-35.8" font-family="FreeSans" font-size="8.00" fill="#1c2021">Node[2]</text>
<polyline fill="none" stroke="#2e3436" stroke-width="1.5" points="113,-29 193,-29 "/>
<text text-anchor="start" x="121" y="-17.8" font-family="FreeSans" font-size="8.00" fill="#1c2021">name = &#39;Peter&#39;</text>
<text text-anchor="start" x="121" y="-7.8" font-family="FreeSans" font-size="8.00" fill="#1c2021">age = 34</text>
</g>
<!-- N3 -->
<g id="node3" class="node"><title>N3</title>
<polygon fill="#ffffff" stroke="#ffffff" stroke-width="1.5" points="65,-95 129,-95 141,-107 141,-139 129,-151 65,-151 53,-139 53,-107 65,-95"/>
<path fill="#ffffff" stroke="#ffffff" stroke-width="1.5" d="M129,-95C135,-95 141,-101 141,-107"/>
<path fill="#ffffff" stroke="#ffffff" stroke-width="1.5" d="M141,-139C141,-145 135,-151 129,-151"/>
<path fill="#ffffff" stroke="#ffffff" stroke-width="1.5" d="M65,-151C59,-151 53,-145 53,-139"/>
<path fill="#ffffff" stroke="#ffffff" stroke-width="1.5" d="M53,-107C53,-101 59,-95 65,-95"/>
<polyline fill="none" stroke="#2e3436" stroke-width="1.5" points="65,-95 129,-95 "/>
<path fill="none" stroke="#2e3436" stroke-width="1.5" d="M129,-95C135,-95 141,-101 141,-107"/>
<polyline fill="none" stroke="#2e3436" stroke-width="1.5" points="141,-107 141,-139 "/>
<path fill="none" stroke="#2e3436" stroke-width="1.5" d="M141,-139C141,-145 135,-151 129,-151"/>
<polyline fill="none" stroke="#2e3436" stroke-width="1.5" points="129,-151 65,-151 "/>
<path fill="none" stroke="#2e3436" stroke-width="1.5" d="M65,-151C59,-151 53,-145 53,-139"/>
<polyline fill="none" stroke="#2e3436" stroke-width="1.5" points="53,-139 53,-107 "/>
<path fill="none" stroke="#2e3436" stroke-width="1.5" d="M53,-107C53,-101 59,-95 65,-95"/>
<text text-anchor="middle" x="97" y="-139.8" font-family="FreeSans" font-size="8.00" fill="#1c2021">Node[3]</text>
<polyline fill="none" stroke="#2e3436" stroke-width="1.5" points="53,-133 141,-133 "/>
<text text-anchor="start" x="61" y="-121.8" font-family="FreeSans" font-size="8.00" fill="#1c2021">name = &#39;Andres&#39;</text>
<text text-anchor="start" x="61" y="-111.8" font-family="FreeSans" font-size="8.00" fill="#1c2021">age = 36</text>
<text text-anchor="start" x="61" y="-101.8" font-family="FreeSans" font-size="8.00" fill="#1c2021">belt = &#39;white&#39;</text>
</g>
<!-- N3&#45;&gt;N1 -->
<g id="edge2" class="edge"><title>N3&#45;&gt;N1</title>
<path fill="none" stroke="#2e3436" stroke-width="2" d="M81.3863,-94.8954C74.2466,-82.0439 65.7832,-66.8098 58.5351,-53.7632"/>
<polygon fill="#2e3436" stroke="#2e3436" points="54.869,-47.1642 61.4617,-52.0813 57.1273,-50.1995 58.9485,-53.4776 58.5114,-53.7204 58.0743,-53.9632 56.2531,-50.6851 55.5611,-55.3595 54.869,-47.1642 54.869,-47.1642"/>
<text text-anchor="middle" x="85.5" y="-68.8" font-family="FreeSans" font-size="8.00" fill="#2e3436">KNOWS</text>
</g>
<!-- N3&#45;&gt;N2 -->
<g id="edge4" class="edge"><title>N3&#45;&gt;N2</title>
<path fill="none" stroke="#2e3436" stroke-width="2" d="M112.898,-94.8954C120.167,-82.0439 128.784,-66.8098 136.164,-53.7632"/>
<polygon fill="#2e3436" stroke="#2e3436" points="139.897,-47.1642 139.142,-55.3539 138.486,-50.6744 136.64,-53.9384 136.204,-53.6922 135.769,-53.4461 137.615,-50.182 133.267,-52.0305 139.897,-47.1642 139.897,-47.1642"/>
<text text-anchor="middle" x="143.5" y="-68.8" font-family="FreeSans" font-size="8.00" fill="#2e3436">KNOWS</text>
</g>
</g>
</svg>
