<?xml version="1.0" encoding="UTF-8" standalone="no"?>
<!DOCTYPE svg PUBLIC "-//W3C//DTD SVG 1.1//EN"
 "http://www.w3.org/Graphics/SVG/1.1/DTD/svg11.dtd">
<!-- Generated by graphviz version 2.26.3 (20100126.1600)
 -->
<!-- Title: g Pages: 1 -->
<svg width="439pt" height="482pt"
 viewBox="0.00 0.00 439.00 482.00" xmlns="http://www.w3.org/2000/svg" xmlns:xlink="http://www.w3.org/1999/xlink">
<g id="graph1" class="graph" transform="scale(1 1) rotate(0) translate(4 478)">
<title>g</title>
<polygon fill="white" stroke="white" points="-4,5 -4,-478 436,-478 436,5 -4,5"/>
<!-- N1 -->
<g id="node1" class="node"><title>N1</title>
<polygon fill="#ffffff" stroke="#ffffff" stroke-width="1.5" points="175,-437 225,-437 237,-449 237,-461 225,-473 175,-473 163,-461 163,-449 175,-437"/>
<path fill="#ffffff" stroke="#ffffff" stroke-width="1.5" d="M225,-437C231,-437 237,-443 237,-449"/>
<path fill="#ffffff" stroke="#ffffff" stroke-width="1.5" d="M237,-461C237,-467 231,-473 225,-473"/>
<path fill="#ffffff" stroke="#ffffff" stroke-width="1.5" d="M175,-473C169,-473 163,-467 163,-461"/>
<path fill="#ffffff" stroke="#ffffff" stroke-width="1.5" d="M163,-449C163,-443 169,-437 175,-437"/>
<polyline fill="none" stroke="#2e3436" stroke-width="1.5" points="175,-437 225,-437 "/>
<path fill="none" stroke="#2e3436" stroke-width="1.5" d="M225,-437C231,-437 237,-443 237,-449"/>
<polyline fill="none" stroke="#2e3436" stroke-width="1.5" points="237,-449 237,-461 "/>
<path fill="none" stroke="#2e3436" stroke-width="1.5" d="M237,-461C237,-467 231,-473 225,-473"/>
<polyline fill="none" stroke="#2e3436" stroke-width="1.5" points="225,-473 175,-473 "/>
<path fill="none" stroke="#2e3436" stroke-width="1.5" d="M175,-473C169,-473 163,-467 163,-461"/>
<polyline fill="none" stroke="#2e3436" stroke-width="1.5" points="163,-461 163,-449 "/>
<path fill="none" stroke="#2e3436" stroke-width="1.5" d="M163,-449C163,-443 169,-437 175,-437"/>
<text text-anchor="middle" x="200" y="-461.8" font-family="FreeSans" font-size="8.00" fill="#1c2021">Node[1]</text>
<polyline fill="none" stroke="#2e3436" stroke-width="1.5" points="163,-455 237,-455 "/>
<text text-anchor="start" x="171" y="-443.8" font-family="FreeSans" font-size="8.00" fill="#1c2021">name = &#39;Bob&#39;</text>
</g>
<!-- N2 -->
<g id="node3" class="node"><title>N2</title>
<polygon fill="#ffffff" stroke="#ffffff" stroke-width="1.5" points="21,-323 103,-323 115,-335 115,-367 103,-379 21,-379 9,-367 9,-335 21,-323"/>
<path fill="#ffffff" stroke="#ffffff" stroke-width="1.5" d="M103,-323C109,-323 115,-329 115,-335"/>
<path fill="#ffffff" stroke="#ffffff" stroke-width="1.5" d="M115,-367C115,-373 109,-379 103,-379"/>
<path fill="#ffffff" stroke="#ffffff" stroke-width="1.5" d="M21,-379C15,-379 9,-373 9,-367"/>
<path fill="#ffffff" stroke="#ffffff" stroke-width="1.5" d="M9,-335C9,-329 15,-323 21,-323"/>
<polyline fill="none" stroke="#2e3436" stroke-width="1.5" points="21,-323 103,-323 "/>
<path fill="none" stroke="#2e3436" stroke-width="1.5" d="M103,-323C109,-323 115,-329 115,-335"/>
<polyline fill="none" stroke="#2e3436" stroke-width="1.5" points="115,-335 115,-367 "/>
<path fill="none" stroke="#2e3436" stroke-width="1.5" d="M115,-367C115,-373 109,-379 103,-379"/>
<polyline fill="none" stroke="#2e3436" stroke-width="1.5" points="103,-379 21,-379 "/>
<path fill="none" stroke="#2e3436" stroke-width="1.5" d="M21,-379C15,-379 9,-373 9,-367"/>
<polyline fill="none" stroke="#2e3436" stroke-width="1.5" points="9,-367 9,-335 "/>
<path fill="none" stroke="#2e3436" stroke-width="1.5" d="M9,-335C9,-329 15,-323 21,-323"/>
<text text-anchor="middle" x="62" y="-367.8" font-family="FreeSans" font-size="8.00" fill="#1c2021">Node[2]</text>
<polyline fill="none" stroke="#2e3436" stroke-width="1.5" points="9,-361 115,-361 "/>
<text text-anchor="start" x="17" y="-349.8" font-family="FreeSans" font-size="8.00" fill="#1c2021">name = &#39;bob_s1&#39;</text>
<text text-anchor="start" x="17" y="-339.8" font-family="FreeSans" font-size="8.00" fill="#1c2021">text = &#39;bobs status1&#39;</text>
<text text-anchor="start" x="17" y="-329.8" font-family="FreeSans" font-size="8.00" fill="#1c2021">date = 1</text>
</g>
<!-- N1&#45;&gt;N2 -->
<g id="edge2" class="edge"><title>N1&#45;&gt;N2</title>
<path fill="none" stroke="#2e3436" stroke-width="2" d="M175.962,-436.885C156.539,-422.247 128.696,-401.264 105.394,-383.703"/>
<polygon fill="#2e3436" stroke="#2e3436" points="99.2652,-379.084 107.286,-380.903 102.561,-380.942 105.556,-383.199 105.255,-383.598 104.954,-383.997 101.959,-381.74 103.224,-386.293 99.2652,-379.084 99.2652,-379.084"/>
<text text-anchor="middle" x="164.5" y="-405.8" font-family="FreeSans" font-size="8.00" fill="#2e3436">STATUS</text>
</g>
<!-- N4 -->
<g id="node5" class="node"><title>N4</title>
<polygon fill="#ffffff" stroke="#ffffff" stroke-width="1.5" points="173.5,-333 226.5,-333 238.5,-345 238.5,-357 226.5,-369 173.5,-369 161.5,-357 161.5,-345 173.5,-333"/>
<path fill="#ffffff" stroke="#ffffff" stroke-width="1.5" d="M226.5,-333C232.5,-333 238.5,-339 238.5,-345"/>
<path fill="#ffffff" stroke="#ffffff" stroke-width="1.5" d="M238.5,-357C238.5,-363 232.5,-369 226.5,-369"/>
<path fill="#ffffff" stroke="#ffffff" stroke-width="1.5" d="M173.5,-369C167.5,-369 161.5,-363 161.5,-357"/>
<path fill="#ffffff" stroke="#ffffff" stroke-width="1.5" d="M161.5,-345C161.5,-339 167.5,-333 173.5,-333"/>
<polyline fill="none" stroke="#2e3436" stroke-width="1.5" points="173.5,-333 226.5,-333 "/>
<path fill="none" stroke="#2e3436" stroke-width="1.5" d="M226.5,-333C232.5,-333 238.5,-339 238.5,-345"/>
<polyline fill="none" stroke="#2e3436" stroke-width="1.5" points="238.5,-345 238.5,-357 "/>
<path fill="none" stroke="#2e3436" stroke-width="1.5" d="M238.5,-357C238.5,-363 232.5,-369 226.5,-369"/>
<polyline fill="none" stroke="#2e3436" stroke-width="1.5" points="226.5,-369 173.5,-369 "/>
<path fill="none" stroke="#2e3436" stroke-width="1.5" d="M173.5,-369C167.5,-369 161.5,-363 161.5,-357"/>
<polyline fill="none" stroke="#2e3436" stroke-width="1.5" points="161.5,-357 161.5,-345 "/>
<path fill="none" stroke="#2e3436" stroke-width="1.5" d="M161.5,-345C161.5,-339 167.5,-333 173.5,-333"/>
<text text-anchor="middle" x="200" y="-357.8" font-family="FreeSans" font-size="8.00" fill="#1c2021">Node[4]</text>
<polyline fill="none" stroke="#2e3436" stroke-width="1.5" points="161.5,-351 238.5,-351 "/>
<text text-anchor="start" x="169.5" y="-339.8" font-family="FreeSans" font-size="8.00" fill="#1c2021">name = &#39;Alice&#39;</text>
</g>
<!-- N1&#45;&gt;N4 -->
<g id="edge4" class="edge"><title>N1&#45;&gt;N4</title>
<path fill="none" stroke="#4e9a06" stroke-width="2" d="M200,-436.885C200,-420.284 200,-395.523 200,-376.847"/>
<polygon fill="#4e9a06" stroke="#4e9a06" points="200,-369.257 203.375,-376.757 200.5,-373.007 200.5,-376.757 200,-376.757 199.5,-376.757 199.5,-373.007 196.625,-376.757 200,-369.257 200,-369.257"/>
<text text-anchor="middle" x="247" y="-410.8" font-family="FreeSans" font-size="8.00" fill="#4e9a06">FRIEND</text>
<text text-anchor="start" x="200" y="-400.8" font-family="FreeSans" font-size="8.00" fill="#4e9a06">status = &#39;CONFIRMED&#39;</text>
</g>
<!-- N3 -->
<g id="node7" class="node"><title>N3</title>
<polygon fill="#ffffff" stroke="#ffffff" stroke-width="1.5" points="12,-209 94,-209 106,-221 106,-253 94,-265 12,-265 0,-253 0,-221 12,-209"/>
<path fill="#ffffff" stroke="#ffffff" stroke-width="1.5" d="M94,-209C100,-209 106,-215 106,-221"/>
<path fill="#ffffff" stroke="#ffffff" stroke-width="1.5" d="M106,-253C106,-259 100,-265 94,-265"/>
<path fill="#ffffff" stroke="#ffffff" stroke-width="1.5" d="M12,-265C6,-265 0,-259 0,-253"/>
<path fill="#ffffff" stroke="#ffffff" stroke-width="1.5" d="M0,-221C0,-215 6,-209 12,-209"/>
<polyline fill="none" stroke="#2e3436" stroke-width="1.5" points="12,-209 94,-209 "/>
<path fill="none" stroke="#2e3436" stroke-width="1.5" d="M94,-209C100,-209 106,-215 106,-221"/>
<polyline fill="none" stroke="#2e3436" stroke-width="1.5" points="106,-221 106,-253 "/>
<path fill="none" stroke="#2e3436" stroke-width="1.5" d="M106,-253C106,-259 100,-265 94,-265"/>
<polyline fill="none" stroke="#2e3436" stroke-width="1.5" points="94,-265 12,-265 "/>
<path fill="none" stroke="#2e3436" stroke-width="1.5" d="M12,-265C6,-265 0,-259 0,-253"/>
<polyline fill="none" stroke="#2e3436" stroke-width="1.5" points="0,-253 0,-221 "/>
<path fill="none" stroke="#2e3436" stroke-width="1.5" d="M0,-221C0,-215 6,-209 12,-209"/>
<text text-anchor="middle" x="53" y="-253.8" font-family="FreeSans" font-size="8.00" fill="#1c2021">Node[3]</text>
<polyline fill="none" stroke="#2e3436" stroke-width="1.5" points="0,-247 106,-247 "/>
<text text-anchor="start" x="8" y="-235.8" font-family="FreeSans" font-size="8.00" fill="#1c2021">name = &#39;bob_s2&#39;</text>
<text text-anchor="start" x="8" y="-225.8" font-family="FreeSans" font-size="8.00" fill="#1c2021">text = &#39;bobs status2&#39;</text>
<text text-anchor="start" x="8" y="-215.8" font-family="FreeSans" font-size="8.00" fill="#1c2021">date = 4</text>
</g>
<!-- N2&#45;&gt;N3 -->
<g id="edge6" class="edge"><title>N2&#45;&gt;N3</title>
<path fill="none" stroke="#a40000" stroke-width="2" d="M59.7753,-322.82C58.5854,-307.748 57.1074,-289.027 55.8358,-272.92"/>
<polygon fill="#a40000" stroke="#a40000" points="55.2303,-265.251 59.1852,-272.462 56.0239,-268.95 56.3191,-272.688 55.8207,-272.727 55.3222,-272.767 55.027,-269.028 52.4561,-272.993 55.2303,-265.251 55.2303,-265.251"/>
<text text-anchor="middle" x="70" y="-291.8" font-family="FreeSans" font-size="8.00" fill="#a40000">NEXT</text>
</g>
<!-- N5 -->
<g id="node9" class="node"><title>N5</title>
<polygon fill="#ffffff" stroke="#ffffff" stroke-width="1.5" points="147,-209 233,-209 245,-221 245,-253 233,-265 147,-265 135,-253 135,-221 147,-209"/>
<path fill="#ffffff" stroke="#ffffff" stroke-width="1.5" d="M233,-209C239,-209 245,-215 245,-221"/>
<path fill="#ffffff" stroke="#ffffff" stroke-width="1.5" d="M245,-253C245,-259 239,-265 233,-265"/>
<path fill="#ffffff" stroke="#ffffff" stroke-width="1.5" d="M147,-265C141,-265 135,-259 135,-253"/>
<path fill="#ffffff" stroke="#ffffff" stroke-width="1.5" d="M135,-221C135,-215 141,-209 147,-209"/>
<polyline fill="none" stroke="#2e3436" stroke-width="1.5" points="147,-209 233,-209 "/>
<path fill="none" stroke="#2e3436" stroke-width="1.5" d="M233,-209C239,-209 245,-215 245,-221"/>
<polyline fill="none" stroke="#2e3436" stroke-width="1.5" points="245,-221 245,-253 "/>
<path fill="none" stroke="#2e3436" stroke-width="1.5" d="M245,-253C245,-259 239,-265 233,-265"/>
<polyline fill="none" stroke="#2e3436" stroke-width="1.5" points="233,-265 147,-265 "/>
<path fill="none" stroke="#2e3436" stroke-width="1.5" d="M147,-265C141,-265 135,-259 135,-253"/>
<polyline fill="none" stroke="#2e3436" stroke-width="1.5" points="135,-253 135,-221 "/>
<path fill="none" stroke="#2e3436" stroke-width="1.5" d="M135,-221C135,-215 141,-209 147,-209"/>
<text text-anchor="middle" x="190" y="-253.8" font-family="FreeSans" font-size="8.00" fill="#1c2021">Node[5]</text>
<polyline fill="none" stroke="#2e3436" stroke-width="1.5" points="135,-247 245,-247 "/>
<text text-anchor="start" x="143" y="-235.8" font-family="FreeSans" font-size="8.00" fill="#1c2021">name = &#39;alice_s1&#39;</text>
<text text-anchor="start" x="143" y="-225.8" font-family="FreeSans" font-size="8.00" fill="#1c2021">text = &#39;Alices status1&#39;</text>
<text text-anchor="start" x="143" y="-215.8" font-family="FreeSans" font-size="8.00" fill="#1c2021">date = 2</text>
</g>
<!-- N4&#45;&gt;N5 -->
<g id="edge8" class="edge"><title>N4&#45;&gt;N5</title>
<path fill="none" stroke="#2e3436" stroke-width="2" d="M189.746,-332.857C185.522,-324.374 181.125,-313.964 179,-304 176.845,-293.895 177.456,-282.854 179.19,-272.704"/>
<polygon fill="#2e3436" stroke="#2e3436" points="180.709,-265.146 182.54,-273.164 180.46,-268.921 179.722,-272.597 179.231,-272.499 178.741,-272.4 179.48,-268.724 175.923,-271.834 180.709,-265.146 180.709,-265.146"/>
<text text-anchor="middle" x="195.5" y="-291.8" font-family="FreeSans" font-size="8.00" fill="#2e3436">STATUS</text>
</g>
<!-- N7 -->
<g id="node11" class="node"><title>N7</title>
<polygon fill="#ffffff" stroke="#ffffff" stroke-width="1.5" points="308.5,-219 355.5,-219 367.5,-231 367.5,-243 355.5,-255 308.5,-255 296.5,-243 296.5,-231 308.5,-219"/>
<path fill="#ffffff" stroke="#ffffff" stroke-width="1.5" d="M355.5,-219C361.5,-219 367.5,-225 367.5,-231"/>
<path fill="#ffffff" stroke="#ffffff" stroke-width="1.5" d="M367.5,-243C367.5,-249 361.5,-255 355.5,-255"/>
<path fill="#ffffff" stroke="#ffffff" stroke-width="1.5" d="M308.5,-255C302.5,-255 296.5,-249 296.5,-243"/>
<path fill="#ffffff" stroke="#ffffff" stroke-width="1.5" d="M296.5,-231C296.5,-225 302.5,-219 308.5,-219"/>
<polyline fill="none" stroke="#2e3436" stroke-width="1.5" points="308.5,-219 355.5,-219 "/>
<path fill="none" stroke="#2e3436" stroke-width="1.5" d="M355.5,-219C361.5,-219 367.5,-225 367.5,-231"/>
<polyline fill="none" stroke="#2e3436" stroke-width="1.5" points="367.5,-231 367.5,-243 "/>
<path fill="none" stroke="#2e3436" stroke-width="1.5" d="M367.5,-243C367.5,-249 361.5,-255 355.5,-255"/>
<polyline fill="none" stroke="#2e3436" stroke-width="1.5" points="355.5,-255 308.5,-255 "/>
<path fill="none" stroke="#2e3436" stroke-width="1.5" d="M308.5,-255C302.5,-255 296.5,-249 296.5,-243"/>
<polyline fill="none" stroke="#2e3436" stroke-width="1.5" points="296.5,-243 296.5,-231 "/>
<path fill="none" stroke="#2e3436" stroke-width="1.5" d="M296.5,-231C296.5,-225 302.5,-219 308.5,-219"/>
<text text-anchor="middle" x="332" y="-243.8" font-family="FreeSans" font-size="8.00" fill="#1c2021">Node[7]</text>
<polyline fill="none" stroke="#2e3436" stroke-width="1.5" points="296.5,-237 367.5,-237 "/>
<text text-anchor="start" x="304.5" y="-225.8" font-family="FreeSans" font-size="8.00" fill="#1c2021">name = &#39;Joe&#39;</text>
</g>
<!-- N4&#45;&gt;N7 -->
<g id="edge10" class="edge"><title>N4&#45;&gt;N7</title>
<path fill="none" stroke="#4e9a06" stroke-width="2" d="M209.379,-332.762C217.551,-318.204 230.504,-297.998 246,-284 258.587,-272.63 274.411,-262.988 289.044,-255.453"/>
<polygon fill="#4e9a06" stroke="#4e9a06" points="296.112,-251.924 290.909,-258.294 292.98,-254.047 289.625,-255.722 289.401,-255.274 289.178,-254.827 292.533,-253.152 287.894,-252.255 296.112,-251.924 296.112,-251.924"/>
<text text-anchor="middle" x="287" y="-296.8" font-family="FreeSans" font-size="8.00" fill="#4e9a06">FRIEND</text>
<text text-anchor="start" x="246" y="-286.8" font-family="FreeSans" font-size="8.00" fill="#4e9a06">status = &#39;PENDING&#39;</text>
</g>
<!-- N6 -->
<g id="node13" class="node"><title>N6</title>
<polygon fill="#ffffff" stroke="#ffffff" stroke-width="1.5" points="147,-105 233,-105 245,-117 245,-149 233,-161 147,-161 135,-149 135,-117 147,-105"/>
<path fill="#ffffff" stroke="#ffffff" stroke-width="1.5" d="M233,-105C239,-105 245,-111 245,-117"/>
<path fill="#ffffff" stroke="#ffffff" stroke-width="1.5" d="M245,-149C245,-155 239,-161 233,-161"/>
<path fill="#ffffff" stroke="#ffffff" stroke-width="1.5" d="M147,-161C141,-161 135,-155 135,-149"/>
<path fill="#ffffff" stroke="#ffffff" stroke-width="1.5" d="M135,-117C135,-111 141,-105 147,-105"/>
<polyline fill="none" stroke="#2e3436" stroke-width="1.5" points="147,-105 233,-105 "/>
<path fill="none" stroke="#2e3436" stroke-width="1.5" d="M233,-105C239,-105 245,-111 245,-117"/>
<polyline fill="none" stroke="#2e3436" stroke-width="1.5" points="245,-117 245,-149 "/>
<path fill="none" stroke="#2e3436" stroke-width="1.5" d="M245,-149C245,-155 239,-161 233,-161"/>
<polyline fill="none" stroke="#2e3436" stroke-width="1.5" points="233,-161 147,-161 "/>
<path fill="none" stroke="#2e3436" stroke-width="1.5" d="M147,-161C141,-161 135,-155 135,-149"/>
<polyline fill="none" stroke="#2e3436" stroke-width="1.5" points="135,-149 135,-117 "/>
<path fill="none" stroke="#2e3436" stroke-width="1.5" d="M135,-117C135,-111 141,-105 147,-105"/>
<text text-anchor="middle" x="190" y="-149.8" font-family="FreeSans" font-size="8.00" fill="#1c2021">Node[6]</text>
<polyline fill="none" stroke="#2e3436" stroke-width="1.5" points="135,-143 245,-143 "/>
<text text-anchor="start" x="143" y="-131.8" font-family="FreeSans" font-size="8.00" fill="#1c2021">name = &#39;alice_s2&#39;</text>
<text text-anchor="start" x="143" y="-121.8" font-family="FreeSans" font-size="8.00" fill="#1c2021">text = &#39;Alices status2&#39;</text>
<text text-anchor="start" x="143" y="-111.8" font-family="FreeSans" font-size="8.00" fill="#1c2021">date = 5</text>
</g>
<!-- N5&#45;&gt;N6 -->
<g id="edge12" class="edge"><title>N5&#45;&gt;N6</title>
<path fill="none" stroke="#a40000" stroke-width="2" d="M190,-208.856C190,-196.486 190,-181.815 190,-168.688"/>
<polygon fill="#a40000" stroke="#a40000" points="190,-161.166 193.375,-168.666 190.5,-164.916 190.5,-168.666 190,-168.666 189.5,-168.666 189.5,-164.916 186.625,-168.666 190,-161.166 190,-161.166"/>
<text text-anchor="middle" x="201" y="-182.8" font-family="FreeSans" font-size="8.00" fill="#a40000">NEXT</text>
</g>
<!-- N7&#45;&gt;N1 -->
<g id="edge16" class="edge"><title>N7&#45;&gt;N1</title>
<path fill="none" stroke="#4e9a06" stroke-width="2" d="M334.687,-255.102C338.931,-291.072 342.85,-372.027 301,-418 286.509,-433.919 264.59,-443.003 244.87,-448.181"/>
<polygon fill="#4e9a06" stroke="#4e9a06" points="237.44,-449.98 243.935,-444.935 240.967,-448.612 244.612,-447.729 244.729,-448.215 244.847,-448.701 241.202,-449.584 245.524,-451.495 237.44,-449.98 237.44,-449.98"/>
<text text-anchor="middle" x="384" y="-353.8" font-family="FreeSans" font-size="8.00" fill="#4e9a06">FRIEND</text>
<text text-anchor="start" x="337" y="-343.8" font-family="FreeSans" font-size="8.00" fill="#4e9a06">status = &#39;CONFIRMED&#39;</text>
</g>
<!-- N8 -->
<g id="node15" class="node"><title>N8</title>
<polygon fill="#ffffff" stroke="#ffffff" stroke-width="1.5" points="295,-105 369,-105 381,-117 381,-149 369,-161 295,-161 283,-149 283,-117 295,-105"/>
<path fill="#ffffff" stroke="#ffffff" stroke-width="1.5" d="M369,-105C375,-105 381,-111 381,-117"/>
<path fill="#ffffff" stroke="#ffffff" stroke-width="1.5" d="M381,-149C381,-155 375,-161 369,-161"/>
<path fill="#ffffff" stroke="#ffffff" stroke-width="1.5" d="M295,-161C289,-161 283,-155 283,-149"/>
<path fill="#ffffff" stroke="#ffffff" stroke-width="1.5" d="M283,-117C283,-111 289,-105 295,-105"/>
<polyline fill="none" stroke="#2e3436" stroke-width="1.5" points="295,-105 369,-105 "/>
<path fill="none" stroke="#2e3436" stroke-width="1.5" d="M369,-105C375,-105 381,-111 381,-117"/>
<polyline fill="none" stroke="#2e3436" stroke-width="1.5" points="381,-117 381,-149 "/>
<path fill="none" stroke="#2e3436" stroke-width="1.5" d="M381,-149C381,-155 375,-161 369,-161"/>
<polyline fill="none" stroke="#2e3436" stroke-width="1.5" points="369,-161 295,-161 "/>
<path fill="none" stroke="#2e3436" stroke-width="1.5" d="M295,-161C289,-161 283,-155 283,-149"/>
<polyline fill="none" stroke="#2e3436" stroke-width="1.5" points="283,-149 283,-117 "/>
<path fill="none" stroke="#2e3436" stroke-width="1.5" d="M283,-117C283,-111 289,-105 295,-105"/>
<text text-anchor="middle" x="332" y="-149.8" font-family="FreeSans" font-size="8.00" fill="#1c2021">Node[8]</text>
<polyline fill="none" stroke="#2e3436" stroke-width="1.5" points="283,-143 381,-143 "/>
<text text-anchor="start" x="291" y="-131.8" font-family="FreeSans" font-size="8.00" fill="#1c2021">name = &#39;joe_s1&#39;</text>
<text text-anchor="start" x="291" y="-121.8" font-family="FreeSans" font-size="8.00" fill="#1c2021">text = &#39;Joe status1&#39;</text>
<text text-anchor="start" x="291" y="-111.8" font-family="FreeSans" font-size="8.00" fill="#1c2021">date = 3</text>
</g>
<!-- N7&#45;&gt;N8 -->
<g id="edge14" class="edge"><title>N7&#45;&gt;N8</title>
<path fill="none" stroke="#2e3436" stroke-width="2" d="M332,-218.885C332,-205.057 332,-185.566 332,-168.647"/>
<polygon fill="#2e3436" stroke="#2e3436" points="332,-161.084 335.375,-168.584 332.5,-164.834 332.5,-168.584 332,-168.584 331.5,-168.584 331.5,-164.834 328.625,-168.584 332,-161.084 332,-161.084"/>
<text text-anchor="middle" x="348.5" y="-182.8" font-family="FreeSans" font-size="8.00" fill="#2e3436">STATUS</text>
</g>
<!-- N9 -->
<g id="node18" class="node"><title>N9</title>
<polygon fill="#ffffff" stroke="#ffffff" stroke-width="1.5" points="295,-1 369,-1 381,-13 381,-45 369,-57 295,-57 283,-45 283,-13 295,-1"/>
<path fill="#ffffff" stroke="#ffffff" stroke-width="1.5" d="M369,-1C375,-1 381,-7 381,-13"/>
<path fill="#ffffff" stroke="#ffffff" stroke-width="1.5" d="M381,-45C381,-51 375,-57 369,-57"/>
<path fill="#ffffff" stroke="#ffffff" stroke-width="1.5" d="M295,-57C289,-57 283,-51 283,-45"/>
<path fill="#ffffff" stroke="#ffffff" stroke-width="1.5" d="M283,-13C283,-7 289,-1 295,-1"/>
<polyline fill="none" stroke="#2e3436" stroke-width="1.5" points="295,-1 369,-1 "/>
<path fill="none" stroke="#2e3436" stroke-width="1.5" d="M369,-1C375,-1 381,-7 381,-13"/>
<polyline fill="none" stroke="#2e3436" stroke-width="1.5" points="381,-13 381,-45 "/>
<path fill="none" stroke="#2e3436" stroke-width="1.5" d="M381,-45C381,-51 375,-57 369,-57"/>
<polyline fill="none" stroke="#2e3436" stroke-width="1.5" points="369,-57 295,-57 "/>
<path fill="none" stroke="#2e3436" stroke-width="1.5" d="M295,-57C289,-57 283,-51 283,-45"/>
<polyline fill="none" stroke="#2e3436" stroke-width="1.5" points="283,-45 283,-13 "/>
<path fill="none" stroke="#2e3436" stroke-width="1.5" d="M283,-13C283,-7 289,-1 295,-1"/>
<text text-anchor="middle" x="332" y="-45.8" font-family="FreeSans" font-size="8.00" fill="#1c2021">Node[9]</text>
<polyline fill="none" stroke="#2e3436" stroke-width="1.5" points="283,-39 381,-39 "/>
<text text-anchor="start" x="291" y="-27.8" font-family="FreeSans" font-size="8.00" fill="#1c2021">name = &#39;joe_s2&#39;</text>
<text text-anchor="start" x="291" y="-17.8" font-family="FreeSans" font-size="8.00" fill="#1c2021">text = &#39;Joe status2&#39;</text>
<text text-anchor="start" x="291" y="-7.8" font-family="FreeSans" font-size="8.00" fill="#1c2021">date = 6</text>
</g>
<!-- N8&#45;&gt;N9 -->
<g id="edge18" class="edge"><title>N8&#45;&gt;N9</title>
<path fill="none" stroke="#a40000" stroke-width="2" d="M332,-104.856C332,-92.4855 332,-77.8152 332,-64.6881"/>
<polygon fill="#a40000" stroke="#a40000" points="332,-57.1664 335.375,-64.6663 332.5,-60.9164 332.5,-64.6664 332,-64.6664 331.5,-64.6664 331.5,-60.9164 328.625,-64.6664 332,-57.1664 332,-57.1664"/>
<text text-anchor="middle" x="343" y="-78.8" font-family="FreeSans" font-size="8.00" fill="#a40000">NEXT</text>
</g>
</g>
</svg>
