<?xml version="1.0" encoding="UTF-8" standalone="no"?>
<!DOCTYPE svg PUBLIC "-//W3C//DTD SVG 1.1//EN"
 "http://www.w3.org/Graphics/SVG/1.1/DTD/svg11.dtd">
<!-- Generated by graphviz version 2.26.3 (20100126.1600)
 -->
<!-- Title: g Pages: 1 -->
<svg width="443pt" height="130pt"
 viewBox="0.00 0.00 443.00 130.00" xmlns="http://www.w3.org/2000/svg" xmlns:xlink="http://www.w3.org/1999/xlink">
<g id="graph1" class="graph" transform="scale(1 1) rotate(0) translate(4 126)">
<title>g</title>
<polygon fill="white" stroke="white" points="-4,5 -4,-126 440,-126 440,5 -4,5"/>
<!-- N1 -->
<g id="node1" class="node"><title>N1</title>
<polygon fill="#ffffff" stroke="#ffffff" stroke-width="1.5" points="30.5,-1 83.5,-1 95.5,-13 95.5,-25 83.5,-37 30.5,-37 18.5,-25 18.5,-13 30.5,-1"/>
<path fill="#ffffff" stroke="#ffffff" stroke-width="1.5" d="M83.5,-1C89.5,-1 95.5,-7 95.5,-13"/>
<path fill="#ffffff" stroke="#ffffff" stroke-width="1.5" d="M95.5,-25C95.5,-31 89.5,-37 83.5,-37"/>
<path fill="#ffffff" stroke="#ffffff" stroke-width="1.5" d="M30.5,-37C24.5,-37 18.5,-31 18.5,-25"/>
<path fill="#ffffff" stroke="#ffffff" stroke-width="1.5" d="M18.5,-13C18.5,-7 24.5,-1 30.5,-1"/>
<polyline fill="none" stroke="#2e3436" stroke-width="1.5" points="30.5,-1 83.5,-1 "/>
<path fill="none" stroke="#2e3436" stroke-width="1.5" d="M83.5,-1C89.5,-1 95.5,-7 95.5,-13"/>
<polyline fill="none" stroke="#2e3436" stroke-width="1.5" points="95.5,-13 95.5,-25 "/>
<path fill="none" stroke="#2e3436" stroke-width="1.5" d="M95.5,-25C95.5,-31 89.5,-37 83.5,-37"/>
<polyline fill="none" stroke="#2e3436" stroke-width="1.5" points="83.5,-37 30.5,-37 "/>
<path fill="none" stroke="#2e3436" stroke-width="1.5" d="M30.5,-37C24.5,-37 18.5,-31 18.5,-25"/>
<polyline fill="none" stroke="#2e3436" stroke-width="1.5" points="18.5,-25 18.5,-13 "/>
<path fill="none" stroke="#2e3436" stroke-width="1.5" d="M18.5,-13C18.5,-7 24.5,-1 30.5,-1"/>
<text text-anchor="middle" x="57" y="-25.8" font-family="FreeSans" font-size="8.00" fill="#1c2021">Node[1]</text>
<polyline fill="none" stroke="#2e3436" stroke-width="1.5" points="18.5,-19 95.5,-19 "/>
<text text-anchor="start" x="26.5" y="-7.8" font-family="FreeSans" font-size="8.00" fill="#1c2021">name = &#39;Pet1&#39;</text>
</g>
<!-- N2 -->
<g id="node2" class="node"><title>N2</title>
<polygon fill="#ffffff" stroke="#ffffff" stroke-width="1.5" points="294.5,-1 347.5,-1 359.5,-13 359.5,-25 347.5,-37 294.5,-37 282.5,-25 282.5,-13 294.5,-1"/>
<path fill="#ffffff" stroke="#ffffff" stroke-width="1.5" d="M347.5,-1C353.5,-1 359.5,-7 359.5,-13"/>
<path fill="#ffffff" stroke="#ffffff" stroke-width="1.5" d="M359.5,-25C359.5,-31 353.5,-37 347.5,-37"/>
<path fill="#ffffff" stroke="#ffffff" stroke-width="1.5" d="M294.5,-37C288.5,-37 282.5,-31 282.5,-25"/>
<path fill="#ffffff" stroke="#ffffff" stroke-width="1.5" d="M282.5,-13C282.5,-7 288.5,-1 294.5,-1"/>
<polyline fill="none" stroke="#2e3436" stroke-width="1.5" points="294.5,-1 347.5,-1 "/>
<path fill="none" stroke="#2e3436" stroke-width="1.5" d="M347.5,-1C353.5,-1 359.5,-7 359.5,-13"/>
<polyline fill="none" stroke="#2e3436" stroke-width="1.5" points="359.5,-13 359.5,-25 "/>
<path fill="none" stroke="#2e3436" stroke-width="1.5" d="M359.5,-25C359.5,-31 353.5,-37 347.5,-37"/>
<polyline fill="none" stroke="#2e3436" stroke-width="1.5" points="347.5,-37 294.5,-37 "/>
<path fill="none" stroke="#2e3436" stroke-width="1.5" d="M294.5,-37C288.5,-37 282.5,-31 282.5,-25"/>
<polyline fill="none" stroke="#2e3436" stroke-width="1.5" points="282.5,-25 282.5,-13 "/>
<path fill="none" stroke="#2e3436" stroke-width="1.5" d="M282.5,-13C282.5,-7 288.5,-1 294.5,-1"/>
<text text-anchor="middle" x="321" y="-25.8" font-family="FreeSans" font-size="8.00" fill="#1c2021">Node[2]</text>
<polyline fill="none" stroke="#2e3436" stroke-width="1.5" points="282.5,-19 359.5,-19 "/>
<text text-anchor="start" x="290.5" y="-7.8" font-family="FreeSans" font-size="8.00" fill="#1c2021">name = &#39;Pet2&#39;</text>
</g>
<!-- N3 -->
<g id="node3" class="node"><title>N3</title>
<polygon fill="#ffffff" stroke="#ffffff" stroke-width="1.5" points="191.5,-85 244.5,-85 256.5,-97 256.5,-109 244.5,-121 191.5,-121 179.5,-109 179.5,-97 191.5,-85"/>
<path fill="#ffffff" stroke="#ffffff" stroke-width="1.5" d="M244.5,-85C250.5,-85 256.5,-91 256.5,-97"/>
<path fill="#ffffff" stroke="#ffffff" stroke-width="1.5" d="M256.5,-109C256.5,-115 250.5,-121 244.5,-121"/>
<path fill="#ffffff" stroke="#ffffff" stroke-width="1.5" d="M191.5,-121C185.5,-121 179.5,-115 179.5,-109"/>
<path fill="#ffffff" stroke="#ffffff" stroke-width="1.5" d="M179.5,-97C179.5,-91 185.5,-85 191.5,-85"/>
<polyline fill="none" stroke="#2e3436" stroke-width="1.5" points="191.5,-85 244.5,-85 "/>
<path fill="none" stroke="#2e3436" stroke-width="1.5" d="M244.5,-85C250.5,-85 256.5,-91 256.5,-97"/>
<polyline fill="none" stroke="#2e3436" stroke-width="1.5" points="256.5,-97 256.5,-109 "/>
<path fill="none" stroke="#2e3436" stroke-width="1.5" d="M256.5,-109C256.5,-115 250.5,-121 244.5,-121"/>
<polyline fill="none" stroke="#2e3436" stroke-width="1.5" points="244.5,-121 191.5,-121 "/>
<path fill="none" stroke="#2e3436" stroke-width="1.5" d="M191.5,-121C185.5,-121 179.5,-115 179.5,-109"/>
<polyline fill="none" stroke="#2e3436" stroke-width="1.5" points="179.5,-109 179.5,-97 "/>
<path fill="none" stroke="#2e3436" stroke-width="1.5" d="M179.5,-97C179.5,-91 185.5,-85 191.5,-85"/>
<text text-anchor="middle" x="218" y="-109.8" font-family="FreeSans" font-size="8.00" fill="#1c2021">Node[3]</text>
<polyline fill="none" stroke="#2e3436" stroke-width="1.5" points="179.5,-103 256.5,-103 "/>
<text text-anchor="start" x="187.5" y="-91.8" font-family="FreeSans" font-size="8.00" fill="#1c2021">name = &#39;Pet0&#39;</text>
</g>
<!-- N3&#45;&gt;N1 -->
<g id="edge2" class="edge"><title>N3&#45;&gt;N1</title>
<path fill="none" stroke="#2e3436" stroke-width="2" d="M183.461,-84.9799C158.61,-72.0139 124.97,-54.4625 98.6329,-40.7215"/>
<polygon fill="#2e3436" stroke="#2e3436" points="91.7588,-37.135 99.9694,-37.6121 95.3148,-38.4264 98.6395,-40.161 98.4082,-40.6043 98.1769,-41.0476 94.8522,-39.313 96.847,-43.5966 91.7588,-37.135 91.7588,-37.135"/>
<text text-anchor="middle" x="167" y="-58.8" font-family="FreeSans" font-size="8.00" fill="#2e3436">descendant</text>
</g>
<!-- N3&#45;&gt;N2 -->
<g id="edge4" class="edge"><title>N3&#45;&gt;N2</title>
<path fill="none" stroke="#2e3436" stroke-width="2" d="M241.543,-84.6997C249.077,-78.7818 257.425,-72.1576 265,-66 274.533,-58.25 284.864,-49.6412 294.025,-41.9311"/>
<polygon fill="#2e3436" stroke="#2e3436" points="299.857,-37.0122 296.3,-44.4278 297.313,-39.8123 294.446,-42.2301 294.124,-41.8479 293.801,-41.4657 296.668,-39.0479 291.948,-39.2681 299.857,-37.0122 299.857,-37.0122"/>
<text text-anchor="middle" x="300" y="-58.8" font-family="FreeSans" font-size="8.00" fill="#2e3436">descendant</text>
</g>
<!-- N4 -->
<g id="node7" class="node"><title>N4</title>
<polygon fill="#ffffff" stroke="#ffffff" stroke-width="1.5" points="171.5,-1 224.5,-1 236.5,-13 236.5,-25 224.5,-37 171.5,-37 159.5,-25 159.5,-13 171.5,-1"/>
<path fill="#ffffff" stroke="#ffffff" stroke-width="1.5" d="M224.5,-1C230.5,-1 236.5,-7 236.5,-13"/>
<path fill="#ffffff" stroke="#ffffff" stroke-width="1.5" d="M236.5,-25C236.5,-31 230.5,-37 224.5,-37"/>
<path fill="#ffffff" stroke="#ffffff" stroke-width="1.5" d="M171.5,-37C165.5,-37 159.5,-31 159.5,-25"/>
<path fill="#ffffff" stroke="#ffffff" stroke-width="1.5" d="M159.5,-13C159.5,-7 165.5,-1 171.5,-1"/>
<polyline fill="none" stroke="#2e3436" stroke-width="1.5" points="171.5,-1 224.5,-1 "/>
<path fill="none" stroke="#2e3436" stroke-width="1.5" d="M224.5,-1C230.5,-1 236.5,-7 236.5,-13"/>
<polyline fill="none" stroke="#2e3436" stroke-width="1.5" points="236.5,-13 236.5,-25 "/>
<path fill="none" stroke="#2e3436" stroke-width="1.5" d="M236.5,-25C236.5,-31 230.5,-37 224.5,-37"/>
<polyline fill="none" stroke="#2e3436" stroke-width="1.5" points="224.5,-37 171.5,-37 "/>
<path fill="none" stroke="#2e3436" stroke-width="1.5" d="M171.5,-37C165.5,-37 159.5,-31 159.5,-25"/>
<polyline fill="none" stroke="#2e3436" stroke-width="1.5" points="159.5,-25 159.5,-13 "/>
<path fill="none" stroke="#2e3436" stroke-width="1.5" d="M159.5,-13C159.5,-7 165.5,-1 171.5,-1"/>
<text text-anchor="middle" x="198" y="-25.8" font-family="FreeSans" font-size="8.00" fill="#1c2021">Node[4]</text>
<polyline fill="none" stroke="#2e3436" stroke-width="1.5" points="159.5,-19 236.5,-19 "/>
<text text-anchor="start" x="167.5" y="-7.8" font-family="FreeSans" font-size="8.00" fill="#1c2021">name = &#39;Pet3&#39;</text>
</g>
<!-- N3&#45;&gt;N4 -->
<g id="edge6" class="edge"><title>N3&#45;&gt;N4</title>
<path fill="none" stroke="#2e3436" stroke-width="2" d="M213.66,-84.7733C210.856,-72.9952 207.166,-57.4981 204.073,-44.5049"/>
<polygon fill="#2e3436" stroke="#2e3436" points="202.331,-37.1912 207.352,-43.7055 203.686,-40.7234 204.555,-44.3714 204.068,-44.4872 203.582,-44.603 202.713,-40.955 200.785,-45.269 202.331,-37.1912 202.331,-37.1912"/>
<text text-anchor="middle" x="233" y="-58.8" font-family="FreeSans" font-size="8.00" fill="#2e3436">descendant</text>
</g>
<!-- N5 -->
<g id="node8" class="node"><title>N5</title>
<polygon fill="#ffffff" stroke="#ffffff" stroke-width="1.5" points="11.5,-85 86.5,-85 98.5,-97 98.5,-109 86.5,-121 11.5,-121 -0.5,-109 -0.5,-97 11.5,-85"/>
<path fill="#ffffff" stroke="#ffffff" stroke-width="1.5" d="M86.5,-85C92.5,-85 98.5,-91 98.5,-97"/>
<path fill="#ffffff" stroke="#ffffff" stroke-width="1.5" d="M98.5,-109C98.5,-115 92.5,-121 86.5,-121"/>
<path fill="#ffffff" stroke="#ffffff" stroke-width="1.5" d="M11.5,-121C5.5,-121 -0.5,-115 -0.5,-109"/>
<path fill="#ffffff" stroke="#ffffff" stroke-width="1.5" d="M-0.5,-97C-0.5,-91 5.5,-85 11.5,-85"/>
<polyline fill="none" stroke="#2e3436" stroke-width="1.5" points="11.5,-85 86.5,-85 "/>
<path fill="none" stroke="#2e3436" stroke-width="1.5" d="M86.5,-85C92.5,-85 98.5,-91 98.5,-97"/>
<polyline fill="none" stroke="#2e3436" stroke-width="1.5" points="98.5,-97 98.5,-109 "/>
<path fill="none" stroke="#2e3436" stroke-width="1.5" d="M98.5,-109C98.5,-115 92.5,-121 86.5,-121"/>
<polyline fill="none" stroke="#2e3436" stroke-width="1.5" points="86.5,-121 11.5,-121 "/>
<path fill="none" stroke="#2e3436" stroke-width="1.5" d="M11.5,-121C5.5,-121 -0.5,-115 -0.5,-109"/>
<polyline fill="none" stroke="#2e3436" stroke-width="1.5" points="-0.5,-109 -0.5,-97 "/>
<path fill="none" stroke="#2e3436" stroke-width="1.5" d="M-0.5,-97C-0.5,-91 5.5,-85 11.5,-85"/>
<text text-anchor="middle" x="49" y="-109.8" font-family="FreeSans" font-size="8.00" fill="#1c2021">Node[5]</text>
<polyline fill="none" stroke="#2e3436" stroke-width="1.5" points="-0.5,-103 98.5,-103 "/>
<text text-anchor="start" x="7.5" y="-91.8" font-family="FreeSans" font-size="8.00" fill="#1c2021">name = &#39;Principal1&#39;</text>
</g>
<!-- N5&#45;&gt;N1 -->
<g id="edge8" class="edge"><title>N5&#45;&gt;N1</title>
<path fill="none" stroke="#4e9a06" stroke-width="2" d="M26.5062,-84.6643C19.0711,-76.3118 13.6778,-66.0584 18,-56 20.0301,-51.2757 22.9926,-46.8712 26.3923,-42.8677"/>
<polygon fill="#4e9a06" stroke="#4e9a06" points="31.6284,-37.2983 28.9501,-45.0744 29.424,-40.3729 26.8554,-43.1051 26.4911,-42.7626 26.1268,-42.4201 28.6954,-39.688 24.0321,-40.4508 31.6284,-37.2983 31.6284,-37.2983"/>
<text text-anchor="middle" x="29.5" y="-58.8" font-family="FreeSans" font-size="8.00" fill="#4e9a06">owns</text>
</g>
<!-- N5&#45;&gt;N4 -->
<g id="edge10" class="edge"><title>N5&#45;&gt;N4</title>
<path fill="none" stroke="#4e9a06" stroke-width="2" d="M55.2302,-84.6567C59.4141,-74.8785 65.8554,-63.3776 75,-56 87.0397,-46.2868 122.157,-36.2342 151.801,-29.0631"/>
<polygon fill="#4e9a06" stroke="#4e9a06" points="159.203,-27.304 152.687,-32.3219 155.67,-28.6576 152.022,-29.5248 151.906,-29.0383 151.791,-28.5519 155.439,-27.6847 151.126,-25.7548 159.203,-27.304 159.203,-27.304"/>
<text text-anchor="middle" x="86.5" y="-58.8" font-family="FreeSans" font-size="8.00" fill="#4e9a06">owns</text>
</g>
<!-- N6 -->
<g id="node11" class="node"><title>N6</title>
<polygon fill="#ffffff" stroke="#ffffff" stroke-width="1.5" points="348.5,-85 423.5,-85 435.5,-97 435.5,-109 423.5,-121 348.5,-121 336.5,-109 336.5,-97 348.5,-85"/>
<path fill="#ffffff" stroke="#ffffff" stroke-width="1.5" d="M423.5,-85C429.5,-85 435.5,-91 435.5,-97"/>
<path fill="#ffffff" stroke="#ffffff" stroke-width="1.5" d="M435.5,-109C435.5,-115 429.5,-121 423.5,-121"/>
<path fill="#ffffff" stroke="#ffffff" stroke-width="1.5" d="M348.5,-121C342.5,-121 336.5,-115 336.5,-109"/>
<path fill="#ffffff" stroke="#ffffff" stroke-width="1.5" d="M336.5,-97C336.5,-91 342.5,-85 348.5,-85"/>
<polyline fill="none" stroke="#2e3436" stroke-width="1.5" points="348.5,-85 423.5,-85 "/>
<path fill="none" stroke="#2e3436" stroke-width="1.5" d="M423.5,-85C429.5,-85 435.5,-91 435.5,-97"/>
<polyline fill="none" stroke="#2e3436" stroke-width="1.5" points="435.5,-97 435.5,-109 "/>
<path fill="none" stroke="#2e3436" stroke-width="1.5" d="M435.5,-109C435.5,-115 429.5,-121 423.5,-121"/>
<polyline fill="none" stroke="#2e3436" stroke-width="1.5" points="423.5,-121 348.5,-121 "/>
<path fill="none" stroke="#2e3436" stroke-width="1.5" d="M348.5,-121C342.5,-121 336.5,-115 336.5,-109"/>
<polyline fill="none" stroke="#2e3436" stroke-width="1.5" points="336.5,-109 336.5,-97 "/>
<path fill="none" stroke="#2e3436" stroke-width="1.5" d="M336.5,-97C336.5,-91 342.5,-85 348.5,-85"/>
<text text-anchor="middle" x="386" y="-109.8" font-family="FreeSans" font-size="8.00" fill="#1c2021">Node[6]</text>
<polyline fill="none" stroke="#2e3436" stroke-width="1.5" points="336.5,-103 435.5,-103 "/>
<text text-anchor="start" x="344.5" y="-91.8" font-family="FreeSans" font-size="8.00" fill="#1c2021">name = &#39;Principal2&#39;</text>
</g>
<!-- N6&#45;&gt;N2 -->
<g id="edge12" class="edge"><title>N6&#45;&gt;N2</title>
<path fill="none" stroke="#4e9a06" stroke-width="2" d="M373.88,-84.8376C367.814,-75.9857 360.237,-65.2753 353,-56 349.624,-51.673 345.913,-47.1727 342.251,-42.8624"/>
<polygon fill="#4e9a06" stroke="#4e9a06" points="337.325,-37.1365 344.775,-40.6209 340.15,-39.6532 342.596,-42.4959 342.217,-42.822 341.838,-43.1481 339.392,-40.3054 339.658,-45.0232 337.325,-37.1365 337.325,-37.1365"/>
<text text-anchor="middle" x="370.5" y="-58.8" font-family="FreeSans" font-size="8.00" fill="#4e9a06">owns</text>
</g>
</g>
</svg>
