<?xml version="1.0" encoding="UTF-8" standalone="no"?>
<!DOCTYPE svg PUBLIC "-//W3C//DTD SVG 1.1//EN"
 "http://www.w3.org/Graphics/SVG/1.1/DTD/svg11.dtd">
<!-- Generated by graphviz version 2.26.3 (20100126.1600)
 -->
<!-- Title: g Pages: 1 -->
<svg width="199pt" height="214pt"
 viewBox="0.00 0.00 199.00 214.00" xmlns="http://www.w3.org/2000/svg" xmlns:xlink="http://www.w3.org/1999/xlink">
<g id="graph1" class="graph" transform="scale(1 1) rotate(0) translate(4 210)">
<title>g</title>
<polygon fill="white" stroke="white" points="-4,5 -4,-210 196,-210 196,5 -4,5"/>
<!-- N1 -->
<g id="node1" class="node"><title>N1</title>
<polygon fill="#ffffff" stroke="#ffffff" stroke-width="1.5" points="15,-85 69,-85 81,-97 81,-109 69,-121 15,-121 3,-109 3,-97 15,-85"/>
<path fill="#ffffff" stroke="#ffffff" stroke-width="1.5" d="M69,-85C75,-85 81,-91 81,-97"/>
<path fill="#ffffff" stroke="#ffffff" stroke-width="1.5" d="M81,-109C81,-115 75,-121 69,-121"/>
<path fill="#ffffff" stroke="#ffffff" stroke-width="1.5" d="M15,-121C9,-121 3,-115 3,-109"/>
<path fill="#ffffff" stroke="#ffffff" stroke-width="1.5" d="M3,-97C3,-91 9,-85 15,-85"/>
<polyline fill="none" stroke="#2e3436" stroke-width="1.5" points="15,-85 69,-85 "/>
<path fill="none" stroke="#2e3436" stroke-width="1.5" d="M69,-85C75,-85 81,-91 81,-97"/>
<polyline fill="none" stroke="#2e3436" stroke-width="1.5" points="81,-97 81,-109 "/>
<path fill="none" stroke="#2e3436" stroke-width="1.5" d="M81,-109C81,-115 75,-121 69,-121"/>
<polyline fill="none" stroke="#2e3436" stroke-width="1.5" points="69,-121 15,-121 "/>
<path fill="none" stroke="#2e3436" stroke-width="1.5" d="M15,-121C9,-121 3,-115 3,-109"/>
<polyline fill="none" stroke="#2e3436" stroke-width="1.5" points="3,-109 3,-97 "/>
<path fill="none" stroke="#2e3436" stroke-width="1.5" d="M3,-97C3,-91 9,-85 15,-85"/>
<text text-anchor="middle" x="42" y="-109.8" font-family="FreeSans" font-size="8.00" fill="#1c2021">Node[1]</text>
<polyline fill="none" stroke="#2e3436" stroke-width="1.5" points="3,-103 81,-103 "/>
<text text-anchor="start" x="11" y="-91.8" font-family="FreeSans" font-size="8.00" fill="#1c2021">name = &#39;Sara&#39;</text>
</g>
<!-- N2 -->
<g id="node3" class="node"><title>N2</title>
<polygon fill="#ffffff" stroke="#ffffff" stroke-width="1.5" points="11.5,-1 68.5,-1 80.5,-13 80.5,-25 68.5,-37 11.5,-37 -0.5,-25 -0.5,-13 11.5,-1"/>
<path fill="#ffffff" stroke="#ffffff" stroke-width="1.5" d="M68.5,-1C74.5,-1 80.5,-7 80.5,-13"/>
<path fill="#ffffff" stroke="#ffffff" stroke-width="1.5" d="M80.5,-25C80.5,-31 74.5,-37 68.5,-37"/>
<path fill="#ffffff" stroke="#ffffff" stroke-width="1.5" d="M11.5,-37C5.5,-37 -0.5,-31 -0.5,-25"/>
<path fill="#ffffff" stroke="#ffffff" stroke-width="1.5" d="M-0.5,-13C-0.5,-7 5.5,-1 11.5,-1"/>
<polyline fill="none" stroke="#2e3436" stroke-width="1.5" points="11.5,-1 68.5,-1 "/>
<path fill="none" stroke="#2e3436" stroke-width="1.5" d="M68.5,-1C74.5,-1 80.5,-7 80.5,-13"/>
<polyline fill="none" stroke="#2e3436" stroke-width="1.5" points="80.5,-13 80.5,-25 "/>
<path fill="none" stroke="#2e3436" stroke-width="1.5" d="M80.5,-25C80.5,-31 74.5,-37 68.5,-37"/>
<polyline fill="none" stroke="#2e3436" stroke-width="1.5" points="68.5,-37 11.5,-37 "/>
<path fill="none" stroke="#2e3436" stroke-width="1.5" d="M11.5,-37C5.5,-37 -0.5,-31 -0.5,-25"/>
<polyline fill="none" stroke="#2e3436" stroke-width="1.5" points="-0.5,-25 -0.5,-13 "/>
<path fill="none" stroke="#2e3436" stroke-width="1.5" d="M-0.5,-13C-0.5,-7 5.5,-1 11.5,-1"/>
<text text-anchor="middle" x="40" y="-25.8" font-family="FreeSans" font-size="8.00" fill="#1c2021">Node[2]</text>
<polyline fill="none" stroke="#2e3436" stroke-width="1.5" points="-0.5,-19 80.5,-19 "/>
<text text-anchor="start" x="7.5" y="-7.8" font-family="FreeSans" font-size="8.00" fill="#1c2021">name = &#39;Maria&#39;</text>
</g>
<!-- N1&#45;&gt;N2 -->
<g id="edge2" class="edge"><title>N1&#45;&gt;N2</title>
<path fill="none" stroke="#2e3436" stroke-width="2" d="M41.566,-84.7733C41.2882,-73.1053 40.9235,-57.7874 40.6159,-44.8699"/>
<polygon fill="#2e3436" stroke="#2e3436" points="40.4331,-37.1912 43.9858,-44.6087 41.0223,-40.9282 41.1116,-44.6771 40.6117,-44.6891 40.1119,-44.701 40.0226,-40.952 37.2377,-44.7694 40.4331,-37.1912 40.4331,-37.1912"/>
<text text-anchor="middle" x="54.5" y="-58.8" font-family="FreeSans" font-size="8.00" fill="#2e3436">friend</text>
</g>
<!-- N3 -->
<g id="node4" class="node"><title>N3</title>
<polygon fill="#ffffff" stroke="#ffffff" stroke-width="1.5" points="121,-1 179,-1 191,-13 191,-25 179,-37 121,-37 109,-25 109,-13 121,-1"/>
<path fill="#ffffff" stroke="#ffffff" stroke-width="1.5" d="M179,-1C185,-1 191,-7 191,-13"/>
<path fill="#ffffff" stroke="#ffffff" stroke-width="1.5" d="M191,-25C191,-31 185,-37 179,-37"/>
<path fill="#ffffff" stroke="#ffffff" stroke-width="1.5" d="M121,-37C115,-37 109,-31 109,-25"/>
<path fill="#ffffff" stroke="#ffffff" stroke-width="1.5" d="M109,-13C109,-7 115,-1 121,-1"/>
<polyline fill="none" stroke="#2e3436" stroke-width="1.5" points="121,-1 179,-1 "/>
<path fill="none" stroke="#2e3436" stroke-width="1.5" d="M179,-1C185,-1 191,-7 191,-13"/>
<polyline fill="none" stroke="#2e3436" stroke-width="1.5" points="191,-13 191,-25 "/>
<path fill="none" stroke="#2e3436" stroke-width="1.5" d="M191,-25C191,-31 185,-37 179,-37"/>
<polyline fill="none" stroke="#2e3436" stroke-width="1.5" points="179,-37 121,-37 "/>
<path fill="none" stroke="#2e3436" stroke-width="1.5" d="M121,-37C115,-37 109,-31 109,-25"/>
<polyline fill="none" stroke="#2e3436" stroke-width="1.5" points="109,-25 109,-13 "/>
<path fill="none" stroke="#2e3436" stroke-width="1.5" d="M109,-13C109,-7 115,-1 121,-1"/>
<text text-anchor="middle" x="150" y="-25.8" font-family="FreeSans" font-size="8.00" fill="#1c2021">Node[3]</text>
<polyline fill="none" stroke="#2e3436" stroke-width="1.5" points="109,-19 191,-19 "/>
<text text-anchor="start" x="117" y="-7.8" font-family="FreeSans" font-size="8.00" fill="#1c2021">name = &#39;Steve&#39;</text>
</g>
<!-- N4 -->
<g id="node5" class="node"><title>N4</title>
<polygon fill="#ffffff" stroke="#ffffff" stroke-width="1.5" points="74,-169 126,-169 138,-181 138,-193 126,-205 74,-205 62,-193 62,-181 74,-169"/>
<path fill="#ffffff" stroke="#ffffff" stroke-width="1.5" d="M126,-169C132,-169 138,-175 138,-181"/>
<path fill="#ffffff" stroke="#ffffff" stroke-width="1.5" d="M138,-193C138,-199 132,-205 126,-205"/>
<path fill="#ffffff" stroke="#ffffff" stroke-width="1.5" d="M74,-205C68,-205 62,-199 62,-193"/>
<path fill="#ffffff" stroke="#ffffff" stroke-width="1.5" d="M62,-181C62,-175 68,-169 74,-169"/>
<polyline fill="none" stroke="#2e3436" stroke-width="1.5" points="74,-169 126,-169 "/>
<path fill="none" stroke="#2e3436" stroke-width="1.5" d="M126,-169C132,-169 138,-175 138,-181"/>
<polyline fill="none" stroke="#2e3436" stroke-width="1.5" points="138,-181 138,-193 "/>
<path fill="none" stroke="#2e3436" stroke-width="1.5" d="M138,-193C138,-199 132,-205 126,-205"/>
<polyline fill="none" stroke="#2e3436" stroke-width="1.5" points="126,-205 74,-205 "/>
<path fill="none" stroke="#2e3436" stroke-width="1.5" d="M74,-205C68,-205 62,-199 62,-193"/>
<polyline fill="none" stroke="#2e3436" stroke-width="1.5" points="62,-193 62,-181 "/>
<path fill="none" stroke="#2e3436" stroke-width="1.5" d="M62,-181C62,-175 68,-169 74,-169"/>
<text text-anchor="middle" x="100" y="-193.8" font-family="FreeSans" font-size="8.00" fill="#1c2021">Node[4]</text>
<polyline fill="none" stroke="#2e3436" stroke-width="1.5" points="62,-187 138,-187 "/>
<text text-anchor="start" x="70" y="-175.8" font-family="FreeSans" font-size="8.00" fill="#1c2021">name = &#39;John&#39;</text>
</g>
<!-- N4&#45;&gt;N1 -->
<g id="edge4" class="edge"><title>N4&#45;&gt;N1</title>
<path fill="none" stroke="#2e3436" stroke-width="2" d="M87.4149,-168.773C79.0544,-156.665 67.98,-140.626 58.8601,-127.418"/>
<polygon fill="#2e3436" stroke="#2e3436" points="54.5606,-121.191 61.5993,-125.445 57.1028,-123.993 59.2335,-127.079 58.822,-127.363 58.4106,-127.647 56.2799,-124.561 56.0448,-129.281 54.5606,-121.191 54.5606,-121.191"/>
<text text-anchor="middle" x="85.5" y="-142.8" font-family="FreeSans" font-size="8.00" fill="#2e3436">friend</text>
</g>
<!-- N5 -->
<g id="node8" class="node"><title>N5</title>
<polygon fill="#ffffff" stroke="#ffffff" stroke-width="1.5" points="124.5,-85 171.5,-85 183.5,-97 183.5,-109 171.5,-121 124.5,-121 112.5,-109 112.5,-97 124.5,-85"/>
<path fill="#ffffff" stroke="#ffffff" stroke-width="1.5" d="M171.5,-85C177.5,-85 183.5,-91 183.5,-97"/>
<path fill="#ffffff" stroke="#ffffff" stroke-width="1.5" d="M183.5,-109C183.5,-115 177.5,-121 171.5,-121"/>
<path fill="#ffffff" stroke="#ffffff" stroke-width="1.5" d="M124.5,-121C118.5,-121 112.5,-115 112.5,-109"/>
<path fill="#ffffff" stroke="#ffffff" stroke-width="1.5" d="M112.5,-97C112.5,-91 118.5,-85 124.5,-85"/>
<polyline fill="none" stroke="#2e3436" stroke-width="1.5" points="124.5,-85 171.5,-85 "/>
<path fill="none" stroke="#2e3436" stroke-width="1.5" d="M171.5,-85C177.5,-85 183.5,-91 183.5,-97"/>
<polyline fill="none" stroke="#2e3436" stroke-width="1.5" points="183.5,-97 183.5,-109 "/>
<path fill="none" stroke="#2e3436" stroke-width="1.5" d="M183.5,-109C183.5,-115 177.5,-121 171.5,-121"/>
<polyline fill="none" stroke="#2e3436" stroke-width="1.5" points="171.5,-121 124.5,-121 "/>
<path fill="none" stroke="#2e3436" stroke-width="1.5" d="M124.5,-121C118.5,-121 112.5,-115 112.5,-109"/>
<polyline fill="none" stroke="#2e3436" stroke-width="1.5" points="112.5,-109 112.5,-97 "/>
<path fill="none" stroke="#2e3436" stroke-width="1.5" d="M112.5,-97C112.5,-91 118.5,-85 124.5,-85"/>
<text text-anchor="middle" x="148" y="-109.8" font-family="FreeSans" font-size="8.00" fill="#1c2021">Node[5]</text>
<polyline fill="none" stroke="#2e3436" stroke-width="1.5" points="112.5,-103 183.5,-103 "/>
<text text-anchor="start" x="120.5" y="-91.8" font-family="FreeSans" font-size="8.00" fill="#1c2021">name = &#39;Joe&#39;</text>
</g>
<!-- N4&#45;&gt;N5 -->
<g id="edge6" class="edge"><title>N4&#45;&gt;N5</title>
<path fill="none" stroke="#2e3436" stroke-width="2" d="M110.415,-168.773C117.271,-156.775 126.333,-140.917 133.841,-127.779"/>
<polygon fill="#2e3436" stroke="#2e3436" points="137.605,-121.191 136.814,-129.378 136.179,-124.695 134.318,-127.951 133.884,-127.703 133.45,-127.455 135.31,-124.199 130.954,-126.029 137.605,-121.191 137.605,-121.191"/>
<text text-anchor="middle" x="137.5" y="-142.8" font-family="FreeSans" font-size="8.00" fill="#2e3436">friend</text>
</g>
<!-- N5&#45;&gt;N3 -->
<g id="edge8" class="edge"><title>N5&#45;&gt;N3</title>
<path fill="none" stroke="#2e3436" stroke-width="2" d="M148.434,-84.7733C148.712,-73.1053 149.076,-57.7874 149.384,-44.8699"/>
<polygon fill="#2e3436" stroke="#2e3436" points="149.567,-37.1912 152.762,-44.7694 149.977,-40.952 149.888,-44.701 149.388,-44.6891 148.888,-44.6771 148.978,-40.9282 146.014,-44.6087 149.567,-37.1912 149.567,-37.1912"/>
<text text-anchor="middle" x="161.5" y="-58.8" font-family="FreeSans" font-size="8.00" fill="#2e3436">friend</text>
</g>
</g>
</svg>
