<?xml version="1.0" encoding="UTF-8" standalone="no"?>
<!DOCTYPE svg PUBLIC "-//W3C//DTD SVG 1.1//EN"
 "http://www.w3.org/Graphics/SVG/1.1/DTD/svg11.dtd">
<!-- Generated by graphviz version 2.26.3 (20100126.1600)
 -->
<!-- Title: g Pages: 1 -->
<svg width="315pt" height="382pt"
 viewBox="0.00 0.00 315.00 382.00" xmlns="http://www.w3.org/2000/svg" xmlns:xlink="http://www.w3.org/1999/xlink">
<g id="graph1" class="graph" transform="scale(1 1) rotate(0) translate(4 378)">
<title>g</title>
<polygon fill="white" stroke="white" points="-4,5 -4,-378 312,-378 312,5 -4,5"/>
<!-- N288 -->
<g id="node1" class="node"><title>N288</title>
<polygon fill="#ffffff" stroke="#ffffff" stroke-width="1.5" points="229.5,-85 266.5,-85 278.5,-97 278.5,-109 266.5,-121 229.5,-121 217.5,-109 217.5,-97 229.5,-85"/>
<path fill="#ffffff" stroke="#ffffff" stroke-width="1.5" d="M266.5,-85C272.5,-85 278.5,-91 278.5,-97"/>
<path fill="#ffffff" stroke="#ffffff" stroke-width="1.5" d="M278.5,-109C278.5,-115 272.5,-121 266.5,-121"/>
<path fill="#ffffff" stroke="#ffffff" stroke-width="1.5" d="M229.5,-121C223.5,-121 217.5,-115 217.5,-109"/>
<path fill="#ffffff" stroke="#ffffff" stroke-width="1.5" d="M217.5,-97C217.5,-91 223.5,-85 229.5,-85"/>
<polyline fill="none" stroke="#2e3436" stroke-width="1.5" points="229.5,-85 266.5,-85 "/>
<path fill="none" stroke="#2e3436" stroke-width="1.5" d="M266.5,-85C272.5,-85 278.5,-91 278.5,-97"/>
<polyline fill="none" stroke="#2e3436" stroke-width="1.5" points="278.5,-97 278.5,-109 "/>
<path fill="none" stroke="#2e3436" stroke-width="1.5" d="M278.5,-109C278.5,-115 272.5,-121 266.5,-121"/>
<polyline fill="none" stroke="#2e3436" stroke-width="1.5" points="266.5,-121 229.5,-121 "/>
<path fill="none" stroke="#2e3436" stroke-width="1.5" d="M229.5,-121C223.5,-121 217.5,-115 217.5,-109"/>
<polyline fill="none" stroke="#2e3436" stroke-width="1.5" points="217.5,-109 217.5,-97 "/>
<path fill="none" stroke="#2e3436" stroke-width="1.5" d="M217.5,-97C217.5,-91 223.5,-85 229.5,-85"/>
<text text-anchor="middle" x="248" y="-109.8" font-family="FreeSans" font-size="8.00" fill="#1c2021">Node[288]</text>
<polyline fill="none" stroke="#2e3436" stroke-width="1.5" points="217.5,-103 278.5,-103 "/>
<text text-anchor="start" x="225.5" y="-91.8" font-family="FreeSans" font-size="8.00" fill="#1c2021">name = &#39;f&#39;</text>
</g>
<!-- N289 -->
<g id="node3" class="node"><title>N289</title>
<polygon fill="#ffffff" stroke="#ffffff" stroke-width="1.5" points="126.5,-1 165.5,-1 177.5,-13 177.5,-25 165.5,-37 126.5,-37 114.5,-25 114.5,-13 126.5,-1"/>
<path fill="#ffffff" stroke="#ffffff" stroke-width="1.5" d="M165.5,-1C171.5,-1 177.5,-7 177.5,-13"/>
<path fill="#ffffff" stroke="#ffffff" stroke-width="1.5" d="M177.5,-25C177.5,-31 171.5,-37 165.5,-37"/>
<path fill="#ffffff" stroke="#ffffff" stroke-width="1.5" d="M126.5,-37C120.5,-37 114.5,-31 114.5,-25"/>
<path fill="#ffffff" stroke="#ffffff" stroke-width="1.5" d="M114.5,-13C114.5,-7 120.5,-1 126.5,-1"/>
<polyline fill="none" stroke="#2e3436" stroke-width="1.5" points="126.5,-1 165.5,-1 "/>
<path fill="none" stroke="#2e3436" stroke-width="1.5" d="M165.5,-1C171.5,-1 177.5,-7 177.5,-13"/>
<polyline fill="none" stroke="#2e3436" stroke-width="1.5" points="177.5,-13 177.5,-25 "/>
<path fill="none" stroke="#2e3436" stroke-width="1.5" d="M177.5,-25C177.5,-31 171.5,-37 165.5,-37"/>
<polyline fill="none" stroke="#2e3436" stroke-width="1.5" points="165.5,-37 126.5,-37 "/>
<path fill="none" stroke="#2e3436" stroke-width="1.5" d="M126.5,-37C120.5,-37 114.5,-31 114.5,-25"/>
<polyline fill="none" stroke="#2e3436" stroke-width="1.5" points="114.5,-25 114.5,-13 "/>
<path fill="none" stroke="#2e3436" stroke-width="1.5" d="M114.5,-13C114.5,-7 120.5,-1 126.5,-1"/>
<text text-anchor="middle" x="146" y="-25.8" font-family="FreeSans" font-size="8.00" fill="#1c2021">Node[289]</text>
<polyline fill="none" stroke="#2e3436" stroke-width="1.5" points="114.5,-19 177.5,-19 "/>
<text text-anchor="start" x="122.5" y="-7.8" font-family="FreeSans" font-size="8.00" fill="#1c2021">name = &#39;g&#39;</text>
</g>
<!-- N288&#45;&gt;N289 -->
<g id="edge2" class="edge"><title>N288&#45;&gt;N289</title>
<path fill="none" stroke="#2e3436" stroke-width="2" d="M228.438,-84.9916C218.572,-76.0794 206.323,-65.2717 195,-56 189.185,-51.2389 182.857,-46.294 176.739,-41.6277"/>
<polygon fill="#2e3436" stroke="#2e3436" points="170.718,-37.0714 178.736,-38.9059 174.01,-38.9355 177.001,-41.1984 176.699,-41.5972 176.397,-41.9959 173.407,-39.733 174.662,-44.2884 170.718,-37.0714 170.718,-37.0714"/>
<text text-anchor="middle" x="210.5" y="-58.8" font-family="FreeSans" font-size="8.00" fill="#2e3436">to</text>
</g>
<!-- N290 -->
<g id="node4" class="node"><title>N290</title>
<polygon fill="#ffffff" stroke="#ffffff" stroke-width="1.5" points="78.5,-169 117.5,-169 129.5,-181 129.5,-193 117.5,-205 78.5,-205 66.5,-193 66.5,-181 78.5,-169"/>
<path fill="#ffffff" stroke="#ffffff" stroke-width="1.5" d="M117.5,-169C123.5,-169 129.5,-175 129.5,-181"/>
<path fill="#ffffff" stroke="#ffffff" stroke-width="1.5" d="M129.5,-193C129.5,-199 123.5,-205 117.5,-205"/>
<path fill="#ffffff" stroke="#ffffff" stroke-width="1.5" d="M78.5,-205C72.5,-205 66.5,-199 66.5,-193"/>
<path fill="#ffffff" stroke="#ffffff" stroke-width="1.5" d="M66.5,-181C66.5,-175 72.5,-169 78.5,-169"/>
<polyline fill="none" stroke="#2e3436" stroke-width="1.5" points="78.5,-169 117.5,-169 "/>
<path fill="none" stroke="#2e3436" stroke-width="1.5" d="M117.5,-169C123.5,-169 129.5,-175 129.5,-181"/>
<polyline fill="none" stroke="#2e3436" stroke-width="1.5" points="129.5,-181 129.5,-193 "/>
<path fill="none" stroke="#2e3436" stroke-width="1.5" d="M129.5,-193C129.5,-199 123.5,-205 117.5,-205"/>
<polyline fill="none" stroke="#2e3436" stroke-width="1.5" points="117.5,-205 78.5,-205 "/>
<path fill="none" stroke="#2e3436" stroke-width="1.5" d="M78.5,-205C72.5,-205 66.5,-199 66.5,-193"/>
<polyline fill="none" stroke="#2e3436" stroke-width="1.5" points="66.5,-193 66.5,-181 "/>
<path fill="none" stroke="#2e3436" stroke-width="1.5" d="M66.5,-181C66.5,-175 72.5,-169 78.5,-169"/>
<text text-anchor="middle" x="98" y="-193.8" font-family="FreeSans" font-size="8.00" fill="#1c2021">Node[290]</text>
<polyline fill="none" stroke="#2e3436" stroke-width="1.5" points="66.5,-187 129.5,-187 "/>
<text text-anchor="start" x="74.5" y="-175.8" font-family="FreeSans" font-size="8.00" fill="#1c2021">name = &#39;d&#39;</text>
</g>
<!-- N290&#45;&gt;N289 -->
<g id="edge6" class="edge"><title>N290&#45;&gt;N289</title>
<path fill="none" stroke="#2e3436" stroke-width="2" d="M103.228,-168.701C111.835,-138.578 129.004,-78.4856 138.769,-44.3077"/>
<polygon fill="#2e3436" stroke="#2e3436" points="140.851,-37.0219 142.036,-45.1606 140.301,-40.765 139.271,-44.3707 138.79,-44.2333 138.31,-44.096 139.34,-40.4903 135.545,-43.3061 140.851,-37.0219 140.851,-37.0219"/>
<text text-anchor="middle" x="131.5" y="-100.8" font-family="FreeSans" font-size="8.00" fill="#2e3436">to</text>
</g>
<!-- N291 -->
<g id="node6" class="node"><title>N291</title>
<polygon fill="#ffffff" stroke="#ffffff" stroke-width="1.5" points="11.5,-85 50.5,-85 62.5,-97 62.5,-109 50.5,-121 11.5,-121 -0.5,-109 -0.5,-97 11.5,-85"/>
<path fill="#ffffff" stroke="#ffffff" stroke-width="1.5" d="M50.5,-85C56.5,-85 62.5,-91 62.5,-97"/>
<path fill="#ffffff" stroke="#ffffff" stroke-width="1.5" d="M62.5,-109C62.5,-115 56.5,-121 50.5,-121"/>
<path fill="#ffffff" stroke="#ffffff" stroke-width="1.5" d="M11.5,-121C5.5,-121 -0.5,-115 -0.5,-109"/>
<path fill="#ffffff" stroke="#ffffff" stroke-width="1.5" d="M-0.5,-97C-0.5,-91 5.5,-85 11.5,-85"/>
<polyline fill="none" stroke="#2e3436" stroke-width="1.5" points="11.5,-85 50.5,-85 "/>
<path fill="none" stroke="#2e3436" stroke-width="1.5" d="M50.5,-85C56.5,-85 62.5,-91 62.5,-97"/>
<polyline fill="none" stroke="#2e3436" stroke-width="1.5" points="62.5,-97 62.5,-109 "/>
<path fill="none" stroke="#2e3436" stroke-width="1.5" d="M62.5,-109C62.5,-115 56.5,-121 50.5,-121"/>
<polyline fill="none" stroke="#2e3436" stroke-width="1.5" points="50.5,-121 11.5,-121 "/>
<path fill="none" stroke="#2e3436" stroke-width="1.5" d="M11.5,-121C5.5,-121 -0.5,-115 -0.5,-109"/>
<polyline fill="none" stroke="#2e3436" stroke-width="1.5" points="-0.5,-109 -0.5,-97 "/>
<path fill="none" stroke="#2e3436" stroke-width="1.5" d="M-0.5,-97C-0.5,-91 5.5,-85 11.5,-85"/>
<text text-anchor="middle" x="31" y="-109.8" font-family="FreeSans" font-size="8.00" fill="#1c2021">Node[291]</text>
<polyline fill="none" stroke="#2e3436" stroke-width="1.5" points="-0.5,-103 62.5,-103 "/>
<text text-anchor="start" x="7.5" y="-91.8" font-family="FreeSans" font-size="8.00" fill="#1c2021">name = &#39;e&#39;</text>
</g>
<!-- N290&#45;&gt;N291 -->
<g id="edge4" class="edge"><title>N290&#45;&gt;N291</title>
<path fill="none" stroke="#2e3436" stroke-width="2" d="M83.462,-168.773C73.7164,-156.555 60.7785,-140.334 50.1896,-127.059"/>
<polygon fill="#2e3436" stroke="#2e3436" points="45.5096,-121.191 52.8249,-124.95 48.2389,-123.811 50.5773,-126.743 50.1864,-127.055 49.7955,-127.366 47.4571,-124.435 47.5479,-129.159 45.5096,-121.191 45.5096,-121.191"/>
<text text-anchor="middle" x="71.5" y="-142.8" font-family="FreeSans" font-size="8.00" fill="#2e3436">to</text>
</g>
<!-- N291&#45;&gt;N289 -->
<g id="edge8" class="edge"><title>N291&#45;&gt;N289</title>
<path fill="none" stroke="#2e3436" stroke-width="2" d="M52.3337,-84.8151C63.1133,-75.8595 76.5232,-65.0663 89,-56 95.7958,-51.0619 103.221,-46.0083 110.399,-41.2857"/>
<polygon fill="#2e3436" stroke="#2e3436" points="116.897,-37.0543 112.454,-43.9752 114.028,-39.5196 110.885,-41.5659 110.612,-41.1469 110.339,-40.7279 113.482,-38.6816 108.771,-38.3187 116.897,-37.0543 116.897,-37.0543"/>
<text text-anchor="middle" x="93.5" y="-58.8" font-family="FreeSans" font-size="8.00" fill="#2e3436">to</text>
</g>
<!-- N292 -->
<g id="node9" class="node"><title>N292</title>
<polygon fill="#ffffff" stroke="#ffffff" stroke-width="1.5" points="228.5,-169 267.5,-169 279.5,-181 279.5,-193 267.5,-205 228.5,-205 216.5,-193 216.5,-181 228.5,-169"/>
<path fill="#ffffff" stroke="#ffffff" stroke-width="1.5" d="M267.5,-169C273.5,-169 279.5,-175 279.5,-181"/>
<path fill="#ffffff" stroke="#ffffff" stroke-width="1.5" d="M279.5,-193C279.5,-199 273.5,-205 267.5,-205"/>
<path fill="#ffffff" stroke="#ffffff" stroke-width="1.5" d="M228.5,-205C222.5,-205 216.5,-199 216.5,-193"/>
<path fill="#ffffff" stroke="#ffffff" stroke-width="1.5" d="M216.5,-181C216.5,-175 222.5,-169 228.5,-169"/>
<polyline fill="none" stroke="#2e3436" stroke-width="1.5" points="228.5,-169 267.5,-169 "/>
<path fill="none" stroke="#2e3436" stroke-width="1.5" d="M267.5,-169C273.5,-169 279.5,-175 279.5,-181"/>
<polyline fill="none" stroke="#2e3436" stroke-width="1.5" points="279.5,-181 279.5,-193 "/>
<path fill="none" stroke="#2e3436" stroke-width="1.5" d="M279.5,-193C279.5,-199 273.5,-205 267.5,-205"/>
<polyline fill="none" stroke="#2e3436" stroke-width="1.5" points="267.5,-205 228.5,-205 "/>
<path fill="none" stroke="#2e3436" stroke-width="1.5" d="M228.5,-205C222.5,-205 216.5,-199 216.5,-193"/>
<polyline fill="none" stroke="#2e3436" stroke-width="1.5" points="216.5,-193 216.5,-181 "/>
<path fill="none" stroke="#2e3436" stroke-width="1.5" d="M216.5,-181C216.5,-175 222.5,-169 228.5,-169"/>
<text text-anchor="middle" x="248" y="-193.8" font-family="FreeSans" font-size="8.00" fill="#1c2021">Node[292]</text>
<polyline fill="none" stroke="#2e3436" stroke-width="1.5" points="216.5,-187 279.5,-187 "/>
<text text-anchor="start" x="224.5" y="-175.8" font-family="FreeSans" font-size="8.00" fill="#1c2021">name = &#39;b&#39;</text>
</g>
<!-- N292&#45;&gt;N288 -->
<g id="edge10" class="edge"><title>N292&#45;&gt;N288</title>
<path fill="none" stroke="#2e3436" stroke-width="2" d="M248,-168.773C248,-157.105 248,-141.787 248,-128.87"/>
<polygon fill="#2e3436" stroke="#2e3436" points="248,-121.191 251.375,-128.691 248.5,-124.941 248.5,-128.691 248,-128.691 247.5,-128.691 247.5,-124.941 244.625,-128.691 248,-121.191 248,-121.191"/>
<text text-anchor="middle" x="252.5" y="-142.8" font-family="FreeSans" font-size="8.00" fill="#2e3436">to</text>
</g>
<!-- N293 -->
<g id="node11" class="node"><title>N293</title>
<polygon fill="#ffffff" stroke="#ffffff" stroke-width="1.5" points="193,-253 231,-253 243,-265 243,-277 231,-289 193,-289 181,-277 181,-265 193,-253"/>
<path fill="#ffffff" stroke="#ffffff" stroke-width="1.5" d="M231,-253C237,-253 243,-259 243,-265"/>
<path fill="#ffffff" stroke="#ffffff" stroke-width="1.5" d="M243,-277C243,-283 237,-289 231,-289"/>
<path fill="#ffffff" stroke="#ffffff" stroke-width="1.5" d="M193,-289C187,-289 181,-283 181,-277"/>
<path fill="#ffffff" stroke="#ffffff" stroke-width="1.5" d="M181,-265C181,-259 187,-253 193,-253"/>
<polyline fill="none" stroke="#2e3436" stroke-width="1.5" points="193,-253 231,-253 "/>
<path fill="none" stroke="#2e3436" stroke-width="1.5" d="M231,-253C237,-253 243,-259 243,-265"/>
<polyline fill="none" stroke="#2e3436" stroke-width="1.5" points="243,-265 243,-277 "/>
<path fill="none" stroke="#2e3436" stroke-width="1.5" d="M243,-277C243,-283 237,-289 231,-289"/>
<polyline fill="none" stroke="#2e3436" stroke-width="1.5" points="231,-289 193,-289 "/>
<path fill="none" stroke="#2e3436" stroke-width="1.5" d="M193,-289C187,-289 181,-283 181,-277"/>
<polyline fill="none" stroke="#2e3436" stroke-width="1.5" points="181,-277 181,-265 "/>
<path fill="none" stroke="#2e3436" stroke-width="1.5" d="M181,-265C181,-259 187,-253 193,-253"/>
<text text-anchor="middle" x="212" y="-277.8" font-family="FreeSans" font-size="8.00" fill="#1c2021">Node[293]</text>
<polyline fill="none" stroke="#2e3436" stroke-width="1.5" points="181,-271 243,-271 "/>
<text text-anchor="start" x="189" y="-259.8" font-family="FreeSans" font-size="8.00" fill="#1c2021">name = &#39;c&#39;</text>
</g>
<!-- N293&#45;&gt;N288 -->
<g id="edge14" class="edge"><title>N293&#45;&gt;N288</title>
<path fill="none" stroke="#2e3436" stroke-width="2" d="M243.317,-255.468C261.763,-244.448 283.485,-227.753 294,-206 306.955,-179.2 288.31,-147.914 271.023,-126.917"/>
<polygon fill="#2e3436" stroke="#2e3436" points="265.975,-121.014 273.414,-124.521 268.792,-123.539 271.229,-126.389 270.849,-126.714 270.469,-127.039 268.032,-124.189 268.284,-128.908 265.975,-121.014 265.975,-121.014"/>
<text text-anchor="middle" x="302.5" y="-184.8" font-family="FreeSans" font-size="8.00" fill="#2e3436">to</text>
</g>
<!-- N293&#45;&gt;N289 -->
<g id="edge16" class="edge"><title>N293&#45;&gt;N289</title>
<path fill="none" stroke="#2e3436" stroke-width="2" d="M207.253,-252.877C195.699,-208.759 166.079,-95.6642 152.717,-44.6461"/>
<polygon fill="#2e3436" stroke="#2e3436" points="150.792,-37.2976 155.957,-43.6978 152.226,-40.7986 153.176,-44.4262 152.692,-44.5529 152.209,-44.6796 151.259,-41.0519 149.428,-45.408 150.792,-37.2976 150.792,-37.2976"/>
<text text-anchor="middle" x="183.5" y="-142.8" font-family="FreeSans" font-size="8.00" fill="#2e3436">to</text>
</g>
<!-- N293&#45;&gt;N292 -->
<g id="edge12" class="edge"><title>N293&#45;&gt;N292</title>
<path fill="none" stroke="#2e3436" stroke-width="2" d="M219.811,-252.773C224.906,-240.885 231.625,-225.208 237.225,-212.141"/>
<polygon fill="#2e3436" stroke="#2e3436" points="240.204,-205.191 240.351,-213.414 239.186,-208.835 237.709,-212.282 237.249,-212.085 236.79,-211.888 238.267,-208.441 234.147,-210.755 240.204,-205.191 240.204,-205.191"/>
<text text-anchor="middle" x="235.5" y="-226.8" font-family="FreeSans" font-size="8.00" fill="#2e3436">to</text>
</g>
<!-- N294 -->
<g id="node15" class="node"><title>N294</title>
<polygon fill="#ffffff" stroke="#ffffff" stroke-width="1.5" points="136.5,-337 175.5,-337 187.5,-349 187.5,-361 175.5,-373 136.5,-373 124.5,-361 124.5,-349 136.5,-337"/>
<path fill="#ffffff" stroke="#ffffff" stroke-width="1.5" d="M175.5,-337C181.5,-337 187.5,-343 187.5,-349"/>
<path fill="#ffffff" stroke="#ffffff" stroke-width="1.5" d="M187.5,-361C187.5,-367 181.5,-373 175.5,-373"/>
<path fill="#ffffff" stroke="#ffffff" stroke-width="1.5" d="M136.5,-373C130.5,-373 124.5,-367 124.5,-361"/>
<path fill="#ffffff" stroke="#ffffff" stroke-width="1.5" d="M124.5,-349C124.5,-343 130.5,-337 136.5,-337"/>
<polyline fill="none" stroke="#2e3436" stroke-width="1.5" points="136.5,-337 175.5,-337 "/>
<path fill="none" stroke="#2e3436" stroke-width="1.5" d="M175.5,-337C181.5,-337 187.5,-343 187.5,-349"/>
<polyline fill="none" stroke="#2e3436" stroke-width="1.5" points="187.5,-349 187.5,-361 "/>
<path fill="none" stroke="#2e3436" stroke-width="1.5" d="M187.5,-361C187.5,-367 181.5,-373 175.5,-373"/>
<polyline fill="none" stroke="#2e3436" stroke-width="1.5" points="175.5,-373 136.5,-373 "/>
<path fill="none" stroke="#2e3436" stroke-width="1.5" d="M136.5,-373C130.5,-373 124.5,-367 124.5,-361"/>
<polyline fill="none" stroke="#2e3436" stroke-width="1.5" points="124.5,-361 124.5,-349 "/>
<path fill="none" stroke="#2e3436" stroke-width="1.5" d="M124.5,-349C124.5,-343 130.5,-337 136.5,-337"/>
<text text-anchor="middle" x="156" y="-361.8" font-family="FreeSans" font-size="8.00" fill="#1c2021">Node[294]</text>
<polyline fill="none" stroke="#2e3436" stroke-width="1.5" points="124.5,-355 187.5,-355 "/>
<text text-anchor="start" x="132.5" y="-343.8" font-family="FreeSans" font-size="8.00" fill="#1c2021">name = &#39;a&#39;</text>
</g>
<!-- N294&#45;&gt;N290 -->
<g id="edge20" class="edge"><title>N294&#45;&gt;N290</title>
<path fill="none" stroke="#2e3436" stroke-width="2" d="M149.683,-336.701C139.283,-306.578 118.537,-246.486 106.737,-212.308"/>
<polygon fill="#2e3436" stroke="#2e3436" points="104.222,-205.022 109.86,-211.01 105.918,-208.403 107.142,-211.948 106.669,-212.111 106.197,-212.274 104.973,-208.73 103.479,-213.213 104.222,-205.022 104.222,-205.022"/>
<text text-anchor="middle" x="136.5" y="-268.8" font-family="FreeSans" font-size="8.00" fill="#2e3436">to</text>
</g>
<!-- N294&#45;&gt;N293 -->
<g id="edge18" class="edge"><title>N294&#45;&gt;N293</title>
<path fill="none" stroke="#2e3436" stroke-width="2" d="M168.151,-336.773C176.15,-324.775 186.722,-308.917 195.481,-295.779"/>
<polygon fill="#2e3436" stroke="#2e3436" points="199.873,-289.191 198.52,-297.304 198.208,-292.589 196.128,-295.709 195.712,-295.432 195.296,-295.154 197.376,-292.034 192.904,-293.559 199.873,-289.191 199.873,-289.191"/>
<text text-anchor="middle" x="189.5" y="-310.8" font-family="FreeSans" font-size="8.00" fill="#2e3436">to</text>
</g>
</g>
</svg>
