<?xml version="1.0" encoding="UTF-8" standalone="no"?>
<!DOCTYPE svg PUBLIC "-//W3C//DTD SVG 1.1//EN"
 "http://www.w3.org/Graphics/SVG/1.1/DTD/svg11.dtd">
<!-- Generated by graphviz version 2.26.3 (20100126.1600)
 -->
<!-- Title: g Pages: 1 -->
<svg width="236pt" height="382pt"
 viewBox="0.00 0.00 236.00 382.00" xmlns="http://www.w3.org/2000/svg" xmlns:xlink="http://www.w3.org/1999/xlink">
<g id="graph1" class="graph" transform="scale(1 1) rotate(0) translate(4 378)">
<title>g</title>
<polygon fill="white" stroke="white" points="-4,5 -4,-378 233,-378 233,5 -4,5"/>
<!-- N221 -->
<g id="node1" class="node"><title>N221</title>
<polygon fill="#ffffff" stroke="#ffffff" stroke-width="1.5" points="124,-1 178,-1 190,-13 190,-25 178,-37 124,-37 112,-25 112,-13 124,-1"/>
<path fill="#ffffff" stroke="#ffffff" stroke-width="1.5" d="M178,-1C184,-1 190,-7 190,-13"/>
<path fill="#ffffff" stroke="#ffffff" stroke-width="1.5" d="M190,-25C190,-31 184,-37 178,-37"/>
<path fill="#ffffff" stroke="#ffffff" stroke-width="1.5" d="M124,-37C118,-37 112,-31 112,-25"/>
<path fill="#ffffff" stroke="#ffffff" stroke-width="1.5" d="M112,-13C112,-7 118,-1 124,-1"/>
<polyline fill="none" stroke="#2e3436" stroke-width="1.5" points="124,-1 178,-1 "/>
<path fill="none" stroke="#2e3436" stroke-width="1.5" d="M178,-1C184,-1 190,-7 190,-13"/>
<polyline fill="none" stroke="#2e3436" stroke-width="1.5" points="190,-13 190,-25 "/>
<path fill="none" stroke="#2e3436" stroke-width="1.5" d="M190,-25C190,-31 184,-37 178,-37"/>
<polyline fill="none" stroke="#2e3436" stroke-width="1.5" points="178,-37 124,-37 "/>
<path fill="none" stroke="#2e3436" stroke-width="1.5" d="M124,-37C118,-37 112,-31 112,-25"/>
<polyline fill="none" stroke="#2e3436" stroke-width="1.5" points="112,-25 112,-13 "/>
<path fill="none" stroke="#2e3436" stroke-width="1.5" d="M112,-13C112,-7 118,-1 124,-1"/>
<text text-anchor="middle" x="151" y="-25.8" font-family="FreeSans" font-size="8.00" fill="#1c2021">Node[221]</text>
<polyline fill="none" stroke="#2e3436" stroke-width="1.5" points="112,-19 190,-19 "/>
<text text-anchor="start" x="120" y="-7.8" font-family="FreeSans" font-size="8.00" fill="#1c2021">name = &#39;Sara&#39;</text>
</g>
<!-- N222 -->
<g id="node2" class="node"><title>N222</title>
<polygon fill="#ffffff" stroke="#ffffff" stroke-width="1.5" points="42.5,-253 99.5,-253 111.5,-265 111.5,-277 99.5,-289 42.5,-289 30.5,-277 30.5,-265 42.5,-253"/>
<path fill="#ffffff" stroke="#ffffff" stroke-width="1.5" d="M99.5,-253C105.5,-253 111.5,-259 111.5,-265"/>
<path fill="#ffffff" stroke="#ffffff" stroke-width="1.5" d="M111.5,-277C111.5,-283 105.5,-289 99.5,-289"/>
<path fill="#ffffff" stroke="#ffffff" stroke-width="1.5" d="M42.5,-289C36.5,-289 30.5,-283 30.5,-277"/>
<path fill="#ffffff" stroke="#ffffff" stroke-width="1.5" d="M30.5,-265C30.5,-259 36.5,-253 42.5,-253"/>
<polyline fill="none" stroke="#2e3436" stroke-width="1.5" points="42.5,-253 99.5,-253 "/>
<path fill="none" stroke="#2e3436" stroke-width="1.5" d="M99.5,-253C105.5,-253 111.5,-259 111.5,-265"/>
<polyline fill="none" stroke="#2e3436" stroke-width="1.5" points="111.5,-265 111.5,-277 "/>
<path fill="none" stroke="#2e3436" stroke-width="1.5" d="M111.5,-277C111.5,-283 105.5,-289 99.5,-289"/>
<polyline fill="none" stroke="#2e3436" stroke-width="1.5" points="99.5,-289 42.5,-289 "/>
<path fill="none" stroke="#2e3436" stroke-width="1.5" d="M42.5,-289C36.5,-289 30.5,-283 30.5,-277"/>
<polyline fill="none" stroke="#2e3436" stroke-width="1.5" points="30.5,-277 30.5,-265 "/>
<path fill="none" stroke="#2e3436" stroke-width="1.5" d="M30.5,-265C30.5,-259 36.5,-253 42.5,-253"/>
<text text-anchor="middle" x="71" y="-277.8" font-family="FreeSans" font-size="8.00" fill="#1c2021">Node[222]</text>
<polyline fill="none" stroke="#2e3436" stroke-width="1.5" points="30.5,-271 111.5,-271 "/>
<text text-anchor="start" x="38.5" y="-259.8" font-family="FreeSans" font-size="8.00" fill="#1c2021">name = &#39;Johan&#39;</text>
</g>
<!-- N223 -->
<g id="node4" class="node"><title>N223</title>
<polygon fill="#ffffff" stroke="#ffffff" stroke-width="1.5" points="45,-169 97,-169 109,-181 109,-193 97,-205 45,-205 33,-193 33,-181 45,-169"/>
<path fill="#ffffff" stroke="#ffffff" stroke-width="1.5" d="M97,-169C103,-169 109,-175 109,-181"/>
<path fill="#ffffff" stroke="#ffffff" stroke-width="1.5" d="M109,-193C109,-199 103,-205 97,-205"/>
<path fill="#ffffff" stroke="#ffffff" stroke-width="1.5" d="M45,-205C39,-205 33,-199 33,-193"/>
<path fill="#ffffff" stroke="#ffffff" stroke-width="1.5" d="M33,-181C33,-175 39,-169 45,-169"/>
<polyline fill="none" stroke="#2e3436" stroke-width="1.5" points="45,-169 97,-169 "/>
<path fill="none" stroke="#2e3436" stroke-width="1.5" d="M97,-169C103,-169 109,-175 109,-181"/>
<polyline fill="none" stroke="#2e3436" stroke-width="1.5" points="109,-181 109,-193 "/>
<path fill="none" stroke="#2e3436" stroke-width="1.5" d="M109,-193C109,-199 103,-205 97,-205"/>
<polyline fill="none" stroke="#2e3436" stroke-width="1.5" points="97,-205 45,-205 "/>
<path fill="none" stroke="#2e3436" stroke-width="1.5" d="M45,-205C39,-205 33,-199 33,-193"/>
<polyline fill="none" stroke="#2e3436" stroke-width="1.5" points="33,-193 33,-181 "/>
<path fill="none" stroke="#2e3436" stroke-width="1.5" d="M33,-181C33,-175 39,-169 45,-169"/>
<text text-anchor="middle" x="71" y="-193.8" font-family="FreeSans" font-size="8.00" fill="#1c2021">Node[223]</text>
<polyline fill="none" stroke="#2e3436" stroke-width="1.5" points="33,-187 109,-187 "/>
<text text-anchor="start" x="41" y="-175.8" font-family="FreeSans" font-size="8.00" fill="#1c2021">name = &#39;Emil&#39;</text>
</g>
<!-- N222&#45;&gt;N223 -->
<g id="edge2" class="edge"><title>N222&#45;&gt;N223</title>
<path fill="none" stroke="#2e3436" stroke-width="2" d="M71,-252.773C71,-241.105 71,-225.787 71,-212.87"/>
<polygon fill="#2e3436" stroke="#2e3436" points="71,-205.191 74.3751,-212.691 71.5,-208.941 71.5001,-212.691 71.0001,-212.691 70.5001,-212.691 70.5,-208.941 67.6251,-212.691 71,-205.191 71,-205.191"/>
<text text-anchor="middle" x="85" y="-226.8" font-family="FreeSans" font-size="8.00" fill="#2e3436">knows</text>
</g>
<!-- N226 -->
<g id="node6" class="node"><title>N226</title>
<polygon fill="#ffffff" stroke="#ffffff" stroke-width="1.5" points="12,-85 68,-85 80,-97 80,-109 68,-121 12,-121 0,-109 0,-97 12,-85"/>
<path fill="#ffffff" stroke="#ffffff" stroke-width="1.5" d="M68,-85C74,-85 80,-91 80,-97"/>
<path fill="#ffffff" stroke="#ffffff" stroke-width="1.5" d="M80,-109C80,-115 74,-121 68,-121"/>
<path fill="#ffffff" stroke="#ffffff" stroke-width="1.5" d="M12,-121C6,-121 0,-115 0,-109"/>
<path fill="#ffffff" stroke="#ffffff" stroke-width="1.5" d="M0,-97C0,-91 6,-85 12,-85"/>
<polyline fill="none" stroke="#2e3436" stroke-width="1.5" points="12,-85 68,-85 "/>
<path fill="none" stroke="#2e3436" stroke-width="1.5" d="M68,-85C74,-85 80,-91 80,-97"/>
<polyline fill="none" stroke="#2e3436" stroke-width="1.5" points="80,-97 80,-109 "/>
<path fill="none" stroke="#2e3436" stroke-width="1.5" d="M80,-109C80,-115 74,-121 68,-121"/>
<polyline fill="none" stroke="#2e3436" stroke-width="1.5" points="68,-121 12,-121 "/>
<path fill="none" stroke="#2e3436" stroke-width="1.5" d="M12,-121C6,-121 0,-115 0,-109"/>
<polyline fill="none" stroke="#2e3436" stroke-width="1.5" points="0,-109 0,-97 "/>
<path fill="none" stroke="#2e3436" stroke-width="1.5" d="M0,-97C0,-91 6,-85 12,-85"/>
<text text-anchor="middle" x="40" y="-109.8" font-family="FreeSans" font-size="8.00" fill="#1c2021">Node[226]</text>
<polyline fill="none" stroke="#2e3436" stroke-width="1.5" points="0,-103 80,-103 "/>
<text text-anchor="start" x="8" y="-91.8" font-family="FreeSans" font-size="8.00" fill="#1c2021">name = &#39;Peter&#39;</text>
</g>
<!-- N223&#45;&gt;N226 -->
<g id="edge4" class="edge"><title>N223&#45;&gt;N226</title>
<path fill="none" stroke="#2e3436" stroke-width="2" d="M64.2735,-168.773C59.9268,-156.995 54.2076,-141.498 49.4125,-128.505"/>
<polygon fill="#2e3436" stroke="#2e3436" points="46.7134,-121.191 52.4764,-127.059 48.4809,-124.536 49.7792,-128.054 49.3101,-128.227 48.8411,-128.4 47.5427,-124.882 46.1439,-129.396 46.7134,-121.191 46.7134,-121.191"/>
<text text-anchor="middle" x="71" y="-142.8" font-family="FreeSans" font-size="8.00" fill="#2e3436">knows</text>
</g>
<!-- N225 -->
<g id="node8" class="node"><title>N225</title>
<polygon fill="#ffffff" stroke="#ffffff" stroke-width="1.5" points="120.5,-85 181.5,-85 193.5,-97 193.5,-109 181.5,-121 120.5,-121 108.5,-109 108.5,-97 120.5,-85"/>
<path fill="#ffffff" stroke="#ffffff" stroke-width="1.5" d="M181.5,-85C187.5,-85 193.5,-91 193.5,-97"/>
<path fill="#ffffff" stroke="#ffffff" stroke-width="1.5" d="M193.5,-109C193.5,-115 187.5,-121 181.5,-121"/>
<path fill="#ffffff" stroke="#ffffff" stroke-width="1.5" d="M120.5,-121C114.5,-121 108.5,-115 108.5,-109"/>
<path fill="#ffffff" stroke="#ffffff" stroke-width="1.5" d="M108.5,-97C108.5,-91 114.5,-85 120.5,-85"/>
<polyline fill="none" stroke="#2e3436" stroke-width="1.5" points="120.5,-85 181.5,-85 "/>
<path fill="none" stroke="#2e3436" stroke-width="1.5" d="M181.5,-85C187.5,-85 193.5,-91 193.5,-97"/>
<polyline fill="none" stroke="#2e3436" stroke-width="1.5" points="193.5,-97 193.5,-109 "/>
<path fill="none" stroke="#2e3436" stroke-width="1.5" d="M193.5,-109C193.5,-115 187.5,-121 181.5,-121"/>
<polyline fill="none" stroke="#2e3436" stroke-width="1.5" points="181.5,-121 120.5,-121 "/>
<path fill="none" stroke="#2e3436" stroke-width="1.5" d="M120.5,-121C114.5,-121 108.5,-115 108.5,-109"/>
<polyline fill="none" stroke="#2e3436" stroke-width="1.5" points="108.5,-109 108.5,-97 "/>
<path fill="none" stroke="#2e3436" stroke-width="1.5" d="M108.5,-97C108.5,-91 114.5,-85 120.5,-85"/>
<text text-anchor="middle" x="151" y="-109.8" font-family="FreeSans" font-size="8.00" fill="#1c2021">Node[225]</text>
<polyline fill="none" stroke="#2e3436" stroke-width="1.5" points="108.5,-103 193.5,-103 "/>
<text text-anchor="start" x="116.5" y="-91.8" font-family="FreeSans" font-size="8.00" fill="#1c2021">name = &#39;Tobias&#39;</text>
</g>
<!-- N223&#45;&gt;N225 -->
<g id="edge6" class="edge"><title>N223&#45;&gt;N225</title>
<path fill="none" stroke="#2e3436" stroke-width="2" d="M88.3588,-168.773C100.1,-156.445 115.722,-140.042 128.428,-126.701"/>
<polygon fill="#2e3436" stroke="#2e3436" points="133.675,-121.191 130.947,-128.95 131.451,-124.252 128.865,-126.967 128.503,-126.622 128.141,-126.277 130.727,-123.562 126.059,-124.295 133.675,-121.191 133.675,-121.191"/>
<text text-anchor="middle" x="128" y="-142.8" font-family="FreeSans" font-size="8.00" fill="#2e3436">knows</text>
</g>
<!-- N225&#45;&gt;N221 -->
<g id="edge12" class="edge"><title>N225&#45;&gt;N221</title>
<path fill="none" stroke="#4e9a06" stroke-width="2" d="M151,-84.7733C151,-73.1053 151,-57.7874 151,-44.8699"/>
<polygon fill="#4e9a06" stroke="#4e9a06" points="151,-37.1912 154.375,-44.6911 151.5,-40.9412 151.5,-44.6912 151,-44.6912 150.5,-44.6912 150.5,-40.9412 147.625,-44.6912 151,-37.1912 151,-37.1912"/>
<text text-anchor="middle" x="162.5" y="-58.8" font-family="FreeSans" font-size="8.00" fill="#4e9a06">loves</text>
</g>
<!-- N224 -->
<g id="node9" class="node"><title>N224</title>
<polygon fill="#ffffff" stroke="#ffffff" stroke-width="1.5" points="113.5,-337 166.5,-337 178.5,-349 178.5,-361 166.5,-373 113.5,-373 101.5,-361 101.5,-349 113.5,-337"/>
<path fill="#ffffff" stroke="#ffffff" stroke-width="1.5" d="M166.5,-337C172.5,-337 178.5,-343 178.5,-349"/>
<path fill="#ffffff" stroke="#ffffff" stroke-width="1.5" d="M178.5,-361C178.5,-367 172.5,-373 166.5,-373"/>
<path fill="#ffffff" stroke="#ffffff" stroke-width="1.5" d="M113.5,-373C107.5,-373 101.5,-367 101.5,-361"/>
<path fill="#ffffff" stroke="#ffffff" stroke-width="1.5" d="M101.5,-349C101.5,-343 107.5,-337 113.5,-337"/>
<polyline fill="none" stroke="#2e3436" stroke-width="1.5" points="113.5,-337 166.5,-337 "/>
<path fill="none" stroke="#2e3436" stroke-width="1.5" d="M166.5,-337C172.5,-337 178.5,-343 178.5,-349"/>
<polyline fill="none" stroke="#2e3436" stroke-width="1.5" points="178.5,-349 178.5,-361 "/>
<path fill="none" stroke="#2e3436" stroke-width="1.5" d="M178.5,-361C178.5,-367 172.5,-373 166.5,-373"/>
<polyline fill="none" stroke="#2e3436" stroke-width="1.5" points="166.5,-373 113.5,-373 "/>
<path fill="none" stroke="#2e3436" stroke-width="1.5" d="M113.5,-373C107.5,-373 101.5,-367 101.5,-361"/>
<polyline fill="none" stroke="#2e3436" stroke-width="1.5" points="101.5,-361 101.5,-349 "/>
<path fill="none" stroke="#2e3436" stroke-width="1.5" d="M101.5,-349C101.5,-343 107.5,-337 113.5,-337"/>
<text text-anchor="middle" x="140" y="-361.8" font-family="FreeSans" font-size="8.00" fill="#1c2021">Node[224]</text>
<polyline fill="none" stroke="#2e3436" stroke-width="1.5" points="101.5,-355 178.5,-355 "/>
<text text-anchor="start" x="109.5" y="-343.8" font-family="FreeSans" font-size="8.00" fill="#1c2021">name = &#39;Root&#39;</text>
</g>
<!-- N224&#45;&gt;N222 -->
<g id="edge10" class="edge"><title>N224&#45;&gt;N222</title>
<path fill="none" stroke="#2e3436" stroke-width="2" d="M125.028,-336.773C114.992,-324.555 101.667,-308.334 90.7624,-295.059"/>
<polygon fill="#2e3436" stroke="#2e3436" points="85.9428,-289.191 93.3113,-292.844 88.7094,-291.772 91.0897,-294.669 90.7033,-294.987 90.317,-295.304 87.9367,-292.406 88.0954,-297.129 85.9428,-289.191 85.9428,-289.191"/>
<text text-anchor="middle" x="122" y="-310.8" font-family="FreeSans" font-size="8.00" fill="#2e3436">knows</text>
</g>
<!-- N227 -->
<g id="node11" class="node"><title>N227</title>
<polygon fill="#ffffff" stroke="#ffffff" stroke-width="1.5" points="151.5,-253 216.5,-253 228.5,-265 228.5,-277 216.5,-289 151.5,-289 139.5,-277 139.5,-265 151.5,-253"/>
<path fill="#ffffff" stroke="#ffffff" stroke-width="1.5" d="M216.5,-253C222.5,-253 228.5,-259 228.5,-265"/>
<path fill="#ffffff" stroke="#ffffff" stroke-width="1.5" d="M228.5,-277C228.5,-283 222.5,-289 216.5,-289"/>
<path fill="#ffffff" stroke="#ffffff" stroke-width="1.5" d="M151.5,-289C145.5,-289 139.5,-283 139.5,-277"/>
<path fill="#ffffff" stroke="#ffffff" stroke-width="1.5" d="M139.5,-265C139.5,-259 145.5,-253 151.5,-253"/>
<polyline fill="none" stroke="#2e3436" stroke-width="1.5" points="151.5,-253 216.5,-253 "/>
<path fill="none" stroke="#2e3436" stroke-width="1.5" d="M216.5,-253C222.5,-253 228.5,-259 228.5,-265"/>
<polyline fill="none" stroke="#2e3436" stroke-width="1.5" points="228.5,-265 228.5,-277 "/>
<path fill="none" stroke="#2e3436" stroke-width="1.5" d="M228.5,-277C228.5,-283 222.5,-289 216.5,-289"/>
<polyline fill="none" stroke="#2e3436" stroke-width="1.5" points="216.5,-289 151.5,-289 "/>
<path fill="none" stroke="#2e3436" stroke-width="1.5" d="M151.5,-289C145.5,-289 139.5,-283 139.5,-277"/>
<polyline fill="none" stroke="#2e3436" stroke-width="1.5" points="139.5,-277 139.5,-265 "/>
<path fill="none" stroke="#2e3436" stroke-width="1.5" d="M139.5,-265C139.5,-259 145.5,-253 151.5,-253"/>
<text text-anchor="middle" x="184" y="-277.8" font-family="FreeSans" font-size="8.00" fill="#1c2021">Node[227]</text>
<polyline fill="none" stroke="#2e3436" stroke-width="1.5" points="139.5,-271 228.5,-271 "/>
<text text-anchor="start" x="147.5" y="-259.8" font-family="FreeSans" font-size="8.00" fill="#1c2021">name = &#39;Mattias&#39;</text>
</g>
<!-- N224&#45;&gt;N227 -->
<g id="edge8" class="edge"><title>N224&#45;&gt;N227</title>
<path fill="none" stroke="#2e3436" stroke-width="2" d="M149.547,-336.773C155.774,-324.885 163.986,-309.208 170.831,-296.141"/>
<polygon fill="#2e3436" stroke="#2e3436" points="174.471,-289.191 173.981,-297.401 173.174,-292.745 171.434,-296.067 170.991,-295.835 170.548,-295.603 172.288,-292.281 168.001,-294.269 174.471,-289.191 174.471,-289.191"/>
<text text-anchor="middle" x="178" y="-310.8" font-family="FreeSans" font-size="8.00" fill="#2e3436">knows</text>
</g>
</g>
</svg>
