<?xml version="1.0" encoding="UTF-8" standalone="no"?>
<!DOCTYPE svg PUBLIC "-//W3C//DTD SVG 1.1//EN"
 "http://www.w3.org/Graphics/SVG/1.1/DTD/svg11.dtd">
<!-- Generated by graphviz version 2.26.3 (20100126.1600)
 -->
<!-- Title: g Pages: 1 -->
<svg width="246pt" height="130pt"
 viewBox="0.00 0.00 246.00 130.00" xmlns="http://www.w3.org/2000/svg" xmlns:xlink="http://www.w3.org/1999/xlink">
<g id="graph1" class="graph" transform="scale(1 1) rotate(0) translate(4 126)">
<title>g</title>
<polygon fill="white" stroke="white" points="-4,5 -4,-126 243,-126 243,5 -4,5"/>
<!-- N187 -->
<g id="node1" class="node"><title>N187</title>
<polygon fill="#ffffff" stroke="#ffffff" stroke-width="1.5" points="12,-85 48,-85 60,-97 60,-109 48,-121 12,-121 0,-109 0,-97 12,-85"/>
<path fill="#ffffff" stroke="#ffffff" stroke-width="1.5" d="M48,-85C54,-85 60,-91 60,-97"/>
<path fill="#ffffff" stroke="#ffffff" stroke-width="1.5" d="M60,-109C60,-115 54,-121 48,-121"/>
<path fill="#ffffff" stroke="#ffffff" stroke-width="1.5" d="M12,-121C6,-121 0,-115 0,-109"/>
<path fill="#ffffff" stroke="#ffffff" stroke-width="1.5" d="M0,-97C0,-91 6,-85 12,-85"/>
<polyline fill="none" stroke="#2e3436" stroke-width="1.5" points="12,-85 48,-85 "/>
<path fill="none" stroke="#2e3436" stroke-width="1.5" d="M48,-85C54,-85 60,-91 60,-97"/>
<polyline fill="none" stroke="#2e3436" stroke-width="1.5" points="60,-97 60,-109 "/>
<path fill="none" stroke="#2e3436" stroke-width="1.5" d="M60,-109C60,-115 54,-121 48,-121"/>
<polyline fill="none" stroke="#2e3436" stroke-width="1.5" points="48,-121 12,-121 "/>
<path fill="none" stroke="#2e3436" stroke-width="1.5" d="M12,-121C6,-121 0,-115 0,-109"/>
<polyline fill="none" stroke="#2e3436" stroke-width="1.5" points="0,-109 0,-97 "/>
<path fill="none" stroke="#2e3436" stroke-width="1.5" d="M0,-97C0,-91 6,-85 12,-85"/>
<text text-anchor="middle" x="30" y="-109.8" font-family="FreeSans" font-size="8.00" fill="#1c2021">Node[187]</text>
<polyline fill="none" stroke="#2e3436" stroke-width="1.5" points="0,-103 60,-103 "/>
<text text-anchor="middle" x="30" y="-91.8" font-family="FreeSans" font-size="8.00" fill="#1c2021"> </text>
</g>
<!-- N188 -->
<g id="node3" class="node"><title>N188</title>
<polygon fill="#ffffff" stroke="#ffffff" stroke-width="1.5" points="12,-1 48,-1 60,-13 60,-25 48,-37 12,-37 0,-25 0,-13 12,-1"/>
<path fill="#ffffff" stroke="#ffffff" stroke-width="1.5" d="M48,-1C54,-1 60,-7 60,-13"/>
<path fill="#ffffff" stroke="#ffffff" stroke-width="1.5" d="M60,-25C60,-31 54,-37 48,-37"/>
<path fill="#ffffff" stroke="#ffffff" stroke-width="1.5" d="M12,-37C6,-37 0,-31 0,-25"/>
<path fill="#ffffff" stroke="#ffffff" stroke-width="1.5" d="M0,-13C0,-7 6,-1 12,-1"/>
<polyline fill="none" stroke="#2e3436" stroke-width="1.5" points="12,-1 48,-1 "/>
<path fill="none" stroke="#2e3436" stroke-width="1.5" d="M48,-1C54,-1 60,-7 60,-13"/>
<polyline fill="none" stroke="#2e3436" stroke-width="1.5" points="60,-13 60,-25 "/>
<path fill="none" stroke="#2e3436" stroke-width="1.5" d="M60,-25C60,-31 54,-37 48,-37"/>
<polyline fill="none" stroke="#2e3436" stroke-width="1.5" points="48,-37 12,-37 "/>
<path fill="none" stroke="#2e3436" stroke-width="1.5" d="M12,-37C6,-37 0,-31 0,-25"/>
<polyline fill="none" stroke="#2e3436" stroke-width="1.5" points="0,-25 0,-13 "/>
<path fill="none" stroke="#2e3436" stroke-width="1.5" d="M0,-13C0,-7 6,-1 12,-1"/>
<text text-anchor="middle" x="30" y="-25.8" font-family="FreeSans" font-size="8.00" fill="#1c2021">Node[188]</text>
<polyline fill="none" stroke="#2e3436" stroke-width="1.5" points="0,-19 60,-19 "/>
<text text-anchor="middle" x="30" y="-7.8" font-family="FreeSans" font-size="8.00" fill="#1c2021"> </text>
</g>
<!-- N187&#45;&gt;N188 -->
<g id="edge2" class="edge"><title>N187&#45;&gt;N188</title>
<path fill="none" stroke="#2e3436" stroke-width="2" d="M30,-84.7733C30,-73.1053 30,-57.7874 30,-44.8699"/>
<polygon fill="#2e3436" stroke="#2e3436" points="30,-37.1912 33.3751,-44.6911 30.5,-40.9412 30.5001,-44.6912 30.0001,-44.6912 29.5001,-44.6912 29.5,-40.9412 26.6251,-44.6912 30,-37.1912 30,-37.1912"/>
<text text-anchor="middle" x="45.5" y="-58.8" font-family="FreeSans" font-size="8.00" fill="#2e3436">KNOWS</text>
</g>
<!-- N189 -->
<g id="node4" class="node"><title>N189</title>
<polygon fill="#ffffff" stroke="#ffffff" stroke-width="1.5" points="101,-85 137,-85 149,-97 149,-109 137,-121 101,-121 89,-109 89,-97 101,-85"/>
<path fill="#ffffff" stroke="#ffffff" stroke-width="1.5" d="M137,-85C143,-85 149,-91 149,-97"/>
<path fill="#ffffff" stroke="#ffffff" stroke-width="1.5" d="M149,-109C149,-115 143,-121 137,-121"/>
<path fill="#ffffff" stroke="#ffffff" stroke-width="1.5" d="M101,-121C95,-121 89,-115 89,-109"/>
<path fill="#ffffff" stroke="#ffffff" stroke-width="1.5" d="M89,-97C89,-91 95,-85 101,-85"/>
<polyline fill="none" stroke="#2e3436" stroke-width="1.5" points="101,-85 137,-85 "/>
<path fill="none" stroke="#2e3436" stroke-width="1.5" d="M137,-85C143,-85 149,-91 149,-97"/>
<polyline fill="none" stroke="#2e3436" stroke-width="1.5" points="149,-97 149,-109 "/>
<path fill="none" stroke="#2e3436" stroke-width="1.5" d="M149,-109C149,-115 143,-121 137,-121"/>
<polyline fill="none" stroke="#2e3436" stroke-width="1.5" points="137,-121 101,-121 "/>
<path fill="none" stroke="#2e3436" stroke-width="1.5" d="M101,-121C95,-121 89,-115 89,-109"/>
<polyline fill="none" stroke="#2e3436" stroke-width="1.5" points="89,-109 89,-97 "/>
<path fill="none" stroke="#2e3436" stroke-width="1.5" d="M89,-97C89,-91 95,-85 101,-85"/>
<text text-anchor="middle" x="119" y="-109.8" font-family="FreeSans" font-size="8.00" fill="#1c2021">Node[189]</text>
<polyline fill="none" stroke="#2e3436" stroke-width="1.5" points="89,-103 149,-103 "/>
<text text-anchor="middle" x="119" y="-91.8" font-family="FreeSans" font-size="8.00" fill="#1c2021"> </text>
</g>
<!-- N190 -->
<g id="node5" class="node"><title>N190</title>
<polygon fill="#ffffff" stroke="#ffffff" stroke-width="1.5" points="190,-85 226,-85 238,-97 238,-109 226,-121 190,-121 178,-109 178,-97 190,-85"/>
<path fill="#ffffff" stroke="#ffffff" stroke-width="1.5" d="M226,-85C232,-85 238,-91 238,-97"/>
<path fill="#ffffff" stroke="#ffffff" stroke-width="1.5" d="M238,-109C238,-115 232,-121 226,-121"/>
<path fill="#ffffff" stroke="#ffffff" stroke-width="1.5" d="M190,-121C184,-121 178,-115 178,-109"/>
<path fill="#ffffff" stroke="#ffffff" stroke-width="1.5" d="M178,-97C178,-91 184,-85 190,-85"/>
<polyline fill="none" stroke="#2e3436" stroke-width="1.5" points="190,-85 226,-85 "/>
<path fill="none" stroke="#2e3436" stroke-width="1.5" d="M226,-85C232,-85 238,-91 238,-97"/>
<polyline fill="none" stroke="#2e3436" stroke-width="1.5" points="238,-97 238,-109 "/>
<path fill="none" stroke="#2e3436" stroke-width="1.5" d="M238,-109C238,-115 232,-121 226,-121"/>
<polyline fill="none" stroke="#2e3436" stroke-width="1.5" points="226,-121 190,-121 "/>
<path fill="none" stroke="#2e3436" stroke-width="1.5" d="M190,-121C184,-121 178,-115 178,-109"/>
<polyline fill="none" stroke="#2e3436" stroke-width="1.5" points="178,-109 178,-97 "/>
<path fill="none" stroke="#2e3436" stroke-width="1.5" d="M178,-97C178,-91 184,-85 190,-85"/>
<text text-anchor="middle" x="208" y="-109.8" font-family="FreeSans" font-size="8.00" fill="#1c2021">Node[190]</text>
<polyline fill="none" stroke="#2e3436" stroke-width="1.5" points="178,-103 238,-103 "/>
<text text-anchor="middle" x="208" y="-91.8" font-family="FreeSans" font-size="8.00" fill="#1c2021"> </text>
</g>
</g>
</svg>
