<?xml version="1.0" encoding="UTF-8" standalone="no"?>
<!DOCTYPE svg PUBLIC "-//W3C//DTD SVG 1.1//EN"
 "http://www.w3.org/Graphics/SVG/1.1/DTD/svg11.dtd">
<!-- Generated by graphviz version 2.26.3 (20100126.1600)
 -->
<!-- Title: g Pages: 1 -->
<svg width="179pt" height="130pt"
 viewBox="0.00 0.00 179.00 130.00" xmlns="http://www.w3.org/2000/svg" xmlns:xlink="http://www.w3.org/1999/xlink">
<g id="graph1" class="graph" transform="scale(1 1) rotate(0) translate(4 126)">
<title>g</title>
<polygon fill="white" stroke="white" points="-4,5 -4,-126 176,-126 176,5 -4,5"/>
<!-- N213 -->
<g id="node1" class="node"><title>N213</title>
<polygon fill="#ffffff" stroke="#ffffff" stroke-width="1.5" points="11.5,-1 58.5,-1 70.5,-13 70.5,-25 58.5,-37 11.5,-37 -0.5,-25 -0.5,-13 11.5,-1"/>
<path fill="#ffffff" stroke="#ffffff" stroke-width="1.5" d="M58.5,-1C64.5,-1 70.5,-7 70.5,-13"/>
<path fill="#ffffff" stroke="#ffffff" stroke-width="1.5" d="M70.5,-25C70.5,-31 64.5,-37 58.5,-37"/>
<path fill="#ffffff" stroke="#ffffff" stroke-width="1.5" d="M11.5,-37C5.5,-37 -0.5,-31 -0.5,-25"/>
<path fill="#ffffff" stroke="#ffffff" stroke-width="1.5" d="M-0.5,-13C-0.5,-7 5.5,-1 11.5,-1"/>
<polyline fill="none" stroke="#2e3436" stroke-width="1.5" points="11.5,-1 58.5,-1 "/>
<path fill="none" stroke="#2e3436" stroke-width="1.5" d="M58.5,-1C64.5,-1 70.5,-7 70.5,-13"/>
<polyline fill="none" stroke="#2e3436" stroke-width="1.5" points="70.5,-13 70.5,-25 "/>
<path fill="none" stroke="#2e3436" stroke-width="1.5" d="M70.5,-25C70.5,-31 64.5,-37 58.5,-37"/>
<polyline fill="none" stroke="#2e3436" stroke-width="1.5" points="58.5,-37 11.5,-37 "/>
<path fill="none" stroke="#2e3436" stroke-width="1.5" d="M11.5,-37C5.5,-37 -0.5,-31 -0.5,-25"/>
<polyline fill="none" stroke="#2e3436" stroke-width="1.5" points="-0.5,-25 -0.5,-13 "/>
<path fill="none" stroke="#2e3436" stroke-width="1.5" d="M-0.5,-13C-0.5,-7 5.5,-1 11.5,-1"/>
<text text-anchor="middle" x="35" y="-25.8" font-family="FreeSans" font-size="8.00" fill="#1c2021">Node[213]</text>
<polyline fill="none" stroke="#2e3436" stroke-width="1.5" points="-0.5,-19 70.5,-19 "/>
<text text-anchor="start" x="7.5" y="-7.8" font-family="FreeSans" font-size="8.00" fill="#1c2021">name = &#39;car&#39;</text>
</g>
<!-- N214 -->
<g id="node2" class="node"><title>N214</title>
<polygon fill="#ffffff" stroke="#ffffff" stroke-width="1.5" points="110.5,-1 159.5,-1 171.5,-13 171.5,-25 159.5,-37 110.5,-37 98.5,-25 98.5,-13 110.5,-1"/>
<path fill="#ffffff" stroke="#ffffff" stroke-width="1.5" d="M159.5,-1C165.5,-1 171.5,-7 171.5,-13"/>
<path fill="#ffffff" stroke="#ffffff" stroke-width="1.5" d="M171.5,-25C171.5,-31 165.5,-37 159.5,-37"/>
<path fill="#ffffff" stroke="#ffffff" stroke-width="1.5" d="M110.5,-37C104.5,-37 98.5,-31 98.5,-25"/>
<path fill="#ffffff" stroke="#ffffff" stroke-width="1.5" d="M98.5,-13C98.5,-7 104.5,-1 110.5,-1"/>
<polyline fill="none" stroke="#2e3436" stroke-width="1.5" points="110.5,-1 159.5,-1 "/>
<path fill="none" stroke="#2e3436" stroke-width="1.5" d="M159.5,-1C165.5,-1 171.5,-7 171.5,-13"/>
<polyline fill="none" stroke="#2e3436" stroke-width="1.5" points="171.5,-13 171.5,-25 "/>
<path fill="none" stroke="#2e3436" stroke-width="1.5" d="M171.5,-25C171.5,-31 165.5,-37 159.5,-37"/>
<polyline fill="none" stroke="#2e3436" stroke-width="1.5" points="159.5,-37 110.5,-37 "/>
<path fill="none" stroke="#2e3436" stroke-width="1.5" d="M110.5,-37C104.5,-37 98.5,-31 98.5,-25"/>
<polyline fill="none" stroke="#2e3436" stroke-width="1.5" points="98.5,-25 98.5,-13 "/>
<path fill="none" stroke="#2e3436" stroke-width="1.5" d="M98.5,-13C98.5,-7 104.5,-1 110.5,-1"/>
<text text-anchor="middle" x="135" y="-25.8" font-family="FreeSans" font-size="8.00" fill="#1c2021">Node[214]</text>
<polyline fill="none" stroke="#2e3436" stroke-width="1.5" points="98.5,-19 171.5,-19 "/>
<text text-anchor="start" x="106.5" y="-7.8" font-family="FreeSans" font-size="8.00" fill="#1c2021">name = &#39;you&#39;</text>
</g>
<!-- N215 -->
<g id="node3" class="node"><title>N215</title>
<polygon fill="#ffffff" stroke="#ffffff" stroke-width="1.5" points="67,-85 103,-85 115,-97 115,-109 103,-121 67,-121 55,-109 55,-97 67,-85"/>
<path fill="#ffffff" stroke="#ffffff" stroke-width="1.5" d="M103,-85C109,-85 115,-91 115,-97"/>
<path fill="#ffffff" stroke="#ffffff" stroke-width="1.5" d="M115,-109C115,-115 109,-121 103,-121"/>
<path fill="#ffffff" stroke="#ffffff" stroke-width="1.5" d="M67,-121C61,-121 55,-115 55,-109"/>
<path fill="#ffffff" stroke="#ffffff" stroke-width="1.5" d="M55,-97C55,-91 61,-85 67,-85"/>
<polyline fill="none" stroke="#2e3436" stroke-width="1.5" points="67,-85 103,-85 "/>
<path fill="none" stroke="#2e3436" stroke-width="1.5" d="M103,-85C109,-85 115,-91 115,-97"/>
<polyline fill="none" stroke="#2e3436" stroke-width="1.5" points="115,-97 115,-109 "/>
<path fill="none" stroke="#2e3436" stroke-width="1.5" d="M115,-109C115,-115 109,-121 103,-121"/>
<polyline fill="none" stroke="#2e3436" stroke-width="1.5" points="103,-121 67,-121 "/>
<path fill="none" stroke="#2e3436" stroke-width="1.5" d="M67,-121C61,-121 55,-115 55,-109"/>
<polyline fill="none" stroke="#2e3436" stroke-width="1.5" points="55,-109 55,-97 "/>
<path fill="none" stroke="#2e3436" stroke-width="1.5" d="M55,-97C55,-91 61,-85 67,-85"/>
<text text-anchor="middle" x="85" y="-109.8" font-family="FreeSans" font-size="8.00" fill="#1c2021">Node[215]</text>
<polyline fill="none" stroke="#2e3436" stroke-width="1.5" points="55,-103 115,-103 "/>
<text text-anchor="start" x="63" y="-91.8" font-family="FreeSans" font-size="8.00" fill="#1c2021">name = &#39;I&#39;</text>
</g>
<!-- N215&#45;&gt;N213 -->
<g id="edge4" class="edge"><title>N215&#45;&gt;N213</title>
<path fill="none" stroke="#4e9a06" stroke-width="2" d="M74.1507,-84.7733C67.009,-72.7751 57.5699,-56.9174 49.7494,-43.779"/>
<polygon fill="#4e9a06" stroke="#4e9a06" points="45.8281,-37.1912 52.5644,-41.9096 48.1758,-40.1578 50.0939,-43.3801 49.6643,-43.6359 49.2346,-43.8916 47.3165,-40.6693 46.7641,-45.3622 45.8281,-37.1912 45.8281,-37.1912"/>
<text text-anchor="middle" x="71" y="-58.8" font-family="FreeSans" font-size="8.00" fill="#4e9a06">own</text>
</g>
<!-- N215&#45;&gt;N214 -->
<g id="edge2" class="edge"><title>N215&#45;&gt;N214</title>
<path fill="none" stroke="#2e3436" stroke-width="2" d="M95.8493,-84.7733C102.991,-72.7751 112.43,-56.9174 120.251,-43.779"/>
<polygon fill="#2e3436" stroke="#2e3436" points="124.172,-37.1912 123.236,-45.3622 122.683,-40.6693 120.765,-43.8916 120.336,-43.6359 119.906,-43.3801 121.824,-40.1578 117.436,-41.9096 124.172,-37.1912 124.172,-37.1912"/>
<text text-anchor="middle" x="122" y="-58.8" font-family="FreeSans" font-size="8.00" fill="#2e3436">know</text>
</g>
</g>
</svg>
