<?xml version="1.0" encoding="UTF-8" standalone="no"?>
<!DOCTYPE svg PUBLIC "-//W3C//DTD SVG 1.1//EN"
 "http://www.w3.org/Graphics/SVG/1.1/DTD/svg11.dtd">
<!-- Generated by graphviz version 2.26.3 (20100126.1600)
 -->
<!-- Title: g Pages: 1 -->
<svg width="78pt" height="130pt"
 viewBox="0.00 0.00 78.00 130.00" xmlns="http://www.w3.org/2000/svg" xmlns:xlink="http://www.w3.org/1999/xlink">
<g id="graph1" class="graph" transform="scale(1 1) rotate(0) translate(4 126)">
<title>g</title>
<polygon fill="white" stroke="white" points="-4,5 -4,-126 75,-126 75,5 -4,5"/>
<!-- N200 -->
<g id="node1" class="node"><title>N200</title>
<polygon fill="#ffffff" stroke="#ffffff" stroke-width="1.5" points="17,-85 53,-85 65,-97 65,-109 53,-121 17,-121 5,-109 5,-97 17,-85"/>
<path fill="#ffffff" stroke="#ffffff" stroke-width="1.5" d="M53,-85C59,-85 65,-91 65,-97"/>
<path fill="#ffffff" stroke="#ffffff" stroke-width="1.5" d="M65,-109C65,-115 59,-121 53,-121"/>
<path fill="#ffffff" stroke="#ffffff" stroke-width="1.5" d="M17,-121C11,-121 5,-115 5,-109"/>
<path fill="#ffffff" stroke="#ffffff" stroke-width="1.5" d="M5,-97C5,-91 11,-85 17,-85"/>
<polyline fill="none" stroke="#2e3436" stroke-width="1.5" points="17,-85 53,-85 "/>
<path fill="none" stroke="#2e3436" stroke-width="1.5" d="M53,-85C59,-85 65,-91 65,-97"/>
<polyline fill="none" stroke="#2e3436" stroke-width="1.5" points="65,-97 65,-109 "/>
<path fill="none" stroke="#2e3436" stroke-width="1.5" d="M65,-109C65,-115 59,-121 53,-121"/>
<polyline fill="none" stroke="#2e3436" stroke-width="1.5" points="53,-121 17,-121 "/>
<path fill="none" stroke="#2e3436" stroke-width="1.5" d="M17,-121C11,-121 5,-115 5,-109"/>
<polyline fill="none" stroke="#2e3436" stroke-width="1.5" points="5,-109 5,-97 "/>
<path fill="none" stroke="#2e3436" stroke-width="1.5" d="M5,-97C5,-91 11,-85 17,-85"/>
<text text-anchor="middle" x="35" y="-109.8" font-family="FreeSans" font-size="8.00" fill="#1c2021">Node[200]</text>
<polyline fill="none" stroke="#2e3436" stroke-width="1.5" points="5,-103 65,-103 "/>
<text text-anchor="start" x="13" y="-91.8" font-family="FreeSans" font-size="8.00" fill="#1c2021">age = &#39;18&#39;</text>
</g>
<!-- N201 -->
<g id="node3" class="node"><title>N201</title>
<polygon fill="#ffffff" stroke="#ffffff" stroke-width="1.5" points="11.5,-1 58.5,-1 70.5,-13 70.5,-25 58.5,-37 11.5,-37 -0.5,-25 -0.5,-13 11.5,-1"/>
<path fill="#ffffff" stroke="#ffffff" stroke-width="1.5" d="M58.5,-1C64.5,-1 70.5,-7 70.5,-13"/>
<path fill="#ffffff" stroke="#ffffff" stroke-width="1.5" d="M70.5,-25C70.5,-31 64.5,-37 58.5,-37"/>
<path fill="#ffffff" stroke="#ffffff" stroke-width="1.5" d="M11.5,-37C5.5,-37 -0.5,-31 -0.5,-25"/>
<path fill="#ffffff" stroke="#ffffff" stroke-width="1.5" d="M-0.5,-13C-0.5,-7 5.5,-1 11.5,-1"/>
<polyline fill="none" stroke="#2e3436" stroke-width="1.5" points="11.5,-1 58.5,-1 "/>
<path fill="none" stroke="#2e3436" stroke-width="1.5" d="M58.5,-1C64.5,-1 70.5,-7 70.5,-13"/>
<polyline fill="none" stroke="#2e3436" stroke-width="1.5" points="70.5,-13 70.5,-25 "/>
<path fill="none" stroke="#2e3436" stroke-width="1.5" d="M70.5,-25C70.5,-31 64.5,-37 58.5,-37"/>
<polyline fill="none" stroke="#2e3436" stroke-width="1.5" points="58.5,-37 11.5,-37 "/>
<path fill="none" stroke="#2e3436" stroke-width="1.5" d="M11.5,-37C5.5,-37 -0.5,-31 -0.5,-25"/>
<polyline fill="none" stroke="#2e3436" stroke-width="1.5" points="-0.5,-25 -0.5,-13 "/>
<path fill="none" stroke="#2e3436" stroke-width="1.5" d="M-0.5,-13C-0.5,-7 5.5,-1 11.5,-1"/>
<text text-anchor="middle" x="35" y="-25.8" font-family="FreeSans" font-size="8.00" fill="#1c2021">Node[201]</text>
<polyline fill="none" stroke="#2e3436" stroke-width="1.5" points="-0.5,-19 70.5,-19 "/>
<text text-anchor="start" x="7.5" y="-7.8" font-family="FreeSans" font-size="8.00" fill="#1c2021">name = &#39;joe&#39;</text>
</g>
<!-- N200&#45;&gt;N201 -->
<g id="edge2" class="edge"><title>N200&#45;&gt;N201</title>
<path fill="none" stroke="#2e3436" stroke-width="2" d="M35,-84.7733C35,-73.1053 35,-57.7874 35,-44.8699"/>
<polygon fill="#2e3436" stroke="#2e3436" points="35,-37.1912 38.3751,-44.6911 35.5,-40.9412 35.5001,-44.6912 35.0001,-44.6912 34.5001,-44.6912 34.5,-40.9412 31.6251,-44.6912 35,-37.1912 35,-37.1912"/>
<text text-anchor="middle" x="49" y="-58.8" font-family="FreeSans" font-size="8.00" fill="#2e3436">knows</text>
</g>
</g>
</svg>
