<?xml version="1.0" encoding="UTF-8" standalone="no"?>
<!DOCTYPE svg PUBLIC "-//W3C//DTD SVG 1.1//EN"
 "http://www.w3.org/Graphics/SVG/1.1/DTD/svg11.dtd">
<!-- Generated by graphviz version 2.26.3 (20100126.1600)
 -->
<!-- Title: g Pages: 1 -->
<svg width="165pt" height="140pt"
 viewBox="0.00 0.00 165.00 140.00" xmlns="http://www.w3.org/2000/svg" xmlns:xlink="http://www.w3.org/1999/xlink">
<g id="graph1" class="graph" transform="scale(1 1) rotate(0) translate(4 136)">
<title>g</title>
<polygon fill="white" stroke="white" points="-4,5 -4,-136 162,-136 162,5 -4,5"/>
<!-- N0 -->
<g id="node1" class="node"><title>N0</title>
<polygon fill="#ffffff" stroke="#ffffff" stroke-width="1.5" points="12,-95 42,-95 54,-107 54,-119 42,-131 12,-131 0,-119 0,-107 12,-95"/>
<path fill="#ffffff" stroke="#ffffff" stroke-width="1.5" d="M42,-95C48,-95 54,-101 54,-107"/>
<path fill="#ffffff" stroke="#ffffff" stroke-width="1.5" d="M54,-119C54,-125 48,-131 42,-131"/>
<path fill="#ffffff" stroke="#ffffff" stroke-width="1.5" d="M12,-131C6,-131 0,-125 0,-119"/>
<path fill="#ffffff" stroke="#ffffff" stroke-width="1.5" d="M0,-107C0,-101 6,-95 12,-95"/>
<polyline fill="none" stroke="#2e3436" stroke-width="1.5" points="12,-95 42,-95 "/>
<path fill="none" stroke="#2e3436" stroke-width="1.5" d="M42,-95C48,-95 54,-101 54,-107"/>
<polyline fill="none" stroke="#2e3436" stroke-width="1.5" points="54,-107 54,-119 "/>
<path fill="none" stroke="#2e3436" stroke-width="1.5" d="M54,-119C54,-125 48,-131 42,-131"/>
<polyline fill="none" stroke="#2e3436" stroke-width="1.5" points="42,-131 12,-131 "/>
<path fill="none" stroke="#2e3436" stroke-width="1.5" d="M12,-131C6,-131 0,-125 0,-119"/>
<polyline fill="none" stroke="#2e3436" stroke-width="1.5" points="0,-119 0,-107 "/>
<path fill="none" stroke="#2e3436" stroke-width="1.5" d="M0,-107C0,-101 6,-95 12,-95"/>
<text text-anchor="middle" x="27" y="-119.8" font-family="FreeSans" font-size="8.00" fill="#1c2021">Node[0]</text>
<polyline fill="none" stroke="#2e3436" stroke-width="1.5" points="0,-113 54,-113 "/>
<text text-anchor="middle" x="27" y="-101.8" font-family="FreeSans" font-size="8.00" fill="#1c2021"> </text>
</g>
<!-- N22 -->
<g id="node2" class="node"><title>N22</title>
<polygon fill="#ffffff" stroke="#ffffff" stroke-width="1.5" points="91,-1 145,-1 157,-13 157,-25 145,-37 91,-37 79,-25 79,-13 91,-1"/>
<path fill="#ffffff" stroke="#ffffff" stroke-width="1.5" d="M145,-1C151,-1 157,-7 157,-13"/>
<path fill="#ffffff" stroke="#ffffff" stroke-width="1.5" d="M157,-25C157,-31 151,-37 145,-37"/>
<path fill="#ffffff" stroke="#ffffff" stroke-width="1.5" d="M91,-37C85,-37 79,-31 79,-25"/>
<path fill="#ffffff" stroke="#ffffff" stroke-width="1.5" d="M79,-13C79,-7 85,-1 91,-1"/>
<polyline fill="none" stroke="#2e3436" stroke-width="1.5" points="91,-1 145,-1 "/>
<path fill="none" stroke="#2e3436" stroke-width="1.5" d="M145,-1C151,-1 157,-7 157,-13"/>
<polyline fill="none" stroke="#2e3436" stroke-width="1.5" points="157,-13 157,-25 "/>
<path fill="none" stroke="#2e3436" stroke-width="1.5" d="M157,-25C157,-31 151,-37 145,-37"/>
<polyline fill="none" stroke="#2e3436" stroke-width="1.5" points="145,-37 91,-37 "/>
<path fill="none" stroke="#2e3436" stroke-width="1.5" d="M91,-37C85,-37 79,-31 79,-25"/>
<polyline fill="none" stroke="#2e3436" stroke-width="1.5" points="79,-25 79,-13 "/>
<path fill="none" stroke="#2e3436" stroke-width="1.5" d="M79,-13C79,-7 85,-1 91,-1"/>
<text text-anchor="middle" x="118" y="-25.8" font-family="FreeSans" font-size="8.00" fill="#1c2021">Node[22]</text>
<polyline fill="none" stroke="#2e3436" stroke-width="1.5" points="79,-19 157,-19 "/>
<text text-anchor="start" x="87" y="-7.8" font-family="FreeSans" font-size="8.00" fill="#1c2021">name = &#39;Sara&#39;</text>
</g>
<!-- N23 -->
<g id="node3" class="node"><title>N23</title>
<polygon fill="#ffffff" stroke="#ffffff" stroke-width="1.5" points="94.5,-95 141.5,-95 153.5,-107 153.5,-119 141.5,-131 94.5,-131 82.5,-119 82.5,-107 94.5,-95"/>
<path fill="#ffffff" stroke="#ffffff" stroke-width="1.5" d="M141.5,-95C147.5,-95 153.5,-101 153.5,-107"/>
<path fill="#ffffff" stroke="#ffffff" stroke-width="1.5" d="M153.5,-119C153.5,-125 147.5,-131 141.5,-131"/>
<path fill="#ffffff" stroke="#ffffff" stroke-width="1.5" d="M94.5,-131C88.5,-131 82.5,-125 82.5,-119"/>
<path fill="#ffffff" stroke="#ffffff" stroke-width="1.5" d="M82.5,-107C82.5,-101 88.5,-95 94.5,-95"/>
<polyline fill="none" stroke="#2e3436" stroke-width="1.5" points="94.5,-95 141.5,-95 "/>
<path fill="none" stroke="#2e3436" stroke-width="1.5" d="M141.5,-95C147.5,-95 153.5,-101 153.5,-107"/>
<polyline fill="none" stroke="#2e3436" stroke-width="1.5" points="153.5,-107 153.5,-119 "/>
<path fill="none" stroke="#2e3436" stroke-width="1.5" d="M153.5,-119C153.5,-125 147.5,-131 141.5,-131"/>
<polyline fill="none" stroke="#2e3436" stroke-width="1.5" points="141.5,-131 94.5,-131 "/>
<path fill="none" stroke="#2e3436" stroke-width="1.5" d="M94.5,-131C88.5,-131 82.5,-125 82.5,-119"/>
<polyline fill="none" stroke="#2e3436" stroke-width="1.5" points="82.5,-119 82.5,-107 "/>
<path fill="none" stroke="#2e3436" stroke-width="1.5" d="M82.5,-107C82.5,-101 88.5,-95 94.5,-95"/>
<text text-anchor="middle" x="118" y="-119.8" font-family="FreeSans" font-size="8.00" fill="#1c2021">Node[23]</text>
<polyline fill="none" stroke="#2e3436" stroke-width="1.5" points="82.5,-113 153.5,-113 "/>
<text text-anchor="start" x="90.5" y="-101.8" font-family="FreeSans" font-size="8.00" fill="#1c2021">name = &#39;Joe&#39;</text>
</g>
<!-- N23&#45;&gt;N22 -->
<g id="edge2" class="edge"><title>N23&#45;&gt;N22</title>
<path fill="none" stroke="#2e3436" stroke-width="2" d="M90.2794,-94.6274C84.5022,-89.3547 79.2005,-83.0847 76,-76 72.3406,-67.8993 72.3406,-64.1007 76,-56 78.1503,-51.24 81.2492,-46.8477 84.8035,-42.8786"/>
<polygon fill="#2e3436" stroke="#2e3436" points="90.2794,-37.3726 87.3836,-45.0704 87.9895,-40.3841 85.3451,-43.043 84.9906,-42.6904 84.6361,-42.3378 87.2805,-39.6789 82.5976,-40.3105 90.2794,-37.3726 90.2794,-37.3726"/>
<text text-anchor="middle" x="99" y="-68.8" font-family="FreeSans" font-size="8.00" fill="#2e3436">LOVES</text>
<text text-anchor="start" x="76" y="-58.8" font-family="FreeSans" font-size="8.00" fill="#2e3436">foo = &#39;bar&#39;</text>
</g>
<!-- N23&#45;&gt;N22 -->
<g id="edge4" class="edge"><title>N23&#45;&gt;N22</title>
<path fill="none" stroke="#4e9a06" stroke-width="2" d="M122.173,-94.6527C123.33,-88.7323 124.426,-82.1185 125,-76 125.83,-67.1499 125.83,-64.8501 125,-56 124.659,-52.3672 124.135,-48.5597 123.522,-44.8264"/>
<polygon fill="#4e9a06" stroke="#4e9a06" points="122.173,-37.3473 126.826,-44.1288 123.331,-40.9489 123.996,-44.6393 123.504,-44.7281 123.012,-44.8169 122.346,-41.1265 120.183,-45.3274 122.173,-37.3473 122.173,-37.3473"/>
<text text-anchor="middle" x="139" y="-63.8" font-family="FreeSans" font-size="8.00" fill="#4e9a06">knows</text>
</g>
</g>
</svg>
