<?xml version="1.0" encoding="UTF-8" standalone="no"?>
<!DOCTYPE svg PUBLIC "-//W3C//DTD SVG 1.1//EN"
 "http://www.w3.org/Graphics/SVG/1.1/DTD/svg11.dtd">
<!-- Generated by graphviz version 2.26.3 (20100126.1600)
 -->
<!-- Title: g Pages: 1 -->
<svg width="183pt" height="140pt"
 viewBox="0.00 0.00 183.00 140.00" xmlns="http://www.w3.org/2000/svg" xmlns:xlink="http://www.w3.org/1999/xlink">
<g id="graph1" class="graph" transform="scale(1 1) rotate(0) translate(4 136)">
<title>g</title>
<polygon fill="white" stroke="white" points="-4,5 -4,-136 180,-136 180,5 -4,5"/>
<!-- N9 -->
<g id="node1" class="node"><title>N9</title>
<polygon fill="#ffffff" stroke="#ffffff" stroke-width="1.5" points="69,-95 105,-95 117,-107 117,-119 105,-131 69,-131 57,-119 57,-107 69,-95"/>
<path fill="#ffffff" stroke="#ffffff" stroke-width="1.5" d="M105,-95C111,-95 117,-101 117,-107"/>
<path fill="#ffffff" stroke="#ffffff" stroke-width="1.5" d="M117,-119C117,-125 111,-131 105,-131"/>
<path fill="#ffffff" stroke="#ffffff" stroke-width="1.5" d="M69,-131C63,-131 57,-125 57,-119"/>
<path fill="#ffffff" stroke="#ffffff" stroke-width="1.5" d="M57,-107C57,-101 63,-95 69,-95"/>
<polyline fill="none" stroke="#2e3436" stroke-width="1.5" points="69,-95 105,-95 "/>
<path fill="none" stroke="#2e3436" stroke-width="1.5" d="M105,-95C111,-95 117,-101 117,-107"/>
<polyline fill="none" stroke="#2e3436" stroke-width="1.5" points="117,-107 117,-119 "/>
<path fill="none" stroke="#2e3436" stroke-width="1.5" d="M117,-119C117,-125 111,-131 105,-131"/>
<polyline fill="none" stroke="#2e3436" stroke-width="1.5" points="105,-131 69,-131 "/>
<path fill="none" stroke="#2e3436" stroke-width="1.5" d="M69,-131C63,-131 57,-125 57,-119"/>
<polyline fill="none" stroke="#2e3436" stroke-width="1.5" points="57,-119 57,-107 "/>
<path fill="none" stroke="#2e3436" stroke-width="1.5" d="M57,-107C57,-101 63,-95 69,-95"/>
<text text-anchor="middle" x="87" y="-119.8" font-family="FreeSans" font-size="8.00" fill="#1c2021">Node[9]</text>
<polyline fill="none" stroke="#2e3436" stroke-width="1.5" points="57,-113 117,-113 "/>
<text text-anchor="start" x="65" y="-101.8" font-family="FreeSans" font-size="8.00" fill="#1c2021">name = &#39;I&#39;</text>
</g>
<!-- N10 -->
<g id="node3" class="node"><title>N10</title>
<polygon fill="#ffffff" stroke="#ffffff" stroke-width="1.5" points="11.5,-1 60.5,-1 72.5,-13 72.5,-25 60.5,-37 11.5,-37 -0.5,-25 -0.5,-13 11.5,-1"/>
<path fill="#ffffff" stroke="#ffffff" stroke-width="1.5" d="M60.5,-1C66.5,-1 72.5,-7 72.5,-13"/>
<path fill="#ffffff" stroke="#ffffff" stroke-width="1.5" d="M72.5,-25C72.5,-31 66.5,-37 60.5,-37"/>
<path fill="#ffffff" stroke="#ffffff" stroke-width="1.5" d="M11.5,-37C5.5,-37 -0.5,-31 -0.5,-25"/>
<path fill="#ffffff" stroke="#ffffff" stroke-width="1.5" d="M-0.5,-13C-0.5,-7 5.5,-1 11.5,-1"/>
<polyline fill="none" stroke="#2e3436" stroke-width="1.5" points="11.5,-1 60.5,-1 "/>
<path fill="none" stroke="#2e3436" stroke-width="1.5" d="M60.5,-1C66.5,-1 72.5,-7 72.5,-13"/>
<polyline fill="none" stroke="#2e3436" stroke-width="1.5" points="72.5,-13 72.5,-25 "/>
<path fill="none" stroke="#2e3436" stroke-width="1.5" d="M72.5,-25C72.5,-31 66.5,-37 60.5,-37"/>
<polyline fill="none" stroke="#2e3436" stroke-width="1.5" points="60.5,-37 11.5,-37 "/>
<path fill="none" stroke="#2e3436" stroke-width="1.5" d="M11.5,-37C5.5,-37 -0.5,-31 -0.5,-25"/>
<polyline fill="none" stroke="#2e3436" stroke-width="1.5" points="-0.5,-25 -0.5,-13 "/>
<path fill="none" stroke="#2e3436" stroke-width="1.5" d="M-0.5,-13C-0.5,-7 5.5,-1 11.5,-1"/>
<text text-anchor="middle" x="36" y="-25.8" font-family="FreeSans" font-size="8.00" fill="#1c2021">Node[10]</text>
<polyline fill="none" stroke="#2e3436" stroke-width="1.5" points="-0.5,-19 72.5,-19 "/>
<text text-anchor="start" x="7.5" y="-7.8" font-family="FreeSans" font-size="8.00" fill="#1c2021">name = &#39;you&#39;</text>
</g>
<!-- N9&#45;&gt;N10 -->
<g id="edge2" class="edge"><title>N9&#45;&gt;N10</title>
<path fill="none" stroke="#2e3436" stroke-width="2" d="M62.3235,-94.7416C56.4959,-89.3157 50.8618,-82.9448 47,-76 41.7309,-66.5243 38.9477,-54.9468 37.4916,-44.7073"/>
<polygon fill="#2e3436" stroke="#2e3436" points="36.6177,-37.1949 40.8368,-44.2546 37.5477,-40.862 37.9811,-44.5869 37.4844,-44.6447 36.9878,-44.7024 36.5544,-40.9776 34.1321,-45.0347 36.6177,-37.1949 36.6177,-37.1949"/>
<text text-anchor="middle" x="74.5" y="-68.8" font-family="FreeSans" font-size="8.00" fill="#2e3436">know</text>
<text text-anchor="start" x="47" y="-58.8" font-family="FreeSans" font-size="8.00" fill="#2e3436">weight = 0.5</text>
</g>
<!-- N11 -->
<g id="node5" class="node"><title>N11</title>
<polygon fill="#ffffff" stroke="#ffffff" stroke-width="1.5" points="113,-1 163,-1 175,-13 175,-25 163,-37 113,-37 101,-25 101,-13 113,-1"/>
<path fill="#ffffff" stroke="#ffffff" stroke-width="1.5" d="M163,-1C169,-1 175,-7 175,-13"/>
<path fill="#ffffff" stroke="#ffffff" stroke-width="1.5" d="M175,-25C175,-31 169,-37 163,-37"/>
<path fill="#ffffff" stroke="#ffffff" stroke-width="1.5" d="M113,-37C107,-37 101,-31 101,-25"/>
<path fill="#ffffff" stroke="#ffffff" stroke-width="1.5" d="M101,-13C101,-7 107,-1 113,-1"/>
<polyline fill="none" stroke="#2e3436" stroke-width="1.5" points="113,-1 163,-1 "/>
<path fill="none" stroke="#2e3436" stroke-width="1.5" d="M163,-1C169,-1 175,-7 175,-13"/>
<polyline fill="none" stroke="#2e3436" stroke-width="1.5" points="175,-13 175,-25 "/>
<path fill="none" stroke="#2e3436" stroke-width="1.5" d="M175,-25C175,-31 169,-37 163,-37"/>
<polyline fill="none" stroke="#2e3436" stroke-width="1.5" points="163,-37 113,-37 "/>
<path fill="none" stroke="#2e3436" stroke-width="1.5" d="M113,-37C107,-37 101,-31 101,-25"/>
<polyline fill="none" stroke="#2e3436" stroke-width="1.5" points="101,-25 101,-13 "/>
<path fill="none" stroke="#2e3436" stroke-width="1.5" d="M101,-13C101,-7 107,-1 113,-1"/>
<text text-anchor="middle" x="138" y="-25.8" font-family="FreeSans" font-size="8.00" fill="#1c2021">Node[11]</text>
<polyline fill="none" stroke="#2e3436" stroke-width="1.5" points="101,-19 175,-19 "/>
<text text-anchor="start" x="109" y="-7.8" font-family="FreeSans" font-size="8.00" fill="#1c2021">name = &#39;him&#39;</text>
</g>
<!-- N9&#45;&gt;N11 -->
<g id="edge4" class="edge"><title>N9&#45;&gt;N11</title>
<path fill="none" stroke="#2e3436" stroke-width="2" d="M96.8333,-94.8759C104.665,-80.4413 115.715,-60.074 124.395,-44.075"/>
<polygon fill="#2e3436" stroke="#2e3436" points="128.197,-37.0685 127.587,-45.2703 126.848,-40.6031 125.06,-43.8992 124.62,-43.6608 124.181,-43.4223 125.969,-40.1262 121.654,-42.0512 128.197,-37.0685 128.197,-37.0685"/>
<text text-anchor="middle" x="144.5" y="-68.8" font-family="FreeSans" font-size="8.00" fill="#2e3436">know</text>
<text text-anchor="start" x="117" y="-58.8" font-family="FreeSans" font-size="8.00" fill="#2e3436">weight = 0.8</text>
</g>
</g>
</svg>
