<?xml version="1.0" encoding="UTF-8" standalone="no"?>
<!DOCTYPE svg PUBLIC "-//W3C//DTD SVG 1.1//EN"
 "http://www.w3.org/Graphics/SVG/1.1/DTD/svg11.dtd">
<!-- Generated by graphviz version 2.26.3 (20100126.1600)
 -->
<!-- Title: g Pages: 1 -->
<svg width="183pt" height="140pt"
 viewBox="0.00 0.00 183.00 140.00" xmlns="http://www.w3.org/2000/svg" xmlns:xlink="http://www.w3.org/1999/xlink">
<g id="graph1" class="graph" transform="scale(1 1) rotate(0) translate(4 136)">
<title>g</title>
<polygon fill="white" stroke="white" points="-4,5 -4,-136 180,-136 180,5 -4,5"/>
<!-- N320 -->
<g id="node1" class="node"><title>N320</title>
<polygon fill="#ffffff" stroke="#ffffff" stroke-width="1.5" points="11.5,-6 60.5,-6 72.5,-18 72.5,-30 60.5,-42 11.5,-42 -0.5,-30 -0.5,-18 11.5,-6"/>
<path fill="#ffffff" stroke="#ffffff" stroke-width="1.5" d="M60.5,-6C66.5,-6 72.5,-12 72.5,-18"/>
<path fill="#ffffff" stroke="#ffffff" stroke-width="1.5" d="M72.5,-30C72.5,-36 66.5,-42 60.5,-42"/>
<path fill="#ffffff" stroke="#ffffff" stroke-width="1.5" d="M11.5,-42C5.5,-42 -0.5,-36 -0.5,-30"/>
<path fill="#ffffff" stroke="#ffffff" stroke-width="1.5" d="M-0.5,-18C-0.5,-12 5.5,-6 11.5,-6"/>
<polyline fill="none" stroke="#2e3436" stroke-width="1.5" points="11.5,-6 60.5,-6 "/>
<path fill="none" stroke="#2e3436" stroke-width="1.5" d="M60.5,-6C66.5,-6 72.5,-12 72.5,-18"/>
<polyline fill="none" stroke="#2e3436" stroke-width="1.5" points="72.5,-18 72.5,-30 "/>
<path fill="none" stroke="#2e3436" stroke-width="1.5" d="M72.5,-30C72.5,-36 66.5,-42 60.5,-42"/>
<polyline fill="none" stroke="#2e3436" stroke-width="1.5" points="60.5,-42 11.5,-42 "/>
<path fill="none" stroke="#2e3436" stroke-width="1.5" d="M11.5,-42C5.5,-42 -0.5,-36 -0.5,-30"/>
<polyline fill="none" stroke="#2e3436" stroke-width="1.5" points="-0.5,-30 -0.5,-18 "/>
<path fill="none" stroke="#2e3436" stroke-width="1.5" d="M-0.5,-18C-0.5,-12 5.5,-6 11.5,-6"/>
<text text-anchor="middle" x="36" y="-30.8" font-family="FreeSans" font-size="8.00" fill="#1c2021">Node[320]</text>
<polyline fill="none" stroke="#2e3436" stroke-width="1.5" points="-0.5,-24 72.5,-24 "/>
<text text-anchor="start" x="7.5" y="-12.8" font-family="FreeSans" font-size="8.00" fill="#1c2021">name = &#39;you&#39;</text>
</g>
<!-- N321 -->
<g id="node2" class="node"><title>N321</title>
<polygon fill="#ffffff" stroke="#ffffff" stroke-width="1.5" points="113,-1 163,-1 175,-13 175,-35 163,-47 113,-47 101,-35 101,-13 113,-1"/>
<path fill="#ffffff" stroke="#ffffff" stroke-width="1.5" d="M163,-1C169,-1 175,-7 175,-13"/>
<path fill="#ffffff" stroke="#ffffff" stroke-width="1.5" d="M175,-35C175,-41 169,-47 163,-47"/>
<path fill="#ffffff" stroke="#ffffff" stroke-width="1.5" d="M113,-47C107,-47 101,-41 101,-35"/>
<path fill="#ffffff" stroke="#ffffff" stroke-width="1.5" d="M101,-13C101,-7 107,-1 113,-1"/>
<polyline fill="none" stroke="#2e3436" stroke-width="1.5" points="113,-1 163,-1 "/>
<path fill="none" stroke="#2e3436" stroke-width="1.5" d="M163,-1C169,-1 175,-7 175,-13"/>
<polyline fill="none" stroke="#2e3436" stroke-width="1.5" points="175,-13 175,-35 "/>
<path fill="none" stroke="#2e3436" stroke-width="1.5" d="M175,-35C175,-41 169,-47 163,-47"/>
<polyline fill="none" stroke="#2e3436" stroke-width="1.5" points="163,-47 113,-47 "/>
<path fill="none" stroke="#2e3436" stroke-width="1.5" d="M113,-47C107,-47 101,-41 101,-35"/>
<polyline fill="none" stroke="#2e3436" stroke-width="1.5" points="101,-35 101,-13 "/>
<path fill="none" stroke="#2e3436" stroke-width="1.5" d="M101,-13C101,-7 107,-1 113,-1"/>
<text text-anchor="middle" x="138" y="-35.8" font-family="FreeSans" font-size="8.00" fill="#1c2021">Node[321]</text>
<polyline fill="none" stroke="#2e3436" stroke-width="1.5" points="101,-29 175,-29 "/>
<text text-anchor="start" x="109" y="-17.8" font-family="FreeSans" font-size="8.00" fill="#1c2021">name = &#39;him&#39;</text>
<text text-anchor="start" x="109" y="-7.8" font-family="FreeSans" font-size="8.00" fill="#1c2021">age = 25</text>
</g>
<!-- N322 -->
<g id="node3" class="node"><title>N322</title>
<polygon fill="#ffffff" stroke="#ffffff" stroke-width="1.5" points="69,-95 105,-95 117,-107 117,-119 105,-131 69,-131 57,-119 57,-107 69,-95"/>
<path fill="#ffffff" stroke="#ffffff" stroke-width="1.5" d="M105,-95C111,-95 117,-101 117,-107"/>
<path fill="#ffffff" stroke="#ffffff" stroke-width="1.5" d="M117,-119C117,-125 111,-131 105,-131"/>
<path fill="#ffffff" stroke="#ffffff" stroke-width="1.5" d="M69,-131C63,-131 57,-125 57,-119"/>
<path fill="#ffffff" stroke="#ffffff" stroke-width="1.5" d="M57,-107C57,-101 63,-95 69,-95"/>
<polyline fill="none" stroke="#2e3436" stroke-width="1.5" points="69,-95 105,-95 "/>
<path fill="none" stroke="#2e3436" stroke-width="1.5" d="M105,-95C111,-95 117,-101 117,-107"/>
<polyline fill="none" stroke="#2e3436" stroke-width="1.5" points="117,-107 117,-119 "/>
<path fill="none" stroke="#2e3436" stroke-width="1.5" d="M117,-119C117,-125 111,-131 105,-131"/>
<polyline fill="none" stroke="#2e3436" stroke-width="1.5" points="105,-131 69,-131 "/>
<path fill="none" stroke="#2e3436" stroke-width="1.5" d="M69,-131C63,-131 57,-125 57,-119"/>
<polyline fill="none" stroke="#2e3436" stroke-width="1.5" points="57,-119 57,-107 "/>
<path fill="none" stroke="#2e3436" stroke-width="1.5" d="M57,-107C57,-101 63,-95 69,-95"/>
<text text-anchor="middle" x="87" y="-119.8" font-family="FreeSans" font-size="8.00" fill="#1c2021">Node[322]</text>
<polyline fill="none" stroke="#2e3436" stroke-width="1.5" points="57,-113 117,-113 "/>
<text text-anchor="start" x="65" y="-101.8" font-family="FreeSans" font-size="8.00" fill="#1c2021">name = &#39;I&#39;</text>
</g>
<!-- N322&#45;&gt;N320 -->
<g id="edge4" class="edge"><title>N322&#45;&gt;N320</title>
<path fill="none" stroke="#2e3436" stroke-width="2" d="M76.6794,-94.9895C69.1254,-81.8071 58.7773,-63.7486 50.4086,-49.1445"/>
<polygon fill="#2e3436" stroke="#2e3436" points="46.4803,-42.2892 53.1376,-47.1185 48.7786,-45.2942 50.6431,-48.5479 50.2093,-48.7965 49.7754,-49.0451 47.911,-45.7914 47.281,-50.4745 46.4803,-42.2892 46.4803,-42.2892"/>
<text text-anchor="middle" x="76" y="-68.8" font-family="FreeSans" font-size="8.00" fill="#2e3436">know</text>
</g>
<!-- N322&#45;&gt;N321 -->
<g id="edge2" class="edge"><title>N322&#45;&gt;N321</title>
<path fill="none" stroke="#2e3436" stroke-width="2" d="M97.3206,-94.9895C104.124,-83.1166 113.194,-67.2883 121.043,-53.5908"/>
<polygon fill="#2e3436" stroke="#2e3436" points="124.783,-47.0644 123.983,-55.2498 123.353,-50.5667 121.488,-53.8203 121.054,-53.5718 120.621,-53.3232 122.485,-50.0695 118.126,-51.8937 124.783,-47.0644 124.783,-47.0644"/>
<text text-anchor="middle" x="123" y="-68.8" font-family="FreeSans" font-size="8.00" fill="#2e3436">know</text>
</g>
</g>
</svg>
