<?xml version="1.0" encoding="UTF-8" standalone="no"?>
<!DOCTYPE svg PUBLIC "-//W3C//DTD SVG 1.1//EN"
 "http://www.w3.org/Graphics/SVG/1.1/DTD/svg11.dtd">
<!-- Generated by graphviz version 2.26.3 (20100126.1600)
 -->
<!-- Title: g Pages: 1 -->
<svg width="296pt" height="46pt"
 viewBox="0.00 0.00 296.00 46.00" xmlns="http://www.w3.org/2000/svg" xmlns:xlink="http://www.w3.org/1999/xlink">
<g id="graph1" class="graph" transform="scale(1 1) rotate(0) translate(4 42)">
<title>g</title>
<polygon fill="white" stroke="white" points="-4,5 -4,-42 293,-42 293,5 -4,5"/>
<!-- N43 -->
<g id="node1" class="node"><title>N43</title>
<polygon fill="#ffffff" stroke="#ffffff" stroke-width="1.5" points="11.5,-1 58.5,-1 70.5,-13 70.5,-25 58.5,-37 11.5,-37 -0.5,-25 -0.5,-13 11.5,-1"/>
<path fill="#ffffff" stroke="#ffffff" stroke-width="1.5" d="M58.5,-1C64.5,-1 70.5,-7 70.5,-13"/>
<path fill="#ffffff" stroke="#ffffff" stroke-width="1.5" d="M70.5,-25C70.5,-31 64.5,-37 58.5,-37"/>
<path fill="#ffffff" stroke="#ffffff" stroke-width="1.5" d="M11.5,-37C5.5,-37 -0.5,-31 -0.5,-25"/>
<path fill="#ffffff" stroke="#ffffff" stroke-width="1.5" d="M-0.5,-13C-0.5,-7 5.5,-1 11.5,-1"/>
<polyline fill="none" stroke="#2e3436" stroke-width="1.5" points="11.5,-1 58.5,-1 "/>
<path fill="none" stroke="#2e3436" stroke-width="1.5" d="M58.5,-1C64.5,-1 70.5,-7 70.5,-13"/>
<polyline fill="none" stroke="#2e3436" stroke-width="1.5" points="70.5,-13 70.5,-25 "/>
<path fill="none" stroke="#2e3436" stroke-width="1.5" d="M70.5,-25C70.5,-31 64.5,-37 58.5,-37"/>
<polyline fill="none" stroke="#2e3436" stroke-width="1.5" points="58.5,-37 11.5,-37 "/>
<path fill="none" stroke="#2e3436" stroke-width="1.5" d="M11.5,-37C5.5,-37 -0.5,-31 -0.5,-25"/>
<polyline fill="none" stroke="#2e3436" stroke-width="1.5" points="-0.5,-25 -0.5,-13 "/>
<path fill="none" stroke="#2e3436" stroke-width="1.5" d="M-0.5,-13C-0.5,-7 5.5,-1 11.5,-1"/>
<text text-anchor="middle" x="35" y="-25.8" font-family="FreeSans" font-size="8.00" fill="#1c2021">Node[43]</text>
<polyline fill="none" stroke="#2e3436" stroke-width="1.5" points="-0.5,-19 70.5,-19 "/>
<text text-anchor="start" x="7.5" y="-7.8" font-family="FreeSans" font-size="8.00" fill="#1c2021">name = &#39;Ian&#39;</text>
</g>
<!-- N44 -->
<g id="node2" class="node"><title>N44</title>
<polygon fill="#ffffff" stroke="#ffffff" stroke-width="1.5" points="111,-1 167,-1 179,-13 179,-25 167,-37 111,-37 99,-25 99,-13 111,-1"/>
<path fill="#ffffff" stroke="#ffffff" stroke-width="1.5" d="M167,-1C173,-1 179,-7 179,-13"/>
<path fill="#ffffff" stroke="#ffffff" stroke-width="1.5" d="M179,-25C179,-31 173,-37 167,-37"/>
<path fill="#ffffff" stroke="#ffffff" stroke-width="1.5" d="M111,-37C105,-37 99,-31 99,-25"/>
<path fill="#ffffff" stroke="#ffffff" stroke-width="1.5" d="M99,-13C99,-7 105,-1 111,-1"/>
<polyline fill="none" stroke="#2e3436" stroke-width="1.5" points="111,-1 167,-1 "/>
<path fill="none" stroke="#2e3436" stroke-width="1.5" d="M167,-1C173,-1 179,-7 179,-13"/>
<polyline fill="none" stroke="#2e3436" stroke-width="1.5" points="179,-13 179,-25 "/>
<path fill="none" stroke="#2e3436" stroke-width="1.5" d="M179,-25C179,-31 173,-37 167,-37"/>
<polyline fill="none" stroke="#2e3436" stroke-width="1.5" points="167,-37 111,-37 "/>
<path fill="none" stroke="#2e3436" stroke-width="1.5" d="M111,-37C105,-37 99,-31 99,-25"/>
<polyline fill="none" stroke="#2e3436" stroke-width="1.5" points="99,-25 99,-13 "/>
<path fill="none" stroke="#2e3436" stroke-width="1.5" d="M99,-13C99,-7 105,-1 111,-1"/>
<text text-anchor="middle" x="139" y="-25.8" font-family="FreeSans" font-size="8.00" fill="#1c2021">Node[44]</text>
<polyline fill="none" stroke="#2e3436" stroke-width="1.5" points="99,-19 179,-19 "/>
<text text-anchor="start" x="107" y="-7.8" font-family="FreeSans" font-size="8.00" fill="#1c2021">name = &#39;Peter&#39;</text>
</g>
<!-- N45 -->
<g id="node3" class="node"><title>N45</title>
<polygon fill="#ffffff" stroke="#ffffff" stroke-width="1.5" points="219.5,-1 276.5,-1 288.5,-13 288.5,-25 276.5,-37 219.5,-37 207.5,-25 207.5,-13 219.5,-1"/>
<path fill="#ffffff" stroke="#ffffff" stroke-width="1.5" d="M276.5,-1C282.5,-1 288.5,-7 288.5,-13"/>
<path fill="#ffffff" stroke="#ffffff" stroke-width="1.5" d="M288.5,-25C288.5,-31 282.5,-37 276.5,-37"/>
<path fill="#ffffff" stroke="#ffffff" stroke-width="1.5" d="M219.5,-37C213.5,-37 207.5,-31 207.5,-25"/>
<path fill="#ffffff" stroke="#ffffff" stroke-width="1.5" d="M207.5,-13C207.5,-7 213.5,-1 219.5,-1"/>
<polyline fill="none" stroke="#2e3436" stroke-width="1.5" points="219.5,-1 276.5,-1 "/>
<path fill="none" stroke="#2e3436" stroke-width="1.5" d="M276.5,-1C282.5,-1 288.5,-7 288.5,-13"/>
<polyline fill="none" stroke="#2e3436" stroke-width="1.5" points="288.5,-13 288.5,-25 "/>
<path fill="none" stroke="#2e3436" stroke-width="1.5" d="M288.5,-25C288.5,-31 282.5,-37 276.5,-37"/>
<polyline fill="none" stroke="#2e3436" stroke-width="1.5" points="276.5,-37 219.5,-37 "/>
<path fill="none" stroke="#2e3436" stroke-width="1.5" d="M219.5,-37C213.5,-37 207.5,-31 207.5,-25"/>
<polyline fill="none" stroke="#2e3436" stroke-width="1.5" points="207.5,-25 207.5,-13 "/>
<path fill="none" stroke="#2e3436" stroke-width="1.5" d="M207.5,-13C207.5,-7 213.5,-1 219.5,-1"/>
<text text-anchor="middle" x="248" y="-25.8" font-family="FreeSans" font-size="8.00" fill="#1c2021">Node[45]</text>
<polyline fill="none" stroke="#2e3436" stroke-width="1.5" points="207.5,-19 288.5,-19 "/>
<text text-anchor="start" x="215.5" y="-7.8" font-family="FreeSans" font-size="8.00" fill="#1c2021">name = &#39;Bikes&#39;</text>
</g>
</g>
</svg>
