<?xml version="1.0" encoding="UTF-8" standalone="no"?>
<!DOCTYPE svg PUBLIC "-//W3C//DTD SVG 1.1//EN"
 "http://www.w3.org/Graphics/SVG/1.1/DTD/svg11.dtd">
<!-- Generated by graphviz version 2.26.3 (20100126.1600)
 -->
<!-- Title: g Pages: 1 -->
<svg width="98pt" height="56pt"
 viewBox="0.00 0.00 98.00 56.00" xmlns="http://www.w3.org/2000/svg" xmlns:xlink="http://www.w3.org/1999/xlink">
<g id="graph1" class="graph" transform="scale(1 1) rotate(0) translate(4 52)">
<title>g</title>
<polygon fill="white" stroke="white" points="-4,5 -4,-52 95,-52 95,5 -4,5"/>
<!-- N221 -->
<g id="node1" class="node"><title>N221</title>
<polygon fill="#ffffff" stroke="#ffffff" stroke-width="1.5" points="12,-1 78,-1 90,-13 90,-35 78,-47 12,-47 0,-35 0,-13 12,-1"/>
<path fill="#ffffff" stroke="#ffffff" stroke-width="1.5" d="M78,-1C84,-1 90,-7 90,-13"/>
<path fill="#ffffff" stroke="#ffffff" stroke-width="1.5" d="M90,-35C90,-41 84,-47 78,-47"/>
<path fill="#ffffff" stroke="#ffffff" stroke-width="1.5" d="M12,-47C6,-47 0,-41 0,-35"/>
<path fill="#ffffff" stroke="#ffffff" stroke-width="1.5" d="M0,-13C0,-7 6,-1 12,-1"/>
<polyline fill="none" stroke="#2e3436" stroke-width="1.5" points="12,-1 78,-1 "/>
<path fill="none" stroke="#2e3436" stroke-width="1.5" d="M78,-1C84,-1 90,-7 90,-13"/>
<polyline fill="none" stroke="#2e3436" stroke-width="1.5" points="90,-13 90,-35 "/>
<path fill="none" stroke="#2e3436" stroke-width="1.5" d="M90,-35C90,-41 84,-47 78,-47"/>
<polyline fill="none" stroke="#2e3436" stroke-width="1.5" points="78,-47 12,-47 "/>
<path fill="none" stroke="#2e3436" stroke-width="1.5" d="M12,-47C6,-47 0,-41 0,-35"/>
<polyline fill="none" stroke="#2e3436" stroke-width="1.5" points="0,-35 0,-13 "/>
<path fill="none" stroke="#2e3436" stroke-width="1.5" d="M0,-13C0,-7 6,-1 12,-1"/>
<text text-anchor="middle" x="45" y="-35.8" font-family="FreeSans" font-size="8.00" fill="#1c2021">Node[221]</text>
<polyline fill="none" stroke="#2e3436" stroke-width="1.5" points="0,-29 90,-29 "/>
<text text-anchor="start" x="8" y="-17.8" font-family="FreeSans" font-size="8.00" fill="#1c2021">kvkey2 = &#39;value2&#39;</text>
<text text-anchor="start" x="8" y="-7.8" font-family="FreeSans" font-size="8.00" fill="#1c2021">kvkey1 = &#39;value2&#39;</text>
</g>
</g>
</svg>
