<?xml version="1.0" encoding="UTF-8" standalone="no"?>
<!DOCTYPE svg PUBLIC "-//W3C//DTD SVG 1.1//EN"
 "http://www.w3.org/Graphics/SVG/1.1/DTD/svg11.dtd">
<!-- Generated by graphviz version 2.26.3 (20100126.1600)
 -->
<!-- Title: g Pages: 1 -->
<svg width="191pt" height="214pt"
 viewBox="0.00 0.00 191.00 214.00" xmlns="http://www.w3.org/2000/svg" xmlns:xlink="http://www.w3.org/1999/xlink">
<g id="graph1" class="graph" transform="scale(1 1) rotate(0) translate(4 210)">
<title>g</title>
<polygon fill="white" stroke="white" points="-4,5 -4,-210 188,-210 188,5 -4,5"/>
<!-- N21 -->
<g id="node1" class="node"><title>N21</title>
<polygon fill="#ffffff" stroke="#ffffff" stroke-width="1.5" points="12,-1 64,-1 76,-13 76,-25 64,-37 12,-37 0,-25 0,-13 12,-1"/>
<path fill="#ffffff" stroke="#ffffff" stroke-width="1.5" d="M64,-1C70,-1 76,-7 76,-13"/>
<path fill="#ffffff" stroke="#ffffff" stroke-width="1.5" d="M76,-25C76,-31 70,-37 64,-37"/>
<path fill="#ffffff" stroke="#ffffff" stroke-width="1.5" d="M12,-37C6,-37 0,-31 0,-25"/>
<path fill="#ffffff" stroke="#ffffff" stroke-width="1.5" d="M0,-13C0,-7 6,-1 12,-1"/>
<polyline fill="none" stroke="#2e3436" stroke-width="1.5" points="12,-1 64,-1 "/>
<path fill="none" stroke="#2e3436" stroke-width="1.5" d="M64,-1C70,-1 76,-7 76,-13"/>
<polyline fill="none" stroke="#2e3436" stroke-width="1.5" points="76,-13 76,-25 "/>
<path fill="none" stroke="#2e3436" stroke-width="1.5" d="M76,-25C76,-31 70,-37 64,-37"/>
<polyline fill="none" stroke="#2e3436" stroke-width="1.5" points="64,-37 12,-37 "/>
<path fill="none" stroke="#2e3436" stroke-width="1.5" d="M12,-37C6,-37 0,-31 0,-25"/>
<polyline fill="none" stroke="#2e3436" stroke-width="1.5" points="0,-25 0,-13 "/>
<path fill="none" stroke="#2e3436" stroke-width="1.5" d="M0,-13C0,-7 6,-1 12,-1"/>
<text text-anchor="middle" x="38" y="-25.8" font-family="FreeSans" font-size="8.00" fill="#1c2021">Node[21]</text>
<polyline fill="none" stroke="#2e3436" stroke-width="1.5" points="0,-19 76,-19 "/>
<text text-anchor="start" x="8" y="-7.8" font-family="FreeSans" font-size="8.00" fill="#1c2021">name = &#39;cats&#39;</text>
</g>
<!-- N22 -->
<g id="node2" class="node"><title>N22</title>
<polygon fill="#ffffff" stroke="#ffffff" stroke-width="1.5" points="116.5,-1 171.5,-1 183.5,-13 183.5,-25 171.5,-37 116.5,-37 104.5,-25 104.5,-13 116.5,-1"/>
<path fill="#ffffff" stroke="#ffffff" stroke-width="1.5" d="M171.5,-1C177.5,-1 183.5,-7 183.5,-13"/>
<path fill="#ffffff" stroke="#ffffff" stroke-width="1.5" d="M183.5,-25C183.5,-31 177.5,-37 171.5,-37"/>
<path fill="#ffffff" stroke="#ffffff" stroke-width="1.5" d="M116.5,-37C110.5,-37 104.5,-31 104.5,-25"/>
<path fill="#ffffff" stroke="#ffffff" stroke-width="1.5" d="M104.5,-13C104.5,-7 110.5,-1 116.5,-1"/>
<polyline fill="none" stroke="#2e3436" stroke-width="1.5" points="116.5,-1 171.5,-1 "/>
<path fill="none" stroke="#2e3436" stroke-width="1.5" d="M171.5,-1C177.5,-1 183.5,-7 183.5,-13"/>
<polyline fill="none" stroke="#2e3436" stroke-width="1.5" points="183.5,-13 183.5,-25 "/>
<path fill="none" stroke="#2e3436" stroke-width="1.5" d="M183.5,-25C183.5,-31 177.5,-37 171.5,-37"/>
<polyline fill="none" stroke="#2e3436" stroke-width="1.5" points="171.5,-37 116.5,-37 "/>
<path fill="none" stroke="#2e3436" stroke-width="1.5" d="M116.5,-37C110.5,-37 104.5,-31 104.5,-25"/>
<polyline fill="none" stroke="#2e3436" stroke-width="1.5" points="104.5,-25 104.5,-13 "/>
<path fill="none" stroke="#2e3436" stroke-width="1.5" d="M104.5,-13C104.5,-7 110.5,-1 116.5,-1"/>
<text text-anchor="middle" x="144" y="-25.8" font-family="FreeSans" font-size="8.00" fill="#1c2021">Node[22]</text>
<polyline fill="none" stroke="#2e3436" stroke-width="1.5" points="104.5,-19 183.5,-19 "/>
<text text-anchor="start" x="112.5" y="-7.8" font-family="FreeSans" font-size="8.00" fill="#1c2021">name = &#39;dogs&#39;</text>
</g>
<!-- N23 -->
<g id="node3" class="node"><title>N23</title>
<polygon fill="#ffffff" stroke="#ffffff" stroke-width="1.5" points="52,-169 88,-169 100,-181 100,-193 88,-205 52,-205 40,-193 40,-181 52,-169"/>
<path fill="#ffffff" stroke="#ffffff" stroke-width="1.5" d="M88,-169C94,-169 100,-175 100,-181"/>
<path fill="#ffffff" stroke="#ffffff" stroke-width="1.5" d="M100,-193C100,-199 94,-205 88,-205"/>
<path fill="#ffffff" stroke="#ffffff" stroke-width="1.5" d="M52,-205C46,-205 40,-199 40,-193"/>
<path fill="#ffffff" stroke="#ffffff" stroke-width="1.5" d="M40,-181C40,-175 46,-169 52,-169"/>
<polyline fill="none" stroke="#2e3436" stroke-width="1.5" points="52,-169 88,-169 "/>
<path fill="none" stroke="#2e3436" stroke-width="1.5" d="M88,-169C94,-169 100,-175 100,-181"/>
<polyline fill="none" stroke="#2e3436" stroke-width="1.5" points="100,-181 100,-193 "/>
<path fill="none" stroke="#2e3436" stroke-width="1.5" d="M100,-193C100,-199 94,-205 88,-205"/>
<polyline fill="none" stroke="#2e3436" stroke-width="1.5" points="88,-205 52,-205 "/>
<path fill="none" stroke="#2e3436" stroke-width="1.5" d="M52,-205C46,-205 40,-199 40,-193"/>
<polyline fill="none" stroke="#2e3436" stroke-width="1.5" points="40,-193 40,-181 "/>
<path fill="none" stroke="#2e3436" stroke-width="1.5" d="M40,-181C40,-175 46,-169 52,-169"/>
<text text-anchor="middle" x="70" y="-193.8" font-family="FreeSans" font-size="8.00" fill="#1c2021">Node[23]</text>
<polyline fill="none" stroke="#2e3436" stroke-width="1.5" points="40,-187 100,-187 "/>
<text text-anchor="start" x="48" y="-175.8" font-family="FreeSans" font-size="8.00" fill="#1c2021">name = &#39;I&#39;</text>
</g>
<!-- N23&#45;&gt;N21 -->
<g id="edge4" class="edge"><title>N23&#45;&gt;N21</title>
<path fill="none" stroke="#4e9a06" stroke-width="2" d="M64.6923,-168.915C61.0274,-155.943 56.2477,-138.004 53,-122 47.7101,-95.9323 43.5443,-65.7893 40.9588,-44.8755"/>
<polygon fill="#4e9a06" stroke="#4e9a06" points="40.0462,-37.3397 44.2985,-44.3795 40.9935,-41.0024 41.4444,-44.7252 40.948,-44.7853 40.4516,-44.8455 40.0008,-41.1227 37.5975,-45.1911 40.0462,-37.3397 40.0462,-37.3397"/>
<text text-anchor="middle" x="60.5" y="-100.8" font-family="FreeSans" font-size="8.00" fill="#4e9a06">like</text>
</g>
<!-- N24 -->
<g id="node5" class="node"><title>N24</title>
<polygon fill="#ffffff" stroke="#ffffff" stroke-width="1.5" points="93.5,-85 140.5,-85 152.5,-97 152.5,-109 140.5,-121 93.5,-121 81.5,-109 81.5,-97 93.5,-85"/>
<path fill="#ffffff" stroke="#ffffff" stroke-width="1.5" d="M140.5,-85C146.5,-85 152.5,-91 152.5,-97"/>
<path fill="#ffffff" stroke="#ffffff" stroke-width="1.5" d="M152.5,-109C152.5,-115 146.5,-121 140.5,-121"/>
<path fill="#ffffff" stroke="#ffffff" stroke-width="1.5" d="M93.5,-121C87.5,-121 81.5,-115 81.5,-109"/>
<path fill="#ffffff" stroke="#ffffff" stroke-width="1.5" d="M81.5,-97C81.5,-91 87.5,-85 93.5,-85"/>
<polyline fill="none" stroke="#2e3436" stroke-width="1.5" points="93.5,-85 140.5,-85 "/>
<path fill="none" stroke="#2e3436" stroke-width="1.5" d="M140.5,-85C146.5,-85 152.5,-91 152.5,-97"/>
<polyline fill="none" stroke="#2e3436" stroke-width="1.5" points="152.5,-97 152.5,-109 "/>
<path fill="none" stroke="#2e3436" stroke-width="1.5" d="M152.5,-109C152.5,-115 146.5,-121 140.5,-121"/>
<polyline fill="none" stroke="#2e3436" stroke-width="1.5" points="140.5,-121 93.5,-121 "/>
<path fill="none" stroke="#2e3436" stroke-width="1.5" d="M93.5,-121C87.5,-121 81.5,-115 81.5,-109"/>
<polyline fill="none" stroke="#2e3436" stroke-width="1.5" points="81.5,-109 81.5,-97 "/>
<path fill="none" stroke="#2e3436" stroke-width="1.5" d="M81.5,-97C81.5,-91 87.5,-85 93.5,-85"/>
<text text-anchor="middle" x="117" y="-109.8" font-family="FreeSans" font-size="8.00" fill="#1c2021">Node[24]</text>
<polyline fill="none" stroke="#2e3436" stroke-width="1.5" points="81.5,-103 152.5,-103 "/>
<text text-anchor="start" x="89.5" y="-91.8" font-family="FreeSans" font-size="8.00" fill="#1c2021">name = &#39;Joe&#39;</text>
</g>
<!-- N23&#45;&gt;N24 -->
<g id="edge2" class="edge"><title>N23&#45;&gt;N24</title>
<path fill="none" stroke="#2e3436" stroke-width="2" d="M80.1983,-168.773C86.9116,-156.775 95.7843,-140.917 103.136,-127.779"/>
<polygon fill="#2e3436" stroke="#2e3436" points="106.822,-121.191 106.105,-129.384 105.427,-124.708 103.596,-127.98 103.159,-127.736 102.723,-127.492 104.554,-124.22 100.214,-126.088 106.822,-121.191 106.822,-121.191"/>
<text text-anchor="middle" x="105" y="-142.8" font-family="FreeSans" font-size="8.00" fill="#2e3436">know</text>
</g>
<!-- N24&#45;&gt;N21 -->
<g id="edge6" class="edge"><title>N24&#45;&gt;N21</title>
<path fill="none" stroke="#4e9a06" stroke-width="2" d="M99.8582,-84.7733C88.2636,-72.4448 72.8368,-56.0416 60.2898,-42.7005"/>
<polygon fill="#4e9a06" stroke="#4e9a06" points="55.1084,-37.1912 62.7052,-40.3424 58.0417,-39.5803 60.6108,-42.3121 60.2466,-42.6546 59.8824,-42.9972 57.3133,-40.2654 57.7881,-44.9668 55.1084,-37.1912 55.1084,-37.1912"/>
<text text-anchor="middle" x="86.5" y="-58.8" font-family="FreeSans" font-size="8.00" fill="#4e9a06">like</text>
</g>
<!-- N24&#45;&gt;N22 -->
<g id="edge8" class="edge"><title>N24&#45;&gt;N22</title>
<path fill="none" stroke="#4e9a06" stroke-width="2" d="M122.859,-84.7733C126.644,-72.9952 131.626,-57.4981 135.802,-44.5049"/>
<polygon fill="#4e9a06" stroke="#4e9a06" points="138.153,-37.1912 139.071,-45.3642 137.481,-40.9143 136.334,-44.4844 135.858,-44.3314 135.382,-44.1784 136.529,-40.6083 132.645,-43.2986 138.153,-37.1912 138.153,-37.1912"/>
<text text-anchor="middle" x="138.5" y="-58.8" font-family="FreeSans" font-size="8.00" fill="#4e9a06">like</text>
</g>
</g>
</svg>
