<?xml version="1.0" encoding="UTF-8" standalone="no"?>
<!DOCTYPE svg PUBLIC "-//W3C//DTD SVG 1.1//EN"
 "http://www.w3.org/Graphics/SVG/1.1/DTD/svg11.dtd">
<!-- Generated by graphviz version 2.26.3 (20100126.1600)
 -->
<!-- Title: g Pages: 1 -->
<svg width="503pt" height="648pt"
 viewBox="0.00 0.00 502.57 648.00" xmlns="http://www.w3.org/2000/svg" xmlns:xlink="http://www.w3.org/1999/xlink">
<g id="graph1" class="graph" transform="scale(0.920455 0.920455) rotate(0) translate(4 700)">
<title>g</title>
<polygon fill="white" stroke="white" points="-4,5 -4,-700 543,-700 543,5 -4,5"/>
<!-- N295 -->
<g id="node1" class="node"><title>N295</title>
<polygon fill="#ffffff" stroke="#ffffff" stroke-width="1.5" points="11.5,-95 48.5,-95 60.5,-107 60.5,-119 48.5,-131 11.5,-131 -0.5,-119 -0.5,-107 11.5,-95"/>
<path fill="#ffffff" stroke="#ffffff" stroke-width="1.5" d="M48.5,-95C54.5,-95 60.5,-101 60.5,-107"/>
<path fill="#ffffff" stroke="#ffffff" stroke-width="1.5" d="M60.5,-119C60.5,-125 54.5,-131 48.5,-131"/>
<path fill="#ffffff" stroke="#ffffff" stroke-width="1.5" d="M11.5,-131C5.5,-131 -0.5,-125 -0.5,-119"/>
<path fill="#ffffff" stroke="#ffffff" stroke-width="1.5" d="M-0.5,-107C-0.5,-101 5.5,-95 11.5,-95"/>
<polyline fill="none" stroke="#2e3436" stroke-width="1.5" points="11.5,-95 48.5,-95 "/>
<path fill="none" stroke="#2e3436" stroke-width="1.5" d="M48.5,-95C54.5,-95 60.5,-101 60.5,-107"/>
<polyline fill="none" stroke="#2e3436" stroke-width="1.5" points="60.5,-107 60.5,-119 "/>
<path fill="none" stroke="#2e3436" stroke-width="1.5" d="M60.5,-119C60.5,-125 54.5,-131 48.5,-131"/>
<polyline fill="none" stroke="#2e3436" stroke-width="1.5" points="48.5,-131 11.5,-131 "/>
<path fill="none" stroke="#2e3436" stroke-width="1.5" d="M11.5,-131C5.5,-131 -0.5,-125 -0.5,-119"/>
<polyline fill="none" stroke="#2e3436" stroke-width="1.5" points="-0.5,-119 -0.5,-107 "/>
<path fill="none" stroke="#2e3436" stroke-width="1.5" d="M-0.5,-107C-0.5,-101 5.5,-95 11.5,-95"/>
<text text-anchor="middle" x="30" y="-119.8" font-family="FreeSans" font-size="8.00" fill="#1c2021">Node[295]</text>
<polyline fill="none" stroke="#2e3436" stroke-width="1.5" points="-0.5,-113 60.5,-113 "/>
<text text-anchor="start" x="7.5" y="-101.8" font-family="FreeSans" font-size="8.00" fill="#1c2021">name = &#39;f&#39;</text>
</g>
<!-- N296 -->
<g id="node2" class="node"><title>N296</title>
<polygon fill="#ffffff" stroke="#ffffff" stroke-width="1.5" points="154.5,-283 193.5,-283 205.5,-295 205.5,-307 193.5,-319 154.5,-319 142.5,-307 142.5,-295 154.5,-283"/>
<path fill="#ffffff" stroke="#ffffff" stroke-width="1.5" d="M193.5,-283C199.5,-283 205.5,-289 205.5,-295"/>
<path fill="#ffffff" stroke="#ffffff" stroke-width="1.5" d="M205.5,-307C205.5,-313 199.5,-319 193.5,-319"/>
<path fill="#ffffff" stroke="#ffffff" stroke-width="1.5" d="M154.5,-319C148.5,-319 142.5,-313 142.5,-307"/>
<path fill="#ffffff" stroke="#ffffff" stroke-width="1.5" d="M142.5,-295C142.5,-289 148.5,-283 154.5,-283"/>
<polyline fill="none" stroke="#2e3436" stroke-width="1.5" points="154.5,-283 193.5,-283 "/>
<path fill="none" stroke="#2e3436" stroke-width="1.5" d="M193.5,-283C199.5,-283 205.5,-289 205.5,-295"/>
<polyline fill="none" stroke="#2e3436" stroke-width="1.5" points="205.5,-295 205.5,-307 "/>
<path fill="none" stroke="#2e3436" stroke-width="1.5" d="M205.5,-307C205.5,-313 199.5,-319 193.5,-319"/>
<polyline fill="none" stroke="#2e3436" stroke-width="1.5" points="193.5,-319 154.5,-319 "/>
<path fill="none" stroke="#2e3436" stroke-width="1.5" d="M154.5,-319C148.5,-319 142.5,-313 142.5,-307"/>
<polyline fill="none" stroke="#2e3436" stroke-width="1.5" points="142.5,-307 142.5,-295 "/>
<path fill="none" stroke="#2e3436" stroke-width="1.5" d="M142.5,-295C142.5,-289 148.5,-283 154.5,-283"/>
<text text-anchor="middle" x="174" y="-307.8" font-family="FreeSans" font-size="8.00" fill="#1c2021">Node[296]</text>
<polyline fill="none" stroke="#2e3436" stroke-width="1.5" points="142.5,-301 205.5,-301 "/>
<text text-anchor="start" x="150.5" y="-289.8" font-family="FreeSans" font-size="8.00" fill="#1c2021">name = &#39;d&#39;</text>
</g>
<!-- N303 -->
<g id="node4" class="node"><title>N303</title>
<polygon fill="#ffffff" stroke="#ffffff" stroke-width="1.5" points="280,-95 318,-95 330,-107 330,-119 318,-131 280,-131 268,-119 268,-107 280,-95"/>
<path fill="#ffffff" stroke="#ffffff" stroke-width="1.5" d="M318,-95C324,-95 330,-101 330,-107"/>
<path fill="#ffffff" stroke="#ffffff" stroke-width="1.5" d="M330,-119C330,-125 324,-131 318,-131"/>
<path fill="#ffffff" stroke="#ffffff" stroke-width="1.5" d="M280,-131C274,-131 268,-125 268,-119"/>
<path fill="#ffffff" stroke="#ffffff" stroke-width="1.5" d="M268,-107C268,-101 274,-95 280,-95"/>
<polyline fill="none" stroke="#2e3436" stroke-width="1.5" points="280,-95 318,-95 "/>
<path fill="none" stroke="#2e3436" stroke-width="1.5" d="M318,-95C324,-95 330,-101 330,-107"/>
<polyline fill="none" stroke="#2e3436" stroke-width="1.5" points="330,-107 330,-119 "/>
<path fill="none" stroke="#2e3436" stroke-width="1.5" d="M330,-119C330,-125 324,-131 318,-131"/>
<polyline fill="none" stroke="#2e3436" stroke-width="1.5" points="318,-131 280,-131 "/>
<path fill="none" stroke="#2e3436" stroke-width="1.5" d="M280,-131C274,-131 268,-125 268,-119"/>
<polyline fill="none" stroke="#2e3436" stroke-width="1.5" points="268,-119 268,-107 "/>
<path fill="none" stroke="#2e3436" stroke-width="1.5" d="M268,-107C268,-101 274,-95 280,-95"/>
<text text-anchor="middle" x="299" y="-119.8" font-family="FreeSans" font-size="8.00" fill="#1c2021">Node[303]</text>
<polyline fill="none" stroke="#2e3436" stroke-width="1.5" points="268,-113 330,-113 "/>
<text text-anchor="start" x="276" y="-101.8" font-family="FreeSans" font-size="8.00" fill="#1c2021">name = &#39;x&#39;</text>
</g>
<!-- N296&#45;&gt;N303 -->
<g id="edge2" class="edge"><title>N296&#45;&gt;N303</title>
<path fill="none" stroke="#2e3436" stroke-width="2" d="M173.906,-282.877C174.556,-259.415 178.392,-217.989 196,-188 210.92,-162.588 238.205,-143.314 260.944,-130.671"/>
<polygon fill="#2e3436" stroke="#2e3436" points="267.837,-126.961 262.832,-133.488 264.772,-129.179 261.47,-130.956 261.233,-130.516 260.996,-130.076 264.298,-128.298 259.633,-127.544 267.837,-126.961 267.837,-126.961"/>
<text text-anchor="middle" x="218.5" y="-209.8" font-family="FreeSans" font-size="8.00" fill="#2e3436">to</text>
<text text-anchor="start" x="196" y="-199.8" font-family="FreeSans" font-size="8.00" fill="#2e3436">cost = 3.0</text>
</g>
<!-- N297 -->
<g id="node6" class="node"><title>N297</title>
<polygon fill="#ffffff" stroke="#ffffff" stroke-width="1.5" points="65.5,-189 104.5,-189 116.5,-201 116.5,-213 104.5,-225 65.5,-225 53.5,-213 53.5,-201 65.5,-189"/>
<path fill="#ffffff" stroke="#ffffff" stroke-width="1.5" d="M104.5,-189C110.5,-189 116.5,-195 116.5,-201"/>
<path fill="#ffffff" stroke="#ffffff" stroke-width="1.5" d="M116.5,-213C116.5,-219 110.5,-225 104.5,-225"/>
<path fill="#ffffff" stroke="#ffffff" stroke-width="1.5" d="M65.5,-225C59.5,-225 53.5,-219 53.5,-213"/>
<path fill="#ffffff" stroke="#ffffff" stroke-width="1.5" d="M53.5,-201C53.5,-195 59.5,-189 65.5,-189"/>
<polyline fill="none" stroke="#2e3436" stroke-width="1.5" points="65.5,-189 104.5,-189 "/>
<path fill="none" stroke="#2e3436" stroke-width="1.5" d="M104.5,-189C110.5,-189 116.5,-195 116.5,-201"/>
<polyline fill="none" stroke="#2e3436" stroke-width="1.5" points="116.5,-201 116.5,-213 "/>
<path fill="none" stroke="#2e3436" stroke-width="1.5" d="M116.5,-213C116.5,-219 110.5,-225 104.5,-225"/>
<polyline fill="none" stroke="#2e3436" stroke-width="1.5" points="104.5,-225 65.5,-225 "/>
<path fill="none" stroke="#2e3436" stroke-width="1.5" d="M65.5,-225C59.5,-225 53.5,-219 53.5,-213"/>
<polyline fill="none" stroke="#2e3436" stroke-width="1.5" points="53.5,-213 53.5,-201 "/>
<path fill="none" stroke="#2e3436" stroke-width="1.5" d="M53.5,-201C53.5,-195 59.5,-189 65.5,-189"/>
<text text-anchor="middle" x="85" y="-213.8" font-family="FreeSans" font-size="8.00" fill="#1c2021">Node[297]</text>
<polyline fill="none" stroke="#2e3436" stroke-width="1.5" points="53.5,-207 116.5,-207 "/>
<text text-anchor="start" x="61.5" y="-195.8" font-family="FreeSans" font-size="8.00" fill="#1c2021">name = &#39;e&#39;</text>
</g>
<!-- N296&#45;&gt;N297 -->
<g id="edge4" class="edge"><title>N296&#45;&gt;N297</title>
<path fill="none" stroke="#2e3436" stroke-width="2" d="M142.171,-289.043C129.832,-283.09 116.433,-274.815 107,-264 99.257,-255.123 94.0919,-243.222 90.7252,-232.591"/>
<polygon fill="#2e3436" stroke="#2e3436" points="88.5804,-225.136 93.8975,-231.41 90.0977,-228.601 91.1345,-232.205 90.654,-232.343 90.1735,-232.482 89.1367,-228.878 87.4106,-233.277 88.5804,-225.136 88.5804,-225.136"/>
<text text-anchor="middle" x="129.5" y="-256.8" font-family="FreeSans" font-size="8.00" fill="#2e3436">to</text>
<text text-anchor="start" x="107" y="-246.8" font-family="FreeSans" font-size="8.00" fill="#2e3436">cost = 1.0</text>
</g>
<!-- N302 -->
<g id="node21" class="node"><title>N302</title>
<polygon fill="#ffffff" stroke="#ffffff" stroke-width="1.5" points="280,-1 318,-1 330,-13 330,-25 318,-37 280,-37 268,-25 268,-13 280,-1"/>
<path fill="#ffffff" stroke="#ffffff" stroke-width="1.5" d="M318,-1C324,-1 330,-7 330,-13"/>
<path fill="#ffffff" stroke="#ffffff" stroke-width="1.5" d="M330,-25C330,-31 324,-37 318,-37"/>
<path fill="#ffffff" stroke="#ffffff" stroke-width="1.5" d="M280,-37C274,-37 268,-31 268,-25"/>
<path fill="#ffffff" stroke="#ffffff" stroke-width="1.5" d="M268,-13C268,-7 274,-1 280,-1"/>
<polyline fill="none" stroke="#2e3436" stroke-width="1.5" points="280,-1 318,-1 "/>
<path fill="none" stroke="#2e3436" stroke-width="1.5" d="M318,-1C324,-1 330,-7 330,-13"/>
<polyline fill="none" stroke="#2e3436" stroke-width="1.5" points="330,-13 330,-25 "/>
<path fill="none" stroke="#2e3436" stroke-width="1.5" d="M330,-25C330,-31 324,-37 318,-37"/>
<polyline fill="none" stroke="#2e3436" stroke-width="1.5" points="318,-37 280,-37 "/>
<path fill="none" stroke="#2e3436" stroke-width="1.5" d="M280,-37C274,-37 268,-31 268,-25"/>
<polyline fill="none" stroke="#2e3436" stroke-width="1.5" points="268,-25 268,-13 "/>
<path fill="none" stroke="#2e3436" stroke-width="1.5" d="M268,-13C268,-7 274,-1 280,-1"/>
<text text-anchor="middle" x="299" y="-25.8" font-family="FreeSans" font-size="8.00" fill="#1c2021">Node[302]</text>
<polyline fill="none" stroke="#2e3436" stroke-width="1.5" points="268,-19 330,-19 "/>
<text text-anchor="start" x="276" y="-7.8" font-family="FreeSans" font-size="8.00" fill="#1c2021">name = &#39;y&#39;</text>
</g>
<!-- N303&#45;&gt;N302 -->
<g id="edge26" class="edge"><title>N303&#45;&gt;N302</title>
<path fill="none" stroke="#2e3436" stroke-width="2" d="M299,-94.8759C299,-80.7014 299,-60.806 299,-44.944"/>
<polygon fill="#2e3436" stroke="#2e3436" points="299,-37.0685 302.375,-44.5685 299.5,-40.8185 299.5,-44.5685 299,-44.5685 298.5,-44.5685 298.5,-40.8185 295.625,-44.5685 299,-37.0685 299,-37.0685"/>
<text text-anchor="middle" x="321.5" y="-68.8" font-family="FreeSans" font-size="8.00" fill="#2e3436">to</text>
<text text-anchor="start" x="299" y="-58.8" font-family="FreeSans" font-size="8.00" fill="#2e3436">cost = 2.0</text>
</g>
<!-- N297&#45;&gt;N295 -->
<g id="edge8" class="edge"><title>N297&#45;&gt;N295</title>
<path fill="none" stroke="#2e3436" stroke-width="2" d="M53.2698,-193.902C43.3615,-188.123 33.5742,-180.264 28,-170 22.8786,-160.57 22.4518,-148.909 23.6626,-138.595"/>
<polygon fill="#2e3436" stroke="#2e3436" points="24.8571,-131.031 27.0209,-138.966 24.7661,-134.813 24.1811,-138.517 23.6872,-138.439 23.1933,-138.361 23.7783,-134.657 20.3535,-137.913 24.8571,-131.031 24.8571,-131.031"/>
<text text-anchor="middle" x="50.5" y="-162.8" font-family="FreeSans" font-size="8.00" fill="#2e3436">to</text>
<text text-anchor="start" x="28" y="-152.8" font-family="FreeSans" font-size="8.00" fill="#2e3436">cost = 2.0</text>
</g>
<!-- N297&#45;&gt;N303 -->
<g id="edge6" class="edge"><title>N297&#45;&gt;N303</title>
<path fill="none" stroke="#2e3436" stroke-width="2" d="M87.3283,-188.905C89.9398,-176.143 95.4449,-159.662 107,-150 129.742,-130.984 210.822,-120.693 260.052,-116.073"/>
<polygon fill="#2e3436" stroke="#2e3436" points="267.666,-115.38 260.503,-119.421 263.977,-116.218 260.242,-116.558 260.197,-116.06 260.152,-115.562 263.886,-115.222 259.891,-112.699 267.666,-115.38 267.666,-115.38"/>
<text text-anchor="middle" x="129.5" y="-162.8" font-family="FreeSans" font-size="8.00" fill="#2e3436">to</text>
<text text-anchor="start" x="107" y="-152.8" font-family="FreeSans" font-size="8.00" fill="#2e3436">cost = 1.0</text>
</g>
<!-- N298 -->
<g id="node9" class="node"><title>N298</title>
<polygon fill="#ffffff" stroke="#ffffff" stroke-width="1.5" points="384.5,-471 423.5,-471 435.5,-483 435.5,-495 423.5,-507 384.5,-507 372.5,-495 372.5,-483 384.5,-471"/>
<path fill="#ffffff" stroke="#ffffff" stroke-width="1.5" d="M423.5,-471C429.5,-471 435.5,-477 435.5,-483"/>
<path fill="#ffffff" stroke="#ffffff" stroke-width="1.5" d="M435.5,-495C435.5,-501 429.5,-507 423.5,-507"/>
<path fill="#ffffff" stroke="#ffffff" stroke-width="1.5" d="M384.5,-507C378.5,-507 372.5,-501 372.5,-495"/>
<path fill="#ffffff" stroke="#ffffff" stroke-width="1.5" d="M372.5,-483C372.5,-477 378.5,-471 384.5,-471"/>
<polyline fill="none" stroke="#2e3436" stroke-width="1.5" points="384.5,-471 423.5,-471 "/>
<path fill="none" stroke="#2e3436" stroke-width="1.5" d="M423.5,-471C429.5,-471 435.5,-477 435.5,-483"/>
<polyline fill="none" stroke="#2e3436" stroke-width="1.5" points="435.5,-483 435.5,-495 "/>
<path fill="none" stroke="#2e3436" stroke-width="1.5" d="M435.5,-495C435.5,-501 429.5,-507 423.5,-507"/>
<polyline fill="none" stroke="#2e3436" stroke-width="1.5" points="423.5,-507 384.5,-507 "/>
<path fill="none" stroke="#2e3436" stroke-width="1.5" d="M384.5,-507C378.5,-507 372.5,-501 372.5,-495"/>
<polyline fill="none" stroke="#2e3436" stroke-width="1.5" points="372.5,-495 372.5,-483 "/>
<path fill="none" stroke="#2e3436" stroke-width="1.5" d="M372.5,-483C372.5,-477 378.5,-471 384.5,-471"/>
<text text-anchor="middle" x="404" y="-495.8" font-family="FreeSans" font-size="8.00" fill="#1c2021">Node[298]</text>
<polyline fill="none" stroke="#2e3436" stroke-width="1.5" points="372.5,-489 435.5,-489 "/>
<text text-anchor="start" x="380.5" y="-477.8" font-family="FreeSans" font-size="8.00" fill="#1c2021">name = &#39;b&#39;</text>
</g>
<!-- N298&#45;&gt;N303 -->
<g id="edge10" class="edge"><title>N298&#45;&gt;N303</title>
<path fill="none" stroke="#2e3436" stroke-width="2" d="M404,-470.98C404,-452.057 404,-421.438 404,-395 404,-395 404,-395 404,-207 404,-187.698 364.116,-156.483 333.51,-135.371"/>
<polygon fill="#2e3436" stroke="#2e3436" points="327.138,-131.027 335.236,-132.463 330.518,-132.726 333.617,-134.838 333.335,-135.251 333.054,-135.665 329.955,-133.552 331.434,-138.04 327.138,-131.027 327.138,-131.027"/>
<text text-anchor="middle" x="426.5" y="-303.8" font-family="FreeSans" font-size="8.00" fill="#2e3436">to</text>
<text text-anchor="start" x="404" y="-293.8" font-family="FreeSans" font-size="8.00" fill="#2e3436">cost = 7.0</text>
</g>
<!-- N299 -->
<g id="node12" class="node"><title>N299</title>
<polygon fill="#ffffff" stroke="#ffffff" stroke-width="1.5" points="276,-377 314,-377 326,-389 326,-401 314,-413 276,-413 264,-401 264,-389 276,-377"/>
<path fill="#ffffff" stroke="#ffffff" stroke-width="1.5" d="M314,-377C320,-377 326,-383 326,-389"/>
<path fill="#ffffff" stroke="#ffffff" stroke-width="1.5" d="M326,-401C326,-407 320,-413 314,-413"/>
<path fill="#ffffff" stroke="#ffffff" stroke-width="1.5" d="M276,-413C270,-413 264,-407 264,-401"/>
<path fill="#ffffff" stroke="#ffffff" stroke-width="1.5" d="M264,-389C264,-383 270,-377 276,-377"/>
<polyline fill="none" stroke="#2e3436" stroke-width="1.5" points="276,-377 314,-377 "/>
<path fill="none" stroke="#2e3436" stroke-width="1.5" d="M314,-377C320,-377 326,-383 326,-389"/>
<polyline fill="none" stroke="#2e3436" stroke-width="1.5" points="326,-389 326,-401 "/>
<path fill="none" stroke="#2e3436" stroke-width="1.5" d="M326,-401C326,-407 320,-413 314,-413"/>
<polyline fill="none" stroke="#2e3436" stroke-width="1.5" points="314,-413 276,-413 "/>
<path fill="none" stroke="#2e3436" stroke-width="1.5" d="M276,-413C270,-413 264,-407 264,-401"/>
<polyline fill="none" stroke="#2e3436" stroke-width="1.5" points="264,-401 264,-389 "/>
<path fill="none" stroke="#2e3436" stroke-width="1.5" d="M264,-389C264,-383 270,-377 276,-377"/>
<text text-anchor="middle" x="295" y="-401.8" font-family="FreeSans" font-size="8.00" fill="#1c2021">Node[299]</text>
<polyline fill="none" stroke="#2e3436" stroke-width="1.5" points="264,-395 326,-395 "/>
<text text-anchor="start" x="272" y="-383.8" font-family="FreeSans" font-size="8.00" fill="#1c2021">name = &#39;c&#39;</text>
</g>
<!-- N298&#45;&gt;N299 -->
<g id="edge12" class="edge"><title>N298&#45;&gt;N299</title>
<path fill="none" stroke="#2e3436" stroke-width="2" d="M372.175,-474.997C360.393,-468.929 347.388,-461.114 337,-452 326.44,-442.736 316.939,-430.383 309.655,-419.547"/>
<polygon fill="#2e3436" stroke="#2e3436" points="305.417,-413.036 312.337,-417.48 307.882,-415.906 309.928,-419.049 309.509,-419.322 309.089,-419.595 307.044,-416.452 306.68,-421.163 305.417,-413.036 305.417,-413.036"/>
<text text-anchor="middle" x="359.5" y="-444.8" font-family="FreeSans" font-size="8.00" fill="#2e3436">to</text>
<text text-anchor="start" x="337" y="-434.8" font-family="FreeSans" font-size="8.00" fill="#2e3436">cost = 1.0</text>
</g>
<!-- N299&#45;&gt;N296 -->
<g id="edge18" class="edge"><title>N299&#45;&gt;N296</title>
<path fill="none" stroke="#2e3436" stroke-width="2" d="M263.806,-391.951C240.078,-387.993 208.318,-378.897 189,-358 181.175,-349.535 177.332,-337.482 175.482,-326.638"/>
<polygon fill="#2e3436" stroke="#2e3436" points="174.458,-319.024 178.803,-326.008 175.454,-322.674 175.953,-326.391 175.458,-326.457 174.962,-326.524 174.462,-322.807 172.113,-326.907 174.458,-319.024 174.458,-319.024"/>
<text text-anchor="middle" x="211.5" y="-350.8" font-family="FreeSans" font-size="8.00" fill="#2e3436">to</text>
<text text-anchor="start" x="189" y="-340.8" font-family="FreeSans" font-size="8.00" fill="#2e3436">cost = 1.0</text>
</g>
<!-- N299&#45;&gt;N303 -->
<g id="edge14" class="edge"><title>N299&#45;&gt;N303</title>
<path fill="none" stroke="#2e3436" stroke-width="2" d="M284.662,-376.667C270.016,-348.512 245.858,-292.764 254,-244 260.344,-206.005 276.368,-164.267 287.474,-138.348"/>
<polygon fill="#2e3436" stroke="#2e3436" points="290.605,-131.153 290.707,-139.377 289.567,-134.791 288.071,-138.23 287.612,-138.03 287.154,-137.831 288.65,-134.392 284.517,-136.683 290.605,-131.153 290.605,-131.153"/>
<text text-anchor="middle" x="276.5" y="-256.8" font-family="FreeSans" font-size="8.00" fill="#2e3436">to</text>
<text text-anchor="start" x="254" y="-246.8" font-family="FreeSans" font-size="8.00" fill="#2e3436">cost = 5.0</text>
</g>
<!-- N299&#45;&gt;N303 -->
<g id="edge16" class="edge"><title>N299&#45;&gt;N303</title>
<path fill="none" stroke="#2e3436" stroke-width="2" d="M296.281,-376.787C297.99,-351.495 300.924,-304.298 302,-264 302.721,-237.005 302.96,-210.614 301,-150 300.882,-146.335 300.717,-142.468 300.532,-138.67"/>
<polygon fill="#2e3436" stroke="#2e3436" points="300.133,-131.06 303.896,-138.373 300.829,-134.778 301.025,-138.523 300.526,-138.549 300.026,-138.576 299.83,-134.831 297.155,-138.726 300.133,-131.06 300.133,-131.06"/>
<text text-anchor="middle" x="325.5" y="-256.8" font-family="FreeSans" font-size="8.00" fill="#2e3436">to</text>
<text text-anchor="start" x="303" y="-246.8" font-family="FreeSans" font-size="8.00" fill="#2e3436">cost = 4.0</text>
</g>
<!-- N300 -->
<g id="node16" class="node"><title>N300</title>
<polygon fill="#ffffff" stroke="#ffffff" stroke-width="1.5" points="433,-659 487,-659 499,-671 499,-683 487,-695 433,-695 421,-683 421,-671 433,-659"/>
<path fill="#ffffff" stroke="#ffffff" stroke-width="1.5" d="M487,-659C493,-659 499,-665 499,-671"/>
<path fill="#ffffff" stroke="#ffffff" stroke-width="1.5" d="M499,-683C499,-689 493,-695 487,-695"/>
<path fill="#ffffff" stroke="#ffffff" stroke-width="1.5" d="M433,-695C427,-695 421,-689 421,-683"/>
<path fill="#ffffff" stroke="#ffffff" stroke-width="1.5" d="M421,-671C421,-665 427,-659 433,-659"/>
<polyline fill="none" stroke="#2e3436" stroke-width="1.5" points="433,-659 487,-659 "/>
<path fill="none" stroke="#2e3436" stroke-width="1.5" d="M487,-659C493,-659 499,-665 499,-671"/>
<polyline fill="none" stroke="#2e3436" stroke-width="1.5" points="499,-671 499,-683 "/>
<path fill="none" stroke="#2e3436" stroke-width="1.5" d="M499,-683C499,-689 493,-695 487,-695"/>
<polyline fill="none" stroke="#2e3436" stroke-width="1.5" points="487,-695 433,-695 "/>
<path fill="none" stroke="#2e3436" stroke-width="1.5" d="M433,-695C427,-695 421,-689 421,-683"/>
<polyline fill="none" stroke="#2e3436" stroke-width="1.5" points="421,-683 421,-671 "/>
<path fill="none" stroke="#2e3436" stroke-width="1.5" d="M421,-671C421,-665 427,-659 433,-659"/>
<text text-anchor="middle" x="460" y="-683.8" font-family="FreeSans" font-size="8.00" fill="#1c2021">Node[300]</text>
<polyline fill="none" stroke="#2e3436" stroke-width="1.5" points="421,-677 499,-677 "/>
<text text-anchor="start" x="429" y="-665.8" font-family="FreeSans" font-size="8.00" fill="#1c2021">name = &#39;start&#39;</text>
</g>
<!-- N301 -->
<g id="node18" class="node"><title>N301</title>
<polygon fill="#ffffff" stroke="#ffffff" stroke-width="1.5" points="440.5,-565 479.5,-565 491.5,-577 491.5,-589 479.5,-601 440.5,-601 428.5,-589 428.5,-577 440.5,-565"/>
<path fill="#ffffff" stroke="#ffffff" stroke-width="1.5" d="M479.5,-565C485.5,-565 491.5,-571 491.5,-577"/>
<path fill="#ffffff" stroke="#ffffff" stroke-width="1.5" d="M491.5,-589C491.5,-595 485.5,-601 479.5,-601"/>
<path fill="#ffffff" stroke="#ffffff" stroke-width="1.5" d="M440.5,-601C434.5,-601 428.5,-595 428.5,-589"/>
<path fill="#ffffff" stroke="#ffffff" stroke-width="1.5" d="M428.5,-577C428.5,-571 434.5,-565 440.5,-565"/>
<polyline fill="none" stroke="#2e3436" stroke-width="1.5" points="440.5,-565 479.5,-565 "/>
<path fill="none" stroke="#2e3436" stroke-width="1.5" d="M479.5,-565C485.5,-565 491.5,-571 491.5,-577"/>
<polyline fill="none" stroke="#2e3436" stroke-width="1.5" points="491.5,-577 491.5,-589 "/>
<path fill="none" stroke="#2e3436" stroke-width="1.5" d="M491.5,-589C491.5,-595 485.5,-601 479.5,-601"/>
<polyline fill="none" stroke="#2e3436" stroke-width="1.5" points="479.5,-601 440.5,-601 "/>
<path fill="none" stroke="#2e3436" stroke-width="1.5" d="M440.5,-601C434.5,-601 428.5,-595 428.5,-589"/>
<polyline fill="none" stroke="#2e3436" stroke-width="1.5" points="428.5,-589 428.5,-577 "/>
<path fill="none" stroke="#2e3436" stroke-width="1.5" d="M428.5,-577C428.5,-571 434.5,-565 440.5,-565"/>
<text text-anchor="middle" x="460" y="-589.8" font-family="FreeSans" font-size="8.00" fill="#1c2021">Node[301]</text>
<polyline fill="none" stroke="#2e3436" stroke-width="1.5" points="428.5,-583 491.5,-583 "/>
<text text-anchor="start" x="436.5" y="-571.8" font-family="FreeSans" font-size="8.00" fill="#1c2021">name = &#39;a&#39;</text>
</g>
<!-- N300&#45;&gt;N301 -->
<g id="edge20" class="edge"><title>N300&#45;&gt;N301</title>
<path fill="none" stroke="#2e3436" stroke-width="2" d="M460,-658.876C460,-644.701 460,-624.806 460,-608.944"/>
<polygon fill="#2e3436" stroke="#2e3436" points="460,-601.069 463.375,-608.568 460.5,-604.818 460.5,-608.568 460,-608.569 459.5,-608.569 459.5,-604.819 456.625,-608.569 460,-601.069 460,-601.069"/>
<text text-anchor="middle" x="482.5" y="-632.8" font-family="FreeSans" font-size="8.00" fill="#2e3436">to</text>
<text text-anchor="start" x="460" y="-622.8" font-family="FreeSans" font-size="8.00" fill="#2e3436">cost = 1.0</text>
</g>
<!-- N301&#45;&gt;N303 -->
<g id="edge22" class="edge"><title>N301&#45;&gt;N303</title>
<path fill="none" stroke="#2e3436" stroke-width="2" d="M470.441,-564.933C480.109,-546.474 493,-516.673 493,-489 493,-489 493,-489 493,-207 493,-172.794 394.09,-139.511 337.52,-123.273"/>
<polygon fill="#2e3436" stroke="#2e3436" points="330.169,-121.19 338.305,-119.987 333.914,-121.731 337.522,-122.754 337.385,-123.235 337.249,-123.716 333.641,-122.693 336.465,-126.482 330.169,-121.19 330.169,-121.19"/>
<text text-anchor="middle" x="515.5" y="-350.8" font-family="FreeSans" font-size="8.00" fill="#2e3436">to</text>
<text text-anchor="start" x="493" y="-340.8" font-family="FreeSans" font-size="8.00" fill="#2e3436">cost = 9.0</text>
</g>
<!-- N301&#45;&gt;N298 -->
<g id="edge24" class="edge"><title>N301&#45;&gt;N298</title>
<path fill="none" stroke="#2e3436" stroke-width="2" d="M440.877,-564.917C435.574,-559.223 430.142,-552.67 426,-546 419.921,-536.211 415.039,-524.466 411.434,-514.188"/>
<polygon fill="#2e3436" stroke="#2e3436" points="409.035,-507.011 414.614,-513.055 410.698,-510.41 411.887,-513.966 411.413,-514.125 410.939,-514.283 409.75,-510.727 408.212,-515.195 409.035,-507.011 409.035,-507.011"/>
<text text-anchor="middle" x="448.5" y="-538.8" font-family="FreeSans" font-size="8.00" fill="#2e3436">to</text>
<text text-anchor="start" x="426" y="-528.8" font-family="FreeSans" font-size="8.00" fill="#2e3436">cost = 1.0</text>
</g>
</g>
</svg>
