<?xml version="1.0" encoding="UTF-8" standalone="no"?>
<!DOCTYPE svg PUBLIC "-//W3C//DTD SVG 1.1//EN"
 "http://www.w3.org/Graphics/SVG/1.1/DTD/svg11.dtd">
<!-- Generated by graphviz version 2.26.3 (20100126.1600)
 -->
<!-- Title: g Pages: 1 -->
<svg width="254pt" height="130pt"
 viewBox="0.00 0.00 254.00 130.00" xmlns="http://www.w3.org/2000/svg" xmlns:xlink="http://www.w3.org/1999/xlink">
<g id="graph1" class="graph" transform="scale(1 1) rotate(0) translate(4 126)">
<title>g</title>
<polygon fill="white" stroke="white" points="-4,5 -4,-126 251,-126 251,5 -4,5"/>
<!-- N262 -->
<g id="node1" class="node"><title>N262</title>
<polygon fill="#ffffff" stroke="#ffffff" stroke-width="1.5" points="12,-1 64,-1 76,-13 76,-25 64,-37 12,-37 0,-25 0,-13 12,-1"/>
<path fill="#ffffff" stroke="#ffffff" stroke-width="1.5" d="M64,-1C70,-1 76,-7 76,-13"/>
<path fill="#ffffff" stroke="#ffffff" stroke-width="1.5" d="M76,-25C76,-31 70,-37 64,-37"/>
<path fill="#ffffff" stroke="#ffffff" stroke-width="1.5" d="M12,-37C6,-37 0,-31 0,-25"/>
<path fill="#ffffff" stroke="#ffffff" stroke-width="1.5" d="M0,-13C0,-7 6,-1 12,-1"/>
<polyline fill="none" stroke="#2e3436" stroke-width="1.5" points="12,-1 64,-1 "/>
<path fill="none" stroke="#2e3436" stroke-width="1.5" d="M64,-1C70,-1 76,-7 76,-13"/>
<polyline fill="none" stroke="#2e3436" stroke-width="1.5" points="76,-13 76,-25 "/>
<path fill="none" stroke="#2e3436" stroke-width="1.5" d="M76,-25C76,-31 70,-37 64,-37"/>
<polyline fill="none" stroke="#2e3436" stroke-width="1.5" points="64,-37 12,-37 "/>
<path fill="none" stroke="#2e3436" stroke-width="1.5" d="M12,-37C6,-37 0,-31 0,-25"/>
<polyline fill="none" stroke="#2e3436" stroke-width="1.5" points="0,-25 0,-13 "/>
<path fill="none" stroke="#2e3436" stroke-width="1.5" d="M0,-13C0,-7 6,-1 12,-1"/>
<text text-anchor="middle" x="38" y="-25.8" font-family="FreeSans" font-size="8.00" fill="#1c2021">Node[262]</text>
<polyline fill="none" stroke="#2e3436" stroke-width="1.5" points="0,-19 76,-19 "/>
<text text-anchor="start" x="8" y="-7.8" font-family="FreeSans" font-size="8.00" fill="#1c2021">name = &#39;John&#39;</text>
</g>
<!-- N263 -->
<g id="node2" class="node"><title>N263</title>
<polygon fill="#ffffff" stroke="#ffffff" stroke-width="1.5" points="20,-85 56,-85 68,-97 68,-109 56,-121 20,-121 8,-109 8,-97 20,-85"/>
<path fill="#ffffff" stroke="#ffffff" stroke-width="1.5" d="M56,-85C62,-85 68,-91 68,-97"/>
<path fill="#ffffff" stroke="#ffffff" stroke-width="1.5" d="M68,-109C68,-115 62,-121 56,-121"/>
<path fill="#ffffff" stroke="#ffffff" stroke-width="1.5" d="M20,-121C14,-121 8,-115 8,-109"/>
<path fill="#ffffff" stroke="#ffffff" stroke-width="1.5" d="M8,-97C8,-91 14,-85 20,-85"/>
<polyline fill="none" stroke="#2e3436" stroke-width="1.5" points="20,-85 56,-85 "/>
<path fill="none" stroke="#2e3436" stroke-width="1.5" d="M56,-85C62,-85 68,-91 68,-97"/>
<polyline fill="none" stroke="#2e3436" stroke-width="1.5" points="68,-97 68,-109 "/>
<path fill="none" stroke="#2e3436" stroke-width="1.5" d="M68,-109C68,-115 62,-121 56,-121"/>
<polyline fill="none" stroke="#2e3436" stroke-width="1.5" points="56,-121 20,-121 "/>
<path fill="none" stroke="#2e3436" stroke-width="1.5" d="M20,-121C14,-121 8,-115 8,-109"/>
<polyline fill="none" stroke="#2e3436" stroke-width="1.5" points="8,-109 8,-97 "/>
<path fill="none" stroke="#2e3436" stroke-width="1.5" d="M8,-97C8,-91 14,-85 20,-85"/>
<text text-anchor="middle" x="38" y="-109.8" font-family="FreeSans" font-size="8.00" fill="#1c2021">Node[263]</text>
<polyline fill="none" stroke="#2e3436" stroke-width="1.5" points="8,-103 68,-103 "/>
<text text-anchor="start" x="16" y="-91.8" font-family="FreeSans" font-size="8.00" fill="#1c2021">age = 1</text>
</g>
<!-- N263&#45;&gt;N262 -->
<g id="edge2" class="edge"><title>N263&#45;&gt;N262</title>
<path fill="none" stroke="#2e3436" stroke-width="2" d="M38,-84.7733C38,-73.1053 38,-57.7874 38,-44.8699"/>
<polygon fill="#2e3436" stroke="#2e3436" points="38,-37.1912 41.3751,-44.6911 38.5,-40.9412 38.5001,-44.6912 38.0001,-44.6912 37.5001,-44.6912 37.5,-40.9412 34.6251,-44.6912 38,-37.1912 38,-37.1912"/>
<text text-anchor="middle" x="52" y="-58.8" font-family="FreeSans" font-size="8.00" fill="#2e3436">knows</text>
</g>
<!-- N264 -->
<g id="node4" class="node"><title>N264</title>
<polygon fill="#ffffff" stroke="#ffffff" stroke-width="1.5" points="109,-85 145,-85 157,-97 157,-109 145,-121 109,-121 97,-109 97,-97 109,-85"/>
<path fill="#ffffff" stroke="#ffffff" stroke-width="1.5" d="M145,-85C151,-85 157,-91 157,-97"/>
<path fill="#ffffff" stroke="#ffffff" stroke-width="1.5" d="M157,-109C157,-115 151,-121 145,-121"/>
<path fill="#ffffff" stroke="#ffffff" stroke-width="1.5" d="M109,-121C103,-121 97,-115 97,-109"/>
<path fill="#ffffff" stroke="#ffffff" stroke-width="1.5" d="M97,-97C97,-91 103,-85 109,-85"/>
<polyline fill="none" stroke="#2e3436" stroke-width="1.5" points="109,-85 145,-85 "/>
<path fill="none" stroke="#2e3436" stroke-width="1.5" d="M145,-85C151,-85 157,-91 157,-97"/>
<polyline fill="none" stroke="#2e3436" stroke-width="1.5" points="157,-97 157,-109 "/>
<path fill="none" stroke="#2e3436" stroke-width="1.5" d="M157,-109C157,-115 151,-121 145,-121"/>
<polyline fill="none" stroke="#2e3436" stroke-width="1.5" points="145,-121 109,-121 "/>
<path fill="none" stroke="#2e3436" stroke-width="1.5" d="M109,-121C103,-121 97,-115 97,-109"/>
<polyline fill="none" stroke="#2e3436" stroke-width="1.5" points="97,-109 97,-97 "/>
<path fill="none" stroke="#2e3436" stroke-width="1.5" d="M97,-97C97,-91 103,-85 109,-85"/>
<text text-anchor="middle" x="127" y="-109.8" font-family="FreeSans" font-size="8.00" fill="#1c2021">Node[264]</text>
<polyline fill="none" stroke="#2e3436" stroke-width="1.5" points="97,-103 157,-103 "/>
<text text-anchor="start" x="105" y="-91.8" font-family="FreeSans" font-size="8.00" fill="#1c2021">age = 1</text>
</g>
<!-- N265 -->
<g id="node5" class="node"><title>N265</title>
<polygon fill="#ffffff" stroke="#ffffff" stroke-width="1.5" points="198,-85 234,-85 246,-97 246,-109 234,-121 198,-121 186,-109 186,-97 198,-85"/>
<path fill="#ffffff" stroke="#ffffff" stroke-width="1.5" d="M234,-85C240,-85 246,-91 246,-97"/>
<path fill="#ffffff" stroke="#ffffff" stroke-width="1.5" d="M246,-109C246,-115 240,-121 234,-121"/>
<path fill="#ffffff" stroke="#ffffff" stroke-width="1.5" d="M198,-121C192,-121 186,-115 186,-109"/>
<path fill="#ffffff" stroke="#ffffff" stroke-width="1.5" d="M186,-97C186,-91 192,-85 198,-85"/>
<polyline fill="none" stroke="#2e3436" stroke-width="1.5" points="198,-85 234,-85 "/>
<path fill="none" stroke="#2e3436" stroke-width="1.5" d="M234,-85C240,-85 246,-91 246,-97"/>
<polyline fill="none" stroke="#2e3436" stroke-width="1.5" points="246,-97 246,-109 "/>
<path fill="none" stroke="#2e3436" stroke-width="1.5" d="M246,-109C246,-115 240,-121 234,-121"/>
<polyline fill="none" stroke="#2e3436" stroke-width="1.5" points="234,-121 198,-121 "/>
<path fill="none" stroke="#2e3436" stroke-width="1.5" d="M198,-121C192,-121 186,-115 186,-109"/>
<polyline fill="none" stroke="#2e3436" stroke-width="1.5" points="186,-109 186,-97 "/>
<path fill="none" stroke="#2e3436" stroke-width="1.5" d="M186,-97C186,-91 192,-85 198,-85"/>
<text text-anchor="middle" x="216" y="-109.8" font-family="FreeSans" font-size="8.00" fill="#1c2021">Node[265]</text>
<polyline fill="none" stroke="#2e3436" stroke-width="1.5" points="186,-103 246,-103 "/>
<text text-anchor="start" x="194" y="-91.8" font-family="FreeSans" font-size="8.00" fill="#1c2021">age = 1</text>
</g>
</g>
</svg>
