<?xml version="1.0" encoding="UTF-8" standalone="no"?>
<!DOCTYPE svg PUBLIC "-//W3C//DTD SVG 1.1//EN"
 "http://www.w3.org/Graphics/SVG/1.1/DTD/svg11.dtd">
<!-- Generated by graphviz version 2.26.3 (20100126.1600)
 -->
<!-- Title: g Pages: 1 -->
<svg width="80pt" height="130pt"
 viewBox="0.00 0.00 80.00 130.00" xmlns="http://www.w3.org/2000/svg" xmlns:xlink="http://www.w3.org/1999/xlink">
<g id="graph1" class="graph" transform="scale(1 1) rotate(0) translate(4 126)">
<title>g</title>
<polygon fill="white" stroke="white" points="-4,5 -4,-126 77,-126 77,5 -4,5"/>
<!-- N29 -->
<g id="node1" class="node"><title>N29</title>
<polygon fill="#ffffff" stroke="#ffffff" stroke-width="1.5" points="12.5,-1 59.5,-1 71.5,-13 71.5,-25 59.5,-37 12.5,-37 0.5,-25 0.5,-13 12.5,-1"/>
<path fill="#ffffff" stroke="#ffffff" stroke-width="1.5" d="M59.5,-1C65.5,-1 71.5,-7 71.5,-13"/>
<path fill="#ffffff" stroke="#ffffff" stroke-width="1.5" d="M71.5,-25C71.5,-31 65.5,-37 59.5,-37"/>
<path fill="#ffffff" stroke="#ffffff" stroke-width="1.5" d="M12.5,-37C6.5,-37 0.5,-31 0.5,-25"/>
<path fill="#ffffff" stroke="#ffffff" stroke-width="1.5" d="M0.5,-13C0.5,-7 6.5,-1 12.5,-1"/>
<polyline fill="none" stroke="#2e3436" stroke-width="1.5" points="12.5,-1 59.5,-1 "/>
<path fill="none" stroke="#2e3436" stroke-width="1.5" d="M59.5,-1C65.5,-1 71.5,-7 71.5,-13"/>
<polyline fill="none" stroke="#2e3436" stroke-width="1.5" points="71.5,-13 71.5,-25 "/>
<path fill="none" stroke="#2e3436" stroke-width="1.5" d="M71.5,-25C71.5,-31 65.5,-37 59.5,-37"/>
<polyline fill="none" stroke="#2e3436" stroke-width="1.5" points="59.5,-37 12.5,-37 "/>
<path fill="none" stroke="#2e3436" stroke-width="1.5" d="M12.5,-37C6.5,-37 0.5,-31 0.5,-25"/>
<polyline fill="none" stroke="#2e3436" stroke-width="1.5" points="0.5,-25 0.5,-13 "/>
<path fill="none" stroke="#2e3436" stroke-width="1.5" d="M0.5,-13C0.5,-7 6.5,-1 12.5,-1"/>
<text text-anchor="middle" x="36" y="-25.8" font-family="FreeSans" font-size="8.00" fill="#1c2021">Node[29]</text>
<polyline fill="none" stroke="#2e3436" stroke-width="1.5" points="0.5,-19 71.5,-19 "/>
<text text-anchor="start" x="8.5" y="-7.8" font-family="FreeSans" font-size="8.00" fill="#1c2021">name = &#39;me&#39;</text>
</g>
<!-- N30 -->
<g id="node2" class="node"><title>N30</title>
<polygon fill="#ffffff" stroke="#ffffff" stroke-width="1.5" points="11.5,-85 60.5,-85 72.5,-97 72.5,-109 60.5,-121 11.5,-121 -0.5,-109 -0.5,-97 11.5,-85"/>
<path fill="#ffffff" stroke="#ffffff" stroke-width="1.5" d="M60.5,-85C66.5,-85 72.5,-91 72.5,-97"/>
<path fill="#ffffff" stroke="#ffffff" stroke-width="1.5" d="M72.5,-109C72.5,-115 66.5,-121 60.5,-121"/>
<path fill="#ffffff" stroke="#ffffff" stroke-width="1.5" d="M11.5,-121C5.5,-121 -0.5,-115 -0.5,-109"/>
<path fill="#ffffff" stroke="#ffffff" stroke-width="1.5" d="M-0.5,-97C-0.5,-91 5.5,-85 11.5,-85"/>
<polyline fill="none" stroke="#2e3436" stroke-width="1.5" points="11.5,-85 60.5,-85 "/>
<path fill="none" stroke="#2e3436" stroke-width="1.5" d="M60.5,-85C66.5,-85 72.5,-91 72.5,-97"/>
<polyline fill="none" stroke="#2e3436" stroke-width="1.5" points="72.5,-97 72.5,-109 "/>
<path fill="none" stroke="#2e3436" stroke-width="1.5" d="M72.5,-109C72.5,-115 66.5,-121 60.5,-121"/>
<polyline fill="none" stroke="#2e3436" stroke-width="1.5" points="60.5,-121 11.5,-121 "/>
<path fill="none" stroke="#2e3436" stroke-width="1.5" d="M11.5,-121C5.5,-121 -0.5,-115 -0.5,-109"/>
<polyline fill="none" stroke="#2e3436" stroke-width="1.5" points="-0.5,-109 -0.5,-97 "/>
<path fill="none" stroke="#2e3436" stroke-width="1.5" d="M-0.5,-97C-0.5,-91 5.5,-85 11.5,-85"/>
<text text-anchor="middle" x="36" y="-109.8" font-family="FreeSans" font-size="8.00" fill="#1c2021">Node[30]</text>
<polyline fill="none" stroke="#2e3436" stroke-width="1.5" points="-0.5,-103 72.5,-103 "/>
<text text-anchor="start" x="7.5" y="-91.8" font-family="FreeSans" font-size="8.00" fill="#1c2021">name = &#39;you&#39;</text>
</g>
<!-- N30&#45;&gt;N29 -->
<g id="edge2" class="edge"><title>N30&#45;&gt;N29</title>
<path fill="none" stroke="#2e3436" stroke-width="2" d="M36,-84.7733C36,-73.1053 36,-57.7874 36,-44.8699"/>
<polygon fill="#2e3436" stroke="#2e3436" points="36,-37.1912 39.3751,-44.6911 36.5,-40.9412 36.5001,-44.6912 36.0001,-44.6912 35.5001,-44.6912 35.5,-40.9412 32.6251,-44.6912 36,-37.1912 36,-37.1912"/>
<text text-anchor="middle" x="50" y="-58.8" font-family="FreeSans" font-size="8.00" fill="#2e3436">knows</text>
</g>
</g>
</svg>
