<?xml version="1.0" encoding="UTF-8" standalone="no"?>
<!DOCTYPE svg PUBLIC "-//W3C//DTD SVG 1.1//EN"
 "http://www.w3.org/Graphics/SVG/1.1/DTD/svg11.dtd">
<!-- Generated by graphviz version 2.26.3 (20100126.1600)
 -->
<!-- Title: g Pages: 1 -->
<svg width="95pt" height="140pt"
 viewBox="0.00 0.00 95.00 140.00" xmlns="http://www.w3.org/2000/svg" xmlns:xlink="http://www.w3.org/1999/xlink">
<g id="graph1" class="graph" transform="scale(1 1) rotate(0) translate(4 136)">
<title>g</title>
<polygon fill="white" stroke="white" points="-4,5 -4,-136 92,-136 92,5 -4,5"/>
<!-- N137 -->
<g id="node1" class="node"><title>N137</title>
<polygon fill="#ffffff" stroke="#ffffff" stroke-width="1.5" points="12,-95 48,-95 60,-107 60,-119 48,-131 12,-131 0,-119 0,-107 12,-95"/>
<path fill="#ffffff" stroke="#ffffff" stroke-width="1.5" d="M48,-95C54,-95 60,-101 60,-107"/>
<path fill="#ffffff" stroke="#ffffff" stroke-width="1.5" d="M60,-119C60,-125 54,-131 48,-131"/>
<path fill="#ffffff" stroke="#ffffff" stroke-width="1.5" d="M12,-131C6,-131 0,-125 0,-119"/>
<path fill="#ffffff" stroke="#ffffff" stroke-width="1.5" d="M0,-107C0,-101 6,-95 12,-95"/>
<polyline fill="none" stroke="#2e3436" stroke-width="1.5" points="12,-95 48,-95 "/>
<path fill="none" stroke="#2e3436" stroke-width="1.5" d="M48,-95C54,-95 60,-101 60,-107"/>
<polyline fill="none" stroke="#2e3436" stroke-width="1.5" points="60,-107 60,-119 "/>
<path fill="none" stroke="#2e3436" stroke-width="1.5" d="M60,-119C60,-125 54,-131 48,-131"/>
<polyline fill="none" stroke="#2e3436" stroke-width="1.5" points="48,-131 12,-131 "/>
<path fill="none" stroke="#2e3436" stroke-width="1.5" d="M12,-131C6,-131 0,-125 0,-119"/>
<polyline fill="none" stroke="#2e3436" stroke-width="1.5" points="0,-119 0,-107 "/>
<path fill="none" stroke="#2e3436" stroke-width="1.5" d="M0,-107C0,-101 6,-95 12,-95"/>
<text text-anchor="middle" x="30" y="-119.8" font-family="FreeSans" font-size="8.00" fill="#1c2021">Node[137]</text>
<polyline fill="none" stroke="#2e3436" stroke-width="1.5" points="0,-113 60,-113 "/>
<text text-anchor="middle" x="30" y="-101.8" font-family="FreeSans" font-size="8.00" fill="#1c2021"> </text>
</g>
<!-- N138 -->
<g id="node3" class="node"><title>N138</title>
<polygon fill="#ffffff" stroke="#ffffff" stroke-width="1.5" points="12,-1 48,-1 60,-13 60,-25 48,-37 12,-37 0,-25 0,-13 12,-1"/>
<path fill="#ffffff" stroke="#ffffff" stroke-width="1.5" d="M48,-1C54,-1 60,-7 60,-13"/>
<path fill="#ffffff" stroke="#ffffff" stroke-width="1.5" d="M60,-25C60,-31 54,-37 48,-37"/>
<path fill="#ffffff" stroke="#ffffff" stroke-width="1.5" d="M12,-37C6,-37 0,-31 0,-25"/>
<path fill="#ffffff" stroke="#ffffff" stroke-width="1.5" d="M0,-13C0,-7 6,-1 12,-1"/>
<polyline fill="none" stroke="#2e3436" stroke-width="1.5" points="12,-1 48,-1 "/>
<path fill="none" stroke="#2e3436" stroke-width="1.5" d="M48,-1C54,-1 60,-7 60,-13"/>
<polyline fill="none" stroke="#2e3436" stroke-width="1.5" points="60,-13 60,-25 "/>
<path fill="none" stroke="#2e3436" stroke-width="1.5" d="M60,-25C60,-31 54,-37 48,-37"/>
<polyline fill="none" stroke="#2e3436" stroke-width="1.5" points="48,-37 12,-37 "/>
<path fill="none" stroke="#2e3436" stroke-width="1.5" d="M12,-37C6,-37 0,-31 0,-25"/>
<polyline fill="none" stroke="#2e3436" stroke-width="1.5" points="0,-25 0,-13 "/>
<path fill="none" stroke="#2e3436" stroke-width="1.5" d="M0,-13C0,-7 6,-1 12,-1"/>
<text text-anchor="middle" x="30" y="-25.8" font-family="FreeSans" font-size="8.00" fill="#1c2021">Node[138]</text>
<polyline fill="none" stroke="#2e3436" stroke-width="1.5" points="0,-19 60,-19 "/>
<text text-anchor="middle" x="30" y="-7.8" font-family="FreeSans" font-size="8.00" fill="#1c2021"> </text>
</g>
<!-- N137&#45;&gt;N138 -->
<g id="edge2" class="edge"><title>N137&#45;&gt;N138</title>
<path fill="none" stroke="#2e3436" stroke-width="2" d="M30,-94.8759C30,-80.7014 30,-60.806 30,-44.944"/>
<polygon fill="#2e3436" stroke="#2e3436" points="30,-37.0685 33.3751,-44.5685 30.5,-40.8185 30.5001,-44.5685 30.0001,-44.5685 29.5001,-44.5685 29.5,-40.8185 26.6251,-44.5685 30,-37.0685 30,-37.0685"/>
<text text-anchor="middle" x="58.5" y="-68.8" font-family="FreeSans" font-size="8.00" fill="#2e3436">KNOWS</text>
<text text-anchor="start" x="30" y="-58.8" font-family="FreeSans" font-size="8.00" fill="#2e3436">jim = &#39;tobias&#39;</text>
</g>
</g>
</svg>
