<?xml version="1.0" encoding="UTF-8" standalone="no"?>
<!DOCTYPE svg PUBLIC "-//W3C//DTD SVG 1.1//EN"
 "http://www.w3.org/Graphics/SVG/1.1/DTD/svg11.dtd">
<!-- Generated by graphviz version 2.26.3 (20100126.1600)
 -->
<!-- Title: g Pages: 1 -->
<svg width="284pt" height="46pt"
 viewBox="0.00 0.00 284.00 46.00" xmlns="http://www.w3.org/2000/svg" xmlns:xlink="http://www.w3.org/1999/xlink">
<g id="graph1" class="graph" transform="scale(1 1) rotate(0) translate(4 42)">
<title>g</title>
<polygon fill="white" stroke="white" points="-4,5 -4,-42 281,-42 281,5 -4,5"/>
<!-- N0 -->
<g id="node1" class="node"><title>N0</title>
<polygon fill="#ffffff" stroke="#ffffff" stroke-width="1.5" points="12,-1 42,-1 54,-13 54,-25 42,-37 12,-37 0,-25 0,-13 12,-1"/>
<path fill="#ffffff" stroke="#ffffff" stroke-width="1.5" d="M42,-1C48,-1 54,-7 54,-13"/>
<path fill="#ffffff" stroke="#ffffff" stroke-width="1.5" d="M54,-25C54,-31 48,-37 42,-37"/>
<path fill="#ffffff" stroke="#ffffff" stroke-width="1.5" d="M12,-37C6,-37 0,-31 0,-25"/>
<path fill="#ffffff" stroke="#ffffff" stroke-width="1.5" d="M0,-13C0,-7 6,-1 12,-1"/>
<polyline fill="none" stroke="#2e3436" stroke-width="1.5" points="12,-1 42,-1 "/>
<path fill="none" stroke="#2e3436" stroke-width="1.5" d="M42,-1C48,-1 54,-7 54,-13"/>
<polyline fill="none" stroke="#2e3436" stroke-width="1.5" points="54,-13 54,-25 "/>
<path fill="none" stroke="#2e3436" stroke-width="1.5" d="M54,-25C54,-31 48,-37 42,-37"/>
<polyline fill="none" stroke="#2e3436" stroke-width="1.5" points="42,-37 12,-37 "/>
<path fill="none" stroke="#2e3436" stroke-width="1.5" d="M12,-37C6,-37 0,-31 0,-25"/>
<polyline fill="none" stroke="#2e3436" stroke-width="1.5" points="0,-25 0,-13 "/>
<path fill="none" stroke="#2e3436" stroke-width="1.5" d="M0,-13C0,-7 6,-1 12,-1"/>
<text text-anchor="middle" x="27" y="-25.8" font-family="FreeSans" font-size="8.00" fill="#1c2021">Node[0]</text>
<polyline fill="none" stroke="#2e3436" stroke-width="1.5" points="0,-19 54,-19 "/>
<text text-anchor="middle" x="27" y="-7.8" font-family="FreeSans" font-size="8.00" fill="#1c2021"> </text>
</g>
<!-- N4 -->
<g id="node2" class="node"><title>N4</title>
<polygon fill="#ffffff" stroke="#ffffff" stroke-width="1.5" points="95,-1 149,-1 161,-13 161,-25 149,-37 95,-37 83,-25 83,-13 95,-1"/>
<path fill="#ffffff" stroke="#ffffff" stroke-width="1.5" d="M149,-1C155,-1 161,-7 161,-13"/>
<path fill="#ffffff" stroke="#ffffff" stroke-width="1.5" d="M161,-25C161,-31 155,-37 149,-37"/>
<path fill="#ffffff" stroke="#ffffff" stroke-width="1.5" d="M95,-37C89,-37 83,-31 83,-25"/>
<path fill="#ffffff" stroke="#ffffff" stroke-width="1.5" d="M83,-13C83,-7 89,-1 95,-1"/>
<polyline fill="none" stroke="#2e3436" stroke-width="1.5" points="95,-1 149,-1 "/>
<path fill="none" stroke="#2e3436" stroke-width="1.5" d="M149,-1C155,-1 161,-7 161,-13"/>
<polyline fill="none" stroke="#2e3436" stroke-width="1.5" points="161,-13 161,-25 "/>
<path fill="none" stroke="#2e3436" stroke-width="1.5" d="M161,-25C161,-31 155,-37 149,-37"/>
<polyline fill="none" stroke="#2e3436" stroke-width="1.5" points="149,-37 95,-37 "/>
<path fill="none" stroke="#2e3436" stroke-width="1.5" d="M95,-37C89,-37 83,-31 83,-25"/>
<polyline fill="none" stroke="#2e3436" stroke-width="1.5" points="83,-25 83,-13 "/>
<path fill="none" stroke="#2e3436" stroke-width="1.5" d="M83,-13C83,-7 89,-1 95,-1"/>
<text text-anchor="middle" x="122" y="-25.8" font-family="FreeSans" font-size="8.00" fill="#1c2021">Node[4]</text>
<polyline fill="none" stroke="#2e3436" stroke-width="1.5" points="83,-19 161,-19 "/>
<text text-anchor="start" x="91" y="-7.8" font-family="FreeSans" font-size="8.00" fill="#1c2021">name = &#39;Juliet&#39;</text>
</g>
<!-- N5 -->
<g id="node3" class="node"><title>N5</title>
<polygon fill="#ffffff" stroke="#ffffff" stroke-width="1.5" points="201.5,-1 264.5,-1 276.5,-13 276.5,-25 264.5,-37 201.5,-37 189.5,-25 189.5,-13 201.5,-1"/>
<path fill="#ffffff" stroke="#ffffff" stroke-width="1.5" d="M264.5,-1C270.5,-1 276.5,-7 276.5,-13"/>
<path fill="#ffffff" stroke="#ffffff" stroke-width="1.5" d="M276.5,-25C276.5,-31 270.5,-37 264.5,-37"/>
<path fill="#ffffff" stroke="#ffffff" stroke-width="1.5" d="M201.5,-37C195.5,-37 189.5,-31 189.5,-25"/>
<path fill="#ffffff" stroke="#ffffff" stroke-width="1.5" d="M189.5,-13C189.5,-7 195.5,-1 201.5,-1"/>
<polyline fill="none" stroke="#2e3436" stroke-width="1.5" points="201.5,-1 264.5,-1 "/>
<path fill="none" stroke="#2e3436" stroke-width="1.5" d="M264.5,-1C270.5,-1 276.5,-7 276.5,-13"/>
<polyline fill="none" stroke="#2e3436" stroke-width="1.5" points="276.5,-13 276.5,-25 "/>
<path fill="none" stroke="#2e3436" stroke-width="1.5" d="M276.5,-25C276.5,-31 270.5,-37 264.5,-37"/>
<polyline fill="none" stroke="#2e3436" stroke-width="1.5" points="264.5,-37 201.5,-37 "/>
<path fill="none" stroke="#2e3436" stroke-width="1.5" d="M201.5,-37C195.5,-37 189.5,-31 189.5,-25"/>
<polyline fill="none" stroke="#2e3436" stroke-width="1.5" points="189.5,-25 189.5,-13 "/>
<path fill="none" stroke="#2e3436" stroke-width="1.5" d="M189.5,-13C189.5,-7 195.5,-1 201.5,-1"/>
<text text-anchor="middle" x="233" y="-25.8" font-family="FreeSans" font-size="8.00" fill="#1c2021">Node[5]</text>
<polyline fill="none" stroke="#2e3436" stroke-width="1.5" points="189.5,-19 276.5,-19 "/>
<text text-anchor="start" x="197.5" y="-7.8" font-family="FreeSans" font-size="8.00" fill="#1c2021">name = &#39;Romeo&#39;</text>
</g>
</g>
</svg>
