<?xml version="1.0" encoding="UTF-8" standalone="no"?>
<!DOCTYPE svg PUBLIC "-//W3C//DTD SVG 1.1//EN"
 "http://www.w3.org/Graphics/SVG/1.1/DTD/svg11.dtd">
<!-- Generated by graphviz version 2.26.3 (20100126.1600)
 -->
<!-- Title: g Pages: 1 -->
<svg width="86pt" height="130pt"
 viewBox="0.00 0.00 86.00 130.00" xmlns="http://www.w3.org/2000/svg" xmlns:xlink="http://www.w3.org/1999/xlink">
<g id="graph1" class="graph" transform="scale(1 1) rotate(0) translate(4 126)">
<title>g</title>
<polygon fill="white" stroke="white" points="-4,5 -4,-126 83,-126 83,5 -4,5"/>
<!-- N24 -->
<g id="node1" class="node"><title>N24</title>
<polygon fill="#ffffff" stroke="#ffffff" stroke-width="1.5" points="12,-1 66,-1 78,-13 78,-25 66,-37 12,-37 0,-25 0,-13 12,-1"/>
<path fill="#ffffff" stroke="#ffffff" stroke-width="1.5" d="M66,-1C72,-1 78,-7 78,-13"/>
<path fill="#ffffff" stroke="#ffffff" stroke-width="1.5" d="M78,-25C78,-31 72,-37 66,-37"/>
<path fill="#ffffff" stroke="#ffffff" stroke-width="1.5" d="M12,-37C6,-37 0,-31 0,-25"/>
<path fill="#ffffff" stroke="#ffffff" stroke-width="1.5" d="M0,-13C0,-7 6,-1 12,-1"/>
<polyline fill="none" stroke="#2e3436" stroke-width="1.5" points="12,-1 66,-1 "/>
<path fill="none" stroke="#2e3436" stroke-width="1.5" d="M66,-1C72,-1 78,-7 78,-13"/>
<polyline fill="none" stroke="#2e3436" stroke-width="1.5" points="78,-13 78,-25 "/>
<path fill="none" stroke="#2e3436" stroke-width="1.5" d="M78,-25C78,-31 72,-37 66,-37"/>
<polyline fill="none" stroke="#2e3436" stroke-width="1.5" points="66,-37 12,-37 "/>
<path fill="none" stroke="#2e3436" stroke-width="1.5" d="M12,-37C6,-37 0,-31 0,-25"/>
<polyline fill="none" stroke="#2e3436" stroke-width="1.5" points="0,-25 0,-13 "/>
<path fill="none" stroke="#2e3436" stroke-width="1.5" d="M0,-13C0,-7 6,-1 12,-1"/>
<text text-anchor="middle" x="39" y="-25.8" font-family="FreeSans" font-size="8.00" fill="#1c2021">Node[24]</text>
<polyline fill="none" stroke="#2e3436" stroke-width="1.5" points="0,-19 78,-19 "/>
<text text-anchor="start" x="8" y="-7.8" font-family="FreeSans" font-size="8.00" fill="#1c2021">name = &#39;Sara&#39;</text>
</g>
<!-- N25 -->
<g id="node2" class="node"><title>N25</title>
<polygon fill="#ffffff" stroke="#ffffff" stroke-width="1.5" points="15.5,-85 62.5,-85 74.5,-97 74.5,-109 62.5,-121 15.5,-121 3.5,-109 3.5,-97 15.5,-85"/>
<path fill="#ffffff" stroke="#ffffff" stroke-width="1.5" d="M62.5,-85C68.5,-85 74.5,-91 74.5,-97"/>
<path fill="#ffffff" stroke="#ffffff" stroke-width="1.5" d="M74.5,-109C74.5,-115 68.5,-121 62.5,-121"/>
<path fill="#ffffff" stroke="#ffffff" stroke-width="1.5" d="M15.5,-121C9.5,-121 3.5,-115 3.5,-109"/>
<path fill="#ffffff" stroke="#ffffff" stroke-width="1.5" d="M3.5,-97C3.5,-91 9.5,-85 15.5,-85"/>
<polyline fill="none" stroke="#2e3436" stroke-width="1.5" points="15.5,-85 62.5,-85 "/>
<path fill="none" stroke="#2e3436" stroke-width="1.5" d="M62.5,-85C68.5,-85 74.5,-91 74.5,-97"/>
<polyline fill="none" stroke="#2e3436" stroke-width="1.5" points="74.5,-97 74.5,-109 "/>
<path fill="none" stroke="#2e3436" stroke-width="1.5" d="M74.5,-109C74.5,-115 68.5,-121 62.5,-121"/>
<polyline fill="none" stroke="#2e3436" stroke-width="1.5" points="62.5,-121 15.5,-121 "/>
<path fill="none" stroke="#2e3436" stroke-width="1.5" d="M15.5,-121C9.5,-121 3.5,-115 3.5,-109"/>
<polyline fill="none" stroke="#2e3436" stroke-width="1.5" points="3.5,-109 3.5,-97 "/>
<path fill="none" stroke="#2e3436" stroke-width="1.5" d="M3.5,-97C3.5,-91 9.5,-85 15.5,-85"/>
<text text-anchor="middle" x="39" y="-109.8" font-family="FreeSans" font-size="8.00" fill="#1c2021">Node[25]</text>
<polyline fill="none" stroke="#2e3436" stroke-width="1.5" points="3.5,-103 74.5,-103 "/>
<text text-anchor="start" x="11.5" y="-91.8" font-family="FreeSans" font-size="8.00" fill="#1c2021">name = &#39;Joe&#39;</text>
</g>
<!-- N25&#45;&gt;N24 -->
<g id="edge2" class="edge"><title>N25&#45;&gt;N24</title>
<path fill="none" stroke="#2e3436" stroke-width="2" d="M18.1582,-84.8719C13.2257,-79.3621 8.63643,-72.9169 6,-66 3.00938,-58.1539 5.55798,-50.3835 10.3249,-43.4882"/>
<polygon fill="#2e3436" stroke="#2e3436" points="15.231,-37.4247 13.1371,-45.3781 13.2609,-40.6544 10.9021,-43.5697 10.5134,-43.2552 10.1247,-42.9406 12.4835,-40.0254 7.88967,-41.1322 15.231,-37.4247 15.231,-37.4247"/>
<text text-anchor="middle" x="20" y="-58.8" font-family="FreeSans" font-size="8.00" fill="#2e3436">LOVES</text>
</g>
<!-- N25&#45;&gt;N24 -->
<g id="edge4" class="edge"><title>N25&#45;&gt;N24</title>
<path fill="none" stroke="#4e9a06" stroke-width="2" d="M39,-84.7733C39,-73.1053 39,-57.7874 39,-44.8699"/>
<polygon fill="#4e9a06" stroke="#4e9a06" points="39,-37.1912 42.3751,-44.6911 39.5,-40.9412 39.5001,-44.6912 39.0001,-44.6912 38.5001,-44.6912 38.5,-40.9412 35.6251,-44.6912 39,-37.1912 39,-37.1912"/>
<text text-anchor="middle" x="53" y="-58.8" font-family="FreeSans" font-size="8.00" fill="#4e9a06">knows</text>
</g>
</g>
</svg>
