<?xml version="1.0" encoding="UTF-8" standalone="no"?>
<!DOCTYPE svg PUBLIC "-//W3C//DTD SVG 1.1//EN"
 "http://www.w3.org/Graphics/SVG/1.1/DTD/svg11.dtd">
<!-- Generated by graphviz version 2.26.3 (20100126.1600)
 -->
<!-- Title: g Pages: 1 -->
<svg width="112pt" height="150pt"
 viewBox="0.00 0.00 112.00 150.00" xmlns="http://www.w3.org/2000/svg" xmlns:xlink="http://www.w3.org/1999/xlink">
<g id="graph1" class="graph" transform="scale(1 1) rotate(0) translate(4 146)">
<title>g</title>
<polygon fill="white" stroke="white" points="-4,5 -4,-146 109,-146 109,5 -4,5"/>
<!-- N26 -->
<g id="node1" class="node"><title>N26</title>
<polygon fill="#ffffff" stroke="#ffffff" stroke-width="1.5" points="16,-1 70,-1 82,-13 82,-25 70,-37 16,-37 4,-25 4,-13 16,-1"/>
<path fill="#ffffff" stroke="#ffffff" stroke-width="1.5" d="M70,-1C76,-1 82,-7 82,-13"/>
<path fill="#ffffff" stroke="#ffffff" stroke-width="1.5" d="M82,-25C82,-31 76,-37 70,-37"/>
<path fill="#ffffff" stroke="#ffffff" stroke-width="1.5" d="M16,-37C10,-37 4,-31 4,-25"/>
<path fill="#ffffff" stroke="#ffffff" stroke-width="1.5" d="M4,-13C4,-7 10,-1 16,-1"/>
<polyline fill="none" stroke="#2e3436" stroke-width="1.5" points="16,-1 70,-1 "/>
<path fill="none" stroke="#2e3436" stroke-width="1.5" d="M70,-1C76,-1 82,-7 82,-13"/>
<polyline fill="none" stroke="#2e3436" stroke-width="1.5" points="82,-13 82,-25 "/>
<path fill="none" stroke="#2e3436" stroke-width="1.5" d="M82,-25C82,-31 76,-37 70,-37"/>
<polyline fill="none" stroke="#2e3436" stroke-width="1.5" points="70,-37 16,-37 "/>
<path fill="none" stroke="#2e3436" stroke-width="1.5" d="M16,-37C10,-37 4,-31 4,-25"/>
<polyline fill="none" stroke="#2e3436" stroke-width="1.5" points="4,-25 4,-13 "/>
<path fill="none" stroke="#2e3436" stroke-width="1.5" d="M4,-13C4,-7 10,-1 16,-1"/>
<text text-anchor="middle" x="43" y="-25.8" font-family="FreeSans" font-size="8.00" fill="#1c2021">Node[26]</text>
<polyline fill="none" stroke="#2e3436" stroke-width="1.5" points="4,-19 82,-19 "/>
<text text-anchor="start" x="12" y="-7.8" font-family="FreeSans" font-size="8.00" fill="#1c2021">name = &#39;Juliet&#39;</text>
</g>
<!-- N27 -->
<g id="node2" class="node"><title>N27</title>
<polygon fill="#ffffff" stroke="#ffffff" stroke-width="1.5" points="11.5,-105 74.5,-105 86.5,-117 86.5,-129 74.5,-141 11.5,-141 -0.5,-129 -0.5,-117 11.5,-105"/>
<path fill="#ffffff" stroke="#ffffff" stroke-width="1.5" d="M74.5,-105C80.5,-105 86.5,-111 86.5,-117"/>
<path fill="#ffffff" stroke="#ffffff" stroke-width="1.5" d="M86.5,-129C86.5,-135 80.5,-141 74.5,-141"/>
<path fill="#ffffff" stroke="#ffffff" stroke-width="1.5" d="M11.5,-141C5.5,-141 -0.5,-135 -0.5,-129"/>
<path fill="#ffffff" stroke="#ffffff" stroke-width="1.5" d="M-0.5,-117C-0.5,-111 5.5,-105 11.5,-105"/>
<polyline fill="none" stroke="#2e3436" stroke-width="1.5" points="11.5,-105 74.5,-105 "/>
<path fill="none" stroke="#2e3436" stroke-width="1.5" d="M74.5,-105C80.5,-105 86.5,-111 86.5,-117"/>
<polyline fill="none" stroke="#2e3436" stroke-width="1.5" points="86.5,-117 86.5,-129 "/>
<path fill="none" stroke="#2e3436" stroke-width="1.5" d="M86.5,-129C86.5,-135 80.5,-141 74.5,-141"/>
<polyline fill="none" stroke="#2e3436" stroke-width="1.5" points="74.5,-141 11.5,-141 "/>
<path fill="none" stroke="#2e3436" stroke-width="1.5" d="M11.5,-141C5.5,-141 -0.5,-135 -0.5,-129"/>
<polyline fill="none" stroke="#2e3436" stroke-width="1.5" points="-0.5,-129 -0.5,-117 "/>
<path fill="none" stroke="#2e3436" stroke-width="1.5" d="M-0.5,-117C-0.5,-111 5.5,-105 11.5,-105"/>
<text text-anchor="middle" x="43" y="-129.8" font-family="FreeSans" font-size="8.00" fill="#1c2021">Node[27]</text>
<polyline fill="none" stroke="#2e3436" stroke-width="1.5" points="-0.5,-123 86.5,-123 "/>
<text text-anchor="start" x="7.5" y="-111.8" font-family="FreeSans" font-size="8.00" fill="#1c2021">name = &#39;Romeo&#39;</text>
</g>
<!-- N27&#45;&gt;N26 -->
<g id="edge2" class="edge"><title>N27&#45;&gt;N26</title>
<path fill="none" stroke="#2e3436" stroke-width="2" d="M43,-104.885C43,-88.284 43,-63.5228 43,-44.8467"/>
<polygon fill="#2e3436" stroke="#2e3436" points="43,-37.2568 46.3751,-44.7567 43.5,-41.0068 43.5001,-44.7568 43.0001,-44.7568 42.5001,-44.7568 42.5,-41.0068 39.6251,-44.7568 43,-37.2568 43,-37.2568"/>
<text text-anchor="middle" x="73.5" y="-78.8" font-family="FreeSans" font-size="8.00" fill="#2e3436">LOVES</text>
<text text-anchor="start" x="43" y="-68.8" font-family="FreeSans" font-size="8.00" fill="#2e3436">cost = &#39;high&#39;</text>
<text text-anchor="start" x="43" y="-58.8" font-family="FreeSans" font-size="8.00" fill="#2e3436">since = &#39;1day&#39;</text>
</g>
</g>
</svg>
