<?xml version="1.0" encoding="UTF-8" standalone="no"?>
<!DOCTYPE svg PUBLIC "-//W3C//DTD SVG 1.1//EN"
 "http://www.w3.org/Graphics/SVG/1.1/DTD/svg11.dtd">
<!-- Generated by graphviz version 2.26.3 (20100126.1600)
 -->
<!-- Title: g Pages: 1 -->
<svg width="183pt" height="130pt"
 viewBox="0.00 0.00 183.00 130.00" xmlns="http://www.w3.org/2000/svg" xmlns:xlink="http://www.w3.org/1999/xlink">
<g id="graph1" class="graph" transform="scale(1 1) rotate(0) translate(4 126)">
<title>g</title>
<polygon fill="white" stroke="white" points="-4,5 -4,-126 180,-126 180,5 -4,5"/>
<!-- N18 -->
<g id="node1" class="node"><title>N18</title>
<polygon fill="#ffffff" stroke="#ffffff" stroke-width="1.5" points="11.5,-1 60.5,-1 72.5,-13 72.5,-25 60.5,-37 11.5,-37 -0.5,-25 -0.5,-13 11.5,-1"/>
<path fill="#ffffff" stroke="#ffffff" stroke-width="1.5" d="M60.5,-1C66.5,-1 72.5,-7 72.5,-13"/>
<path fill="#ffffff" stroke="#ffffff" stroke-width="1.5" d="M72.5,-25C72.5,-31 66.5,-37 60.5,-37"/>
<path fill="#ffffff" stroke="#ffffff" stroke-width="1.5" d="M11.5,-37C5.5,-37 -0.5,-31 -0.5,-25"/>
<path fill="#ffffff" stroke="#ffffff" stroke-width="1.5" d="M-0.5,-13C-0.5,-7 5.5,-1 11.5,-1"/>
<polyline fill="none" stroke="#2e3436" stroke-width="1.5" points="11.5,-1 60.5,-1 "/>
<path fill="none" stroke="#2e3436" stroke-width="1.5" d="M60.5,-1C66.5,-1 72.5,-7 72.5,-13"/>
<polyline fill="none" stroke="#2e3436" stroke-width="1.5" points="72.5,-13 72.5,-25 "/>
<path fill="none" stroke="#2e3436" stroke-width="1.5" d="M72.5,-25C72.5,-31 66.5,-37 60.5,-37"/>
<polyline fill="none" stroke="#2e3436" stroke-width="1.5" points="60.5,-37 11.5,-37 "/>
<path fill="none" stroke="#2e3436" stroke-width="1.5" d="M11.5,-37C5.5,-37 -0.5,-31 -0.5,-25"/>
<polyline fill="none" stroke="#2e3436" stroke-width="1.5" points="-0.5,-25 -0.5,-13 "/>
<path fill="none" stroke="#2e3436" stroke-width="1.5" d="M-0.5,-13C-0.5,-7 5.5,-1 11.5,-1"/>
<text text-anchor="middle" x="36" y="-25.8" font-family="FreeSans" font-size="8.00" fill="#1c2021">Node[18]</text>
<polyline fill="none" stroke="#2e3436" stroke-width="1.5" points="-0.5,-19 72.5,-19 "/>
<text text-anchor="start" x="7.5" y="-7.8" font-family="FreeSans" font-size="8.00" fill="#1c2021">name = &#39;you&#39;</text>
</g>
<!-- N19 -->
<g id="node2" class="node"><title>N19</title>
<polygon fill="#ffffff" stroke="#ffffff" stroke-width="1.5" points="113,-1 163,-1 175,-13 175,-25 163,-37 113,-37 101,-25 101,-13 113,-1"/>
<path fill="#ffffff" stroke="#ffffff" stroke-width="1.5" d="M163,-1C169,-1 175,-7 175,-13"/>
<path fill="#ffffff" stroke="#ffffff" stroke-width="1.5" d="M175,-25C175,-31 169,-37 163,-37"/>
<path fill="#ffffff" stroke="#ffffff" stroke-width="1.5" d="M113,-37C107,-37 101,-31 101,-25"/>
<path fill="#ffffff" stroke="#ffffff" stroke-width="1.5" d="M101,-13C101,-7 107,-1 113,-1"/>
<polyline fill="none" stroke="#2e3436" stroke-width="1.5" points="113,-1 163,-1 "/>
<path fill="none" stroke="#2e3436" stroke-width="1.5" d="M163,-1C169,-1 175,-7 175,-13"/>
<polyline fill="none" stroke="#2e3436" stroke-width="1.5" points="175,-13 175,-25 "/>
<path fill="none" stroke="#2e3436" stroke-width="1.5" d="M175,-25C175,-31 169,-37 163,-37"/>
<polyline fill="none" stroke="#2e3436" stroke-width="1.5" points="163,-37 113,-37 "/>
<path fill="none" stroke="#2e3436" stroke-width="1.5" d="M113,-37C107,-37 101,-31 101,-25"/>
<polyline fill="none" stroke="#2e3436" stroke-width="1.5" points="101,-25 101,-13 "/>
<path fill="none" stroke="#2e3436" stroke-width="1.5" d="M101,-13C101,-7 107,-1 113,-1"/>
<text text-anchor="middle" x="138" y="-25.8" font-family="FreeSans" font-size="8.00" fill="#1c2021">Node[19]</text>
<polyline fill="none" stroke="#2e3436" stroke-width="1.5" points="101,-19 175,-19 "/>
<text text-anchor="start" x="109" y="-7.8" font-family="FreeSans" font-size="8.00" fill="#1c2021">name = &#39;him&#39;</text>
</g>
<!-- N20 -->
<g id="node3" class="node"><title>N20</title>
<polygon fill="#ffffff" stroke="#ffffff" stroke-width="1.5" points="69,-85 105,-85 117,-97 117,-109 105,-121 69,-121 57,-109 57,-97 69,-85"/>
<path fill="#ffffff" stroke="#ffffff" stroke-width="1.5" d="M105,-85C111,-85 117,-91 117,-97"/>
<path fill="#ffffff" stroke="#ffffff" stroke-width="1.5" d="M117,-109C117,-115 111,-121 105,-121"/>
<path fill="#ffffff" stroke="#ffffff" stroke-width="1.5" d="M69,-121C63,-121 57,-115 57,-109"/>
<path fill="#ffffff" stroke="#ffffff" stroke-width="1.5" d="M57,-97C57,-91 63,-85 69,-85"/>
<polyline fill="none" stroke="#2e3436" stroke-width="1.5" points="69,-85 105,-85 "/>
<path fill="none" stroke="#2e3436" stroke-width="1.5" d="M105,-85C111,-85 117,-91 117,-97"/>
<polyline fill="none" stroke="#2e3436" stroke-width="1.5" points="117,-97 117,-109 "/>
<path fill="none" stroke="#2e3436" stroke-width="1.5" d="M117,-109C117,-115 111,-121 105,-121"/>
<polyline fill="none" stroke="#2e3436" stroke-width="1.5" points="105,-121 69,-121 "/>
<path fill="none" stroke="#2e3436" stroke-width="1.5" d="M69,-121C63,-121 57,-115 57,-109"/>
<polyline fill="none" stroke="#2e3436" stroke-width="1.5" points="57,-109 57,-97 "/>
<path fill="none" stroke="#2e3436" stroke-width="1.5" d="M57,-97C57,-91 63,-85 69,-85"/>
<text text-anchor="middle" x="87" y="-109.8" font-family="FreeSans" font-size="8.00" fill="#1c2021">Node[20]</text>
<polyline fill="none" stroke="#2e3436" stroke-width="1.5" points="57,-103 117,-103 "/>
<text text-anchor="start" x="65" y="-91.8" font-family="FreeSans" font-size="8.00" fill="#1c2021">name = &#39;I&#39;</text>
</g>
<!-- N20&#45;&gt;N18 -->
<g id="edge2" class="edge"><title>N20&#45;&gt;N18</title>
<path fill="none" stroke="#2e3436" stroke-width="2" d="M75.9338,-84.7733C68.6491,-72.7751 59.0213,-56.9174 51.0444,-43.779"/>
<polygon fill="#2e3436" stroke="#2e3436" points="47.0446,-37.1912 53.8219,-41.8505 49.4182,-40.1371 51.3644,-43.3426 50.937,-43.6021 50.5096,-43.8616 48.5634,-40.6561 48.0521,-45.3537 47.0446,-37.1912 47.0446,-37.1912"/>
<text text-anchor="middle" x="75" y="-58.8" font-family="FreeSans" font-size="8.00" fill="#2e3436">know</text>
</g>
<!-- N20&#45;&gt;N19 -->
<g id="edge4" class="edge"><title>N20&#45;&gt;N19</title>
<path fill="none" stroke="#2e3436" stroke-width="2" d="M98.0662,-84.7733C105.351,-72.7751 114.979,-56.9174 122.956,-43.779"/>
<polygon fill="#2e3436" stroke="#2e3436" points="126.955,-37.1912 125.948,-45.3537 125.437,-40.6561 123.49,-43.8616 123.063,-43.6021 122.636,-43.3426 124.582,-40.1371 120.178,-41.8505 126.955,-37.1912 126.955,-37.1912"/>
<text text-anchor="middle" x="125" y="-58.8" font-family="FreeSans" font-size="8.00" fill="#2e3436">know</text>
</g>
</g>
</svg>
