<?xml version="1.0" encoding="UTF-8" standalone="no"?>
<!DOCTYPE svg PUBLIC "-//W3C//DTD SVG 1.1//EN"
 "http://www.w3.org/Graphics/SVG/1.1/DTD/svg11.dtd">
<!-- Generated by graphviz version 2.26.3 (20100126.1600)
 -->
<!-- Title: g Pages: 1 -->
<svg width="269pt" height="234pt"
 viewBox="0.00 0.00 269.00 234.00" xmlns="http://www.w3.org/2000/svg" xmlns:xlink="http://www.w3.org/1999/xlink">
<g id="graph1" class="graph" transform="scale(1 1) rotate(0) translate(4 230)">
<title>g</title>
<polygon fill="white" stroke="white" points="-4,5 -4,-230 266,-230 266,5 -4,5"/>
<!-- N72 -->
<g id="node1" class="node"><title>N72</title>
<polygon fill="#ffffff" stroke="#ffffff" stroke-width="1.5" points="112.5,-189 175.5,-189 187.5,-201 187.5,-213 175.5,-225 112.5,-225 100.5,-213 100.5,-201 112.5,-189"/>
<path fill="#ffffff" stroke="#ffffff" stroke-width="1.5" d="M175.5,-189C181.5,-189 187.5,-195 187.5,-201"/>
<path fill="#ffffff" stroke="#ffffff" stroke-width="1.5" d="M187.5,-213C187.5,-219 181.5,-225 175.5,-225"/>
<path fill="#ffffff" stroke="#ffffff" stroke-width="1.5" d="M112.5,-225C106.5,-225 100.5,-219 100.5,-213"/>
<path fill="#ffffff" stroke="#ffffff" stroke-width="1.5" d="M100.5,-201C100.5,-195 106.5,-189 112.5,-189"/>
<polyline fill="none" stroke="#2e3436" stroke-width="1.5" points="112.5,-189 175.5,-189 "/>
<path fill="none" stroke="#2e3436" stroke-width="1.5" d="M175.5,-189C181.5,-189 187.5,-195 187.5,-201"/>
<polyline fill="none" stroke="#2e3436" stroke-width="1.5" points="187.5,-201 187.5,-213 "/>
<path fill="none" stroke="#2e3436" stroke-width="1.5" d="M187.5,-213C187.5,-219 181.5,-225 175.5,-225"/>
<polyline fill="none" stroke="#2e3436" stroke-width="1.5" points="175.5,-225 112.5,-225 "/>
<path fill="none" stroke="#2e3436" stroke-width="1.5" d="M112.5,-225C106.5,-225 100.5,-219 100.5,-213"/>
<polyline fill="none" stroke="#2e3436" stroke-width="1.5" points="100.5,-213 100.5,-201 "/>
<path fill="none" stroke="#2e3436" stroke-width="1.5" d="M100.5,-201C100.5,-195 106.5,-189 112.5,-189"/>
<text text-anchor="middle" x="144" y="-213.8" font-family="FreeSans" font-size="8.00" fill="#1c2021">Node[72]</text>
<polyline fill="none" stroke="#2e3436" stroke-width="1.5" points="100.5,-207 187.5,-207 "/>
<text text-anchor="start" x="108.5" y="-195.8" font-family="FreeSans" font-size="8.00" fill="#1c2021">name = &#39;source&#39;</text>
</g>
<!-- N74 -->
<g id="node3" class="node"><title>N74</title>
<polygon fill="#ffffff" stroke="#ffffff" stroke-width="1.5" points="12,-95 74,-95 86,-107 86,-119 74,-131 12,-131 0,-119 0,-107 12,-95"/>
<path fill="#ffffff" stroke="#ffffff" stroke-width="1.5" d="M74,-95C80,-95 86,-101 86,-107"/>
<path fill="#ffffff" stroke="#ffffff" stroke-width="1.5" d="M86,-119C86,-125 80,-131 74,-131"/>
<path fill="#ffffff" stroke="#ffffff" stroke-width="1.5" d="M12,-131C6,-131 0,-125 0,-119"/>
<path fill="#ffffff" stroke="#ffffff" stroke-width="1.5" d="M0,-107C0,-101 6,-95 12,-95"/>
<polyline fill="none" stroke="#2e3436" stroke-width="1.5" points="12,-95 74,-95 "/>
<path fill="none" stroke="#2e3436" stroke-width="1.5" d="M74,-95C80,-95 86,-101 86,-107"/>
<polyline fill="none" stroke="#2e3436" stroke-width="1.5" points="86,-107 86,-119 "/>
<path fill="none" stroke="#2e3436" stroke-width="1.5" d="M86,-119C86,-125 80,-131 74,-131"/>
<polyline fill="none" stroke="#2e3436" stroke-width="1.5" points="74,-131 12,-131 "/>
<path fill="none" stroke="#2e3436" stroke-width="1.5" d="M12,-131C6,-131 0,-125 0,-119"/>
<polyline fill="none" stroke="#2e3436" stroke-width="1.5" points="0,-119 0,-107 "/>
<path fill="none" stroke="#2e3436" stroke-width="1.5" d="M0,-107C0,-101 6,-95 12,-95"/>
<text text-anchor="middle" x="43" y="-119.8" font-family="FreeSans" font-size="8.00" fill="#1c2021">Node[74]</text>
<polyline fill="none" stroke="#2e3436" stroke-width="1.5" points="0,-113 86,-113 "/>
<text text-anchor="start" x="8" y="-101.8" font-family="FreeSans" font-size="8.00" fill="#1c2021">name = &#39;middle&#39;</text>
</g>
<!-- N72&#45;&gt;N74 -->
<g id="edge2" class="edge"><title>N72&#45;&gt;N74</title>
<path fill="none" stroke="#2e3436" stroke-width="2" d="M100.207,-191.578C89.0111,-186.079 77.6942,-178.962 69,-170 60.4468,-161.183 54.3801,-149.052 50.2706,-138.247"/>
<polygon fill="#2e3436" stroke="#2e3436" points="47.7318,-131.035 53.4058,-136.989 49.4487,-134.406 50.694,-137.944 50.2224,-138.11 49.7507,-138.276 48.5054,-134.739 47.0389,-139.231 47.7318,-131.035 47.7318,-131.035"/>
<text text-anchor="middle" x="95.5" y="-162.8" font-family="FreeSans" font-size="8.00" fill="#2e3436">CONNECTED</text>
<text text-anchor="start" x="69" y="-152.8" font-family="FreeSans" font-size="8.00" fill="#2e3436">capacity = 0</text>
</g>
<!-- N73 -->
<g id="node5" class="node"><title>N73</title>
<polygon fill="#ffffff" stroke="#ffffff" stroke-width="1.5" points="118.5,-1 169.5,-1 181.5,-13 181.5,-25 169.5,-37 118.5,-37 106.5,-25 106.5,-13 118.5,-1"/>
<path fill="#ffffff" stroke="#ffffff" stroke-width="1.5" d="M169.5,-1C175.5,-1 181.5,-7 181.5,-13"/>
<path fill="#ffffff" stroke="#ffffff" stroke-width="1.5" d="M181.5,-25C181.5,-31 175.5,-37 169.5,-37"/>
<path fill="#ffffff" stroke="#ffffff" stroke-width="1.5" d="M118.5,-37C112.5,-37 106.5,-31 106.5,-25"/>
<path fill="#ffffff" stroke="#ffffff" stroke-width="1.5" d="M106.5,-13C106.5,-7 112.5,-1 118.5,-1"/>
<polyline fill="none" stroke="#2e3436" stroke-width="1.5" points="118.5,-1 169.5,-1 "/>
<path fill="none" stroke="#2e3436" stroke-width="1.5" d="M169.5,-1C175.5,-1 181.5,-7 181.5,-13"/>
<polyline fill="none" stroke="#2e3436" stroke-width="1.5" points="181.5,-13 181.5,-25 "/>
<path fill="none" stroke="#2e3436" stroke-width="1.5" d="M181.5,-25C181.5,-31 175.5,-37 169.5,-37"/>
<polyline fill="none" stroke="#2e3436" stroke-width="1.5" points="169.5,-37 118.5,-37 "/>
<path fill="none" stroke="#2e3436" stroke-width="1.5" d="M118.5,-37C112.5,-37 106.5,-31 106.5,-25"/>
<polyline fill="none" stroke="#2e3436" stroke-width="1.5" points="106.5,-25 106.5,-13 "/>
<path fill="none" stroke="#2e3436" stroke-width="1.5" d="M106.5,-13C106.5,-7 112.5,-1 118.5,-1"/>
<text text-anchor="middle" x="144" y="-25.8" font-family="FreeSans" font-size="8.00" fill="#1c2021">Node[73]</text>
<polyline fill="none" stroke="#2e3436" stroke-width="1.5" points="106.5,-19 181.5,-19 "/>
<text text-anchor="start" x="114.5" y="-7.8" font-family="FreeSans" font-size="8.00" fill="#1c2021">name = &#39;sink&#39;</text>
</g>
<!-- N72&#45;&gt;N73 -->
<g id="edge4" class="edge"><title>N72&#45;&gt;N73</title>
<path fill="none" stroke="#2e3436" stroke-width="2" d="M144,-188.974C144,-155.511 144,-83.6834 144,-44.9786"/>
<polygon fill="#2e3436" stroke="#2e3436" points="144,-37.2479 147.375,-44.7478 144.5,-40.9979 144.5,-44.7479 144,-44.7479 143.5,-44.7479 143.5,-40.9979 140.625,-44.7479 144,-37.2479 144,-37.2479"/>
<text text-anchor="middle" x="170.5" y="-115.8" font-family="FreeSans" font-size="8.00" fill="#2e3436">CONNECTED</text>
<text text-anchor="start" x="144" y="-105.8" font-family="FreeSans" font-size="8.00" fill="#2e3436">capacity = 0</text>
</g>
<!-- N72&#45;&gt;N73 -->
<g id="edge6" class="edge"><title>N72&#45;&gt;N73</title>
<path fill="none" stroke="#2e3436" stroke-width="2" d="M164.435,-188.92C178.559,-174.975 196.162,-154.343 204,-132 209.59,-116.063 209.59,-109.937 204,-94 197.142,-74.4495 182.807,-56.2093 169.869,-42.6129"/>
<polygon fill="#2e3436" stroke="#2e3436" points="164.435,-37.0799 172.098,-40.0662 167.419,-39.4051 170.047,-42.0807 169.69,-42.431 169.333,-42.7813 166.706,-40.1058 167.282,-44.7958 164.435,-37.0799 164.435,-37.0799"/>
<text text-anchor="middle" x="234.5" y="-115.8" font-family="FreeSans" font-size="8.00" fill="#2e3436">CONNECTED</text>
<text text-anchor="start" x="208" y="-105.8" font-family="FreeSans" font-size="8.00" fill="#2e3436">capacity = 0</text>
</g>
<!-- N74&#45;&gt;N73 -->
<g id="edge8" class="edge"><title>N74&#45;&gt;N73</title>
<path fill="none" stroke="#2e3436" stroke-width="2" d="M47.7318,-94.9647C51.7125,-82.7234 58.473,-66.8515 69,-56 77.5394,-47.1974 88.6089,-40.1755 99.6092,-34.7175"/>
<polygon fill="#2e3436" stroke="#2e3436" points="106.426,-31.5193 101.07,-37.7603 103.244,-33.5648 99.8486,-35.1575 99.6362,-34.7049 99.4239,-34.2522 102.819,-32.6594 98.2028,-31.6494 106.426,-31.5193 106.426,-31.5193"/>
<text text-anchor="middle" x="95.5" y="-68.8" font-family="FreeSans" font-size="8.00" fill="#2e3436">CONNECTED</text>
<text text-anchor="start" x="69" y="-58.8" font-family="FreeSans" font-size="8.00" fill="#2e3436">capacity = 2</text>
</g>
</g>
</svg>
