<?xml version="1.0" encoding="UTF-8" standalone="no"?>
<!DOCTYPE svg PUBLIC "-//W3C//DTD SVG 1.1//EN"
 "http://www.w3.org/Graphics/SVG/1.1/DTD/svg11.dtd">
<!-- Generated by graphviz version 2.26.3 (20100126.1600)
 -->
<!-- Title: g Pages: 1 -->
<svg width="185pt" height="130pt"
 viewBox="0.00 0.00 185.00 130.00" xmlns="http://www.w3.org/2000/svg" xmlns:xlink="http://www.w3.org/1999/xlink">
<g id="graph1" class="graph" transform="scale(1 1) rotate(0) translate(4 126)">
<title>g</title>
<polygon fill="white" stroke="white" points="-4,5 -4,-126 182,-126 182,5 -4,5"/>
<!-- N49 -->
<g id="node1" class="node"><title>N49</title>
<polygon fill="#ffffff" stroke="#ffffff" stroke-width="1.5" points="12,-1 66,-1 78,-13 78,-25 66,-37 12,-37 0,-25 0,-13 12,-1"/>
<path fill="#ffffff" stroke="#ffffff" stroke-width="1.5" d="M66,-1C72,-1 78,-7 78,-13"/>
<path fill="#ffffff" stroke="#ffffff" stroke-width="1.5" d="M78,-25C78,-31 72,-37 66,-37"/>
<path fill="#ffffff" stroke="#ffffff" stroke-width="1.5" d="M12,-37C6,-37 0,-31 0,-25"/>
<path fill="#ffffff" stroke="#ffffff" stroke-width="1.5" d="M0,-13C0,-7 6,-1 12,-1"/>
<polyline fill="none" stroke="#2e3436" stroke-width="1.5" points="12,-1 66,-1 "/>
<path fill="none" stroke="#2e3436" stroke-width="1.5" d="M66,-1C72,-1 78,-7 78,-13"/>
<polyline fill="none" stroke="#2e3436" stroke-width="1.5" points="78,-13 78,-25 "/>
<path fill="none" stroke="#2e3436" stroke-width="1.5" d="M78,-25C78,-31 72,-37 66,-37"/>
<polyline fill="none" stroke="#2e3436" stroke-width="1.5" points="66,-37 12,-37 "/>
<path fill="none" stroke="#2e3436" stroke-width="1.5" d="M12,-37C6,-37 0,-31 0,-25"/>
<polyline fill="none" stroke="#2e3436" stroke-width="1.5" points="0,-25 0,-13 "/>
<path fill="none" stroke="#2e3436" stroke-width="1.5" d="M0,-13C0,-7 6,-1 12,-1"/>
<text text-anchor="middle" x="39" y="-25.8" font-family="FreeSans" font-size="8.00" fill="#1c2021">Node[49]</text>
<polyline fill="none" stroke="#2e3436" stroke-width="1.5" points="0,-19 78,-19 "/>
<text text-anchor="start" x="8" y="-7.8" font-family="FreeSans" font-size="8.00" fill="#1c2021">name = &#39;Sara&#39;</text>
</g>
<!-- N50 -->
<g id="node2" class="node"><title>N50</title>
<polygon fill="#ffffff" stroke="#ffffff" stroke-width="1.5" points="118.5,-1 165.5,-1 177.5,-13 177.5,-25 165.5,-37 118.5,-37 106.5,-25 106.5,-13 118.5,-1"/>
<path fill="#ffffff" stroke="#ffffff" stroke-width="1.5" d="M165.5,-1C171.5,-1 177.5,-7 177.5,-13"/>
<path fill="#ffffff" stroke="#ffffff" stroke-width="1.5" d="M177.5,-25C177.5,-31 171.5,-37 165.5,-37"/>
<path fill="#ffffff" stroke="#ffffff" stroke-width="1.5" d="M118.5,-37C112.5,-37 106.5,-31 106.5,-25"/>
<path fill="#ffffff" stroke="#ffffff" stroke-width="1.5" d="M106.5,-13C106.5,-7 112.5,-1 118.5,-1"/>
<polyline fill="none" stroke="#2e3436" stroke-width="1.5" points="118.5,-1 165.5,-1 "/>
<path fill="none" stroke="#2e3436" stroke-width="1.5" d="M165.5,-1C171.5,-1 177.5,-7 177.5,-13"/>
<polyline fill="none" stroke="#2e3436" stroke-width="1.5" points="177.5,-13 177.5,-25 "/>
<path fill="none" stroke="#2e3436" stroke-width="1.5" d="M177.5,-25C177.5,-31 171.5,-37 165.5,-37"/>
<polyline fill="none" stroke="#2e3436" stroke-width="1.5" points="165.5,-37 118.5,-37 "/>
<path fill="none" stroke="#2e3436" stroke-width="1.5" d="M118.5,-37C112.5,-37 106.5,-31 106.5,-25"/>
<polyline fill="none" stroke="#2e3436" stroke-width="1.5" points="106.5,-25 106.5,-13 "/>
<path fill="none" stroke="#2e3436" stroke-width="1.5" d="M106.5,-13C106.5,-7 112.5,-1 118.5,-1"/>
<text text-anchor="middle" x="142" y="-25.8" font-family="FreeSans" font-size="8.00" fill="#1c2021">Node[50]</text>
<polyline fill="none" stroke="#2e3436" stroke-width="1.5" points="106.5,-19 177.5,-19 "/>
<text text-anchor="start" x="114.5" y="-7.8" font-family="FreeSans" font-size="8.00" fill="#1c2021">name = &#39;Ian&#39;</text>
</g>
<!-- N51 -->
<g id="node3" class="node"><title>N51</title>
<polygon fill="#ffffff" stroke="#ffffff" stroke-width="1.5" points="57.5,-85 122.5,-85 134.5,-97 134.5,-109 122.5,-121 57.5,-121 45.5,-109 45.5,-97 57.5,-85"/>
<path fill="#ffffff" stroke="#ffffff" stroke-width="1.5" d="M122.5,-85C128.5,-85 134.5,-91 134.5,-97"/>
<path fill="#ffffff" stroke="#ffffff" stroke-width="1.5" d="M134.5,-109C134.5,-115 128.5,-121 122.5,-121"/>
<path fill="#ffffff" stroke="#ffffff" stroke-width="1.5" d="M57.5,-121C51.5,-121 45.5,-115 45.5,-109"/>
<path fill="#ffffff" stroke="#ffffff" stroke-width="1.5" d="M45.5,-97C45.5,-91 51.5,-85 57.5,-85"/>
<polyline fill="none" stroke="#2e3436" stroke-width="1.5" points="57.5,-85 122.5,-85 "/>
<path fill="none" stroke="#2e3436" stroke-width="1.5" d="M122.5,-85C128.5,-85 134.5,-91 134.5,-97"/>
<polyline fill="none" stroke="#2e3436" stroke-width="1.5" points="134.5,-97 134.5,-109 "/>
<path fill="none" stroke="#2e3436" stroke-width="1.5" d="M134.5,-109C134.5,-115 128.5,-121 122.5,-121"/>
<polyline fill="none" stroke="#2e3436" stroke-width="1.5" points="122.5,-121 57.5,-121 "/>
<path fill="none" stroke="#2e3436" stroke-width="1.5" d="M57.5,-121C51.5,-121 45.5,-115 45.5,-109"/>
<polyline fill="none" stroke="#2e3436" stroke-width="1.5" points="45.5,-109 45.5,-97 "/>
<path fill="none" stroke="#2e3436" stroke-width="1.5" d="M45.5,-97C45.5,-91 51.5,-85 57.5,-85"/>
<text text-anchor="middle" x="90" y="-109.8" font-family="FreeSans" font-size="8.00" fill="#1c2021">Node[51]</text>
<polyline fill="none" stroke="#2e3436" stroke-width="1.5" points="45.5,-103 134.5,-103 "/>
<text text-anchor="start" x="53.5" y="-91.8" font-family="FreeSans" font-size="8.00" fill="#1c2021">name = &#39;George&#39;</text>
</g>
<!-- N51&#45;&gt;N49 -->
<g id="edge2" class="edge"><title>N51&#45;&gt;N49</title>
<path fill="none" stroke="#2e3436" stroke-width="2" d="M78.9338,-84.7733C71.6491,-72.7751 62.0213,-56.9174 54.0444,-43.779"/>
<polygon fill="#2e3436" stroke="#2e3436" points="50.0446,-37.1912 56.8219,-41.8505 52.4182,-40.1371 54.3644,-43.3426 53.937,-43.6021 53.5096,-43.8616 51.5634,-40.6561 51.0521,-45.3537 50.0446,-37.1912 50.0446,-37.1912"/>
<text text-anchor="middle" x="81" y="-58.8" font-family="FreeSans" font-size="8.00" fill="#2e3436">knows</text>
</g>
<!-- N51&#45;&gt;N50 -->
<g id="edge4" class="edge"><title>N51&#45;&gt;N50</title>
<path fill="none" stroke="#2e3436" stroke-width="2" d="M101.283,-84.7733C108.711,-72.7751 118.527,-56.9174 126.661,-43.779"/>
<polygon fill="#2e3436" stroke="#2e3436" points="130.739,-37.1912 129.661,-45.3446 129.19,-40.6429 127.216,-43.8314 126.791,-43.5682 126.366,-43.305 128.34,-40.1165 123.921,-41.7917 130.739,-37.1912 130.739,-37.1912"/>
<text text-anchor="middle" x="131" y="-58.8" font-family="FreeSans" font-size="8.00" fill="#2e3436">knows</text>
</g>
</g>
</svg>
