<?xml version="1.0" encoding="UTF-8" standalone="no"?>
<!DOCTYPE svg PUBLIC "-//W3C//DTD SVG 1.1//EN"
 "http://www.w3.org/Graphics/SVG/1.1/DTD/svg11.dtd">
<!-- Generated by graphviz version 2.26.3 (20100126.1600)
 -->
<!-- Title: g Pages: 1 -->
<svg width="201pt" height="46pt"
 viewBox="0.00 0.00 201.00 46.00" xmlns="http://www.w3.org/2000/svg" xmlns:xlink="http://www.w3.org/1999/xlink">
<g id="graph1" class="graph" transform="scale(1 1) rotate(0) translate(4 42)">
<title>g</title>
<polygon fill="white" stroke="white" points="-4,5 -4,-42 198,-42 198,5 -4,5"/>
<!-- N18 -->
<g id="node1" class="node"><title>N18</title>
<polygon fill="#ffffff" stroke="#ffffff" stroke-width="1.5" points="12,-1 66,-1 78,-13 78,-25 66,-37 12,-37 0,-25 0,-13 12,-1"/>
<path fill="#ffffff" stroke="#ffffff" stroke-width="1.5" d="M66,-1C72,-1 78,-7 78,-13"/>
<path fill="#ffffff" stroke="#ffffff" stroke-width="1.5" d="M78,-25C78,-31 72,-37 66,-37"/>
<path fill="#ffffff" stroke="#ffffff" stroke-width="1.5" d="M12,-37C6,-37 0,-31 0,-25"/>
<path fill="#ffffff" stroke="#ffffff" stroke-width="1.5" d="M0,-13C0,-7 6,-1 12,-1"/>
<polyline fill="none" stroke="#2e3436" stroke-width="1.5" points="12,-1 66,-1 "/>
<path fill="none" stroke="#2e3436" stroke-width="1.5" d="M66,-1C72,-1 78,-7 78,-13"/>
<polyline fill="none" stroke="#2e3436" stroke-width="1.5" points="78,-13 78,-25 "/>
<path fill="none" stroke="#2e3436" stroke-width="1.5" d="M78,-25C78,-31 72,-37 66,-37"/>
<polyline fill="none" stroke="#2e3436" stroke-width="1.5" points="66,-37 12,-37 "/>
<path fill="none" stroke="#2e3436" stroke-width="1.5" d="M12,-37C6,-37 0,-31 0,-25"/>
<polyline fill="none" stroke="#2e3436" stroke-width="1.5" points="0,-25 0,-13 "/>
<path fill="none" stroke="#2e3436" stroke-width="1.5" d="M0,-13C0,-7 6,-1 12,-1"/>
<text text-anchor="middle" x="39" y="-25.8" font-family="FreeSans" font-size="8.00" fill="#1c2021">Node[18]</text>
<polyline fill="none" stroke="#2e3436" stroke-width="1.5" points="0,-19 78,-19 "/>
<text text-anchor="start" x="8" y="-7.8" font-family="FreeSans" font-size="8.00" fill="#1c2021">name = &#39;Juliet&#39;</text>
</g>
<!-- N19 -->
<g id="node2" class="node"><title>N19</title>
<polygon fill="#ffffff" stroke="#ffffff" stroke-width="1.5" points="118.5,-1 181.5,-1 193.5,-13 193.5,-25 181.5,-37 118.5,-37 106.5,-25 106.5,-13 118.5,-1"/>
<path fill="#ffffff" stroke="#ffffff" stroke-width="1.5" d="M181.5,-1C187.5,-1 193.5,-7 193.5,-13"/>
<path fill="#ffffff" stroke="#ffffff" stroke-width="1.5" d="M193.5,-25C193.5,-31 187.5,-37 181.5,-37"/>
<path fill="#ffffff" stroke="#ffffff" stroke-width="1.5" d="M118.5,-37C112.5,-37 106.5,-31 106.5,-25"/>
<path fill="#ffffff" stroke="#ffffff" stroke-width="1.5" d="M106.5,-13C106.5,-7 112.5,-1 118.5,-1"/>
<polyline fill="none" stroke="#2e3436" stroke-width="1.5" points="118.5,-1 181.5,-1 "/>
<path fill="none" stroke="#2e3436" stroke-width="1.5" d="M181.5,-1C187.5,-1 193.5,-7 193.5,-13"/>
<polyline fill="none" stroke="#2e3436" stroke-width="1.5" points="193.5,-13 193.5,-25 "/>
<path fill="none" stroke="#2e3436" stroke-width="1.5" d="M193.5,-25C193.5,-31 187.5,-37 181.5,-37"/>
<polyline fill="none" stroke="#2e3436" stroke-width="1.5" points="181.5,-37 118.5,-37 "/>
<path fill="none" stroke="#2e3436" stroke-width="1.5" d="M118.5,-37C112.5,-37 106.5,-31 106.5,-25"/>
<polyline fill="none" stroke="#2e3436" stroke-width="1.5" points="106.5,-25 106.5,-13 "/>
<path fill="none" stroke="#2e3436" stroke-width="1.5" d="M106.5,-13C106.5,-7 112.5,-1 118.5,-1"/>
<text text-anchor="middle" x="150" y="-25.8" font-family="FreeSans" font-size="8.00" fill="#1c2021">Node[19]</text>
<polyline fill="none" stroke="#2e3436" stroke-width="1.5" points="106.5,-19 193.5,-19 "/>
<text text-anchor="start" x="114.5" y="-7.8" font-family="FreeSans" font-size="8.00" fill="#1c2021">name = &#39;Romeo&#39;</text>
</g>
</g>
</svg>
