<?xml version="1.0" encoding="UTF-8" standalone="no"?>
<!DOCTYPE svg PUBLIC "-//W3C//DTD SVG 1.1//EN"
 "http://www.w3.org/Graphics/SVG/1.1/DTD/svg11.dtd">
<!-- Generated by graphviz version 2.26.3 (20100126.1600)
 -->
<!-- Title: g Pages: 1 -->
<svg width="157pt" height="130pt"
 viewBox="0.00 0.00 157.00 130.00" xmlns="http://www.w3.org/2000/svg" xmlns:xlink="http://www.w3.org/1999/xlink">
<g id="graph1" class="graph" transform="scale(1 1) rotate(0) translate(4 126)">
<title>g</title>
<polygon fill="white" stroke="white" points="-4,5 -4,-126 154,-126 154,5 -4,5"/>
<!-- N245 -->
<g id="node1" class="node"><title>N245</title>
<polygon fill="#ffffff" stroke="#ffffff" stroke-width="1.5" points="12,-85 48,-85 60,-97 60,-109 48,-121 12,-121 0,-109 0,-97 12,-85"/>
<path fill="#ffffff" stroke="#ffffff" stroke-width="1.5" d="M48,-85C54,-85 60,-91 60,-97"/>
<path fill="#ffffff" stroke="#ffffff" stroke-width="1.5" d="M60,-109C60,-115 54,-121 48,-121"/>
<path fill="#ffffff" stroke="#ffffff" stroke-width="1.5" d="M12,-121C6,-121 0,-115 0,-109"/>
<path fill="#ffffff" stroke="#ffffff" stroke-width="1.5" d="M0,-97C0,-91 6,-85 12,-85"/>
<polyline fill="none" stroke="#2e3436" stroke-width="1.5" points="12,-85 48,-85 "/>
<path fill="none" stroke="#2e3436" stroke-width="1.5" d="M48,-85C54,-85 60,-91 60,-97"/>
<polyline fill="none" stroke="#2e3436" stroke-width="1.5" points="60,-97 60,-109 "/>
<path fill="none" stroke="#2e3436" stroke-width="1.5" d="M60,-109C60,-115 54,-121 48,-121"/>
<polyline fill="none" stroke="#2e3436" stroke-width="1.5" points="48,-121 12,-121 "/>
<path fill="none" stroke="#2e3436" stroke-width="1.5" d="M12,-121C6,-121 0,-115 0,-109"/>
<polyline fill="none" stroke="#2e3436" stroke-width="1.5" points="0,-109 0,-97 "/>
<path fill="none" stroke="#2e3436" stroke-width="1.5" d="M0,-97C0,-91 6,-85 12,-85"/>
<text text-anchor="middle" x="30" y="-109.8" font-family="FreeSans" font-size="8.00" fill="#1c2021">Node[245]</text>
<polyline fill="none" stroke="#2e3436" stroke-width="1.5" points="0,-103 60,-103 "/>
<text text-anchor="middle" x="30" y="-91.8" font-family="FreeSans" font-size="8.00" fill="#1c2021"> </text>
</g>
<!-- N246 -->
<g id="node3" class="node"><title>N246</title>
<polygon fill="#ffffff" stroke="#ffffff" stroke-width="1.5" points="12,-1 48,-1 60,-13 60,-25 48,-37 12,-37 0,-25 0,-13 12,-1"/>
<path fill="#ffffff" stroke="#ffffff" stroke-width="1.5" d="M48,-1C54,-1 60,-7 60,-13"/>
<path fill="#ffffff" stroke="#ffffff" stroke-width="1.5" d="M60,-25C60,-31 54,-37 48,-37"/>
<path fill="#ffffff" stroke="#ffffff" stroke-width="1.5" d="M12,-37C6,-37 0,-31 0,-25"/>
<path fill="#ffffff" stroke="#ffffff" stroke-width="1.5" d="M0,-13C0,-7 6,-1 12,-1"/>
<polyline fill="none" stroke="#2e3436" stroke-width="1.5" points="12,-1 48,-1 "/>
<path fill="none" stroke="#2e3436" stroke-width="1.5" d="M48,-1C54,-1 60,-7 60,-13"/>
<polyline fill="none" stroke="#2e3436" stroke-width="1.5" points="60,-13 60,-25 "/>
<path fill="none" stroke="#2e3436" stroke-width="1.5" d="M60,-25C60,-31 54,-37 48,-37"/>
<polyline fill="none" stroke="#2e3436" stroke-width="1.5" points="48,-37 12,-37 "/>
<path fill="none" stroke="#2e3436" stroke-width="1.5" d="M12,-37C6,-37 0,-31 0,-25"/>
<polyline fill="none" stroke="#2e3436" stroke-width="1.5" points="0,-25 0,-13 "/>
<path fill="none" stroke="#2e3436" stroke-width="1.5" d="M0,-13C0,-7 6,-1 12,-1"/>
<text text-anchor="middle" x="30" y="-25.8" font-family="FreeSans" font-size="8.00" fill="#1c2021">Node[246]</text>
<polyline fill="none" stroke="#2e3436" stroke-width="1.5" points="0,-19 60,-19 "/>
<text text-anchor="middle" x="30" y="-7.8" font-family="FreeSans" font-size="8.00" fill="#1c2021"> </text>
</g>
<!-- N245&#45;&gt;N246 -->
<g id="edge2" class="edge"><title>N245&#45;&gt;N246</title>
<path fill="none" stroke="#2e3436" stroke-width="2" d="M30,-84.7733C30,-73.1053 30,-57.7874 30,-44.8699"/>
<polygon fill="#2e3436" stroke="#2e3436" points="30,-37.1912 33.3751,-44.6911 30.5,-40.9412 30.5001,-44.6912 30.0001,-44.6912 29.5001,-44.6912 29.5,-40.9412 26.6251,-44.6912 30,-37.1912 30,-37.1912"/>
<text text-anchor="middle" x="37" y="-58.8" font-family="FreeSans" font-size="8.00" fill="#2e3436">foo</text>
</g>
<!-- N247 -->
<g id="node4" class="node"><title>N247</title>
<polygon fill="#ffffff" stroke="#ffffff" stroke-width="1.5" points="101,-85 137,-85 149,-97 149,-109 137,-121 101,-121 89,-109 89,-97 101,-85"/>
<path fill="#ffffff" stroke="#ffffff" stroke-width="1.5" d="M137,-85C143,-85 149,-91 149,-97"/>
<path fill="#ffffff" stroke="#ffffff" stroke-width="1.5" d="M149,-109C149,-115 143,-121 137,-121"/>
<path fill="#ffffff" stroke="#ffffff" stroke-width="1.5" d="M101,-121C95,-121 89,-115 89,-109"/>
<path fill="#ffffff" stroke="#ffffff" stroke-width="1.5" d="M89,-97C89,-91 95,-85 101,-85"/>
<polyline fill="none" stroke="#2e3436" stroke-width="1.5" points="101,-85 137,-85 "/>
<path fill="none" stroke="#2e3436" stroke-width="1.5" d="M137,-85C143,-85 149,-91 149,-97"/>
<polyline fill="none" stroke="#2e3436" stroke-width="1.5" points="149,-97 149,-109 "/>
<path fill="none" stroke="#2e3436" stroke-width="1.5" d="M149,-109C149,-115 143,-121 137,-121"/>
<polyline fill="none" stroke="#2e3436" stroke-width="1.5" points="137,-121 101,-121 "/>
<path fill="none" stroke="#2e3436" stroke-width="1.5" d="M101,-121C95,-121 89,-115 89,-109"/>
<polyline fill="none" stroke="#2e3436" stroke-width="1.5" points="89,-109 89,-97 "/>
<path fill="none" stroke="#2e3436" stroke-width="1.5" d="M89,-97C89,-91 95,-85 101,-85"/>
<text text-anchor="middle" x="119" y="-109.8" font-family="FreeSans" font-size="8.00" fill="#1c2021">Node[247]</text>
<polyline fill="none" stroke="#2e3436" stroke-width="1.5" points="89,-103 149,-103 "/>
<text text-anchor="middle" x="119" y="-91.8" font-family="FreeSans" font-size="8.00" fill="#1c2021"> </text>
</g>
<!-- N248 -->
<g id="node6" class="node"><title>N248</title>
<polygon fill="#ffffff" stroke="#ffffff" stroke-width="1.5" points="101,-1 137,-1 149,-13 149,-25 137,-37 101,-37 89,-25 89,-13 101,-1"/>
<path fill="#ffffff" stroke="#ffffff" stroke-width="1.5" d="M137,-1C143,-1 149,-7 149,-13"/>
<path fill="#ffffff" stroke="#ffffff" stroke-width="1.5" d="M149,-25C149,-31 143,-37 137,-37"/>
<path fill="#ffffff" stroke="#ffffff" stroke-width="1.5" d="M101,-37C95,-37 89,-31 89,-25"/>
<path fill="#ffffff" stroke="#ffffff" stroke-width="1.5" d="M89,-13C89,-7 95,-1 101,-1"/>
<polyline fill="none" stroke="#2e3436" stroke-width="1.5" points="101,-1 137,-1 "/>
<path fill="none" stroke="#2e3436" stroke-width="1.5" d="M137,-1C143,-1 149,-7 149,-13"/>
<polyline fill="none" stroke="#2e3436" stroke-width="1.5" points="149,-13 149,-25 "/>
<path fill="none" stroke="#2e3436" stroke-width="1.5" d="M149,-25C149,-31 143,-37 137,-37"/>
<polyline fill="none" stroke="#2e3436" stroke-width="1.5" points="137,-37 101,-37 "/>
<path fill="none" stroke="#2e3436" stroke-width="1.5" d="M101,-37C95,-37 89,-31 89,-25"/>
<polyline fill="none" stroke="#2e3436" stroke-width="1.5" points="89,-25 89,-13 "/>
<path fill="none" stroke="#2e3436" stroke-width="1.5" d="M89,-13C89,-7 95,-1 101,-1"/>
<text text-anchor="middle" x="119" y="-25.8" font-family="FreeSans" font-size="8.00" fill="#1c2021">Node[248]</text>
<polyline fill="none" stroke="#2e3436" stroke-width="1.5" points="89,-19 149,-19 "/>
<text text-anchor="middle" x="119" y="-7.8" font-family="FreeSans" font-size="8.00" fill="#1c2021"> </text>
</g>
<!-- N247&#45;&gt;N248 -->
<g id="edge4" class="edge"><title>N247&#45;&gt;N248</title>
<path fill="none" stroke="#4e9a06" stroke-width="2" d="M119,-84.7733C119,-73.1053 119,-57.7874 119,-44.8699"/>
<polygon fill="#4e9a06" stroke="#4e9a06" points="119,-37.1912 122.375,-44.6911 119.5,-40.9412 119.5,-44.6912 119,-44.6912 118.5,-44.6912 118.5,-40.9412 115.625,-44.6912 119,-37.1912 119,-37.1912"/>
<text text-anchor="middle" x="126.5" y="-58.8" font-family="FreeSans" font-size="8.00" fill="#4e9a06">bar</text>
</g>
</g>
</svg>
