<?xml version="1.0" encoding="UTF-8" standalone="no"?>
<!DOCTYPE svg PUBLIC "-//W3C//DTD SVG 1.1//EN"
 "http://www.w3.org/Graphics/SVG/1.1/DTD/svg11.dtd">
<!-- Generated by graphviz version 2.26.3 (20100126.1600)
 -->
<!-- Title: g Pages: 1 -->
<svg width="88pt" height="214pt"
 viewBox="0.00 0.00 88.00 214.00" xmlns="http://www.w3.org/2000/svg" xmlns:xlink="http://www.w3.org/1999/xlink">
<g id="graph1" class="graph" transform="scale(1 1) rotate(0) translate(4 210)">
<title>g</title>
<polygon fill="white" stroke="white" points="-4,5 -4,-210 85,-210 85,5 -4,5"/>
<!-- N46 -->
<g id="node1" class="node"><title>N46</title>
<polygon fill="#ffffff" stroke="#ffffff" stroke-width="1.5" points="11.5,-169 68.5,-169 80.5,-181 80.5,-193 68.5,-205 11.5,-205 -0.5,-193 -0.5,-181 11.5,-169"/>
<path fill="#ffffff" stroke="#ffffff" stroke-width="1.5" d="M68.5,-169C74.5,-169 80.5,-175 80.5,-181"/>
<path fill="#ffffff" stroke="#ffffff" stroke-width="1.5" d="M80.5,-193C80.5,-199 74.5,-205 68.5,-205"/>
<path fill="#ffffff" stroke="#ffffff" stroke-width="1.5" d="M11.5,-205C5.5,-205 -0.5,-199 -0.5,-193"/>
<path fill="#ffffff" stroke="#ffffff" stroke-width="1.5" d="M-0.5,-181C-0.5,-175 5.5,-169 11.5,-169"/>
<polyline fill="none" stroke="#2e3436" stroke-width="1.5" points="11.5,-169 68.5,-169 "/>
<path fill="none" stroke="#2e3436" stroke-width="1.5" d="M68.5,-169C74.5,-169 80.5,-175 80.5,-181"/>
<polyline fill="none" stroke="#2e3436" stroke-width="1.5" points="80.5,-181 80.5,-193 "/>
<path fill="none" stroke="#2e3436" stroke-width="1.5" d="M80.5,-193C80.5,-199 74.5,-205 68.5,-205"/>
<polyline fill="none" stroke="#2e3436" stroke-width="1.5" points="68.5,-205 11.5,-205 "/>
<path fill="none" stroke="#2e3436" stroke-width="1.5" d="M11.5,-205C5.5,-205 -0.5,-199 -0.5,-193"/>
<polyline fill="none" stroke="#2e3436" stroke-width="1.5" points="-0.5,-193 -0.5,-181 "/>
<path fill="none" stroke="#2e3436" stroke-width="1.5" d="M-0.5,-181C-0.5,-175 5.5,-169 11.5,-169"/>
<text text-anchor="middle" x="40" y="-193.8" font-family="FreeSans" font-size="8.00" fill="#1c2021">Node[46]</text>
<polyline fill="none" stroke="#2e3436" stroke-width="1.5" points="-0.5,-187 80.5,-187 "/>
<text text-anchor="start" x="7.5" y="-175.8" font-family="FreeSans" font-size="8.00" fill="#1c2021">name = &#39;Marie&#39;</text>
</g>
<!-- N48 -->
<g id="node3" class="node"><title>N48</title>
<polygon fill="#ffffff" stroke="#ffffff" stroke-width="1.5" points="12,-85 68,-85 80,-97 80,-109 68,-121 12,-121 0,-109 0,-97 12,-85"/>
<path fill="#ffffff" stroke="#ffffff" stroke-width="1.5" d="M68,-85C74,-85 80,-91 80,-97"/>
<path fill="#ffffff" stroke="#ffffff" stroke-width="1.5" d="M80,-109C80,-115 74,-121 68,-121"/>
<path fill="#ffffff" stroke="#ffffff" stroke-width="1.5" d="M12,-121C6,-121 0,-115 0,-109"/>
<path fill="#ffffff" stroke="#ffffff" stroke-width="1.5" d="M0,-97C0,-91 6,-85 12,-85"/>
<polyline fill="none" stroke="#2e3436" stroke-width="1.5" points="12,-85 68,-85 "/>
<path fill="none" stroke="#2e3436" stroke-width="1.5" d="M68,-85C74,-85 80,-91 80,-97"/>
<polyline fill="none" stroke="#2e3436" stroke-width="1.5" points="80,-97 80,-109 "/>
<path fill="none" stroke="#2e3436" stroke-width="1.5" d="M80,-109C80,-115 74,-121 68,-121"/>
<polyline fill="none" stroke="#2e3436" stroke-width="1.5" points="68,-121 12,-121 "/>
<path fill="none" stroke="#2e3436" stroke-width="1.5" d="M12,-121C6,-121 0,-115 0,-109"/>
<polyline fill="none" stroke="#2e3436" stroke-width="1.5" points="0,-109 0,-97 "/>
<path fill="none" stroke="#2e3436" stroke-width="1.5" d="M0,-97C0,-91 6,-85 12,-85"/>
<text text-anchor="middle" x="40" y="-109.8" font-family="FreeSans" font-size="8.00" fill="#1c2021">Node[48]</text>
<polyline fill="none" stroke="#2e3436" stroke-width="1.5" points="0,-103 80,-103 "/>
<text text-anchor="start" x="8" y="-91.8" font-family="FreeSans" font-size="8.00" fill="#1c2021">name = &#39;Peter&#39;</text>
</g>
<!-- N46&#45;&gt;N48 -->
<g id="edge2" class="edge"><title>N46&#45;&gt;N48</title>
<path fill="none" stroke="#2e3436" stroke-width="2" d="M40,-168.773C40,-157.105 40,-141.787 40,-128.87"/>
<polygon fill="#2e3436" stroke="#2e3436" points="40,-121.191 43.3751,-128.691 40.5,-124.941 40.5001,-128.691 40.0001,-128.691 39.5001,-128.691 39.5,-124.941 36.6251,-128.691 40,-121.191 40,-121.191"/>
<text text-anchor="middle" x="50" y="-142.8" font-family="FreeSans" font-size="8.00" fill="#2e3436">likes</text>
</g>
<!-- N47 -->
<g id="node4" class="node"><title>N47</title>
<polygon fill="#ffffff" stroke="#ffffff" stroke-width="1.5" points="16.5,-1 63.5,-1 75.5,-13 75.5,-25 63.5,-37 16.5,-37 4.5,-25 4.5,-13 16.5,-1"/>
<path fill="#ffffff" stroke="#ffffff" stroke-width="1.5" d="M63.5,-1C69.5,-1 75.5,-7 75.5,-13"/>
<path fill="#ffffff" stroke="#ffffff" stroke-width="1.5" d="M75.5,-25C75.5,-31 69.5,-37 63.5,-37"/>
<path fill="#ffffff" stroke="#ffffff" stroke-width="1.5" d="M16.5,-37C10.5,-37 4.5,-31 4.5,-25"/>
<path fill="#ffffff" stroke="#ffffff" stroke-width="1.5" d="M4.5,-13C4.5,-7 10.5,-1 16.5,-1"/>
<polyline fill="none" stroke="#2e3436" stroke-width="1.5" points="16.5,-1 63.5,-1 "/>
<path fill="none" stroke="#2e3436" stroke-width="1.5" d="M63.5,-1C69.5,-1 75.5,-7 75.5,-13"/>
<polyline fill="none" stroke="#2e3436" stroke-width="1.5" points="75.5,-13 75.5,-25 "/>
<path fill="none" stroke="#2e3436" stroke-width="1.5" d="M75.5,-25C75.5,-31 69.5,-37 63.5,-37"/>
<polyline fill="none" stroke="#2e3436" stroke-width="1.5" points="63.5,-37 16.5,-37 "/>
<path fill="none" stroke="#2e3436" stroke-width="1.5" d="M16.5,-37C10.5,-37 4.5,-31 4.5,-25"/>
<polyline fill="none" stroke="#2e3436" stroke-width="1.5" points="4.5,-25 4.5,-13 "/>
<path fill="none" stroke="#2e3436" stroke-width="1.5" d="M4.5,-13C4.5,-7 10.5,-1 16.5,-1"/>
<text text-anchor="middle" x="40" y="-25.8" font-family="FreeSans" font-size="8.00" fill="#1c2021">Node[47]</text>
<polyline fill="none" stroke="#2e3436" stroke-width="1.5" points="4.5,-19 75.5,-19 "/>
<text text-anchor="start" x="12.5" y="-7.8" font-family="FreeSans" font-size="8.00" fill="#1c2021">name = &#39;Ian&#39;</text>
</g>
<!-- N48&#45;&gt;N47 -->
<g id="edge6" class="edge"><title>N48&#45;&gt;N47</title>
<path fill="none" stroke="#4e9a06" stroke-width="2" d="M17.5519,-84.6822C12.4594,-79.2567 7.74682,-72.9009 5,-66 1.83134,-58.0393 4.5355,-50.2297 9.59132,-43.3334"/>
<polygon fill="#4e9a06" stroke="#4e9a06" points="14.7946,-37.2787 12.466,-45.1666 12.7296,-40.4486 10.2855,-43.2927 9.90631,-42.9669 9.5271,-42.641 11.9712,-39.7969 7.34662,-40.7672 14.7946,-37.2787 14.7946,-37.2787"/>
<text text-anchor="middle" x="19" y="-58.8" font-family="FreeSans" font-size="8.00" fill="#4e9a06">knows</text>
</g>
<!-- N47&#45;&gt;N48 -->
<g id="edge4" class="edge"><title>N47&#45;&gt;N48</title>
<path fill="none" stroke="#4e9a06" stroke-width="2" d="M40,-37.1912C40,-48.8517 40,-64.1683 40,-77.0907"/>
<polygon fill="#4e9a06" stroke="#4e9a06" points="40,-84.7733 36.6251,-77.2732 39.5,-81.0232 39.5001,-77.2732 40.0001,-77.2733 40.5001,-77.2733 40.5,-81.0233 43.3751,-77.2733 40,-84.7733 40,-84.7733"/>
<text text-anchor="middle" x="54" y="-58.8" font-family="FreeSans" font-size="8.00" fill="#4e9a06">knows</text>
</g>
</g>
</svg>
