<?xml version="1.0" encoding="UTF-8" standalone="no"?>
<!DOCTYPE svg PUBLIC "-//W3C//DTD SVG 1.1//EN"
 "http://www.w3.org/Graphics/SVG/1.1/DTD/svg11.dtd">
<!-- Generated by graphviz version 2.26.3 (20100126.1600)
 -->
<!-- Title: g Pages: 1 -->
<svg width="186pt" height="214pt"
 viewBox="0.00 0.00 186.00 214.00" xmlns="http://www.w3.org/2000/svg" xmlns:xlink="http://www.w3.org/1999/xlink">
<g id="graph1" class="graph" transform="scale(1 1) rotate(0) translate(4 210)">
<title>g</title>
<polygon fill="white" stroke="white" points="-4,5 -4,-210 183,-210 183,5 -4,5"/>
<!-- N38 -->
<g id="node1" class="node"><title>N38</title>
<polygon fill="#ffffff" stroke="#ffffff" stroke-width="1.5" points="52.5,-85 83.5,-85 95.5,-97 95.5,-109 83.5,-121 52.5,-121 40.5,-109 40.5,-97 52.5,-85"/>
<path fill="#ffffff" stroke="#ffffff" stroke-width="1.5" d="M83.5,-85C89.5,-85 95.5,-91 95.5,-97"/>
<path fill="#ffffff" stroke="#ffffff" stroke-width="1.5" d="M95.5,-109C95.5,-115 89.5,-121 83.5,-121"/>
<path fill="#ffffff" stroke="#ffffff" stroke-width="1.5" d="M52.5,-121C46.5,-121 40.5,-115 40.5,-109"/>
<path fill="#ffffff" stroke="#ffffff" stroke-width="1.5" d="M40.5,-97C40.5,-91 46.5,-85 52.5,-85"/>
<polyline fill="none" stroke="#2e3436" stroke-width="1.5" points="52.5,-85 83.5,-85 "/>
<path fill="none" stroke="#2e3436" stroke-width="1.5" d="M83.5,-85C89.5,-85 95.5,-91 95.5,-97"/>
<polyline fill="none" stroke="#2e3436" stroke-width="1.5" points="95.5,-97 95.5,-109 "/>
<path fill="none" stroke="#2e3436" stroke-width="1.5" d="M95.5,-109C95.5,-115 89.5,-121 83.5,-121"/>
<polyline fill="none" stroke="#2e3436" stroke-width="1.5" points="83.5,-121 52.5,-121 "/>
<path fill="none" stroke="#2e3436" stroke-width="1.5" d="M52.5,-121C46.5,-121 40.5,-115 40.5,-109"/>
<polyline fill="none" stroke="#2e3436" stroke-width="1.5" points="40.5,-109 40.5,-97 "/>
<path fill="none" stroke="#2e3436" stroke-width="1.5" d="M40.5,-97C40.5,-91 46.5,-85 52.5,-85"/>
<text text-anchor="middle" x="68" y="-109.8" font-family="FreeSans" font-size="8.00" fill="#1c2021">Node[38]</text>
<polyline fill="none" stroke="#2e3436" stroke-width="1.5" points="40.5,-103 95.5,-103 "/>
<text text-anchor="middle" x="68" y="-91.8" font-family="FreeSans" font-size="8.00" fill="#1c2021"> </text>
</g>
<!-- N39 -->
<g id="node3" class="node"><title>N39</title>
<polygon fill="#ffffff" stroke="#ffffff" stroke-width="1.5" points="11.5,-1 42.5,-1 54.5,-13 54.5,-25 42.5,-37 11.5,-37 -0.5,-25 -0.5,-13 11.5,-1"/>
<path fill="#ffffff" stroke="#ffffff" stroke-width="1.5" d="M42.5,-1C48.5,-1 54.5,-7 54.5,-13"/>
<path fill="#ffffff" stroke="#ffffff" stroke-width="1.5" d="M54.5,-25C54.5,-31 48.5,-37 42.5,-37"/>
<path fill="#ffffff" stroke="#ffffff" stroke-width="1.5" d="M11.5,-37C5.5,-37 -0.5,-31 -0.5,-25"/>
<path fill="#ffffff" stroke="#ffffff" stroke-width="1.5" d="M-0.5,-13C-0.5,-7 5.5,-1 11.5,-1"/>
<polyline fill="none" stroke="#2e3436" stroke-width="1.5" points="11.5,-1 42.5,-1 "/>
<path fill="none" stroke="#2e3436" stroke-width="1.5" d="M42.5,-1C48.5,-1 54.5,-7 54.5,-13"/>
<polyline fill="none" stroke="#2e3436" stroke-width="1.5" points="54.5,-13 54.5,-25 "/>
<path fill="none" stroke="#2e3436" stroke-width="1.5" d="M54.5,-25C54.5,-31 48.5,-37 42.5,-37"/>
<polyline fill="none" stroke="#2e3436" stroke-width="1.5" points="42.5,-37 11.5,-37 "/>
<path fill="none" stroke="#2e3436" stroke-width="1.5" d="M11.5,-37C5.5,-37 -0.5,-31 -0.5,-25"/>
<polyline fill="none" stroke="#2e3436" stroke-width="1.5" points="-0.5,-25 -0.5,-13 "/>
<path fill="none" stroke="#2e3436" stroke-width="1.5" d="M-0.5,-13C-0.5,-7 5.5,-1 11.5,-1"/>
<text text-anchor="middle" x="27" y="-25.8" font-family="FreeSans" font-size="8.00" fill="#1c2021">Node[39]</text>
<polyline fill="none" stroke="#2e3436" stroke-width="1.5" points="-0.5,-19 54.5,-19 "/>
<text text-anchor="middle" x="27" y="-7.8" font-family="FreeSans" font-size="8.00" fill="#1c2021"> </text>
</g>
<!-- N38&#45;&gt;N39 -->
<g id="edge2" class="edge"><title>N38&#45;&gt;N39</title>
<path fill="none" stroke="#2e3436" stroke-width="2" d="M59.1036,-84.7733C53.3011,-72.8851 45.6492,-57.2081 39.2714,-44.1413"/>
<polygon fill="#2e3436" stroke="#2e3436" points="35.879,-37.1912 42.2018,-42.4508 37.9733,-40.3419 39.6182,-43.7119 39.1688,-43.9312 38.7195,-44.1505 37.0746,-40.7805 36.1358,-45.4116 35.879,-37.1912 35.879,-37.1912"/>
<text text-anchor="middle" x="61" y="-58.8" font-family="FreeSans" font-size="8.00" fill="#2e3436">LIKES</text>
</g>
<!-- N41 -->
<g id="node5" class="node"><title>N41</title>
<polygon fill="#ffffff" stroke="#ffffff" stroke-width="1.5" points="94.5,-1 125.5,-1 137.5,-13 137.5,-25 125.5,-37 94.5,-37 82.5,-25 82.5,-13 94.5,-1"/>
<path fill="#ffffff" stroke="#ffffff" stroke-width="1.5" d="M125.5,-1C131.5,-1 137.5,-7 137.5,-13"/>
<path fill="#ffffff" stroke="#ffffff" stroke-width="1.5" d="M137.5,-25C137.5,-31 131.5,-37 125.5,-37"/>
<path fill="#ffffff" stroke="#ffffff" stroke-width="1.5" d="M94.5,-37C88.5,-37 82.5,-31 82.5,-25"/>
<path fill="#ffffff" stroke="#ffffff" stroke-width="1.5" d="M82.5,-13C82.5,-7 88.5,-1 94.5,-1"/>
<polyline fill="none" stroke="#2e3436" stroke-width="1.5" points="94.5,-1 125.5,-1 "/>
<path fill="none" stroke="#2e3436" stroke-width="1.5" d="M125.5,-1C131.5,-1 137.5,-7 137.5,-13"/>
<polyline fill="none" stroke="#2e3436" stroke-width="1.5" points="137.5,-13 137.5,-25 "/>
<path fill="none" stroke="#2e3436" stroke-width="1.5" d="M137.5,-25C137.5,-31 131.5,-37 125.5,-37"/>
<polyline fill="none" stroke="#2e3436" stroke-width="1.5" points="125.5,-37 94.5,-37 "/>
<path fill="none" stroke="#2e3436" stroke-width="1.5" d="M94.5,-37C88.5,-37 82.5,-31 82.5,-25"/>
<polyline fill="none" stroke="#2e3436" stroke-width="1.5" points="82.5,-25 82.5,-13 "/>
<path fill="none" stroke="#2e3436" stroke-width="1.5" d="M82.5,-13C82.5,-7 88.5,-1 94.5,-1"/>
<text text-anchor="middle" x="110" y="-25.8" font-family="FreeSans" font-size="8.00" fill="#1c2021">Node[41]</text>
<polyline fill="none" stroke="#2e3436" stroke-width="1.5" points="82.5,-19 137.5,-19 "/>
<text text-anchor="middle" x="110" y="-7.8" font-family="FreeSans" font-size="8.00" fill="#1c2021"> </text>
</g>
<!-- N38&#45;&gt;N41 -->
<g id="edge4" class="edge"><title>N38&#45;&gt;N41</title>
<path fill="none" stroke="#4e9a06" stroke-width="2" d="M77.1134,-84.7733C83.0574,-72.8851 90.896,-57.2081 97.4293,-44.1413"/>
<polygon fill="#4e9a06" stroke="#4e9a06" points="100.904,-37.1912 100.569,-45.4088 99.6745,-40.7689 97.9975,-44.123 97.5503,-43.8994 97.103,-43.6758 98.7801,-40.3217 94.5316,-42.39 100.904,-37.1912 100.904,-37.1912"/>
<text text-anchor="middle" x="104" y="-58.8" font-family="FreeSans" font-size="8.00" fill="#4e9a06">HATES</text>
</g>
<!-- N40 -->
<g id="node6" class="node"><title>N40</title>
<polygon fill="#ffffff" stroke="#ffffff" stroke-width="1.5" points="52.5,-169 83.5,-169 95.5,-181 95.5,-193 83.5,-205 52.5,-205 40.5,-193 40.5,-181 52.5,-169"/>
<path fill="#ffffff" stroke="#ffffff" stroke-width="1.5" d="M83.5,-169C89.5,-169 95.5,-175 95.5,-181"/>
<path fill="#ffffff" stroke="#ffffff" stroke-width="1.5" d="M95.5,-193C95.5,-199 89.5,-205 83.5,-205"/>
<path fill="#ffffff" stroke="#ffffff" stroke-width="1.5" d="M52.5,-205C46.5,-205 40.5,-199 40.5,-193"/>
<path fill="#ffffff" stroke="#ffffff" stroke-width="1.5" d="M40.5,-181C40.5,-175 46.5,-169 52.5,-169"/>
<polyline fill="none" stroke="#2e3436" stroke-width="1.5" points="52.5,-169 83.5,-169 "/>
<path fill="none" stroke="#2e3436" stroke-width="1.5" d="M83.5,-169C89.5,-169 95.5,-175 95.5,-181"/>
<polyline fill="none" stroke="#2e3436" stroke-width="1.5" points="95.5,-181 95.5,-193 "/>
<path fill="none" stroke="#2e3436" stroke-width="1.5" d="M95.5,-193C95.5,-199 89.5,-205 83.5,-205"/>
<polyline fill="none" stroke="#2e3436" stroke-width="1.5" points="83.5,-205 52.5,-205 "/>
<path fill="none" stroke="#2e3436" stroke-width="1.5" d="M52.5,-205C46.5,-205 40.5,-199 40.5,-193"/>
<polyline fill="none" stroke="#2e3436" stroke-width="1.5" points="40.5,-193 40.5,-181 "/>
<path fill="none" stroke="#2e3436" stroke-width="1.5" d="M40.5,-181C40.5,-175 46.5,-169 52.5,-169"/>
<text text-anchor="middle" x="68" y="-193.8" font-family="FreeSans" font-size="8.00" fill="#1c2021">Node[40]</text>
<polyline fill="none" stroke="#2e3436" stroke-width="1.5" points="40.5,-187 95.5,-187 "/>
<text text-anchor="middle" x="68" y="-175.8" font-family="FreeSans" font-size="8.00" fill="#1c2021"> </text>
</g>
<!-- N40&#45;&gt;N38 -->
<g id="edge6" class="edge"><title>N40&#45;&gt;N38</title>
<path fill="none" stroke="#2e3436" stroke-width="2" d="M68,-168.773C68,-157.105 68,-141.787 68,-128.87"/>
<polygon fill="#2e3436" stroke="#2e3436" points="68,-121.191 71.3751,-128.691 68.5,-124.941 68.5001,-128.691 68.0001,-128.691 67.5001,-128.691 67.5,-124.941 64.6251,-128.691 68,-121.191 68,-121.191"/>
<text text-anchor="middle" x="80" y="-142.8" font-family="FreeSans" font-size="8.00" fill="#2e3436">LIKES</text>
</g>
<!-- N42 -->
<g id="node8" class="node"><title>N42</title>
<polygon fill="#ffffff" stroke="#ffffff" stroke-width="1.5" points="135.5,-169 166.5,-169 178.5,-181 178.5,-193 166.5,-205 135.5,-205 123.5,-193 123.5,-181 135.5,-169"/>
<path fill="#ffffff" stroke="#ffffff" stroke-width="1.5" d="M166.5,-169C172.5,-169 178.5,-175 178.5,-181"/>
<path fill="#ffffff" stroke="#ffffff" stroke-width="1.5" d="M178.5,-193C178.5,-199 172.5,-205 166.5,-205"/>
<path fill="#ffffff" stroke="#ffffff" stroke-width="1.5" d="M135.5,-205C129.5,-205 123.5,-199 123.5,-193"/>
<path fill="#ffffff" stroke="#ffffff" stroke-width="1.5" d="M123.5,-181C123.5,-175 129.5,-169 135.5,-169"/>
<polyline fill="none" stroke="#2e3436" stroke-width="1.5" points="135.5,-169 166.5,-169 "/>
<path fill="none" stroke="#2e3436" stroke-width="1.5" d="M166.5,-169C172.5,-169 178.5,-175 178.5,-181"/>
<polyline fill="none" stroke="#2e3436" stroke-width="1.5" points="178.5,-181 178.5,-193 "/>
<path fill="none" stroke="#2e3436" stroke-width="1.5" d="M178.5,-193C178.5,-199 172.5,-205 166.5,-205"/>
<polyline fill="none" stroke="#2e3436" stroke-width="1.5" points="166.5,-205 135.5,-205 "/>
<path fill="none" stroke="#2e3436" stroke-width="1.5" d="M135.5,-205C129.5,-205 123.5,-199 123.5,-193"/>
<polyline fill="none" stroke="#2e3436" stroke-width="1.5" points="123.5,-193 123.5,-181 "/>
<path fill="none" stroke="#2e3436" stroke-width="1.5" d="M123.5,-181C123.5,-175 129.5,-169 135.5,-169"/>
<text text-anchor="middle" x="151" y="-193.8" font-family="FreeSans" font-size="8.00" fill="#1c2021">Node[42]</text>
<polyline fill="none" stroke="#2e3436" stroke-width="1.5" points="123.5,-187 178.5,-187 "/>
<text text-anchor="middle" x="151" y="-175.8" font-family="FreeSans" font-size="8.00" fill="#1c2021"> </text>
</g>
</g>
</svg>
