<?xml version="1.0" encoding="UTF-8" standalone="no"?>
<!DOCTYPE svg PUBLIC "-//W3C//DTD SVG 1.1//EN"
 "http://www.w3.org/Graphics/SVG/1.1/DTD/svg11.dtd">
<!-- Generated by graphviz version 2.26.3 (20100126.1600)
 -->
<!-- Title: g Pages: 1 -->
<svg width="94pt" height="130pt"
 viewBox="0.00 0.00 94.00 130.00" xmlns="http://www.w3.org/2000/svg" xmlns:xlink="http://www.w3.org/1999/xlink">
<g id="graph1" class="graph" transform="scale(1 1) rotate(0) translate(4 126)">
<title>g</title>
<polygon fill="white" stroke="white" points="-4,5 -4,-126 91,-126 91,5 -4,5"/>
<!-- N8 -->
<g id="node1" class="node"><title>N8</title>
<polygon fill="#ffffff" stroke="#ffffff" stroke-width="1.5" points="16,-1 70,-1 82,-13 82,-25 70,-37 16,-37 4,-25 4,-13 16,-1"/>
<path fill="#ffffff" stroke="#ffffff" stroke-width="1.5" d="M70,-1C76,-1 82,-7 82,-13"/>
<path fill="#ffffff" stroke="#ffffff" stroke-width="1.5" d="M82,-25C82,-31 76,-37 70,-37"/>
<path fill="#ffffff" stroke="#ffffff" stroke-width="1.5" d="M16,-37C10,-37 4,-31 4,-25"/>
<path fill="#ffffff" stroke="#ffffff" stroke-width="1.5" d="M4,-13C4,-7 10,-1 16,-1"/>
<polyline fill="none" stroke="#2e3436" stroke-width="1.5" points="16,-1 70,-1 "/>
<path fill="none" stroke="#2e3436" stroke-width="1.5" d="M70,-1C76,-1 82,-7 82,-13"/>
<polyline fill="none" stroke="#2e3436" stroke-width="1.5" points="82,-13 82,-25 "/>
<path fill="none" stroke="#2e3436" stroke-width="1.5" d="M82,-25C82,-31 76,-37 70,-37"/>
<polyline fill="none" stroke="#2e3436" stroke-width="1.5" points="70,-37 16,-37 "/>
<path fill="none" stroke="#2e3436" stroke-width="1.5" d="M16,-37C10,-37 4,-31 4,-25"/>
<polyline fill="none" stroke="#2e3436" stroke-width="1.5" points="4,-25 4,-13 "/>
<path fill="none" stroke="#2e3436" stroke-width="1.5" d="M4,-13C4,-7 10,-1 16,-1"/>
<text text-anchor="middle" x="43" y="-25.8" font-family="FreeSans" font-size="8.00" fill="#1c2021">Node[8]</text>
<polyline fill="none" stroke="#2e3436" stroke-width="1.5" points="4,-19 82,-19 "/>
<text text-anchor="start" x="12" y="-7.8" font-family="FreeSans" font-size="8.00" fill="#1c2021">name = &#39;Juliet&#39;</text>
</g>
<!-- N9 -->
<g id="node2" class="node"><title>N9</title>
<polygon fill="#ffffff" stroke="#ffffff" stroke-width="1.5" points="11.5,-85 74.5,-85 86.5,-97 86.5,-109 74.5,-121 11.5,-121 -0.5,-109 -0.5,-97 11.5,-85"/>
<path fill="#ffffff" stroke="#ffffff" stroke-width="1.5" d="M74.5,-85C80.5,-85 86.5,-91 86.5,-97"/>
<path fill="#ffffff" stroke="#ffffff" stroke-width="1.5" d="M86.5,-109C86.5,-115 80.5,-121 74.5,-121"/>
<path fill="#ffffff" stroke="#ffffff" stroke-width="1.5" d="M11.5,-121C5.5,-121 -0.5,-115 -0.5,-109"/>
<path fill="#ffffff" stroke="#ffffff" stroke-width="1.5" d="M-0.5,-97C-0.5,-91 5.5,-85 11.5,-85"/>
<polyline fill="none" stroke="#2e3436" stroke-width="1.5" points="11.5,-85 74.5,-85 "/>
<path fill="none" stroke="#2e3436" stroke-width="1.5" d="M74.5,-85C80.5,-85 86.5,-91 86.5,-97"/>
<polyline fill="none" stroke="#2e3436" stroke-width="1.5" points="86.5,-97 86.5,-109 "/>
<path fill="none" stroke="#2e3436" stroke-width="1.5" d="M86.5,-109C86.5,-115 80.5,-121 74.5,-121"/>
<polyline fill="none" stroke="#2e3436" stroke-width="1.5" points="74.5,-121 11.5,-121 "/>
<path fill="none" stroke="#2e3436" stroke-width="1.5" d="M11.5,-121C5.5,-121 -0.5,-115 -0.5,-109"/>
<polyline fill="none" stroke="#2e3436" stroke-width="1.5" points="-0.5,-109 -0.5,-97 "/>
<path fill="none" stroke="#2e3436" stroke-width="1.5" d="M-0.5,-97C-0.5,-91 5.5,-85 11.5,-85"/>
<text text-anchor="middle" x="43" y="-109.8" font-family="FreeSans" font-size="8.00" fill="#1c2021">Node[9]</text>
<polyline fill="none" stroke="#2e3436" stroke-width="1.5" points="-0.5,-103 86.5,-103 "/>
<text text-anchor="start" x="7.5" y="-91.8" font-family="FreeSans" font-size="8.00" fill="#1c2021">name = &#39;Romeo&#39;</text>
</g>
<!-- N9&#45;&gt;N8 -->
<g id="edge2" class="edge"><title>N9&#45;&gt;N8</title>
<path fill="none" stroke="#2e3436" stroke-width="2" d="M43,-84.7733C43,-73.1053 43,-57.7874 43,-44.8699"/>
<polygon fill="#2e3436" stroke="#2e3436" points="43,-37.1912 46.3751,-44.6911 43.5,-40.9412 43.5001,-44.6912 43.0001,-44.6912 42.5001,-44.6912 42.5,-40.9412 39.6251,-44.6912 43,-37.1912 43,-37.1912"/>
<text text-anchor="middle" x="57" y="-58.8" font-family="FreeSans" font-size="8.00" fill="#2e3436">LOVES</text>
</g>
</g>
</svg>
