<?xml version="1.0" encoding="UTF-8" standalone="no"?>
<!DOCTYPE svg PUBLIC "-//W3C//DTD SVG 1.1//EN"
 "http://www.w3.org/Graphics/SVG/1.1/DTD/svg11.dtd">
<!-- Generated by graphviz version 2.26.3 (20100126.1600)
 -->
<!-- Title: g Pages: 1 -->
<svg width="105pt" height="140pt"
 viewBox="0.00 0.00 105.00 140.00" xmlns="http://www.w3.org/2000/svg" xmlns:xlink="http://www.w3.org/1999/xlink">
<g id="graph1" class="graph" transform="scale(1 1) rotate(0) translate(4 136)">
<title>g</title>
<polygon fill="white" stroke="white" points="-4,5 -4,-136 102,-136 102,5 -4,5"/>
<!-- N20 -->
<g id="node1" class="node"><title>N20</title>
<polygon fill="#ffffff" stroke="#ffffff" stroke-width="1.5" points="16,-1 70,-1 82,-13 82,-25 70,-37 16,-37 4,-25 4,-13 16,-1"/>
<path fill="#ffffff" stroke="#ffffff" stroke-width="1.5" d="M70,-1C76,-1 82,-7 82,-13"/>
<path fill="#ffffff" stroke="#ffffff" stroke-width="1.5" d="M82,-25C82,-31 76,-37 70,-37"/>
<path fill="#ffffff" stroke="#ffffff" stroke-width="1.5" d="M16,-37C10,-37 4,-31 4,-25"/>
<path fill="#ffffff" stroke="#ffffff" stroke-width="1.5" d="M4,-13C4,-7 10,-1 16,-1"/>
<polyline fill="none" stroke="#2e3436" stroke-width="1.5" points="16,-1 70,-1 "/>
<path fill="none" stroke="#2e3436" stroke-width="1.5" d="M70,-1C76,-1 82,-7 82,-13"/>
<polyline fill="none" stroke="#2e3436" stroke-width="1.5" points="82,-13 82,-25 "/>
<path fill="none" stroke="#2e3436" stroke-width="1.5" d="M82,-25C82,-31 76,-37 70,-37"/>
<polyline fill="none" stroke="#2e3436" stroke-width="1.5" points="70,-37 16,-37 "/>
<path fill="none" stroke="#2e3436" stroke-width="1.5" d="M16,-37C10,-37 4,-31 4,-25"/>
<polyline fill="none" stroke="#2e3436" stroke-width="1.5" points="4,-25 4,-13 "/>
<path fill="none" stroke="#2e3436" stroke-width="1.5" d="M4,-13C4,-7 10,-1 16,-1"/>
<text text-anchor="middle" x="43" y="-25.8" font-family="FreeSans" font-size="8.00" fill="#1c2021">Node[20]</text>
<polyline fill="none" stroke="#2e3436" stroke-width="1.5" points="4,-19 82,-19 "/>
<text text-anchor="start" x="12" y="-7.8" font-family="FreeSans" font-size="8.00" fill="#1c2021">name = &#39;Juliet&#39;</text>
</g>
<!-- N21 -->
<g id="node2" class="node"><title>N21</title>
<polygon fill="#ffffff" stroke="#ffffff" stroke-width="1.5" points="11.5,-95 74.5,-95 86.5,-107 86.5,-119 74.5,-131 11.5,-131 -0.5,-119 -0.5,-107 11.5,-95"/>
<path fill="#ffffff" stroke="#ffffff" stroke-width="1.5" d="M74.5,-95C80.5,-95 86.5,-101 86.5,-107"/>
<path fill="#ffffff" stroke="#ffffff" stroke-width="1.5" d="M86.5,-119C86.5,-125 80.5,-131 74.5,-131"/>
<path fill="#ffffff" stroke="#ffffff" stroke-width="1.5" d="M11.5,-131C5.5,-131 -0.5,-125 -0.5,-119"/>
<path fill="#ffffff" stroke="#ffffff" stroke-width="1.5" d="M-0.5,-107C-0.5,-101 5.5,-95 11.5,-95"/>
<polyline fill="none" stroke="#2e3436" stroke-width="1.5" points="11.5,-95 74.5,-95 "/>
<path fill="none" stroke="#2e3436" stroke-width="1.5" d="M74.5,-95C80.5,-95 86.5,-101 86.5,-107"/>
<polyline fill="none" stroke="#2e3436" stroke-width="1.5" points="86.5,-107 86.5,-119 "/>
<path fill="none" stroke="#2e3436" stroke-width="1.5" d="M86.5,-119C86.5,-125 80.5,-131 74.5,-131"/>
<polyline fill="none" stroke="#2e3436" stroke-width="1.5" points="74.5,-131 11.5,-131 "/>
<path fill="none" stroke="#2e3436" stroke-width="1.5" d="M11.5,-131C5.5,-131 -0.5,-125 -0.5,-119"/>
<polyline fill="none" stroke="#2e3436" stroke-width="1.5" points="-0.5,-119 -0.5,-107 "/>
<path fill="none" stroke="#2e3436" stroke-width="1.5" d="M-0.5,-107C-0.5,-101 5.5,-95 11.5,-95"/>
<text text-anchor="middle" x="43" y="-119.8" font-family="FreeSans" font-size="8.00" fill="#1c2021">Node[21]</text>
<polyline fill="none" stroke="#2e3436" stroke-width="1.5" points="-0.5,-113 86.5,-113 "/>
<text text-anchor="start" x="7.5" y="-101.8" font-family="FreeSans" font-size="8.00" fill="#1c2021">name = &#39;Romeo&#39;</text>
</g>
<!-- N21&#45;&gt;N20 -->
<g id="edge2" class="edge"><title>N21&#45;&gt;N20</title>
<path fill="none" stroke="#2e3436" stroke-width="2" d="M43,-94.8759C43,-80.7014 43,-60.806 43,-44.944"/>
<polygon fill="#2e3436" stroke="#2e3436" points="43,-37.0685 46.3751,-44.5685 43.5,-40.8185 43.5001,-44.5685 43.0001,-44.5685 42.5001,-44.5685 42.5,-40.8185 39.6251,-44.5685 43,-37.0685 43,-37.0685"/>
<text text-anchor="middle" x="70" y="-68.8" font-family="FreeSans" font-size="8.00" fill="#2e3436">LOVES</text>
<text text-anchor="start" x="43" y="-58.8" font-family="FreeSans" font-size="8.00" fill="#2e3436">cost = &#39;high&#39;</text>
</g>
</g>
</svg>
