<?xml version="1.0" encoding="UTF-8" standalone="no"?>
<!DOCTYPE svg PUBLIC "-//W3C//DTD SVG 1.1//EN"
 "http://www.w3.org/Graphics/SVG/1.1/DTD/svg11.dtd">
<!-- Generated by graphviz version 2.26.3 (20100126.1600)
 -->
<!-- Title: g Pages: 1 -->
<svg width="460pt" height="648pt"
 viewBox="0.00 0.00 460.23 648.00" xmlns="http://www.w3.org/2000/svg" xmlns:xlink="http://www.w3.org/1999/xlink">
<g id="graph1" class="graph" transform="scale(0.920455 0.920455) rotate(0) translate(4 700)">
<title>g</title>
<polygon fill="white" stroke="white" points="-4,5 -4,-700 497,-700 497,5 -4,5"/>
<!-- N304 -->
<g id="node1" class="node"><title>N304</title>
<polygon fill="#ffffff" stroke="#ffffff" stroke-width="1.5" points="11.5,-95 48.5,-95 60.5,-107 60.5,-119 48.5,-131 11.5,-131 -0.5,-119 -0.5,-107 11.5,-95"/>
<path fill="#ffffff" stroke="#ffffff" stroke-width="1.5" d="M48.5,-95C54.5,-95 60.5,-101 60.5,-107"/>
<path fill="#ffffff" stroke="#ffffff" stroke-width="1.5" d="M60.5,-119C60.5,-125 54.5,-131 48.5,-131"/>
<path fill="#ffffff" stroke="#ffffff" stroke-width="1.5" d="M11.5,-131C5.5,-131 -0.5,-125 -0.5,-119"/>
<path fill="#ffffff" stroke="#ffffff" stroke-width="1.5" d="M-0.5,-107C-0.5,-101 5.5,-95 11.5,-95"/>
<polyline fill="none" stroke="#2e3436" stroke-width="1.5" points="11.5,-95 48.5,-95 "/>
<path fill="none" stroke="#2e3436" stroke-width="1.5" d="M48.5,-95C54.5,-95 60.5,-101 60.5,-107"/>
<polyline fill="none" stroke="#2e3436" stroke-width="1.5" points="60.5,-107 60.5,-119 "/>
<path fill="none" stroke="#2e3436" stroke-width="1.5" d="M60.5,-119C60.5,-125 54.5,-131 48.5,-131"/>
<polyline fill="none" stroke="#2e3436" stroke-width="1.5" points="48.5,-131 11.5,-131 "/>
<path fill="none" stroke="#2e3436" stroke-width="1.5" d="M11.5,-131C5.5,-131 -0.5,-125 -0.5,-119"/>
<polyline fill="none" stroke="#2e3436" stroke-width="1.5" points="-0.5,-119 -0.5,-107 "/>
<path fill="none" stroke="#2e3436" stroke-width="1.5" d="M-0.5,-107C-0.5,-101 5.5,-95 11.5,-95"/>
<text text-anchor="middle" x="30" y="-119.8" font-family="FreeSans" font-size="8.00" fill="#1c2021">Node[304]</text>
<polyline fill="none" stroke="#2e3436" stroke-width="1.5" points="-0.5,-113 60.5,-113 "/>
<text text-anchor="start" x="7.5" y="-101.8" font-family="FreeSans" font-size="8.00" fill="#1c2021">name = &#39;f&#39;</text>
</g>
<!-- N305 -->
<g id="node2" class="node"><title>N305</title>
<polygon fill="#ffffff" stroke="#ffffff" stroke-width="1.5" points="138.5,-283 177.5,-283 189.5,-295 189.5,-307 177.5,-319 138.5,-319 126.5,-307 126.5,-295 138.5,-283"/>
<path fill="#ffffff" stroke="#ffffff" stroke-width="1.5" d="M177.5,-283C183.5,-283 189.5,-289 189.5,-295"/>
<path fill="#ffffff" stroke="#ffffff" stroke-width="1.5" d="M189.5,-307C189.5,-313 183.5,-319 177.5,-319"/>
<path fill="#ffffff" stroke="#ffffff" stroke-width="1.5" d="M138.5,-319C132.5,-319 126.5,-313 126.5,-307"/>
<path fill="#ffffff" stroke="#ffffff" stroke-width="1.5" d="M126.5,-295C126.5,-289 132.5,-283 138.5,-283"/>
<polyline fill="none" stroke="#2e3436" stroke-width="1.5" points="138.5,-283 177.5,-283 "/>
<path fill="none" stroke="#2e3436" stroke-width="1.5" d="M177.5,-283C183.5,-283 189.5,-289 189.5,-295"/>
<polyline fill="none" stroke="#2e3436" stroke-width="1.5" points="189.5,-295 189.5,-307 "/>
<path fill="none" stroke="#2e3436" stroke-width="1.5" d="M189.5,-307C189.5,-313 183.5,-319 177.5,-319"/>
<polyline fill="none" stroke="#2e3436" stroke-width="1.5" points="177.5,-319 138.5,-319 "/>
<path fill="none" stroke="#2e3436" stroke-width="1.5" d="M138.5,-319C132.5,-319 126.5,-313 126.5,-307"/>
<polyline fill="none" stroke="#2e3436" stroke-width="1.5" points="126.5,-307 126.5,-295 "/>
<path fill="none" stroke="#2e3436" stroke-width="1.5" d="M126.5,-295C126.5,-289 132.5,-283 138.5,-283"/>
<text text-anchor="middle" x="158" y="-307.8" font-family="FreeSans" font-size="8.00" fill="#1c2021">Node[305]</text>
<polyline fill="none" stroke="#2e3436" stroke-width="1.5" points="126.5,-301 189.5,-301 "/>
<text text-anchor="start" x="134.5" y="-289.8" font-family="FreeSans" font-size="8.00" fill="#1c2021">name = &#39;d&#39;</text>
</g>
<!-- N312 -->
<g id="node4" class="node"><title>N312</title>
<polygon fill="#ffffff" stroke="#ffffff" stroke-width="1.5" points="254,-95 292,-95 304,-107 304,-119 292,-131 254,-131 242,-119 242,-107 254,-95"/>
<path fill="#ffffff" stroke="#ffffff" stroke-width="1.5" d="M292,-95C298,-95 304,-101 304,-107"/>
<path fill="#ffffff" stroke="#ffffff" stroke-width="1.5" d="M304,-119C304,-125 298,-131 292,-131"/>
<path fill="#ffffff" stroke="#ffffff" stroke-width="1.5" d="M254,-131C248,-131 242,-125 242,-119"/>
<path fill="#ffffff" stroke="#ffffff" stroke-width="1.5" d="M242,-107C242,-101 248,-95 254,-95"/>
<polyline fill="none" stroke="#2e3436" stroke-width="1.5" points="254,-95 292,-95 "/>
<path fill="none" stroke="#2e3436" stroke-width="1.5" d="M292,-95C298,-95 304,-101 304,-107"/>
<polyline fill="none" stroke="#2e3436" stroke-width="1.5" points="304,-107 304,-119 "/>
<path fill="none" stroke="#2e3436" stroke-width="1.5" d="M304,-119C304,-125 298,-131 292,-131"/>
<polyline fill="none" stroke="#2e3436" stroke-width="1.5" points="292,-131 254,-131 "/>
<path fill="none" stroke="#2e3436" stroke-width="1.5" d="M254,-131C248,-131 242,-125 242,-119"/>
<polyline fill="none" stroke="#2e3436" stroke-width="1.5" points="242,-119 242,-107 "/>
<path fill="none" stroke="#2e3436" stroke-width="1.5" d="M242,-107C242,-101 248,-95 254,-95"/>
<text text-anchor="middle" x="273" y="-119.8" font-family="FreeSans" font-size="8.00" fill="#1c2021">Node[312]</text>
<polyline fill="none" stroke="#2e3436" stroke-width="1.5" points="242,-113 304,-113 "/>
<text text-anchor="start" x="250" y="-101.8" font-family="FreeSans" font-size="8.00" fill="#1c2021">name = &#39;x&#39;</text>
</g>
<!-- N305&#45;&gt;N312 -->
<g id="edge2" class="edge"><title>N305&#45;&gt;N312</title>
<path fill="none" stroke="#2e3436" stroke-width="2" d="M158.382,-282.728C159.556,-259.469 163.967,-218.634 180,-188 192.237,-164.619 215.282,-145.953 235.369,-133.091"/>
<polygon fill="#2e3436" stroke="#2e3436" points="241.77,-129.12 237.176,-135.942 238.847,-131.522 235.66,-133.499 235.397,-133.074 235.133,-132.649 238.32,-130.672 233.617,-130.206 241.77,-129.12 241.77,-129.12"/>
<text text-anchor="middle" x="198.5" y="-209.8" font-family="FreeSans" font-size="8.00" fill="#2e3436">to</text>
<text text-anchor="start" x="180" y="-199.8" font-family="FreeSans" font-size="8.00" fill="#2e3436">cost = 1</text>
</g>
<!-- N306 -->
<g id="node6" class="node"><title>N306</title>
<polygon fill="#ffffff" stroke="#ffffff" stroke-width="1.5" points="49.5,-189 88.5,-189 100.5,-201 100.5,-213 88.5,-225 49.5,-225 37.5,-213 37.5,-201 49.5,-189"/>
<path fill="#ffffff" stroke="#ffffff" stroke-width="1.5" d="M88.5,-189C94.5,-189 100.5,-195 100.5,-201"/>
<path fill="#ffffff" stroke="#ffffff" stroke-width="1.5" d="M100.5,-213C100.5,-219 94.5,-225 88.5,-225"/>
<path fill="#ffffff" stroke="#ffffff" stroke-width="1.5" d="M49.5,-225C43.5,-225 37.5,-219 37.5,-213"/>
<path fill="#ffffff" stroke="#ffffff" stroke-width="1.5" d="M37.5,-201C37.5,-195 43.5,-189 49.5,-189"/>
<polyline fill="none" stroke="#2e3436" stroke-width="1.5" points="49.5,-189 88.5,-189 "/>
<path fill="none" stroke="#2e3436" stroke-width="1.5" d="M88.5,-189C94.5,-189 100.5,-195 100.5,-201"/>
<polyline fill="none" stroke="#2e3436" stroke-width="1.5" points="100.5,-201 100.5,-213 "/>
<path fill="none" stroke="#2e3436" stroke-width="1.5" d="M100.5,-213C100.5,-219 94.5,-225 88.5,-225"/>
<polyline fill="none" stroke="#2e3436" stroke-width="1.5" points="88.5,-225 49.5,-225 "/>
<path fill="none" stroke="#2e3436" stroke-width="1.5" d="M49.5,-225C43.5,-225 37.5,-219 37.5,-213"/>
<polyline fill="none" stroke="#2e3436" stroke-width="1.5" points="37.5,-213 37.5,-201 "/>
<path fill="none" stroke="#2e3436" stroke-width="1.5" d="M37.5,-201C37.5,-195 43.5,-189 49.5,-189"/>
<text text-anchor="middle" x="69" y="-213.8" font-family="FreeSans" font-size="8.00" fill="#1c2021">Node[306]</text>
<polyline fill="none" stroke="#2e3436" stroke-width="1.5" points="37.5,-207 100.5,-207 "/>
<text text-anchor="start" x="45.5" y="-195.8" font-family="FreeSans" font-size="8.00" fill="#1c2021">name = &#39;e&#39;</text>
</g>
<!-- N305&#45;&gt;N306 -->
<g id="edge4" class="edge"><title>N305&#45;&gt;N306</title>
<path fill="none" stroke="#2e3436" stroke-width="2" d="M126.305,-285.315C116.734,-279.537 106.727,-272.335 99,-264 90.5372,-254.872 83.762,-242.905 78.8068,-232.294"/>
<polygon fill="#2e3436" stroke="#2e3436" points="75.6687,-225.216 81.794,-230.704 77.6457,-228.442 79.1657,-231.87 78.7086,-232.072 78.2515,-232.275 76.7316,-228.847 75.6233,-233.44 75.6687,-225.216 75.6687,-225.216"/>
<text text-anchor="middle" x="117.5" y="-256.8" font-family="FreeSans" font-size="8.00" fill="#2e3436">to</text>
<text text-anchor="start" x="99" y="-246.8" font-family="FreeSans" font-size="8.00" fill="#2e3436">cost = 1</text>
</g>
<!-- N311 -->
<g id="node21" class="node"><title>N311</title>
<polygon fill="#ffffff" stroke="#ffffff" stroke-width="1.5" points="254,-1 292,-1 304,-13 304,-25 292,-37 254,-37 242,-25 242,-13 254,-1"/>
<path fill="#ffffff" stroke="#ffffff" stroke-width="1.5" d="M292,-1C298,-1 304,-7 304,-13"/>
<path fill="#ffffff" stroke="#ffffff" stroke-width="1.5" d="M304,-25C304,-31 298,-37 292,-37"/>
<path fill="#ffffff" stroke="#ffffff" stroke-width="1.5" d="M254,-37C248,-37 242,-31 242,-25"/>
<path fill="#ffffff" stroke="#ffffff" stroke-width="1.5" d="M242,-13C242,-7 248,-1 254,-1"/>
<polyline fill="none" stroke="#2e3436" stroke-width="1.5" points="254,-1 292,-1 "/>
<path fill="none" stroke="#2e3436" stroke-width="1.5" d="M292,-1C298,-1 304,-7 304,-13"/>
<polyline fill="none" stroke="#2e3436" stroke-width="1.5" points="304,-13 304,-25 "/>
<path fill="none" stroke="#2e3436" stroke-width="1.5" d="M304,-25C304,-31 298,-37 292,-37"/>
<polyline fill="none" stroke="#2e3436" stroke-width="1.5" points="292,-37 254,-37 "/>
<path fill="none" stroke="#2e3436" stroke-width="1.5" d="M254,-37C248,-37 242,-31 242,-25"/>
<polyline fill="none" stroke="#2e3436" stroke-width="1.5" points="242,-25 242,-13 "/>
<path fill="none" stroke="#2e3436" stroke-width="1.5" d="M242,-13C242,-7 248,-1 254,-1"/>
<text text-anchor="middle" x="273" y="-25.8" font-family="FreeSans" font-size="8.00" fill="#1c2021">Node[311]</text>
<polyline fill="none" stroke="#2e3436" stroke-width="1.5" points="242,-19 304,-19 "/>
<text text-anchor="start" x="250" y="-7.8" font-family="FreeSans" font-size="8.00" fill="#1c2021">name = &#39;y&#39;</text>
</g>
<!-- N312&#45;&gt;N311 -->
<g id="edge26" class="edge"><title>N312&#45;&gt;N311</title>
<path fill="none" stroke="#2e3436" stroke-width="2" d="M273,-94.8759C273,-80.7014 273,-60.806 273,-44.944"/>
<polygon fill="#2e3436" stroke="#2e3436" points="273,-37.0685 276.375,-44.5685 273.5,-40.8185 273.5,-44.5685 273,-44.5685 272.5,-44.5685 272.5,-40.8185 269.625,-44.5685 273,-37.0685 273,-37.0685"/>
<text text-anchor="middle" x="291.5" y="-68.8" font-family="FreeSans" font-size="8.00" fill="#2e3436">to</text>
<text text-anchor="start" x="273" y="-58.8" font-family="FreeSans" font-size="8.00" fill="#2e3436">cost = 1</text>
</g>
<!-- N306&#45;&gt;N304 -->
<g id="edge8" class="edge"><title>N306&#45;&gt;N304</title>
<path fill="none" stroke="#2e3436" stroke-width="2" d="M42.3513,-188.913C36.5482,-183.562 31.1938,-177.184 28,-170 23.7048,-160.338 23.3408,-148.82 24.3757,-138.674"/>
<polygon fill="#2e3436" stroke="#2e3436" points="25.3979,-131.237 27.7202,-139.126 25.3826,-135.02 24.8719,-138.735 24.3766,-138.667 23.8812,-138.599 24.3919,-134.884 21.033,-138.207 25.3979,-131.237 25.3979,-131.237"/>
<text text-anchor="middle" x="46.5" y="-162.8" font-family="FreeSans" font-size="8.00" fill="#2e3436">to</text>
<text text-anchor="start" x="28" y="-152.8" font-family="FreeSans" font-size="8.00" fill="#2e3436">cost = 1</text>
</g>
<!-- N306&#45;&gt;N312 -->
<g id="edge6" class="edge"><title>N306&#45;&gt;N312</title>
<path fill="none" stroke="#2e3436" stroke-width="2" d="M74.0165,-188.859C78.4931,-176.073 86.3386,-159.584 99,-150 119.95,-134.142 189.922,-123.019 234.493,-117.342"/>
<polygon fill="#2e3436" stroke="#2e3436" points="241.959,-116.411 234.934,-120.688 238.3,-117.371 234.578,-117.835 234.516,-117.339 234.455,-116.843 238.176,-116.379 234.099,-113.99 241.959,-116.411 241.959,-116.411"/>
<text text-anchor="middle" x="117.5" y="-162.8" font-family="FreeSans" font-size="8.00" fill="#2e3436">to</text>
<text text-anchor="start" x="99" y="-152.8" font-family="FreeSans" font-size="8.00" fill="#2e3436">cost = 1</text>
</g>
<!-- N307 -->
<g id="node9" class="node"><title>N307</title>
<polygon fill="#ffffff" stroke="#ffffff" stroke-width="1.5" points="354.5,-471 393.5,-471 405.5,-483 405.5,-495 393.5,-507 354.5,-507 342.5,-495 342.5,-483 354.5,-471"/>
<path fill="#ffffff" stroke="#ffffff" stroke-width="1.5" d="M393.5,-471C399.5,-471 405.5,-477 405.5,-483"/>
<path fill="#ffffff" stroke="#ffffff" stroke-width="1.5" d="M405.5,-495C405.5,-501 399.5,-507 393.5,-507"/>
<path fill="#ffffff" stroke="#ffffff" stroke-width="1.5" d="M354.5,-507C348.5,-507 342.5,-501 342.5,-495"/>
<path fill="#ffffff" stroke="#ffffff" stroke-width="1.5" d="M342.5,-483C342.5,-477 348.5,-471 354.5,-471"/>
<polyline fill="none" stroke="#2e3436" stroke-width="1.5" points="354.5,-471 393.5,-471 "/>
<path fill="none" stroke="#2e3436" stroke-width="1.5" d="M393.5,-471C399.5,-471 405.5,-477 405.5,-483"/>
<polyline fill="none" stroke="#2e3436" stroke-width="1.5" points="405.5,-483 405.5,-495 "/>
<path fill="none" stroke="#2e3436" stroke-width="1.5" d="M405.5,-495C405.5,-501 399.5,-507 393.5,-507"/>
<polyline fill="none" stroke="#2e3436" stroke-width="1.5" points="393.5,-507 354.5,-507 "/>
<path fill="none" stroke="#2e3436" stroke-width="1.5" d="M354.5,-507C348.5,-507 342.5,-501 342.5,-495"/>
<polyline fill="none" stroke="#2e3436" stroke-width="1.5" points="342.5,-495 342.5,-483 "/>
<path fill="none" stroke="#2e3436" stroke-width="1.5" d="M342.5,-483C342.5,-477 348.5,-471 354.5,-471"/>
<text text-anchor="middle" x="374" y="-495.8" font-family="FreeSans" font-size="8.00" fill="#1c2021">Node[307]</text>
<polyline fill="none" stroke="#2e3436" stroke-width="1.5" points="342.5,-489 405.5,-489 "/>
<text text-anchor="start" x="350.5" y="-477.8" font-family="FreeSans" font-size="8.00" fill="#1c2021">name = &#39;b&#39;</text>
</g>
<!-- N307&#45;&gt;N312 -->
<g id="edge10" class="edge"><title>N307&#45;&gt;N312</title>
<path fill="none" stroke="#2e3436" stroke-width="2" d="M374,-470.98C374,-452.057 374,-421.438 374,-395 374,-395 374,-395 374,-207 374,-171.186 339.549,-145.142 310.888,-129.672"/>
<polygon fill="#2e3436" stroke="#2e3436" points="304.127,-126.156 312.339,-126.622 307.685,-127.442 311.012,-129.173 310.781,-129.616 310.551,-130.06 307.224,-128.33 309.224,-132.611 304.127,-126.156 304.127,-126.156"/>
<text text-anchor="middle" x="392.5" y="-303.8" font-family="FreeSans" font-size="8.00" fill="#2e3436">to</text>
<text text-anchor="start" x="374" y="-293.8" font-family="FreeSans" font-size="8.00" fill="#2e3436">cost = 1</text>
</g>
<!-- N308 -->
<g id="node12" class="node"><title>N308</title>
<polygon fill="#ffffff" stroke="#ffffff" stroke-width="1.5" points="252,-377 290,-377 302,-389 302,-401 290,-413 252,-413 240,-401 240,-389 252,-377"/>
<path fill="#ffffff" stroke="#ffffff" stroke-width="1.5" d="M290,-377C296,-377 302,-383 302,-389"/>
<path fill="#ffffff" stroke="#ffffff" stroke-width="1.5" d="M302,-401C302,-407 296,-413 290,-413"/>
<path fill="#ffffff" stroke="#ffffff" stroke-width="1.5" d="M252,-413C246,-413 240,-407 240,-401"/>
<path fill="#ffffff" stroke="#ffffff" stroke-width="1.5" d="M240,-389C240,-383 246,-377 252,-377"/>
<polyline fill="none" stroke="#2e3436" stroke-width="1.5" points="252,-377 290,-377 "/>
<path fill="none" stroke="#2e3436" stroke-width="1.5" d="M290,-377C296,-377 302,-383 302,-389"/>
<polyline fill="none" stroke="#2e3436" stroke-width="1.5" points="302,-389 302,-401 "/>
<path fill="none" stroke="#2e3436" stroke-width="1.5" d="M302,-401C302,-407 296,-413 290,-413"/>
<polyline fill="none" stroke="#2e3436" stroke-width="1.5" points="290,-413 252,-413 "/>
<path fill="none" stroke="#2e3436" stroke-width="1.5" d="M252,-413C246,-413 240,-407 240,-401"/>
<polyline fill="none" stroke="#2e3436" stroke-width="1.5" points="240,-401 240,-389 "/>
<path fill="none" stroke="#2e3436" stroke-width="1.5" d="M240,-389C240,-383 246,-377 252,-377"/>
<text text-anchor="middle" x="271" y="-401.8" font-family="FreeSans" font-size="8.00" fill="#1c2021">Node[308]</text>
<polyline fill="none" stroke="#2e3436" stroke-width="1.5" points="240,-395 302,-395 "/>
<text text-anchor="start" x="248" y="-383.8" font-family="FreeSans" font-size="8.00" fill="#1c2021">name = &#39;c&#39;</text>
</g>
<!-- N307&#45;&gt;N308 -->
<g id="edge12" class="edge"><title>N307&#45;&gt;N308</title>
<path fill="none" stroke="#2e3436" stroke-width="2" d="M342.221,-471.915C332.96,-466.205 323.149,-459.392 315,-452 304.495,-442.471 294.66,-430.192 286.963,-419.474"/>
<polygon fill="#2e3436" stroke="#2e3436" points="282.461,-413.04 289.526,-417.249 285.02,-415.825 287.171,-418.898 286.761,-419.184 286.351,-419.471 284.201,-416.399 283.996,-421.12 282.461,-413.04 282.461,-413.04"/>
<text text-anchor="middle" x="333.5" y="-444.8" font-family="FreeSans" font-size="8.00" fill="#2e3436">to</text>
<text text-anchor="start" x="315" y="-434.8" font-family="FreeSans" font-size="8.00" fill="#2e3436">cost = 1</text>
</g>
<!-- N308&#45;&gt;N305 -->
<g id="edge18" class="edge"><title>N308&#45;&gt;N305</title>
<path fill="none" stroke="#2e3436" stroke-width="2" d="M239.665,-389.751C219.29,-384.807 193.532,-375.436 177,-358 168.972,-349.533 164.333,-337.584 161.653,-326.811"/>
<polygon fill="#2e3436" stroke="#2e3436" points="160.027,-319.242 164.902,-325.866 161.303,-322.803 162.091,-326.47 161.602,-326.575 161.113,-326.68 160.326,-323.013 158.302,-327.283 160.027,-319.242 160.027,-319.242"/>
<text text-anchor="middle" x="195.5" y="-350.8" font-family="FreeSans" font-size="8.00" fill="#2e3436">to</text>
<text text-anchor="start" x="177" y="-340.8" font-family="FreeSans" font-size="8.00" fill="#2e3436">cost = 1</text>
</g>
<!-- N308&#45;&gt;N312 -->
<g id="edge14" class="edge"><title>N308&#45;&gt;N312</title>
<path fill="none" stroke="#2e3436" stroke-width="2" d="M261.737,-376.628C248.607,-348.423 226.918,-292.61 234,-244 239.48,-206.385 253.372,-164.552 263.003,-138.508"/>
<polygon fill="#2e3436" stroke="#2e3436" points="265.719,-131.276 266.242,-139.483 264.869,-134.962 263.55,-138.473 263.082,-138.297 262.614,-138.121 263.932,-134.611 259.923,-137.111 265.719,-131.276 265.719,-131.276"/>
<text text-anchor="middle" x="252.5" y="-256.8" font-family="FreeSans" font-size="8.00" fill="#2e3436">to</text>
<text text-anchor="start" x="234" y="-246.8" font-family="FreeSans" font-size="8.00" fill="#2e3436">cost = 1</text>
</g>
<!-- N308&#45;&gt;N312 -->
<g id="edge16" class="edge"><title>N308&#45;&gt;N312</title>
<path fill="none" stroke="#2e3436" stroke-width="2" d="M272.076,-376.938C272.408,-370.916 272.751,-364.171 273,-358 276.367,-274.483 276.889,-253.578 278,-170 278.118,-161.112 278.597,-158.869 278,-150 277.752,-146.314 277.367,-142.434 276.917,-138.631"/>
<polygon fill="#2e3436" stroke="#2e3436" points="275.929,-131.017 280.241,-138.02 276.907,-134.672 277.39,-138.39 276.894,-138.455 276.399,-138.519 275.916,-134.8 273.548,-138.889 275.929,-131.017 275.929,-131.017"/>
<text text-anchor="middle" x="295.5" y="-256.8" font-family="FreeSans" font-size="8.00" fill="#2e3436">to</text>
<text text-anchor="start" x="277" y="-246.8" font-family="FreeSans" font-size="8.00" fill="#2e3436">cost = 1</text>
</g>
<!-- N309 -->
<g id="node16" class="node"><title>N309</title>
<polygon fill="#ffffff" stroke="#ffffff" stroke-width="1.5" points="399,-659 453,-659 465,-671 465,-683 453,-695 399,-695 387,-683 387,-671 399,-659"/>
<path fill="#ffffff" stroke="#ffffff" stroke-width="1.5" d="M453,-659C459,-659 465,-665 465,-671"/>
<path fill="#ffffff" stroke="#ffffff" stroke-width="1.5" d="M465,-683C465,-689 459,-695 453,-695"/>
<path fill="#ffffff" stroke="#ffffff" stroke-width="1.5" d="M399,-695C393,-695 387,-689 387,-683"/>
<path fill="#ffffff" stroke="#ffffff" stroke-width="1.5" d="M387,-671C387,-665 393,-659 399,-659"/>
<polyline fill="none" stroke="#2e3436" stroke-width="1.5" points="399,-659 453,-659 "/>
<path fill="none" stroke="#2e3436" stroke-width="1.5" d="M453,-659C459,-659 465,-665 465,-671"/>
<polyline fill="none" stroke="#2e3436" stroke-width="1.5" points="465,-671 465,-683 "/>
<path fill="none" stroke="#2e3436" stroke-width="1.5" d="M465,-683C465,-689 459,-695 453,-695"/>
<polyline fill="none" stroke="#2e3436" stroke-width="1.5" points="453,-695 399,-695 "/>
<path fill="none" stroke="#2e3436" stroke-width="1.5" d="M399,-695C393,-695 387,-689 387,-683"/>
<polyline fill="none" stroke="#2e3436" stroke-width="1.5" points="387,-683 387,-671 "/>
<path fill="none" stroke="#2e3436" stroke-width="1.5" d="M387,-671C387,-665 393,-659 399,-659"/>
<text text-anchor="middle" x="426" y="-683.8" font-family="FreeSans" font-size="8.00" fill="#1c2021">Node[309]</text>
<polyline fill="none" stroke="#2e3436" stroke-width="1.5" points="387,-677 465,-677 "/>
<text text-anchor="start" x="395" y="-665.8" font-family="FreeSans" font-size="8.00" fill="#1c2021">name = &#39;start&#39;</text>
</g>
<!-- N310 -->
<g id="node18" class="node"><title>N310</title>
<polygon fill="#ffffff" stroke="#ffffff" stroke-width="1.5" points="406.5,-565 445.5,-565 457.5,-577 457.5,-589 445.5,-601 406.5,-601 394.5,-589 394.5,-577 406.5,-565"/>
<path fill="#ffffff" stroke="#ffffff" stroke-width="1.5" d="M445.5,-565C451.5,-565 457.5,-571 457.5,-577"/>
<path fill="#ffffff" stroke="#ffffff" stroke-width="1.5" d="M457.5,-589C457.5,-595 451.5,-601 445.5,-601"/>
<path fill="#ffffff" stroke="#ffffff" stroke-width="1.5" d="M406.5,-601C400.5,-601 394.5,-595 394.5,-589"/>
<path fill="#ffffff" stroke="#ffffff" stroke-width="1.5" d="M394.5,-577C394.5,-571 400.5,-565 406.5,-565"/>
<polyline fill="none" stroke="#2e3436" stroke-width="1.5" points="406.5,-565 445.5,-565 "/>
<path fill="none" stroke="#2e3436" stroke-width="1.5" d="M445.5,-565C451.5,-565 457.5,-571 457.5,-577"/>
<polyline fill="none" stroke="#2e3436" stroke-width="1.5" points="457.5,-577 457.5,-589 "/>
<path fill="none" stroke="#2e3436" stroke-width="1.5" d="M457.5,-589C457.5,-595 451.5,-601 445.5,-601"/>
<polyline fill="none" stroke="#2e3436" stroke-width="1.5" points="445.5,-601 406.5,-601 "/>
<path fill="none" stroke="#2e3436" stroke-width="1.5" d="M406.5,-601C400.5,-601 394.5,-595 394.5,-589"/>
<polyline fill="none" stroke="#2e3436" stroke-width="1.5" points="394.5,-589 394.5,-577 "/>
<path fill="none" stroke="#2e3436" stroke-width="1.5" d="M394.5,-577C394.5,-571 400.5,-565 406.5,-565"/>
<text text-anchor="middle" x="426" y="-589.8" font-family="FreeSans" font-size="8.00" fill="#1c2021">Node[310]</text>
<polyline fill="none" stroke="#2e3436" stroke-width="1.5" points="394.5,-583 457.5,-583 "/>
<text text-anchor="start" x="402.5" y="-571.8" font-family="FreeSans" font-size="8.00" fill="#1c2021">name = &#39;a&#39;</text>
</g>
<!-- N309&#45;&gt;N310 -->
<g id="edge20" class="edge"><title>N309&#45;&gt;N310</title>
<path fill="none" stroke="#2e3436" stroke-width="2" d="M426,-658.876C426,-644.701 426,-624.806 426,-608.944"/>
<polygon fill="#2e3436" stroke="#2e3436" points="426,-601.069 429.375,-608.568 426.5,-604.818 426.5,-608.568 426,-608.569 425.5,-608.569 425.5,-604.819 422.625,-608.569 426,-601.069 426,-601.069"/>
<text text-anchor="middle" x="444.5" y="-632.8" font-family="FreeSans" font-size="8.00" fill="#2e3436">to</text>
<text text-anchor="start" x="426" y="-622.8" font-family="FreeSans" font-size="8.00" fill="#2e3436">cost = 1</text>
</g>
<!-- N310&#45;&gt;N312 -->
<g id="edge22" class="edge"><title>N310&#45;&gt;N312</title>
<path fill="none" stroke="#2e3436" stroke-width="2" d="M435.176,-564.786C443.672,-546.213 455,-516.325 455,-489 455,-489 455,-489 455,-207 455,-143.107 365.358,-122.597 311.897,-116.046"/>
<polygon fill="#2e3436" stroke="#2e3436" points="304.287,-115.178 312.121,-112.675 308.069,-115.106 311.795,-115.532 311.739,-116.028 311.682,-116.525 307.956,-116.1 311.356,-119.382 304.287,-115.178 304.287,-115.178"/>
<text text-anchor="middle" x="473.5" y="-350.8" font-family="FreeSans" font-size="8.00" fill="#2e3436">to</text>
<text text-anchor="start" x="455" y="-340.8" font-family="FreeSans" font-size="8.00" fill="#2e3436">cost = 1</text>
</g>
<!-- N310&#45;&gt;N307 -->
<g id="edge24" class="edge"><title>N310&#45;&gt;N307</title>
<path fill="none" stroke="#2e3436" stroke-width="2" d="M409.221,-564.629C404.544,-558.926 399.729,-552.441 396,-546 390.269,-536.102 385.463,-524.429 381.819,-514.233"/>
<polygon fill="#2e3436" stroke="#2e3436" points="379.375,-507.117 385.003,-513.113 381.066,-510.501 382.284,-514.047 381.811,-514.21 381.338,-514.372 380.12,-510.826 378.619,-515.306 379.375,-507.117 379.375,-507.117"/>
<text text-anchor="middle" x="414.5" y="-538.8" font-family="FreeSans" font-size="8.00" fill="#2e3436">to</text>
<text text-anchor="start" x="396" y="-528.8" font-family="FreeSans" font-size="8.00" fill="#2e3436">cost = 1</text>
</g>
</g>
</svg>
