<?xml version="1.0" encoding="UTF-8" standalone="no"?>
<!DOCTYPE svg PUBLIC "-//W3C//DTD SVG 1.1//EN"
 "http://www.w3.org/Graphics/SVG/1.1/DTD/svg11.dtd">
<!-- Generated by graphviz version 2.26.3 (20100126.1600)
 -->
<!-- Title: g Pages: 1 -->
<svg width="106pt" height="140pt"
 viewBox="0.00 0.00 106.00 140.00" xmlns="http://www.w3.org/2000/svg" xmlns:xlink="http://www.w3.org/1999/xlink">
<g id="graph1" class="graph" transform="scale(1 1) rotate(0) translate(4 136)">
<title>g</title>
<polygon fill="white" stroke="white" points="-4,5 -4,-136 103,-136 103,5 -4,5"/>
<!-- N266 -->
<g id="node1" class="node"><title>N266</title>
<polygon fill="#ffffff" stroke="#ffffff" stroke-width="1.5" points="12,-95 62,-95 74,-107 74,-119 62,-131 12,-131 0,-119 0,-107 12,-95"/>
<path fill="#ffffff" stroke="#ffffff" stroke-width="1.5" d="M62,-95C68,-95 74,-101 74,-107"/>
<path fill="#ffffff" stroke="#ffffff" stroke-width="1.5" d="M74,-119C74,-125 68,-131 62,-131"/>
<path fill="#ffffff" stroke="#ffffff" stroke-width="1.5" d="M12,-131C6,-131 0,-125 0,-119"/>
<path fill="#ffffff" stroke="#ffffff" stroke-width="1.5" d="M0,-107C0,-101 6,-95 12,-95"/>
<polyline fill="none" stroke="#2e3436" stroke-width="1.5" points="12,-95 62,-95 "/>
<path fill="none" stroke="#2e3436" stroke-width="1.5" d="M62,-95C68,-95 74,-101 74,-107"/>
<polyline fill="none" stroke="#2e3436" stroke-width="1.5" points="74,-107 74,-119 "/>
<path fill="none" stroke="#2e3436" stroke-width="1.5" d="M74,-119C74,-125 68,-131 62,-131"/>
<polyline fill="none" stroke="#2e3436" stroke-width="1.5" points="62,-131 12,-131 "/>
<path fill="none" stroke="#2e3436" stroke-width="1.5" d="M12,-131C6,-131 0,-125 0,-119"/>
<polyline fill="none" stroke="#2e3436" stroke-width="1.5" points="0,-119 0,-107 "/>
<path fill="none" stroke="#2e3436" stroke-width="1.5" d="M0,-107C0,-101 6,-95 12,-95"/>
<text text-anchor="middle" x="37" y="-119.8" font-family="FreeSans" font-size="8.00" fill="#1c2021">Node[266]</text>
<polyline fill="none" stroke="#2e3436" stroke-width="1.5" points="0,-113 74,-113 "/>
<text text-anchor="start" x="8" y="-101.8" font-family="FreeSans" font-size="8.00" fill="#1c2021">name = &#39;bob&#39;</text>
</g>
<!-- N267 -->
<g id="node3" class="node"><title>N267</title>
<polygon fill="#ffffff" stroke="#ffffff" stroke-width="1.5" points="19,-1 55,-1 67,-13 67,-25 55,-37 19,-37 7,-25 7,-13 19,-1"/>
<path fill="#ffffff" stroke="#ffffff" stroke-width="1.5" d="M55,-1C61,-1 67,-7 67,-13"/>
<path fill="#ffffff" stroke="#ffffff" stroke-width="1.5" d="M67,-25C67,-31 61,-37 55,-37"/>
<path fill="#ffffff" stroke="#ffffff" stroke-width="1.5" d="M19,-37C13,-37 7,-31 7,-25"/>
<path fill="#ffffff" stroke="#ffffff" stroke-width="1.5" d="M7,-13C7,-7 13,-1 19,-1"/>
<polyline fill="none" stroke="#2e3436" stroke-width="1.5" points="19,-1 55,-1 "/>
<path fill="none" stroke="#2e3436" stroke-width="1.5" d="M55,-1C61,-1 67,-7 67,-13"/>
<polyline fill="none" stroke="#2e3436" stroke-width="1.5" points="67,-13 67,-25 "/>
<path fill="none" stroke="#2e3436" stroke-width="1.5" d="M67,-25C67,-31 61,-37 55,-37"/>
<polyline fill="none" stroke="#2e3436" stroke-width="1.5" points="55,-37 19,-37 "/>
<path fill="none" stroke="#2e3436" stroke-width="1.5" d="M19,-37C13,-37 7,-31 7,-25"/>
<polyline fill="none" stroke="#2e3436" stroke-width="1.5" points="7,-25 7,-13 "/>
<path fill="none" stroke="#2e3436" stroke-width="1.5" d="M7,-13C7,-7 13,-1 19,-1"/>
<text text-anchor="middle" x="37" y="-25.8" font-family="FreeSans" font-size="8.00" fill="#1c2021">Node[267]</text>
<polyline fill="none" stroke="#2e3436" stroke-width="1.5" points="7,-19 67,-19 "/>
<text text-anchor="start" x="15" y="-7.8" font-family="FreeSans" font-size="8.00" fill="#1c2021">age = 12</text>
</g>
<!-- N266&#45;&gt;N267 -->
<g id="edge2" class="edge"><title>N266&#45;&gt;N267</title>
<path fill="none" stroke="#2e3436" stroke-width="2" d="M37,-94.8759C37,-80.7014 37,-60.806 37,-44.944"/>
<polygon fill="#2e3436" stroke="#2e3436" points="37,-37.0685 40.3751,-44.5685 37.5,-40.8185 37.5001,-44.5685 37.0001,-44.5685 36.5001,-44.5685 36.5,-40.8185 33.6251,-44.5685 37,-37.0685 37,-37.0685"/>
<text text-anchor="middle" x="67.5" y="-68.8" font-family="FreeSans" font-size="8.00" fill="#2e3436">KNOWS</text>
<text text-anchor="start" x="37" y="-58.8" font-family="FreeSans" font-size="8.00" fill="#2e3436">since = &#39;2010&#39;</text>
</g>
</g>
</svg>
