<?xml version="1.0" encoding="UTF-8" standalone="no"?>
<!DOCTYPE svg PUBLIC "-//W3C//DTD SVG 1.1//EN"
 "http://www.w3.org/Graphics/SVG/1.1/DTD/svg11.dtd">
<!-- Generated by graphviz version 2.26.3 (20100126.1600)
 -->
<!-- Title: g Pages: 1 -->
<svg width="88pt" height="214pt"
 viewBox="0.00 0.00 88.00 214.00" xmlns="http://www.w3.org/2000/svg" xmlns:xlink="http://www.w3.org/1999/xlink">
<g id="graph1" class="graph" transform="scale(1 1) rotate(0) translate(4 210)">
<title>g</title>
<polygon fill="white" stroke="white" points="-4,5 -4,-210 85,-210 85,5 -4,5"/>
<!-- N40 -->
<g id="node1" class="node"><title>N40</title>
<polygon fill="#ffffff" stroke="#ffffff" stroke-width="1.5" points="16.5,-169 63.5,-169 75.5,-181 75.5,-193 63.5,-205 16.5,-205 4.5,-193 4.5,-181 16.5,-169"/>
<path fill="#ffffff" stroke="#ffffff" stroke-width="1.5" d="M63.5,-169C69.5,-169 75.5,-175 75.5,-181"/>
<path fill="#ffffff" stroke="#ffffff" stroke-width="1.5" d="M75.5,-193C75.5,-199 69.5,-205 63.5,-205"/>
<path fill="#ffffff" stroke="#ffffff" stroke-width="1.5" d="M16.5,-205C10.5,-205 4.5,-199 4.5,-193"/>
<path fill="#ffffff" stroke="#ffffff" stroke-width="1.5" d="M4.5,-181C4.5,-175 10.5,-169 16.5,-169"/>
<polyline fill="none" stroke="#2e3436" stroke-width="1.5" points="16.5,-169 63.5,-169 "/>
<path fill="none" stroke="#2e3436" stroke-width="1.5" d="M63.5,-169C69.5,-169 75.5,-175 75.5,-181"/>
<polyline fill="none" stroke="#2e3436" stroke-width="1.5" points="75.5,-181 75.5,-193 "/>
<path fill="none" stroke="#2e3436" stroke-width="1.5" d="M75.5,-193C75.5,-199 69.5,-205 63.5,-205"/>
<polyline fill="none" stroke="#2e3436" stroke-width="1.5" points="63.5,-205 16.5,-205 "/>
<path fill="none" stroke="#2e3436" stroke-width="1.5" d="M16.5,-205C10.5,-205 4.5,-199 4.5,-193"/>
<polyline fill="none" stroke="#2e3436" stroke-width="1.5" points="4.5,-193 4.5,-181 "/>
<path fill="none" stroke="#2e3436" stroke-width="1.5" d="M4.5,-181C4.5,-175 10.5,-169 16.5,-169"/>
<text text-anchor="middle" x="40" y="-193.8" font-family="FreeSans" font-size="8.00" fill="#1c2021">Node[40]</text>
<polyline fill="none" stroke="#2e3436" stroke-width="1.5" points="4.5,-187 75.5,-187 "/>
<text text-anchor="start" x="12.5" y="-175.8" font-family="FreeSans" font-size="8.00" fill="#1c2021">name = &#39;Ian&#39;</text>
</g>
<!-- N41 -->
<g id="node3" class="node"><title>N41</title>
<polygon fill="#ffffff" stroke="#ffffff" stroke-width="1.5" points="12,-85 68,-85 80,-97 80,-109 68,-121 12,-121 0,-109 0,-97 12,-85"/>
<path fill="#ffffff" stroke="#ffffff" stroke-width="1.5" d="M68,-85C74,-85 80,-91 80,-97"/>
<path fill="#ffffff" stroke="#ffffff" stroke-width="1.5" d="M80,-109C80,-115 74,-121 68,-121"/>
<path fill="#ffffff" stroke="#ffffff" stroke-width="1.5" d="M12,-121C6,-121 0,-115 0,-109"/>
<path fill="#ffffff" stroke="#ffffff" stroke-width="1.5" d="M0,-97C0,-91 6,-85 12,-85"/>
<polyline fill="none" stroke="#2e3436" stroke-width="1.5" points="12,-85 68,-85 "/>
<path fill="none" stroke="#2e3436" stroke-width="1.5" d="M68,-85C74,-85 80,-91 80,-97"/>
<polyline fill="none" stroke="#2e3436" stroke-width="1.5" points="80,-97 80,-109 "/>
<path fill="none" stroke="#2e3436" stroke-width="1.5" d="M80,-109C80,-115 74,-121 68,-121"/>
<polyline fill="none" stroke="#2e3436" stroke-width="1.5" points="68,-121 12,-121 "/>
<path fill="none" stroke="#2e3436" stroke-width="1.5" d="M12,-121C6,-121 0,-115 0,-109"/>
<polyline fill="none" stroke="#2e3436" stroke-width="1.5" points="0,-109 0,-97 "/>
<path fill="none" stroke="#2e3436" stroke-width="1.5" d="M0,-97C0,-91 6,-85 12,-85"/>
<text text-anchor="middle" x="40" y="-109.8" font-family="FreeSans" font-size="8.00" fill="#1c2021">Node[41]</text>
<polyline fill="none" stroke="#2e3436" stroke-width="1.5" points="0,-103 80,-103 "/>
<text text-anchor="start" x="8" y="-91.8" font-family="FreeSans" font-size="8.00" fill="#1c2021">name = &#39;Peter&#39;</text>
</g>
<!-- N40&#45;&gt;N41 -->
<g id="edge2" class="edge"><title>N40&#45;&gt;N41</title>
<path fill="none" stroke="#2e3436" stroke-width="2" d="M19.1582,-168.872C14.2257,-163.362 9.63643,-156.917 7,-150 4.00938,-142.154 6.55798,-134.383 11.3249,-127.488"/>
<polygon fill="#2e3436" stroke="#2e3436" points="16.231,-121.425 14.1371,-129.378 14.2609,-124.654 11.9021,-127.57 11.5134,-127.255 11.1247,-126.941 13.4835,-124.025 8.88967,-125.132 16.231,-121.425 16.231,-121.425"/>
<text text-anchor="middle" x="21" y="-142.8" font-family="FreeSans" font-size="8.00" fill="#2e3436">knows</text>
</g>
<!-- N41&#45;&gt;N40 -->
<g id="edge4" class="edge"><title>N41&#45;&gt;N40</title>
<path fill="none" stroke="#2e3436" stroke-width="2" d="M40,-121.191C40,-132.852 40,-148.168 40,-161.091"/>
<polygon fill="#2e3436" stroke="#2e3436" points="40,-168.773 36.6251,-161.273 39.5,-165.023 39.5001,-161.273 40.0001,-161.273 40.5001,-161.273 40.5,-165.023 43.3751,-161.273 40,-168.773 40,-168.773"/>
<text text-anchor="middle" x="54" y="-142.8" font-family="FreeSans" font-size="8.00" fill="#2e3436">knows</text>
</g>
<!-- N42 -->
<g id="node6" class="node"><title>N42</title>
<polygon fill="#ffffff" stroke="#ffffff" stroke-width="1.5" points="11.5,-1 68.5,-1 80.5,-13 80.5,-25 68.5,-37 11.5,-37 -0.5,-25 -0.5,-13 11.5,-1"/>
<path fill="#ffffff" stroke="#ffffff" stroke-width="1.5" d="M68.5,-1C74.5,-1 80.5,-7 80.5,-13"/>
<path fill="#ffffff" stroke="#ffffff" stroke-width="1.5" d="M80.5,-25C80.5,-31 74.5,-37 68.5,-37"/>
<path fill="#ffffff" stroke="#ffffff" stroke-width="1.5" d="M11.5,-37C5.5,-37 -0.5,-31 -0.5,-25"/>
<path fill="#ffffff" stroke="#ffffff" stroke-width="1.5" d="M-0.5,-13C-0.5,-7 5.5,-1 11.5,-1"/>
<polyline fill="none" stroke="#2e3436" stroke-width="1.5" points="11.5,-1 68.5,-1 "/>
<path fill="none" stroke="#2e3436" stroke-width="1.5" d="M68.5,-1C74.5,-1 80.5,-7 80.5,-13"/>
<polyline fill="none" stroke="#2e3436" stroke-width="1.5" points="80.5,-13 80.5,-25 "/>
<path fill="none" stroke="#2e3436" stroke-width="1.5" d="M80.5,-25C80.5,-31 74.5,-37 68.5,-37"/>
<polyline fill="none" stroke="#2e3436" stroke-width="1.5" points="68.5,-37 11.5,-37 "/>
<path fill="none" stroke="#2e3436" stroke-width="1.5" d="M11.5,-37C5.5,-37 -0.5,-31 -0.5,-25"/>
<polyline fill="none" stroke="#2e3436" stroke-width="1.5" points="-0.5,-25 -0.5,-13 "/>
<path fill="none" stroke="#2e3436" stroke-width="1.5" d="M-0.5,-13C-0.5,-7 5.5,-1 11.5,-1"/>
<text text-anchor="middle" x="40" y="-25.8" font-family="FreeSans" font-size="8.00" fill="#1c2021">Node[42]</text>
<polyline fill="none" stroke="#2e3436" stroke-width="1.5" points="-0.5,-19 80.5,-19 "/>
<text text-anchor="start" x="7.5" y="-7.8" font-family="FreeSans" font-size="8.00" fill="#1c2021">name = &#39;Bikes&#39;</text>
</g>
<!-- N41&#45;&gt;N42 -->
<g id="edge6" class="edge"><title>N41&#45;&gt;N42</title>
<path fill="none" stroke="#4e9a06" stroke-width="2" d="M40,-84.7733C40,-73.1053 40,-57.7874 40,-44.8699"/>
<polygon fill="#4e9a06" stroke="#4e9a06" points="40,-37.1912 43.3751,-44.6911 40.5,-40.9412 40.5001,-44.6912 40.0001,-44.6912 39.5001,-44.6912 39.5,-40.9412 36.6251,-44.6912 40,-37.1912 40,-37.1912"/>
<text text-anchor="middle" x="50" y="-58.8" font-family="FreeSans" font-size="8.00" fill="#4e9a06">likes</text>
</g>
</g>
</svg>
