<?xml version="1.0" encoding="UTF-8" standalone="no"?>
<!DOCTYPE svg PUBLIC "-//W3C//DTD SVG 1.1//EN"
 "http://www.w3.org/Graphics/SVG/1.1/DTD/svg11.dtd">
<!-- Generated by graphviz version 2.26.3 (20100126.1600)
 -->
<!-- Title: g Pages: 1 -->
<svg width="415pt" height="382pt"
 viewBox="0.00 0.00 415.00 382.00" xmlns="http://www.w3.org/2000/svg" xmlns:xlink="http://www.w3.org/1999/xlink">
<g id="graph1" class="graph" transform="scale(1 1) rotate(0) translate(4 378)">
<title>g</title>
<polygon fill="white" stroke="white" points="-4,5 -4,-378 412,-378 412,5 -4,5"/>
<!-- N31 -->
<g id="node1" class="node"><title>N31</title>
<polygon fill="#ffffff" stroke="#ffffff" stroke-width="1.5" points="39,-253 107,-253 119,-265 119,-277 107,-289 39,-289 27,-277 27,-265 39,-253"/>
<path fill="#ffffff" stroke="#ffffff" stroke-width="1.5" d="M107,-253C113,-253 119,-259 119,-265"/>
<path fill="#ffffff" stroke="#ffffff" stroke-width="1.5" d="M119,-277C119,-283 113,-289 107,-289"/>
<path fill="#ffffff" stroke="#ffffff" stroke-width="1.5" d="M39,-289C33,-289 27,-283 27,-277"/>
<path fill="#ffffff" stroke="#ffffff" stroke-width="1.5" d="M27,-265C27,-259 33,-253 39,-253"/>
<polyline fill="none" stroke="#2e3436" stroke-width="1.5" points="39,-253 107,-253 "/>
<path fill="none" stroke="#2e3436" stroke-width="1.5" d="M107,-253C113,-253 119,-259 119,-265"/>
<polyline fill="none" stroke="#2e3436" stroke-width="1.5" points="119,-265 119,-277 "/>
<path fill="none" stroke="#2e3436" stroke-width="1.5" d="M119,-277C119,-283 113,-289 107,-289"/>
<polyline fill="none" stroke="#2e3436" stroke-width="1.5" points="107,-289 39,-289 "/>
<path fill="none" stroke="#2e3436" stroke-width="1.5" d="M39,-289C33,-289 27,-283 27,-277"/>
<polyline fill="none" stroke="#2e3436" stroke-width="1.5" points="27,-277 27,-265 "/>
<path fill="none" stroke="#2e3436" stroke-width="1.5" d="M27,-265C27,-259 33,-253 39,-253"/>
<text text-anchor="middle" x="73" y="-277.8" font-family="FreeSans" font-size="8.00" fill="#1c2021">Node[31]</text>
<polyline fill="none" stroke="#2e3436" stroke-width="1.5" points="27,-271 119,-271 "/>
<text text-anchor="start" x="35" y="-259.8" font-family="FreeSans" font-size="8.00" fill="#1c2021">name = &#39;U1G2R1&#39;</text>
</g>
<!-- N35 -->
<g id="node3" class="node"><title>N35</title>
<polygon fill="#ffffff" stroke="#ffffff" stroke-width="1.5" points="11.5,-85 68.5,-85 80.5,-97 80.5,-109 68.5,-121 11.5,-121 -0.5,-109 -0.5,-97 11.5,-85"/>
<path fill="#ffffff" stroke="#ffffff" stroke-width="1.5" d="M68.5,-85C74.5,-85 80.5,-91 80.5,-97"/>
<path fill="#ffffff" stroke="#ffffff" stroke-width="1.5" d="M80.5,-109C80.5,-115 74.5,-121 68.5,-121"/>
<path fill="#ffffff" stroke="#ffffff" stroke-width="1.5" d="M11.5,-121C5.5,-121 -0.5,-115 -0.5,-109"/>
<path fill="#ffffff" stroke="#ffffff" stroke-width="1.5" d="M-0.5,-97C-0.5,-91 5.5,-85 11.5,-85"/>
<polyline fill="none" stroke="#2e3436" stroke-width="1.5" points="11.5,-85 68.5,-85 "/>
<path fill="none" stroke="#2e3436" stroke-width="1.5" d="M68.5,-85C74.5,-85 80.5,-91 80.5,-97"/>
<polyline fill="none" stroke="#2e3436" stroke-width="1.5" points="80.5,-97 80.5,-109 "/>
<path fill="none" stroke="#2e3436" stroke-width="1.5" d="M80.5,-109C80.5,-115 74.5,-121 68.5,-121"/>
<polyline fill="none" stroke="#2e3436" stroke-width="1.5" points="68.5,-121 11.5,-121 "/>
<path fill="none" stroke="#2e3436" stroke-width="1.5" d="M11.5,-121C5.5,-121 -0.5,-115 -0.5,-109"/>
<polyline fill="none" stroke="#2e3436" stroke-width="1.5" points="-0.5,-109 -0.5,-97 "/>
<path fill="none" stroke="#2e3436" stroke-width="1.5" d="M-0.5,-97C-0.5,-91 5.5,-85 11.5,-85"/>
<text text-anchor="middle" x="40" y="-109.8" font-family="FreeSans" font-size="8.00" fill="#1c2021">Node[35]</text>
<polyline fill="none" stroke="#2e3436" stroke-width="1.5" points="-0.5,-103 80.5,-103 "/>
<text text-anchor="start" x="7.5" y="-91.8" font-family="FreeSans" font-size="8.00" fill="#1c2021">name = &#39;Role1&#39;</text>
</g>
<!-- N31&#45;&gt;N35 -->
<g id="edge2" class="edge"><title>N31&#45;&gt;N35</title>
<path fill="none" stroke="#2e3436" stroke-width="2" d="M46.6976,-252.924C32.3217,-241.376 15.8783,-225.02 8,-206 -2.7982,-179.931 10.2039,-148.863 22.7283,-127.715"/>
<polygon fill="#2e3436" stroke="#2e3436" points="26.7471,-121.216 25.673,-129.37 25.2001,-124.668 23.2278,-127.858 22.8025,-127.595 22.3772,-127.332 24.3495,-124.142 19.932,-125.82 26.7471,-121.216 26.7471,-121.216"/>
<text text-anchor="middle" x="25" y="-184.8" font-family="FreeSans" font-size="8.00" fill="#2e3436">hasRole</text>
</g>
<!-- N34 -->
<g id="node5" class="node"><title>N34</title>
<polygon fill="#ffffff" stroke="#ffffff" stroke-width="1.5" points="67.5,-169 132.5,-169 144.5,-181 144.5,-193 132.5,-205 67.5,-205 55.5,-193 55.5,-181 67.5,-169"/>
<path fill="#ffffff" stroke="#ffffff" stroke-width="1.5" d="M132.5,-169C138.5,-169 144.5,-175 144.5,-181"/>
<path fill="#ffffff" stroke="#ffffff" stroke-width="1.5" d="M144.5,-193C144.5,-199 138.5,-205 132.5,-205"/>
<path fill="#ffffff" stroke="#ffffff" stroke-width="1.5" d="M67.5,-205C61.5,-205 55.5,-199 55.5,-193"/>
<path fill="#ffffff" stroke="#ffffff" stroke-width="1.5" d="M55.5,-181C55.5,-175 61.5,-169 67.5,-169"/>
<polyline fill="none" stroke="#2e3436" stroke-width="1.5" points="67.5,-169 132.5,-169 "/>
<path fill="none" stroke="#2e3436" stroke-width="1.5" d="M132.5,-169C138.5,-169 144.5,-175 144.5,-181"/>
<polyline fill="none" stroke="#2e3436" stroke-width="1.5" points="144.5,-181 144.5,-193 "/>
<path fill="none" stroke="#2e3436" stroke-width="1.5" d="M144.5,-193C144.5,-199 138.5,-205 132.5,-205"/>
<polyline fill="none" stroke="#2e3436" stroke-width="1.5" points="132.5,-205 67.5,-205 "/>
<path fill="none" stroke="#2e3436" stroke-width="1.5" d="M67.5,-205C61.5,-205 55.5,-199 55.5,-193"/>
<polyline fill="none" stroke="#2e3436" stroke-width="1.5" points="55.5,-193 55.5,-181 "/>
<path fill="none" stroke="#2e3436" stroke-width="1.5" d="M55.5,-181C55.5,-175 61.5,-169 67.5,-169"/>
<text text-anchor="middle" x="100" y="-193.8" font-family="FreeSans" font-size="8.00" fill="#1c2021">Node[34]</text>
<polyline fill="none" stroke="#2e3436" stroke-width="1.5" points="55.5,-187 144.5,-187 "/>
<text text-anchor="start" x="63.5" y="-175.8" font-family="FreeSans" font-size="8.00" fill="#1c2021">name = &#39;Group2&#39;</text>
</g>
<!-- N31&#45;&gt;N34 -->
<g id="edge4" class="edge"><title>N31&#45;&gt;N34</title>
<path fill="none" stroke="#4e9a06" stroke-width="2" d="M78.8586,-252.773C82.6444,-240.995 87.6256,-225.498 91.802,-212.505"/>
<polygon fill="#4e9a06" stroke="#4e9a06" points="94.1528,-205.191 95.0708,-213.364 93.4813,-208.914 92.3337,-212.484 91.8577,-212.331 91.3817,-212.178 92.5293,-208.608 88.6446,-211.299 94.1528,-205.191 94.1528,-205.191"/>
<text text-anchor="middle" x="108.5" y="-226.8" font-family="FreeSans" font-size="8.00" fill="#4e9a06">hasGroup</text>
</g>
<!-- N36 -->
<g id="node8" class="node"><title>N36</title>
<polygon fill="#ffffff" stroke="#ffffff" stroke-width="1.5" points="186,-1 238,-1 250,-13 250,-25 238,-37 186,-37 174,-25 174,-13 186,-1"/>
<path fill="#ffffff" stroke="#ffffff" stroke-width="1.5" d="M238,-1C244,-1 250,-7 250,-13"/>
<path fill="#ffffff" stroke="#ffffff" stroke-width="1.5" d="M250,-25C250,-31 244,-37 238,-37"/>
<path fill="#ffffff" stroke="#ffffff" stroke-width="1.5" d="M186,-37C180,-37 174,-31 174,-25"/>
<path fill="#ffffff" stroke="#ffffff" stroke-width="1.5" d="M174,-13C174,-7 180,-1 186,-1"/>
<polyline fill="none" stroke="#2e3436" stroke-width="1.5" points="186,-1 238,-1 "/>
<path fill="none" stroke="#2e3436" stroke-width="1.5" d="M238,-1C244,-1 250,-7 250,-13"/>
<polyline fill="none" stroke="#2e3436" stroke-width="1.5" points="250,-13 250,-25 "/>
<path fill="none" stroke="#2e3436" stroke-width="1.5" d="M250,-25C250,-31 244,-37 238,-37"/>
<polyline fill="none" stroke="#2e3436" stroke-width="1.5" points="238,-37 186,-37 "/>
<path fill="none" stroke="#2e3436" stroke-width="1.5" d="M186,-37C180,-37 174,-31 174,-25"/>
<polyline fill="none" stroke="#2e3436" stroke-width="1.5" points="174,-25 174,-13 "/>
<path fill="none" stroke="#2e3436" stroke-width="1.5" d="M174,-13C174,-7 180,-1 186,-1"/>
<text text-anchor="middle" x="212" y="-25.8" font-family="FreeSans" font-size="8.00" fill="#1c2021">Node[36]</text>
<polyline fill="none" stroke="#2e3436" stroke-width="1.5" points="174,-19 250,-19 "/>
<text text-anchor="start" x="182" y="-7.8" font-family="FreeSans" font-size="8.00" fill="#1c2021">name = &#39;Role&#39;</text>
</g>
<!-- N35&#45;&gt;N36 -->
<g id="edge20" class="edge"><title>N35&#45;&gt;N36</title>
<path fill="none" stroke="#a40000" stroke-width="2" d="M76.8983,-84.9799C103.561,-71.9587 139.692,-54.3131 167.881,-40.5463"/>
<polygon fill="#a40000" stroke="#a40000" points="174.866,-37.135 169.608,-43.459 171.716,-39.23 168.347,-40.8756 168.127,-40.4264 167.908,-39.9771 171.277,-38.3314 166.646,-37.3937 174.866,-37.135 174.866,-37.135"/>
<text text-anchor="middle" x="137.5" y="-58.8" font-family="FreeSans" font-size="8.00" fill="#a40000">isA</text>
</g>
<!-- N34&#45;&gt;N35 -->
<g id="edge16" class="edge"><title>N34&#45;&gt;N35</title>
<path fill="none" stroke="#204a87" stroke-width="2" d="M55.4029,-173.875C44.2155,-168.356 33.5444,-160.654 27,-150 23.0119,-143.508 23.4347,-135.771 25.6599,-128.468"/>
<polygon fill="#204a87" stroke="#204a87" points="28.3893,-121.371 28.8471,-129.583 27.5098,-125.05 26.1637,-128.551 25.697,-128.371 25.2303,-128.192 26.5765,-124.691 22.5469,-127.16 28.3893,-121.371 28.3893,-121.371"/>
<text text-anchor="middle" x="45.5" y="-142.8" font-family="FreeSans" font-size="8.00" fill="#204a87">canHave</text>
</g>
<!-- N32 -->
<g id="node6" class="node"><title>N32</title>
<polygon fill="#ffffff" stroke="#ffffff" stroke-width="1.5" points="296.5,-85 353.5,-85 365.5,-97 365.5,-109 353.5,-121 296.5,-121 284.5,-109 284.5,-97 296.5,-85"/>
<path fill="#ffffff" stroke="#ffffff" stroke-width="1.5" d="M353.5,-85C359.5,-85 365.5,-91 365.5,-97"/>
<path fill="#ffffff" stroke="#ffffff" stroke-width="1.5" d="M365.5,-109C365.5,-115 359.5,-121 353.5,-121"/>
<path fill="#ffffff" stroke="#ffffff" stroke-width="1.5" d="M296.5,-121C290.5,-121 284.5,-115 284.5,-109"/>
<path fill="#ffffff" stroke="#ffffff" stroke-width="1.5" d="M284.5,-97C284.5,-91 290.5,-85 296.5,-85"/>
<polyline fill="none" stroke="#2e3436" stroke-width="1.5" points="296.5,-85 353.5,-85 "/>
<path fill="none" stroke="#2e3436" stroke-width="1.5" d="M353.5,-85C359.5,-85 365.5,-91 365.5,-97"/>
<polyline fill="none" stroke="#2e3436" stroke-width="1.5" points="365.5,-97 365.5,-109 "/>
<path fill="none" stroke="#2e3436" stroke-width="1.5" d="M365.5,-109C365.5,-115 359.5,-121 353.5,-121"/>
<polyline fill="none" stroke="#2e3436" stroke-width="1.5" points="353.5,-121 296.5,-121 "/>
<path fill="none" stroke="#2e3436" stroke-width="1.5" d="M296.5,-121C290.5,-121 284.5,-115 284.5,-109"/>
<polyline fill="none" stroke="#2e3436" stroke-width="1.5" points="284.5,-109 284.5,-97 "/>
<path fill="none" stroke="#2e3436" stroke-width="1.5" d="M284.5,-97C284.5,-91 290.5,-85 296.5,-85"/>
<text text-anchor="middle" x="325" y="-109.8" font-family="FreeSans" font-size="8.00" fill="#1c2021">Node[32]</text>
<polyline fill="none" stroke="#2e3436" stroke-width="1.5" points="284.5,-103 365.5,-103 "/>
<text text-anchor="start" x="292.5" y="-91.8" font-family="FreeSans" font-size="8.00" fill="#1c2021">name = &#39;Role2&#39;</text>
</g>
<!-- N34&#45;&gt;N32 -->
<g id="edge14" class="edge"><title>N34&#45;&gt;N32</title>
<path fill="none" stroke="#204a87" stroke-width="2" d="M140.906,-168.898C161.981,-159.811 188.191,-148.877 212,-140 233.189,-132.1 256.935,-124.186 277.171,-117.716"/>
<polygon fill="#204a87" stroke="#204a87" points="284.456,-115.401 278.33,-120.889 281.033,-117.013 277.459,-118.149 277.308,-117.673 277.156,-117.196 280.73,-116.06 276.286,-114.456 284.456,-115.401 284.456,-115.401"/>
<text text-anchor="middle" x="230.5" y="-142.8" font-family="FreeSans" font-size="8.00" fill="#204a87">canHave</text>
</g>
<!-- N39 -->
<g id="node13" class="node"><title>N39</title>
<polygon fill="#ffffff" stroke="#ffffff" stroke-width="1.5" points="163,-85 223,-85 235,-97 235,-109 223,-121 163,-121 151,-109 151,-97 163,-85"/>
<path fill="#ffffff" stroke="#ffffff" stroke-width="1.5" d="M223,-85C229,-85 235,-91 235,-97"/>
<path fill="#ffffff" stroke="#ffffff" stroke-width="1.5" d="M235,-109C235,-115 229,-121 223,-121"/>
<path fill="#ffffff" stroke="#ffffff" stroke-width="1.5" d="M163,-121C157,-121 151,-115 151,-109"/>
<path fill="#ffffff" stroke="#ffffff" stroke-width="1.5" d="M151,-97C151,-91 157,-85 163,-85"/>
<polyline fill="none" stroke="#2e3436" stroke-width="1.5" points="163,-85 223,-85 "/>
<path fill="none" stroke="#2e3436" stroke-width="1.5" d="M223,-85C229,-85 235,-91 235,-97"/>
<polyline fill="none" stroke="#2e3436" stroke-width="1.5" points="235,-97 235,-109 "/>
<path fill="none" stroke="#2e3436" stroke-width="1.5" d="M235,-109C235,-115 229,-121 223,-121"/>
<polyline fill="none" stroke="#2e3436" stroke-width="1.5" points="223,-121 163,-121 "/>
<path fill="none" stroke="#2e3436" stroke-width="1.5" d="M163,-121C157,-121 151,-115 151,-109"/>
<polyline fill="none" stroke="#2e3436" stroke-width="1.5" points="151,-109 151,-97 "/>
<path fill="none" stroke="#2e3436" stroke-width="1.5" d="M151,-97C151,-91 157,-85 163,-85"/>
<text text-anchor="middle" x="193" y="-109.8" font-family="FreeSans" font-size="8.00" fill="#1c2021">Node[39]</text>
<polyline fill="none" stroke="#2e3436" stroke-width="1.5" points="151,-103 235,-103 "/>
<text text-anchor="start" x="159" y="-91.8" font-family="FreeSans" font-size="8.00" fill="#1c2021">name = &#39;Group&#39;</text>
</g>
<!-- N34&#45;&gt;N39 -->
<g id="edge18" class="edge"><title>N34&#45;&gt;N39</title>
<path fill="none" stroke="#a40000" stroke-width="2" d="M94.3074,-168.61C92.5671,-159.285 92.3765,-148.225 98,-140 103.739,-131.606 123.461,-123.295 143.459,-116.682"/>
<polygon fill="#a40000" stroke="#a40000" points="150.814,-114.325 144.701,-119.828 147.395,-115.945 143.824,-117.09 143.672,-116.613 143.519,-116.137 147.09,-114.993 142.642,-113.399 150.814,-114.325 150.814,-114.325"/>
<text text-anchor="middle" x="104.5" y="-142.8" font-family="FreeSans" font-size="8.00" fill="#a40000">isA</text>
</g>
<!-- N32&#45;&gt;N36 -->
<g id="edge6" class="edge"><title>N32&#45;&gt;N36</title>
<path fill="none" stroke="#a40000" stroke-width="2" d="M300.759,-84.9799C283.894,-72.4431 261.262,-55.6194 243.073,-42.0982"/>
<polygon fill="#a40000" stroke="#a40000" points="236.591,-37.2801 244.624,-39.046 239.899,-39.1161 242.909,-41.3533 242.61,-41.7546 242.312,-42.1559 239.302,-39.9186 240.597,-44.4632 236.591,-37.2801 236.591,-37.2801"/>
<text text-anchor="middle" x="277.5" y="-58.8" font-family="FreeSans" font-size="8.00" fill="#a40000">isA</text>
</g>
<!-- N33 -->
<g id="node9" class="node"><title>N33</title>
<polygon fill="#ffffff" stroke="#ffffff" stroke-width="1.5" points="256.5,-169 321.5,-169 333.5,-181 333.5,-193 321.5,-205 256.5,-205 244.5,-193 244.5,-181 256.5,-169"/>
<path fill="#ffffff" stroke="#ffffff" stroke-width="1.5" d="M321.5,-169C327.5,-169 333.5,-175 333.5,-181"/>
<path fill="#ffffff" stroke="#ffffff" stroke-width="1.5" d="M333.5,-193C333.5,-199 327.5,-205 321.5,-205"/>
<path fill="#ffffff" stroke="#ffffff" stroke-width="1.5" d="M256.5,-205C250.5,-205 244.5,-199 244.5,-193"/>
<path fill="#ffffff" stroke="#ffffff" stroke-width="1.5" d="M244.5,-181C244.5,-175 250.5,-169 256.5,-169"/>
<polyline fill="none" stroke="#2e3436" stroke-width="1.5" points="256.5,-169 321.5,-169 "/>
<path fill="none" stroke="#2e3436" stroke-width="1.5" d="M321.5,-169C327.5,-169 333.5,-175 333.5,-181"/>
<polyline fill="none" stroke="#2e3436" stroke-width="1.5" points="333.5,-181 333.5,-193 "/>
<path fill="none" stroke="#2e3436" stroke-width="1.5" d="M333.5,-193C333.5,-199 327.5,-205 321.5,-205"/>
<polyline fill="none" stroke="#2e3436" stroke-width="1.5" points="321.5,-205 256.5,-205 "/>
<path fill="none" stroke="#2e3436" stroke-width="1.5" d="M256.5,-205C250.5,-205 244.5,-199 244.5,-193"/>
<polyline fill="none" stroke="#2e3436" stroke-width="1.5" points="244.5,-193 244.5,-181 "/>
<path fill="none" stroke="#2e3436" stroke-width="1.5" d="M244.5,-181C244.5,-175 250.5,-169 256.5,-169"/>
<text text-anchor="middle" x="289" y="-193.8" font-family="FreeSans" font-size="8.00" fill="#1c2021">Node[33]</text>
<polyline fill="none" stroke="#2e3436" stroke-width="1.5" points="244.5,-187 333.5,-187 "/>
<text text-anchor="start" x="252.5" y="-175.8" font-family="FreeSans" font-size="8.00" fill="#1c2021">name = &#39;Group1&#39;</text>
</g>
<!-- N33&#45;&gt;N35 -->
<g id="edge8" class="edge"><title>N33&#45;&gt;N35</title>
<path fill="none" stroke="#204a87" stroke-width="2" d="M244.301,-177.865C215.082,-171.359 176.301,-161.71 143,-150 122.702,-142.862 100.929,-133.235 82.6549,-124.552"/>
<polygon fill="#204a87" stroke="#204a87" points="75.574,-121.152 83.7959,-121.356 79.171,-122.325 82.5515,-123.948 82.3351,-124.398 82.1187,-124.849 78.7382,-123.226 80.8743,-127.441 75.574,-121.152 75.574,-121.152"/>
<text text-anchor="middle" x="161.5" y="-142.8" font-family="FreeSans" font-size="8.00" fill="#204a87">canHave</text>
</g>
<!-- N33&#45;&gt;N32 -->
<g id="edge10" class="edge"><title>N33&#45;&gt;N32</title>
<path fill="none" stroke="#204a87" stroke-width="2" d="M296.811,-168.773C301.906,-156.885 308.625,-141.208 314.225,-128.141"/>
<polygon fill="#204a87" stroke="#204a87" points="317.204,-121.191 317.351,-129.414 316.186,-124.835 314.709,-128.282 314.249,-128.085 313.79,-127.888 315.267,-124.441 311.147,-126.755 317.204,-121.191 317.204,-121.191"/>
<text text-anchor="middle" x="326.5" y="-142.8" font-family="FreeSans" font-size="8.00" fill="#204a87">canHave</text>
</g>
<!-- N33&#45;&gt;N39 -->
<g id="edge12" class="edge"><title>N33&#45;&gt;N39</title>
<path fill="none" stroke="#a40000" stroke-width="2" d="M278.691,-168.626C272.857,-159.306 264.943,-148.245 256,-140 250.074,-134.536 243.208,-129.505 236.234,-125.028"/>
<polygon fill="#a40000" stroke="#a40000" points="229.823,-121.077 237.978,-122.139 233.277,-122.619 236.47,-124.586 236.207,-125.012 235.945,-125.438 232.753,-123.47 234.436,-127.885 229.823,-121.077 229.823,-121.077"/>
<text text-anchor="middle" x="270.5" y="-142.8" font-family="FreeSans" font-size="8.00" fill="#a40000">isA</text>
</g>
<!-- N37 -->
<g id="node18" class="node"><title>N37</title>
<polygon fill="#ffffff" stroke="#ffffff" stroke-width="1.5" points="180.5,-337 239.5,-337 251.5,-349 251.5,-361 239.5,-373 180.5,-373 168.5,-361 168.5,-349 180.5,-337"/>
<path fill="#ffffff" stroke="#ffffff" stroke-width="1.5" d="M239.5,-337C245.5,-337 251.5,-343 251.5,-349"/>
<path fill="#ffffff" stroke="#ffffff" stroke-width="1.5" d="M251.5,-361C251.5,-367 245.5,-373 239.5,-373"/>
<path fill="#ffffff" stroke="#ffffff" stroke-width="1.5" d="M180.5,-373C174.5,-373 168.5,-367 168.5,-361"/>
<path fill="#ffffff" stroke="#ffffff" stroke-width="1.5" d="M168.5,-349C168.5,-343 174.5,-337 180.5,-337"/>
<polyline fill="none" stroke="#2e3436" stroke-width="1.5" points="180.5,-337 239.5,-337 "/>
<path fill="none" stroke="#2e3436" stroke-width="1.5" d="M239.5,-337C245.5,-337 251.5,-343 251.5,-349"/>
<polyline fill="none" stroke="#2e3436" stroke-width="1.5" points="251.5,-349 251.5,-361 "/>
<path fill="none" stroke="#2e3436" stroke-width="1.5" d="M251.5,-361C251.5,-367 245.5,-373 239.5,-373"/>
<polyline fill="none" stroke="#2e3436" stroke-width="1.5" points="239.5,-373 180.5,-373 "/>
<path fill="none" stroke="#2e3436" stroke-width="1.5" d="M180.5,-373C174.5,-373 168.5,-367 168.5,-361"/>
<polyline fill="none" stroke="#2e3436" stroke-width="1.5" points="168.5,-361 168.5,-349 "/>
<path fill="none" stroke="#2e3436" stroke-width="1.5" d="M168.5,-349C168.5,-343 174.5,-337 180.5,-337"/>
<text text-anchor="middle" x="210" y="-361.8" font-family="FreeSans" font-size="8.00" fill="#1c2021">Node[37]</text>
<polyline fill="none" stroke="#2e3436" stroke-width="1.5" points="168.5,-355 251.5,-355 "/>
<text text-anchor="start" x="176.5" y="-343.8" font-family="FreeSans" font-size="8.00" fill="#1c2021">name = &#39;User1&#39;</text>
</g>
<!-- N37&#45;&gt;N31 -->
<g id="edge26" class="edge"><title>N37&#45;&gt;N31</title>
<path fill="none" stroke="#5c3566" stroke-width="2" d="M168.387,-346.901C137.412,-340.082 98.5739,-329.605 87,-318 81.3185,-312.303 77.9238,-304.408 75.9018,-296.713"/>
<polygon fill="#5c3566" stroke="#5c3566" points="74.3036,-289.174 79.1608,-295.811 75.5705,-292.739 76.3483,-296.408 75.8591,-296.511 75.37,-296.615 74.5922,-292.947 72.5575,-297.211 74.3036,-289.174 74.3036,-289.174"/>
<text text-anchor="middle" x="121" y="-310.8" font-family="FreeSans" font-size="8.00" fill="#5c3566">hasRoleInGroup</text>
</g>
<!-- N37&#45;&gt;N34 -->
<g id="edge24" class="edge"><title>N37&#45;&gt;N34</title>
<path fill="none" stroke="#8f5902" stroke-width="2" d="M201.784,-336.668C189.587,-310.418 165.089,-261.188 137,-224 133.612,-219.515 129.701,-215.036 125.716,-210.823"/>
<polygon fill="#8f5902" stroke="#8f5902" points="120.28,-205.267 127.938,-208.268 123.26,-207.598 125.883,-210.278 125.525,-210.628 125.168,-210.977 122.545,-208.297 123.113,-212.988 120.28,-205.267 120.28,-205.267"/>
<text text-anchor="middle" x="182" y="-268.8" font-family="FreeSans" font-size="8.00" fill="#8f5902">in</text>
</g>
<!-- N37&#45;&gt;N33 -->
<g id="edge22" class="edge"><title>N37&#45;&gt;N33</title>
<path fill="none" stroke="#8f5902" stroke-width="2" d="M218.448,-336.743C227.998,-316.137 244.034,-281.622 258,-252 264.24,-238.765 271.253,-224.047 277.029,-211.967"/>
<polygon fill="#8f5902" stroke="#8f5902" points="280.271,-205.191 280.078,-213.413 279.103,-208.79 277.485,-212.172 277.034,-211.956 276.583,-211.741 278.201,-208.358 273.989,-210.5 280.271,-205.191 280.271,-205.191"/>
<text text-anchor="middle" x="262" y="-268.8" font-family="FreeSans" font-size="8.00" fill="#8f5902">in</text>
</g>
<!-- N38 -->
<g id="node23" class="node"><title>N38</title>
<polygon fill="#ffffff" stroke="#ffffff" stroke-width="1.5" points="292,-253 360,-253 372,-265 372,-277 360,-289 292,-289 280,-277 280,-265 292,-253"/>
<path fill="#ffffff" stroke="#ffffff" stroke-width="1.5" d="M360,-253C366,-253 372,-259 372,-265"/>
<path fill="#ffffff" stroke="#ffffff" stroke-width="1.5" d="M372,-277C372,-283 366,-289 360,-289"/>
<path fill="#ffffff" stroke="#ffffff" stroke-width="1.5" d="M292,-289C286,-289 280,-283 280,-277"/>
<path fill="#ffffff" stroke="#ffffff" stroke-width="1.5" d="M280,-265C280,-259 286,-253 292,-253"/>
<polyline fill="none" stroke="#2e3436" stroke-width="1.5" points="292,-253 360,-253 "/>
<path fill="none" stroke="#2e3436" stroke-width="1.5" d="M360,-253C366,-253 372,-259 372,-265"/>
<polyline fill="none" stroke="#2e3436" stroke-width="1.5" points="372,-265 372,-277 "/>
<path fill="none" stroke="#2e3436" stroke-width="1.5" d="M372,-277C372,-283 366,-289 360,-289"/>
<polyline fill="none" stroke="#2e3436" stroke-width="1.5" points="360,-289 292,-289 "/>
<path fill="none" stroke="#2e3436" stroke-width="1.5" d="M292,-289C286,-289 280,-283 280,-277"/>
<polyline fill="none" stroke="#2e3436" stroke-width="1.5" points="280,-277 280,-265 "/>
<path fill="none" stroke="#2e3436" stroke-width="1.5" d="M280,-265C280,-259 286,-253 292,-253"/>
<text text-anchor="middle" x="326" y="-277.8" font-family="FreeSans" font-size="8.00" fill="#1c2021">Node[38]</text>
<polyline fill="none" stroke="#2e3436" stroke-width="1.5" points="280,-271 372,-271 "/>
<text text-anchor="start" x="288" y="-259.8" font-family="FreeSans" font-size="8.00" fill="#1c2021">name = &#39;U1G1R2&#39;</text>
</g>
<!-- N37&#45;&gt;N38 -->
<g id="edge28" class="edge"><title>N37&#45;&gt;N38</title>
<path fill="none" stroke="#5c3566" stroke-width="2" d="M237.655,-336.899C246.476,-330.992 256.223,-324.324 265,-318 275.6,-310.363 286.995,-301.708 297.035,-293.925"/>
<polygon fill="#5c3566" stroke="#5c3566" points="303.091,-289.209 299.247,-296.48 300.44,-291.908 297.481,-294.212 297.174,-293.817 296.867,-293.423 299.825,-291.119 295.1,-291.154 303.091,-289.209 303.091,-289.209"/>
<text text-anchor="middle" x="310" y="-310.8" font-family="FreeSans" font-size="8.00" fill="#5c3566">hasRoleInGroup</text>
</g>
<!-- N38&#45;&gt;N32 -->
<g id="edge30" class="edge"><title>N38&#45;&gt;N32</title>
<path fill="none" stroke="#2e3436" stroke-width="2" d="M346.22,-252.776C351.003,-247.266 355.451,-240.844 358,-234 365.316,-214.356 405.297,-285.622 352,-140 350.424,-135.694 348.189,-131.451 345.67,-127.461"/>
<polygon fill="#2e3436" stroke="#2e3436" points="341.232,-121.018 348.266,-125.28 343.771,-123.823 345.899,-126.911 345.487,-127.195 345.075,-127.479 342.948,-124.39 342.708,-129.11 341.232,-121.018 341.232,-121.018"/>
<text text-anchor="middle" x="390" y="-184.8" font-family="FreeSans" font-size="8.00" fill="#2e3436">hasRole</text>
</g>
<!-- N38&#45;&gt;N33 -->
<g id="edge32" class="edge"><title>N38&#45;&gt;N33</title>
<path fill="none" stroke="#4e9a06" stroke-width="2" d="M317.972,-252.773C312.735,-240.885 305.83,-225.208 300.074,-212.141"/>
<polygon fill="#4e9a06" stroke="#4e9a06" points="297.013,-205.191 303.125,-210.694 298.982,-208.421 300.494,-211.853 300.036,-212.055 299.579,-212.256 298.067,-208.825 296.947,-213.415 297.013,-205.191 297.013,-205.191"/>
<text text-anchor="middle" x="329.5" y="-226.8" font-family="FreeSans" font-size="8.00" fill="#4e9a06">hasGroup</text>
</g>
</g>
</svg>
