<?xml version="1.0" encoding="UTF-8" standalone="no"?>
<!DOCTYPE svg PUBLIC "-//W3C//DTD SVG 1.1//EN"
 "http://www.w3.org/Graphics/SVG/1.1/DTD/svg11.dtd">
<!-- Generated by graphviz version 2.26.3 (20100126.1600)
 -->
<!-- Title: g Pages: 1 -->
<svg width="184pt" height="197pt"
 viewBox="0.00 0.00 184.00 197.00" xmlns="http://www.w3.org/2000/svg" xmlns:xlink="http://www.w3.org/1999/xlink">
<g id="graph1" class="graph" transform="scale(1 1) rotate(0) translate(4 193)">
<title>g</title>
<polygon fill="white" stroke="white" points="-4,5 -4,-193 181,-193 181,5 -4,5"/>
<g id="graph2" class="cluster"><title>cluster_0</title>
<polygon fill="none" stroke="none" points="8,-101 8,-181 78,-181 78,-101 8,-101"/>
</g>
<g id="graph3" class="cluster"><title>cluster_1</title>
<polygon fill="none" stroke="none" points="98,-17 98,-181 168,-181 168,-17 98,-17"/>
</g>
<g id="graph4" class="cluster"><title>cluster_2</title>
<polygon fill="none" stroke="none" points="8,-8 8,-88 78,-88 78,-8 8,-8"/>
</g>
<!-- A -->
<g id="node2" class="node"><title>A</title>
<polygon fill="#a8e270" stroke="#a8e270" stroke-width="1.5" points="28,-109.5 58,-109.5 70,-121.5 70,-160.5 58,-172.5 28,-172.5 16,-160.5 16,-121.5 28,-109.5"/>
<path fill="#a8e270" stroke="#a8e270" stroke-width="1.5" d="M58,-109.5C64,-109.5 70,-115.5 70,-121.5"/>
<path fill="#a8e270" stroke="#a8e270" stroke-width="1.5" d="M70,-160.5C70,-166.5 64,-172.5 58,-172.5"/>
<path fill="#a8e270" stroke="#a8e270" stroke-width="1.5" d="M28,-172.5C22,-172.5 16,-166.5 16,-160.5"/>
<path fill="#a8e270" stroke="#a8e270" stroke-width="1.5" d="M16,-121.5C16,-115.5 22,-109.5 28,-109.5"/>
<polyline fill="none" stroke="#2e3436" stroke-width="1.5" points="28,-109.5 58,-109.5 "/>
<path fill="none" stroke="#2e3436" stroke-width="1.5" d="M58,-109.5C64,-109.5 70,-115.5 70,-121.5"/>
<polyline fill="none" stroke="#2e3436" stroke-width="1.5" points="70,-121.5 70,-160.5 "/>
<path fill="none" stroke="#2e3436" stroke-width="1.5" d="M70,-160.5C70,-166.5 64,-172.5 58,-172.5"/>
<polyline fill="none" stroke="#2e3436" stroke-width="1.5" points="58,-172.5 28,-172.5 "/>
<path fill="none" stroke="#2e3436" stroke-width="1.5" d="M28,-172.5C22,-172.5 16,-166.5 16,-160.5"/>
<polyline fill="none" stroke="#2e3436" stroke-width="1.5" points="16,-160.5 16,-121.5 "/>
<path fill="none" stroke="#2e3436" stroke-width="1.5" d="M16,-121.5C16,-115.5 22,-109.5 28,-109.5"/>
<text text-anchor="middle" x="43" y="-159.5" font-family="FreeSans" font-size="10.00" fill="#1c2021">A1</text>
<polyline fill="none" stroke="#2e3436" stroke-width="1.5" points="16,-151.5 70,-151.5 "/>
<text text-anchor="middle" x="43" y="-138.5" font-family="FreeSans" font-size="10.00" fill="#1c2021">A2</text>
<polyline fill="none" stroke="#2e3436" stroke-width="1.5" points="16,-130.5 70,-130.5 "/>
<text text-anchor="middle" x="43" y="-117.5" font-family="FreeSans" font-size="10.00" fill="#1c2021">A3</text>
</g>
<!-- B -->
<g id="node4" class="node"><title>B</title>
<polygon fill="#fadcad" stroke="#fadcad" stroke-width="1.5" points="118,-25.5 148,-25.5 160,-37.5 160,-160.5 148,-172.5 118,-172.5 106,-160.5 106,-37.5 118,-25.5"/>
<path fill="#fadcad" stroke="#fadcad" stroke-width="1.5" d="M148,-25.5C154,-25.5 160,-31.5 160,-37.5"/>
<path fill="#fadcad" stroke="#fadcad" stroke-width="1.5" d="M160,-160.5C160,-166.5 154,-172.5 148,-172.5"/>
<path fill="#fadcad" stroke="#fadcad" stroke-width="1.5" d="M118,-172.5C112,-172.5 106,-166.5 106,-160.5"/>
<path fill="#fadcad" stroke="#fadcad" stroke-width="1.5" d="M106,-37.5C106,-31.5 112,-25.5 118,-25.5"/>
<polyline fill="none" stroke="#2e3436" stroke-width="1.5" points="118,-25.5 148,-25.5 "/>
<path fill="none" stroke="#2e3436" stroke-width="1.5" d="M148,-25.5C154,-25.5 160,-31.5 160,-37.5"/>
<polyline fill="none" stroke="#2e3436" stroke-width="1.5" points="160,-37.5 160,-160.5 "/>
<path fill="none" stroke="#2e3436" stroke-width="1.5" d="M160,-160.5C160,-166.5 154,-172.5 148,-172.5"/>
<polyline fill="none" stroke="#2e3436" stroke-width="1.5" points="148,-172.5 118,-172.5 "/>
<path fill="none" stroke="#2e3436" stroke-width="1.5" d="M118,-172.5C112,-172.5 106,-166.5 106,-160.5"/>
<polyline fill="none" stroke="#2e3436" stroke-width="1.5" points="106,-160.5 106,-37.5 "/>
<path fill="none" stroke="#2e3436" stroke-width="1.5" d="M106,-37.5C106,-31.5 112,-25.5 118,-25.5"/>
<text text-anchor="middle" x="133" y="-159.5" font-family="FreeSans" font-size="10.00" fill="#1c2021">B1</text>
<polyline fill="none" stroke="#2e3436" stroke-width="1.5" points="106,-151.5 160,-151.5 "/>
<text text-anchor="middle" x="133" y="-138.5" font-family="FreeSans" font-size="10.00" fill="#1c2021">B2</text>
<polyline fill="none" stroke="#2e3436" stroke-width="1.5" points="106,-130.5 160,-130.5 "/>
<text text-anchor="middle" x="133" y="-117.5" font-family="FreeSans" font-size="10.00" fill="#1c2021">B3</text>
<polyline fill="none" stroke="#2e3436" stroke-width="1.5" points="106,-109.5 160,-109.5 "/>
<text text-anchor="middle" x="133" y="-96.5" font-family="FreeSans" font-size="10.00" fill="#1c2021">B4</text>
<polyline fill="none" stroke="#2e3436" stroke-width="1.5" points="106,-88.5 160,-88.5 "/>
<text text-anchor="middle" x="133" y="-75.5" font-family="FreeSans" font-size="10.00" fill="#1c2021">B5</text>
<polyline fill="none" stroke="#2e3436" stroke-width="1.5" points="106,-67.5 160,-67.5 "/>
<text text-anchor="middle" x="133" y="-54.5" font-family="FreeSans" font-size="10.00" fill="#1c2021">B6</text>
<polyline fill="none" stroke="#2e3436" stroke-width="1.5" points="106,-46.5 160,-46.5 "/>
<text text-anchor="middle" x="133" y="-33.5" font-family="FreeSans" font-size="10.00" fill="#1c2021">B7</text>
</g>
<!-- A&#45;&gt;B -->
<g id="edge5" class="edge"><title>A:1&#45;&gt;B:1</title>
<path fill="none" stroke="#2e3436" stroke-width="2" d="M70,-162C86,-162 90,-162 106,-162"/>
</g>
<!-- A&#45;&gt;B -->
<g id="edge7" class="edge"><title>A:1&#45;&gt;B:2</title>
<path fill="none" stroke="#2e3436" stroke-width="2" d="M70,-162C88.5233,-162 87.4767,-141 106,-141"/>
</g>
<!-- A&#45;&gt;B -->
<g id="edge9" class="edge"><title>A:2&#45;&gt;B:4</title>
<path fill="none" stroke="#2e3436" stroke-width="2" d="M70,-141C94.5855,-141 81.4145,-99 106,-99"/>
</g>
<!-- A&#45;&gt;B -->
<g id="edge11" class="edge"><title>A:2&#45;&gt;B:6</title>
<path fill="none" stroke="#2e3436" stroke-width="2" d="M70,-141C110.617,-141 65.3825,-57 106,-57"/>
</g>
<!-- A&#45;&gt;B -->
<g id="edge13" class="edge"><title>A:3&#45;&gt;B:3</title>
<path fill="none" stroke="#2e3436" stroke-width="2" d="M70,-120C86,-120 90,-120 106,-120"/>
</g>
<!-- A&#45;&gt;B -->
<g id="edge15" class="edge"><title>A:3&#45;&gt;B:5</title>
<path fill="none" stroke="#2e3436" stroke-width="2" d="M70,-120C94.5855,-120 81.4145,-78 106,-78"/>
</g>
<!-- A&#45;&gt;B -->
<g id="edge17" class="edge"><title>A:3&#45;&gt;B:7</title>
<path fill="none" stroke="#2e3436" stroke-width="2" d="M70,-120C110.617,-120 65.3825,-36 106,-36"/>
</g>
<!-- C -->
<g id="node6" class="node"><title>C</title>
<polygon fill="#95bbe3" stroke="#95bbe3" stroke-width="1.5" points="28,-16.5 58,-16.5 70,-28.5 70,-67.5 58,-79.5 28,-79.5 16,-67.5 16,-28.5 28,-16.5"/>
<path fill="#95bbe3" stroke="#95bbe3" stroke-width="1.5" d="M58,-16.5C64,-16.5 70,-22.5 70,-28.5"/>
<path fill="#95bbe3" stroke="#95bbe3" stroke-width="1.5" d="M70,-67.5C70,-73.5 64,-79.5 58,-79.5"/>
<path fill="#95bbe3" stroke="#95bbe3" stroke-width="1.5" d="M28,-79.5C22,-79.5 16,-73.5 16,-67.5"/>
<path fill="#95bbe3" stroke="#95bbe3" stroke-width="1.5" d="M16,-28.5C16,-22.5 22,-16.5 28,-16.5"/>
<polyline fill="none" stroke="#2e3436" stroke-width="1.5" points="28,-16.5 58,-16.5 "/>
<path fill="none" stroke="#2e3436" stroke-width="1.5" d="M58,-16.5C64,-16.5 70,-22.5 70,-28.5"/>
<polyline fill="none" stroke="#2e3436" stroke-width="1.5" points="70,-28.5 70,-67.5 "/>
<path fill="none" stroke="#2e3436" stroke-width="1.5" d="M70,-67.5C70,-73.5 64,-79.5 58,-79.5"/>
<polyline fill="none" stroke="#2e3436" stroke-width="1.5" points="58,-79.5 28,-79.5 "/>
<path fill="none" stroke="#2e3436" stroke-width="1.5" d="M28,-79.5C22,-79.5 16,-73.5 16,-67.5"/>
<polyline fill="none" stroke="#2e3436" stroke-width="1.5" points="16,-67.5 16,-28.5 "/>
<path fill="none" stroke="#2e3436" stroke-width="1.5" d="M16,-28.5C16,-22.5 22,-16.5 28,-16.5"/>
<text text-anchor="middle" x="43" y="-66.5" font-family="FreeSans" font-size="10.00" fill="#1c2021">C1</text>
<polyline fill="none" stroke="#2e3436" stroke-width="1.5" points="16,-58.5 70,-58.5 "/>
<text text-anchor="middle" x="43" y="-45.5" font-family="FreeSans" font-size="10.00" fill="#1c2021">C2</text>
<polyline fill="none" stroke="#2e3436" stroke-width="1.5" points="16,-37.5 70,-37.5 "/>
<text text-anchor="middle" x="43" y="-24.5" font-family="FreeSans" font-size="10.00" fill="#1c2021">C3</text>
</g>
<!-- C&#45;&gt;B -->
<g id="edge25" class="edge"><title>C:2&#45;&gt;B:3</title>
<path fill="none" stroke="#2e3436" stroke-width="2" d="M70,-48C105.777,-48 70.2229,-120 106,-120"/>
</g>
<!-- C&#45;&gt;B -->
<g id="edge27" class="edge"><title>C:2&#45;&gt;B:7</title>
<path fill="none" stroke="#2e3436" stroke-width="2" d="M70,-48C86.8655,-48 89.1345,-36 106,-36"/>
</g>
<!-- C&#45;&gt;B -->
<g id="edge29" class="edge"><title>C:3&#45;&gt;B:2</title>
<path fill="none" stroke="#2e3436" stroke-width="2" d="M70,-27C123.133,-27 52.867,-141 106,-141"/>
</g>
<!-- C&#45;&gt;B -->
<g id="edge31" class="edge"><title>C:3&#45;&gt;B:6</title>
<path fill="none" stroke="#2e3436" stroke-width="2" d="M70,-27C90.8273,-27 85.1727,-57 106,-57"/>
</g>
<!-- C&#45;&gt;B -->
<g id="edge19" class="edge"><title>C:1&#45;&gt;B:1</title>
<path fill="none" stroke="#2e3436" stroke-width="2" d="M70,-69C114.322,-69 61.6779,-162 106,-162"/>
</g>
<!-- C&#45;&gt;B -->
<g id="edge21" class="edge"><title>C:1&#45;&gt;B:4</title>
<path fill="none" stroke="#2e3436" stroke-width="2" d="M70,-69C90.8273,-69 85.1727,-99 106,-99"/>
</g>
<!-- C&#45;&gt;B -->
<g id="edge23" class="edge"><title>C:1&#45;&gt;B:5</title>
<path fill="none" stroke="#2e3436" stroke-width="2" d="M70,-69C86.4924,-69 89.5076,-78 106,-78"/>
</g>
</g>
</svg>
