<?xml version="1.0" encoding="UTF-8" standalone="no"?>
<!DOCTYPE svg PUBLIC "-//W3C//DTD SVG 1.1//EN"
 "http://www.w3.org/Graphics/SVG/1.1/DTD/svg11.dtd">
<!-- Generated by graphviz version 2.26.3 (20100126.1600)
 -->
<!-- Title: g Pages: 1 -->
<svg width="504pt" height="104pt"
 viewBox="0.00 0.00 504.00 104.40" xmlns="http://www.w3.org/2000/svg" xmlns:xlink="http://www.w3.org/1999/xlink">
<g id="graph1" class="graph" transform="scale(0.9 0.9) rotate(0) translate(4 112)">
<title>g</title>
<polygon fill="white" stroke="white" points="-4,5 -4,-112 557,-112 557,5 -4,5"/>
<!-- A1 -->
<g id="node1" class="node"><title>A1</title>
<polygon fill="#a8e270" stroke="#a8e270" stroke-width="1.5" points="125,-108 95,-108 83,-96 83,-84 95,-72 125,-72 137,-84 137,-96 125,-108"/>
<path fill="#a8e270" stroke="#a8e270" stroke-width="1.5" d="M95,-108C89,-108 83,-102 83,-96"/>
<path fill="#a8e270" stroke="#a8e270" stroke-width="1.5" d="M83,-84C83,-78 89,-72 95,-72"/>
<path fill="#a8e270" stroke="#a8e270" stroke-width="1.5" d="M125,-72C131,-72 137,-78 137,-84"/>
<path fill="#a8e270" stroke="#a8e270" stroke-width="1.5" d="M137,-96C137,-102 131,-108 125,-108"/>
<polyline fill="none" stroke="#2e3436" stroke-width="1.5" points="125,-108 95,-108 "/>
<path fill="none" stroke="#2e3436" stroke-width="1.5" d="M95,-108C89,-108 83,-102 83,-96"/>
<polyline fill="none" stroke="#2e3436" stroke-width="1.5" points="83,-96 83,-84 "/>
<path fill="none" stroke="#2e3436" stroke-width="1.5" d="M83,-84C83,-78 89,-72 95,-72"/>
<polyline fill="none" stroke="#2e3436" stroke-width="1.5" points="95,-72 125,-72 "/>
<path fill="none" stroke="#2e3436" stroke-width="1.5" d="M125,-72C131,-72 137,-78 137,-84"/>
<polyline fill="none" stroke="#2e3436" stroke-width="1.5" points="137,-84 137,-96 "/>
<path fill="none" stroke="#2e3436" stroke-width="1.5" d="M137,-96C137,-102 131,-108 125,-108"/>
<text text-anchor="middle" x="110" y="-87.5" font-family="FreeSans" font-size="10.00" fill="#1c2021">A1</text>
</g>
<!-- B1 -->
<g id="node8" class="node"><title>B1</title>
<polygon fill="#fadcad" stroke="#fadcad" stroke-width="1.5" points="208,-36 178,-36 166,-24 166,-12 178,-1.46056e-14 208,-6.71068e-15 220,-12 220,-24 208,-36"/>
<path fill="#fadcad" stroke="#fadcad" stroke-width="1.5" d="M178,-36C172,-36 166,-30 166,-24"/>
<path fill="#fadcad" stroke="#fadcad" stroke-width="1.5" d="M166,-12C166,-6 172,-1.61846e-14 178,-1.46056e-14"/>
<path fill="#fadcad" stroke="#fadcad" stroke-width="1.5" d="M208,-6.71068e-15C214,-5.1317e-15 220,-6 220,-12"/>
<path fill="#fadcad" stroke="#fadcad" stroke-width="1.5" d="M220,-24C220,-30 214,-36 208,-36"/>
<polyline fill="none" stroke="#2e3436" stroke-width="1.5" points="208,-36 178,-36 "/>
<path fill="none" stroke="#2e3436" stroke-width="1.5" d="M178,-36C172,-36 166,-30 166,-24"/>
<polyline fill="none" stroke="#2e3436" stroke-width="1.5" points="166,-24 166,-12 "/>
<path fill="none" stroke="#2e3436" stroke-width="1.5" d="M166,-12C166,-6 172,-1.61846e-14 178,-1.46056e-14"/>
<polyline fill="none" stroke="#2e3436" stroke-width="1.5" points="178,-1.46056e-14 208,-6.71068e-15 "/>
<path fill="none" stroke="#2e3436" stroke-width="1.5" d="M208,-6.71068e-15C214,-5.1317e-15 220,-6 220,-12"/>
<polyline fill="none" stroke="#2e3436" stroke-width="1.5" points="220,-12 220,-24 "/>
<path fill="none" stroke="#2e3436" stroke-width="1.5" d="M220,-24C220,-30 214,-36 208,-36"/>
<text text-anchor="middle" x="193" y="-15.5" font-family="FreeSans" font-size="10.00" fill="#1c2021">B1</text>
</g>
<!-- A1&#45;&gt;B1 -->
<g id="edge2" class="edge"><title>A1&#45;&gt;B1</title>
<path fill="none" stroke="#2e3436" stroke-width="2" d="M130.944,-71.8314C143.527,-60.9167 159.481,-47.0764 172.062,-36.1628"/>
</g>
<!-- B2 -->
<g id="node10" class="node"><title>B2</title>
<polygon fill="#fadcad" stroke="#fadcad" stroke-width="1.5" points="42,-36 12,-36 1.42109e-14,-24 7.10543e-15,-12 12,-1.46056e-14 42,-6.71068e-15 54,-12 54,-24 42,-36"/>
<path fill="#fadcad" stroke="#fadcad" stroke-width="1.5" d="M12,-36C6,-36 1.77636e-14,-30 1.42109e-14,-24"/>
<path fill="#fadcad" stroke="#fadcad" stroke-width="1.5" d="M7.10543e-15,-12C3.55271e-15,-6 6,-1.61846e-14 12,-1.46056e-14"/>
<path fill="#fadcad" stroke="#fadcad" stroke-width="1.5" d="M42,-6.71068e-15C48,-5.1317e-15 54,-6 54,-12"/>
<path fill="#fadcad" stroke="#fadcad" stroke-width="1.5" d="M54,-24C54,-30 48,-36 42,-36"/>
<polyline fill="none" stroke="#2e3436" stroke-width="1.5" points="42,-36 12,-36 "/>
<path fill="none" stroke="#2e3436" stroke-width="1.5" d="M12,-36C6,-36 1.77636e-14,-30 1.42109e-14,-24"/>
<polyline fill="none" stroke="#2e3436" stroke-width="1.5" points="1.42109e-14,-24 7.10543e-15,-12 "/>
<path fill="none" stroke="#2e3436" stroke-width="1.5" d="M7.10543e-15,-12C3.55271e-15,-6 6,-1.61846e-14 12,-1.46056e-14"/>
<polyline fill="none" stroke="#2e3436" stroke-width="1.5" points="12,-1.46056e-14 42,-6.71068e-15 "/>
<path fill="none" stroke="#2e3436" stroke-width="1.5" d="M42,-6.71068e-15C48,-5.1317e-15 54,-6 54,-12"/>
<polyline fill="none" stroke="#2e3436" stroke-width="1.5" points="54,-12 54,-24 "/>
<path fill="none" stroke="#2e3436" stroke-width="1.5" d="M54,-24C54,-30 48,-36 42,-36"/>
<text text-anchor="middle" x="27" y="-15.5" font-family="FreeSans" font-size="10.00" fill="#1c2021">B2</text>
</g>
<!-- A1&#45;&gt;B2 -->
<g id="edge4" class="edge"><title>A1&#45;&gt;B2</title>
<path fill="none" stroke="#2e3436" stroke-width="2" d="M89.0556,-71.8314C76.4734,-60.9167 60.5187,-47.0764 47.9377,-36.1628"/>
</g>
<!-- A2 -->
<g id="node2" class="node"><title>A2</title>
<polygon fill="#a8e270" stroke="#a8e270" stroke-width="1.5" points="208,-108 178,-108 166,-96 166,-84 178,-72 208,-72 220,-84 220,-96 208,-108"/>
<path fill="#a8e270" stroke="#a8e270" stroke-width="1.5" d="M178,-108C172,-108 166,-102 166,-96"/>
<path fill="#a8e270" stroke="#a8e270" stroke-width="1.5" d="M166,-84C166,-78 172,-72 178,-72"/>
<path fill="#a8e270" stroke="#a8e270" stroke-width="1.5" d="M208,-72C214,-72 220,-78 220,-84"/>
<path fill="#a8e270" stroke="#a8e270" stroke-width="1.5" d="M220,-96C220,-102 214,-108 208,-108"/>
<polyline fill="none" stroke="#2e3436" stroke-width="1.5" points="208,-108 178,-108 "/>
<path fill="none" stroke="#2e3436" stroke-width="1.5" d="M178,-108C172,-108 166,-102 166,-96"/>
<polyline fill="none" stroke="#2e3436" stroke-width="1.5" points="166,-96 166,-84 "/>
<path fill="none" stroke="#2e3436" stroke-width="1.5" d="M166,-84C166,-78 172,-72 178,-72"/>
<polyline fill="none" stroke="#2e3436" stroke-width="1.5" points="178,-72 208,-72 "/>
<path fill="none" stroke="#2e3436" stroke-width="1.5" d="M208,-72C214,-72 220,-78 220,-84"/>
<polyline fill="none" stroke="#2e3436" stroke-width="1.5" points="220,-84 220,-96 "/>
<path fill="none" stroke="#2e3436" stroke-width="1.5" d="M220,-96C220,-102 214,-108 208,-108"/>
<text text-anchor="middle" x="193" y="-87.5" font-family="FreeSans" font-size="10.00" fill="#1c2021">A2</text>
</g>
<!-- B4 -->
<g id="node12" class="node"><title>B4</title>
<polygon fill="#fadcad" stroke="#fadcad" stroke-width="1.5" points="291,-36 261,-36 249,-24 249,-12 261,-1.46056e-14 291,-6.71068e-15 303,-12 303,-24 291,-36"/>
<path fill="#fadcad" stroke="#fadcad" stroke-width="1.5" d="M261,-36C255,-36 249,-30 249,-24"/>
<path fill="#fadcad" stroke="#fadcad" stroke-width="1.5" d="M249,-12C249,-6 255,-1.61846e-14 261,-1.46056e-14"/>
<path fill="#fadcad" stroke="#fadcad" stroke-width="1.5" d="M291,-6.71068e-15C297,-5.1317e-15 303,-6 303,-12"/>
<path fill="#fadcad" stroke="#fadcad" stroke-width="1.5" d="M303,-24C303,-30 297,-36 291,-36"/>
<polyline fill="none" stroke="#2e3436" stroke-width="1.5" points="291,-36 261,-36 "/>
<path fill="none" stroke="#2e3436" stroke-width="1.5" d="M261,-36C255,-36 249,-30 249,-24"/>
<polyline fill="none" stroke="#2e3436" stroke-width="1.5" points="249,-24 249,-12 "/>
<path fill="none" stroke="#2e3436" stroke-width="1.5" d="M249,-12C249,-6 255,-1.61846e-14 261,-1.46056e-14"/>
<polyline fill="none" stroke="#2e3436" stroke-width="1.5" points="261,-1.46056e-14 291,-6.71068e-15 "/>
<path fill="none" stroke="#2e3436" stroke-width="1.5" d="M291,-6.71068e-15C297,-5.1317e-15 303,-6 303,-12"/>
<polyline fill="none" stroke="#2e3436" stroke-width="1.5" points="303,-12 303,-24 "/>
<path fill="none" stroke="#2e3436" stroke-width="1.5" d="M303,-24C303,-30 297,-36 291,-36"/>
<text text-anchor="middle" x="276" y="-15.5" font-family="FreeSans" font-size="10.00" fill="#1c2021">B4</text>
</g>
<!-- A2&#45;&gt;B4 -->
<g id="edge6" class="edge"><title>A2&#45;&gt;B4</title>
<path fill="none" stroke="#2e3436" stroke-width="2" d="M213.944,-71.8314C226.527,-60.9167 242.481,-47.0764 255.062,-36.1628"/>
</g>
<!-- B6 -->
<g id="node14" class="node"><title>B6</title>
<polygon fill="#fadcad" stroke="#fadcad" stroke-width="1.5" points="125,-36 95,-36 83,-24 83,-12 95,-1.46056e-14 125,-6.71068e-15 137,-12 137,-24 125,-36"/>
<path fill="#fadcad" stroke="#fadcad" stroke-width="1.5" d="M95,-36C89,-36 83,-30 83,-24"/>
<path fill="#fadcad" stroke="#fadcad" stroke-width="1.5" d="M83,-12C83,-6 89,-1.61846e-14 95,-1.46056e-14"/>
<path fill="#fadcad" stroke="#fadcad" stroke-width="1.5" d="M125,-6.71068e-15C131,-5.1317e-15 137,-6 137,-12"/>
<path fill="#fadcad" stroke="#fadcad" stroke-width="1.5" d="M137,-24C137,-30 131,-36 125,-36"/>
<polyline fill="none" stroke="#2e3436" stroke-width="1.5" points="125,-36 95,-36 "/>
<path fill="none" stroke="#2e3436" stroke-width="1.5" d="M95,-36C89,-36 83,-30 83,-24"/>
<polyline fill="none" stroke="#2e3436" stroke-width="1.5" points="83,-24 83,-12 "/>
<path fill="none" stroke="#2e3436" stroke-width="1.5" d="M83,-12C83,-6 89,-1.61846e-14 95,-1.46056e-14"/>
<polyline fill="none" stroke="#2e3436" stroke-width="1.5" points="95,-1.46056e-14 125,-6.71068e-15 "/>
<path fill="none" stroke="#2e3436" stroke-width="1.5" d="M125,-6.71068e-15C131,-5.1317e-15 137,-6 137,-12"/>
<polyline fill="none" stroke="#2e3436" stroke-width="1.5" points="137,-12 137,-24 "/>
<path fill="none" stroke="#2e3436" stroke-width="1.5" d="M137,-24C137,-30 131,-36 125,-36"/>
<text text-anchor="middle" x="110" y="-15.5" font-family="FreeSans" font-size="10.00" fill="#1c2021">B6</text>
</g>
<!-- A2&#45;&gt;B6 -->
<g id="edge8" class="edge"><title>A2&#45;&gt;B6</title>
<path fill="none" stroke="#2e3436" stroke-width="2" d="M172.056,-71.8314C159.473,-60.9167 143.519,-47.0764 130.938,-36.1628"/>
</g>
<!-- A3 -->
<g id="node3" class="node"><title>A3</title>
<polygon fill="#a8e270" stroke="#a8e270" stroke-width="1.5" points="457,-108 427,-108 415,-96 415,-84 427,-72 457,-72 469,-84 469,-96 457,-108"/>
<path fill="#a8e270" stroke="#a8e270" stroke-width="1.5" d="M427,-108C421,-108 415,-102 415,-96"/>
<path fill="#a8e270" stroke="#a8e270" stroke-width="1.5" d="M415,-84C415,-78 421,-72 427,-72"/>
<path fill="#a8e270" stroke="#a8e270" stroke-width="1.5" d="M457,-72C463,-72 469,-78 469,-84"/>
<path fill="#a8e270" stroke="#a8e270" stroke-width="1.5" d="M469,-96C469,-102 463,-108 457,-108"/>
<polyline fill="none" stroke="#2e3436" stroke-width="1.5" points="457,-108 427,-108 "/>
<path fill="none" stroke="#2e3436" stroke-width="1.5" d="M427,-108C421,-108 415,-102 415,-96"/>
<polyline fill="none" stroke="#2e3436" stroke-width="1.5" points="415,-96 415,-84 "/>
<path fill="none" stroke="#2e3436" stroke-width="1.5" d="M415,-84C415,-78 421,-72 427,-72"/>
<polyline fill="none" stroke="#2e3436" stroke-width="1.5" points="427,-72 457,-72 "/>
<path fill="none" stroke="#2e3436" stroke-width="1.5" d="M457,-72C463,-72 469,-78 469,-84"/>
<polyline fill="none" stroke="#2e3436" stroke-width="1.5" points="469,-84 469,-96 "/>
<path fill="none" stroke="#2e3436" stroke-width="1.5" d="M469,-96C469,-102 463,-108 457,-108"/>
<text text-anchor="middle" x="442" y="-87.5" font-family="FreeSans" font-size="10.00" fill="#1c2021">A3</text>
</g>
<!-- B3 -->
<g id="node16" class="node"><title>B3</title>
<polygon fill="#fadcad" stroke="#fadcad" stroke-width="1.5" points="457,-36 427,-36 415,-24 415,-12 427,-1.46056e-14 457,-6.71068e-15 469,-12 469,-24 457,-36"/>
<path fill="#fadcad" stroke="#fadcad" stroke-width="1.5" d="M427,-36C421,-36 415,-30 415,-24"/>
<path fill="#fadcad" stroke="#fadcad" stroke-width="1.5" d="M415,-12C415,-6 421,-1.61846e-14 427,-1.46056e-14"/>
<path fill="#fadcad" stroke="#fadcad" stroke-width="1.5" d="M457,-6.71068e-15C463,-5.1317e-15 469,-6 469,-12"/>
<path fill="#fadcad" stroke="#fadcad" stroke-width="1.5" d="M469,-24C469,-30 463,-36 457,-36"/>
<polyline fill="none" stroke="#2e3436" stroke-width="1.5" points="457,-36 427,-36 "/>
<path fill="none" stroke="#2e3436" stroke-width="1.5" d="M427,-36C421,-36 415,-30 415,-24"/>
<polyline fill="none" stroke="#2e3436" stroke-width="1.5" points="415,-24 415,-12 "/>
<path fill="none" stroke="#2e3436" stroke-width="1.5" d="M415,-12C415,-6 421,-1.61846e-14 427,-1.46056e-14"/>
<polyline fill="none" stroke="#2e3436" stroke-width="1.5" points="427,-1.46056e-14 457,-6.71068e-15 "/>
<path fill="none" stroke="#2e3436" stroke-width="1.5" d="M457,-6.71068e-15C463,-5.1317e-15 469,-6 469,-12"/>
<polyline fill="none" stroke="#2e3436" stroke-width="1.5" points="469,-12 469,-24 "/>
<path fill="none" stroke="#2e3436" stroke-width="1.5" d="M469,-24C469,-30 463,-36 457,-36"/>
<text text-anchor="middle" x="442" y="-15.5" font-family="FreeSans" font-size="10.00" fill="#1c2021">B3</text>
</g>
<!-- A3&#45;&gt;B3 -->
<g id="edge10" class="edge"><title>A3&#45;&gt;B3</title>
<path fill="none" stroke="#2e3436" stroke-width="2" d="M442,-71.8314C442,-61 442,-47.2876 442,-36.4133"/>
</g>
<!-- B5 -->
<g id="node18" class="node"><title>B5</title>
<polygon fill="#fadcad" stroke="#fadcad" stroke-width="1.5" points="374,-36 344,-36 332,-24 332,-12 344,-1.46056e-14 374,-6.71068e-15 386,-12 386,-24 374,-36"/>
<path fill="#fadcad" stroke="#fadcad" stroke-width="1.5" d="M344,-36C338,-36 332,-30 332,-24"/>
<path fill="#fadcad" stroke="#fadcad" stroke-width="1.5" d="M332,-12C332,-6 338,-1.61846e-14 344,-1.46056e-14"/>
<path fill="#fadcad" stroke="#fadcad" stroke-width="1.5" d="M374,-6.71068e-15C380,-5.1317e-15 386,-6 386,-12"/>
<path fill="#fadcad" stroke="#fadcad" stroke-width="1.5" d="M386,-24C386,-30 380,-36 374,-36"/>
<polyline fill="none" stroke="#2e3436" stroke-width="1.5" points="374,-36 344,-36 "/>
<path fill="none" stroke="#2e3436" stroke-width="1.5" d="M344,-36C338,-36 332,-30 332,-24"/>
<polyline fill="none" stroke="#2e3436" stroke-width="1.5" points="332,-24 332,-12 "/>
<path fill="none" stroke="#2e3436" stroke-width="1.5" d="M332,-12C332,-6 338,-1.61846e-14 344,-1.46056e-14"/>
<polyline fill="none" stroke="#2e3436" stroke-width="1.5" points="344,-1.46056e-14 374,-6.71068e-15 "/>
<path fill="none" stroke="#2e3436" stroke-width="1.5" d="M374,-6.71068e-15C380,-5.1317e-15 386,-6 386,-12"/>
<polyline fill="none" stroke="#2e3436" stroke-width="1.5" points="386,-12 386,-24 "/>
<path fill="none" stroke="#2e3436" stroke-width="1.5" d="M386,-24C386,-30 380,-36 374,-36"/>
<text text-anchor="middle" x="359" y="-15.5" font-family="FreeSans" font-size="10.00" fill="#1c2021">B5</text>
</g>
<!-- A3&#45;&gt;B5 -->
<g id="edge12" class="edge"><title>A3&#45;&gt;B5</title>
<path fill="none" stroke="#2e3436" stroke-width="2" d="M421.056,-71.8314C408.473,-60.9167 392.519,-47.0764 379.938,-36.1628"/>
</g>
<!-- B7 -->
<g id="node20" class="node"><title>B7</title>
<polygon fill="#fadcad" stroke="#fadcad" stroke-width="1.5" points="540,-36 510,-36 498,-24 498,-12 510,-1.46056e-14 540,-6.71068e-15 552,-12 552,-24 540,-36"/>
<path fill="#fadcad" stroke="#fadcad" stroke-width="1.5" d="M510,-36C504,-36 498,-30 498,-24"/>
<path fill="#fadcad" stroke="#fadcad" stroke-width="1.5" d="M498,-12C498,-6 504,-1.61846e-14 510,-1.46056e-14"/>
<path fill="#fadcad" stroke="#fadcad" stroke-width="1.5" d="M540,-6.71068e-15C546,-5.1317e-15 552,-6 552,-12"/>
<path fill="#fadcad" stroke="#fadcad" stroke-width="1.5" d="M552,-24C552,-30 546,-36 540,-36"/>
<polyline fill="none" stroke="#2e3436" stroke-width="1.5" points="540,-36 510,-36 "/>
<path fill="none" stroke="#2e3436" stroke-width="1.5" d="M510,-36C504,-36 498,-30 498,-24"/>
<polyline fill="none" stroke="#2e3436" stroke-width="1.5" points="498,-24 498,-12 "/>
<path fill="none" stroke="#2e3436" stroke-width="1.5" d="M498,-12C498,-6 504,-1.61846e-14 510,-1.46056e-14"/>
<polyline fill="none" stroke="#2e3436" stroke-width="1.5" points="510,-1.46056e-14 540,-6.71068e-15 "/>
<path fill="none" stroke="#2e3436" stroke-width="1.5" d="M540,-6.71068e-15C546,-5.1317e-15 552,-6 552,-12"/>
<polyline fill="none" stroke="#2e3436" stroke-width="1.5" points="552,-12 552,-24 "/>
<path fill="none" stroke="#2e3436" stroke-width="1.5" d="M552,-24C552,-30 546,-36 540,-36"/>
<text text-anchor="middle" x="525" y="-15.5" font-family="FreeSans" font-size="10.00" fill="#1c2021">B7</text>
</g>
<!-- A3&#45;&gt;B7 -->
<g id="edge14" class="edge"><title>A3&#45;&gt;B7</title>
<path fill="none" stroke="#2e3436" stroke-width="2" d="M462.944,-71.8314C475.527,-60.9167 491.481,-47.0764 504.062,-36.1628"/>
</g>
<!-- C1 -->
<g id="node4" class="node"><title>C1</title>
<polygon fill="#95bbe3" stroke="#95bbe3" stroke-width="1.5" points="291,-108 261,-108 249,-96 249,-84 261,-72 291,-72 303,-84 303,-96 291,-108"/>
<path fill="#95bbe3" stroke="#95bbe3" stroke-width="1.5" d="M261,-108C255,-108 249,-102 249,-96"/>
<path fill="#95bbe3" stroke="#95bbe3" stroke-width="1.5" d="M249,-84C249,-78 255,-72 261,-72"/>
<path fill="#95bbe3" stroke="#95bbe3" stroke-width="1.5" d="M291,-72C297,-72 303,-78 303,-84"/>
<path fill="#95bbe3" stroke="#95bbe3" stroke-width="1.5" d="M303,-96C303,-102 297,-108 291,-108"/>
<polyline fill="none" stroke="#2e3436" stroke-width="1.5" points="291,-108 261,-108 "/>
<path fill="none" stroke="#2e3436" stroke-width="1.5" d="M261,-108C255,-108 249,-102 249,-96"/>
<polyline fill="none" stroke="#2e3436" stroke-width="1.5" points="249,-96 249,-84 "/>
<path fill="none" stroke="#2e3436" stroke-width="1.5" d="M249,-84C249,-78 255,-72 261,-72"/>
<polyline fill="none" stroke="#2e3436" stroke-width="1.5" points="261,-72 291,-72 "/>
<path fill="none" stroke="#2e3436" stroke-width="1.5" d="M291,-72C297,-72 303,-78 303,-84"/>
<polyline fill="none" stroke="#2e3436" stroke-width="1.5" points="303,-84 303,-96 "/>
<path fill="none" stroke="#2e3436" stroke-width="1.5" d="M303,-96C303,-102 297,-108 291,-108"/>
<text text-anchor="middle" x="276" y="-87.5" font-family="FreeSans" font-size="10.00" fill="#1c2021">C1</text>
</g>
<!-- C1&#45;&gt;B1 -->
<g id="edge16" class="edge"><title>C1&#45;&gt;B1</title>
<path fill="none" stroke="#2e3436" stroke-width="2" d="M255.056,-71.8314C242.473,-60.9167 226.519,-47.0764 213.938,-36.1628"/>
</g>
<!-- C1&#45;&gt;B4 -->
<g id="edge18" class="edge"><title>C1&#45;&gt;B4</title>
<path fill="none" stroke="#2e3436" stroke-width="2" d="M276,-71.8314C276,-61 276,-47.2876 276,-36.4133"/>
</g>
<!-- C1&#45;&gt;B5 -->
<g id="edge20" class="edge"><title>C1&#45;&gt;B5</title>
<path fill="none" stroke="#2e3436" stroke-width="2" d="M296.944,-71.8314C309.527,-60.9167 325.481,-47.0764 338.062,-36.1628"/>
</g>
<!-- C2 -->
<g id="node5" class="node"><title>C2</title>
<polygon fill="#95bbe3" stroke="#95bbe3" stroke-width="1.5" points="540,-108 510,-108 498,-96 498,-84 510,-72 540,-72 552,-84 552,-96 540,-108"/>
<path fill="#95bbe3" stroke="#95bbe3" stroke-width="1.5" d="M510,-108C504,-108 498,-102 498,-96"/>
<path fill="#95bbe3" stroke="#95bbe3" stroke-width="1.5" d="M498,-84C498,-78 504,-72 510,-72"/>
<path fill="#95bbe3" stroke="#95bbe3" stroke-width="1.5" d="M540,-72C546,-72 552,-78 552,-84"/>
<path fill="#95bbe3" stroke="#95bbe3" stroke-width="1.5" d="M552,-96C552,-102 546,-108 540,-108"/>
<polyline fill="none" stroke="#2e3436" stroke-width="1.5" points="540,-108 510,-108 "/>
<path fill="none" stroke="#2e3436" stroke-width="1.5" d="M510,-108C504,-108 498,-102 498,-96"/>
<polyline fill="none" stroke="#2e3436" stroke-width="1.5" points="498,-96 498,-84 "/>
<path fill="none" stroke="#2e3436" stroke-width="1.5" d="M498,-84C498,-78 504,-72 510,-72"/>
<polyline fill="none" stroke="#2e3436" stroke-width="1.5" points="510,-72 540,-72 "/>
<path fill="none" stroke="#2e3436" stroke-width="1.5" d="M540,-72C546,-72 552,-78 552,-84"/>
<polyline fill="none" stroke="#2e3436" stroke-width="1.5" points="552,-84 552,-96 "/>
<path fill="none" stroke="#2e3436" stroke-width="1.5" d="M552,-96C552,-102 546,-108 540,-108"/>
<text text-anchor="middle" x="525" y="-87.5" font-family="FreeSans" font-size="10.00" fill="#1c2021">C2</text>
</g>
<!-- C2&#45;&gt;B3 -->
<g id="edge22" class="edge"><title>C2&#45;&gt;B3</title>
<path fill="none" stroke="#2e3436" stroke-width="2" d="M504.056,-71.8314C491.473,-60.9167 475.519,-47.0764 462.938,-36.1628"/>
</g>
<!-- C2&#45;&gt;B7 -->
<g id="edge24" class="edge"><title>C2&#45;&gt;B7</title>
<path fill="none" stroke="#2e3436" stroke-width="2" d="M525,-71.8314C525,-61 525,-47.2876 525,-36.4133"/>
</g>
<!-- C3 -->
<g id="node6" class="node"><title>C3</title>
<polygon fill="#95bbe3" stroke="#95bbe3" stroke-width="1.5" points="42,-108 12,-108 1.42109e-14,-96 7.10543e-15,-84 12,-72 42,-72 54,-84 54,-96 42,-108"/>
<path fill="#95bbe3" stroke="#95bbe3" stroke-width="1.5" d="M12,-108C6,-108 1.77636e-14,-102 1.42109e-14,-96"/>
<path fill="#95bbe3" stroke="#95bbe3" stroke-width="1.5" d="M7.10543e-15,-84C3.55271e-15,-78 6,-72 12,-72"/>
<path fill="#95bbe3" stroke="#95bbe3" stroke-width="1.5" d="M42,-72C48,-72 54,-78 54,-84"/>
<path fill="#95bbe3" stroke="#95bbe3" stroke-width="1.5" d="M54,-96C54,-102 48,-108 42,-108"/>
<polyline fill="none" stroke="#2e3436" stroke-width="1.5" points="42,-108 12,-108 "/>
<path fill="none" stroke="#2e3436" stroke-width="1.5" d="M12,-108C6,-108 1.77636e-14,-102 1.42109e-14,-96"/>
<polyline fill="none" stroke="#2e3436" stroke-width="1.5" points="1.42109e-14,-96 7.10543e-15,-84 "/>
<path fill="none" stroke="#2e3436" stroke-width="1.5" d="M7.10543e-15,-84C3.55271e-15,-78 6,-72 12,-72"/>
<polyline fill="none" stroke="#2e3436" stroke-width="1.5" points="12,-72 42,-72 "/>
<path fill="none" stroke="#2e3436" stroke-width="1.5" d="M42,-72C48,-72 54,-78 54,-84"/>
<polyline fill="none" stroke="#2e3436" stroke-width="1.5" points="54,-84 54,-96 "/>
<path fill="none" stroke="#2e3436" stroke-width="1.5" d="M54,-96C54,-102 48,-108 42,-108"/>
<text text-anchor="middle" x="27" y="-87.5" font-family="FreeSans" font-size="10.00" fill="#1c2021">C3</text>
</g>
<!-- C3&#45;&gt;B2 -->
<g id="edge26" class="edge"><title>C3&#45;&gt;B2</title>
<path fill="none" stroke="#2e3436" stroke-width="2" d="M27,-71.8314C27,-61 27,-47.2876 27,-36.4133"/>
</g>
<!-- C3&#45;&gt;B6 -->
<g id="edge28" class="edge"><title>C3&#45;&gt;B6</title>
<path fill="none" stroke="#2e3436" stroke-width="2" d="M47.9444,-71.8314C60.5266,-60.9167 76.4813,-47.0764 89.0623,-36.1628"/>
</g>
</g>
</svg>
