<?xml version="1.0" encoding="UTF-8" standalone="no"?>
<!DOCTYPE svg PUBLIC "-//W3C//DTD SVG 1.1//EN"
 "http://www.w3.org/Graphics/SVG/1.1/DTD/svg11.dtd">
<!-- Generated by graphviz version 2.26.3 (20100126.1600)
 -->
<!-- Title: g Pages: 1 -->
<svg width="373pt" height="324pt"
 viewBox="0.00 0.00 373.00 324.00" xmlns="http://www.w3.org/2000/svg" xmlns:xlink="http://www.w3.org/1999/xlink">
<g id="graph1" class="graph" transform="scale(1 1) rotate(0) translate(4 320)">
<title>g</title>
<polygon fill="white" stroke="white" points="-4,5 -4,-320 370,-320 370,5 -4,5"/>
<!-- Traversal -->
<g id="node1" class="node"><title>Traversal</title>
<polygon fill="#a8e270" stroke="#a8e270" stroke-width="1.5" points="274,-316 240,-316 228,-304 228,-292 240,-280 274,-280 286,-292 286,-304 274,-316"/>
<path fill="#a8e270" stroke="#a8e270" stroke-width="1.5" d="M240,-316C234,-316 228,-310 228,-304"/>
<path fill="#a8e270" stroke="#a8e270" stroke-width="1.5" d="M228,-292C228,-286 234,-280 240,-280"/>
<path fill="#a8e270" stroke="#a8e270" stroke-width="1.5" d="M274,-280C280,-280 286,-286 286,-292"/>
<path fill="#a8e270" stroke="#a8e270" stroke-width="1.5" d="M286,-304C286,-310 280,-316 274,-316"/>
<polyline fill="none" stroke="#2e3436" stroke-width="1.5" points="274,-316 240,-316 "/>
<path fill="none" stroke="#2e3436" stroke-width="1.5" d="M240,-316C234,-316 228,-310 228,-304"/>
<polyline fill="none" stroke="#2e3436" stroke-width="1.5" points="228,-304 228,-292 "/>
<path fill="none" stroke="#2e3436" stroke-width="1.5" d="M228,-292C228,-286 234,-280 240,-280"/>
<polyline fill="none" stroke="#2e3436" stroke-width="1.5" points="240,-280 274,-280 "/>
<path fill="none" stroke="#2e3436" stroke-width="1.5" d="M274,-280C280,-280 286,-286 286,-292"/>
<polyline fill="none" stroke="#2e3436" stroke-width="1.5" points="286,-292 286,-304 "/>
<path fill="none" stroke="#2e3436" stroke-width="1.5" d="M286,-304C286,-310 280,-316 274,-316"/>
<text text-anchor="middle" x="257" y="-295.5" font-family="FreeSans" font-size="10.00" fill="#1c2021">Traversal</text>
</g>
<!-- Graph -->
<g id="node2" class="node"><title>Graph</title>
<polygon fill="#95bbe3" stroke="#95bbe3" stroke-width="1.5" points="154,-230 124,-230 112,-218 112,-206 124,-194 154,-194 166,-206 166,-218 154,-230"/>
<path fill="#95bbe3" stroke="#95bbe3" stroke-width="1.5" d="M124,-230C118,-230 112,-224 112,-218"/>
<path fill="#95bbe3" stroke="#95bbe3" stroke-width="1.5" d="M112,-206C112,-200 118,-194 124,-194"/>
<path fill="#95bbe3" stroke="#95bbe3" stroke-width="1.5" d="M154,-194C160,-194 166,-200 166,-206"/>
<path fill="#95bbe3" stroke="#95bbe3" stroke-width="1.5" d="M166,-218C166,-224 160,-230 154,-230"/>
<polyline fill="none" stroke="#2e3436" stroke-width="1.5" points="154,-230 124,-230 "/>
<path fill="none" stroke="#2e3436" stroke-width="1.5" d="M124,-230C118,-230 112,-224 112,-218"/>
<polyline fill="none" stroke="#2e3436" stroke-width="1.5" points="112,-218 112,-206 "/>
<path fill="none" stroke="#2e3436" stroke-width="1.5" d="M112,-206C112,-200 118,-194 124,-194"/>
<polyline fill="none" stroke="#2e3436" stroke-width="1.5" points="124,-194 154,-194 "/>
<path fill="none" stroke="#2e3436" stroke-width="1.5" d="M154,-194C160,-194 166,-200 166,-206"/>
<polyline fill="none" stroke="#2e3436" stroke-width="1.5" points="166,-206 166,-218 "/>
<path fill="none" stroke="#2e3436" stroke-width="1.5" d="M166,-218C166,-224 160,-230 154,-230"/>
<text text-anchor="middle" x="139" y="-209.5" font-family="FreeSans" font-size="10.00" fill="#1c2021">Graph</text>
</g>
<!-- Traversal&#45;&gt;Graph -->
<g id="edge8" class="edge"><title>Traversal&#45;&gt;Graph</title>
<path fill="none" stroke="#a40000" stroke-width="2" d="M227.968,-289.806C210.973,-283.995 189.817,-274.913 174,-262 165.497,-255.058 158.144,-245.547 152.403,-236.683"/>
<polygon fill="#a40000" stroke="#a40000" points="148.335,-230.083 155.144,-234.696 150.729,-233.013 152.697,-236.205 152.271,-236.468 151.845,-236.73 149.877,-233.538 149.398,-238.239 148.335,-230.083 148.335,-230.083"/>
<text text-anchor="middle" x="197.5" y="-252.5" font-family="FreeSans" font-size="10.00" fill="#a40000">navigates</text>
</g>
<!-- Paths -->
<g id="node3" class="node"><title>Paths</title>
<polygon fill="#95bbe3" stroke="#95bbe3" stroke-width="1.5" points="278,-176 248,-176 236,-164 236,-152 248,-140 278,-140 290,-152 290,-164 278,-176"/>
<path fill="#95bbe3" stroke="#95bbe3" stroke-width="1.5" d="M248,-176C242,-176 236,-170 236,-164"/>
<path fill="#95bbe3" stroke="#95bbe3" stroke-width="1.5" d="M236,-152C236,-146 242,-140 248,-140"/>
<path fill="#95bbe3" stroke="#95bbe3" stroke-width="1.5" d="M278,-140C284,-140 290,-146 290,-152"/>
<path fill="#95bbe3" stroke="#95bbe3" stroke-width="1.5" d="M290,-164C290,-170 284,-176 278,-176"/>
<polyline fill="none" stroke="#2e3436" stroke-width="1.5" points="278,-176 248,-176 "/>
<path fill="none" stroke="#2e3436" stroke-width="1.5" d="M248,-176C242,-176 236,-170 236,-164"/>
<polyline fill="none" stroke="#2e3436" stroke-width="1.5" points="236,-164 236,-152 "/>
<path fill="none" stroke="#2e3436" stroke-width="1.5" d="M236,-152C236,-146 242,-140 248,-140"/>
<polyline fill="none" stroke="#2e3436" stroke-width="1.5" points="248,-140 278,-140 "/>
<path fill="none" stroke="#2e3436" stroke-width="1.5" d="M278,-140C284,-140 290,-146 290,-152"/>
<polyline fill="none" stroke="#2e3436" stroke-width="1.5" points="290,-152 290,-164 "/>
<path fill="none" stroke="#2e3436" stroke-width="1.5" d="M290,-164C290,-170 284,-176 278,-176"/>
<text text-anchor="middle" x="263" y="-155.5" font-family="FreeSans" font-size="10.00" fill="#1c2021">Paths</text>
</g>
<!-- Traversal&#45;&gt;Paths -->
<g id="edge10" class="edge"><title>Traversal&#45;&gt;Paths</title>
<path fill="none" stroke="#a40000" stroke-width="2" d="M253.36,-279.759C252.391,-274.093 251.481,-267.809 251,-262 248.78,-235.177 253.144,-204.587 257.217,-183.563"/>
<polygon fill="#a40000" stroke="#a40000" points="258.75,-176.002 260.567,-184.023 258.495,-179.776 257.75,-183.451 257.26,-183.352 256.77,-183.253 257.515,-179.577 253.952,-182.682 258.75,-176.002 258.75,-176.002"/>
<text text-anchor="middle" x="272.5" y="-252.5" font-family="FreeSans" font-size="10.00" fill="#a40000">identifies</text>
</g>
<!-- Algorithm -->
<g id="node4" class="node"><title>Algorithm</title>
<polygon fill="#95bbe3" stroke="#95bbe3" stroke-width="1.5" points="353,-230 315,-230 303,-218 303,-206 315,-194 353,-194 365,-206 365,-218 353,-230"/>
<path fill="#95bbe3" stroke="#95bbe3" stroke-width="1.5" d="M315,-230C309,-230 303,-224 303,-218"/>
<path fill="#95bbe3" stroke="#95bbe3" stroke-width="1.5" d="M303,-206C303,-200 309,-194 315,-194"/>
<path fill="#95bbe3" stroke="#95bbe3" stroke-width="1.5" d="M353,-194C359,-194 365,-200 365,-206"/>
<path fill="#95bbe3" stroke="#95bbe3" stroke-width="1.5" d="M365,-218C365,-224 359,-230 353,-230"/>
<polyline fill="none" stroke="#2e3436" stroke-width="1.5" points="353,-230 315,-230 "/>
<path fill="none" stroke="#2e3436" stroke-width="1.5" d="M315,-230C309,-230 303,-224 303,-218"/>
<polyline fill="none" stroke="#2e3436" stroke-width="1.5" points="303,-218 303,-206 "/>
<path fill="none" stroke="#2e3436" stroke-width="1.5" d="M303,-206C303,-200 309,-194 315,-194"/>
<polyline fill="none" stroke="#2e3436" stroke-width="1.5" points="315,-194 353,-194 "/>
<path fill="none" stroke="#2e3436" stroke-width="1.5" d="M353,-194C359,-194 365,-200 365,-206"/>
<polyline fill="none" stroke="#2e3436" stroke-width="1.5" points="365,-206 365,-218 "/>
<path fill="none" stroke="#2e3436" stroke-width="1.5" d="M365,-218C365,-224 359,-230 353,-230"/>
<text text-anchor="middle" x="334" y="-209.5" font-family="FreeSans" font-size="10.00" fill="#1c2021">Algorithm</text>
</g>
<!-- Traversal&#45;&gt;Algorithm -->
<g id="edge12" class="edge"><title>Traversal&#45;&gt;Algorithm</title>
<path fill="none" stroke="#a40000" stroke-width="2" d="M281.916,-279.795C288.481,-274.432 295.313,-268.301 301,-262 307.928,-254.324 314.452,-245.068 319.841,-236.618"/>
<polygon fill="#a40000" stroke="#a40000" points="323.906,-230.06 322.824,-238.213 322.356,-233.511 320.38,-236.698 319.955,-236.435 319.53,-236.171 321.506,-232.984 317.086,-234.657 323.906,-230.06 323.906,-230.06"/>
<text text-anchor="middle" x="335.5" y="-252.5" font-family="FreeSans" font-size="10.00" fill="#a40000">expresses</text>
</g>
<!-- Relationships -->
<g id="node5" class="node"><title>Relationships</title>
<polygon fill="#fadcad" stroke="#fadcad" stroke-width="1.5" points="66,-122 12,-122 2.36848e-14,-110 1.18424e-14,-98 12,-86 66,-86 78,-98 78,-110 66,-122"/>
<path fill="#fadcad" stroke="#fadcad" stroke-width="1.5" d="M12,-122C6,-122 2.96059e-14,-116 2.36848e-14,-110"/>
<path fill="#fadcad" stroke="#fadcad" stroke-width="1.5" d="M1.18424e-14,-98C5.92119e-15,-92 6,-86 12,-86"/>
<path fill="#fadcad" stroke="#fadcad" stroke-width="1.5" d="M66,-86C72,-86 78,-92 78,-98"/>
<path fill="#fadcad" stroke="#fadcad" stroke-width="1.5" d="M78,-110C78,-116 72,-122 66,-122"/>
<polyline fill="none" stroke="#2e3436" stroke-width="1.5" points="66,-122 12,-122 "/>
<path fill="none" stroke="#2e3436" stroke-width="1.5" d="M12,-122C6,-122 2.96059e-14,-116 2.36848e-14,-110"/>
<polyline fill="none" stroke="#2e3436" stroke-width="1.5" points="2.36848e-14,-110 1.18424e-14,-98 "/>
<path fill="none" stroke="#2e3436" stroke-width="1.5" d="M1.18424e-14,-98C5.92119e-15,-92 6,-86 12,-86"/>
<polyline fill="none" stroke="#2e3436" stroke-width="1.5" points="12,-86 66,-86 "/>
<path fill="none" stroke="#2e3436" stroke-width="1.5" d="M66,-86C72,-86 78,-92 78,-98"/>
<polyline fill="none" stroke="#2e3436" stroke-width="1.5" points="78,-98 78,-110 "/>
<path fill="none" stroke="#2e3436" stroke-width="1.5" d="M78,-110C78,-116 72,-122 66,-122"/>
<text text-anchor="middle" x="39" y="-101.5" font-family="FreeSans" font-size="10.00" fill="#1c2021">Relationships</text>
</g>
<!-- Graph&#45;&gt;Relationships -->
<g id="edge6" class="edge"><title>Graph&#45;&gt;Relationships</title>
<path fill="none" stroke="#2e3436" stroke-width="2" d="M111.563,-205.577C85.629,-198.893 49.4637,-187.774 41,-176 31.4903,-162.771 31.1424,-144.358 33.0937,-129.464"/>
<polygon fill="#2e3436" stroke="#2e3436" points="34.2874,-122.043 36.4285,-129.984 34.1856,-125.825 33.59,-129.527 33.0963,-129.448 32.6027,-129.368 33.1982,-125.666 29.7642,-128.912 34.2874,-122.043 34.2874,-122.043"/>
<text text-anchor="middle" x="77.5" y="-155.5" font-family="FreeSans" font-size="10.00" fill="#1c2021">records data in</text>
</g>
<!-- Nodes -->
<g id="node7" class="node"><title>Nodes</title>
<polygon fill="#fadcad" stroke="#fadcad" stroke-width="1.5" points="216,-36 186,-36 174,-24 174,-12 186,-1.46056e-14 216,-6.71068e-15 228,-12 228,-24 216,-36"/>
<path fill="#fadcad" stroke="#fadcad" stroke-width="1.5" d="M186,-36C180,-36 174,-30 174,-24"/>
<path fill="#fadcad" stroke="#fadcad" stroke-width="1.5" d="M174,-12C174,-6 180,-1.61846e-14 186,-1.46056e-14"/>
<path fill="#fadcad" stroke="#fadcad" stroke-width="1.5" d="M216,-6.71068e-15C222,-5.1317e-15 228,-6 228,-12"/>
<path fill="#fadcad" stroke="#fadcad" stroke-width="1.5" d="M228,-24C228,-30 222,-36 216,-36"/>
<polyline fill="none" stroke="#2e3436" stroke-width="1.5" points="216,-36 186,-36 "/>
<path fill="none" stroke="#2e3436" stroke-width="1.5" d="M186,-36C180,-36 174,-30 174,-24"/>
<polyline fill="none" stroke="#2e3436" stroke-width="1.5" points="174,-24 174,-12 "/>
<path fill="none" stroke="#2e3436" stroke-width="1.5" d="M174,-12C174,-6 180,-1.61846e-14 186,-1.46056e-14"/>
<polyline fill="none" stroke="#2e3436" stroke-width="1.5" points="186,-1.46056e-14 216,-6.71068e-15 "/>
<path fill="none" stroke="#2e3436" stroke-width="1.5" d="M216,-6.71068e-15C222,-5.1317e-15 228,-6 228,-12"/>
<polyline fill="none" stroke="#2e3436" stroke-width="1.5" points="228,-12 228,-24 "/>
<path fill="none" stroke="#2e3436" stroke-width="1.5" d="M228,-24C228,-30 222,-36 216,-36"/>
<text text-anchor="middle" x="201" y="-15.5" font-family="FreeSans" font-size="10.00" fill="#1c2021">Nodes</text>
</g>
<!-- Graph&#45;&gt;Nodes -->
<g id="edge4" class="edge"><title>Graph&#45;&gt;Nodes</title>
<path fill="none" stroke="#2e3436" stroke-width="2" d="M137.995,-193.802C137.241,-168.686 138.157,-122.379 152,-86 158.082,-70.018 168.905,-54.3798 178.836,-42.1375"/>
<polygon fill="#2e3436" stroke="#2e3436" points="183.917,-36.0613 181.695,-43.9797 181.895,-39.2587 179.489,-42.1353 179.106,-41.8145 178.722,-41.4937 181.128,-38.6171 176.517,-39.6493 183.917,-36.0613 183.917,-36.0613"/>
<text text-anchor="middle" x="188.5" y="-101.5" font-family="FreeSans" font-size="10.00" fill="#1c2021">records data in</text>
</g>
<!-- Paths&#45;&gt;Nodes -->
<g id="edge14" class="edge"><title>Paths&#45;&gt;Nodes</title>
<path fill="none" stroke="#2e3436" stroke-width="2" d="M255.022,-139.984C244.153,-115.443 224.637,-71.3729 212.276,-43.4614"/>
<polygon fill="#2e3436" stroke="#2e3436" points="209.145,-36.3914 215.268,-41.8823 211.12,-39.6177 212.639,-43.0465 212.182,-43.249 211.725,-43.4515 210.206,-40.0226 209.096,-44.6156 209.145,-36.3914 209.145,-36.3914"/>
<text text-anchor="middle" x="259" y="-101.5" font-family="FreeSans" font-size="10.00" fill="#1c2021">order</text>
</g>
<!-- Relationships&#45;&gt;Nodes -->
<g id="edge2" class="edge"><title>Relationships&#45;&gt;Nodes</title>
<path fill="none" stroke="#2e3436" stroke-width="2" d="M46.9174,-85.8629C52.4779,-75.1267 60.9049,-62.086 72,-54 99.8252,-33.7214 138.622,-24.8574 166.387,-20.9877"/>
<polygon fill="#2e3436" stroke="#2e3436" points="173.908,-20.0234 166.898,-24.325 170.252,-20.9963 166.532,-21.4733 166.469,-20.9774 166.405,-20.4814 170.125,-20.0044 166.039,-17.6298 173.908,-20.0234 173.908,-20.0234"/>
<text text-anchor="middle" x="93" y="-58.5" font-family="FreeSans" font-size="10.00" fill="#1c2021">organize</text>
</g>
</g>
</svg>
