<?xml version="1.0" encoding="UTF-8" standalone="no"?>
<!DOCTYPE svg PUBLIC "-//W3C//DTD SVG 1.1//EN"
 "http://www.w3.org/Graphics/SVG/1.1/DTD/svg11.dtd">
<!-- Generated by graphviz version 2.26.3 (20100126.1600)
 -->
<!-- Title: g Pages: 1 -->
<svg width="152pt" height="214pt"
 viewBox="0.00 0.00 152.00 214.00" xmlns="http://www.w3.org/2000/svg" xmlns:xlink="http://www.w3.org/1999/xlink">
<g id="graph1" class="graph" transform="scale(1 1) rotate(0) translate(4 210)">
<title>g</title>
<polygon fill="white" stroke="white" points="-4,5 -4,-210 149,-210 149,5 -4,5"/>
<!-- K -->
<g id="node1" class="node"><title>K</title>
<polygon fill="#a8e270" stroke="#a8e270" stroke-width="1.5" points="12,-92.5 42,-92.5 54,-104.5 54,-143.5 42,-155.5 12,-155.5 0,-143.5 0,-104.5 12,-92.5"/>
<path fill="#a8e270" stroke="#a8e270" stroke-width="1.5" d="M42,-92.5C48,-92.5 54,-98.5 54,-104.5"/>
<path fill="#a8e270" stroke="#a8e270" stroke-width="1.5" d="M54,-143.5C54,-149.5 48,-155.5 42,-155.5"/>
<path fill="#a8e270" stroke="#a8e270" stroke-width="1.5" d="M12,-155.5C6,-155.5 0,-149.5 0,-143.5"/>
<path fill="#a8e270" stroke="#a8e270" stroke-width="1.5" d="M0,-104.5C0,-98.5 6,-92.5 12,-92.5"/>
<polyline fill="none" stroke="#2e3436" stroke-width="1.5" points="12,-92.5 42,-92.5 "/>
<path fill="none" stroke="#2e3436" stroke-width="1.5" d="M42,-92.5C48,-92.5 54,-98.5 54,-104.5"/>
<polyline fill="none" stroke="#2e3436" stroke-width="1.5" points="54,-104.5 54,-143.5 "/>
<path fill="none" stroke="#2e3436" stroke-width="1.5" d="M54,-143.5C54,-149.5 48,-155.5 42,-155.5"/>
<polyline fill="none" stroke="#2e3436" stroke-width="1.5" points="42,-155.5 12,-155.5 "/>
<path fill="none" stroke="#2e3436" stroke-width="1.5" d="M12,-155.5C6,-155.5 0,-149.5 0,-143.5"/>
<polyline fill="none" stroke="#2e3436" stroke-width="1.5" points="0,-143.5 0,-104.5 "/>
<path fill="none" stroke="#2e3436" stroke-width="1.5" d="M0,-104.5C0,-98.5 6,-92.5 12,-92.5"/>
<text text-anchor="middle" x="27" y="-142.5" font-family="FreeSans" font-size="10.00" fill="#1c2021">K1</text>
<polyline fill="none" stroke="#2e3436" stroke-width="1.5" points="0,-134.5 54,-134.5 "/>
<text text-anchor="middle" x="27" y="-121.5" font-family="FreeSans" font-size="10.00" fill="#1c2021">K2</text>
<polyline fill="none" stroke="#2e3436" stroke-width="1.5" points="0,-113.5 54,-113.5 "/>
<text text-anchor="middle" x="27" y="-100.5" font-family="FreeSans" font-size="10.00" fill="#1c2021">K3</text>
</g>
<!-- V1 -->
<g id="node2" class="node"><title>V1</title>
<polygon fill="#fadcad" stroke="#fadcad" stroke-width="1.5" points="102,-164 132,-164 144,-176 144,-194 132,-206 102,-206 90,-194 90,-176 102,-164"/>
<path fill="#fadcad" stroke="#fadcad" stroke-width="1.5" d="M132,-164C138,-164 144,-170 144,-176"/>
<path fill="#fadcad" stroke="#fadcad" stroke-width="1.5" d="M144,-194C144,-200 138,-206 132,-206"/>
<path fill="#fadcad" stroke="#fadcad" stroke-width="1.5" d="M102,-206C96,-206 90,-200 90,-194"/>
<path fill="#fadcad" stroke="#fadcad" stroke-width="1.5" d="M90,-176C90,-170 96,-164 102,-164"/>
<polyline fill="none" stroke="#2e3436" stroke-width="1.5" points="102,-164 132,-164 "/>
<path fill="none" stroke="#2e3436" stroke-width="1.5" d="M132,-164C138,-164 144,-170 144,-176"/>
<polyline fill="none" stroke="#2e3436" stroke-width="1.5" points="144,-176 144,-194 "/>
<path fill="none" stroke="#2e3436" stroke-width="1.5" d="M144,-194C144,-200 138,-206 132,-206"/>
<polyline fill="none" stroke="#2e3436" stroke-width="1.5" points="132,-206 102,-206 "/>
<path fill="none" stroke="#2e3436" stroke-width="1.5" d="M102,-206C96,-206 90,-200 90,-194"/>
<polyline fill="none" stroke="#2e3436" stroke-width="1.5" points="90,-194 90,-176 "/>
<path fill="none" stroke="#2e3436" stroke-width="1.5" d="M90,-176C90,-170 96,-164 102,-164"/>
<text text-anchor="middle" x="117" y="-193" font-family="FreeSans" font-size="10.00" fill="#1c2021">V1</text>
<polyline fill="none" stroke="#2e3436" stroke-width="1.5" points="90,-185 144,-185 "/>
<text text-anchor="middle" x="117" y="-172" font-family="FreeSans" font-size="10.00" fill="#1c2021">K2</text>
</g>
<!-- K&#45;&gt;V1 -->
<g id="edge2" class="edge"><title>K:1&#45;&gt;V1:v</title>
<path fill="none" stroke="#2e3436" stroke-width="2" d="M54,-145C78.7103,-145 65.9534,-185.454 82.4678,-194.303"/>
<polygon fill="#2e3436" stroke="#2e3436" points="90,-196 81.9416,-197.644 86.2318,-195.664 82.5735,-194.839 82.6834,-194.352 82.7933,-193.864 86.4516,-194.688 83.4251,-191.059 90,-196 90,-196"/>
</g>
<!-- V2 -->
<g id="node3" class="node"><title>V2</title>
<polygon fill="#fadcad" stroke="#fadcad" stroke-width="1.5" points="102,-71.5 132,-71.5 144,-83.5 144,-122.5 132,-134.5 102,-134.5 90,-122.5 90,-83.5 102,-71.5"/>
<path fill="#fadcad" stroke="#fadcad" stroke-width="1.5" d="M132,-71.5C138,-71.5 144,-77.5 144,-83.5"/>
<path fill="#fadcad" stroke="#fadcad" stroke-width="1.5" d="M144,-122.5C144,-128.5 138,-134.5 132,-134.5"/>
<path fill="#fadcad" stroke="#fadcad" stroke-width="1.5" d="M102,-134.5C96,-134.5 90,-128.5 90,-122.5"/>
<path fill="#fadcad" stroke="#fadcad" stroke-width="1.5" d="M90,-83.5C90,-77.5 96,-71.5 102,-71.5"/>
<polyline fill="none" stroke="#2e3436" stroke-width="1.5" points="102,-71.5 132,-71.5 "/>
<path fill="none" stroke="#2e3436" stroke-width="1.5" d="M132,-71.5C138,-71.5 144,-77.5 144,-83.5"/>
<polyline fill="none" stroke="#2e3436" stroke-width="1.5" points="144,-83.5 144,-122.5 "/>
<path fill="none" stroke="#2e3436" stroke-width="1.5" d="M144,-122.5C144,-128.5 138,-134.5 132,-134.5"/>
<polyline fill="none" stroke="#2e3436" stroke-width="1.5" points="132,-134.5 102,-134.5 "/>
<path fill="none" stroke="#2e3436" stroke-width="1.5" d="M102,-134.5C96,-134.5 90,-128.5 90,-122.5"/>
<polyline fill="none" stroke="#2e3436" stroke-width="1.5" points="90,-122.5 90,-83.5 "/>
<path fill="none" stroke="#2e3436" stroke-width="1.5" d="M90,-83.5C90,-77.5 96,-71.5 102,-71.5"/>
<text text-anchor="middle" x="117" y="-121.5" font-family="FreeSans" font-size="10.00" fill="#1c2021">V2</text>
<polyline fill="none" stroke="#2e3436" stroke-width="1.5" points="90,-113.5 144,-113.5 "/>
<text text-anchor="middle" x="117" y="-100.5" font-family="FreeSans" font-size="10.00" fill="#1c2021">K1</text>
<polyline fill="none" stroke="#2e3436" stroke-width="1.5" points="90,-92.5 144,-92.5 "/>
<text text-anchor="middle" x="117" y="-79.5" font-family="FreeSans" font-size="10.00" fill="#1c2021">K3</text>
</g>
<!-- K&#45;&gt;V2 -->
<g id="edge4" class="edge"><title>K:2&#45;&gt;V2:v</title>
<path fill="none" stroke="#2e3436" stroke-width="2" d="M54,-124C67.125,-124 72.175,-124 82.3981,-124"/>
<polygon fill="#2e3436" stroke="#2e3436" points="90,-124 82.5,-127.375 86.25,-124.5 82.5,-124.5 82.5,-124 82.5,-123.5 86.25,-123.5 82.5,-120.625 90,-124 90,-124"/>
</g>
<!-- V3 -->
<g id="node4" class="node"><title>V3</title>
<polygon fill="#fadcad" stroke="#fadcad" stroke-width="1.5" points="102,-0 132,-0 144,-12 144,-30 132,-42 102,-42 90,-30 90,-12 102,-0"/>
<path fill="#fadcad" stroke="#fadcad" stroke-width="1.5" d="M132,-0C138,-0 144,-6 144,-12"/>
<path fill="#fadcad" stroke="#fadcad" stroke-width="1.5" d="M144,-30C144,-36 138,-42 132,-42"/>
<path fill="#fadcad" stroke="#fadcad" stroke-width="1.5" d="M102,-42C96,-42 90,-36 90,-30"/>
<path fill="#fadcad" stroke="#fadcad" stroke-width="1.5" d="M90,-12C90,-6 96,-0 102,-0"/>
<polyline fill="none" stroke="#2e3436" stroke-width="1.5" points="102,-0 132,-0 "/>
<path fill="none" stroke="#2e3436" stroke-width="1.5" d="M132,-0C138,-0 144,-6 144,-12"/>
<polyline fill="none" stroke="#2e3436" stroke-width="1.5" points="144,-12 144,-30 "/>
<path fill="none" stroke="#2e3436" stroke-width="1.5" d="M144,-30C144,-36 138,-42 132,-42"/>
<polyline fill="none" stroke="#2e3436" stroke-width="1.5" points="132,-42 102,-42 "/>
<path fill="none" stroke="#2e3436" stroke-width="1.5" d="M102,-42C96,-42 90,-36 90,-30"/>
<polyline fill="none" stroke="#2e3436" stroke-width="1.5" points="90,-30 90,-12 "/>
<path fill="none" stroke="#2e3436" stroke-width="1.5" d="M90,-12C90,-6 96,-0 102,-0"/>
<text text-anchor="middle" x="117" y="-29" font-family="FreeSans" font-size="10.00" fill="#1c2021">V3</text>
<polyline fill="none" stroke="#2e3436" stroke-width="1.5" points="90,-21 144,-21 "/>
<text text-anchor="middle" x="117" y="-8" font-family="FreeSans" font-size="10.00" fill="#1c2021">K1</text>
</g>
<!-- K&#45;&gt;V3 -->
<g id="edge6" class="edge"><title>K:3&#45;&gt;V3:v</title>
<path fill="none" stroke="#2e3436" stroke-width="2" d="M54,-103C86.3396,-103 60.0763,-43.6788 82.3435,-33.4829"/>
<polygon fill="#2e3436" stroke="#2e3436" points="90,-32 83.2786,-36.7396 86.4135,-33.204 82.7319,-33.9171 82.6368,-33.4262 82.5418,-32.9353 86.2233,-32.2222 81.995,-30.1128 90,-32 90,-32"/>
</g>
</g>
</svg>
