<?xml version="1.0" encoding="UTF-8" standalone="no"?>
<!DOCTYPE svg PUBLIC "-//W3C//DTD SVG 1.1//EN"
 "http://www.w3.org/Graphics/SVG/1.1/DTD/svg11.dtd">
<!-- Generated by graphviz version 2.26.3 (20100126.1600)
 -->
<!-- Title: g Pages: 1 -->
<svg width="448pt" height="44pt"
 viewBox="0.00 0.00 448.00 44.00" xmlns="http://www.w3.org/2000/svg" xmlns:xlink="http://www.w3.org/1999/xlink">
<g id="graph1" class="graph" transform="scale(1 1) rotate(0) translate(4 40)">
<title>g</title>
<polygon fill="white" stroke="white" points="-4,5 -4,-40 445,-40 445,5 -4,5"/>
<!-- START -->
<g id="node1" class="node"><title>START</title>
<polygon fill="#ffffff" stroke="#ffffff" stroke-width="1.5" points="42,-36 12,-36 1.42109e-14,-24 7.10543e-15,-12 12,-1.46056e-14 42,-6.71068e-15 54,-12 54,-24 42,-36"/>
<path fill="#ffffff" stroke="#ffffff" stroke-width="1.5" d="M12,-36C6,-36 1.77636e-14,-30 1.42109e-14,-24"/>
<path fill="#ffffff" stroke="#ffffff" stroke-width="1.5" d="M7.10543e-15,-12C3.55271e-15,-6 6,-1.61846e-14 12,-1.46056e-14"/>
<path fill="#ffffff" stroke="#ffffff" stroke-width="1.5" d="M42,-6.71068e-15C48,-5.1317e-15 54,-6 54,-12"/>
<path fill="#ffffff" stroke="#ffffff" stroke-width="1.5" d="M54,-24C54,-30 48,-36 42,-36"/>
<polyline fill="none" stroke="#2e3436" stroke-width="1.5" points="42,-36 12,-36 "/>
<path fill="none" stroke="#2e3436" stroke-width="1.5" d="M12,-36C6,-36 1.77636e-14,-30 1.42109e-14,-24"/>
<polyline fill="none" stroke="#2e3436" stroke-width="1.5" points="1.42109e-14,-24 7.10543e-15,-12 "/>
<path fill="none" stroke="#2e3436" stroke-width="1.5" d="M7.10543e-15,-12C3.55271e-15,-6 6,-1.61846e-14 12,-1.46056e-14"/>
<polyline fill="none" stroke="#2e3436" stroke-width="1.5" points="12,-1.46056e-14 42,-6.71068e-15 "/>
<path fill="none" stroke="#2e3436" stroke-width="1.5" d="M42,-6.71068e-15C48,-5.1317e-15 54,-6 54,-12"/>
<polyline fill="none" stroke="#2e3436" stroke-width="1.5" points="54,-12 54,-24 "/>
<path fill="none" stroke="#2e3436" stroke-width="1.5" d="M54,-24C54,-30 48,-36 42,-36"/>
</g>
<!-- MIDDLE -->
<g id="node2" class="node"><title>MIDDLE</title>
<polygon fill="#fcee7d" stroke="#fcee7d" stroke-width="1.5" points="236,-36 206,-36 194,-24 194,-12 206,-1.46056e-14 236,-6.71068e-15 248,-12 248,-24 236,-36"/>
<path fill="#fcee7d" stroke="#fcee7d" stroke-width="1.5" d="M206,-36C200,-36 194,-30 194,-24"/>
<path fill="#fcee7d" stroke="#fcee7d" stroke-width="1.5" d="M194,-12C194,-6 200,-1.61846e-14 206,-1.46056e-14"/>
<path fill="#fcee7d" stroke="#fcee7d" stroke-width="1.5" d="M236,-6.71068e-15C242,-5.1317e-15 248,-6 248,-12"/>
<path fill="#fcee7d" stroke="#fcee7d" stroke-width="1.5" d="M248,-24C248,-30 242,-36 236,-36"/>
<polyline fill="none" stroke="#2e3436" stroke-width="1.5" points="236,-36 206,-36 "/>
<path fill="none" stroke="#2e3436" stroke-width="1.5" d="M206,-36C200,-36 194,-30 194,-24"/>
<polyline fill="none" stroke="#2e3436" stroke-width="1.5" points="194,-24 194,-12 "/>
<path fill="none" stroke="#2e3436" stroke-width="1.5" d="M194,-12C194,-6 200,-1.61846e-14 206,-1.46056e-14"/>
<polyline fill="none" stroke="#2e3436" stroke-width="1.5" points="206,-1.46056e-14 236,-6.71068e-15 "/>
<path fill="none" stroke="#2e3436" stroke-width="1.5" d="M236,-6.71068e-15C242,-5.1317e-15 248,-6 248,-12"/>
<polyline fill="none" stroke="#2e3436" stroke-width="1.5" points="248,-12 248,-24 "/>
<path fill="none" stroke="#2e3436" stroke-width="1.5" d="M248,-24C248,-30 242,-36 236,-36"/>
<text text-anchor="middle" x="221" y="-15.5" font-family="FreeSans" font-size="10.00" fill="#1c2021">Node</text>
</g>
<!-- START&#45;&gt;MIDDLE -->
<g id="edge4" class="edge"><title>START&#45;&gt;MIDDLE</title>
<path fill="none" stroke="#2e3436" stroke-width="2" d="M54.384,-18C88.9025,-18 148.28,-18 186.042,-18"/>
<polygon fill="#2e3436" stroke="#2e3436" points="193.755,-18 186.255,-21.3751 190.005,-18.5 186.255,-18.5001 186.255,-18.0001 186.255,-17.5001 190.005,-17.5 186.255,-14.6251 193.755,-18 193.755,-18"/>
<text text-anchor="middle" x="124" y="-22" font-family="FreeSans" font-size="10.00" fill="#1c2021">incoming relationship</text>
</g>
<!-- END -->
<g id="node3" class="node"><title>END</title>
<polygon fill="#ffffff" stroke="#ffffff" stroke-width="1.5" points="428,-36 398,-36 386,-24 386,-12 398,-1.46056e-14 428,-6.71068e-15 440,-12 440,-24 428,-36"/>
<path fill="#ffffff" stroke="#ffffff" stroke-width="1.5" d="M398,-36C392,-36 386,-30 386,-24"/>
<path fill="#ffffff" stroke="#ffffff" stroke-width="1.5" d="M386,-12C386,-6 392,-1.61846e-14 398,-1.46056e-14"/>
<path fill="#ffffff" stroke="#ffffff" stroke-width="1.5" d="M428,-6.71068e-15C434,-5.1317e-15 440,-6 440,-12"/>
<path fill="#ffffff" stroke="#ffffff" stroke-width="1.5" d="M440,-24C440,-30 434,-36 428,-36"/>
<polyline fill="none" stroke="#2e3436" stroke-width="1.5" points="428,-36 398,-36 "/>
<path fill="none" stroke="#2e3436" stroke-width="1.5" d="M398,-36C392,-36 386,-30 386,-24"/>
<polyline fill="none" stroke="#2e3436" stroke-width="1.5" points="386,-24 386,-12 "/>
<path fill="none" stroke="#2e3436" stroke-width="1.5" d="M386,-12C386,-6 392,-1.61846e-14 398,-1.46056e-14"/>
<polyline fill="none" stroke="#2e3436" stroke-width="1.5" points="398,-1.46056e-14 428,-6.71068e-15 "/>
<path fill="none" stroke="#2e3436" stroke-width="1.5" d="M428,-6.71068e-15C434,-5.1317e-15 440,-6 440,-12"/>
<polyline fill="none" stroke="#2e3436" stroke-width="1.5" points="440,-12 440,-24 "/>
<path fill="none" stroke="#2e3436" stroke-width="1.5" d="M440,-24C440,-30 434,-36 428,-36"/>
</g>
<!-- MIDDLE&#45;&gt;END -->
<g id="edge2" class="edge"><title>MIDDLE&#45;&gt;END</title>
<path fill="none" stroke="#2e3436" stroke-width="2" d="M248.102,-18C282.168,-18 340.698,-18 378.085,-18"/>
<polygon fill="#2e3436" stroke="#2e3436" points="385.726,-18 378.226,-21.3751 381.976,-18.5 378.226,-18.5001 378.226,-18.0001 378.226,-17.5001 381.976,-17.5 378.226,-14.6251 385.726,-18 385.726,-18"/>
<text text-anchor="middle" x="317" y="-22" font-family="FreeSans" font-size="10.00" fill="#1c2021">outgoing relationship</text>
</g>
</g>
</svg>
