<?xml version="1.0" encoding="UTF-8" standalone="no"?>
<!DOCTYPE svg PUBLIC "-//W3C//DTD SVG 1.1//EN"
 "http://www.w3.org/Graphics/SVG/1.1/DTD/svg11.dtd">
<!-- Generated by graphviz version 2.26.3 (20100126.1600)
 -->
<!-- Title: g Pages: 1 -->
<svg width="348pt" height="206pt"
 viewBox="0.00 0.00 348.00 206.00" xmlns="http://www.w3.org/2000/svg" xmlns:xlink="http://www.w3.org/1999/xlink">
<g id="graph1" class="graph" transform="scale(1 1) rotate(0) translate(4 202)">
<title>g</title>
<polygon fill="white" stroke="white" points="-4,5 -4,-202 345,-202 345,5 -4,5"/>
<g id="graph2" class="cluster"><title>cluster_0</title>
<polygon fill="none" stroke="none" points="8,-8 8,-190 78,-190 78,-8 8,-8"/>
</g>
<!-- gV1 -->
<g id="node1" class="node"><title>gV1</title>
<polygon fill="#fadcad" stroke="#fadcad" stroke-width="1.5" points="148,-118 118,-118 106,-106 106,-94 118,-82 148,-82 160,-94 160,-106 148,-118"/>
<path fill="#fadcad" stroke="#fadcad" stroke-width="1.5" d="M118,-118C112,-118 106,-112 106,-106"/>
<path fill="#fadcad" stroke="#fadcad" stroke-width="1.5" d="M106,-94C106,-88 112,-82 118,-82"/>
<path fill="#fadcad" stroke="#fadcad" stroke-width="1.5" d="M148,-82C154,-82 160,-88 160,-94"/>
<path fill="#fadcad" stroke="#fadcad" stroke-width="1.5" d="M160,-106C160,-112 154,-118 148,-118"/>
<polyline fill="none" stroke="#2e3436" stroke-width="1.5" points="148,-118 118,-118 "/>
<path fill="none" stroke="#2e3436" stroke-width="1.5" d="M118,-118C112,-118 106,-112 106,-106"/>
<polyline fill="none" stroke="#2e3436" stroke-width="1.5" points="106,-106 106,-94 "/>
<path fill="none" stroke="#2e3436" stroke-width="1.5" d="M106,-94C106,-88 112,-82 118,-82"/>
<polyline fill="none" stroke="#2e3436" stroke-width="1.5" points="118,-82 148,-82 "/>
<path fill="none" stroke="#2e3436" stroke-width="1.5" d="M148,-82C154,-82 160,-88 160,-94"/>
<polyline fill="none" stroke="#2e3436" stroke-width="1.5" points="160,-94 160,-106 "/>
<path fill="none" stroke="#2e3436" stroke-width="1.5" d="M160,-106C160,-112 154,-118 148,-118"/>
<text text-anchor="middle" x="133" y="-97.5" font-family="FreeSans" font-size="10.00" fill="#1c2021">V1</text>
</g>
<!-- gV2 -->
<g id="node2" class="node"><title>gV2</title>
<polygon fill="#fadcad" stroke="#fadcad" stroke-width="1.5" points="238,-173 208,-173 196,-161 196,-149 208,-137 238,-137 250,-149 250,-161 238,-173"/>
<path fill="#fadcad" stroke="#fadcad" stroke-width="1.5" d="M208,-173C202,-173 196,-167 196,-161"/>
<path fill="#fadcad" stroke="#fadcad" stroke-width="1.5" d="M196,-149C196,-143 202,-137 208,-137"/>
<path fill="#fadcad" stroke="#fadcad" stroke-width="1.5" d="M238,-137C244,-137 250,-143 250,-149"/>
<path fill="#fadcad" stroke="#fadcad" stroke-width="1.5" d="M250,-161C250,-167 244,-173 238,-173"/>
<polyline fill="none" stroke="#2e3436" stroke-width="1.5" points="238,-173 208,-173 "/>
<path fill="none" stroke="#2e3436" stroke-width="1.5" d="M208,-173C202,-173 196,-167 196,-161"/>
<polyline fill="none" stroke="#2e3436" stroke-width="1.5" points="196,-161 196,-149 "/>
<path fill="none" stroke="#2e3436" stroke-width="1.5" d="M196,-149C196,-143 202,-137 208,-137"/>
<polyline fill="none" stroke="#2e3436" stroke-width="1.5" points="208,-137 238,-137 "/>
<path fill="none" stroke="#2e3436" stroke-width="1.5" d="M238,-137C244,-137 250,-143 250,-149"/>
<polyline fill="none" stroke="#2e3436" stroke-width="1.5" points="250,-149 250,-161 "/>
<path fill="none" stroke="#2e3436" stroke-width="1.5" d="M250,-161C250,-167 244,-173 238,-173"/>
<text text-anchor="middle" x="223" y="-152.5" font-family="FreeSans" font-size="10.00" fill="#1c2021">V2</text>
</g>
<!-- gV1&#45;&gt;gV2 -->
<g id="edge5" class="edge"><title>gV1&#45;&gt;gV2</title>
<path fill="none" stroke="#2e3436" stroke-width="2" d="M160.003,-106.787C173.054,-113.563 188.523,-123.192 200.867,-132.286"/>
<polygon fill="#2e3436" stroke="#2e3436" points="207.007,-136.975 198.998,-135.106 203.723,-135.097 200.743,-132.821 201.046,-132.423 201.35,-132.026 204.33,-134.302 203.095,-129.741 207.007,-136.975 207.007,-136.975"/>
</g>
<!-- gV2&#45;&gt;gV1 -->
<g id="edge7" class="edge"><title>gV2&#45;&gt;gV1</title>
<path fill="none" stroke="#2e3436" stroke-width="2" d="M195.986,-148.901C182.692,-142.086 166.891,-132.21 154.441,-122.852"/>
<polygon fill="#2e3436" stroke="#2e3436" points="148.267,-118.025 156.255,-119.986 151.529,-119.941 154.484,-122.251 154.176,-122.645 153.868,-123.038 150.914,-120.729 152.097,-125.303 148.267,-118.025 148.267,-118.025"/>
</g>
<!-- gV3 -->
<g id="node3" class="node"><title>gV3</title>
<polygon fill="#fadcad" stroke="#fadcad" stroke-width="1.5" points="328,-111 298,-111 286,-99 286,-87 298,-75 328,-75 340,-87 340,-99 328,-111"/>
<path fill="#fadcad" stroke="#fadcad" stroke-width="1.5" d="M298,-111C292,-111 286,-105 286,-99"/>
<path fill="#fadcad" stroke="#fadcad" stroke-width="1.5" d="M286,-87C286,-81 292,-75 298,-75"/>
<path fill="#fadcad" stroke="#fadcad" stroke-width="1.5" d="M328,-75C334,-75 340,-81 340,-87"/>
<path fill="#fadcad" stroke="#fadcad" stroke-width="1.5" d="M340,-99C340,-105 334,-111 328,-111"/>
<polyline fill="none" stroke="#2e3436" stroke-width="1.5" points="328,-111 298,-111 "/>
<path fill="none" stroke="#2e3436" stroke-width="1.5" d="M298,-111C292,-111 286,-105 286,-99"/>
<polyline fill="none" stroke="#2e3436" stroke-width="1.5" points="286,-99 286,-87 "/>
<path fill="none" stroke="#2e3436" stroke-width="1.5" d="M286,-87C286,-81 292,-75 298,-75"/>
<polyline fill="none" stroke="#2e3436" stroke-width="1.5" points="298,-75 328,-75 "/>
<path fill="none" stroke="#2e3436" stroke-width="1.5" d="M328,-75C334,-75 340,-81 340,-87"/>
<polyline fill="none" stroke="#2e3436" stroke-width="1.5" points="340,-87 340,-99 "/>
<path fill="none" stroke="#2e3436" stroke-width="1.5" d="M340,-99C340,-105 334,-111 328,-111"/>
<text text-anchor="middle" x="313" y="-90.5" font-family="FreeSans" font-size="10.00" fill="#1c2021">V3</text>
</g>
<!-- gV2&#45;&gt;gV3 -->
<g id="edge9" class="edge"><title>gV2&#45;&gt;gV3</title>
<path fill="none" stroke="#2e3436" stroke-width="2" d="M249.516,-136.733C259.22,-130.048 270.313,-122.407 280.482,-115.401"/>
<polygon fill="#2e3436" stroke="#2e3436" points="286.673,-111.136 282.412,-118.17 283.869,-113.675 280.781,-115.803 280.497,-115.391 280.213,-114.979 283.302,-112.852 278.582,-112.612 286.673,-111.136 286.673,-111.136"/>
</g>
<!-- gV3&#45;&gt;gV1 -->
<g id="edge11" class="edge"><title>gV3&#45;&gt;gV1</title>
<path fill="none" stroke="#2e3436" stroke-width="2" d="M285.994,-94.0502C254.503,-95.2749 202.37,-97.3023 167.851,-98.6447"/>
<polygon fill="#2e3436" stroke="#2e3436" points="160.338,-98.9369 167.701,-95.2729 164.066,-98.2915 167.813,-98.1457 167.832,-98.6453 167.852,-99.1449 164.105,-99.2907 167.964,-102.018 160.338,-98.9369 160.338,-98.9369"/>
</g>
<!-- K1 -->
<g id="node5" class="node"><title>K1</title>
<polygon fill="#a8e270" stroke="#a8e270" stroke-width="1.5" points="58,-117 28,-117 16,-105 16,-93 28,-81 58,-81 70,-93 70,-105 58,-117"/>
<path fill="#a8e270" stroke="#a8e270" stroke-width="1.5" d="M28,-117C22,-117 16,-111 16,-105"/>
<path fill="#a8e270" stroke="#a8e270" stroke-width="1.5" d="M16,-93C16,-87 22,-81 28,-81"/>
<path fill="#a8e270" stroke="#a8e270" stroke-width="1.5" d="M58,-81C64,-81 70,-87 70,-93"/>
<path fill="#a8e270" stroke="#a8e270" stroke-width="1.5" d="M70,-105C70,-111 64,-117 58,-117"/>
<polyline fill="none" stroke="#2e3436" stroke-width="1.5" points="58,-117 28,-117 "/>
<path fill="none" stroke="#2e3436" stroke-width="1.5" d="M28,-117C22,-117 16,-111 16,-105"/>
<polyline fill="none" stroke="#2e3436" stroke-width="1.5" points="16,-105 16,-93 "/>
<path fill="none" stroke="#2e3436" stroke-width="1.5" d="M16,-93C16,-87 22,-81 28,-81"/>
<polyline fill="none" stroke="#2e3436" stroke-width="1.5" points="28,-81 58,-81 "/>
<path fill="none" stroke="#2e3436" stroke-width="1.5" d="M58,-81C64,-81 70,-87 70,-93"/>
<polyline fill="none" stroke="#2e3436" stroke-width="1.5" points="70,-93 70,-105 "/>
<path fill="none" stroke="#2e3436" stroke-width="1.5" d="M70,-105C70,-111 64,-117 58,-117"/>
<text text-anchor="middle" x="43" y="-96.5" font-family="FreeSans" font-size="10.00" fill="#1c2021">K1</text>
</g>
<!-- K1&#45;&gt;gV1 -->
<g id="edge3" class="edge"><title>K1&#45;&gt;gV1</title>
<path fill="none" stroke="#2e3436" stroke-width="2" d="M70.003,-99.3C78.8213,-99.398 88.7436,-99.5083 98.0597,-99.6118"/>
<polygon fill="#2e3436" stroke="#2e3436" points="105.705,-99.6967 98.1679,-102.988 101.95,-100.155 98.1999,-100.113 98.2055,-99.6133 98.2111,-99.1133 101.961,-99.155 98.243,-96.2385 105.705,-99.6967 105.705,-99.6967"/>
</g>
<!-- K2 -->
<g id="node6" class="node"><title>K2</title>
<polygon fill="#a8e270" stroke="#a8e270" stroke-width="1.5" points="58,-182 28,-182 16,-170 16,-158 28,-146 58,-146 70,-158 70,-170 58,-182"/>
<path fill="#a8e270" stroke="#a8e270" stroke-width="1.5" d="M28,-182C22,-182 16,-176 16,-170"/>
<path fill="#a8e270" stroke="#a8e270" stroke-width="1.5" d="M16,-158C16,-152 22,-146 28,-146"/>
<path fill="#a8e270" stroke="#a8e270" stroke-width="1.5" d="M58,-146C64,-146 70,-152 70,-158"/>
<path fill="#a8e270" stroke="#a8e270" stroke-width="1.5" d="M70,-170C70,-176 64,-182 58,-182"/>
<polyline fill="none" stroke="#2e3436" stroke-width="1.5" points="58,-182 28,-182 "/>
<path fill="none" stroke="#2e3436" stroke-width="1.5" d="M28,-182C22,-182 16,-176 16,-170"/>
<polyline fill="none" stroke="#2e3436" stroke-width="1.5" points="16,-170 16,-158 "/>
<path fill="none" stroke="#2e3436" stroke-width="1.5" d="M16,-158C16,-152 22,-146 28,-146"/>
<polyline fill="none" stroke="#2e3436" stroke-width="1.5" points="28,-146 58,-146 "/>
<path fill="none" stroke="#2e3436" stroke-width="1.5" d="M58,-146C64,-146 70,-152 70,-158"/>
<polyline fill="none" stroke="#2e3436" stroke-width="1.5" points="70,-158 70,-170 "/>
<path fill="none" stroke="#2e3436" stroke-width="1.5" d="M70,-170C70,-176 64,-182 58,-182"/>
<text text-anchor="middle" x="43" y="-161.5" font-family="FreeSans" font-size="10.00" fill="#1c2021">K2</text>
</g>
<!-- K2&#45;&gt;gV2 -->
<g id="edge13" class="edge"><title>K2&#45;&gt;gV2</title>
<path fill="none" stroke="#2e3436" stroke-width="2" d="M70.3381,-162.633C101.841,-161.058 153.679,-158.466 188.077,-156.746"/>
<polygon fill="#2e3436" stroke="#2e3436" points="195.994,-156.35 188.672,-160.096 192.274,-157.037 188.529,-157.224 188.504,-156.725 188.479,-156.226 192.224,-156.038 188.335,-153.354 195.994,-156.35 195.994,-156.35"/>
</g>
<!-- K3 -->
<g id="node7" class="node"><title>K3</title>
<polygon fill="#a8e270" stroke="#a8e270" stroke-width="1.5" points="58,-52 28,-52 16,-40 16,-28 28,-16 58,-16 70,-28 70,-40 58,-52"/>
<path fill="#a8e270" stroke="#a8e270" stroke-width="1.5" d="M28,-52C22,-52 16,-46 16,-40"/>
<path fill="#a8e270" stroke="#a8e270" stroke-width="1.5" d="M16,-28C16,-22 22,-16 28,-16"/>
<path fill="#a8e270" stroke="#a8e270" stroke-width="1.5" d="M58,-16C64,-16 70,-22 70,-28"/>
<path fill="#a8e270" stroke="#a8e270" stroke-width="1.5" d="M70,-40C70,-46 64,-52 58,-52"/>
<polyline fill="none" stroke="#2e3436" stroke-width="1.5" points="58,-52 28,-52 "/>
<path fill="none" stroke="#2e3436" stroke-width="1.5" d="M28,-52C22,-52 16,-46 16,-40"/>
<polyline fill="none" stroke="#2e3436" stroke-width="1.5" points="16,-40 16,-28 "/>
<path fill="none" stroke="#2e3436" stroke-width="1.5" d="M16,-28C16,-22 22,-16 28,-16"/>
<polyline fill="none" stroke="#2e3436" stroke-width="1.5" points="28,-16 58,-16 "/>
<path fill="none" stroke="#2e3436" stroke-width="1.5" d="M58,-16C64,-16 70,-22 70,-28"/>
<polyline fill="none" stroke="#2e3436" stroke-width="1.5" points="70,-28 70,-40 "/>
<path fill="none" stroke="#2e3436" stroke-width="1.5" d="M70,-40C70,-46 64,-52 58,-52"/>
<text text-anchor="middle" x="43" y="-31.5" font-family="FreeSans" font-size="10.00" fill="#1c2021">K3</text>
</g>
<!-- K3&#45;&gt;gV3 -->
<g id="edge15" class="edge"><title>K3&#45;&gt;gV3</title>
<path fill="none" stroke="#2e3436" stroke-width="2" d="M70.1248,-39.9273C119.552,-50.7281 224.19,-73.5933 278.565,-85.4753"/>
<polygon fill="#2e3436" stroke="#2e3436" points="285.893,-87.0767 277.846,-88.7727 282.123,-86.7645 278.459,-85.9639 278.566,-85.4755 278.673,-84.987 282.336,-85.7876 279.287,-82.1783 285.893,-87.0767 285.893,-87.0767"/>
</g>
</g>
</svg>
