<?xml version="1.0" encoding="UTF-8" standalone="no"?>
<!DOCTYPE svg PUBLIC "-//W3C//DTD SVG 1.1//EN"
 "http://www.w3.org/Graphics/SVG/1.1/DTD/svg11.dtd">
<!-- Generated by graphviz version 2.26.3 (20100126.1600)
 -->
<!-- Title: g Pages: 1 -->
<svg width="504pt" height="241pt"
 viewBox="0.00 0.00 504.00 241.43" xmlns="http://www.w3.org/2000/svg" xmlns:xlink="http://www.w3.org/1999/xlink">
<g id="graph1" class="graph" transform="scale(0.682003 0.682003) rotate(0) translate(4 350)">
<title>g</title>
<polygon fill="white" stroke="white" points="-4,5 -4,-350 736,-350 736,5 -4,5"/>
<!-- Traversal Description -->
<g id="node1" class="node"><title>Traversal Description</title>
<polygon fill="#a8e270" stroke="#a8e270" stroke-width="1.5" points="431,-208 339,-208 327,-196 327,-184 339,-172 431,-172 443,-184 443,-196 431,-208"/>
<path fill="#a8e270" stroke="#a8e270" stroke-width="1.5" d="M339,-208C333,-208 327,-202 327,-196"/>
<path fill="#a8e270" stroke="#a8e270" stroke-width="1.5" d="M327,-184C327,-178 333,-172 339,-172"/>
<path fill="#a8e270" stroke="#a8e270" stroke-width="1.5" d="M431,-172C437,-172 443,-178 443,-184"/>
<path fill="#a8e270" stroke="#a8e270" stroke-width="1.5" d="M443,-196C443,-202 437,-208 431,-208"/>
<polyline fill="none" stroke="#2e3436" stroke-width="1.5" points="431,-208 339,-208 "/>
<path fill="none" stroke="#2e3436" stroke-width="1.5" d="M339,-208C333,-208 327,-202 327,-196"/>
<polyline fill="none" stroke="#2e3436" stroke-width="1.5" points="327,-196 327,-184 "/>
<path fill="none" stroke="#2e3436" stroke-width="1.5" d="M327,-184C327,-178 333,-172 339,-172"/>
<polyline fill="none" stroke="#2e3436" stroke-width="1.5" points="339,-172 431,-172 "/>
<path fill="none" stroke="#2e3436" stroke-width="1.5" d="M431,-172C437,-172 443,-178 443,-184"/>
<polyline fill="none" stroke="#2e3436" stroke-width="1.5" points="443,-184 443,-196 "/>
<path fill="none" stroke="#2e3436" stroke-width="1.5" d="M443,-196C443,-202 437,-208 431,-208"/>
<text text-anchor="middle" x="385" y="-187.5" font-family="FreeSans" font-size="10.00" fill="#1c2021">Traversal Description</text>
</g>
<!-- Traverser -->
<g id="node30" class="node"><title>Traverser</title>
<polygon fill="#95bbe3" stroke="#95bbe3" stroke-width="1.5" points="403,-122 367,-122 355,-110 355,-98 367,-86 403,-86 415,-98 415,-110 403,-122"/>
<path fill="#95bbe3" stroke="#95bbe3" stroke-width="1.5" d="M367,-122C361,-122 355,-116 355,-110"/>
<path fill="#95bbe3" stroke="#95bbe3" stroke-width="1.5" d="M355,-98C355,-92 361,-86 367,-86"/>
<path fill="#95bbe3" stroke="#95bbe3" stroke-width="1.5" d="M403,-86C409,-86 415,-92 415,-98"/>
<path fill="#95bbe3" stroke="#95bbe3" stroke-width="1.5" d="M415,-110C415,-116 409,-122 403,-122"/>
<polyline fill="none" stroke="#2e3436" stroke-width="1.5" points="403,-122 367,-122 "/>
<path fill="none" stroke="#2e3436" stroke-width="1.5" d="M367,-122C361,-122 355,-116 355,-110"/>
<polyline fill="none" stroke="#2e3436" stroke-width="1.5" points="355,-110 355,-98 "/>
<path fill="none" stroke="#2e3436" stroke-width="1.5" d="M355,-98C355,-92 361,-86 367,-86"/>
<polyline fill="none" stroke="#2e3436" stroke-width="1.5" points="367,-86 403,-86 "/>
<path fill="none" stroke="#2e3436" stroke-width="1.5" d="M403,-86C409,-86 415,-92 415,-98"/>
<polyline fill="none" stroke="#2e3436" stroke-width="1.5" points="415,-98 415,-110 "/>
<path fill="none" stroke="#2e3436" stroke-width="1.5" d="M415,-110C415,-116 409,-122 403,-122"/>
<text text-anchor="middle" x="385" y="-101.5" font-family="FreeSans" font-size="10.00" fill="#1c2021">Traverser</text>
</g>
<!-- Traversal Description&#45;&gt;Traverser -->
<g id="edge30" class="edge"><title>Traversal Description&#45;&gt;Traverser</title>
<path fill="none" stroke="#2e3436" stroke-width="2" d="M385,-164.163C385,-150.64 385,-134.406 385,-122.212"/>
<polygon fill="#2e3436" stroke="#2e3436" points="385,-171.762 381.625,-164.262 384.5,-168.012 384.5,-164.262 385,-164.262 385.5,-164.262 385.5,-168.012 388.375,-164.262 385,-171.762 385,-171.762"/>
<text text-anchor="middle" x="402" y="-144.5" font-family="FreeSans" font-size="10.00" fill="#1c2021">applies</text>
</g>
<!-- Uniqueness -->
<g id="node2" class="node"><title>Uniqueness</title>
<polygon fill="#fadcad" stroke="#fadcad" stroke-width="1.5" points="460,-294 412,-294 400,-282 400,-270 412,-258 460,-258 472,-270 472,-282 460,-294"/>
<path fill="#fadcad" stroke="#fadcad" stroke-width="1.5" d="M412,-294C406,-294 400,-288 400,-282"/>
<path fill="#fadcad" stroke="#fadcad" stroke-width="1.5" d="M400,-270C400,-264 406,-258 412,-258"/>
<path fill="#fadcad" stroke="#fadcad" stroke-width="1.5" d="M460,-258C466,-258 472,-264 472,-270"/>
<path fill="#fadcad" stroke="#fadcad" stroke-width="1.5" d="M472,-282C472,-288 466,-294 460,-294"/>
<polyline fill="none" stroke="#2e3436" stroke-width="1.5" points="460,-294 412,-294 "/>
<path fill="none" stroke="#2e3436" stroke-width="1.5" d="M412,-294C406,-294 400,-288 400,-282"/>
<polyline fill="none" stroke="#2e3436" stroke-width="1.5" points="400,-282 400,-270 "/>
<path fill="none" stroke="#2e3436" stroke-width="1.5" d="M400,-270C400,-264 406,-258 412,-258"/>
<polyline fill="none" stroke="#2e3436" stroke-width="1.5" points="412,-258 460,-258 "/>
<path fill="none" stroke="#2e3436" stroke-width="1.5" d="M460,-258C466,-258 472,-264 472,-270"/>
<polyline fill="none" stroke="#2e3436" stroke-width="1.5" points="472,-270 472,-282 "/>
<path fill="none" stroke="#2e3436" stroke-width="1.5" d="M472,-282C472,-288 466,-294 460,-294"/>
<text text-anchor="middle" x="436" y="-273.5" font-family="FreeSans" font-size="10.00" fill="#1c2021">Uniqueness</text>
</g>
<!-- Uniqueness&#45;&gt;Traversal Description -->
<g id="edge2" class="edge"><title>Uniqueness&#45;&gt;Traversal Description</title>
<path fill="none" stroke="#2e3436" stroke-width="2" d="M425.184,-257.762C417.746,-245.219 407.78,-228.414 399.634,-214.677"/>
<polygon fill="#2e3436" stroke="#2e3436" points="395.8,-208.212 402.529,-212.942 398.143,-211.183 400.056,-214.408 399.626,-214.663 399.196,-214.918 397.283,-211.693 396.723,-216.385 395.8,-208.212 395.8,-208.212"/>
<text text-anchor="middle" x="453" y="-230.5" font-family="FreeSans" font-size="10.00" fill="#1c2021">avoid duplicates</text>
</g>
<!-- Evaluator -->
<g id="node4" class="node"><title>Evaluator</title>
<polygon fill="#fadcad" stroke="#fadcad" stroke-width="1.5" points="242,-294 204,-294 192,-282 192,-270 204,-258 242,-258 254,-270 254,-282 242,-294"/>
<path fill="#fadcad" stroke="#fadcad" stroke-width="1.5" d="M204,-294C198,-294 192,-288 192,-282"/>
<path fill="#fadcad" stroke="#fadcad" stroke-width="1.5" d="M192,-270C192,-264 198,-258 204,-258"/>
<path fill="#fadcad" stroke="#fadcad" stroke-width="1.5" d="M242,-258C248,-258 254,-264 254,-270"/>
<path fill="#fadcad" stroke="#fadcad" stroke-width="1.5" d="M254,-282C254,-288 248,-294 242,-294"/>
<polyline fill="none" stroke="#2e3436" stroke-width="1.5" points="242,-294 204,-294 "/>
<path fill="none" stroke="#2e3436" stroke-width="1.5" d="M204,-294C198,-294 192,-288 192,-282"/>
<polyline fill="none" stroke="#2e3436" stroke-width="1.5" points="192,-282 192,-270 "/>
<path fill="none" stroke="#2e3436" stroke-width="1.5" d="M192,-270C192,-264 198,-258 204,-258"/>
<polyline fill="none" stroke="#2e3436" stroke-width="1.5" points="204,-258 242,-258 "/>
<path fill="none" stroke="#2e3436" stroke-width="1.5" d="M242,-258C248,-258 254,-264 254,-270"/>
<polyline fill="none" stroke="#2e3436" stroke-width="1.5" points="254,-270 254,-282 "/>
<path fill="none" stroke="#2e3436" stroke-width="1.5" d="M254,-282C254,-288 248,-294 242,-294"/>
<text text-anchor="middle" x="223" y="-273.5" font-family="FreeSans" font-size="10.00" fill="#1c2021">Evaluator</text>
</g>
<!-- Evaluator&#45;&gt;Traversal Description -->
<g id="edge4" class="edge"><title>Evaluator&#45;&gt;Traversal Description</title>
<path fill="none" stroke="#2e3436" stroke-width="2" d="M243.621,-257.9C256.126,-247.574 272.758,-234.948 289,-226 299.167,-220.399 310.384,-215.315 321.457,-210.848"/>
<polygon fill="#2e3436" stroke="#2e3436" points="328.699,-208.003 322.953,-213.887 325.392,-209.84 321.901,-211.211 321.719,-210.746 321.536,-210.28 325.026,-208.909 320.485,-207.604 328.699,-208.003 328.699,-208.003"/>
<text text-anchor="middle" x="345" y="-230.5" font-family="FreeSans" font-size="10.00" fill="#1c2021">return and prune policy</text>
</g>
<!-- Prune/Continue -->
<g id="node19" class="node"><title>Prune/Continue</title>
<text text-anchor="middle" x="223" y="-187.5" font-family="FreeSans" font-size="10.00" fill="#1c2021">Prune/Continue</text>
</g>
<!-- Evaluator&#45;&gt;Prune/Continue -->
<g id="edge28" class="edge"><title>Evaluator&#45;&gt;Prune/Continue</title>
<path fill="none" stroke="#2e3436" stroke-width="2" d="M223,-257.762C223,-241.934 223,-219.318 223,-204.647"/>
<polygon fill="#2e3436" stroke="#2e3436" points="223,-197.038 226.375,-204.538 223.5,-200.788 223.5,-204.538 223,-204.538 222.5,-204.538 222.5,-200.788 219.625,-204.538 223,-197.038 223,-197.038"/>
</g>
<!-- Order -->
<g id="node6" class="node"><title>Order</title>
<polygon fill="#fadcad" stroke="#fadcad" stroke-width="1.5" points="128,-294 98,-294 86,-282 86,-270 98,-258 128,-258 140,-270 140,-282 128,-294"/>
<path fill="#fadcad" stroke="#fadcad" stroke-width="1.5" d="M98,-294C92,-294 86,-288 86,-282"/>
<path fill="#fadcad" stroke="#fadcad" stroke-width="1.5" d="M86,-270C86,-264 92,-258 98,-258"/>
<path fill="#fadcad" stroke="#fadcad" stroke-width="1.5" d="M128,-258C134,-258 140,-264 140,-270"/>
<path fill="#fadcad" stroke="#fadcad" stroke-width="1.5" d="M140,-282C140,-288 134,-294 128,-294"/>
<polyline fill="none" stroke="#2e3436" stroke-width="1.5" points="128,-294 98,-294 "/>
<path fill="none" stroke="#2e3436" stroke-width="1.5" d="M98,-294C92,-294 86,-288 86,-282"/>
<polyline fill="none" stroke="#2e3436" stroke-width="1.5" points="86,-282 86,-270 "/>
<path fill="none" stroke="#2e3436" stroke-width="1.5" d="M86,-270C86,-264 92,-258 98,-258"/>
<polyline fill="none" stroke="#2e3436" stroke-width="1.5" points="98,-258 128,-258 "/>
<path fill="none" stroke="#2e3436" stroke-width="1.5" d="M128,-258C134,-258 140,-264 140,-270"/>
<polyline fill="none" stroke="#2e3436" stroke-width="1.5" points="140,-270 140,-282 "/>
<path fill="none" stroke="#2e3436" stroke-width="1.5" d="M140,-282C140,-288 134,-294 128,-294"/>
<text text-anchor="middle" x="113" y="-273.5" font-family="FreeSans" font-size="10.00" fill="#1c2021">Order</text>
</g>
<!-- Order&#45;&gt;Traversal Description -->
<g id="edge6" class="edge"><title>Order&#45;&gt;Traversal Description</title>
<path fill="none" stroke="#2e3436" stroke-width="2" d="M132.264,-257.762C144.885,-246.847 162.277,-233.65 180,-226 186.499,-223.195 261.864,-210.333 319.344,-200.779"/>
<polygon fill="#2e3436" stroke="#2e3436" points="326.971,-199.513 320.125,-204.071 323.353,-200.62 319.654,-201.235 319.572,-200.741 319.49,-200.248 323.189,-199.634 319.019,-197.412 326.971,-199.513 326.971,-199.513"/>
<text text-anchor="middle" x="220.5" y="-230.5" font-family="FreeSans" font-size="10.00" fill="#1c2021">where to go next</text>
</g>
<!-- Expander -->
<g id="node8" class="node"><title>Expander</title>
<polygon fill="#fadcad" stroke="#fadcad" stroke-width="1.5" points="706,-294 668,-294 656,-282 656,-270 668,-258 706,-258 718,-270 718,-282 706,-294"/>
<path fill="#fadcad" stroke="#fadcad" stroke-width="1.5" d="M668,-294C662,-294 656,-288 656,-282"/>
<path fill="#fadcad" stroke="#fadcad" stroke-width="1.5" d="M656,-270C656,-264 662,-258 668,-258"/>
<path fill="#fadcad" stroke="#fadcad" stroke-width="1.5" d="M706,-258C712,-258 718,-264 718,-270"/>
<path fill="#fadcad" stroke="#fadcad" stroke-width="1.5" d="M718,-282C718,-288 712,-294 706,-294"/>
<polyline fill="none" stroke="#2e3436" stroke-width="1.5" points="706,-294 668,-294 "/>
<path fill="none" stroke="#2e3436" stroke-width="1.5" d="M668,-294C662,-294 656,-288 656,-282"/>
<polyline fill="none" stroke="#2e3436" stroke-width="1.5" points="656,-282 656,-270 "/>
<path fill="none" stroke="#2e3436" stroke-width="1.5" d="M656,-270C656,-264 662,-258 668,-258"/>
<polyline fill="none" stroke="#2e3436" stroke-width="1.5" points="668,-258 706,-258 "/>
<path fill="none" stroke="#2e3436" stroke-width="1.5" d="M706,-258C712,-258 718,-264 718,-270"/>
<polyline fill="none" stroke="#2e3436" stroke-width="1.5" points="718,-270 718,-282 "/>
<path fill="none" stroke="#2e3436" stroke-width="1.5" d="M718,-282C718,-288 712,-294 706,-294"/>
<text text-anchor="middle" x="687" y="-273.5" font-family="FreeSans" font-size="10.00" fill="#1c2021">Expander</text>
</g>
<!-- Expander&#45;&gt;Traversal Description -->
<g id="edge8" class="edge"><title>Expander&#45;&gt;Traversal Description</title>
<path fill="none" stroke="#2e3436" stroke-width="2" d="M655.818,-267.12C607.666,-253.408 514.147,-226.777 450.634,-208.691"/>
<polygon fill="#2e3436" stroke="#2e3436" points="443.043,-206.529 451.181,-205.337 446.786,-207.075 450.393,-208.102 450.256,-208.583 450.119,-209.064 446.513,-208.037 449.332,-211.829 443.043,-206.529 443.043,-206.529"/>
<text text-anchor="middle" x="594.5" y="-230.5" font-family="FreeSans" font-size="10.00" fill="#1c2021">what to traverse</text>
</g>
<!-- Relationship Type -->
<g id="node12" class="node"><title>Relationship Type</title>
<text text-anchor="middle" x="687" y="-187.5" font-family="FreeSans" font-size="10.00" fill="#1c2021">Relationship Type</text>
</g>
<!-- Expander&#45;&gt;Relationship Type -->
<g id="edge14" class="edge"><title>Expander&#45;&gt;Relationship Type</title>
<path fill="none" stroke="#2e3436" stroke-width="2" d="M687,-257.762C687,-241.934 687,-219.318 687,-204.647"/>
<polygon fill="#2e3436" stroke="#2e3436" points="687,-197.038 690.375,-204.538 687.5,-200.788 687.5,-204.538 687,-204.538 686.5,-204.538 686.5,-200.788 683.625,-204.538 687,-197.038 687,-197.038"/>
</g>
<!-- Depth First -->
<g id="node10" class="node"><title>Depth First</title>
<text text-anchor="middle" x="27" y="-336.5" font-family="FreeSans" font-size="10.00" fill="#1c2021">Depth First</text>
</g>
<!-- Depth First&#45;&gt;Order -->
<g id="edge10" class="edge"><title>Depth First&#45;&gt;Order</title>
<path fill="none" stroke="#2e3436" stroke-width="2" d="M42.9804,-327.293C55.6845,-317.987 73.6787,-304.805 88.2442,-294.135"/>
<polygon fill="#2e3436" stroke="#2e3436" points="36.8653,-331.773 40.9211,-324.618 39.595,-329.154 42.6201,-326.938 42.9156,-327.341 43.2111,-327.744 40.1859,-329.96 44.9101,-330.064 36.8653,-331.773 36.8653,-331.773"/>
</g>
<!-- Breadth First -->
<g id="node11" class="node"><title>Breadth First</title>
<text text-anchor="middle" x="113" y="-336.5" font-family="FreeSans" font-size="10.00" fill="#1c2021">Breadth First</text>
</g>
<!-- Breadth First&#45;&gt;Order -->
<g id="edge12" class="edge"><title>Breadth First&#45;&gt;Order</title>
<path fill="none" stroke="#2e3436" stroke-width="2" d="M113,-324.087C113,-315.115 113,-303.63 113,-294.135"/>
<polygon fill="#2e3436" stroke="#2e3436" points="113,-331.773 109.625,-324.273 112.5,-328.023 112.5,-324.273 113,-324.273 113.5,-324.273 113.5,-328.023 116.375,-324.273 113,-331.773 113,-331.773"/>
</g>
<!-- Direction -->
<g id="node13" class="node"><title>Direction</title>
<text text-anchor="middle" x="704" y="-336.5" font-family="FreeSans" font-size="10.00" fill="#1c2021">Direction</text>
</g>
<!-- Direction&#45;&gt;Expander -->
<g id="edge16" class="edge"><title>Direction&#45;&gt;Expander</title>
<path fill="none" stroke="#2e3436" stroke-width="2" d="M700.051,-324.364C697.619,-315.352 694.482,-303.728 691.894,-294.135"/>
<polygon fill="#2e3436" stroke="#2e3436" points="702.05,-331.773 696.837,-325.411 700.59,-328.283 699.613,-324.662 700.096,-324.532 700.579,-324.402 701.556,-328.022 703.354,-323.653 702.05,-331.773 702.05,-331.773"/>
</g>
<!-- Unique Nodes -->
<g id="node14" class="node"><title>Unique Nodes</title>
<text text-anchor="middle" x="614" y="-336.5" font-family="FreeSans" font-size="10.00" fill="#1c2021">Unique Nodes</text>
</g>
<!-- Unique Nodes&#45;&gt;Uniqueness -->
<g id="edge18" class="edge"><title>Unique Nodes&#45;&gt;Uniqueness</title>
<path fill="none" stroke="#2e3436" stroke-width="2" d="M586.569,-329.291C555.924,-318.445 506.182,-300.84 472.326,-288.857"/>
<polygon fill="#2e3436" stroke="#2e3436" points="593.927,-331.896 585.731,-332.575 590.225,-331.116 586.69,-329.864 586.857,-329.393 587.024,-328.922 590.559,-330.173 587.983,-326.212 593.927,-331.896 593.927,-331.896"/>
</g>
<!-- Unique Relationships -->
<g id="node15" class="node"><title>Unique Relationships</title>
<text text-anchor="middle" x="325" y="-336.5" font-family="FreeSans" font-size="10.00" fill="#1c2021">Unique Relationships</text>
</g>
<!-- Unique Relationships&#45;&gt;Uniqueness -->
<g id="edge20" class="edge"><title>Unique Relationships&#45;&gt;Uniqueness</title>
<path fill="none" stroke="#2e3436" stroke-width="2" d="M344.288,-328.053C360.741,-318.714 384.731,-305.099 404.048,-294.135"/>
<polygon fill="#2e3436" stroke="#2e3436" points="337.733,-331.773 342.59,-325.136 340.748,-329.487 344.009,-327.636 344.256,-328.071 344.503,-328.506 341.241,-330.357 345.922,-331.006 337.733,-331.773 337.733,-331.773"/>
</g>
<!-- Unique Paths -->
<g id="node16" class="node"><title>Unique Paths</title>
<text text-anchor="middle" x="436" y="-336.5" font-family="FreeSans" font-size="10.00" fill="#1c2021">Unique Paths</text>
</g>
<!-- Unique Paths&#45;&gt;Uniqueness -->
<g id="edge22" class="edge"><title>Unique Paths&#45;&gt;Uniqueness</title>
<path fill="none" stroke="#2e3436" stroke-width="2" d="M436,-324.087C436,-315.115 436,-303.63 436,-294.135"/>
<polygon fill="#2e3436" stroke="#2e3436" points="436,-331.773 432.625,-324.273 435.5,-328.023 435.5,-324.273 436,-324.273 436.5,-324.273 436.5,-328.023 439.375,-324.273 436,-331.773 436,-331.773"/>
</g>
<!-- None -->
<g id="node17" class="node"><title>None</title>
<text text-anchor="middle" x="524" y="-336.5" font-family="FreeSans" font-size="10.00" fill="#1c2021">None</text>
</g>
<!-- None&#45;&gt;Uniqueness -->
<g id="edge24" class="edge"><title>None&#45;&gt;Uniqueness</title>
<path fill="none" stroke="#2e3436" stroke-width="2" d="M507.648,-327.293C494.648,-317.987 476.236,-304.805 461.331,-294.135"/>
<polygon fill="#2e3436" stroke="#2e3436" points="513.905,-331.773 505.842,-330.151 510.565,-329.997 507.516,-327.814 507.807,-327.407 508.098,-327.001 511.147,-329.184 509.772,-324.663 513.905,-331.773 513.905,-331.773"/>
</g>
<!-- Include/Exclude -->
<g id="node18" class="node"><title>Include/Exclude</title>
<text text-anchor="middle" x="209" y="-336.5" font-family="FreeSans" font-size="10.00" fill="#1c2021">Include/Exclude</text>
</g>
<!-- Include/Exclude&#45;&gt;Evaluator -->
<g id="edge26" class="edge"><title>Include/Exclude&#45;&gt;Evaluator</title>
<path fill="none" stroke="#2e3436" stroke-width="2" d="M212.252,-324.364C214.255,-315.352 216.838,-303.728 218.97,-294.135"/>
<polygon fill="#2e3436" stroke="#2e3436" points="210.606,-331.773 208.938,-323.72 210.931,-328.004 211.745,-324.343 212.233,-324.452 212.721,-324.56 211.908,-328.221 215.528,-325.184 210.606,-331.773 210.606,-331.773"/>
</g>
<!-- Paths -->
<g id="node35" class="node"><title>Paths</title>
<polygon fill="#fadcad" stroke="#fadcad" stroke-width="1.5" points="317,-36 287,-36 275,-24 275,-12 287,-1.46056e-14 317,-6.71068e-15 329,-12 329,-24 317,-36"/>
<path fill="#fadcad" stroke="#fadcad" stroke-width="1.5" d="M287,-36C281,-36 275,-30 275,-24"/>
<path fill="#fadcad" stroke="#fadcad" stroke-width="1.5" d="M275,-12C275,-6 281,-1.61846e-14 287,-1.46056e-14"/>
<path fill="#fadcad" stroke="#fadcad" stroke-width="1.5" d="M317,-6.71068e-15C323,-5.1317e-15 329,-6 329,-12"/>
<path fill="#fadcad" stroke="#fadcad" stroke-width="1.5" d="M329,-24C329,-30 323,-36 317,-36"/>
<polyline fill="none" stroke="#2e3436" stroke-width="1.5" points="317,-36 287,-36 "/>
<path fill="none" stroke="#2e3436" stroke-width="1.5" d="M287,-36C281,-36 275,-30 275,-24"/>
<polyline fill="none" stroke="#2e3436" stroke-width="1.5" points="275,-24 275,-12 "/>
<path fill="none" stroke="#2e3436" stroke-width="1.5" d="M275,-12C275,-6 281,-1.61846e-14 287,-1.46056e-14"/>
<polyline fill="none" stroke="#2e3436" stroke-width="1.5" points="287,-1.46056e-14 317,-6.71068e-15 "/>
<path fill="none" stroke="#2e3436" stroke-width="1.5" d="M317,-6.71068e-15C323,-5.1317e-15 329,-6 329,-12"/>
<polyline fill="none" stroke="#2e3436" stroke-width="1.5" points="329,-12 329,-24 "/>
<path fill="none" stroke="#2e3436" stroke-width="1.5" d="M329,-24C329,-30 323,-36 317,-36"/>
<text text-anchor="middle" x="302" y="-15.5" font-family="FreeSans" font-size="10.00" fill="#1c2021">Paths</text>
</g>
<!-- Traverser&#45;&gt;Paths -->
<g id="edge34" class="edge"><title>Traverser&#45;&gt;Paths</title>
<path fill="none" stroke="#2e3436" stroke-width="2" d="M356.955,-85.9169C349.722,-80.5979 342.228,-74.4592 336,-68 328.756,-60.4869 322.01,-51.268 316.469,-42.8015"/>
<polygon fill="#2e3436" stroke="#2e3436" points="312.296,-36.2198 319.162,-40.747 314.726,-39.1192 316.734,-42.2864 316.312,-42.5541 315.89,-42.8218 313.882,-39.6547 313.461,-44.3612 312.296,-36.2198 312.296,-36.2198"/>
<text text-anchor="middle" x="357" y="-58.5" font-family="FreeSans" font-size="10.00" fill="#1c2021">result as</text>
</g>
<!-- Nodes -->
<g id="node37" class="node"><title>Nodes</title>
<polygon fill="#fadcad" stroke="#fadcad" stroke-width="1.5" points="400,-36 370,-36 358,-24 358,-12 370,-1.46056e-14 400,-6.71068e-15 412,-12 412,-24 400,-36"/>
<path fill="#fadcad" stroke="#fadcad" stroke-width="1.5" d="M370,-36C364,-36 358,-30 358,-24"/>
<path fill="#fadcad" stroke="#fadcad" stroke-width="1.5" d="M358,-12C358,-6 364,-1.61846e-14 370,-1.46056e-14"/>
<path fill="#fadcad" stroke="#fadcad" stroke-width="1.5" d="M400,-6.71068e-15C406,-5.1317e-15 412,-6 412,-12"/>
<path fill="#fadcad" stroke="#fadcad" stroke-width="1.5" d="M412,-24C412,-30 406,-36 400,-36"/>
<polyline fill="none" stroke="#2e3436" stroke-width="1.5" points="400,-36 370,-36 "/>
<path fill="none" stroke="#2e3436" stroke-width="1.5" d="M370,-36C364,-36 358,-30 358,-24"/>
<polyline fill="none" stroke="#2e3436" stroke-width="1.5" points="358,-24 358,-12 "/>
<path fill="none" stroke="#2e3436" stroke-width="1.5" d="M358,-12C358,-6 364,-1.61846e-14 370,-1.46056e-14"/>
<polyline fill="none" stroke="#2e3436" stroke-width="1.5" points="370,-1.46056e-14 400,-6.71068e-15 "/>
<path fill="none" stroke="#2e3436" stroke-width="1.5" d="M400,-6.71068e-15C406,-5.1317e-15 412,-6 412,-12"/>
<polyline fill="none" stroke="#2e3436" stroke-width="1.5" points="412,-12 412,-24 "/>
<path fill="none" stroke="#2e3436" stroke-width="1.5" d="M412,-24C412,-30 406,-36 400,-36"/>
<text text-anchor="middle" x="385" y="-15.5" font-family="FreeSans" font-size="10.00" fill="#1c2021">Nodes</text>
</g>
<!-- Traverser&#45;&gt;Nodes -->
<g id="edge36" class="edge"><title>Traverser&#45;&gt;Nodes</title>
<path fill="none" stroke="#2e3436" stroke-width="2" d="M385,-85.7616C385,-73.5615 385,-57.3273 385,-43.8076"/>
<polygon fill="#2e3436" stroke="#2e3436" points="385,-36.2121 388.375,-43.7121 385.5,-39.9621 385.5,-43.7121 385,-43.7121 384.5,-43.7121 384.5,-39.9621 381.625,-43.7121 385,-36.2121 385,-36.2121"/>
<text text-anchor="middle" x="406" y="-58.5" font-family="FreeSans" font-size="10.00" fill="#1c2021">result as</text>
</g>
<!-- Relationships -->
<g id="node39" class="node"><title>Relationships</title>
<polygon fill="#fadcad" stroke="#fadcad" stroke-width="1.5" points="507,-36 453,-36 441,-24 441,-12 453,-1.55773e-14 507,-5.739e-15 519,-12 519,-24 507,-36"/>
<path fill="#fadcad" stroke="#fadcad" stroke-width="1.5" d="M453,-36C447,-36 441,-30 441,-24"/>
<path fill="#fadcad" stroke="#fadcad" stroke-width="1.5" d="M441,-12C441,-6 447,-1.66704e-14 453,-1.55773e-14"/>
<path fill="#fadcad" stroke="#fadcad" stroke-width="1.5" d="M507,-5.739e-15C513,-4.64586e-15 519,-6 519,-12"/>
<path fill="#fadcad" stroke="#fadcad" stroke-width="1.5" d="M519,-24C519,-30 513,-36 507,-36"/>
<polyline fill="none" stroke="#2e3436" stroke-width="1.5" points="507,-36 453,-36 "/>
<path fill="none" stroke="#2e3436" stroke-width="1.5" d="M453,-36C447,-36 441,-30 441,-24"/>
<polyline fill="none" stroke="#2e3436" stroke-width="1.5" points="441,-24 441,-12 "/>
<path fill="none" stroke="#2e3436" stroke-width="1.5" d="M441,-12C441,-6 447,-1.66704e-14 453,-1.55773e-14"/>
<polyline fill="none" stroke="#2e3436" stroke-width="1.5" points="453,-1.55773e-14 507,-5.739e-15 "/>
<path fill="none" stroke="#2e3436" stroke-width="1.5" d="M507,-5.739e-15C513,-4.64586e-15 519,-6 519,-12"/>
<polyline fill="none" stroke="#2e3436" stroke-width="1.5" points="519,-12 519,-24 "/>
<path fill="none" stroke="#2e3436" stroke-width="1.5" d="M519,-24C519,-30 513,-36 507,-36"/>
<text text-anchor="middle" x="480" y="-15.5" font-family="FreeSans" font-size="10.00" fill="#1c2021">Relationships</text>
</g>
<!-- Traverser&#45;&gt;Relationships -->
<g id="edge38" class="edge"><title>Traverser&#45;&gt;Relationships</title>
<path fill="none" stroke="#2e3436" stroke-width="2" d="M411.67,-85.8438C419.127,-80.3876 427.08,-74.1971 434,-68 442.853,-60.0721 451.862,-50.64 459.534,-42.1157"/>
<polygon fill="#2e3436" stroke="#2e3436" points="464.613,-36.3889 462.161,-44.2395 462.499,-39.5262 460.01,-42.3318 459.636,-42.0001 459.262,-41.6683 461.75,-38.8627 457.111,-39.7607 464.613,-36.3889 464.613,-36.3889"/>
<text text-anchor="middle" x="469" y="-58.5" font-family="FreeSans" font-size="10.00" fill="#1c2021">result as</text>
</g>
<!-- A Node -->
<g id="node31" class="node"><title>A Node</title>
<polygon fill="#a8e270" stroke="#a8e270" stroke-width="1.5" points="238,-122 208,-122 196,-110 196,-98 208,-86 238,-86 250,-98 250,-110 238,-122"/>
<path fill="#a8e270" stroke="#a8e270" stroke-width="1.5" d="M208,-122C202,-122 196,-116 196,-110"/>
<path fill="#a8e270" stroke="#a8e270" stroke-width="1.5" d="M196,-98C196,-92 202,-86 208,-86"/>
<path fill="#a8e270" stroke="#a8e270" stroke-width="1.5" d="M238,-86C244,-86 250,-92 250,-98"/>
<path fill="#a8e270" stroke="#a8e270" stroke-width="1.5" d="M250,-110C250,-116 244,-122 238,-122"/>
<polyline fill="none" stroke="#2e3436" stroke-width="1.5" points="238,-122 208,-122 "/>
<path fill="none" stroke="#2e3436" stroke-width="1.5" d="M208,-122C202,-122 196,-116 196,-110"/>
<polyline fill="none" stroke="#2e3436" stroke-width="1.5" points="196,-110 196,-98 "/>
<path fill="none" stroke="#2e3436" stroke-width="1.5" d="M196,-98C196,-92 202,-86 208,-86"/>
<polyline fill="none" stroke="#2e3436" stroke-width="1.5" points="208,-86 238,-86 "/>
<path fill="none" stroke="#2e3436" stroke-width="1.5" d="M238,-86C244,-86 250,-92 250,-98"/>
<polyline fill="none" stroke="#2e3436" stroke-width="1.5" points="250,-98 250,-110 "/>
<path fill="none" stroke="#2e3436" stroke-width="1.5" d="M250,-110C250,-116 244,-122 238,-122"/>
<text text-anchor="middle" x="223" y="-101.5" font-family="FreeSans" font-size="10.00" fill="#1c2021">A Node</text>
</g>
<!-- A Node&#45;&gt;Traverser -->
<g id="edge32" class="edge"><title>A Node&#45;&gt;Traverser</title>
<path fill="none" stroke="#2e3436" stroke-width="2" d="M250.115,-104C276.657,-104 317.325,-104 347.069,-104"/>
<polygon fill="#2e3436" stroke="#2e3436" points="354.763,-104 347.263,-107.375 351.013,-104.5 347.263,-104.5 347.263,-104 347.263,-103.5 351.013,-103.5 347.263,-100.625 354.763,-104 354.763,-104"/>
<text text-anchor="middle" x="302" y="-108" font-family="FreeSans" font-size="10.00" fill="#1c2021">starting point of</text>
</g>
</g>
</svg>
