<?xml version="1.0" encoding="UTF-8" standalone="no"?>
<!DOCTYPE svg PUBLIC "-//W3C//DTD SVG 1.1//EN"
 "http://www.w3.org/Graphics/SVG/1.1/DTD/svg11.dtd">
<!-- Generated by graphviz version 2.26.3 (20100126.1600)
 -->
<!-- Title: g Pages: 1 -->
<svg width="504pt" height="135pt"
 viewBox="0.00 0.00 504.00 135.40" xmlns="http://www.w3.org/2000/svg" xmlns:xlink="http://www.w3.org/1999/xlink">
<g id="graph1" class="graph" transform="scale(0.940299 0.940299) rotate(0) translate(4 140)">
<title>g</title>
<polygon fill="white" stroke="white" points="-4,5 -4,-140 533,-140 533,5 -4,5"/>
<g id="graph2" class="cluster"><title>cluster_0</title>
<polygon fill="#a8e270" stroke="#2e3436" points="8,-8 8,-128 177,-128 177,-8 8,-8"/>
<text text-anchor="middle" x="92.5" y="-111.4" font-family="FreeSans" font-size="14.00">D1</text>
</g>
<g id="graph3" class="cluster"><title>cluster_1</title>
<polygon fill="#95bbe3" stroke="#2e3436" points="16,-16 16,-94 169,-94 169,-16 16,-16"/>
<text text-anchor="middle" x="92.5" y="-77.4" font-family="FreeSans" font-size="14.00">S1</text>
</g>
<g id="graph4" class="cluster"><title>cluster_2</title>
<polygon fill="#a8e270" stroke="#2e3436" points="185,-8 185,-128 520,-128 520,-8 185,-8"/>
<text text-anchor="middle" x="352.5" y="-111.4" font-family="FreeSans" font-size="14.00">D2</text>
</g>
<g id="graph5" class="cluster"><title>cluster_3</title>
<polygon fill="#95bbe3" stroke="#2e3436" points="359,-16 359,-94 512,-94 512,-16 359,-16"/>
<text text-anchor="middle" x="435.5" y="-77.4" font-family="FreeSans" font-size="14.00">S2</text>
</g>
<g id="graph6" class="cluster"><title>cluster_4</title>
<polygon fill="#95bbe3" stroke="#2e3436" points="193,-16 193,-94 346,-94 346,-16 193,-16"/>
<text text-anchor="middle" x="269.5" y="-77.4" font-family="FreeSans" font-size="14.00">S3</text>
</g>
<!-- V1 -->
<g id="node3" class="node"><title>V1</title>
<polygon fill="#fadcad" stroke="#fadcad" stroke-width="1.5" points="149,-60 119,-60 107,-48 107,-36 119,-24 149,-24 161,-36 161,-48 149,-60"/>
<path fill="#fadcad" stroke="#fadcad" stroke-width="1.5" d="M119,-60C113,-60 107,-54 107,-48"/>
<path fill="#fadcad" stroke="#fadcad" stroke-width="1.5" d="M107,-36C107,-30 113,-24 119,-24"/>
<path fill="#fadcad" stroke="#fadcad" stroke-width="1.5" d="M149,-24C155,-24 161,-30 161,-36"/>
<path fill="#fadcad" stroke="#fadcad" stroke-width="1.5" d="M161,-48C161,-54 155,-60 149,-60"/>
<polyline fill="none" stroke="#2e3436" stroke-width="1.5" points="149,-60 119,-60 "/>
<path fill="none" stroke="#2e3436" stroke-width="1.5" d="M119,-60C113,-60 107,-54 107,-48"/>
<polyline fill="none" stroke="#2e3436" stroke-width="1.5" points="107,-48 107,-36 "/>
<path fill="none" stroke="#2e3436" stroke-width="1.5" d="M107,-36C107,-30 113,-24 119,-24"/>
<polyline fill="none" stroke="#2e3436" stroke-width="1.5" points="119,-24 149,-24 "/>
<path fill="none" stroke="#2e3436" stroke-width="1.5" d="M149,-24C155,-24 161,-30 161,-36"/>
<polyline fill="none" stroke="#2e3436" stroke-width="1.5" points="161,-36 161,-48 "/>
<path fill="none" stroke="#2e3436" stroke-width="1.5" d="M161,-48C161,-54 155,-60 149,-60"/>
<text text-anchor="middle" x="134" y="-39.5" font-family="FreeSans" font-size="10.00" fill="#1c2021">V1</text>
</g>
<!-- D2/S2 -->
<g id="node4" class="node"><title>D2/S2</title>
<polygon fill="#fadcad" stroke="#fadcad" stroke-width="1.5" points="66,-60 36,-60 24,-48 24,-36 36,-24 66,-24 78,-36 78,-48 66,-60"/>
<path fill="#fadcad" stroke="#fadcad" stroke-width="1.5" d="M36,-60C30,-60 24,-54 24,-48"/>
<path fill="#fadcad" stroke="#fadcad" stroke-width="1.5" d="M24,-36C24,-30 30,-24 36,-24"/>
<path fill="#fadcad" stroke="#fadcad" stroke-width="1.5" d="M66,-24C72,-24 78,-30 78,-36"/>
<path fill="#fadcad" stroke="#fadcad" stroke-width="1.5" d="M78,-48C78,-54 72,-60 66,-60"/>
<polyline fill="none" stroke="#2e3436" stroke-width="1.5" points="66,-60 36,-60 "/>
<path fill="none" stroke="#2e3436" stroke-width="1.5" d="M36,-60C30,-60 24,-54 24,-48"/>
<polyline fill="none" stroke="#2e3436" stroke-width="1.5" points="24,-48 24,-36 "/>
<path fill="none" stroke="#2e3436" stroke-width="1.5" d="M24,-36C24,-30 30,-24 36,-24"/>
<polyline fill="none" stroke="#2e3436" stroke-width="1.5" points="36,-24 66,-24 "/>
<path fill="none" stroke="#2e3436" stroke-width="1.5" d="M66,-24C72,-24 78,-30 78,-36"/>
<polyline fill="none" stroke="#2e3436" stroke-width="1.5" points="78,-36 78,-48 "/>
<path fill="none" stroke="#2e3436" stroke-width="1.5" d="M78,-48C78,-54 72,-60 66,-60"/>
<text text-anchor="middle" x="51" y="-39.5" font-family="FreeSans" font-size="10.00" fill="#1c2021">D2/S2</text>
</g>
<!-- V2 -->
<g id="node7" class="node"><title>V2</title>
<polygon fill="#fadcad" stroke="#fadcad" stroke-width="1.5" points="492,-60 462,-60 450,-48 450,-36 462,-24 492,-24 504,-36 504,-48 492,-60"/>
<path fill="#fadcad" stroke="#fadcad" stroke-width="1.5" d="M462,-60C456,-60 450,-54 450,-48"/>
<path fill="#fadcad" stroke="#fadcad" stroke-width="1.5" d="M450,-36C450,-30 456,-24 462,-24"/>
<path fill="#fadcad" stroke="#fadcad" stroke-width="1.5" d="M492,-24C498,-24 504,-30 504,-36"/>
<path fill="#fadcad" stroke="#fadcad" stroke-width="1.5" d="M504,-48C504,-54 498,-60 492,-60"/>
<polyline fill="none" stroke="#2e3436" stroke-width="1.5" points="492,-60 462,-60 "/>
<path fill="none" stroke="#2e3436" stroke-width="1.5" d="M462,-60C456,-60 450,-54 450,-48"/>
<polyline fill="none" stroke="#2e3436" stroke-width="1.5" points="450,-48 450,-36 "/>
<path fill="none" stroke="#2e3436" stroke-width="1.5" d="M450,-36C450,-30 456,-24 462,-24"/>
<polyline fill="none" stroke="#2e3436" stroke-width="1.5" points="462,-24 492,-24 "/>
<path fill="none" stroke="#2e3436" stroke-width="1.5" d="M492,-24C498,-24 504,-30 504,-36"/>
<polyline fill="none" stroke="#2e3436" stroke-width="1.5" points="504,-36 504,-48 "/>
<path fill="none" stroke="#2e3436" stroke-width="1.5" d="M504,-48C504,-54 498,-60 492,-60"/>
<text text-anchor="middle" x="477" y="-39.5" font-family="FreeSans" font-size="10.00" fill="#1c2021">V2</text>
</g>
<!-- V3 -->
<g id="node8" class="node"><title>V3</title>
<polygon fill="#fadcad" stroke="#fadcad" stroke-width="1.5" points="409,-60 379,-60 367,-48 367,-36 379,-24 409,-24 421,-36 421,-48 409,-60"/>
<path fill="#fadcad" stroke="#fadcad" stroke-width="1.5" d="M379,-60C373,-60 367,-54 367,-48"/>
<path fill="#fadcad" stroke="#fadcad" stroke-width="1.5" d="M367,-36C367,-30 373,-24 379,-24"/>
<path fill="#fadcad" stroke="#fadcad" stroke-width="1.5" d="M409,-24C415,-24 421,-30 421,-36"/>
<path fill="#fadcad" stroke="#fadcad" stroke-width="1.5" d="M421,-48C421,-54 415,-60 409,-60"/>
<polyline fill="none" stroke="#2e3436" stroke-width="1.5" points="409,-60 379,-60 "/>
<path fill="none" stroke="#2e3436" stroke-width="1.5" d="M379,-60C373,-60 367,-54 367,-48"/>
<polyline fill="none" stroke="#2e3436" stroke-width="1.5" points="367,-48 367,-36 "/>
<path fill="none" stroke="#2e3436" stroke-width="1.5" d="M367,-36C367,-30 373,-24 379,-24"/>
<polyline fill="none" stroke="#2e3436" stroke-width="1.5" points="379,-24 409,-24 "/>
<path fill="none" stroke="#2e3436" stroke-width="1.5" d="M409,-24C415,-24 421,-30 421,-36"/>
<polyline fill="none" stroke="#2e3436" stroke-width="1.5" points="421,-36 421,-48 "/>
<path fill="none" stroke="#2e3436" stroke-width="1.5" d="M421,-48C421,-54 415,-60 409,-60"/>
<text text-anchor="middle" x="394" y="-39.5" font-family="FreeSans" font-size="10.00" fill="#1c2021">V3</text>
</g>
<!-- V4 -->
<g id="node10" class="node"><title>V4</title>
<polygon fill="#fadcad" stroke="#fadcad" stroke-width="1.5" points="326,-60 296,-60 284,-48 284,-36 296,-24 326,-24 338,-36 338,-48 326,-60"/>
<path fill="#fadcad" stroke="#fadcad" stroke-width="1.5" d="M296,-60C290,-60 284,-54 284,-48"/>
<path fill="#fadcad" stroke="#fadcad" stroke-width="1.5" d="M284,-36C284,-30 290,-24 296,-24"/>
<path fill="#fadcad" stroke="#fadcad" stroke-width="1.5" d="M326,-24C332,-24 338,-30 338,-36"/>
<path fill="#fadcad" stroke="#fadcad" stroke-width="1.5" d="M338,-48C338,-54 332,-60 326,-60"/>
<polyline fill="none" stroke="#2e3436" stroke-width="1.5" points="326,-60 296,-60 "/>
<path fill="none" stroke="#2e3436" stroke-width="1.5" d="M296,-60C290,-60 284,-54 284,-48"/>
<polyline fill="none" stroke="#2e3436" stroke-width="1.5" points="284,-48 284,-36 "/>
<path fill="none" stroke="#2e3436" stroke-width="1.5" d="M284,-36C284,-30 290,-24 296,-24"/>
<polyline fill="none" stroke="#2e3436" stroke-width="1.5" points="296,-24 326,-24 "/>
<path fill="none" stroke="#2e3436" stroke-width="1.5" d="M326,-24C332,-24 338,-30 338,-36"/>
<polyline fill="none" stroke="#2e3436" stroke-width="1.5" points="338,-36 338,-48 "/>
<path fill="none" stroke="#2e3436" stroke-width="1.5" d="M338,-48C338,-54 332,-60 326,-60"/>
<text text-anchor="middle" x="311" y="-39.5" font-family="FreeSans" font-size="10.00" fill="#1c2021">V4</text>
</g>
<!-- D1/S1 -->
<g id="node11" class="node"><title>D1/S1</title>
<polygon fill="#fadcad" stroke="#fadcad" stroke-width="1.5" points="243,-60 213,-60 201,-48 201,-36 213,-24 243,-24 255,-36 255,-48 243,-60"/>
<path fill="#fadcad" stroke="#fadcad" stroke-width="1.5" d="M213,-60C207,-60 201,-54 201,-48"/>
<path fill="#fadcad" stroke="#fadcad" stroke-width="1.5" d="M201,-36C201,-30 207,-24 213,-24"/>
<path fill="#fadcad" stroke="#fadcad" stroke-width="1.5" d="M243,-24C249,-24 255,-30 255,-36"/>
<path fill="#fadcad" stroke="#fadcad" stroke-width="1.5" d="M255,-48C255,-54 249,-60 243,-60"/>
<polyline fill="none" stroke="#2e3436" stroke-width="1.5" points="243,-60 213,-60 "/>
<path fill="none" stroke="#2e3436" stroke-width="1.5" d="M213,-60C207,-60 201,-54 201,-48"/>
<polyline fill="none" stroke="#2e3436" stroke-width="1.5" points="201,-48 201,-36 "/>
<path fill="none" stroke="#2e3436" stroke-width="1.5" d="M201,-36C201,-30 207,-24 213,-24"/>
<polyline fill="none" stroke="#2e3436" stroke-width="1.5" points="213,-24 243,-24 "/>
<path fill="none" stroke="#2e3436" stroke-width="1.5" d="M243,-24C249,-24 255,-30 255,-36"/>
<polyline fill="none" stroke="#2e3436" stroke-width="1.5" points="255,-36 255,-48 "/>
<path fill="none" stroke="#2e3436" stroke-width="1.5" d="M255,-48C255,-54 249,-60 243,-60"/>
<text text-anchor="middle" x="228" y="-39.5" font-family="FreeSans" font-size="10.00" fill="#1c2021">D1/S1</text>
</g>
</g>
</svg>
