<?xml version="1.0" encoding="UTF-8" standalone="no"?>
<!DOCTYPE svg PUBLIC "-//W3C//DTD SVG 1.1//EN"
 "http://www.w3.org/Graphics/SVG/1.1/DTD/svg11.dtd">
<!-- Generated by graphviz version 2.26.3 (20100126.1600)
 -->
<!-- Title: g Pages: 1 -->
<svg width="438pt" height="204pt"
 viewBox="0.00 0.00 438.00 204.02" xmlns="http://www.w3.org/2000/svg" xmlns:xlink="http://www.w3.org/1999/xlink">
<g id="graph1" class="graph" transform="scale(1 1) rotate(0) translate(4 200.022)">
<title>g</title>
<polygon fill="white" stroke="white" points="-4,5 -4,-200.022 435,-200.022 435,5 -4,5"/>
<g id="graph2" class="cluster"><title>cluster_0</title>
<polygon fill="none" stroke="none" points="8,-71.0218 8,-188.022 78,-188.022 78,-71.0218 8,-71.0218"/>
</g>
<g id="graph3" class="cluster"><title>cluster_1</title>
<polygon fill="none" stroke="none" points="98,-74.0218 98,-126.022 348,-126.022 348,-74.0218 98,-74.0218"/>
</g>
<!-- D1 -->
<g id="node2" class="node"><title>D1</title>
<polygon fill="#a8e270" stroke="#a8e270" stroke-width="1.5" points="58,-180.022 28,-180.022 16,-168.022 16,-156.022 28,-144.022 58,-144.022 70,-156.022 70,-168.022 58,-180.022"/>
<path fill="#a8e270" stroke="#a8e270" stroke-width="1.5" d="M28,-180.022C22,-180.022 16,-174.022 16,-168.022"/>
<path fill="#a8e270" stroke="#a8e270" stroke-width="1.5" d="M16,-156.022C16,-150.022 22,-144.022 28,-144.022"/>
<path fill="#a8e270" stroke="#a8e270" stroke-width="1.5" d="M58,-144.022C64,-144.022 70,-150.022 70,-156.022"/>
<path fill="#a8e270" stroke="#a8e270" stroke-width="1.5" d="M70,-168.022C70,-174.022 64,-180.022 58,-180.022"/>
<polyline fill="none" stroke="#2e3436" stroke-width="1.5" points="58,-180.022 28,-180.022 "/>
<path fill="none" stroke="#2e3436" stroke-width="1.5" d="M28,-180.022C22,-180.022 16,-174.022 16,-168.022"/>
<polyline fill="none" stroke="#2e3436" stroke-width="1.5" points="16,-168.022 16,-156.022 "/>
<path fill="none" stroke="#2e3436" stroke-width="1.5" d="M16,-156.022C16,-150.022 22,-144.022 28,-144.022"/>
<polyline fill="none" stroke="#2e3436" stroke-width="1.5" points="28,-144.022 58,-144.022 "/>
<path fill="none" stroke="#2e3436" stroke-width="1.5" d="M58,-144.022C64,-144.022 70,-150.022 70,-156.022"/>
<polyline fill="none" stroke="#2e3436" stroke-width="1.5" points="70,-156.022 70,-168.022 "/>
<path fill="none" stroke="#2e3436" stroke-width="1.5" d="M70,-168.022C70,-174.022 64,-180.022 58,-180.022"/>
<text text-anchor="middle" x="43" y="-159.522" font-family="FreeSans" font-size="10.00" fill="#1c2021">D1</text>
</g>
<!-- S1 -->
<g id="node5" class="node"><title>S1</title>
<polygon fill="#95bbe3" stroke="#95bbe3" stroke-width="1.5" points="238,-118.022 208,-118.022 196,-106.022 196,-94.0218 208,-82.0218 238,-82.0218 250,-94.0218 250,-106.022 238,-118.022"/>
<path fill="#95bbe3" stroke="#95bbe3" stroke-width="1.5" d="M208,-118.022C202,-118.022 196,-112.022 196,-106.022"/>
<path fill="#95bbe3" stroke="#95bbe3" stroke-width="1.5" d="M196,-94.0218C196,-88.0218 202,-82.0218 208,-82.0218"/>
<path fill="#95bbe3" stroke="#95bbe3" stroke-width="1.5" d="M238,-82.0218C244,-82.0218 250,-88.0218 250,-94.0218"/>
<path fill="#95bbe3" stroke="#95bbe3" stroke-width="1.5" d="M250,-106.022C250,-112.022 244,-118.022 238,-118.022"/>
<polyline fill="none" stroke="#2e3436" stroke-width="1.5" points="238,-118.022 208,-118.022 "/>
<path fill="none" stroke="#2e3436" stroke-width="1.5" d="M208,-118.022C202,-118.022 196,-112.022 196,-106.022"/>
<polyline fill="none" stroke="#2e3436" stroke-width="1.5" points="196,-106.022 196,-94.0218 "/>
<path fill="none" stroke="#2e3436" stroke-width="1.5" d="M196,-94.0218C196,-88.0218 202,-82.0218 208,-82.0218"/>
<polyline fill="none" stroke="#2e3436" stroke-width="1.5" points="208,-82.0218 238,-82.0218 "/>
<path fill="none" stroke="#2e3436" stroke-width="1.5" d="M238,-82.0218C244,-82.0218 250,-88.0218 250,-94.0218"/>
<polyline fill="none" stroke="#2e3436" stroke-width="1.5" points="250,-94.0218 250,-106.022 "/>
<path fill="none" stroke="#2e3436" stroke-width="1.5" d="M250,-106.022C250,-112.022 244,-118.022 238,-118.022"/>
<text text-anchor="middle" x="223" y="-97.5218" font-family="FreeSans" font-size="10.00" fill="#1c2021">S1</text>
</g>
<!-- D1&#45;&gt;S1 -->
<g id="edge4" class="edge"><title>D1&#45;&gt;S1</title>
<path fill="none" stroke="#2e3436" stroke-width="2" d="M70.4728,-156.758C94.52,-151.733 130.175,-143.265 160,-132.022 169.696,-128.367 179.853,-123.64 189.11,-118.946"/>
<polygon fill="#2e3436" stroke="#2e3436" points="195.991,-115.382 190.884,-121.828 192.891,-117.551 189.562,-119.275 189.332,-118.831 189.102,-118.387 192.432,-116.663 187.779,-115.835 195.991,-115.382 195.991,-115.382"/>
</g>
<!-- D2 -->
<g id="node3" class="node"><title>D2</title>
<polygon fill="#a8e270" stroke="#a8e270" stroke-width="1.5" points="58,-115.022 28,-115.022 16,-103.022 16,-91.0218 28,-79.0218 58,-79.0218 70,-91.0218 70,-103.022 58,-115.022"/>
<path fill="#a8e270" stroke="#a8e270" stroke-width="1.5" d="M28,-115.022C22,-115.022 16,-109.022 16,-103.022"/>
<path fill="#a8e270" stroke="#a8e270" stroke-width="1.5" d="M16,-91.0218C16,-85.0218 22,-79.0218 28,-79.0218"/>
<path fill="#a8e270" stroke="#a8e270" stroke-width="1.5" d="M58,-79.0218C64,-79.0218 70,-85.0218 70,-91.0218"/>
<path fill="#a8e270" stroke="#a8e270" stroke-width="1.5" d="M70,-103.022C70,-109.022 64,-115.022 58,-115.022"/>
<polyline fill="none" stroke="#2e3436" stroke-width="1.5" points="58,-115.022 28,-115.022 "/>
<path fill="none" stroke="#2e3436" stroke-width="1.5" d="M28,-115.022C22,-115.022 16,-109.022 16,-103.022"/>
<polyline fill="none" stroke="#2e3436" stroke-width="1.5" points="16,-103.022 16,-91.0218 "/>
<path fill="none" stroke="#2e3436" stroke-width="1.5" d="M16,-91.0218C16,-85.0218 22,-79.0218 28,-79.0218"/>
<polyline fill="none" stroke="#2e3436" stroke-width="1.5" points="28,-79.0218 58,-79.0218 "/>
<path fill="none" stroke="#2e3436" stroke-width="1.5" d="M58,-79.0218C64,-79.0218 70,-85.0218 70,-91.0218"/>
<polyline fill="none" stroke="#2e3436" stroke-width="1.5" points="70,-91.0218 70,-103.022 "/>
<path fill="none" stroke="#2e3436" stroke-width="1.5" d="M70,-103.022C70,-109.022 64,-115.022 58,-115.022"/>
<text text-anchor="middle" x="43" y="-94.5218" font-family="FreeSans" font-size="10.00" fill="#1c2021">D2</text>
</g>
<!-- S2 -->
<g id="node6" class="node"><title>S2</title>
<polygon fill="#95bbe3" stroke="#95bbe3" stroke-width="1.5" points="328,-118.022 298,-118.022 286,-106.022 286,-94.0218 298,-82.0218 328,-82.0218 340,-94.0218 340,-106.022 328,-118.022"/>
<path fill="#95bbe3" stroke="#95bbe3" stroke-width="1.5" d="M298,-118.022C292,-118.022 286,-112.022 286,-106.022"/>
<path fill="#95bbe3" stroke="#95bbe3" stroke-width="1.5" d="M286,-94.0218C286,-88.0218 292,-82.0218 298,-82.0218"/>
<path fill="#95bbe3" stroke="#95bbe3" stroke-width="1.5" d="M328,-82.0218C334,-82.0218 340,-88.0218 340,-94.0218"/>
<path fill="#95bbe3" stroke="#95bbe3" stroke-width="1.5" d="M340,-106.022C340,-112.022 334,-118.022 328,-118.022"/>
<polyline fill="none" stroke="#2e3436" stroke-width="1.5" points="328,-118.022 298,-118.022 "/>
<path fill="none" stroke="#2e3436" stroke-width="1.5" d="M298,-118.022C292,-118.022 286,-112.022 286,-106.022"/>
<polyline fill="none" stroke="#2e3436" stroke-width="1.5" points="286,-106.022 286,-94.0218 "/>
<path fill="none" stroke="#2e3436" stroke-width="1.5" d="M286,-94.0218C286,-88.0218 292,-82.0218 298,-82.0218"/>
<polyline fill="none" stroke="#2e3436" stroke-width="1.5" points="298,-82.0218 328,-82.0218 "/>
<path fill="none" stroke="#2e3436" stroke-width="1.5" d="M328,-82.0218C334,-82.0218 340,-88.0218 340,-94.0218"/>
<polyline fill="none" stroke="#2e3436" stroke-width="1.5" points="340,-94.0218 340,-106.022 "/>
<path fill="none" stroke="#2e3436" stroke-width="1.5" d="M340,-106.022C340,-112.022 334,-118.022 328,-118.022"/>
<text text-anchor="middle" x="313" y="-97.5218" font-family="FreeSans" font-size="10.00" fill="#1c2021">S2</text>
</g>
<!-- D2&#45;&gt;S2 -->
<g id="edge7" class="edge"><title>D2&#45;&gt;S2</title>
<path fill="none" stroke="#2e3436" stroke-width="2" d="M60.8929,-78.8443C97.3283,-44.1246 182.403,25.1732 250,-10.0218 275.99,-23.5537 293.475,-53.2577 303.303,-74.8495"/>
<polygon fill="#2e3436" stroke="#2e3436" points="306.344,-81.8259 300.253,-76.299 304.387,-78.588 302.889,-75.1503 303.347,-74.9505 303.805,-74.7508 305.304,-78.1885 306.441,-73.6021 306.344,-81.8259 306.344,-81.8259"/>
</g>
<!-- S3 -->
<g id="node7" class="node"><title>S3</title>
<polygon fill="#95bbe3" stroke="#95bbe3" stroke-width="1.5" points="148,-118.022 118,-118.022 106,-106.022 106,-94.0218 118,-82.0218 148,-82.0218 160,-94.0218 160,-106.022 148,-118.022"/>
<path fill="#95bbe3" stroke="#95bbe3" stroke-width="1.5" d="M118,-118.022C112,-118.022 106,-112.022 106,-106.022"/>
<path fill="#95bbe3" stroke="#95bbe3" stroke-width="1.5" d="M106,-94.0218C106,-88.0218 112,-82.0218 118,-82.0218"/>
<path fill="#95bbe3" stroke="#95bbe3" stroke-width="1.5" d="M148,-82.0218C154,-82.0218 160,-88.0218 160,-94.0218"/>
<path fill="#95bbe3" stroke="#95bbe3" stroke-width="1.5" d="M160,-106.022C160,-112.022 154,-118.022 148,-118.022"/>
<polyline fill="none" stroke="#2e3436" stroke-width="1.5" points="148,-118.022 118,-118.022 "/>
<path fill="none" stroke="#2e3436" stroke-width="1.5" d="M118,-118.022C112,-118.022 106,-112.022 106,-106.022"/>
<polyline fill="none" stroke="#2e3436" stroke-width="1.5" points="106,-106.022 106,-94.0218 "/>
<path fill="none" stroke="#2e3436" stroke-width="1.5" d="M106,-94.0218C106,-88.0218 112,-82.0218 118,-82.0218"/>
<polyline fill="none" stroke="#2e3436" stroke-width="1.5" points="118,-82.0218 148,-82.0218 "/>
<path fill="none" stroke="#2e3436" stroke-width="1.5" d="M148,-82.0218C154,-82.0218 160,-88.0218 160,-94.0218"/>
<polyline fill="none" stroke="#2e3436" stroke-width="1.5" points="160,-94.0218 160,-106.022 "/>
<path fill="none" stroke="#2e3436" stroke-width="1.5" d="M160,-106.022C160,-112.022 154,-118.022 148,-118.022"/>
<text text-anchor="middle" x="133" y="-97.5218" font-family="FreeSans" font-size="10.00" fill="#1c2021">S3</text>
</g>
<!-- D2&#45;&gt;S3 -->
<g id="edge10" class="edge"><title>D2&#45;&gt;S3</title>
<path fill="none" stroke="#2e3436" stroke-width="2" d="M70.003,-97.9219C78.8213,-98.2158 88.7436,-98.5465 98.0597,-98.8571"/>
<polygon fill="#2e3436" stroke="#2e3436" points="105.705,-99.1119 98.0967,-102.235 101.94,-99.4867 98.1925,-99.3617 98.2092,-98.862 98.2259,-98.3622 101.974,-98.4872 98.3217,-95.4888 105.705,-99.1119 105.705,-99.1119"/>
</g>
<!-- S1&#45;&gt;S2 -->
<g id="edge13" class="edge"><title>S1&#45;&gt;S2</title>
<path fill="none" stroke="#2e3436" stroke-width="2" d="M250.003,-100.022C258.821,-100.022 268.744,-100.022 278.06,-100.022"/>
<polygon fill="#2e3436" stroke="#2e3436" points="285.705,-100.022 278.205,-103.397 281.955,-100.522 278.205,-100.522 278.205,-100.022 278.205,-99.5219 281.955,-99.5218 278.205,-96.6469 285.705,-100.022 285.705,-100.022"/>
</g>
<!-- V1 -->
<g id="node9" class="node"><title>V1</title>
<polygon fill="#fadcad" stroke="#fadcad" stroke-width="1.5" points="328,-183.022 298,-183.022 286,-171.022 286,-159.022 298,-147.022 328,-147.022 340,-159.022 340,-171.022 328,-183.022"/>
<path fill="#fadcad" stroke="#fadcad" stroke-width="1.5" d="M298,-183.022C292,-183.022 286,-177.022 286,-171.022"/>
<path fill="#fadcad" stroke="#fadcad" stroke-width="1.5" d="M286,-159.022C286,-153.022 292,-147.022 298,-147.022"/>
<path fill="#fadcad" stroke="#fadcad" stroke-width="1.5" d="M328,-147.022C334,-147.022 340,-153.022 340,-159.022"/>
<path fill="#fadcad" stroke="#fadcad" stroke-width="1.5" d="M340,-171.022C340,-177.022 334,-183.022 328,-183.022"/>
<polyline fill="none" stroke="#2e3436" stroke-width="1.5" points="328,-183.022 298,-183.022 "/>
<path fill="none" stroke="#2e3436" stroke-width="1.5" d="M298,-183.022C292,-183.022 286,-177.022 286,-171.022"/>
<polyline fill="none" stroke="#2e3436" stroke-width="1.5" points="286,-171.022 286,-159.022 "/>
<path fill="none" stroke="#2e3436" stroke-width="1.5" d="M286,-159.022C286,-153.022 292,-147.022 298,-147.022"/>
<polyline fill="none" stroke="#2e3436" stroke-width="1.5" points="298,-147.022 328,-147.022 "/>
<path fill="none" stroke="#2e3436" stroke-width="1.5" d="M328,-147.022C334,-147.022 340,-153.022 340,-159.022"/>
<polyline fill="none" stroke="#2e3436" stroke-width="1.5" points="340,-159.022 340,-171.022 "/>
<path fill="none" stroke="#2e3436" stroke-width="1.5" d="M340,-171.022C340,-177.022 334,-183.022 328,-183.022"/>
<text text-anchor="middle" x="313" y="-162.522" font-family="FreeSans" font-size="10.00" fill="#1c2021">V1</text>
</g>
<!-- S1&#45;&gt;V1 -->
<g id="edge5" class="edge"><title>S1&#45;&gt;V1</title>
<path fill="none" stroke="#2e3436" stroke-width="2" d="M248.07,-118.128C258.505,-125.664 270.732,-134.495 281.744,-142.448"/>
<polygon fill="#2e3436" stroke="#2e3436" points="288.064,-147.013 280.008,-145.358 284.732,-145.222 281.692,-143.027 281.984,-142.622 282.277,-142.216 285.317,-144.412 283.96,-139.885 288.064,-147.013 288.064,-147.013"/>
</g>
<!-- V2 -->
<g id="node11" class="node"><title>V2</title>
<polygon fill="#fadcad" stroke="#fadcad" stroke-width="1.5" points="418,-151.022 388,-151.022 376,-139.022 376,-127.022 388,-115.022 418,-115.022 430,-127.022 430,-139.022 418,-151.022"/>
<path fill="#fadcad" stroke="#fadcad" stroke-width="1.5" d="M388,-151.022C382,-151.022 376,-145.022 376,-139.022"/>
<path fill="#fadcad" stroke="#fadcad" stroke-width="1.5" d="M376,-127.022C376,-121.022 382,-115.022 388,-115.022"/>
<path fill="#fadcad" stroke="#fadcad" stroke-width="1.5" d="M418,-115.022C424,-115.022 430,-121.022 430,-127.022"/>
<path fill="#fadcad" stroke="#fadcad" stroke-width="1.5" d="M430,-139.022C430,-145.022 424,-151.022 418,-151.022"/>
<polyline fill="none" stroke="#2e3436" stroke-width="1.5" points="418,-151.022 388,-151.022 "/>
<path fill="none" stroke="#2e3436" stroke-width="1.5" d="M388,-151.022C382,-151.022 376,-145.022 376,-139.022"/>
<polyline fill="none" stroke="#2e3436" stroke-width="1.5" points="376,-139.022 376,-127.022 "/>
<path fill="none" stroke="#2e3436" stroke-width="1.5" d="M376,-127.022C376,-121.022 382,-115.022 388,-115.022"/>
<polyline fill="none" stroke="#2e3436" stroke-width="1.5" points="388,-115.022 418,-115.022 "/>
<path fill="none" stroke="#2e3436" stroke-width="1.5" d="M418,-115.022C424,-115.022 430,-121.022 430,-127.022"/>
<polyline fill="none" stroke="#2e3436" stroke-width="1.5" points="430,-127.022 430,-139.022 "/>
<path fill="none" stroke="#2e3436" stroke-width="1.5" d="M430,-139.022C430,-145.022 424,-151.022 418,-151.022"/>
<text text-anchor="middle" x="403" y="-130.522" font-family="FreeSans" font-size="10.00" fill="#1c2021">V2</text>
</g>
<!-- S2&#45;&gt;V2 -->
<g id="edge8" class="edge"><title>S2&#45;&gt;V2</title>
<path fill="none" stroke="#2e3436" stroke-width="2" d="M340.003,-109.923C348.998,-113.221 359.141,-116.94 368.618,-120.415"/>
<polygon fill="#2e3436" stroke="#2e3436" points="375.705,-123.014 367.502,-123.6 372.012,-122.192 368.491,-120.901 368.663,-120.432 368.836,-119.962 372.356,-121.253 369.825,-117.263 375.705,-123.014 375.705,-123.014"/>
</g>
<!-- V3 -->
<g id="node16" class="node"><title>V3</title>
<polygon fill="#fadcad" stroke="#fadcad" stroke-width="1.5" points="418,-86.0218 388,-86.0218 376,-74.0218 376,-62.0218 388,-50.0218 418,-50.0218 430,-62.0218 430,-74.0218 418,-86.0218"/>
<path fill="#fadcad" stroke="#fadcad" stroke-width="1.5" d="M388,-86.0218C382,-86.0218 376,-80.0218 376,-74.0218"/>
<path fill="#fadcad" stroke="#fadcad" stroke-width="1.5" d="M376,-62.0218C376,-56.0218 382,-50.0218 388,-50.0218"/>
<path fill="#fadcad" stroke="#fadcad" stroke-width="1.5" d="M418,-50.0218C424,-50.0218 430,-56.0218 430,-62.0218"/>
<path fill="#fadcad" stroke="#fadcad" stroke-width="1.5" d="M430,-74.0218C430,-80.0218 424,-86.0218 418,-86.0218"/>
<polyline fill="none" stroke="#2e3436" stroke-width="1.5" points="418,-86.0218 388,-86.0218 "/>
<path fill="none" stroke="#2e3436" stroke-width="1.5" d="M388,-86.0218C382,-86.0218 376,-80.0218 376,-74.0218"/>
<polyline fill="none" stroke="#2e3436" stroke-width="1.5" points="376,-74.0218 376,-62.0218 "/>
<path fill="none" stroke="#2e3436" stroke-width="1.5" d="M376,-62.0218C376,-56.0218 382,-50.0218 388,-50.0218"/>
<polyline fill="none" stroke="#2e3436" stroke-width="1.5" points="388,-50.0218 418,-50.0218 "/>
<path fill="none" stroke="#2e3436" stroke-width="1.5" d="M418,-50.0218C424,-50.0218 430,-56.0218 430,-62.0218"/>
<polyline fill="none" stroke="#2e3436" stroke-width="1.5" points="430,-62.0218 430,-74.0218 "/>
<path fill="none" stroke="#2e3436" stroke-width="1.5" d="M430,-74.0218C430,-80.0218 424,-86.0218 418,-86.0218"/>
<text text-anchor="middle" x="403" y="-65.5218" font-family="FreeSans" font-size="10.00" fill="#1c2021">V3</text>
</g>
<!-- S2&#45;&gt;V3 -->
<g id="edge15" class="edge"><title>S2&#45;&gt;V3</title>
<path fill="none" stroke="#2e3436" stroke-width="2" d="M340.003,-90.4207C348.998,-87.2226 359.141,-83.6161 368.618,-80.2465"/>
<polygon fill="#2e3436" stroke="#2e3436" points="375.705,-77.7266 369.769,-83.4193 372.339,-79.4541 368.806,-80.7104 368.638,-80.2393 368.471,-79.7682 372.004,-78.5118 367.508,-77.0593 375.705,-77.7266 375.705,-77.7266"/>
</g>
<!-- S3&#45;&gt;S1 -->
<g id="edge17" class="edge"><title>S3&#45;&gt;S1</title>
<path fill="none" stroke="#2e3436" stroke-width="2" d="M160.003,-100.022C168.821,-100.022 178.744,-100.022 188.06,-100.022"/>
<polygon fill="#2e3436" stroke="#2e3436" points="195.705,-100.022 188.205,-103.397 191.955,-100.522 188.205,-100.522 188.205,-100.022 188.205,-99.5219 191.955,-99.5218 188.205,-96.6469 195.705,-100.022 195.705,-100.022"/>
</g>
<!-- V4 -->
<g id="node13" class="node"><title>V4</title>
<polygon fill="#fadcad" stroke="#fadcad" stroke-width="1.5" points="238,-53.0218 208,-53.0218 196,-41.0218 196,-29.0218 208,-17.0218 238,-17.0218 250,-29.0218 250,-41.0218 238,-53.0218"/>
<path fill="#fadcad" stroke="#fadcad" stroke-width="1.5" d="M208,-53.0218C202,-53.0218 196,-47.0218 196,-41.0218"/>
<path fill="#fadcad" stroke="#fadcad" stroke-width="1.5" d="M196,-29.0218C196,-23.0218 202,-17.0218 208,-17.0218"/>
<path fill="#fadcad" stroke="#fadcad" stroke-width="1.5" d="M238,-17.0218C244,-17.0218 250,-23.0218 250,-29.0218"/>
<path fill="#fadcad" stroke="#fadcad" stroke-width="1.5" d="M250,-41.0218C250,-47.0218 244,-53.0218 238,-53.0218"/>
<polyline fill="none" stroke="#2e3436" stroke-width="1.5" points="238,-53.0218 208,-53.0218 "/>
<path fill="none" stroke="#2e3436" stroke-width="1.5" d="M208,-53.0218C202,-53.0218 196,-47.0218 196,-41.0218"/>
<polyline fill="none" stroke="#2e3436" stroke-width="1.5" points="196,-41.0218 196,-29.0218 "/>
<path fill="none" stroke="#2e3436" stroke-width="1.5" d="M196,-29.0218C196,-23.0218 202,-17.0218 208,-17.0218"/>
<polyline fill="none" stroke="#2e3436" stroke-width="1.5" points="208,-17.0218 238,-17.0218 "/>
<path fill="none" stroke="#2e3436" stroke-width="1.5" d="M238,-17.0218C244,-17.0218 250,-23.0218 250,-29.0218"/>
<polyline fill="none" stroke="#2e3436" stroke-width="1.5" points="250,-29.0218 250,-41.0218 "/>
<path fill="none" stroke="#2e3436" stroke-width="1.5" d="M250,-41.0218C250,-47.0218 244,-53.0218 238,-53.0218"/>
<text text-anchor="middle" x="223" y="-32.5218" font-family="FreeSans" font-size="10.00" fill="#1c2021">V4</text>
</g>
<!-- S3&#45;&gt;V4 -->
<g id="edge11" class="edge"><title>S3&#45;&gt;V4</title>
<path fill="none" stroke="#2e3436" stroke-width="2" d="M158.07,-81.9156C168.505,-74.3793 180.732,-65.5489 191.744,-57.5957"/>
<polygon fill="#2e3436" stroke="#2e3436" points="198.064,-53.0308 193.96,-60.1581 195.317,-55.6317 192.277,-57.8273 191.984,-57.422 191.692,-57.0167 194.732,-54.8211 190.008,-54.686 198.064,-53.0308 198.064,-53.0308"/>
</g>
</g>
</svg>
