<?xml version="1.0" encoding="UTF-8" standalone="no"?>
<!DOCTYPE svg PUBLIC "-//W3C//DTD SVG 1.1//EN"
 "http://www.w3.org/Graphics/SVG/1.1/DTD/svg11.dtd">
<!-- Generated by graphviz version 2.26.3 (20100126.1600)
 -->
<!-- Title: g Pages: 1 -->
<svg width="222pt" height="370pt"
 viewBox="0.00 0.00 222.12 370.00" xmlns="http://www.w3.org/2000/svg" xmlns:xlink="http://www.w3.org/1999/xlink">
<g id="graph1" class="graph" transform="scale(1 1) rotate(0) translate(4 366)">
<title>g</title>
<polygon fill="white" stroke="white" points="-4,5 -4,-366 219.124,-366 219.124,5 -4,5"/>
<!-- A Property -->
<g id="node1" class="node"><title>A Property</title>
<polygon fill="#a8e270" stroke="#a8e270" stroke-width="1.5" points="160.937,-362 118.937,-362 106.937,-350 106.937,-338 118.937,-326 160.937,-326 172.937,-338 172.937,-350 160.937,-362"/>
<path fill="#a8e270" stroke="#a8e270" stroke-width="1.5" d="M118.937,-362C112.937,-362 106.937,-356 106.937,-350"/>
<path fill="#a8e270" stroke="#a8e270" stroke-width="1.5" d="M106.937,-338C106.937,-332 112.937,-326 118.937,-326"/>
<path fill="#a8e270" stroke="#a8e270" stroke-width="1.5" d="M160.937,-326C166.937,-326 172.937,-332 172.937,-338"/>
<path fill="#a8e270" stroke="#a8e270" stroke-width="1.5" d="M172.937,-350C172.937,-356 166.937,-362 160.937,-362"/>
<polyline fill="none" stroke="#2e3436" stroke-width="1.5" points="160.937,-362 118.937,-362 "/>
<path fill="none" stroke="#2e3436" stroke-width="1.5" d="M118.937,-362C112.937,-362 106.937,-356 106.937,-350"/>
<polyline fill="none" stroke="#2e3436" stroke-width="1.5" points="106.937,-350 106.937,-338 "/>
<path fill="none" stroke="#2e3436" stroke-width="1.5" d="M106.937,-338C106.937,-332 112.937,-326 118.937,-326"/>
<polyline fill="none" stroke="#2e3436" stroke-width="1.5" points="118.937,-326 160.937,-326 "/>
<path fill="none" stroke="#2e3436" stroke-width="1.5" d="M160.937,-326C166.937,-326 172.937,-332 172.937,-338"/>
<polyline fill="none" stroke="#2e3436" stroke-width="1.5" points="172.937,-338 172.937,-350 "/>
<path fill="none" stroke="#2e3436" stroke-width="1.5" d="M172.937,-350C172.937,-356 166.937,-362 160.937,-362"/>
<text text-anchor="middle" x="139.937" y="-341.5" font-family="FreeSans" font-size="10.00" fill="#1c2021">A Property</text>
</g>
<!-- Key -->
<g id="node3" class="node"><title>Key</title>
<polygon fill="#fadcad" stroke="#fadcad" stroke-width="1.5" points="193.937,-276 163.937,-276 151.937,-264 151.937,-252 163.937,-240 193.937,-240 205.937,-252 205.937,-264 193.937,-276"/>
<path fill="#fadcad" stroke="#fadcad" stroke-width="1.5" d="M163.937,-276C157.937,-276 151.937,-270 151.937,-264"/>
<path fill="#fadcad" stroke="#fadcad" stroke-width="1.5" d="M151.937,-252C151.937,-246 157.937,-240 163.937,-240"/>
<path fill="#fadcad" stroke="#fadcad" stroke-width="1.5" d="M193.937,-240C199.937,-240 205.937,-246 205.937,-252"/>
<path fill="#fadcad" stroke="#fadcad" stroke-width="1.5" d="M205.937,-264C205.937,-270 199.937,-276 193.937,-276"/>
<polyline fill="none" stroke="#2e3436" stroke-width="1.5" points="193.937,-276 163.937,-276 "/>
<path fill="none" stroke="#2e3436" stroke-width="1.5" d="M163.937,-276C157.937,-276 151.937,-270 151.937,-264"/>
<polyline fill="none" stroke="#2e3436" stroke-width="1.5" points="151.937,-264 151.937,-252 "/>
<path fill="none" stroke="#2e3436" stroke-width="1.5" d="M151.937,-252C151.937,-246 157.937,-240 163.937,-240"/>
<polyline fill="none" stroke="#2e3436" stroke-width="1.5" points="163.937,-240 193.937,-240 "/>
<path fill="none" stroke="#2e3436" stroke-width="1.5" d="M193.937,-240C199.937,-240 205.937,-246 205.937,-252"/>
<polyline fill="none" stroke="#2e3436" stroke-width="1.5" points="205.937,-252 205.937,-264 "/>
<path fill="none" stroke="#2e3436" stroke-width="1.5" d="M205.937,-264C205.937,-270 199.937,-276 193.937,-276"/>
<text text-anchor="middle" x="178.937" y="-255.5" font-family="FreeSans" font-size="10.00" fill="#1c2021">Key</text>
</g>
<!-- A Property&#45;&gt;Key -->
<g id="edge2" class="edge"><title>A Property&#45;&gt;Key</title>
<path fill="none" stroke="#2e3436" stroke-width="2" d="M148.208,-325.762C153.844,-313.333 161.378,-296.719 167.576,-283.052"/>
<polygon fill="#2e3436" stroke="#2e3436" points="170.678,-276.212 170.654,-284.436 169.584,-279.834 168.036,-283.249 167.58,-283.043 167.125,-282.836 168.674,-279.421 164.506,-281.649 170.678,-276.212 170.678,-276.212"/>
<text text-anchor="middle" x="174.437" y="-298.5" font-family="FreeSans" font-size="10.00" fill="#1c2021">has a</text>
</g>
<!-- Value -->
<g id="node7" class="node"><title>Value</title>
<polygon fill="#fadcad" stroke="#fadcad" stroke-width="1.5" points="110.937,-276 80.9367,-276 68.9367,-264 68.9367,-252 80.9367,-240 110.937,-240 122.937,-252 122.937,-264 110.937,-276"/>
<path fill="#fadcad" stroke="#fadcad" stroke-width="1.5" d="M80.9367,-276C74.9367,-276 68.9367,-270 68.9367,-264"/>
<path fill="#fadcad" stroke="#fadcad" stroke-width="1.5" d="M68.9367,-252C68.9367,-246 74.9367,-240 80.9367,-240"/>
<path fill="#fadcad" stroke="#fadcad" stroke-width="1.5" d="M110.937,-240C116.937,-240 122.937,-246 122.937,-252"/>
<path fill="#fadcad" stroke="#fadcad" stroke-width="1.5" d="M122.937,-264C122.937,-270 116.937,-276 110.937,-276"/>
<polyline fill="none" stroke="#2e3436" stroke-width="1.5" points="110.937,-276 80.9367,-276 "/>
<path fill="none" stroke="#2e3436" stroke-width="1.5" d="M80.9367,-276C74.9367,-276 68.9367,-270 68.9367,-264"/>
<polyline fill="none" stroke="#2e3436" stroke-width="1.5" points="68.9367,-264 68.9367,-252 "/>
<path fill="none" stroke="#2e3436" stroke-width="1.5" d="M68.9367,-252C68.9367,-246 74.9367,-240 80.9367,-240"/>
<polyline fill="none" stroke="#2e3436" stroke-width="1.5" points="80.9367,-240 110.937,-240 "/>
<path fill="none" stroke="#2e3436" stroke-width="1.5" d="M110.937,-240C116.937,-240 122.937,-246 122.937,-252"/>
<polyline fill="none" stroke="#2e3436" stroke-width="1.5" points="122.937,-252 122.937,-264 "/>
<path fill="none" stroke="#2e3436" stroke-width="1.5" d="M122.937,-264C122.937,-270 116.937,-276 110.937,-276"/>
<text text-anchor="middle" x="95.9367" y="-255.5" font-family="FreeSans" font-size="10.00" fill="#1c2021">Value</text>
</g>
<!-- A Property&#45;&gt;Value -->
<g id="edge6" class="edge"><title>A Property&#45;&gt;Value</title>
<path fill="none" stroke="#2e3436" stroke-width="2" d="M130.605,-325.762C124.247,-313.333 115.746,-296.719 108.754,-283.052"/>
<polygon fill="#2e3436" stroke="#2e3436" points="105.255,-276.212 111.675,-281.352 107.408,-279.323 109.116,-282.661 108.671,-282.889 108.226,-283.117 106.518,-279.778 105.666,-284.426 105.255,-276.212 105.255,-276.212"/>
<text text-anchor="middle" x="133.437" y="-298.5" font-family="FreeSans" font-size="10.00" fill="#1c2021">has a</text>
</g>
<!-- Primitive -->
<g id="node5" class="node"><title>Primitive</title>
<polygon fill="#fadcad" stroke="#fadcad" stroke-width="1.5" points="58.4367,-0.5 147.437,-0.5 159.437,-12.5 159.437,-177.5 147.437,-189.5 58.4367,-189.5 46.4367,-177.5 46.4367,-12.5 58.4367,-0.5"/>
<path fill="#fadcad" stroke="#fadcad" stroke-width="1.5" d="M147.437,-0.5C153.437,-0.5 159.437,-6.5 159.437,-12.5"/>
<path fill="#fadcad" stroke="#fadcad" stroke-width="1.5" d="M159.437,-177.5C159.437,-183.5 153.437,-189.5 147.437,-189.5"/>
<path fill="#fadcad" stroke="#fadcad" stroke-width="1.5" d="M58.4367,-189.5C52.4367,-189.5 46.4367,-183.5 46.4367,-177.5"/>
<path fill="#fadcad" stroke="#fadcad" stroke-width="1.5" d="M46.4367,-12.5C46.4367,-6.5 52.4367,-0.5 58.4367,-0.5"/>
<polyline fill="none" stroke="#2e3436" stroke-width="1.5" points="58.4367,-0.5 147.437,-0.5 "/>
<path fill="none" stroke="#2e3436" stroke-width="1.5" d="M147.437,-0.5C153.437,-0.5 159.437,-6.5 159.437,-12.5"/>
<polyline fill="none" stroke="#2e3436" stroke-width="1.5" points="159.437,-12.5 159.437,-177.5 "/>
<path fill="none" stroke="#2e3436" stroke-width="1.5" d="M159.437,-177.5C159.437,-183.5 153.437,-189.5 147.437,-189.5"/>
<polyline fill="none" stroke="#2e3436" stroke-width="1.5" points="147.437,-189.5 58.4367,-189.5 "/>
<path fill="none" stroke="#2e3436" stroke-width="1.5" d="M58.4367,-189.5C52.4367,-189.5 46.4367,-183.5 46.4367,-177.5"/>
<polyline fill="none" stroke="#2e3436" stroke-width="1.5" points="46.4367,-177.5 46.4367,-12.5 "/>
<path fill="none" stroke="#2e3436" stroke-width="1.5" d="M46.4367,-12.5C46.4367,-6.5 52.4367,-0.5 58.4367,-0.5"/>
<text text-anchor="middle" x="75.4367" y="-92.5" font-family="FreeSans" font-size="10.00" fill="#1c2021">Primitive</text>
<polyline fill="none" stroke="#2e3436" stroke-width="1.5" points="104.437,-0.5 104.437,-189.5 "/>
<text text-anchor="middle" x="131.937" y="-176.5" font-family="FreeSans" font-size="10.00" fill="#1c2021">boolean</text>
<polyline fill="none" stroke="#2e3436" stroke-width="1.5" points="104.437,-168.5 159.437,-168.5 "/>
<text text-anchor="middle" x="131.937" y="-155.5" font-family="FreeSans" font-size="10.00" fill="#1c2021">byte</text>
<polyline fill="none" stroke="#2e3436" stroke-width="1.5" points="104.437,-147.5 159.437,-147.5 "/>
<text text-anchor="middle" x="131.937" y="-134.5" font-family="FreeSans" font-size="10.00" fill="#1c2021">short</text>
<polyline fill="none" stroke="#2e3436" stroke-width="1.5" points="104.437,-126.5 159.437,-126.5 "/>
<text text-anchor="middle" x="131.937" y="-113.5" font-family="FreeSans" font-size="10.00" fill="#1c2021">int</text>
<polyline fill="none" stroke="#2e3436" stroke-width="1.5" points="104.437,-105.5 159.437,-105.5 "/>
<text text-anchor="middle" x="131.937" y="-92.5" font-family="FreeSans" font-size="10.00" fill="#1c2021">long</text>
<polyline fill="none" stroke="#2e3436" stroke-width="1.5" points="104.437,-84.5 159.437,-84.5 "/>
<text text-anchor="middle" x="131.937" y="-71.5" font-family="FreeSans" font-size="10.00" fill="#1c2021">float</text>
<polyline fill="none" stroke="#2e3436" stroke-width="1.5" points="104.437,-63.5 159.437,-63.5 "/>
<text text-anchor="middle" x="131.937" y="-50.5" font-family="FreeSans" font-size="10.00" fill="#1c2021">double</text>
<polyline fill="none" stroke="#2e3436" stroke-width="1.5" points="104.437,-42.5 159.437,-42.5 "/>
<text text-anchor="middle" x="131.937" y="-29.5" font-family="FreeSans" font-size="10.00" fill="#1c2021">char</text>
<polyline fill="none" stroke="#2e3436" stroke-width="1.5" points="104.437,-21.5 159.437,-21.5 "/>
<text text-anchor="middle" x="131.937" y="-8.5" font-family="FreeSans" font-size="10.00" fill="#1c2021">String</text>
</g>
<!-- Key&#45;&gt;Primitive -->
<g id="edge4" class="edge"><title>Key&#45;&gt;Primitive:String</title>
<path fill="none" stroke="#2e3436" stroke-width="2" d="M183.913,-239.702C201.814,-185.347 248.921,-21.0194 167.65,-11.4374"/>
<polygon fill="#2e3436" stroke="#2e3436" points="159.937,-11 167.616,-8.05514 163.709,-10.7132 167.453,-10.9255 167.425,-11.4247 167.396,-11.9239 163.652,-11.7116 167.234,-14.7943 159.937,-11 159.937,-11"/>
<text text-anchor="middle" x="201.437" y="-212.5" font-family="FreeSans" font-size="10.00" fill="#1c2021">is a</text>
</g>
<!-- Value&#45;&gt;Primitive -->
<g id="edge8" class="edge"><title>Value&#45;&gt;Primitive</title>
<path fill="none" stroke="#2e3436" stroke-width="2" d="M96.7126,-239.933C97.188,-228.864 97.8388,-213.708 98.5413,-197.352"/>
<polygon fill="#2e3436" stroke="#2e3436" points="98.8672,-189.762 101.917,-197.4 99.2058,-193.53 99.0449,-197.277 98.5453,-197.256 98.0458,-197.234 98.2067,-193.488 95.1734,-197.111 98.8672,-189.762 98.8672,-189.762"/>
<text text-anchor="middle" x="118.937" y="-212.5" font-family="FreeSans" font-size="10.00" fill="#1c2021">can be a</text>
</g>
<!-- Value&#45;&gt;Primitive -->
<g id="edge10" class="edge"><title>Value&#45;&gt;Primitive</title>
<path fill="none" stroke="#2e3436" stroke-width="2" d="M68.8294,-255.019C37.1982,-250.135 -9.43564,-237.789 1.93675,-208 10.326,-186.025 25.1721,-165.618 40.9426,-148.364"/>
<polygon fill="#2e3436" stroke="#2e3436" points="46.3183,-142.636 43.647,-150.414 44.1167,-145.712 41.5505,-148.447 41.1859,-148.105 40.8214,-147.763 43.3875,-145.028 38.7249,-145.795 46.3183,-142.636 46.3183,-142.636"/>
<text text-anchor="middle" x="45.9367" y="-212.5" font-family="FreeSans" font-size="10.00" fill="#1c2021">can be an array of</text>
</g>
</g>
</svg>
