<?xml version="1.0" encoding="UTF-8" standalone="no"?>
<!DOCTYPE svg PUBLIC "-//W3C//DTD SVG 1.1//EN"
 "http://www.w3.org/Graphics/SVG/1.1/DTD/svg11.dtd">
<!-- Generated by graphviz version 2.26.3 (20100126.1600)
 -->
<!-- Title: g Pages: 1 -->
<svg width="172pt" height="216pt"
 viewBox="0.00 0.00 171.78 216.00" xmlns="http://www.w3.org/2000/svg" xmlns:xlink="http://www.w3.org/1999/xlink">
<g id="graph1" class="graph" transform="scale(1 1) rotate(0) translate(4 212)">
<title>g</title>
<polygon fill="white" stroke="white" points="-4,5 -4,-212 168.785,-212 168.785,5 -4,5"/>
<!-- Maja -->
<g id="node1" class="node"><title>Maja</title>
<polygon fill="#ffffff" stroke="#ffffff" stroke-width="1.5" points="43.7848,-208 13.7848,-208 1.78477,-196 1.78477,-184 13.7848,-172 43.7848,-172 55.7848,-184 55.7848,-196 43.7848,-208"/>
<path fill="#ffffff" stroke="#ffffff" stroke-width="1.5" d="M13.7848,-208C7.78477,-208 1.78477,-202 1.78477,-196"/>
<path fill="#ffffff" stroke="#ffffff" stroke-width="1.5" d="M1.78477,-184C1.78477,-178 7.78477,-172 13.7848,-172"/>
<path fill="#ffffff" stroke="#ffffff" stroke-width="1.5" d="M43.7848,-172C49.7848,-172 55.7848,-178 55.7848,-184"/>
<path fill="#ffffff" stroke="#ffffff" stroke-width="1.5" d="M55.7848,-196C55.7848,-202 49.7848,-208 43.7848,-208"/>
<polyline fill="none" stroke="#2e3436" stroke-width="1.5" points="43.7848,-208 13.7848,-208 "/>
<path fill="none" stroke="#2e3436" stroke-width="1.5" d="M13.7848,-208C7.78477,-208 1.78477,-202 1.78477,-196"/>
<polyline fill="none" stroke="#2e3436" stroke-width="1.5" points="1.78477,-196 1.78477,-184 "/>
<path fill="none" stroke="#2e3436" stroke-width="1.5" d="M1.78477,-184C1.78477,-178 7.78477,-172 13.7848,-172"/>
<polyline fill="none" stroke="#2e3436" stroke-width="1.5" points="13.7848,-172 43.7848,-172 "/>
<path fill="none" stroke="#2e3436" stroke-width="1.5" d="M43.7848,-172C49.7848,-172 55.7848,-178 55.7848,-184"/>
<polyline fill="none" stroke="#2e3436" stroke-width="1.5" points="55.7848,-184 55.7848,-196 "/>
<path fill="none" stroke="#2e3436" stroke-width="1.5" d="M55.7848,-196C55.7848,-202 49.7848,-208 43.7848,-208"/>
<text text-anchor="middle" x="28.7848" y="-187.5" font-family="FreeSans" font-size="10.00" fill="#1c2021">Maja</text>
</g>
<!-- Oscar -->
<g id="node3" class="node"><title>Oscar</title>
<polygon fill="#ffffff" stroke="#ffffff" stroke-width="1.5" points="85.7848,-122 55.7848,-122 43.7848,-110 43.7848,-98 55.7848,-86 85.7848,-86 97.7848,-98 97.7848,-110 85.7848,-122"/>
<path fill="#ffffff" stroke="#ffffff" stroke-width="1.5" d="M55.7848,-122C49.7848,-122 43.7848,-116 43.7848,-110"/>
<path fill="#ffffff" stroke="#ffffff" stroke-width="1.5" d="M43.7848,-98C43.7848,-92 49.7848,-86 55.7848,-86"/>
<path fill="#ffffff" stroke="#ffffff" stroke-width="1.5" d="M85.7848,-86C91.7848,-86 97.7848,-92 97.7848,-98"/>
<path fill="#ffffff" stroke="#ffffff" stroke-width="1.5" d="M97.7848,-110C97.7848,-116 91.7848,-122 85.7848,-122"/>
<polyline fill="none" stroke="#2e3436" stroke-width="1.5" points="85.7848,-122 55.7848,-122 "/>
<path fill="none" stroke="#2e3436" stroke-width="1.5" d="M55.7848,-122C49.7848,-122 43.7848,-116 43.7848,-110"/>
<polyline fill="none" stroke="#2e3436" stroke-width="1.5" points="43.7848,-110 43.7848,-98 "/>
<path fill="none" stroke="#2e3436" stroke-width="1.5" d="M43.7848,-98C43.7848,-92 49.7848,-86 55.7848,-86"/>
<polyline fill="none" stroke="#2e3436" stroke-width="1.5" points="55.7848,-86 85.7848,-86 "/>
<path fill="none" stroke="#2e3436" stroke-width="1.5" d="M85.7848,-86C91.7848,-86 97.7848,-92 97.7848,-98"/>
<polyline fill="none" stroke="#2e3436" stroke-width="1.5" points="97.7848,-98 97.7848,-110 "/>
<path fill="none" stroke="#2e3436" stroke-width="1.5" d="M97.7848,-110C97.7848,-116 91.7848,-122 85.7848,-122"/>
<text text-anchor="middle" x="70.7848" y="-101.5" font-family="FreeSans" font-size="10.00" fill="#1c2021">Oscar</text>
</g>
<!-- Maja&#45;&gt;Oscar -->
<g id="edge2" class="edge"><title>Maja&#45;&gt;Oscar</title>
<path fill="none" stroke="#2e3436" stroke-width="2" d="M9.81062,-171.649C2.24414,-162.061 -3.37216,-150.226 2.78477,-140 10.2842,-127.544 23.6989,-119.172 36.6433,-113.663"/>
<polygon fill="#2e3436" stroke="#2e3436" points="43.7456,-110.89 37.9873,-116.762 40.4344,-112.719 36.9414,-114.084 36.7595,-113.618 36.5776,-113.152 40.0706,-111.788 35.5317,-110.474 43.7456,-110.89 43.7456,-110.89"/>
<text text-anchor="middle" x="18.7848" y="-144.5" font-family="FreeSans" font-size="10.00" fill="#1c2021">follows</text>
</g>
<!-- Oscar&#45;&gt;Maja -->
<g id="edge4" class="edge"><title>Oscar&#45;&gt;Maja</title>
<path fill="none" stroke="#2e3436" stroke-width="2" d="M61.8905,-122.212C55.8238,-134.634 47.7102,-151.248 41.0338,-164.919"/>
<polygon fill="#2e3436" stroke="#2e3436" points="37.6919,-171.762 37.9505,-163.541 38.8883,-168.173 40.5339,-164.803 40.9832,-165.022 41.4325,-165.242 39.7868,-168.611 44.0159,-166.503 37.6919,-171.762 37.6919,-171.762"/>
<text text-anchor="middle" x="68.7848" y="-144.5" font-family="FreeSans" font-size="10.00" fill="#1c2021">follows</text>
</g>
<!-- William -->
<g id="node8" class="node"><title>William</title>
<polygon fill="#ffffff" stroke="#ffffff" stroke-width="1.5" points="85.7848,-36 55.7848,-36 43.7848,-24 43.7848,-12 55.7848,-1.46056e-14 85.7848,-6.71068e-15 97.7848,-12 97.7848,-24 85.7848,-36"/>
<path fill="#ffffff" stroke="#ffffff" stroke-width="1.5" d="M55.7848,-36C49.7848,-36 43.7848,-30 43.7848,-24"/>
<path fill="#ffffff" stroke="#ffffff" stroke-width="1.5" d="M43.7848,-12C43.7848,-6 49.7848,-1.61846e-14 55.7848,-1.46056e-14"/>
<path fill="#ffffff" stroke="#ffffff" stroke-width="1.5" d="M85.7848,-6.71068e-15C91.7848,-5.1317e-15 97.7848,-6 97.7848,-12"/>
<path fill="#ffffff" stroke="#ffffff" stroke-width="1.5" d="M97.7848,-24C97.7848,-30 91.7848,-36 85.7848,-36"/>
<polyline fill="none" stroke="#2e3436" stroke-width="1.5" points="85.7848,-36 55.7848,-36 "/>
<path fill="none" stroke="#2e3436" stroke-width="1.5" d="M55.7848,-36C49.7848,-36 43.7848,-30 43.7848,-24"/>
<polyline fill="none" stroke="#2e3436" stroke-width="1.5" points="43.7848,-24 43.7848,-12 "/>
<path fill="none" stroke="#2e3436" stroke-width="1.5" d="M43.7848,-12C43.7848,-6 49.7848,-1.61846e-14 55.7848,-1.46056e-14"/>
<polyline fill="none" stroke="#2e3436" stroke-width="1.5" points="55.7848,-1.46056e-14 85.7848,-6.71068e-15 "/>
<path fill="none" stroke="#2e3436" stroke-width="1.5" d="M85.7848,-6.71068e-15C91.7848,-5.1317e-15 97.7848,-6 97.7848,-12"/>
<polyline fill="none" stroke="#2e3436" stroke-width="1.5" points="97.7848,-12 97.7848,-24 "/>
<path fill="none" stroke="#2e3436" stroke-width="1.5" d="M97.7848,-24C97.7848,-30 91.7848,-36 85.7848,-36"/>
<text text-anchor="middle" x="70.7848" y="-15.5" font-family="FreeSans" font-size="10.00" fill="#1c2021">William</text>
</g>
<!-- Oscar&#45;&gt;William -->
<g id="edge8" class="edge"><title>Oscar&#45;&gt;William</title>
<path fill="none" stroke="#a40000" stroke-width="2" d="M70.7848,-85.7616C70.7848,-73.5615 70.7848,-57.3273 70.7848,-43.8076"/>
<polygon fill="#a40000" stroke="#a40000" points="70.7848,-36.2121 74.1599,-43.7121 71.2848,-39.9621 71.2849,-43.7121 70.7849,-43.7121 70.2849,-43.7121 70.2848,-39.9621 67.4099,-43.7121 70.7848,-36.2121 70.7848,-36.2121"/>
<text text-anchor="middle" x="86.2848" y="-58.5" font-family="FreeSans" font-size="10.00" fill="#a40000">blocks</text>
</g>
<!-- Alice -->
<g id="node5" class="node"><title>Alice</title>
<polygon fill="#ffffff" stroke="#ffffff" stroke-width="1.5" points="151.785,-208 121.785,-208 109.785,-196 109.785,-184 121.785,-172 151.785,-172 163.785,-184 163.785,-196 151.785,-208"/>
<path fill="#ffffff" stroke="#ffffff" stroke-width="1.5" d="M121.785,-208C115.785,-208 109.785,-202 109.785,-196"/>
<path fill="#ffffff" stroke="#ffffff" stroke-width="1.5" d="M109.785,-184C109.785,-178 115.785,-172 121.785,-172"/>
<path fill="#ffffff" stroke="#ffffff" stroke-width="1.5" d="M151.785,-172C157.785,-172 163.785,-178 163.785,-184"/>
<path fill="#ffffff" stroke="#ffffff" stroke-width="1.5" d="M163.785,-196C163.785,-202 157.785,-208 151.785,-208"/>
<polyline fill="none" stroke="#2e3436" stroke-width="1.5" points="151.785,-208 121.785,-208 "/>
<path fill="none" stroke="#2e3436" stroke-width="1.5" d="M121.785,-208C115.785,-208 109.785,-202 109.785,-196"/>
<polyline fill="none" stroke="#2e3436" stroke-width="1.5" points="109.785,-196 109.785,-184 "/>
<path fill="none" stroke="#2e3436" stroke-width="1.5" d="M109.785,-184C109.785,-178 115.785,-172 121.785,-172"/>
<polyline fill="none" stroke="#2e3436" stroke-width="1.5" points="121.785,-172 151.785,-172 "/>
<path fill="none" stroke="#2e3436" stroke-width="1.5" d="M151.785,-172C157.785,-172 163.785,-178 163.785,-184"/>
<polyline fill="none" stroke="#2e3436" stroke-width="1.5" points="163.785,-184 163.785,-196 "/>
<path fill="none" stroke="#2e3436" stroke-width="1.5" d="M163.785,-196C163.785,-202 157.785,-208 151.785,-208"/>
<text text-anchor="middle" x="136.785" y="-187.5" font-family="FreeSans" font-size="10.00" fill="#1c2021">Alice</text>
</g>
<!-- Alice&#45;&gt;Oscar -->
<g id="edge6" class="edge"><title>Alice&#45;&gt;Oscar</title>
<path fill="none" stroke="#2e3436" stroke-width="2" d="M122.788,-171.762C113.075,-159.105 100.03,-142.108 89.436,-128.303"/>
<polygon fill="#2e3436" stroke="#2e3436" points="84.7615,-122.212 92.0051,-126.107 87.4412,-124.883 89.7243,-127.858 89.3277,-128.162 88.931,-128.466 86.6479,-125.491 86.6502,-130.217 84.7615,-122.212 84.7615,-122.212"/>
<text text-anchor="middle" x="122.785" y="-144.5" font-family="FreeSans" font-size="10.00" fill="#1c2021">follows</text>
</g>
</g>
</svg>
