<?xml version="1.0" encoding="UTF-8" standalone="no"?>
<!DOCTYPE svg PUBLIC "-//W3C//DTD SVG 1.1//EN"
 "http://www.w3.org/Graphics/SVG/1.1/DTD/svg11.dtd">
<!-- Generated by graphviz version 2.26.3 (20100126.1600)
 -->
<!-- Title: g Pages: 1 -->
<svg width="305pt" height="216pt"
 viewBox="0.00 0.00 305.00 216.00" xmlns="http://www.w3.org/2000/svg" xmlns:xlink="http://www.w3.org/1999/xlink">
<g id="graph1" class="graph" transform="scale(1 1) rotate(0) translate(4 212)">
<title>g</title>
<polygon fill="white" stroke="white" points="-4,5 -4,-212 302,-212 302,5 -4,5"/>
<!-- A Path -->
<g id="node1" class="node"><title>A Path</title>
<polygon fill="#a8e270" stroke="#a8e270" stroke-width="1.5" points="129,-208 99,-208 87,-196 87,-184 99,-172 129,-172 141,-184 141,-196 129,-208"/>
<path fill="#a8e270" stroke="#a8e270" stroke-width="1.5" d="M99,-208C93,-208 87,-202 87,-196"/>
<path fill="#a8e270" stroke="#a8e270" stroke-width="1.5" d="M87,-184C87,-178 93,-172 99,-172"/>
<path fill="#a8e270" stroke="#a8e270" stroke-width="1.5" d="M129,-172C135,-172 141,-178 141,-184"/>
<path fill="#a8e270" stroke="#a8e270" stroke-width="1.5" d="M141,-196C141,-202 135,-208 129,-208"/>
<polyline fill="none" stroke="#2e3436" stroke-width="1.5" points="129,-208 99,-208 "/>
<path fill="none" stroke="#2e3436" stroke-width="1.5" d="M99,-208C93,-208 87,-202 87,-196"/>
<polyline fill="none" stroke="#2e3436" stroke-width="1.5" points="87,-196 87,-184 "/>
<path fill="none" stroke="#2e3436" stroke-width="1.5" d="M87,-184C87,-178 93,-172 99,-172"/>
<polyline fill="none" stroke="#2e3436" stroke-width="1.5" points="99,-172 129,-172 "/>
<path fill="none" stroke="#2e3436" stroke-width="1.5" d="M129,-172C135,-172 141,-178 141,-184"/>
<polyline fill="none" stroke="#2e3436" stroke-width="1.5" points="141,-184 141,-196 "/>
<path fill="none" stroke="#2e3436" stroke-width="1.5" d="M141,-196C141,-202 135,-208 129,-208"/>
<text text-anchor="middle" x="114" y="-187.5" font-family="FreeSans" font-size="10.00" fill="#1c2021">A Path</text>
</g>
<!-- Start Node -->
<g id="node3" class="node"><title>Start Node</title>
<polygon fill="#fadcad" stroke="#fadcad" stroke-width="1.5" points="56,-122 12,-122 2.36848e-14,-110 1.18424e-14,-98 12,-86 56,-86 68,-98 68,-110 56,-122"/>
<path fill="#fadcad" stroke="#fadcad" stroke-width="1.5" d="M12,-122C6,-122 2.96059e-14,-116 2.36848e-14,-110"/>
<path fill="#fadcad" stroke="#fadcad" stroke-width="1.5" d="M1.18424e-14,-98C5.92119e-15,-92 6,-86 12,-86"/>
<path fill="#fadcad" stroke="#fadcad" stroke-width="1.5" d="M56,-86C62,-86 68,-92 68,-98"/>
<path fill="#fadcad" stroke="#fadcad" stroke-width="1.5" d="M68,-110C68,-116 62,-122 56,-122"/>
<polyline fill="none" stroke="#2e3436" stroke-width="1.5" points="56,-122 12,-122 "/>
<path fill="none" stroke="#2e3436" stroke-width="1.5" d="M12,-122C6,-122 2.96059e-14,-116 2.36848e-14,-110"/>
<polyline fill="none" stroke="#2e3436" stroke-width="1.5" points="2.36848e-14,-110 1.18424e-14,-98 "/>
<path fill="none" stroke="#2e3436" stroke-width="1.5" d="M1.18424e-14,-98C5.92119e-15,-92 6,-86 12,-86"/>
<polyline fill="none" stroke="#2e3436" stroke-width="1.5" points="12,-86 56,-86 "/>
<path fill="none" stroke="#2e3436" stroke-width="1.5" d="M56,-86C62,-86 68,-92 68,-98"/>
<polyline fill="none" stroke="#2e3436" stroke-width="1.5" points="68,-98 68,-110 "/>
<path fill="none" stroke="#2e3436" stroke-width="1.5" d="M68,-110C68,-116 62,-122 56,-122"/>
<text text-anchor="middle" x="34" y="-101.5" font-family="FreeSans" font-size="10.00" fill="#1c2021">Start Node</text>
</g>
<!-- A Path&#45;&gt;Start Node -->
<g id="edge2" class="edge"><title>A Path&#45;&gt;Start Node</title>
<path fill="none" stroke="#2e3436" stroke-width="2" d="M93.8618,-171.73C87.9697,-166.17 81.6081,-159.953 76,-154 68.319,-145.846 60.3101,-136.537 53.3708,-128.18"/>
<polygon fill="#2e3436" stroke="#2e3436" points="48.296,-122.01 55.6667,-125.659 51.0642,-124.589 53.4463,-127.485 53.0601,-127.803 52.6739,-128.12 50.2919,-125.224 50.4535,-129.946 48.296,-122.01 48.296,-122.01"/>
<text text-anchor="middle" x="89.5" y="-144.5" font-family="FreeSans" font-size="10.00" fill="#1c2021">has a</text>
</g>
<!-- Relationship -->
<g id="node5" class="node"><title>Relationship</title>
<polygon fill="#fadcad" stroke="#fadcad" stroke-width="1.5" points="159,-122 109,-122 97,-110 97,-98 109,-86 159,-86 171,-98 171,-110 159,-122"/>
<path fill="#fadcad" stroke="#fadcad" stroke-width="1.5" d="M109,-122C103,-122 97,-116 97,-110"/>
<path fill="#fadcad" stroke="#fadcad" stroke-width="1.5" d="M97,-98C97,-92 103,-86 109,-86"/>
<path fill="#fadcad" stroke="#fadcad" stroke-width="1.5" d="M159,-86C165,-86 171,-92 171,-98"/>
<path fill="#fadcad" stroke="#fadcad" stroke-width="1.5" d="M171,-110C171,-116 165,-122 159,-122"/>
<polyline fill="none" stroke="#2e3436" stroke-width="1.5" points="159,-122 109,-122 "/>
<path fill="none" stroke="#2e3436" stroke-width="1.5" d="M109,-122C103,-122 97,-116 97,-110"/>
<polyline fill="none" stroke="#2e3436" stroke-width="1.5" points="97,-110 97,-98 "/>
<path fill="none" stroke="#2e3436" stroke-width="1.5" d="M97,-98C97,-92 103,-86 109,-86"/>
<polyline fill="none" stroke="#2e3436" stroke-width="1.5" points="109,-86 159,-86 "/>
<path fill="none" stroke="#2e3436" stroke-width="1.5" d="M159,-86C165,-86 171,-92 171,-98"/>
<polyline fill="none" stroke="#2e3436" stroke-width="1.5" points="171,-98 171,-110 "/>
<path fill="none" stroke="#2e3436" stroke-width="1.5" d="M171,-110C171,-116 165,-122 159,-122"/>
<text text-anchor="middle" x="134" y="-101.5" font-family="FreeSans" font-size="10.00" fill="#1c2021">Relationship</text>
</g>
<!-- A Path&#45;&gt;Relationship -->
<g id="edge4" class="edge"><title>A Path&#45;&gt;Relationship</title>
<path fill="none" stroke="#2e3436" stroke-width="2" d="M110.57,-171.63C109.449,-162.036 109.129,-150.203 112,-140 113.064,-136.219 114.647,-132.442 116.486,-128.834"/>
<polygon fill="#2e3436" stroke="#2e3436" points="120.267,-122.146 119.514,-130.336 118.857,-125.657 117.011,-128.921 116.576,-128.675 116.141,-128.429 117.986,-125.165 113.638,-127.014 120.267,-122.146 120.267,-122.146"/>
<text text-anchor="middle" x="171" y="-144.5" font-family="FreeSans" font-size="10.00" fill="#1c2021">can contain one or more</text>
</g>
<!-- End Node -->
<g id="node9" class="node"><title>End Node</title>
<polygon fill="#fadcad" stroke="#fadcad" stroke-width="1.5" points="285,-122 247,-122 235,-110 235,-98 247,-86 285,-86 297,-98 297,-110 285,-122"/>
<path fill="#fadcad" stroke="#fadcad" stroke-width="1.5" d="M247,-122C241,-122 235,-116 235,-110"/>
<path fill="#fadcad" stroke="#fadcad" stroke-width="1.5" d="M235,-98C235,-92 241,-86 247,-86"/>
<path fill="#fadcad" stroke="#fadcad" stroke-width="1.5" d="M285,-86C291,-86 297,-92 297,-98"/>
<path fill="#fadcad" stroke="#fadcad" stroke-width="1.5" d="M297,-110C297,-116 291,-122 285,-122"/>
<polyline fill="none" stroke="#2e3436" stroke-width="1.5" points="285,-122 247,-122 "/>
<path fill="none" stroke="#2e3436" stroke-width="1.5" d="M247,-122C241,-122 235,-116 235,-110"/>
<polyline fill="none" stroke="#2e3436" stroke-width="1.5" points="235,-110 235,-98 "/>
<path fill="none" stroke="#2e3436" stroke-width="1.5" d="M235,-98C235,-92 241,-86 247,-86"/>
<polyline fill="none" stroke="#2e3436" stroke-width="1.5" points="247,-86 285,-86 "/>
<path fill="none" stroke="#2e3436" stroke-width="1.5" d="M285,-86C291,-86 297,-92 297,-98"/>
<polyline fill="none" stroke="#2e3436" stroke-width="1.5" points="297,-98 297,-110 "/>
<path fill="none" stroke="#2e3436" stroke-width="1.5" d="M297,-110C297,-116 291,-122 285,-122"/>
<text text-anchor="middle" x="266" y="-101.5" font-family="FreeSans" font-size="10.00" fill="#1c2021">End Node</text>
</g>
<!-- A Path&#45;&gt;End Node -->
<g id="edge8" class="edge"><title>A Path&#45;&gt;End Node</title>
<path fill="none" stroke="#2e3436" stroke-width="2" d="M141.436,-187.099C167.229,-183.205 205.831,-174.254 233,-154 241.771,-147.461 248.906,-137.854 254.268,-128.805"/>
<polygon fill="#2e3436" stroke="#2e3436" points="258.021,-122.053 257.327,-130.248 256.636,-125.574 254.814,-128.851 254.377,-128.609 253.94,-128.366 255.762,-125.088 251.427,-126.969 258.021,-122.053 258.021,-122.053"/>
<text text-anchor="middle" x="262.5" y="-144.5" font-family="FreeSans" font-size="10.00" fill="#1c2021">has an</text>
</g>
<!-- Node -->
<g id="node7" class="node"><title>Node</title>
<polygon fill="#fadcad" stroke="#fadcad" stroke-width="1.5" points="149,-36 119,-36 107,-24 107,-12 119,-1.46056e-14 149,-6.71068e-15 161,-12 161,-24 149,-36"/>
<path fill="#fadcad" stroke="#fadcad" stroke-width="1.5" d="M119,-36C113,-36 107,-30 107,-24"/>
<path fill="#fadcad" stroke="#fadcad" stroke-width="1.5" d="M107,-12C107,-6 113,-1.61846e-14 119,-1.46056e-14"/>
<path fill="#fadcad" stroke="#fadcad" stroke-width="1.5" d="M149,-6.71068e-15C155,-5.1317e-15 161,-6 161,-12"/>
<path fill="#fadcad" stroke="#fadcad" stroke-width="1.5" d="M161,-24C161,-30 155,-36 149,-36"/>
<polyline fill="none" stroke="#2e3436" stroke-width="1.5" points="149,-36 119,-36 "/>
<path fill="none" stroke="#2e3436" stroke-width="1.5" d="M119,-36C113,-36 107,-30 107,-24"/>
<polyline fill="none" stroke="#2e3436" stroke-width="1.5" points="107,-24 107,-12 "/>
<path fill="none" stroke="#2e3436" stroke-width="1.5" d="M107,-12C107,-6 113,-1.61846e-14 119,-1.46056e-14"/>
<polyline fill="none" stroke="#2e3436" stroke-width="1.5" points="119,-1.46056e-14 149,-6.71068e-15 "/>
<path fill="none" stroke="#2e3436" stroke-width="1.5" d="M149,-6.71068e-15C155,-5.1317e-15 161,-6 161,-12"/>
<polyline fill="none" stroke="#2e3436" stroke-width="1.5" points="161,-12 161,-24 "/>
<path fill="none" stroke="#2e3436" stroke-width="1.5" d="M161,-24C161,-30 155,-36 149,-36"/>
<text text-anchor="middle" x="134" y="-15.5" font-family="FreeSans" font-size="10.00" fill="#1c2021">Node</text>
</g>
<!-- Relationship&#45;&gt;Node -->
<g id="edge6" class="edge"><title>Relationship&#45;&gt;Node</title>
<path fill="none" stroke="#2e3436" stroke-width="2" d="M134,-85.7616C134,-73.5615 134,-57.3273 134,-43.8076"/>
<polygon fill="#2e3436" stroke="#2e3436" points="134,-36.2121 137.375,-43.7121 134.5,-39.9621 134.5,-43.7121 134,-43.7121 133.5,-43.7121 133.5,-39.9621 130.625,-43.7121 134,-36.2121 134,-36.2121"/>
<text text-anchor="middle" x="178" y="-58.5" font-family="FreeSans" font-size="10.00" fill="#1c2021">accompanied by a</text>
</g>
</g>
</svg>
