<?xml version="1.0" encoding="UTF-8" standalone="no"?>
<!DOCTYPE svg PUBLIC "-//W3C//DTD SVG 1.1//EN"
 "http://www.w3.org/Graphics/SVG/1.1/DTD/svg11.dtd">
<!-- Generated by graphviz version 2.26.3 (20100126.1600)
 -->
<!-- Title: g Pages: 1 -->
<svg width="176pt" height="216pt"
 viewBox="0.00 0.00 176.00 216.00" xmlns="http://www.w3.org/2000/svg" xmlns:xlink="http://www.w3.org/1999/xlink">
<g id="graph1" class="graph" transform="scale(1 1) rotate(0) translate(4 212)">
<title>g</title>
<polygon fill="white" stroke="white" points="-4,5 -4,-212 173,-212 173,5 -4,5"/>
<!-- A Node -->
<g id="node1" class="node"><title>A Node</title>
<polygon fill="#a8e270" stroke="#a8e270" stroke-width="1.5" points="118,-208 88,-208 76,-196 76,-184 88,-172 118,-172 130,-184 130,-196 118,-208"/>
<path fill="#a8e270" stroke="#a8e270" stroke-width="1.5" d="M88,-208C82,-208 76,-202 76,-196"/>
<path fill="#a8e270" stroke="#a8e270" stroke-width="1.5" d="M76,-184C76,-178 82,-172 88,-172"/>
<path fill="#a8e270" stroke="#a8e270" stroke-width="1.5" d="M118,-172C124,-172 130,-178 130,-184"/>
<path fill="#a8e270" stroke="#a8e270" stroke-width="1.5" d="M130,-196C130,-202 124,-208 118,-208"/>
<polyline fill="none" stroke="#2e3436" stroke-width="1.5" points="118,-208 88,-208 "/>
<path fill="none" stroke="#2e3436" stroke-width="1.5" d="M88,-208C82,-208 76,-202 76,-196"/>
<polyline fill="none" stroke="#2e3436" stroke-width="1.5" points="76,-196 76,-184 "/>
<path fill="none" stroke="#2e3436" stroke-width="1.5" d="M76,-184C76,-178 82,-172 88,-172"/>
<polyline fill="none" stroke="#2e3436" stroke-width="1.5" points="88,-172 118,-172 "/>
<path fill="none" stroke="#2e3436" stroke-width="1.5" d="M118,-172C124,-172 130,-178 130,-184"/>
<polyline fill="none" stroke="#2e3436" stroke-width="1.5" points="130,-184 130,-196 "/>
<path fill="none" stroke="#2e3436" stroke-width="1.5" d="M130,-196C130,-202 124,-208 118,-208"/>
<text text-anchor="middle" x="103" y="-187.5" font-family="FreeSans" font-size="10.00" fill="#1c2021">A Node</text>
</g>
<!-- Relationships -->
<g id="node3" class="node"><title>Relationships</title>
<polygon fill="#fadcad" stroke="#fadcad" stroke-width="1.5" points="66,-122 12,-122 2.36848e-14,-110 1.18424e-14,-98 12,-86 66,-86 78,-98 78,-110 66,-122"/>
<path fill="#fadcad" stroke="#fadcad" stroke-width="1.5" d="M12,-122C6,-122 2.96059e-14,-116 2.36848e-14,-110"/>
<path fill="#fadcad" stroke="#fadcad" stroke-width="1.5" d="M1.18424e-14,-98C5.92119e-15,-92 6,-86 12,-86"/>
<path fill="#fadcad" stroke="#fadcad" stroke-width="1.5" d="M66,-86C72,-86 78,-92 78,-98"/>
<path fill="#fadcad" stroke="#fadcad" stroke-width="1.5" d="M78,-110C78,-116 72,-122 66,-122"/>
<polyline fill="none" stroke="#2e3436" stroke-width="1.5" points="66,-122 12,-122 "/>
<path fill="none" stroke="#2e3436" stroke-width="1.5" d="M12,-122C6,-122 2.96059e-14,-116 2.36848e-14,-110"/>
<polyline fill="none" stroke="#2e3436" stroke-width="1.5" points="2.36848e-14,-110 1.18424e-14,-98 "/>
<path fill="none" stroke="#2e3436" stroke-width="1.5" d="M1.18424e-14,-98C5.92119e-15,-92 6,-86 12,-86"/>
<polyline fill="none" stroke="#2e3436" stroke-width="1.5" points="12,-86 66,-86 "/>
<path fill="none" stroke="#2e3436" stroke-width="1.5" d="M66,-86C72,-86 78,-92 78,-98"/>
<polyline fill="none" stroke="#2e3436" stroke-width="1.5" points="78,-98 78,-110 "/>
<path fill="none" stroke="#2e3436" stroke-width="1.5" d="M78,-110C78,-116 72,-122 66,-122"/>
<text text-anchor="middle" x="39" y="-101.5" font-family="FreeSans" font-size="10.00" fill="#1c2021">Relationships</text>
</g>
<!-- A Node&#45;&gt;Relationships -->
<g id="edge2" class="edge"><title>A Node&#45;&gt;Relationships</title>
<path fill="none" stroke="#2e3436" stroke-width="2" d="M85.1817,-171.891C80.0556,-166.337 74.6087,-160.082 70,-154 64.0241,-146.114 58.1317,-137.036 53.1155,-128.798"/>
<polygon fill="#2e3436" stroke="#2e3436" points="49.1253,-122.12 55.8695,-126.828 51.478,-125.083 53.4015,-128.302 52.9723,-128.559 52.5431,-128.815 50.6196,-125.596 50.0751,-130.29 49.1253,-122.12 49.1253,-122.12"/>
<text text-anchor="middle" x="92" y="-144.5" font-family="FreeSans" font-size="10.00" fill="#1c2021">can have</text>
</g>
<!-- Properties -->
<g id="node5" class="node"><title>Properties</title>
<polygon fill="#fadcad" stroke="#fadcad" stroke-width="1.5" points="116,-36 76,-36 64,-24 64,-12 76,-1.5099e-14 116,-6.21725e-15 128,-12 128,-24 116,-36"/>
<path fill="#fadcad" stroke="#fadcad" stroke-width="1.5" d="M76,-36C70,-36 64,-30 64,-24"/>
<path fill="#fadcad" stroke="#fadcad" stroke-width="1.5" d="M64,-12C64,-6 70,-1.64313e-14 76,-1.5099e-14"/>
<path fill="#fadcad" stroke="#fadcad" stroke-width="1.5" d="M116,-6.21725e-15C122,-4.88498e-15 128,-6 128,-12"/>
<path fill="#fadcad" stroke="#fadcad" stroke-width="1.5" d="M128,-24C128,-30 122,-36 116,-36"/>
<polyline fill="none" stroke="#2e3436" stroke-width="1.5" points="116,-36 76,-36 "/>
<path fill="none" stroke="#2e3436" stroke-width="1.5" d="M76,-36C70,-36 64,-30 64,-24"/>
<polyline fill="none" stroke="#2e3436" stroke-width="1.5" points="64,-24 64,-12 "/>
<path fill="none" stroke="#2e3436" stroke-width="1.5" d="M64,-12C64,-6 70,-1.64313e-14 76,-1.5099e-14"/>
<polyline fill="none" stroke="#2e3436" stroke-width="1.5" points="76,-1.5099e-14 116,-6.21725e-15 "/>
<path fill="none" stroke="#2e3436" stroke-width="1.5" d="M116,-6.21725e-15C122,-4.88498e-15 128,-6 128,-12"/>
<polyline fill="none" stroke="#2e3436" stroke-width="1.5" points="128,-12 128,-24 "/>
<path fill="none" stroke="#2e3436" stroke-width="1.5" d="M128,-24C128,-30 122,-36 116,-36"/>
<text text-anchor="middle" x="96" y="-15.5" font-family="FreeSans" font-size="10.00" fill="#1c2021">Properties</text>
</g>
<!-- A Node&#45;&gt;Properties -->
<g id="edge4" class="edge"><title>A Node&#45;&gt;Properties</title>
<path fill="none" stroke="#2e3436" stroke-width="2" d="M111.622,-171.702C113.826,-166.142 115.887,-159.932 117,-154 125.195,-110.318 128.599,-96.9042 117,-54 115.987,-50.2544 114.478,-46.4983 112.723,-42.9005"/>
<polygon fill="#2e3436" stroke="#2e3436" points="109.115,-36.2213 115.649,-41.2157 111.337,-39.283 113.12,-42.5823 112.68,-42.8199 112.24,-43.0576 110.457,-39.7583 109.71,-44.4242 109.115,-36.2213 109.115,-36.2213"/>
<text text-anchor="middle" x="146" y="-101.5" font-family="FreeSans" font-size="10.00" fill="#1c2021">can have</text>
</g>
<!-- Relationships&#45;&gt;Properties -->
<g id="edge6" class="edge"><title>Relationships&#45;&gt;Properties</title>
<path fill="none" stroke="#2e3436" stroke-width="2" d="M49.8887,-85.7527C55.6994,-76.1932 63.0649,-64.3523 70,-54 72.5289,-50.2249 75.2715,-46.28 77.9953,-42.4435"/>
<polygon fill="#2e3436" stroke="#2e3436" points="82.5205,-36.1383 80.8893,-44.1994 80.7402,-39.4765 78.5536,-42.523 78.1474,-42.2315 77.7412,-41.94 79.9277,-38.8934 75.4055,-40.2636 82.5205,-36.1383 82.5205,-36.1383"/>
<text text-anchor="middle" x="92" y="-58.5" font-family="FreeSans" font-size="10.00" fill="#1c2021">can have</text>
</g>
</g>
</svg>
