<?xml version="1.0" encoding="UTF-8" standalone="no"?>
<!DOCTYPE svg PUBLIC "-//W3C//DTD SVG 1.1//EN"
 "http://www.w3.org/Graphics/SVG/1.1/DTD/svg11.dtd">
<!-- Generated by graphviz version 2.26.3 (20100126.1600)
 -->
<!-- Title: g Pages: 1 -->
<svg width="230pt" height="44pt"
 viewBox="0.00 0.00 230.00 44.00" xmlns="http://www.w3.org/2000/svg" xmlns:xlink="http://www.w3.org/1999/xlink">
<g id="graph1" class="graph" transform="scale(1 1) rotate(0) translate(4 40)">
<title>g</title>
<polygon fill="white" stroke="white" points="-4,5 -4,-40 227,-40 227,5 -4,5"/>
<!-- Start node -->
<g id="node1" class="node"><title>Start node</title>
<polygon fill="#ffffff" stroke="#ffffff" stroke-width="1.5" points="56,-36 12,-36 2.36848e-14,-24 1.18424e-14,-12 12,-1.52558e-14 56,-6.06051e-15 68,-12 68,-24 56,-36"/>
<path fill="#ffffff" stroke="#ffffff" stroke-width="1.5" d="M12,-36C6,-36 2.96059e-14,-30 2.36848e-14,-24"/>
<path fill="#ffffff" stroke="#ffffff" stroke-width="1.5" d="M1.18424e-14,-12C5.92119e-15,-6 6,-1.65097e-14 12,-1.52558e-14"/>
<path fill="#ffffff" stroke="#ffffff" stroke-width="1.5" d="M56,-6.06051e-15C62,-4.80661e-15 68,-6 68,-12"/>
<path fill="#ffffff" stroke="#ffffff" stroke-width="1.5" d="M68,-24C68,-30 62,-36 56,-36"/>
<polyline fill="none" stroke="#2e3436" stroke-width="1.5" points="56,-36 12,-36 "/>
<path fill="none" stroke="#2e3436" stroke-width="1.5" d="M12,-36C6,-36 2.96059e-14,-30 2.36848e-14,-24"/>
<polyline fill="none" stroke="#2e3436" stroke-width="1.5" points="2.36848e-14,-24 1.18424e-14,-12 "/>
<path fill="none" stroke="#2e3436" stroke-width="1.5" d="M1.18424e-14,-12C5.92119e-15,-6 6,-1.65097e-14 12,-1.52558e-14"/>
<polyline fill="none" stroke="#2e3436" stroke-width="1.5" points="12,-1.52558e-14 56,-6.06051e-15 "/>
<path fill="none" stroke="#2e3436" stroke-width="1.5" d="M56,-6.06051e-15C62,-4.80661e-15 68,-6 68,-12"/>
<polyline fill="none" stroke="#2e3436" stroke-width="1.5" points="68,-12 68,-24 "/>
<path fill="none" stroke="#2e3436" stroke-width="1.5" d="M68,-24C68,-30 62,-36 56,-36"/>
<text text-anchor="middle" x="34" y="-15.5" font-family="FreeSans" font-size="10.00" fill="#1c2021">Start node</text>
</g>
<!-- End node -->
<g id="node3" class="node"><title>End node</title>
<polygon fill="#ffffff" stroke="#ffffff" stroke-width="1.5" points="210,-36 172,-36 160,-24 160,-12 172,-1.50131e-14 210,-6.3032e-15 222,-12 222,-24 210,-36"/>
<path fill="#ffffff" stroke="#ffffff" stroke-width="1.5" d="M172,-36C166,-36 160,-30 160,-24"/>
<path fill="#ffffff" stroke="#ffffff" stroke-width="1.5" d="M160,-12C160,-6 166,-1.63883e-14 172,-1.50131e-14"/>
<path fill="#ffffff" stroke="#ffffff" stroke-width="1.5" d="M210,-6.3032e-15C216,-4.92796e-15 222,-6 222,-12"/>
<path fill="#ffffff" stroke="#ffffff" stroke-width="1.5" d="M222,-24C222,-30 216,-36 210,-36"/>
<polyline fill="none" stroke="#2e3436" stroke-width="1.5" points="210,-36 172,-36 "/>
<path fill="none" stroke="#2e3436" stroke-width="1.5" d="M172,-36C166,-36 160,-30 160,-24"/>
<polyline fill="none" stroke="#2e3436" stroke-width="1.5" points="160,-24 160,-12 "/>
<path fill="none" stroke="#2e3436" stroke-width="1.5" d="M160,-12C160,-6 166,-1.63883e-14 172,-1.50131e-14"/>
<polyline fill="none" stroke="#2e3436" stroke-width="1.5" points="172,-1.50131e-14 210,-6.3032e-15 "/>
<path fill="none" stroke="#2e3436" stroke-width="1.5" d="M210,-6.3032e-15C216,-4.92796e-15 222,-6 222,-12"/>
<polyline fill="none" stroke="#2e3436" stroke-width="1.5" points="222,-12 222,-24 "/>
<path fill="none" stroke="#2e3436" stroke-width="1.5" d="M222,-24C222,-30 216,-36 210,-36"/>
<text text-anchor="middle" x="191" y="-15.5" font-family="FreeSans" font-size="10.00" fill="#1c2021">End node</text>
</g>
<!-- Start node&#45;&gt;End node -->
<g id="edge2" class="edge"><title>Start node&#45;&gt;End node</title>
<path fill="none" stroke="#2e3436" stroke-width="2" d="M68.0667,-18C92.831,-18 126.392,-18 152.191,-18"/>
<polygon fill="#2e3436" stroke="#2e3436" points="159.931,-18 152.431,-21.3751 156.181,-18.5 152.431,-18.5001 152.431,-18.0001 152.431,-17.5001 156.181,-17.5 152.431,-14.6251 159.931,-18 159.931,-18"/>
<text text-anchor="middle" x="114" y="-22" font-family="FreeSans" font-size="10.00" fill="#1c2021">relationship</text>
</g>
</g>
</svg>
