<?xml version="1.0" encoding="UTF-8" standalone="no"?>
<!DOCTYPE svg PUBLIC "-//W3C//DTD SVG 1.1//EN"
 "http://www.w3.org/Graphics/SVG/1.1/DTD/svg11.dtd">
<!-- Generated by graphviz version 2.26.3 (20100126.1600)
 -->
<!-- Title: g Pages: 1 -->
<svg width="191pt" height="302pt"
 viewBox="0.00 0.00 191.00 302.00" xmlns="http://www.w3.org/2000/svg" xmlns:xlink="http://www.w3.org/1999/xlink">
<g id="graph1" class="graph" transform="scale(1 1) rotate(0) translate(4 298)">
<title>g</title>
<polygon fill="white" stroke="white" points="-4,5 -4,-298 188,-298 188,5 -4,5"/>
<!-- Graph -->
<g id="node1" class="node"><title>Graph</title>
<polygon fill="#a8e270" stroke="#a8e270" stroke-width="1.5" points="65,-294 35,-294 23,-282 23,-270 35,-258 65,-258 77,-270 77,-282 65,-294"/>
<path fill="#a8e270" stroke="#a8e270" stroke-width="1.5" d="M35,-294C29,-294 23,-288 23,-282"/>
<path fill="#a8e270" stroke="#a8e270" stroke-width="1.5" d="M23,-270C23,-264 29,-258 35,-258"/>
<path fill="#a8e270" stroke="#a8e270" stroke-width="1.5" d="M65,-258C71,-258 77,-264 77,-270"/>
<path fill="#a8e270" stroke="#a8e270" stroke-width="1.5" d="M77,-282C77,-288 71,-294 65,-294"/>
<polyline fill="none" stroke="#2e3436" stroke-width="1.5" points="65,-294 35,-294 "/>
<path fill="none" stroke="#2e3436" stroke-width="1.5" d="M35,-294C29,-294 23,-288 23,-282"/>
<polyline fill="none" stroke="#2e3436" stroke-width="1.5" points="23,-282 23,-270 "/>
<path fill="none" stroke="#2e3436" stroke-width="1.5" d="M23,-270C23,-264 29,-258 35,-258"/>
<polyline fill="none" stroke="#2e3436" stroke-width="1.5" points="35,-258 65,-258 "/>
<path fill="none" stroke="#2e3436" stroke-width="1.5" d="M65,-258C71,-258 77,-264 77,-270"/>
<polyline fill="none" stroke="#2e3436" stroke-width="1.5" points="77,-270 77,-282 "/>
<path fill="none" stroke="#2e3436" stroke-width="1.5" d="M77,-282C77,-288 71,-294 65,-294"/>
<text text-anchor="middle" x="50" y="-273.5" font-family="FreeSans" font-size="10.00" fill="#1c2021">Graph</text>
</g>
<!-- Nodes -->
<g id="node3" class="node"><title>Nodes</title>
<polygon fill="#fadcad" stroke="#fadcad" stroke-width="1.5" points="42,-122 12,-122 1.42109e-14,-110 7.10543e-15,-98 12,-86 42,-86 54,-98 54,-110 42,-122"/>
<path fill="#fadcad" stroke="#fadcad" stroke-width="1.5" d="M12,-122C6,-122 1.77636e-14,-116 1.42109e-14,-110"/>
<path fill="#fadcad" stroke="#fadcad" stroke-width="1.5" d="M7.10543e-15,-98C3.55271e-15,-92 6,-86 12,-86"/>
<path fill="#fadcad" stroke="#fadcad" stroke-width="1.5" d="M42,-86C48,-86 54,-92 54,-98"/>
<path fill="#fadcad" stroke="#fadcad" stroke-width="1.5" d="M54,-110C54,-116 48,-122 42,-122"/>
<polyline fill="none" stroke="#2e3436" stroke-width="1.5" points="42,-122 12,-122 "/>
<path fill="none" stroke="#2e3436" stroke-width="1.5" d="M12,-122C6,-122 1.77636e-14,-116 1.42109e-14,-110"/>
<polyline fill="none" stroke="#2e3436" stroke-width="1.5" points="1.42109e-14,-110 7.10543e-15,-98 "/>
<path fill="none" stroke="#2e3436" stroke-width="1.5" d="M7.10543e-15,-98C3.55271e-15,-92 6,-86 12,-86"/>
<polyline fill="none" stroke="#2e3436" stroke-width="1.5" points="12,-86 42,-86 "/>
<path fill="none" stroke="#2e3436" stroke-width="1.5" d="M42,-86C48,-86 54,-92 54,-98"/>
<polyline fill="none" stroke="#2e3436" stroke-width="1.5" points="54,-98 54,-110 "/>
<path fill="none" stroke="#2e3436" stroke-width="1.5" d="M54,-110C54,-116 48,-122 42,-122"/>
<text text-anchor="middle" x="27" y="-101.5" font-family="FreeSans" font-size="10.00" fill="#1c2021">Nodes</text>
</g>
<!-- Graph&#45;&gt;Nodes -->
<g id="edge2" class="edge"><title>Graph&#45;&gt;Nodes</title>
<path fill="none" stroke="#2e3436" stroke-width="2" d="M38.698,-257.748C31.1816,-244.492 21.9849,-225.826 18,-208 12.1197,-181.694 16.1102,-150.85 20.4867,-129.62"/>
<polygon fill="#2e3436" stroke="#2e3436" points="22.099,-122.26 23.7908,-130.309 21.7849,-126.03 20.9824,-129.693 20.494,-129.586 20.0056,-129.479 20.8081,-125.816 17.1972,-128.864 22.099,-122.26 22.099,-122.26"/>
<text text-anchor="middle" x="54.5" y="-187.5" font-family="FreeSans" font-size="10.00" fill="#1c2021">records data in</text>
</g>
<!-- Relationships -->
<g id="node5" class="node"><title>Relationships</title>
<polygon fill="#fadcad" stroke="#fadcad" stroke-width="1.5" points="171,-208 117,-208 105,-196 105,-184 117,-172 171,-172 183,-184 183,-196 171,-208"/>
<path fill="#fadcad" stroke="#fadcad" stroke-width="1.5" d="M117,-208C111,-208 105,-202 105,-196"/>
<path fill="#fadcad" stroke="#fadcad" stroke-width="1.5" d="M105,-184C105,-178 111,-172 117,-172"/>
<path fill="#fadcad" stroke="#fadcad" stroke-width="1.5" d="M171,-172C177,-172 183,-178 183,-184"/>
<path fill="#fadcad" stroke="#fadcad" stroke-width="1.5" d="M183,-196C183,-202 177,-208 171,-208"/>
<polyline fill="none" stroke="#2e3436" stroke-width="1.5" points="171,-208 117,-208 "/>
<path fill="none" stroke="#2e3436" stroke-width="1.5" d="M117,-208C111,-208 105,-202 105,-196"/>
<polyline fill="none" stroke="#2e3436" stroke-width="1.5" points="105,-196 105,-184 "/>
<path fill="none" stroke="#2e3436" stroke-width="1.5" d="M105,-184C105,-178 111,-172 117,-172"/>
<polyline fill="none" stroke="#2e3436" stroke-width="1.5" points="117,-172 171,-172 "/>
<path fill="none" stroke="#2e3436" stroke-width="1.5" d="M171,-172C177,-172 183,-178 183,-184"/>
<polyline fill="none" stroke="#2e3436" stroke-width="1.5" points="183,-184 183,-196 "/>
<path fill="none" stroke="#2e3436" stroke-width="1.5" d="M183,-196C183,-202 177,-208 171,-208"/>
<text text-anchor="middle" x="144" y="-187.5" font-family="FreeSans" font-size="10.00" fill="#1c2021">Relationships</text>
</g>
<!-- Graph&#45;&gt;Relationships -->
<g id="edge4" class="edge"><title>Graph&#45;&gt;Relationships</title>
<path fill="none" stroke="#2e3436" stroke-width="2" d="M69.935,-257.762C84.0177,-244.877 103.018,-227.494 118.248,-213.56"/>
<polygon fill="#2e3436" stroke="#2e3436" points="124.094,-208.212 120.838,-215.765 121.664,-211.112 118.898,-213.644 118.56,-213.275 118.223,-212.906 120.989,-210.375 116.282,-210.785 124.094,-208.212 124.094,-208.212"/>
<text text-anchor="middle" x="138.5" y="-230.5" font-family="FreeSans" font-size="10.00" fill="#1c2021">records data in</text>
</g>
<!-- Properties -->
<g id="node8" class="node"><title>Properties</title>
<polygon fill="#fadcad" stroke="#fadcad" stroke-width="1.5" points="118,-36 78,-36 66,-24 66,-12 78,-1.5099e-14 118,-6.21725e-15 130,-12 130,-24 118,-36"/>
<path fill="#fadcad" stroke="#fadcad" stroke-width="1.5" d="M78,-36C72,-36 66,-30 66,-24"/>
<path fill="#fadcad" stroke="#fadcad" stroke-width="1.5" d="M66,-12C66,-6 72,-1.64313e-14 78,-1.5099e-14"/>
<path fill="#fadcad" stroke="#fadcad" stroke-width="1.5" d="M118,-6.21725e-15C124,-4.88498e-15 130,-6 130,-12"/>
<path fill="#fadcad" stroke="#fadcad" stroke-width="1.5" d="M130,-24C130,-30 124,-36 118,-36"/>
<polyline fill="none" stroke="#2e3436" stroke-width="1.5" points="118,-36 78,-36 "/>
<path fill="none" stroke="#2e3436" stroke-width="1.5" d="M78,-36C72,-36 66,-30 66,-24"/>
<polyline fill="none" stroke="#2e3436" stroke-width="1.5" points="66,-24 66,-12 "/>
<path fill="none" stroke="#2e3436" stroke-width="1.5" d="M66,-12C66,-6 72,-1.64313e-14 78,-1.5099e-14"/>
<polyline fill="none" stroke="#2e3436" stroke-width="1.5" points="78,-1.5099e-14 118,-6.21725e-15 "/>
<path fill="none" stroke="#2e3436" stroke-width="1.5" d="M118,-6.21725e-15C124,-4.88498e-15 130,-6 130,-12"/>
<polyline fill="none" stroke="#2e3436" stroke-width="1.5" points="130,-12 130,-24 "/>
<path fill="none" stroke="#2e3436" stroke-width="1.5" d="M130,-24C130,-30 124,-36 118,-36"/>
<text text-anchor="middle" x="98" y="-15.5" font-family="FreeSans" font-size="10.00" fill="#1c2021">Properties</text>
</g>
<!-- Nodes&#45;&gt;Properties -->
<g id="edge8" class="edge"><title>Nodes&#45;&gt;Properties</title>
<path fill="none" stroke="#2e3436" stroke-width="2" d="M42.0573,-85.7616C52.506,-73.1055 66.5388,-56.1079 77.9358,-42.3031"/>
<polygon fill="#2e3436" stroke="#2e3436" points="82.9644,-36.2121 80.7922,-44.1445 80.9626,-39.4223 78.5751,-42.3141 78.1895,-41.9958 77.8039,-41.6774 80.1914,-38.7856 75.5869,-39.8471 82.9644,-36.2121 82.9644,-36.2121"/>
<text text-anchor="middle" x="78" y="-58.5" font-family="FreeSans" font-size="10.00" fill="#1c2021">have</text>
</g>
<!-- Relationships&#45;&gt;Nodes -->
<g id="edge6" class="edge"><title>Relationships&#45;&gt;Nodes</title>
<path fill="none" stroke="#2e3436" stroke-width="2" d="M104.689,-173.648C93.613,-168.183 81.8957,-161.535 72,-154 62.337,-146.642 53.0985,-137.01 45.5343,-128.167"/>
<polygon fill="#2e3436" stroke="#2e3436" points="40.5804,-122.208 47.9703,-125.817 43.3622,-124.772 45.7595,-127.655 45.375,-127.975 44.9905,-128.295 42.5932,-125.411 42.7797,-130.133 40.5804,-122.208 40.5804,-122.208"/>
<text text-anchor="middle" x="93" y="-144.5" font-family="FreeSans" font-size="10.00" fill="#1c2021">organize</text>
</g>
<!-- Relationships&#45;&gt;Properties -->
<g id="edge10" class="edge"><title>Relationships&#45;&gt;Properties</title>
<path fill="none" stroke="#2e3436" stroke-width="2" d="M139.164,-171.918C130.951,-141.207 114.252,-78.7693 104.843,-43.5871"/>
<polygon fill="#2e3436" stroke="#2e3436" points="102.84,-36.0977 108.038,-42.4711 104.292,-39.5912 105.261,-43.2139 104.778,-43.3431 104.295,-43.4723 103.326,-39.8496 101.517,-44.2151 102.84,-36.0977 102.84,-36.0977"/>
<text text-anchor="middle" x="137" y="-101.5" font-family="FreeSans" font-size="10.00" fill="#1c2021">have</text>
</g>
</g>
</svg>
