<?xml version="1.0" encoding="UTF-8" standalone="no"?>
<!DOCTYPE svg PUBLIC "-//W3C//DTD SVG 1.1//EN"
 "http://www.w3.org/Graphics/SVG/1.1/DTD/svg11.dtd">
<!-- Generated by graphviz version 2.26.3 (20100126.1600)
 -->
<!-- Title: g Pages: 1 -->
<svg width="247pt" height="302pt"
 viewBox="0.00 0.00 247.00 302.00" xmlns="http://www.w3.org/2000/svg" xmlns:xlink="http://www.w3.org/1999/xlink">
<g id="graph1" class="graph" transform="scale(1 1) rotate(0) translate(4 298)">
<title>g</title>
<polygon fill="white" stroke="white" points="-4,5 -4,-298 244,-298 244,5 -4,5"/>
<!-- Indexes -->
<g id="node1" class="node"><title>Indexes</title>
<polygon fill="#a8e270" stroke="#a8e270" stroke-width="1.5" points="151,-294 121,-294 109,-282 109,-270 121,-258 151,-258 163,-270 163,-282 151,-294"/>
<path fill="#a8e270" stroke="#a8e270" stroke-width="1.5" d="M121,-294C115,-294 109,-288 109,-282"/>
<path fill="#a8e270" stroke="#a8e270" stroke-width="1.5" d="M109,-270C109,-264 115,-258 121,-258"/>
<path fill="#a8e270" stroke="#a8e270" stroke-width="1.5" d="M151,-258C157,-258 163,-264 163,-270"/>
<path fill="#a8e270" stroke="#a8e270" stroke-width="1.5" d="M163,-282C163,-288 157,-294 151,-294"/>
<polyline fill="none" stroke="#2e3436" stroke-width="1.5" points="151,-294 121,-294 "/>
<path fill="none" stroke="#2e3436" stroke-width="1.5" d="M121,-294C115,-294 109,-288 109,-282"/>
<polyline fill="none" stroke="#2e3436" stroke-width="1.5" points="109,-282 109,-270 "/>
<path fill="none" stroke="#2e3436" stroke-width="1.5" d="M109,-270C109,-264 115,-258 121,-258"/>
<polyline fill="none" stroke="#2e3436" stroke-width="1.5" points="121,-258 151,-258 "/>
<path fill="none" stroke="#2e3436" stroke-width="1.5" d="M151,-258C157,-258 163,-264 163,-270"/>
<polyline fill="none" stroke="#2e3436" stroke-width="1.5" points="163,-270 163,-282 "/>
<path fill="none" stroke="#2e3436" stroke-width="1.5" d="M163,-282C163,-288 157,-294 151,-294"/>
<text text-anchor="middle" x="136" y="-273.5" font-family="FreeSans" font-size="10.00" fill="#1c2021">Indexes</text>
</g>
<!-- Relationships -->
<g id="node2" class="node"><title>Relationships</title>
<polygon fill="#fadcad" stroke="#fadcad" stroke-width="1.5" points="66,-208 12,-208 2.36848e-14,-196 1.18424e-14,-184 12,-172 66,-172 78,-184 78,-196 66,-208"/>
<path fill="#fadcad" stroke="#fadcad" stroke-width="1.5" d="M12,-208C6,-208 2.96059e-14,-202 2.36848e-14,-196"/>
<path fill="#fadcad" stroke="#fadcad" stroke-width="1.5" d="M1.18424e-14,-184C5.92119e-15,-178 6,-172 12,-172"/>
<path fill="#fadcad" stroke="#fadcad" stroke-width="1.5" d="M66,-172C72,-172 78,-178 78,-184"/>
<path fill="#fadcad" stroke="#fadcad" stroke-width="1.5" d="M78,-196C78,-202 72,-208 66,-208"/>
<polyline fill="none" stroke="#2e3436" stroke-width="1.5" points="66,-208 12,-208 "/>
<path fill="none" stroke="#2e3436" stroke-width="1.5" d="M12,-208C6,-208 2.96059e-14,-202 2.36848e-14,-196"/>
<polyline fill="none" stroke="#2e3436" stroke-width="1.5" points="2.36848e-14,-196 1.18424e-14,-184 "/>
<path fill="none" stroke="#2e3436" stroke-width="1.5" d="M1.18424e-14,-184C5.92119e-15,-178 6,-172 12,-172"/>
<polyline fill="none" stroke="#2e3436" stroke-width="1.5" points="12,-172 66,-172 "/>
<path fill="none" stroke="#2e3436" stroke-width="1.5" d="M66,-172C72,-172 78,-178 78,-184"/>
<polyline fill="none" stroke="#2e3436" stroke-width="1.5" points="78,-184 78,-196 "/>
<path fill="none" stroke="#2e3436" stroke-width="1.5" d="M78,-196C78,-202 72,-208 66,-208"/>
<text text-anchor="middle" x="39" y="-187.5" font-family="FreeSans" font-size="10.00" fill="#1c2021">Relationships</text>
</g>
<!-- Indexes&#45;&gt;Relationships -->
<g id="edge10" class="edge"><title>Indexes&#45;&gt;Relationships</title>
<path fill="none" stroke="#2e3436" stroke-width="2" d="M108.886,-261.405C98.9681,-255.434 87.9859,-248.037 79,-240 70.5987,-232.486 62.5777,-223.081 55.9537,-214.462"/>
<polygon fill="#2e3436" stroke="#2e3436" points="51.3918,-208.362 58.5865,-212.347 54.0382,-211.066 56.2843,-214.069 55.8839,-214.368 55.4835,-214.668 53.2374,-211.665 53.1812,-216.39 51.3918,-208.362 51.3918,-208.362"/>
<text text-anchor="middle" x="96.5" y="-230.5" font-family="FreeSans" font-size="10.00" fill="#1c2021">map to</text>
</g>
<!-- Nodes -->
<g id="node4" class="node"><title>Nodes</title>
<polygon fill="#fadcad" stroke="#fadcad" stroke-width="1.5" points="151,-122 121,-122 109,-110 109,-98 121,-86 151,-86 163,-98 163,-110 151,-122"/>
<path fill="#fadcad" stroke="#fadcad" stroke-width="1.5" d="M121,-122C115,-122 109,-116 109,-110"/>
<path fill="#fadcad" stroke="#fadcad" stroke-width="1.5" d="M109,-98C109,-92 115,-86 121,-86"/>
<path fill="#fadcad" stroke="#fadcad" stroke-width="1.5" d="M151,-86C157,-86 163,-92 163,-98"/>
<path fill="#fadcad" stroke="#fadcad" stroke-width="1.5" d="M163,-110C163,-116 157,-122 151,-122"/>
<polyline fill="none" stroke="#2e3436" stroke-width="1.5" points="151,-122 121,-122 "/>
<path fill="none" stroke="#2e3436" stroke-width="1.5" d="M121,-122C115,-122 109,-116 109,-110"/>
<polyline fill="none" stroke="#2e3436" stroke-width="1.5" points="109,-110 109,-98 "/>
<path fill="none" stroke="#2e3436" stroke-width="1.5" d="M109,-98C109,-92 115,-86 121,-86"/>
<polyline fill="none" stroke="#2e3436" stroke-width="1.5" points="121,-86 151,-86 "/>
<path fill="none" stroke="#2e3436" stroke-width="1.5" d="M151,-86C157,-86 163,-92 163,-98"/>
<polyline fill="none" stroke="#2e3436" stroke-width="1.5" points="163,-98 163,-110 "/>
<path fill="none" stroke="#2e3436" stroke-width="1.5" d="M163,-110C163,-116 157,-122 151,-122"/>
<text text-anchor="middle" x="136" y="-101.5" font-family="FreeSans" font-size="10.00" fill="#1c2021">Nodes</text>
</g>
<!-- Indexes&#45;&gt;Nodes -->
<g id="edge8" class="edge"><title>Indexes&#45;&gt;Nodes</title>
<path fill="none" stroke="#2e3436" stroke-width="2" d="M136,-257.918C136,-227.336 136,-165.293 136,-130.032"/>
<polygon fill="#2e3436" stroke="#2e3436" points="136,-122.098 139.375,-129.598 136.5,-125.848 136.5,-129.598 136,-129.598 135.5,-129.598 135.5,-125.848 132.625,-129.598 136,-122.098 136,-122.098"/>
<text text-anchor="middle" x="153.5" y="-187.5" font-family="FreeSans" font-size="10.00" fill="#1c2021">map to</text>
</g>
<!-- Properties -->
<g id="node6" class="node"><title>Properties</title>
<polygon fill="#fadcad" stroke="#fadcad" stroke-width="1.5" points="204,-36 164,-36 152,-24 152,-12 164,-1.5099e-14 204,-6.21725e-15 216,-12 216,-24 204,-36"/>
<path fill="#fadcad" stroke="#fadcad" stroke-width="1.5" d="M164,-36C158,-36 152,-30 152,-24"/>
<path fill="#fadcad" stroke="#fadcad" stroke-width="1.5" d="M152,-12C152,-6 158,-1.64313e-14 164,-1.5099e-14"/>
<path fill="#fadcad" stroke="#fadcad" stroke-width="1.5" d="M204,-6.21725e-15C210,-4.88498e-15 216,-6 216,-12"/>
<path fill="#fadcad" stroke="#fadcad" stroke-width="1.5" d="M216,-24C216,-30 210,-36 204,-36"/>
<polyline fill="none" stroke="#2e3436" stroke-width="1.5" points="204,-36 164,-36 "/>
<path fill="none" stroke="#2e3436" stroke-width="1.5" d="M164,-36C158,-36 152,-30 152,-24"/>
<polyline fill="none" stroke="#2e3436" stroke-width="1.5" points="152,-24 152,-12 "/>
<path fill="none" stroke="#2e3436" stroke-width="1.5" d="M152,-12C152,-6 158,-1.64313e-14 164,-1.5099e-14"/>
<polyline fill="none" stroke="#2e3436" stroke-width="1.5" points="164,-1.5099e-14 204,-6.21725e-15 "/>
<path fill="none" stroke="#2e3436" stroke-width="1.5" d="M204,-6.21725e-15C210,-4.88498e-15 216,-6 216,-12"/>
<polyline fill="none" stroke="#2e3436" stroke-width="1.5" points="216,-12 216,-24 "/>
<path fill="none" stroke="#2e3436" stroke-width="1.5" d="M216,-24C216,-30 210,-36 204,-36"/>
<text text-anchor="middle" x="184" y="-15.5" font-family="FreeSans" font-size="10.00" fill="#1c2021">Properties</text>
</g>
<!-- Indexes&#45;&gt;Properties -->
<g id="edge12" class="edge"><title>Indexes&#45;&gt;Properties</title>
<path fill="none" stroke="#2e3436" stroke-width="2" d="M150.383,-257.806C159.905,-244.726 171.75,-226.247 178,-208 198.279,-148.799 189.662,-130.489 193,-68 193.332,-61.7866 193.76,-60.1756 193,-54 192.581,-50.5991 191.948,-47.0575 191.208,-43.5803"/>
<polygon fill="#2e3436" stroke="#2e3436" points="189.457,-36.1509 194.462,-42.6767 190.804,-39.6862 191.664,-43.3362 191.177,-43.4509 190.691,-43.5656 189.83,-39.9156 187.892,-44.2251 189.457,-36.1509 189.457,-36.1509"/>
<text text-anchor="middle" x="215" y="-144.5" font-family="FreeSans" font-size="10.00" fill="#1c2021">map from</text>
</g>
<!-- Relationships&#45;&gt;Nodes -->
<g id="edge2" class="edge"><title>Relationships&#45;&gt;Nodes</title>
<path fill="none" stroke="#2e3436" stroke-width="2" d="M48.1937,-171.805C54.0082,-161.574 62.2582,-149.074 72,-140 80.8002,-131.803 91.8054,-124.759 102.195,-119.131"/>
<polygon fill="#2e3436" stroke="#2e3436" points="108.905,-115.639 103.81,-122.095 105.809,-117.814 102.483,-119.545 102.252,-119.102 102.021,-118.658 105.348,-116.927 100.694,-116.108 108.905,-115.639 108.905,-115.639"/>
<text text-anchor="middle" x="93" y="-144.5" font-family="FreeSans" font-size="10.00" fill="#1c2021">organize</text>
</g>
<!-- Relationships&#45;&gt;Properties -->
<g id="edge6" class="edge"><title>Relationships&#45;&gt;Properties</title>
<path fill="none" stroke="#2e3436" stroke-width="2" d="M40.6311,-171.611C43.451,-149.257 51.0152,-111.38 71,-86 90.0807,-61.7687 120.368,-44.2105 144.785,-33.0118"/>
<polygon fill="#2e3436" stroke="#2e3436" points="151.828,-29.881 146.346,-36.0116 148.604,-31.8612 145.178,-33.3845 144.975,-32.9276 144.771,-32.4707 148.198,-30.9474 143.604,-29.8436 151.828,-29.881 151.828,-29.881"/>
<text text-anchor="middle" x="83" y="-101.5" font-family="FreeSans" font-size="10.00" fill="#1c2021">have</text>
</g>
<!-- Nodes&#45;&gt;Properties -->
<g id="edge4" class="edge"><title>Nodes&#45;&gt;Properties</title>
<path fill="none" stroke="#2e3436" stroke-width="2" d="M146.18,-85.7616C153.116,-73.3335 162.389,-56.719 170.017,-43.0524"/>
<polygon fill="#2e3436" stroke="#2e3436" points="173.835,-36.2121 173.127,-44.406 172.444,-39.7303 170.616,-43.0048 170.18,-42.7611 169.743,-42.5174 171.571,-39.2429 167.233,-41.1162 173.835,-36.2121 173.835,-36.2121"/>
<text text-anchor="middle" x="174" y="-58.5" font-family="FreeSans" font-size="10.00" fill="#1c2021">have</text>
</g>
</g>
</svg>
