<?xml version="1.0" encoding="UTF-8" standalone="no"?>
<!DOCTYPE svg PUBLIC "-//W3C//DTD SVG 1.1//EN"
 "http://www.w3.org/Graphics/SVG/1.1/DTD/svg11.dtd">
<!-- Generated by graphviz version 2.26.3 (20100126.1600)
 -->
<!-- Title: g Pages: 1 -->
<svg width="170pt" height="140pt"
 viewBox="0.00 0.00 170.00 140.00" xmlns="http://www.w3.org/2000/svg" xmlns:xlink="http://www.w3.org/1999/xlink">
<g id="graph1" class="graph" transform="scale(1 1) rotate(0) translate(4 136)">
<title>g</title>
<polygon fill="white" stroke="white" points="-4,5 -4,-136 167,-136 167,5 -4,5"/>
<!-- N1 -->
<g id="node1" class="node"><title>N1</title>
<polygon fill="#ffffff" stroke="#ffffff" stroke-width="1.5" points="11.5,-95 88.5,-95 100.5,-107 100.5,-119 88.5,-131 11.5,-131 -0.5,-119 -0.5,-107 11.5,-95"/>
<path fill="#ffffff" stroke="#ffffff" stroke-width="1.5" d="M88.5,-95C94.5,-95 100.5,-101 100.5,-107"/>
<path fill="#ffffff" stroke="#ffffff" stroke-width="1.5" d="M100.5,-119C100.5,-125 94.5,-131 88.5,-131"/>
<path fill="#ffffff" stroke="#ffffff" stroke-width="1.5" d="M11.5,-131C5.5,-131 -0.5,-125 -0.5,-119"/>
<path fill="#ffffff" stroke="#ffffff" stroke-width="1.5" d="M-0.5,-107C-0.5,-101 5.5,-95 11.5,-95"/>
<polyline fill="none" stroke="#2e3436" stroke-width="1.5" points="11.5,-95 88.5,-95 "/>
<path fill="none" stroke="#2e3436" stroke-width="1.5" d="M88.5,-95C94.5,-95 100.5,-101 100.5,-107"/>
<polyline fill="none" stroke="#2e3436" stroke-width="1.5" points="100.5,-107 100.5,-119 "/>
<path fill="none" stroke="#2e3436" stroke-width="1.5" d="M100.5,-119C100.5,-125 94.5,-131 88.5,-131"/>
<polyline fill="none" stroke="#2e3436" stroke-width="1.5" points="88.5,-131 11.5,-131 "/>
<path fill="none" stroke="#2e3436" stroke-width="1.5" d="M11.5,-131C5.5,-131 -0.5,-125 -0.5,-119"/>
<polyline fill="none" stroke="#2e3436" stroke-width="1.5" points="-0.5,-119 -0.5,-107 "/>
<path fill="none" stroke="#2e3436" stroke-width="1.5" d="M-0.5,-107C-0.5,-101 5.5,-95 11.5,-95"/>
<text text-anchor="start" x="7.5" y="-110.8" font-family="FreeSans" font-size="8.00" fill="#1c2021">message = &#39;Hello, &#39;</text>
</g>
<!-- N2 -->
<g id="node3" class="node"><title>N2</title>
<polygon fill="#ffffff" stroke="#ffffff" stroke-width="1.5" points="13,-1 87,-1 99,-13 99,-25 87,-37 13,-37 1,-25 1,-13 13,-1"/>
<path fill="#ffffff" stroke="#ffffff" stroke-width="1.5" d="M87,-1C93,-1 99,-7 99,-13"/>
<path fill="#ffffff" stroke="#ffffff" stroke-width="1.5" d="M99,-25C99,-31 93,-37 87,-37"/>
<path fill="#ffffff" stroke="#ffffff" stroke-width="1.5" d="M13,-37C7,-37 1,-31 1,-25"/>
<path fill="#ffffff" stroke="#ffffff" stroke-width="1.5" d="M1,-13C1,-7 7,-1 13,-1"/>
<polyline fill="none" stroke="#2e3436" stroke-width="1.5" points="13,-1 87,-1 "/>
<path fill="none" stroke="#2e3436" stroke-width="1.5" d="M87,-1C93,-1 99,-7 99,-13"/>
<polyline fill="none" stroke="#2e3436" stroke-width="1.5" points="99,-13 99,-25 "/>
<path fill="none" stroke="#2e3436" stroke-width="1.5" d="M99,-25C99,-31 93,-37 87,-37"/>
<polyline fill="none" stroke="#2e3436" stroke-width="1.5" points="87,-37 13,-37 "/>
<path fill="none" stroke="#2e3436" stroke-width="1.5" d="M13,-37C7,-37 1,-31 1,-25"/>
<polyline fill="none" stroke="#2e3436" stroke-width="1.5" points="1,-25 1,-13 "/>
<path fill="none" stroke="#2e3436" stroke-width="1.5" d="M1,-13C1,-7 7,-1 13,-1"/>
<text text-anchor="start" x="9" y="-16.8" font-family="FreeSans" font-size="8.00" fill="#1c2021">message = &#39;World!&#39;</text>
</g>
<!-- N1&#45;&gt;N2 -->
<g id="edge2" class="edge"><title>N1&#45;&gt;N2</title>
<path fill="none" stroke="#2e3436" stroke-width="2" d="M50,-94.8759C50,-80.7014 50,-60.806 50,-44.944"/>
<polygon fill="#2e3436" stroke="#2e3436" points="50,-37.0685 53.3751,-44.5685 50.5,-40.8185 50.5001,-44.5685 50.0001,-44.5685 49.5001,-44.5685 49.5,-40.8185 46.6251,-44.5685 50,-37.0685 50,-37.0685"/>
<text text-anchor="middle" x="106" y="-68.8" font-family="FreeSans" font-size="8.00" fill="#2e3436">KNOWS</text>
<text text-anchor="start" x="50" y="-58.8" font-family="FreeSans" font-size="8.00" fill="#2e3436">message = &#39;brave Neo4j &#39;</text>
</g>
</g>
</svg>
