<?xml version="1.0" encoding="UTF-8" standalone="no"?>
<!DOCTYPE svg PUBLIC "-//W3C//DTD SVG 1.1//EN"
 "http://www.w3.org/Graphics/SVG/1.1/DTD/svg11.dtd">
<!-- Generated by graphviz version 2.26.3 (20100126.1600)
 -->
<!-- Title: g Pages: 1 -->
<svg width="80pt" height="130pt"
 viewBox="0.00 0.00 80.00 130.00" xmlns="http://www.w3.org/2000/svg" xmlns:xlink="http://www.w3.org/1999/xlink">
<g id="graph1" class="graph" transform="scale(1 1) rotate(0) translate(4 126)">
<title>g</title>
<polygon fill="white" stroke="white" points="-4,5 -4,-126 77,-126 77,5 -4,5"/>
<!-- N1 -->
<g id="node1" class="node"><title>N1</title>
<polygon fill="#ffffff" stroke="#ffffff" stroke-width="1.5" points="11.5,-1 60.5,-1 72.5,-13 72.5,-25 60.5,-37 11.5,-37 -0.5,-25 -0.5,-13 11.5,-1"/>
<path fill="#ffffff" stroke="#ffffff" stroke-width="1.5" d="M60.5,-1C66.5,-1 72.5,-7 72.5,-13"/>
<path fill="#ffffff" stroke="#ffffff" stroke-width="1.5" d="M72.5,-25C72.5,-31 66.5,-37 60.5,-37"/>
<path fill="#ffffff" stroke="#ffffff" stroke-width="1.5" d="M11.5,-37C5.5,-37 -0.5,-31 -0.5,-25"/>
<path fill="#ffffff" stroke="#ffffff" stroke-width="1.5" d="M-0.5,-13C-0.5,-7 5.5,-1 11.5,-1"/>
<polyline fill="none" stroke="#2e3436" stroke-width="1.5" points="11.5,-1 60.5,-1 "/>
<path fill="none" stroke="#2e3436" stroke-width="1.5" d="M60.5,-1C66.5,-1 72.5,-7 72.5,-13"/>
<polyline fill="none" stroke="#2e3436" stroke-width="1.5" points="72.5,-13 72.5,-25 "/>
<path fill="none" stroke="#2e3436" stroke-width="1.5" d="M72.5,-25C72.5,-31 66.5,-37 60.5,-37"/>
<polyline fill="none" stroke="#2e3436" stroke-width="1.5" points="60.5,-37 11.5,-37 "/>
<path fill="none" stroke="#2e3436" stroke-width="1.5" d="M11.5,-37C5.5,-37 -0.5,-31 -0.5,-25"/>
<polyline fill="none" stroke="#2e3436" stroke-width="1.5" points="-0.5,-25 -0.5,-13 "/>
<path fill="none" stroke="#2e3436" stroke-width="1.5" d="M-0.5,-13C-0.5,-7 5.5,-1 11.5,-1"/>
<text text-anchor="middle" x="36" y="-25.8" font-family="FreeSans" font-size="8.00" fill="#1c2021">Node[1]</text>
<polyline fill="none" stroke="#2e3436" stroke-width="1.5" points="-0.5,-19 72.5,-19 "/>
<text text-anchor="start" x="7.5" y="-7.8" font-family="FreeSans" font-size="8.00" fill="#1c2021">name = &#39;you&#39;</text>
</g>
<!-- N2 -->
<g id="node2" class="node"><title>N2</title>
<polygon fill="#ffffff" stroke="#ffffff" stroke-width="1.5" points="18,-85 54,-85 66,-97 66,-109 54,-121 18,-121 6,-109 6,-97 18,-85"/>
<path fill="#ffffff" stroke="#ffffff" stroke-width="1.5" d="M54,-85C60,-85 66,-91 66,-97"/>
<path fill="#ffffff" stroke="#ffffff" stroke-width="1.5" d="M66,-109C66,-115 60,-121 54,-121"/>
<path fill="#ffffff" stroke="#ffffff" stroke-width="1.5" d="M18,-121C12,-121 6,-115 6,-109"/>
<path fill="#ffffff" stroke="#ffffff" stroke-width="1.5" d="M6,-97C6,-91 12,-85 18,-85"/>
<polyline fill="none" stroke="#2e3436" stroke-width="1.5" points="18,-85 54,-85 "/>
<path fill="none" stroke="#2e3436" stroke-width="1.5" d="M54,-85C60,-85 66,-91 66,-97"/>
<polyline fill="none" stroke="#2e3436" stroke-width="1.5" points="66,-97 66,-109 "/>
<path fill="none" stroke="#2e3436" stroke-width="1.5" d="M66,-109C66,-115 60,-121 54,-121"/>
<polyline fill="none" stroke="#2e3436" stroke-width="1.5" points="54,-121 18,-121 "/>
<path fill="none" stroke="#2e3436" stroke-width="1.5" d="M18,-121C12,-121 6,-115 6,-109"/>
<polyline fill="none" stroke="#2e3436" stroke-width="1.5" points="6,-109 6,-97 "/>
<path fill="none" stroke="#2e3436" stroke-width="1.5" d="M6,-97C6,-91 12,-85 18,-85"/>
<text text-anchor="middle" x="36" y="-109.8" font-family="FreeSans" font-size="8.00" fill="#1c2021">Node[2]</text>
<polyline fill="none" stroke="#2e3436" stroke-width="1.5" points="6,-103 66,-103 "/>
<text text-anchor="start" x="14" y="-91.8" font-family="FreeSans" font-size="8.00" fill="#1c2021">name = &#39;I&#39;</text>
</g>
<!-- N2&#45;&gt;N1 -->
<g id="edge2" class="edge"><title>N2&#45;&gt;N1</title>
<path fill="none" stroke="#2e3436" stroke-width="2" d="M36,-84.7733C36,-73.1053 36,-57.7874 36,-44.8699"/>
<polygon fill="#2e3436" stroke="#2e3436" points="36,-37.1912 39.3751,-44.6911 36.5,-40.9412 36.5001,-44.6912 36.0001,-44.6912 35.5001,-44.6912 35.5,-40.9412 32.6251,-44.6912 36,-37.1912 36,-37.1912"/>
<text text-anchor="middle" x="47" y="-58.8" font-family="FreeSans" font-size="8.00" fill="#2e3436">know</text>
</g>
</g>
</svg>
