<?xml version="1.0" encoding="UTF-8" standalone="no"?>
<!DOCTYPE svg PUBLIC "-//W3C//DTD SVG 1.1//EN"
 "http://www.w3.org/Graphics/SVG/1.1/DTD/svg11.dtd">
<!-- Generated by graphviz version 2.26.3 (20100126.1600)
 -->
<!-- Title: g Pages: 1 -->
<svg width="454pt" height="140pt"
 viewBox="0.00 0.00 454.00 140.00" xmlns="http://www.w3.org/2000/svg" xmlns:xlink="http://www.w3.org/1999/xlink">
<g id="graph1" class="graph" transform="scale(1 1) rotate(0) translate(4 136)">
<title>g</title>
<polygon fill="white" stroke="white" points="-4,5 -4,-136 451,-136 451,5 -4,5"/>
<!-- N1 -->
<g id="node1" class="node"><title>N1</title>
<polygon fill="#ffffff" stroke="#ffffff" stroke-width="1.5" points="55.5,-95 148.5,-95 160.5,-107 160.5,-119 148.5,-131 55.5,-131 43.5,-119 43.5,-107 55.5,-95"/>
<path fill="#ffffff" stroke="#ffffff" stroke-width="1.5" d="M148.5,-95C154.5,-95 160.5,-101 160.5,-107"/>
<path fill="#ffffff" stroke="#ffffff" stroke-width="1.5" d="M160.5,-119C160.5,-125 154.5,-131 148.5,-131"/>
<path fill="#ffffff" stroke="#ffffff" stroke-width="1.5" d="M55.5,-131C49.5,-131 43.5,-125 43.5,-119"/>
<path fill="#ffffff" stroke="#ffffff" stroke-width="1.5" d="M43.5,-107C43.5,-101 49.5,-95 55.5,-95"/>
<polyline fill="none" stroke="#2e3436" stroke-width="1.5" points="55.5,-95 148.5,-95 "/>
<path fill="none" stroke="#2e3436" stroke-width="1.5" d="M148.5,-95C154.5,-95 160.5,-101 160.5,-107"/>
<polyline fill="none" stroke="#2e3436" stroke-width="1.5" points="160.5,-107 160.5,-119 "/>
<path fill="none" stroke="#2e3436" stroke-width="1.5" d="M160.5,-119C160.5,-125 154.5,-131 148.5,-131"/>
<polyline fill="none" stroke="#2e3436" stroke-width="1.5" points="148.5,-131 55.5,-131 "/>
<path fill="none" stroke="#2e3436" stroke-width="1.5" d="M55.5,-131C49.5,-131 43.5,-125 43.5,-119"/>
<polyline fill="none" stroke="#2e3436" stroke-width="1.5" points="43.5,-119 43.5,-107 "/>
<path fill="none" stroke="#2e3436" stroke-width="1.5" d="M43.5,-107C43.5,-101 49.5,-95 55.5,-95"/>
<text text-anchor="start" x="51.5" y="-110.8" font-family="FreeSans" font-size="8.00" fill="#1c2021">name = &#39;Keanu Reeves&#39;</text>
</g>
<!-- N3 -->
<g id="node3" class="node"><title>N3</title>
<polygon fill="#ffffff" stroke="#ffffff" stroke-width="1.5" points="12,-1 82,-1 94,-13 94,-25 82,-37 12,-37 0,-25 0,-13 12,-1"/>
<path fill="#ffffff" stroke="#ffffff" stroke-width="1.5" d="M82,-1C88,-1 94,-7 94,-13"/>
<path fill="#ffffff" stroke="#ffffff" stroke-width="1.5" d="M94,-25C94,-31 88,-37 82,-37"/>
<path fill="#ffffff" stroke="#ffffff" stroke-width="1.5" d="M12,-37C6,-37 0,-31 0,-25"/>
<path fill="#ffffff" stroke="#ffffff" stroke-width="1.5" d="M0,-13C0,-7 6,-1 12,-1"/>
<polyline fill="none" stroke="#2e3436" stroke-width="1.5" points="12,-1 82,-1 "/>
<path fill="none" stroke="#2e3436" stroke-width="1.5" d="M82,-1C88,-1 94,-7 94,-13"/>
<polyline fill="none" stroke="#2e3436" stroke-width="1.5" points="94,-13 94,-25 "/>
<path fill="none" stroke="#2e3436" stroke-width="1.5" d="M94,-25C94,-31 88,-37 82,-37"/>
<polyline fill="none" stroke="#2e3436" stroke-width="1.5" points="82,-37 12,-37 "/>
<path fill="none" stroke="#2e3436" stroke-width="1.5" d="M12,-37C6,-37 0,-31 0,-25"/>
<polyline fill="none" stroke="#2e3436" stroke-width="1.5" points="0,-25 0,-13 "/>
<path fill="none" stroke="#2e3436" stroke-width="1.5" d="M0,-13C0,-7 6,-1 12,-1"/>
<text text-anchor="start" x="8" y="-21.8" font-family="FreeSans" font-size="8.00" fill="#1c2021">title = &#39;The Matrix&#39;</text>
<text text-anchor="start" x="8" y="-11.8" font-family="FreeSans" font-size="8.00" fill="#1c2021">year = 1999</text>
</g>
<!-- N1&#45;&gt;N3 -->
<g id="edge2" class="edge"><title>N1&#45;&gt;N3</title>
<path fill="none" stroke="#2e3436" stroke-width="2" d="M62.5624,-94.9124C55.5113,-89.829 49.1103,-83.5684 45,-76 39.8786,-66.5697 39.4518,-54.9085 40.6626,-44.5954"/>
<polygon fill="#2e3436" stroke="#2e3436" points="41.8571,-37.0308 44.0209,-44.9655 41.7661,-40.8129 41.1811,-44.517 40.6872,-44.439 40.1933,-44.361 40.7783,-40.6569 37.3535,-43.9126 41.8571,-37.0308 41.8571,-37.0308"/>
<text text-anchor="middle" x="74" y="-68.8" font-family="FreeSans" font-size="8.00" fill="#2e3436">ACTS_IN</text>
<text text-anchor="start" x="45" y="-58.8" font-family="FreeSans" font-size="8.00" fill="#2e3436">name = &#39;Neo&#39;</text>
</g>
<!-- N4 -->
<g id="node5" class="node"><title>N4</title>
<polygon fill="#ffffff" stroke="#ffffff" stroke-width="1.5" points="150,-1 262,-1 274,-13 274,-25 262,-37 150,-37 138,-25 138,-13 150,-1"/>
<path fill="#ffffff" stroke="#ffffff" stroke-width="1.5" d="M262,-1C268,-1 274,-7 274,-13"/>
<path fill="#ffffff" stroke="#ffffff" stroke-width="1.5" d="M274,-25C274,-31 268,-37 262,-37"/>
<path fill="#ffffff" stroke="#ffffff" stroke-width="1.5" d="M150,-37C144,-37 138,-31 138,-25"/>
<path fill="#ffffff" stroke="#ffffff" stroke-width="1.5" d="M138,-13C138,-7 144,-1 150,-1"/>
<polyline fill="none" stroke="#2e3436" stroke-width="1.5" points="150,-1 262,-1 "/>
<path fill="none" stroke="#2e3436" stroke-width="1.5" d="M262,-1C268,-1 274,-7 274,-13"/>
<polyline fill="none" stroke="#2e3436" stroke-width="1.5" points="274,-13 274,-25 "/>
<path fill="none" stroke="#2e3436" stroke-width="1.5" d="M274,-25C274,-31 268,-37 262,-37"/>
<polyline fill="none" stroke="#2e3436" stroke-width="1.5" points="262,-37 150,-37 "/>
<path fill="none" stroke="#2e3436" stroke-width="1.5" d="M150,-37C144,-37 138,-31 138,-25"/>
<polyline fill="none" stroke="#2e3436" stroke-width="1.5" points="138,-25 138,-13 "/>
<path fill="none" stroke="#2e3436" stroke-width="1.5" d="M138,-13C138,-7 144,-1 150,-1"/>
<text text-anchor="start" x="146" y="-21.8" font-family="FreeSans" font-size="8.00" fill="#1c2021">title = &#39;The Matrix Reloaded&#39;</text>
<text text-anchor="start" x="146" y="-11.8" font-family="FreeSans" font-size="8.00" fill="#1c2021">year = 2003</text>
</g>
<!-- N1&#45;&gt;N4 -->
<g id="edge4" class="edge"><title>N1&#45;&gt;N4</title>
<path fill="none" stroke="#2e3436" stroke-width="2" d="M116.419,-94.8043C126.135,-83.0909 139.584,-67.8899 153,-56 158.669,-50.9759 165.033,-46.0289 171.331,-41.4677"/>
<polygon fill="#2e3436" stroke="#2e3436" points="177.58,-37.0464 173.407,-44.1335 174.808,-39.6205 171.746,-41.7865 171.458,-41.3784 171.169,-40.9702 174.23,-38.8042 169.508,-38.6233 177.58,-37.0464 177.58,-37.0464"/>
<text text-anchor="middle" x="182" y="-68.8" font-family="FreeSans" font-size="8.00" fill="#2e3436">ACTS_IN</text>
<text text-anchor="start" x="153" y="-58.8" font-family="FreeSans" font-size="8.00" fill="#2e3436">name = &#39;Neo&#39;</text>
</g>
<!-- N2 -->
<g id="node6" class="node"><title>N2</title>
<polygon fill="#ffffff" stroke="#ffffff" stroke-width="1.5" points="219,-95 317,-95 329,-107 329,-119 317,-131 219,-131 207,-119 207,-107 219,-95"/>
<path fill="#ffffff" stroke="#ffffff" stroke-width="1.5" d="M317,-95C323,-95 329,-101 329,-107"/>
<path fill="#ffffff" stroke="#ffffff" stroke-width="1.5" d="M329,-119C329,-125 323,-131 317,-131"/>
<path fill="#ffffff" stroke="#ffffff" stroke-width="1.5" d="M219,-131C213,-131 207,-125 207,-119"/>
<path fill="#ffffff" stroke="#ffffff" stroke-width="1.5" d="M207,-107C207,-101 213,-95 219,-95"/>
<polyline fill="none" stroke="#2e3436" stroke-width="1.5" points="219,-95 317,-95 "/>
<path fill="none" stroke="#2e3436" stroke-width="1.5" d="M317,-95C323,-95 329,-101 329,-107"/>
<polyline fill="none" stroke="#2e3436" stroke-width="1.5" points="329,-107 329,-119 "/>
<path fill="none" stroke="#2e3436" stroke-width="1.5" d="M329,-119C329,-125 323,-131 317,-131"/>
<polyline fill="none" stroke="#2e3436" stroke-width="1.5" points="317,-131 219,-131 "/>
<path fill="none" stroke="#2e3436" stroke-width="1.5" d="M219,-131C213,-131 207,-125 207,-119"/>
<polyline fill="none" stroke="#2e3436" stroke-width="1.5" points="207,-119 207,-107 "/>
<path fill="none" stroke="#2e3436" stroke-width="1.5" d="M207,-107C207,-101 213,-95 219,-95"/>
<text text-anchor="start" x="215" y="-110.8" font-family="FreeSans" font-size="8.00" fill="#1c2021">name = &#39;Monica Bellucci&#39;</text>
</g>
<!-- N2&#45;&gt;N4 -->
<g id="edge6" class="edge"><title>N2&#45;&gt;N4</title>
<path fill="none" stroke="#2e3436" stroke-width="2" d="M245.628,-94.8826C239.674,-89.2835 233.621,-82.7896 229,-76 222.477,-66.4169 217.349,-54.7029 213.606,-44.3921"/>
<polygon fill="#2e3436" stroke="#2e3436" points="211.125,-37.1828 216.757,-43.1765 212.818,-40.5661 214.038,-44.112 213.565,-44.2747 213.093,-44.4374 211.872,-40.8915 210.374,-45.3729 211.125,-37.1828 211.125,-37.1828"/>
<text text-anchor="middle" x="275.5" y="-68.8" font-family="FreeSans" font-size="8.00" fill="#2e3436">ACTS_IN</text>
<text text-anchor="start" x="229" y="-58.8" font-family="FreeSans" font-size="8.00" fill="#2e3436">name = &#39;Persephone&#39;</text>
</g>
<!-- N5 -->
<g id="node9" class="node"><title>N5</title>
<polygon fill="#ffffff" stroke="#ffffff" stroke-width="1.5" points="330,-1 386,-1 398,-13 398,-25 386,-37 330,-37 318,-25 318,-13 330,-1"/>
<path fill="#ffffff" stroke="#ffffff" stroke-width="1.5" d="M386,-1C392,-1 398,-7 398,-13"/>
<path fill="#ffffff" stroke="#ffffff" stroke-width="1.5" d="M398,-25C398,-31 392,-37 386,-37"/>
<path fill="#ffffff" stroke="#ffffff" stroke-width="1.5" d="M330,-37C324,-37 318,-31 318,-25"/>
<path fill="#ffffff" stroke="#ffffff" stroke-width="1.5" d="M318,-13C318,-7 324,-1 330,-1"/>
<polyline fill="none" stroke="#2e3436" stroke-width="1.5" points="330,-1 386,-1 "/>
<path fill="none" stroke="#2e3436" stroke-width="1.5" d="M386,-1C392,-1 398,-7 398,-13"/>
<polyline fill="none" stroke="#2e3436" stroke-width="1.5" points="398,-13 398,-25 "/>
<path fill="none" stroke="#2e3436" stroke-width="1.5" d="M398,-25C398,-31 392,-37 386,-37"/>
<polyline fill="none" stroke="#2e3436" stroke-width="1.5" points="386,-37 330,-37 "/>
<path fill="none" stroke="#2e3436" stroke-width="1.5" d="M330,-37C324,-37 318,-31 318,-25"/>
<polyline fill="none" stroke="#2e3436" stroke-width="1.5" points="318,-25 318,-13 "/>
<path fill="none" stroke="#2e3436" stroke-width="1.5" d="M318,-13C318,-7 324,-1 330,-1"/>
<text text-anchor="start" x="326" y="-21.8" font-family="FreeSans" font-size="8.00" fill="#1c2021">title = &#39;Malèna&#39;</text>
<text text-anchor="start" x="326" y="-11.8" font-family="FreeSans" font-size="8.00" fill="#1c2021">year = 2000</text>
</g>
<!-- N2&#45;&gt;N5 -->
<g id="edge8" class="edge"><title>N2&#45;&gt;N5</title>
<path fill="none" stroke="#2e3436" stroke-width="2" d="M301.668,-94.8711C309.891,-89.4832 318.254,-83.0983 325,-76 333.852,-66.6847 341.292,-54.5633 346.853,-43.8947"/>
<polygon fill="#2e3436" stroke="#2e3436" points="350.233,-37.1378 349.896,-45.3554 349.002,-40.7154 347.325,-44.0693 346.878,-43.8457 346.431,-43.622 348.108,-40.2681 343.859,-42.336 350.233,-37.1378 350.233,-37.1378"/>
<text text-anchor="middle" x="392.5" y="-68.8" font-family="FreeSans" font-size="8.00" fill="#2e3436">ACTS_IN</text>
<text text-anchor="start" x="339" y="-58.8" font-family="FreeSans" font-size="8.00" fill="#2e3436">name = &#39;Malèna Scordia&#39;</text>
</g>
</g>
</svg>
