<?xml version="1.0" encoding="UTF-8" standalone="no"?>
<!DOCTYPE svg PUBLIC "-//W3C//DTD SVG 1.1//EN"
 "http://www.w3.org/Graphics/SVG/1.1/DTD/svg11.dtd">
<!-- Generated by graphviz version 2.26.3 (20100126.1600)
 -->
<!-- Title: g Pages: 1 -->
<svg width="223pt" height="486pt"
 viewBox="0.00 0.00 223.00 486.00" xmlns="http://www.w3.org/2000/svg" xmlns:xlink="http://www.w3.org/1999/xlink">
<g id="graph1" class="graph" transform="scale(1 1) rotate(0) translate(4 482)">
<title>g</title>
<polygon fill="white" stroke="white" points="-4,5 -4,-482 220,-482 220,5 -4,5"/>
<!-- N0 -->
<g id="node1" class="node"><title>N0</title>
<polygon fill="#ffffff" stroke="#ffffff" stroke-width="1.5" points="60,-441 90,-441 102,-453 102,-465 90,-477 60,-477 48,-465 48,-453 60,-441"/>
<path fill="#ffffff" stroke="#ffffff" stroke-width="1.5" d="M90,-441C96,-441 102,-447 102,-453"/>
<path fill="#ffffff" stroke="#ffffff" stroke-width="1.5" d="M102,-465C102,-471 96,-477 90,-477"/>
<path fill="#ffffff" stroke="#ffffff" stroke-width="1.5" d="M60,-477C54,-477 48,-471 48,-465"/>
<path fill="#ffffff" stroke="#ffffff" stroke-width="1.5" d="M48,-453C48,-447 54,-441 60,-441"/>
<polyline fill="none" stroke="#2e3436" stroke-width="1.5" points="60,-441 90,-441 "/>
<path fill="none" stroke="#2e3436" stroke-width="1.5" d="M90,-441C96,-441 102,-447 102,-453"/>
<polyline fill="none" stroke="#2e3436" stroke-width="1.5" points="102,-453 102,-465 "/>
<path fill="none" stroke="#2e3436" stroke-width="1.5" d="M102,-465C102,-471 96,-477 90,-477"/>
<polyline fill="none" stroke="#2e3436" stroke-width="1.5" points="90,-477 60,-477 "/>
<path fill="none" stroke="#2e3436" stroke-width="1.5" d="M60,-477C54,-477 48,-471 48,-465"/>
<polyline fill="none" stroke="#2e3436" stroke-width="1.5" points="48,-465 48,-453 "/>
<path fill="none" stroke="#2e3436" stroke-width="1.5" d="M48,-453C48,-447 54,-441 60,-441"/>
<text text-anchor="middle" x="75" y="-465.8" font-family="FreeSans" font-size="8.00" fill="#1c2021">Node[0]</text>
<polyline fill="none" stroke="#2e3436" stroke-width="1.5" points="48,-459 102,-459 "/>
<text text-anchor="middle" x="75" y="-447.8" font-family="FreeSans" font-size="8.00" fill="#1c2021"> </text>
</g>
<!-- N1 -->
<g id="node3" class="node"><title>N1</title>
<polygon fill="#ffffff" stroke="#ffffff" stroke-width="1.5" points="16.5,-357 133.5,-357 145.5,-369 145.5,-381 133.5,-393 16.5,-393 4.5,-381 4.5,-369 16.5,-357"/>
<path fill="#ffffff" stroke="#ffffff" stroke-width="1.5" d="M133.5,-357C139.5,-357 145.5,-363 145.5,-369"/>
<path fill="#ffffff" stroke="#ffffff" stroke-width="1.5" d="M145.5,-381C145.5,-387 139.5,-393 133.5,-393"/>
<path fill="#ffffff" stroke="#ffffff" stroke-width="1.5" d="M16.5,-393C10.5,-393 4.5,-387 4.5,-381"/>
<path fill="#ffffff" stroke="#ffffff" stroke-width="1.5" d="M4.5,-369C4.5,-363 10.5,-357 16.5,-357"/>
<polyline fill="none" stroke="#2e3436" stroke-width="1.5" points="16.5,-357 133.5,-357 "/>
<path fill="none" stroke="#2e3436" stroke-width="1.5" d="M133.5,-357C139.5,-357 145.5,-363 145.5,-369"/>
<polyline fill="none" stroke="#2e3436" stroke-width="1.5" points="145.5,-369 145.5,-381 "/>
<path fill="none" stroke="#2e3436" stroke-width="1.5" d="M145.5,-381C145.5,-387 139.5,-393 133.5,-393"/>
<polyline fill="none" stroke="#2e3436" stroke-width="1.5" points="133.5,-393 16.5,-393 "/>
<path fill="none" stroke="#2e3436" stroke-width="1.5" d="M16.5,-393C10.5,-393 4.5,-387 4.5,-381"/>
<polyline fill="none" stroke="#2e3436" stroke-width="1.5" points="4.5,-381 4.5,-369 "/>
<path fill="none" stroke="#2e3436" stroke-width="1.5" d="M4.5,-369C4.5,-363 10.5,-357 16.5,-357"/>
<text text-anchor="middle" x="75" y="-381.8" font-family="FreeSans" font-size="8.00" fill="#1c2021">Node[1]</text>
<polyline fill="none" stroke="#2e3436" stroke-width="1.5" points="4.5,-375 145.5,-375 "/>
<text text-anchor="start" x="12.5" y="-363.8" font-family="FreeSans" font-size="8.00" fill="#1c2021">name = &#39;Thomas Andersson&#39;</text>
</g>
<!-- N0&#45;&gt;N1 -->
<g id="edge2" class="edge"><title>N0&#45;&gt;N1</title>
<path fill="none" stroke="#2e3436" stroke-width="2" d="M75,-440.773C75,-429.105 75,-413.787 75,-400.87"/>
<polygon fill="#2e3436" stroke="#2e3436" points="75,-393.191 78.3751,-400.691 75.5,-396.941 75.5001,-400.691 75.0001,-400.691 74.5001,-400.691 74.5,-396.941 71.6251,-400.691 75,-393.191 75,-393.191"/>
<text text-anchor="middle" x="87.5" y="-414.8" font-family="FreeSans" font-size="8.00" fill="#2e3436">ROOT</text>
</g>
<!-- N2 -->
<g id="node5" class="node"><title>N2</title>
<polygon fill="#ffffff" stroke="#ffffff" stroke-width="1.5" points="11.5,-169 70.5,-169 82.5,-181 82.5,-193 70.5,-205 11.5,-205 -0.5,-193 -0.5,-181 11.5,-169"/>
<path fill="#ffffff" stroke="#ffffff" stroke-width="1.5" d="M70.5,-169C76.5,-169 82.5,-175 82.5,-181"/>
<path fill="#ffffff" stroke="#ffffff" stroke-width="1.5" d="M82.5,-193C82.5,-199 76.5,-205 70.5,-205"/>
<path fill="#ffffff" stroke="#ffffff" stroke-width="1.5" d="M11.5,-205C5.5,-205 -0.5,-199 -0.5,-193"/>
<path fill="#ffffff" stroke="#ffffff" stroke-width="1.5" d="M-0.5,-181C-0.5,-175 5.5,-169 11.5,-169"/>
<polyline fill="none" stroke="#2e3436" stroke-width="1.5" points="11.5,-169 70.5,-169 "/>
<path fill="none" stroke="#2e3436" stroke-width="1.5" d="M70.5,-169C76.5,-169 82.5,-175 82.5,-181"/>
<polyline fill="none" stroke="#2e3436" stroke-width="1.5" points="82.5,-181 82.5,-193 "/>
<path fill="none" stroke="#2e3436" stroke-width="1.5" d="M82.5,-193C82.5,-199 76.5,-205 70.5,-205"/>
<polyline fill="none" stroke="#2e3436" stroke-width="1.5" points="70.5,-205 11.5,-205 "/>
<path fill="none" stroke="#2e3436" stroke-width="1.5" d="M11.5,-205C5.5,-205 -0.5,-199 -0.5,-193"/>
<polyline fill="none" stroke="#2e3436" stroke-width="1.5" points="-0.5,-193 -0.5,-181 "/>
<path fill="none" stroke="#2e3436" stroke-width="1.5" d="M-0.5,-181C-0.5,-175 5.5,-169 11.5,-169"/>
<text text-anchor="middle" x="41" y="-193.8" font-family="FreeSans" font-size="8.00" fill="#1c2021">Node[2]</text>
<polyline fill="none" stroke="#2e3436" stroke-width="1.5" points="-0.5,-187 82.5,-187 "/>
<text text-anchor="start" x="7.5" y="-175.8" font-family="FreeSans" font-size="8.00" fill="#1c2021">name = &#39;Trinity&#39;</text>
</g>
<!-- N1&#45;&gt;N2 -->
<g id="edge4" class="edge"><title>N1&#45;&gt;N2</title>
<path fill="none" stroke="#4e9a06" stroke-width="2" d="M67.5671,-356.846C61.7711,-341.863 54.0478,-319.906 50,-300 44.0012,-270.5 41.9579,-235.909 41.2849,-212.844"/>
<polygon fill="#4e9a06" stroke="#4e9a06" points="41.0998,-205.193 44.6553,-212.609 41.6904,-208.93 41.7812,-212.679 41.2813,-212.691 40.7815,-212.703 40.6907,-208.954 37.9073,-212.773 41.0998,-205.193 41.0998,-205.193"/>
<text text-anchor="middle" x="65.5" y="-278.8" font-family="FreeSans" font-size="8.00" fill="#4e9a06">KNOWS</text>
</g>
<!-- N3 -->
<g id="node7" class="node"><title>N3</title>
<polygon fill="#ffffff" stroke="#ffffff" stroke-width="1.5" points="108,-263 184,-263 196,-275 196,-287 184,-299 108,-299 96,-287 96,-275 108,-263"/>
<path fill="#ffffff" stroke="#ffffff" stroke-width="1.5" d="M184,-263C190,-263 196,-269 196,-275"/>
<path fill="#ffffff" stroke="#ffffff" stroke-width="1.5" d="M196,-287C196,-293 190,-299 184,-299"/>
<path fill="#ffffff" stroke="#ffffff" stroke-width="1.5" d="M108,-299C102,-299 96,-293 96,-287"/>
<path fill="#ffffff" stroke="#ffffff" stroke-width="1.5" d="M96,-275C96,-269 102,-263 108,-263"/>
<polyline fill="none" stroke="#2e3436" stroke-width="1.5" points="108,-263 184,-263 "/>
<path fill="none" stroke="#2e3436" stroke-width="1.5" d="M184,-263C190,-263 196,-269 196,-275"/>
<polyline fill="none" stroke="#2e3436" stroke-width="1.5" points="196,-275 196,-287 "/>
<path fill="none" stroke="#2e3436" stroke-width="1.5" d="M196,-287C196,-293 190,-299 184,-299"/>
<polyline fill="none" stroke="#2e3436" stroke-width="1.5" points="184,-299 108,-299 "/>
<path fill="none" stroke="#2e3436" stroke-width="1.5" d="M108,-299C102,-299 96,-293 96,-287"/>
<polyline fill="none" stroke="#2e3436" stroke-width="1.5" points="96,-287 96,-275 "/>
<path fill="none" stroke="#2e3436" stroke-width="1.5" d="M96,-275C96,-269 102,-263 108,-263"/>
<text text-anchor="middle" x="146" y="-287.8" font-family="FreeSans" font-size="8.00" fill="#1c2021">Node[3]</text>
<polyline fill="none" stroke="#2e3436" stroke-width="1.5" points="96,-281 196,-281 "/>
<text text-anchor="start" x="104" y="-269.8" font-family="FreeSans" font-size="8.00" fill="#1c2021">name = &#39;Morpheus&#39;</text>
</g>
<!-- N1&#45;&gt;N3 -->
<g id="edge6" class="edge"><title>N1&#45;&gt;N3</title>
<path fill="none" stroke="#4e9a06" stroke-width="2" d="M88.6895,-356.876C99.7887,-342.181 115.532,-321.338 127.71,-305.214"/>
<polygon fill="#4e9a06" stroke="#4e9a06" points="132.353,-299.069 130.525,-307.087 130.491,-302.362 128.231,-305.355 127.832,-305.053 127.433,-304.752 129.693,-301.759 125.139,-303.019 132.353,-299.069 132.353,-299.069"/>
<text text-anchor="middle" x="134" y="-330.8" font-family="FreeSans" font-size="8.00" fill="#4e9a06">KNOWS</text>
<text text-anchor="start" x="117" y="-320.8" font-family="FreeSans" font-size="8.00" fill="#4e9a06">age = 3</text>
</g>
<!-- N3&#45;&gt;N2 -->
<g id="edge8" class="edge"><title>N3&#45;&gt;N2</title>
<path fill="none" stroke="#4e9a06" stroke-width="2" d="M125.755,-262.876C109.05,-247.921 85.2322,-226.598 67.0968,-210.363"/>
<polygon fill="#4e9a06" stroke="#4e9a06" points="61.1829,-205.069 69.022,-207.556 64.3104,-207.197 67.1043,-209.699 66.7708,-210.071 66.4373,-210.444 63.6434,-207.942 64.5197,-212.586 61.1829,-205.069 61.1829,-205.069"/>
<text text-anchor="middle" x="123" y="-236.8" font-family="FreeSans" font-size="8.00" fill="#4e9a06">KNOWS</text>
<text text-anchor="start" x="103" y="-226.8" font-family="FreeSans" font-size="8.00" fill="#4e9a06">age = 90</text>
</g>
<!-- N4 -->
<g id="node10" class="node"><title>N4</title>
<polygon fill="#ffffff" stroke="#ffffff" stroke-width="1.5" points="127,-169 191,-169 203,-181 203,-193 191,-205 127,-205 115,-193 115,-181 127,-169"/>
<path fill="#ffffff" stroke="#ffffff" stroke-width="1.5" d="M191,-169C197,-169 203,-175 203,-181"/>
<path fill="#ffffff" stroke="#ffffff" stroke-width="1.5" d="M203,-193C203,-199 197,-205 191,-205"/>
<path fill="#ffffff" stroke="#ffffff" stroke-width="1.5" d="M127,-205C121,-205 115,-199 115,-193"/>
<path fill="#ffffff" stroke="#ffffff" stroke-width="1.5" d="M115,-181C115,-175 121,-169 127,-169"/>
<polyline fill="none" stroke="#2e3436" stroke-width="1.5" points="127,-169 191,-169 "/>
<path fill="none" stroke="#2e3436" stroke-width="1.5" d="M191,-169C197,-169 203,-175 203,-181"/>
<polyline fill="none" stroke="#2e3436" stroke-width="1.5" points="203,-181 203,-193 "/>
<path fill="none" stroke="#2e3436" stroke-width="1.5" d="M203,-193C203,-199 197,-205 191,-205"/>
<polyline fill="none" stroke="#2e3436" stroke-width="1.5" points="191,-205 127,-205 "/>
<path fill="none" stroke="#2e3436" stroke-width="1.5" d="M127,-205C121,-205 115,-199 115,-193"/>
<polyline fill="none" stroke="#2e3436" stroke-width="1.5" points="115,-193 115,-181 "/>
<path fill="none" stroke="#2e3436" stroke-width="1.5" d="M115,-181C115,-175 121,-169 127,-169"/>
<text text-anchor="middle" x="159" y="-193.8" font-family="FreeSans" font-size="8.00" fill="#1c2021">Node[4]</text>
<polyline fill="none" stroke="#2e3436" stroke-width="1.5" points="115,-187 203,-187 "/>
<text text-anchor="start" x="123" y="-175.8" font-family="FreeSans" font-size="8.00" fill="#1c2021">name = &#39;Cypher&#39;</text>
</g>
<!-- N3&#45;&gt;N4 -->
<g id="edge10" class="edge"><title>N3&#45;&gt;N4</title>
<path fill="none" stroke="#4e9a06" stroke-width="2" d="M148.507,-262.876C150.485,-248.571 153.269,-228.44 155.472,-212.508"/>
<polygon fill="#4e9a06" stroke="#4e9a06" points="156.501,-205.069 158.817,-212.96 156.483,-208.852 155.969,-212.566 155.474,-212.498 154.978,-212.429 155.492,-208.715 152.13,-212.035 156.501,-205.069 156.501,-205.069"/>
<text text-anchor="middle" x="169.5" y="-231.8" font-family="FreeSans" font-size="8.00" fill="#4e9a06">KNOWS</text>
</g>
<!-- N5 -->
<g id="node12" class="node"><title>N5</title>
<polygon fill="#ffffff" stroke="#ffffff" stroke-width="1.5" points="116,-85 202,-85 214,-97 214,-109 202,-121 116,-121 104,-109 104,-97 116,-85"/>
<path fill="#ffffff" stroke="#ffffff" stroke-width="1.5" d="M202,-85C208,-85 214,-91 214,-97"/>
<path fill="#ffffff" stroke="#ffffff" stroke-width="1.5" d="M214,-109C214,-115 208,-121 202,-121"/>
<path fill="#ffffff" stroke="#ffffff" stroke-width="1.5" d="M116,-121C110,-121 104,-115 104,-109"/>
<path fill="#ffffff" stroke="#ffffff" stroke-width="1.5" d="M104,-97C104,-91 110,-85 116,-85"/>
<polyline fill="none" stroke="#2e3436" stroke-width="1.5" points="116,-85 202,-85 "/>
<path fill="none" stroke="#2e3436" stroke-width="1.5" d="M202,-85C208,-85 214,-91 214,-97"/>
<polyline fill="none" stroke="#2e3436" stroke-width="1.5" points="214,-97 214,-109 "/>
<path fill="none" stroke="#2e3436" stroke-width="1.5" d="M214,-109C214,-115 208,-121 202,-121"/>
<polyline fill="none" stroke="#2e3436" stroke-width="1.5" points="202,-121 116,-121 "/>
<path fill="none" stroke="#2e3436" stroke-width="1.5" d="M116,-121C110,-121 104,-115 104,-109"/>
<polyline fill="none" stroke="#2e3436" stroke-width="1.5" points="104,-109 104,-97 "/>
<path fill="none" stroke="#2e3436" stroke-width="1.5" d="M104,-97C104,-91 110,-85 116,-85"/>
<text text-anchor="middle" x="159" y="-109.8" font-family="FreeSans" font-size="8.00" fill="#1c2021">Node[5]</text>
<polyline fill="none" stroke="#2e3436" stroke-width="1.5" points="104,-103 214,-103 "/>
<text text-anchor="start" x="112" y="-91.8" font-family="FreeSans" font-size="8.00" fill="#1c2021">name = &#39;Agent Smith&#39;</text>
</g>
<!-- N4&#45;&gt;N5 -->
<g id="edge12" class="edge"><title>N4&#45;&gt;N5</title>
<path fill="none" stroke="#4e9a06" stroke-width="2" d="M159,-168.773C159,-157.105 159,-141.787 159,-128.87"/>
<polygon fill="#4e9a06" stroke="#4e9a06" points="159,-121.191 162.375,-128.691 159.5,-124.941 159.5,-128.691 159,-128.691 158.5,-128.691 158.5,-124.941 155.625,-128.691 159,-121.191 159,-121.191"/>
<text text-anchor="middle" x="174.5" y="-142.8" font-family="FreeSans" font-size="8.00" fill="#4e9a06">KNOWS</text>
</g>
<!-- N6 -->
<g id="node14" class="node"><title>N6</title>
<polygon fill="#ffffff" stroke="#ffffff" stroke-width="1.5" points="114.5,-1 203.5,-1 215.5,-13 215.5,-25 203.5,-37 114.5,-37 102.5,-25 102.5,-13 114.5,-1"/>
<path fill="#ffffff" stroke="#ffffff" stroke-width="1.5" d="M203.5,-1C209.5,-1 215.5,-7 215.5,-13"/>
<path fill="#ffffff" stroke="#ffffff" stroke-width="1.5" d="M215.5,-25C215.5,-31 209.5,-37 203.5,-37"/>
<path fill="#ffffff" stroke="#ffffff" stroke-width="1.5" d="M114.5,-37C108.5,-37 102.5,-31 102.5,-25"/>
<path fill="#ffffff" stroke="#ffffff" stroke-width="1.5" d="M102.5,-13C102.5,-7 108.5,-1 114.5,-1"/>
<polyline fill="none" stroke="#2e3436" stroke-width="1.5" points="114.5,-1 203.5,-1 "/>
<path fill="none" stroke="#2e3436" stroke-width="1.5" d="M203.5,-1C209.5,-1 215.5,-7 215.5,-13"/>
<polyline fill="none" stroke="#2e3436" stroke-width="1.5" points="215.5,-13 215.5,-25 "/>
<path fill="none" stroke="#2e3436" stroke-width="1.5" d="M215.5,-25C215.5,-31 209.5,-37 203.5,-37"/>
<polyline fill="none" stroke="#2e3436" stroke-width="1.5" points="203.5,-37 114.5,-37 "/>
<path fill="none" stroke="#2e3436" stroke-width="1.5" d="M114.5,-37C108.5,-37 102.5,-31 102.5,-25"/>
<polyline fill="none" stroke="#2e3436" stroke-width="1.5" points="102.5,-25 102.5,-13 "/>
<path fill="none" stroke="#2e3436" stroke-width="1.5" d="M102.5,-13C102.5,-7 108.5,-1 114.5,-1"/>
<text text-anchor="middle" x="159" y="-25.8" font-family="FreeSans" font-size="8.00" fill="#1c2021">Node[6]</text>
<polyline fill="none" stroke="#2e3436" stroke-width="1.5" points="102.5,-19 215.5,-19 "/>
<text text-anchor="start" x="110.5" y="-7.8" font-family="FreeSans" font-size="8.00" fill="#1c2021">name = &#39;The Architect&#39;</text>
</g>
<!-- N5&#45;&gt;N6 -->
<g id="edge14" class="edge"><title>N5&#45;&gt;N6</title>
<path fill="none" stroke="#a40000" stroke-width="2" d="M159,-84.7733C159,-73.1053 159,-57.7874 159,-44.8699"/>
<polygon fill="#a40000" stroke="#a40000" points="159,-37.1912 162.375,-44.6911 159.5,-40.9412 159.5,-44.6912 159,-44.6912 158.5,-44.6912 158.5,-40.9412 155.625,-44.6912 159,-37.1912 159,-37.1912"/>
<text text-anchor="middle" x="182" y="-58.8" font-family="FreeSans" font-size="8.00" fill="#a40000">CODED_BY</text>
</g>
</g>
</svg>
