<?xml version="1.0" encoding="UTF-8" standalone="no"?>
<!DOCTYPE svg PUBLIC "-//W3C//DTD SVG 1.1//EN"
 "http://www.w3.org/Graphics/SVG/1.1/DTD/svg11.dtd">
<!-- Generated by graphviz version 2.26.3 (20100126.1600)
 -->
<!-- Title: g Pages: 1 -->
<svg width="165pt" height="130pt"
 viewBox="0.00 0.00 165.00 130.00" xmlns="http://www.w3.org/2000/svg" xmlns:xlink="http://www.w3.org/1999/xlink">
<g id="graph1" class="graph" transform="scale(1 1) rotate(0) translate(4 126)">
<title>g</title>
<polygon fill="white" stroke="white" points="-4,5 -4,-126 162,-126 162,5 -4,5"/>
<!-- N0 -->
<g id="node1" class="node"><title>N0</title>
<polygon fill="#ffffff" stroke="#ffffff" stroke-width="1.5" points="12,-85 42,-85 54,-97 54,-109 42,-121 12,-121 0,-109 0,-97 12,-85"/>
<path fill="#ffffff" stroke="#ffffff" stroke-width="1.5" d="M42,-85C48,-85 54,-91 54,-97"/>
<path fill="#ffffff" stroke="#ffffff" stroke-width="1.5" d="M54,-109C54,-115 48,-121 42,-121"/>
<path fill="#ffffff" stroke="#ffffff" stroke-width="1.5" d="M12,-121C6,-121 0,-115 0,-109"/>
<path fill="#ffffff" stroke="#ffffff" stroke-width="1.5" d="M0,-97C0,-91 6,-85 12,-85"/>
<polyline fill="none" stroke="#2e3436" stroke-width="1.5" points="12,-85 42,-85 "/>
<path fill="none" stroke="#2e3436" stroke-width="1.5" d="M42,-85C48,-85 54,-91 54,-97"/>
<polyline fill="none" stroke="#2e3436" stroke-width="1.5" points="54,-97 54,-109 "/>
<path fill="none" stroke="#2e3436" stroke-width="1.5" d="M54,-109C54,-115 48,-121 42,-121"/>
<polyline fill="none" stroke="#2e3436" stroke-width="1.5" points="42,-121 12,-121 "/>
<path fill="none" stroke="#2e3436" stroke-width="1.5" d="M12,-121C6,-121 0,-115 0,-109"/>
<polyline fill="none" stroke="#2e3436" stroke-width="1.5" points="0,-109 0,-97 "/>
<path fill="none" stroke="#2e3436" stroke-width="1.5" d="M0,-97C0,-91 6,-85 12,-85"/>
<text text-anchor="middle" x="27" y="-109.8" font-family="FreeSans" font-size="8.00" fill="#1c2021">Node[0]</text>
<polyline fill="none" stroke="#2e3436" stroke-width="1.5" points="0,-103 54,-103 "/>
<text text-anchor="middle" x="27" y="-91.8" font-family="FreeSans" font-size="8.00" fill="#1c2021"> </text>
</g>
<!-- N22 -->
<g id="node2" class="node"><title>N22</title>
<polygon fill="#ffffff" stroke="#ffffff" stroke-width="1.5" points="91,-1 145,-1 157,-13 157,-25 145,-37 91,-37 79,-25 79,-13 91,-1"/>
<path fill="#ffffff" stroke="#ffffff" stroke-width="1.5" d="M145,-1C151,-1 157,-7 157,-13"/>
<path fill="#ffffff" stroke="#ffffff" stroke-width="1.5" d="M157,-25C157,-31 151,-37 145,-37"/>
<path fill="#ffffff" stroke="#ffffff" stroke-width="1.5" d="M91,-37C85,-37 79,-31 79,-25"/>
<path fill="#ffffff" stroke="#ffffff" stroke-width="1.5" d="M79,-13C79,-7 85,-1 91,-1"/>
<polyline fill="none" stroke="#2e3436" stroke-width="1.5" points="91,-1 145,-1 "/>
<path fill="none" stroke="#2e3436" stroke-width="1.5" d="M145,-1C151,-1 157,-7 157,-13"/>
<polyline fill="none" stroke="#2e3436" stroke-width="1.5" points="157,-13 157,-25 "/>
<path fill="none" stroke="#2e3436" stroke-width="1.5" d="M157,-25C157,-31 151,-37 145,-37"/>
<polyline fill="none" stroke="#2e3436" stroke-width="1.5" points="145,-37 91,-37 "/>
<path fill="none" stroke="#2e3436" stroke-width="1.5" d="M91,-37C85,-37 79,-31 79,-25"/>
<polyline fill="none" stroke="#2e3436" stroke-width="1.5" points="79,-25 79,-13 "/>
<path fill="none" stroke="#2e3436" stroke-width="1.5" d="M79,-13C79,-7 85,-1 91,-1"/>
<text text-anchor="middle" x="118" y="-25.8" font-family="FreeSans" font-size="8.00" fill="#1c2021">Node[22]</text>
<polyline fill="none" stroke="#2e3436" stroke-width="1.5" points="79,-19 157,-19 "/>
<text text-anchor="start" x="87" y="-7.8" font-family="FreeSans" font-size="8.00" fill="#1c2021">name = &#39;Sara&#39;</text>
</g>
<!-- N23 -->
<g id="node3" class="node"><title>N23</title>
<polygon fill="#ffffff" stroke="#ffffff" stroke-width="1.5" points="94.5,-85 141.5,-85 153.5,-97 153.5,-109 141.5,-121 94.5,-121 82.5,-109 82.5,-97 94.5,-85"/>
<path fill="#ffffff" stroke="#ffffff" stroke-width="1.5" d="M141.5,-85C147.5,-85 153.5,-91 153.5,-97"/>
<path fill="#ffffff" stroke="#ffffff" stroke-width="1.5" d="M153.5,-109C153.5,-115 147.5,-121 141.5,-121"/>
<path fill="#ffffff" stroke="#ffffff" stroke-width="1.5" d="M94.5,-121C88.5,-121 82.5,-115 82.5,-109"/>
<path fill="#ffffff" stroke="#ffffff" stroke-width="1.5" d="M82.5,-97C82.5,-91 88.5,-85 94.5,-85"/>
<polyline fill="none" stroke="#2e3436" stroke-width="1.5" points="94.5,-85 141.5,-85 "/>
<path fill="none" stroke="#2e3436" stroke-width="1.5" d="M141.5,-85C147.5,-85 153.5,-91 153.5,-97"/>
<polyline fill="none" stroke="#2e3436" stroke-width="1.5" points="153.5,-97 153.5,-109 "/>
<path fill="none" stroke="#2e3436" stroke-width="1.5" d="M153.5,-109C153.5,-115 147.5,-121 141.5,-121"/>
<polyline fill="none" stroke="#2e3436" stroke-width="1.5" points="141.5,-121 94.5,-121 "/>
<path fill="none" stroke="#2e3436" stroke-width="1.5" d="M94.5,-121C88.5,-121 82.5,-115 82.5,-109"/>
<polyline fill="none" stroke="#2e3436" stroke-width="1.5" points="82.5,-109 82.5,-97 "/>
<path fill="none" stroke="#2e3436" stroke-width="1.5" d="M82.5,-97C82.5,-91 88.5,-85 94.5,-85"/>
<text text-anchor="middle" x="118" y="-109.8" font-family="FreeSans" font-size="8.00" fill="#1c2021">Node[23]</text>
<polyline fill="none" stroke="#2e3436" stroke-width="1.5" points="82.5,-103 153.5,-103 "/>
<text text-anchor="start" x="90.5" y="-91.8" font-family="FreeSans" font-size="8.00" fill="#1c2021">name = &#39;Joe&#39;</text>
</g>
<!-- N23&#45;&gt;N22 -->
<g id="edge2" class="edge"><title>N23&#45;&gt;N22</title>
<path fill="none" stroke="#2e3436" stroke-width="2" d="M118,-84.7733C118,-73.1053 118,-57.7874 118,-44.8699"/>
<polygon fill="#2e3436" stroke="#2e3436" points="118,-37.1912 121.375,-44.6911 118.5,-40.9412 118.5,-44.6912 118,-44.6912 117.5,-44.6912 117.5,-40.9412 114.625,-44.6912 118,-37.1912 118,-37.1912"/>
<text text-anchor="middle" x="132" y="-58.8" font-family="FreeSans" font-size="8.00" fill="#2e3436">knows</text>
</g>
</g>
</svg>
