<?xml version="1.0" encoding="UTF-8" standalone="no"?>
<!DOCTYPE svg PUBLIC "-//W3C//DTD SVG 1.1//EN"
 "http://www.w3.org/Graphics/SVG/1.1/DTD/svg11.dtd">
<!-- Generated by graphviz version 2.26.3 (20100126.1600)
 -->
<!-- Title: g Pages: 1 -->
<svg width="504pt" height="302pt"
 viewBox="0.00 0.00 504.00 302.32" xmlns="http://www.w3.org/2000/svg" xmlns:xlink="http://www.w3.org/1999/xlink">
<g id="graph1" class="graph" transform="scale(0.382688 0.382688) rotate(0) translate(4 786)">
<title>g</title>
<polygon fill="white" stroke="white" points="-4,5 -4,-786 1314,-786 1314,5 -4,5"/>
<g id="graph2" class="cluster"><title>clusterFiles</title>
</g>
<g id="graph3" class="cluster"><title>clusterUsers</title>
</g>
<!-- N20 -->
<g id="node2" class="node"><title>N20</title>
<polygon fill="#ffffff" stroke="#ffffff" stroke-width="1.5" points="762.5,-225 909.5,-225 921.5,-237 921.5,-269 909.5,-281 762.5,-281 750.5,-269 750.5,-237 762.5,-225"/>
<path fill="#ffffff" stroke="#ffffff" stroke-width="1.5" d="M909.5,-225C915.5,-225 921.5,-231 921.5,-237"/>
<path fill="#ffffff" stroke="#ffffff" stroke-width="1.5" d="M921.5,-269C921.5,-275 915.5,-281 909.5,-281"/>
<path fill="#ffffff" stroke="#ffffff" stroke-width="1.5" d="M762.5,-281C756.5,-281 750.5,-275 750.5,-269"/>
<path fill="#ffffff" stroke="#ffffff" stroke-width="1.5" d="M750.5,-237C750.5,-231 756.5,-225 762.5,-225"/>
<polyline fill="none" stroke="#2e3436" stroke-width="1.5" points="762.5,-225 909.5,-225 "/>
<path fill="none" stroke="#2e3436" stroke-width="1.5" d="M909.5,-225C915.5,-225 921.5,-231 921.5,-237"/>
<polyline fill="none" stroke="#2e3436" stroke-width="1.5" points="921.5,-237 921.5,-269 "/>
<path fill="none" stroke="#2e3436" stroke-width="1.5" d="M921.5,-269C921.5,-275 915.5,-281 909.5,-281"/>
<polyline fill="none" stroke="#2e3436" stroke-width="1.5" points="909.5,-281 762.5,-281 "/>
<path fill="none" stroke="#2e3436" stroke-width="1.5" d="M762.5,-281C756.5,-281 750.5,-275 750.5,-269"/>
<polyline fill="none" stroke="#2e3436" stroke-width="1.5" points="750.5,-269 750.5,-237 "/>
<path fill="none" stroke="#2e3436" stroke-width="1.5" d="M750.5,-237C750.5,-231 756.5,-225 762.5,-225"/>
<text text-anchor="middle" x="836" y="-262.6" font-family="FreeSans" font-size="16.00" fill="#1c2021">Node[20]</text>
<polyline fill="none" stroke="#2e3436" stroke-width="1.5" points="750.5,-253 921.5,-253 "/>
<text text-anchor="middle" x="836" y="-234.6" font-family="FreeSans" font-size="16.00" fill="#1c2021">&#39;name&#39; = &#39;HomeU1&#39;</text>
</g>
<!-- N17 -->
<g id="node4" class="node"><title>N17</title>
<polygon fill="#ffffff" stroke="#ffffff" stroke-width="1.5" points="767,-121 883,-121 895,-133 895,-165 883,-177 767,-177 755,-165 755,-133 767,-121"/>
<path fill="#ffffff" stroke="#ffffff" stroke-width="1.5" d="M883,-121C889,-121 895,-127 895,-133"/>
<path fill="#ffffff" stroke="#ffffff" stroke-width="1.5" d="M895,-165C895,-171 889,-177 883,-177"/>
<path fill="#ffffff" stroke="#ffffff" stroke-width="1.5" d="M767,-177C761,-177 755,-171 755,-165"/>
<path fill="#ffffff" stroke="#ffffff" stroke-width="1.5" d="M755,-133C755,-127 761,-121 767,-121"/>
<polyline fill="none" stroke="#2e3436" stroke-width="1.5" points="767,-121 883,-121 "/>
<path fill="none" stroke="#2e3436" stroke-width="1.5" d="M883,-121C889,-121 895,-127 895,-133"/>
<polyline fill="none" stroke="#2e3436" stroke-width="1.5" points="895,-133 895,-165 "/>
<path fill="none" stroke="#2e3436" stroke-width="1.5" d="M895,-165C895,-171 889,-177 883,-177"/>
<polyline fill="none" stroke="#2e3436" stroke-width="1.5" points="883,-177 767,-177 "/>
<path fill="none" stroke="#2e3436" stroke-width="1.5" d="M767,-177C761,-177 755,-171 755,-165"/>
<polyline fill="none" stroke="#2e3436" stroke-width="1.5" points="755,-165 755,-133 "/>
<path fill="none" stroke="#2e3436" stroke-width="1.5" d="M755,-133C755,-127 761,-121 767,-121"/>
<text text-anchor="middle" x="825" y="-158.6" font-family="FreeSans" font-size="16.00" fill="#1c2021">Node[17]</text>
<polyline fill="none" stroke="#2e3436" stroke-width="1.5" points="755,-149 895,-149 "/>
<text text-anchor="middle" x="825" y="-130.6" font-family="FreeSans" font-size="16.00" fill="#1c2021">&#39;name&#39; = &#39;File1&#39;</text>
</g>
<!-- N20&#45;&gt;N17 -->
<g id="edge3" class="edge"><title>N20&#45;&gt;N17</title>
<path fill="none" stroke="red" stroke-width="2" d="M833.023,-224.856C831.8,-213.295 830.365,-199.725 829.049,-187.283"/>
<polygon fill="red" stroke="red" points="827.979,-177.166 833.506,-186.638 829.002,-182.086 829.528,-187.058 829.031,-187.111 828.534,-187.164 828.008,-182.191 824.556,-187.584 827.979,-177.166 827.979,-177.166"/>
<text text-anchor="middle" x="839" y="-198.8" font-family="FreeSans" font-size="8.00" fill="#1c2021">leaf</text>
</g>
<!-- N23 -->
<g id="node5" class="node"><title>N23</title>
<polygon fill="#ffffff" stroke="#ffffff" stroke-width="1.5" points="942,-121 1086,-121 1098,-133 1098,-165 1086,-177 942,-177 930,-165 930,-133 942,-121"/>
<path fill="#ffffff" stroke="#ffffff" stroke-width="1.5" d="M1086,-121C1092,-121 1098,-127 1098,-133"/>
<path fill="#ffffff" stroke="#ffffff" stroke-width="1.5" d="M1098,-165C1098,-171 1092,-177 1086,-177"/>
<path fill="#ffffff" stroke="#ffffff" stroke-width="1.5" d="M942,-177C936,-177 930,-171 930,-165"/>
<path fill="#ffffff" stroke="#ffffff" stroke-width="1.5" d="M930,-133C930,-127 936,-121 942,-121"/>
<polyline fill="none" stroke="#2e3436" stroke-width="1.5" points="942,-121 1086,-121 "/>
<path fill="none" stroke="#2e3436" stroke-width="1.5" d="M1086,-121C1092,-121 1098,-127 1098,-133"/>
<polyline fill="none" stroke="#2e3436" stroke-width="1.5" points="1098,-133 1098,-165 "/>
<path fill="none" stroke="#2e3436" stroke-width="1.5" d="M1098,-165C1098,-171 1092,-177 1086,-177"/>
<polyline fill="none" stroke="#2e3436" stroke-width="1.5" points="1086,-177 942,-177 "/>
<path fill="none" stroke="#2e3436" stroke-width="1.5" d="M942,-177C936,-177 930,-171 930,-165"/>
<polyline fill="none" stroke="#2e3436" stroke-width="1.5" points="930,-165 930,-133 "/>
<path fill="none" stroke="#2e3436" stroke-width="1.5" d="M930,-133C930,-127 936,-121 942,-121"/>
<text text-anchor="middle" x="1014" y="-158.6" font-family="FreeSans" font-size="16.00" fill="#1c2021">Node[23]</text>
<polyline fill="none" stroke="#2e3436" stroke-width="1.5" points="930,-149 1098,-149 "/>
<text text-anchor="middle" x="1014" y="-130.6" font-family="FreeSans" font-size="16.00" fill="#1c2021">&#39;name&#39; = &#39;Desktop&#39;</text>
</g>
<!-- N16 -->
<g id="node7" class="node"><title>N16</title>
<polygon fill="#ffffff" stroke="#ffffff" stroke-width="1.5" points="811,-17 927,-17 939,-29 939,-61 927,-73 811,-73 799,-61 799,-29 811,-17"/>
<path fill="#ffffff" stroke="#ffffff" stroke-width="1.5" d="M927,-17C933,-17 939,-23 939,-29"/>
<path fill="#ffffff" stroke="#ffffff" stroke-width="1.5" d="M939,-61C939,-67 933,-73 927,-73"/>
<path fill="#ffffff" stroke="#ffffff" stroke-width="1.5" d="M811,-73C805,-73 799,-67 799,-61"/>
<path fill="#ffffff" stroke="#ffffff" stroke-width="1.5" d="M799,-29C799,-23 805,-17 811,-17"/>
<polyline fill="none" stroke="#2e3436" stroke-width="1.5" points="811,-17 927,-17 "/>
<path fill="none" stroke="#2e3436" stroke-width="1.5" d="M927,-17C933,-17 939,-23 939,-29"/>
<polyline fill="none" stroke="#2e3436" stroke-width="1.5" points="939,-29 939,-61 "/>
<path fill="none" stroke="#2e3436" stroke-width="1.5" d="M939,-61C939,-67 933,-73 927,-73"/>
<polyline fill="none" stroke="#2e3436" stroke-width="1.5" points="927,-73 811,-73 "/>
<path fill="none" stroke="#2e3436" stroke-width="1.5" d="M811,-73C805,-73 799,-67 799,-61"/>
<polyline fill="none" stroke="#2e3436" stroke-width="1.5" points="799,-61 799,-29 "/>
<path fill="none" stroke="#2e3436" stroke-width="1.5" d="M799,-29C799,-23 805,-17 811,-17"/>
<text text-anchor="middle" x="869" y="-54.6" font-family="FreeSans" font-size="16.00" fill="#1c2021">Node[16]</text>
<polyline fill="none" stroke="#2e3436" stroke-width="1.5" points="799,-45 939,-45 "/>
<text text-anchor="middle" x="869" y="-26.6" font-family="FreeSans" font-size="16.00" fill="#1c2021">&#39;name&#39; = &#39;File2&#39;</text>
</g>
<!-- N23&#45;&gt;N16 -->
<g id="edge5" class="edge"><title>N23&#45;&gt;N16</title>
<path fill="none" stroke="red" stroke-width="2" d="M974.761,-120.856C956.788,-107.965 935.334,-92.5772 916.46,-79.0403"/>
<polygon fill="red" stroke="red" points="908.27,-73.1664 919.019,-75.338 912.625,-75.6743 916.688,-78.5884 916.396,-78.9947 916.105,-79.401 912.042,-76.4868 913.774,-82.6514 908.27,-73.1664 908.27,-73.1664"/>
<text text-anchor="middle" x="953" y="-94.8" font-family="FreeSans" font-size="8.00" fill="#1c2021">leaf</text>
</g>
<!-- N10 -->
<g id="node8" class="node"><title>N10</title>
<polygon fill="#ffffff" stroke="#ffffff" stroke-width="1.5" points="776,-329 902,-329 914,-341 914,-373 902,-385 776,-385 764,-373 764,-341 776,-329"/>
<path fill="#ffffff" stroke="#ffffff" stroke-width="1.5" d="M902,-329C908,-329 914,-335 914,-341"/>
<path fill="#ffffff" stroke="#ffffff" stroke-width="1.5" d="M914,-373C914,-379 908,-385 902,-385"/>
<path fill="#ffffff" stroke="#ffffff" stroke-width="1.5" d="M776,-385C770,-385 764,-379 764,-373"/>
<path fill="#ffffff" stroke="#ffffff" stroke-width="1.5" d="M764,-341C764,-335 770,-329 776,-329"/>
<polyline fill="none" stroke="#2e3436" stroke-width="1.5" points="776,-329 902,-329 "/>
<path fill="none" stroke="#2e3436" stroke-width="1.5" d="M902,-329C908,-329 914,-335 914,-341"/>
<polyline fill="none" stroke="#2e3436" stroke-width="1.5" points="914,-341 914,-373 "/>
<path fill="none" stroke="#2e3436" stroke-width="1.5" d="M914,-373C914,-379 908,-385 902,-385"/>
<polyline fill="none" stroke="#2e3436" stroke-width="1.5" points="902,-385 776,-385 "/>
<path fill="none" stroke="#2e3436" stroke-width="1.5" d="M776,-385C770,-385 764,-379 764,-373"/>
<polyline fill="none" stroke="#2e3436" stroke-width="1.5" points="764,-373 764,-341 "/>
<path fill="none" stroke="#2e3436" stroke-width="1.5" d="M764,-341C764,-335 770,-329 776,-329"/>
<text text-anchor="middle" x="839" y="-366.6" font-family="FreeSans" font-size="16.00" fill="#1c2021">Node[10]</text>
<polyline fill="none" stroke="#2e3436" stroke-width="1.5" points="764,-357 914,-357 "/>
<text text-anchor="middle" x="839" y="-338.6" font-family="FreeSans" font-size="16.00" fill="#1c2021">&#39;name&#39; = &#39;Home&#39;</text>
</g>
<!-- N10&#45;&gt;N20 -->
<g id="edge7" class="edge"><title>N10&#45;&gt;N20</title>
<path fill="none" stroke="red" stroke-width="2" d="M838.188,-328.856C837.855,-317.295 837.463,-303.725 837.104,-291.283"/>
<polygon fill="red" stroke="red" points="836.812,-281.166 841.599,-291.032 837.457,-286.15 837.601,-291.148 837.101,-291.162 836.601,-291.177 836.457,-286.179 832.603,-291.292 836.812,-281.166 836.812,-281.166"/>
<text text-anchor="middle" x="856.5" y="-302.8" font-family="FreeSans" font-size="8.00" fill="#1c2021">contains</text>
</g>
<!-- N15 -->
<g id="node11" class="node"><title>N15</title>
<polygon fill="#ffffff" stroke="#ffffff" stroke-width="1.5" points="961.5,-225 1108.5,-225 1120.5,-237 1120.5,-269 1108.5,-281 961.5,-281 949.5,-269 949.5,-237 961.5,-225"/>
<path fill="#ffffff" stroke="#ffffff" stroke-width="1.5" d="M1108.5,-225C1114.5,-225 1120.5,-231 1120.5,-237"/>
<path fill="#ffffff" stroke="#ffffff" stroke-width="1.5" d="M1120.5,-269C1120.5,-275 1114.5,-281 1108.5,-281"/>
<path fill="#ffffff" stroke="#ffffff" stroke-width="1.5" d="M961.5,-281C955.5,-281 949.5,-275 949.5,-269"/>
<path fill="#ffffff" stroke="#ffffff" stroke-width="1.5" d="M949.5,-237C949.5,-231 955.5,-225 961.5,-225"/>
<polyline fill="none" stroke="#2e3436" stroke-width="1.5" points="961.5,-225 1108.5,-225 "/>
<path fill="none" stroke="#2e3436" stroke-width="1.5" d="M1108.5,-225C1114.5,-225 1120.5,-231 1120.5,-237"/>
<polyline fill="none" stroke="#2e3436" stroke-width="1.5" points="1120.5,-237 1120.5,-269 "/>
<path fill="none" stroke="#2e3436" stroke-width="1.5" d="M1120.5,-269C1120.5,-275 1114.5,-281 1108.5,-281"/>
<polyline fill="none" stroke="#2e3436" stroke-width="1.5" points="1108.5,-281 961.5,-281 "/>
<path fill="none" stroke="#2e3436" stroke-width="1.5" d="M961.5,-281C955.5,-281 949.5,-275 949.5,-269"/>
<polyline fill="none" stroke="#2e3436" stroke-width="1.5" points="949.5,-269 949.5,-237 "/>
<path fill="none" stroke="#2e3436" stroke-width="1.5" d="M949.5,-237C949.5,-231 955.5,-225 961.5,-225"/>
<text text-anchor="middle" x="1035" y="-262.6" font-family="FreeSans" font-size="16.00" fill="#1c2021">Node[15]</text>
<polyline fill="none" stroke="#2e3436" stroke-width="1.5" points="949.5,-253 1120.5,-253 "/>
<text text-anchor="middle" x="1035" y="-234.6" font-family="FreeSans" font-size="16.00" fill="#1c2021">&#39;name&#39; = &#39;HomeU2&#39;</text>
</g>
<!-- N10&#45;&gt;N15 -->
<g id="edge9" class="edge"><title>N10&#45;&gt;N15</title>
<path fill="none" stroke="red" stroke-width="2" d="M891.782,-328.993C916.834,-315.7 946.935,-299.728 973.063,-285.865"/>
<polygon fill="red" stroke="red" points="982.124,-281.057 975.399,-289.719 977.941,-283.842 973.524,-286.186 973.29,-285.744 973.056,-285.302 977.472,-282.959 971.181,-281.769 982.124,-281.057 982.124,-281.057"/>
<text text-anchor="middle" x="960.5" y="-302.8" font-family="FreeSans" font-size="8.00" fill="#1c2021">contains</text>
</g>
<!-- N15&#45;&gt;N23 -->
<g id="edge13" class="edge"><title>N15&#45;&gt;N23</title>
<path fill="none" stroke="red" stroke-width="2" d="M1029.32,-224.856C1026.98,-213.295 1024.24,-199.725 1021.73,-187.283"/>
<polygon fill="red" stroke="red" points="1019.69,-177.166 1026.08,-186.078 1021.17,-181.969 1022.16,-186.87 1021.67,-186.969 1021.18,-187.068 1020.19,-182.166 1017.26,-187.859 1019.69,-177.166 1019.69,-177.166"/>
<text text-anchor="middle" x="1043.5" y="-198.8" font-family="FreeSans" font-size="8.00" fill="#1c2021">contains</text>
</g>
<!-- N11 -->
<g id="node12" class="node"><title>N11</title>
<polygon fill="#ffffff" stroke="#ffffff" stroke-width="1.5" points="1161,-225 1281,-225 1293,-237 1293,-269 1281,-281 1161,-281 1149,-269 1149,-237 1161,-225"/>
<path fill="#ffffff" stroke="#ffffff" stroke-width="1.5" d="M1281,-225C1287,-225 1293,-231 1293,-237"/>
<path fill="#ffffff" stroke="#ffffff" stroke-width="1.5" d="M1293,-269C1293,-275 1287,-281 1281,-281"/>
<path fill="#ffffff" stroke="#ffffff" stroke-width="1.5" d="M1161,-281C1155,-281 1149,-275 1149,-269"/>
<path fill="#ffffff" stroke="#ffffff" stroke-width="1.5" d="M1149,-237C1149,-231 1155,-225 1161,-225"/>
<polyline fill="none" stroke="#2e3436" stroke-width="1.5" points="1161,-225 1281,-225 "/>
<path fill="none" stroke="#2e3436" stroke-width="1.5" d="M1281,-225C1287,-225 1293,-231 1293,-237"/>
<polyline fill="none" stroke="#2e3436" stroke-width="1.5" points="1293,-237 1293,-269 "/>
<path fill="none" stroke="#2e3436" stroke-width="1.5" d="M1293,-269C1293,-275 1287,-281 1281,-281"/>
<polyline fill="none" stroke="#2e3436" stroke-width="1.5" points="1281,-281 1161,-281 "/>
<path fill="none" stroke="#2e3436" stroke-width="1.5" d="M1161,-281C1155,-281 1149,-275 1149,-269"/>
<polyline fill="none" stroke="#2e3436" stroke-width="1.5" points="1149,-269 1149,-237 "/>
<path fill="none" stroke="#2e3436" stroke-width="1.5" d="M1149,-237C1149,-231 1155,-225 1161,-225"/>
<text text-anchor="middle" x="1221" y="-262.6" font-family="FreeSans" font-size="16.00" fill="#1c2021">Node[11]</text>
<polyline fill="none" stroke="#2e3436" stroke-width="1.5" points="1149,-253 1293,-253 "/>
<text text-anchor="middle" x="1221" y="-234.6" font-family="FreeSans" font-size="16.00" fill="#1c2021">&#39;name&#39; = &#39;init.d&#39;</text>
</g>
<!-- N12 -->
<g id="node13" class="node"><title>N12</title>
<polygon fill="#ffffff" stroke="#ffffff" stroke-width="1.5" points="1004,-329 1108,-329 1120,-341 1120,-373 1108,-385 1004,-385 992,-373 992,-341 1004,-329"/>
<path fill="#ffffff" stroke="#ffffff" stroke-width="1.5" d="M1108,-329C1114,-329 1120,-335 1120,-341"/>
<path fill="#ffffff" stroke="#ffffff" stroke-width="1.5" d="M1120,-373C1120,-379 1114,-385 1108,-385"/>
<path fill="#ffffff" stroke="#ffffff" stroke-width="1.5" d="M1004,-385C998,-385 992,-379 992,-373"/>
<path fill="#ffffff" stroke="#ffffff" stroke-width="1.5" d="M992,-341C992,-335 998,-329 1004,-329"/>
<polyline fill="none" stroke="#2e3436" stroke-width="1.5" points="1004,-329 1108,-329 "/>
<path fill="none" stroke="#2e3436" stroke-width="1.5" d="M1108,-329C1114,-329 1120,-335 1120,-341"/>
<polyline fill="none" stroke="#2e3436" stroke-width="1.5" points="1120,-341 1120,-373 "/>
<path fill="none" stroke="#2e3436" stroke-width="1.5" d="M1120,-373C1120,-379 1114,-385 1108,-385"/>
<polyline fill="none" stroke="#2e3436" stroke-width="1.5" points="1108,-385 1004,-385 "/>
<path fill="none" stroke="#2e3436" stroke-width="1.5" d="M1004,-385C998,-385 992,-379 992,-373"/>
<polyline fill="none" stroke="#2e3436" stroke-width="1.5" points="992,-373 992,-341 "/>
<path fill="none" stroke="#2e3436" stroke-width="1.5" d="M992,-341C992,-335 998,-329 1004,-329"/>
<text text-anchor="middle" x="1056" y="-366.6" font-family="FreeSans" font-size="16.00" fill="#1c2021">Node[12]</text>
<polyline fill="none" stroke="#2e3436" stroke-width="1.5" points="992,-357 1120,-357 "/>
<text text-anchor="middle" x="1056" y="-338.6" font-family="FreeSans" font-size="16.00" fill="#1c2021">&#39;name&#39; = &#39;etc&#39;</text>
</g>
<!-- N12&#45;&gt;N11 -->
<g id="edge11" class="edge"><title>N12&#45;&gt;N11</title>
<path fill="none" stroke="red" stroke-width="2" d="M1100.65,-328.856C1121.29,-315.85 1145.96,-300.301 1167.57,-286.677"/>
<polygon fill="red" stroke="red" points="1176.31,-281.166 1170.25,-290.306 1172.35,-284.256 1168.12,-286.922 1167.85,-286.499 1167.59,-286.076 1171.82,-283.41 1165.45,-282.692 1176.31,-281.166 1176.31,-281.166"/>
<text text-anchor="middle" x="1161.5" y="-302.8" font-family="FreeSans" font-size="8.00" fill="#1c2021">contains</text>
</g>
<!-- N18 -->
<g id="node16" class="node"><title>N18</title>
<polygon fill="#ffffff" stroke="#ffffff" stroke-width="1.5" points="768,-433 910,-433 922,-445 922,-477 910,-489 768,-489 756,-477 756,-445 768,-433"/>
<path fill="#ffffff" stroke="#ffffff" stroke-width="1.5" d="M910,-433C916,-433 922,-439 922,-445"/>
<path fill="#ffffff" stroke="#ffffff" stroke-width="1.5" d="M922,-477C922,-483 916,-489 910,-489"/>
<path fill="#ffffff" stroke="#ffffff" stroke-width="1.5" d="M768,-489C762,-489 756,-483 756,-477"/>
<path fill="#ffffff" stroke="#ffffff" stroke-width="1.5" d="M756,-445C756,-439 762,-433 768,-433"/>
<polyline fill="none" stroke="#2e3436" stroke-width="1.5" points="768,-433 910,-433 "/>
<path fill="none" stroke="#2e3436" stroke-width="1.5" d="M910,-433C916,-433 922,-439 922,-445"/>
<polyline fill="none" stroke="#2e3436" stroke-width="1.5" points="922,-445 922,-477 "/>
<path fill="none" stroke="#2e3436" stroke-width="1.5" d="M922,-477C922,-483 916,-489 910,-489"/>
<polyline fill="none" stroke="#2e3436" stroke-width="1.5" points="910,-489 768,-489 "/>
<path fill="none" stroke="#2e3436" stroke-width="1.5" d="M768,-489C762,-489 756,-483 756,-477"/>
<polyline fill="none" stroke="#2e3436" stroke-width="1.5" points="756,-477 756,-445 "/>
<path fill="none" stroke="#2e3436" stroke-width="1.5" d="M756,-445C756,-439 762,-433 768,-433"/>
<text text-anchor="middle" x="839" y="-470.6" font-family="FreeSans" font-size="16.00" fill="#1c2021">Node[18]</text>
<polyline fill="none" stroke="#2e3436" stroke-width="1.5" points="756,-461 922,-461 "/>
<text text-anchor="middle" x="839" y="-442.6" font-family="FreeSans" font-size="16.00" fill="#1c2021">&#39;name&#39; = &#39;FileRoot&#39;</text>
</g>
<!-- N18&#45;&gt;N10 -->
<g id="edge15" class="edge"><title>N18&#45;&gt;N10</title>
<path fill="none" stroke="red" stroke-width="2" d="M839,-432.856C839,-421.295 839,-407.725 839,-395.283"/>
<polygon fill="red" stroke="red" points="839,-385.166 843.5,-395.166 839.5,-390.166 839.5,-395.166 839,-395.166 838.5,-395.166 838.5,-390.166 834.5,-395.166 839,-385.166 839,-385.166"/>
<text text-anchor="middle" x="857.5" y="-406.8" font-family="FreeSans" font-size="8.00" fill="#1c2021">contains</text>
</g>
<!-- N18&#45;&gt;N12 -->
<g id="edge17" class="edge"><title>N18&#45;&gt;N12</title>
<path fill="none" stroke="red" stroke-width="2" d="M897.437,-432.993C925.416,-419.584 959.082,-403.449 988.183,-389.502"/>
<polygon fill="red" stroke="red" points="997.458,-385.057 990.385,-393.437 993.165,-387.669 988.656,-389.83 988.44,-389.379 988.224,-388.928 992.733,-386.767 986.495,-385.321 997.458,-385.057 997.458,-385.057"/>
<text text-anchor="middle" x="972.5" y="-406.8" font-family="FreeSans" font-size="8.00" fill="#1c2021">contains</text>
</g>
<!-- N7 -->
<g id="node20" class="node"><title>N7</title>
<polygon fill="#ffffff" stroke="#ffffff" stroke-width="1.5" points="209,-537 325,-537 337,-549 337,-581 325,-593 209,-593 197,-581 197,-549 209,-537"/>
<path fill="#ffffff" stroke="#ffffff" stroke-width="1.5" d="M325,-537C331,-537 337,-543 337,-549"/>
<path fill="#ffffff" stroke="#ffffff" stroke-width="1.5" d="M337,-581C337,-587 331,-593 325,-593"/>
<path fill="#ffffff" stroke="#ffffff" stroke-width="1.5" d="M209,-593C203,-593 197,-587 197,-581"/>
<path fill="#ffffff" stroke="#ffffff" stroke-width="1.5" d="M197,-549C197,-543 203,-537 209,-537"/>
<polyline fill="none" stroke="#2e3436" stroke-width="1.5" points="209,-537 325,-537 "/>
<path fill="none" stroke="#2e3436" stroke-width="1.5" d="M325,-537C331,-537 337,-543 337,-549"/>
<polyline fill="none" stroke="#2e3436" stroke-width="1.5" points="337,-549 337,-581 "/>
<path fill="none" stroke="#2e3436" stroke-width="1.5" d="M337,-581C337,-587 331,-593 325,-593"/>
<polyline fill="none" stroke="#2e3436" stroke-width="1.5" points="325,-593 209,-593 "/>
<path fill="none" stroke="#2e3436" stroke-width="1.5" d="M209,-593C203,-593 197,-587 197,-581"/>
<polyline fill="none" stroke="#2e3436" stroke-width="1.5" points="197,-581 197,-549 "/>
<path fill="none" stroke="#2e3436" stroke-width="1.5" d="M197,-549C197,-543 203,-537 209,-537"/>
<text text-anchor="middle" x="267" y="-574.6" font-family="FreeSans" font-size="16.00" fill="#1c2021">Node[7]</text>
<polyline fill="none" stroke="#2e3436" stroke-width="1.5" points="197,-565 337,-565 "/>
<text text-anchor="middle" x="267" y="-546.6" font-family="FreeSans" font-size="16.00" fill="#1c2021">&#39;name&#39; = &#39;User&#39;</text>
</g>
<!-- N14 -->
<g id="node22" class="node"><title>N14</title>
<polygon fill="#ffffff" stroke="#ffffff" stroke-width="1.5" points="204.5,-433 329.5,-433 341.5,-445 341.5,-477 329.5,-489 204.5,-489 192.5,-477 192.5,-445 204.5,-433"/>
<path fill="#ffffff" stroke="#ffffff" stroke-width="1.5" d="M329.5,-433C335.5,-433 341.5,-439 341.5,-445"/>
<path fill="#ffffff" stroke="#ffffff" stroke-width="1.5" d="M341.5,-477C341.5,-483 335.5,-489 329.5,-489"/>
<path fill="#ffffff" stroke="#ffffff" stroke-width="1.5" d="M204.5,-489C198.5,-489 192.5,-483 192.5,-477"/>
<path fill="#ffffff" stroke="#ffffff" stroke-width="1.5" d="M192.5,-445C192.5,-439 198.5,-433 204.5,-433"/>
<polyline fill="none" stroke="#2e3436" stroke-width="1.5" points="204.5,-433 329.5,-433 "/>
<path fill="none" stroke="#2e3436" stroke-width="1.5" d="M329.5,-433C335.5,-433 341.5,-439 341.5,-445"/>
<polyline fill="none" stroke="#2e3436" stroke-width="1.5" points="341.5,-445 341.5,-477 "/>
<path fill="none" stroke="#2e3436" stroke-width="1.5" d="M341.5,-477C341.5,-483 335.5,-489 329.5,-489"/>
<polyline fill="none" stroke="#2e3436" stroke-width="1.5" points="329.5,-489 204.5,-489 "/>
<path fill="none" stroke="#2e3436" stroke-width="1.5" d="M204.5,-489C198.5,-489 192.5,-483 192.5,-477"/>
<polyline fill="none" stroke="#2e3436" stroke-width="1.5" points="192.5,-477 192.5,-445 "/>
<path fill="none" stroke="#2e3436" stroke-width="1.5" d="M192.5,-445C192.5,-439 198.5,-433 204.5,-433"/>
<text text-anchor="middle" x="267" y="-470.6" font-family="FreeSans" font-size="16.00" fill="#1c2021">Node[14]</text>
<polyline fill="none" stroke="#2e3436" stroke-width="1.5" points="192.5,-461 341.5,-461 "/>
<text text-anchor="middle" x="267" y="-442.6" font-family="FreeSans" font-size="16.00" fill="#1c2021">&#39;name&#39; = &#39;User1&#39;</text>
</g>
<!-- N7&#45;&gt;N14 -->
<g id="edge20" class="edge"><title>N7&#45;&gt;N14</title>
<path fill="none" stroke="#2e3436" stroke-width="2" d="M267,-536.856C267,-524.486 267,-509.815 267,-496.688"/>
<polygon fill="#2e3436" stroke="#2e3436" points="267,-489.166 270.375,-496.666 267.5,-492.916 267.5,-496.666 267,-496.666 266.5,-496.666 266.5,-492.916 263.625,-496.666 267,-489.166 267,-489.166"/>
<text text-anchor="middle" x="285.5" y="-510.8" font-family="FreeSans" font-size="8.00" fill="#1c2021">member</text>
</g>
<!-- N13 -->
<g id="node24" class="node"><title>N13</title>
<polygon fill="#ffffff" stroke="#ffffff" stroke-width="1.5" points="27.5,-433 152.5,-433 164.5,-445 164.5,-477 152.5,-489 27.5,-489 15.5,-477 15.5,-445 27.5,-433"/>
<path fill="#ffffff" stroke="#ffffff" stroke-width="1.5" d="M152.5,-433C158.5,-433 164.5,-439 164.5,-445"/>
<path fill="#ffffff" stroke="#ffffff" stroke-width="1.5" d="M164.5,-477C164.5,-483 158.5,-489 152.5,-489"/>
<path fill="#ffffff" stroke="#ffffff" stroke-width="1.5" d="M27.5,-489C21.5,-489 15.5,-483 15.5,-477"/>
<path fill="#ffffff" stroke="#ffffff" stroke-width="1.5" d="M15.5,-445C15.5,-439 21.5,-433 27.5,-433"/>
<polyline fill="none" stroke="#2e3436" stroke-width="1.5" points="27.5,-433 152.5,-433 "/>
<path fill="none" stroke="#2e3436" stroke-width="1.5" d="M152.5,-433C158.5,-433 164.5,-439 164.5,-445"/>
<polyline fill="none" stroke="#2e3436" stroke-width="1.5" points="164.5,-445 164.5,-477 "/>
<path fill="none" stroke="#2e3436" stroke-width="1.5" d="M164.5,-477C164.5,-483 158.5,-489 152.5,-489"/>
<polyline fill="none" stroke="#2e3436" stroke-width="1.5" points="152.5,-489 27.5,-489 "/>
<path fill="none" stroke="#2e3436" stroke-width="1.5" d="M27.5,-489C21.5,-489 15.5,-483 15.5,-477"/>
<polyline fill="none" stroke="#2e3436" stroke-width="1.5" points="15.5,-477 15.5,-445 "/>
<path fill="none" stroke="#2e3436" stroke-width="1.5" d="M15.5,-445C15.5,-439 21.5,-433 27.5,-433"/>
<text text-anchor="middle" x="90" y="-470.6" font-family="FreeSans" font-size="16.00" fill="#1c2021">Node[13]</text>
<polyline fill="none" stroke="#2e3436" stroke-width="1.5" points="15.5,-461 164.5,-461 "/>
<text text-anchor="middle" x="90" y="-442.6" font-family="FreeSans" font-size="16.00" fill="#1c2021">&#39;name&#39; = &#39;User2&#39;</text>
</g>
<!-- N7&#45;&gt;N13 -->
<g id="edge22" class="edge"><title>N7&#45;&gt;N13</title>
<path fill="none" stroke="#2e3436" stroke-width="2" d="M219.101,-536.856C196.08,-523.329 168.379,-507.053 144.549,-493.051"/>
<polygon fill="#2e3436" stroke="#2e3436" points="137.937,-489.166 146.113,-490.056 141.424,-490.635 144.657,-492.535 144.403,-492.966 144.15,-493.397 140.917,-491.497 142.694,-495.876 137.937,-489.166 137.937,-489.166"/>
<text text-anchor="middle" x="202.5" y="-510.8" font-family="FreeSans" font-size="8.00" fill="#1c2021">member</text>
</g>
<!-- N14&#45;&gt;N17 -->
<g id="edge26" class="edge"><title>N14&#45;&gt;N17</title>
<path fill="none" stroke="#2e3436" stroke-width="2" d="M317.503,-432.762C421.43,-374.652 658.619,-242.03 767.917,-180.917"/>
<polygon fill="#2e3436" stroke="#2e3436" points="774.612,-177.174 769.713,-183.78 771.583,-179.441 768.31,-181.271 768.066,-180.834 767.822,-180.398 771.095,-178.568 766.419,-177.889 774.612,-177.174 774.612,-177.174"/>
<text text-anchor="middle" x="564.5" y="-302.8" font-family="FreeSans" font-size="8.00" fill="#1c2021">owns</text>
</g>
<!-- N13&#45;&gt;N16 -->
<g id="edge24" class="edge"><title>N13&#45;&gt;N16</title>
<path fill="none" stroke="#2e3436" stroke-width="2" d="M156.636,-432.922C202.43,-411.446 255,-381.465 255,-357 255,-357 255,-357 255,-149 255,-95.2215 625.894,-62.2154 791.154,-50.178"/>
<polygon fill="#2e3436" stroke="#2e3436" points="798.866,-49.6207 791.628,-53.5276 795.161,-50.3897 791.421,-50.6601 791.385,-50.1614 791.349,-49.6627 795.089,-49.3923 791.142,-46.7952 798.866,-49.6207 798.866,-49.6207"/>
<text text-anchor="middle" x="266.5" y="-250.8" font-family="FreeSans" font-size="8.00" fill="#1c2021">owns</text>
</g>
<!-- N8 -->
<g id="node25" class="node"><title>N8</title>
<polygon fill="#ffffff" stroke="#ffffff" stroke-width="1.5" points="382,-433 522,-433 534,-445 534,-477 522,-489 382,-489 370,-477 370,-445 382,-433"/>
<path fill="#ffffff" stroke="#ffffff" stroke-width="1.5" d="M522,-433C528,-433 534,-439 534,-445"/>
<path fill="#ffffff" stroke="#ffffff" stroke-width="1.5" d="M534,-477C534,-483 528,-489 522,-489"/>
<path fill="#ffffff" stroke="#ffffff" stroke-width="1.5" d="M382,-489C376,-489 370,-483 370,-477"/>
<path fill="#ffffff" stroke="#ffffff" stroke-width="1.5" d="M370,-445C370,-439 376,-433 382,-433"/>
<polyline fill="none" stroke="#2e3436" stroke-width="1.5" points="382,-433 522,-433 "/>
<path fill="none" stroke="#2e3436" stroke-width="1.5" d="M522,-433C528,-433 534,-439 534,-445"/>
<polyline fill="none" stroke="#2e3436" stroke-width="1.5" points="534,-445 534,-477 "/>
<path fill="none" stroke="#2e3436" stroke-width="1.5" d="M534,-477C534,-483 528,-489 522,-489"/>
<polyline fill="none" stroke="#2e3436" stroke-width="1.5" points="522,-489 382,-489 "/>
<path fill="none" stroke="#2e3436" stroke-width="1.5" d="M382,-489C376,-489 370,-483 370,-477"/>
<polyline fill="none" stroke="#2e3436" stroke-width="1.5" points="370,-477 370,-445 "/>
<path fill="none" stroke="#2e3436" stroke-width="1.5" d="M370,-445C370,-439 376,-433 382,-433"/>
<text text-anchor="middle" x="452" y="-470.6" font-family="FreeSans" font-size="16.00" fill="#1c2021">Node[8]</text>
<polyline fill="none" stroke="#2e3436" stroke-width="1.5" points="370,-461 534,-461 "/>
<text text-anchor="middle" x="452" y="-442.6" font-family="FreeSans" font-size="16.00" fill="#1c2021">&#39;name&#39; = &#39;Admin2&#39;</text>
</g>
<!-- N9 -->
<g id="node26" class="node"><title>N9</title>
<polygon fill="#ffffff" stroke="#ffffff" stroke-width="1.5" points="575,-433 715,-433 727,-445 727,-477 715,-489 575,-489 563,-477 563,-445 575,-433"/>
<path fill="#ffffff" stroke="#ffffff" stroke-width="1.5" d="M715,-433C721,-433 727,-439 727,-445"/>
<path fill="#ffffff" stroke="#ffffff" stroke-width="1.5" d="M727,-477C727,-483 721,-489 715,-489"/>
<path fill="#ffffff" stroke="#ffffff" stroke-width="1.5" d="M575,-489C569,-489 563,-483 563,-477"/>
<path fill="#ffffff" stroke="#ffffff" stroke-width="1.5" d="M563,-445C563,-439 569,-433 575,-433"/>
<polyline fill="none" stroke="#2e3436" stroke-width="1.5" points="575,-433 715,-433 "/>
<path fill="none" stroke="#2e3436" stroke-width="1.5" d="M715,-433C721,-433 727,-439 727,-445"/>
<polyline fill="none" stroke="#2e3436" stroke-width="1.5" points="727,-445 727,-477 "/>
<path fill="none" stroke="#2e3436" stroke-width="1.5" d="M727,-477C727,-483 721,-489 715,-489"/>
<polyline fill="none" stroke="#2e3436" stroke-width="1.5" points="715,-489 575,-489 "/>
<path fill="none" stroke="#2e3436" stroke-width="1.5" d="M575,-489C569,-489 563,-483 563,-477"/>
<polyline fill="none" stroke="#2e3436" stroke-width="1.5" points="563,-477 563,-445 "/>
<path fill="none" stroke="#2e3436" stroke-width="1.5" d="M563,-445C563,-439 569,-433 575,-433"/>
<text text-anchor="middle" x="645" y="-470.6" font-family="FreeSans" font-size="16.00" fill="#1c2021">Node[9]</text>
<polyline fill="none" stroke="#2e3436" stroke-width="1.5" points="563,-461 727,-461 "/>
<text text-anchor="middle" x="645" y="-442.6" font-family="FreeSans" font-size="16.00" fill="#1c2021">&#39;name&#39; = &#39;Admin1&#39;</text>
</g>
<!-- N21 -->
<g id="node29" class="node"><title>N21</title>
<polygon fill="#ffffff" stroke="#ffffff" stroke-width="1.5" points="583,-641 697,-641 709,-653 709,-685 697,-697 583,-697 571,-685 571,-653 583,-641"/>
<path fill="#ffffff" stroke="#ffffff" stroke-width="1.5" d="M697,-641C703,-641 709,-647 709,-653"/>
<path fill="#ffffff" stroke="#ffffff" stroke-width="1.5" d="M709,-685C709,-691 703,-697 697,-697"/>
<path fill="#ffffff" stroke="#ffffff" stroke-width="1.5" d="M583,-697C577,-697 571,-691 571,-685"/>
<path fill="#ffffff" stroke="#ffffff" stroke-width="1.5" d="M571,-653C571,-647 577,-641 583,-641"/>
<polyline fill="none" stroke="#2e3436" stroke-width="1.5" points="583,-641 697,-641 "/>
<path fill="none" stroke="#2e3436" stroke-width="1.5" d="M697,-641C703,-641 709,-647 709,-653"/>
<polyline fill="none" stroke="#2e3436" stroke-width="1.5" points="709,-653 709,-685 "/>
<path fill="none" stroke="#2e3436" stroke-width="1.5" d="M709,-685C709,-691 703,-697 697,-697"/>
<polyline fill="none" stroke="#2e3436" stroke-width="1.5" points="697,-697 583,-697 "/>
<path fill="none" stroke="#2e3436" stroke-width="1.5" d="M583,-697C577,-697 571,-691 571,-685"/>
<polyline fill="none" stroke="#2e3436" stroke-width="1.5" points="571,-685 571,-653 "/>
<path fill="none" stroke="#2e3436" stroke-width="1.5" d="M571,-653C571,-647 577,-641 583,-641"/>
<text text-anchor="middle" x="640" y="-678.6" font-family="FreeSans" font-size="16.00" fill="#1c2021">Node[21]</text>
<polyline fill="none" stroke="#2e3436" stroke-width="1.5" points="571,-669 709,-669 "/>
<text text-anchor="middle" x="640" y="-650.6" font-family="FreeSans" font-size="16.00" fill="#1c2021">&#39;name&#39; = &#39;Role&#39;</text>
</g>
<!-- N21&#45;&gt;N7 -->
<g id="edge30" class="edge"><title>N21&#45;&gt;N7</title>
<path fill="none" stroke="#2e3436" stroke-width="2" d="M570.716,-649.682C506.611,-631.808 411.435,-605.271 344.758,-586.68"/>
<polygon fill="#2e3436" stroke="#2e3436" points="337.179,-584.567 345.31,-583.331 340.925,-585.093 344.538,-586.1 344.403,-586.582 344.269,-587.063 340.657,-586.056 343.497,-589.833 337.179,-584.567 337.179,-584.567"/>
<text text-anchor="middle" x="482" y="-614.8" font-family="FreeSans" font-size="8.00" fill="#1c2021">subRole</text>
</g>
<!-- N22 -->
<g id="node31" class="node"><title>N22</title>
<polygon fill="#ffffff" stroke="#ffffff" stroke-width="1.5" points="565,-537 715,-537 727,-549 727,-581 715,-593 565,-593 553,-581 553,-549 565,-537"/>
<path fill="#ffffff" stroke="#ffffff" stroke-width="1.5" d="M715,-537C721,-537 727,-543 727,-549"/>
<path fill="#ffffff" stroke="#ffffff" stroke-width="1.5" d="M727,-581C727,-587 721,-593 715,-593"/>
<path fill="#ffffff" stroke="#ffffff" stroke-width="1.5" d="M565,-593C559,-593 553,-587 553,-581"/>
<path fill="#ffffff" stroke="#ffffff" stroke-width="1.5" d="M553,-549C553,-543 559,-537 565,-537"/>
<polyline fill="none" stroke="#2e3436" stroke-width="1.5" points="565,-537 715,-537 "/>
<path fill="none" stroke="#2e3436" stroke-width="1.5" d="M715,-537C721,-537 727,-543 727,-549"/>
<polyline fill="none" stroke="#2e3436" stroke-width="1.5" points="727,-549 727,-581 "/>
<path fill="none" stroke="#2e3436" stroke-width="1.5" d="M727,-581C727,-587 721,-593 715,-593"/>
<polyline fill="none" stroke="#2e3436" stroke-width="1.5" points="715,-593 565,-593 "/>
<path fill="none" stroke="#2e3436" stroke-width="1.5" d="M565,-593C559,-593 553,-587 553,-581"/>
<polyline fill="none" stroke="#2e3436" stroke-width="1.5" points="553,-581 553,-549 "/>
<path fill="none" stroke="#2e3436" stroke-width="1.5" d="M553,-549C553,-543 559,-537 565,-537"/>
<text text-anchor="middle" x="640" y="-574.6" font-family="FreeSans" font-size="16.00" fill="#1c2021">Node[22]</text>
<polyline fill="none" stroke="#2e3436" stroke-width="1.5" points="553,-565 727,-565 "/>
<text text-anchor="middle" x="640" y="-546.6" font-family="FreeSans" font-size="16.00" fill="#1c2021">&#39;name&#39; = &#39;SUDOers&#39;</text>
</g>
<!-- N21&#45;&gt;N22 -->
<g id="edge28" class="edge"><title>N21&#45;&gt;N22</title>
<path fill="none" stroke="#2e3436" stroke-width="2" d="M620.36,-640.91C616.193,-631.886 613.665,-621.709 616,-612 616.951,-608.047 618.293,-604.052 619.863,-600.149"/>
<polygon fill="#2e3436" stroke="#2e3436" points="622.898,-593.251 622.967,-601.475 621.845,-596.885 620.335,-600.317 619.877,-600.116 619.42,-599.915 620.93,-596.482 616.788,-598.757 622.898,-593.251 622.898,-593.251"/>
<text text-anchor="middle" x="633" y="-614.8" font-family="FreeSans" font-size="8.00" fill="#1c2021">subRole</text>
</g>
<!-- N22&#45;&gt;N18 -->
<g id="edge36" class="edge"><title>N22&#45;&gt;N18</title>
<path fill="none" stroke="#2e3436" stroke-width="2" d="M665.855,-536.905C676.741,-526.511 690.102,-515.457 704,-508 719.389,-499.743 725.373,-503.342 742,-498 748.105,-496.039 754.387,-493.908 760.678,-491.692"/>
<polygon fill="#2e3436" stroke="#2e3436" points="768.058,-489.058 762.129,-494.758 764.694,-490.789 761.163,-492.05 760.995,-491.579 760.826,-491.108 764.358,-489.848 759.86,-488.401 768.058,-489.058 768.058,-489.058"/>
<text text-anchor="middle" x="722.5" y="-510.8" font-family="FreeSans" font-size="8.00" fill="#1c2021">canRead</text>
</g>
<!-- N22&#45;&gt;N8 -->
<g id="edge34" class="edge"><title>N22&#45;&gt;N8</title>
<path fill="none" stroke="#2e3436" stroke-width="2" d="M589.124,-536.856C564.568,-523.272 534.998,-506.914 509.614,-492.872"/>
<polygon fill="#2e3436" stroke="#2e3436" points="502.916,-489.166 511.113,-489.844 506.44,-490.544 509.721,-492.359 509.479,-492.797 509.237,-493.234 505.956,-491.419 507.845,-495.75 502.916,-489.166 502.916,-489.166"/>
<text text-anchor="middle" x="570.5" y="-510.8" font-family="FreeSans" font-size="8.00" fill="#1c2021">member</text>
</g>
<!-- N22&#45;&gt;N9 -->
<g id="edge32" class="edge"><title>N22&#45;&gt;N9</title>
<path fill="none" stroke="#2e3436" stroke-width="2" d="M641.353,-536.856C641.948,-524.486 642.653,-509.815 643.284,-496.688"/>
<polygon fill="#2e3436" stroke="#2e3436" points="643.646,-489.166 646.657,-496.82 643.965,-492.936 643.785,-496.682 643.286,-496.658 642.786,-496.634 642.966,-492.888 639.914,-496.496 643.646,-489.166 643.646,-489.166"/>
<text text-anchor="middle" x="661.5" y="-510.8" font-family="FreeSans" font-size="8.00" fill="#1c2021">member</text>
</g>
<!-- N19 -->
<g id="node36" class="node"><title>N19</title>
<polygon fill="#ffffff" stroke="#ffffff" stroke-width="1.5" points="726.5,-745 783.5,-745 795.5,-757 795.5,-769 783.5,-781 726.5,-781 714.5,-769 714.5,-757 726.5,-745"/>
<path fill="#ffffff" stroke="#ffffff" stroke-width="1.5" d="M783.5,-745C789.5,-745 795.5,-751 795.5,-757"/>
<path fill="#ffffff" stroke="#ffffff" stroke-width="1.5" d="M795.5,-769C795.5,-775 789.5,-781 783.5,-781"/>
<path fill="#ffffff" stroke="#ffffff" stroke-width="1.5" d="M726.5,-781C720.5,-781 714.5,-775 714.5,-769"/>
<path fill="#ffffff" stroke="#ffffff" stroke-width="1.5" d="M714.5,-757C714.5,-751 720.5,-745 726.5,-745"/>
<polyline fill="none" stroke="#2e3436" stroke-width="1.5" points="726.5,-745 783.5,-745 "/>
<path fill="none" stroke="#2e3436" stroke-width="1.5" d="M783.5,-745C789.5,-745 795.5,-751 795.5,-757"/>
<polyline fill="none" stroke="#2e3436" stroke-width="1.5" points="795.5,-757 795.5,-769 "/>
<path fill="none" stroke="#2e3436" stroke-width="1.5" d="M795.5,-769C795.5,-775 789.5,-781 783.5,-781"/>
<polyline fill="none" stroke="#2e3436" stroke-width="1.5" points="783.5,-781 726.5,-781 "/>
<path fill="none" stroke="#2e3436" stroke-width="1.5" d="M726.5,-781C720.5,-781 714.5,-775 714.5,-769"/>
<polyline fill="none" stroke="#2e3436" stroke-width="1.5" points="714.5,-769 714.5,-757 "/>
<path fill="none" stroke="#2e3436" stroke-width="1.5" d="M714.5,-757C714.5,-751 720.5,-745 726.5,-745"/>
<text text-anchor="middle" x="755" y="-769.8" font-family="FreeSans" font-size="8.00" fill="#1c2021">Node[19]</text>
<polyline fill="none" stroke="#2e3436" stroke-width="1.5" points="714.5,-763 795.5,-763 "/>
<text text-anchor="middle" x="755" y="-751.8" font-family="FreeSans" font-size="8.00" fill="#1c2021">&#39;name&#39; = &#39;Root&#39;</text>
</g>
<!-- N19&#45;&gt;N18 -->
<g id="edge40" class="edge"><title>N19&#45;&gt;N18</title>
<path fill="none" stroke="#2e3436" stroke-width="2" d="M760.128,-744.563C773.751,-695.585 811.031,-561.556 829.024,-496.868"/>
<polygon fill="#2e3436" stroke="#2e3436" points="831.119,-489.333 832.361,-497.463 830.596,-493.08 829.591,-496.693 829.109,-496.559 828.628,-496.425 829.633,-492.812 825.858,-495.654 831.119,-489.333 831.119,-489.333"/>
<text text-anchor="middle" x="805" y="-614.8" font-family="FreeSans" font-size="8.00" fill="#1c2021">has</text>
</g>
<!-- N19&#45;&gt;N21 -->
<g id="edge38" class="edge"><title>N19&#45;&gt;N21</title>
<path fill="none" stroke="#2e3436" stroke-width="2" d="M732.827,-744.876C717.932,-732.701 697.874,-716.306 680.215,-701.871"/>
<polygon fill="#2e3436" stroke="#2e3436" points="674.329,-697.06 682.271,-699.193 677.548,-699.046 680.452,-701.419 680.136,-701.806 679.819,-702.194 676.916,-699.82 678,-704.42 674.329,-697.06 674.329,-697.06"/>
<text text-anchor="middle" x="716" y="-718.8" font-family="FreeSans" font-size="8.00" fill="#1c2021">has</text>
</g>
</g>
</svg>
