<?xml version="1.0" encoding="UTF-8" standalone="no"?>
<!DOCTYPE svg PUBLIC "-//W3C//DTD SVG 1.1//EN"
 "http://www.w3.org/Graphics/SVG/1.1/DTD/svg11.dtd">
<!-- Generated by graphviz version 2.26.3 (20100126.1600)
 -->
<!-- Title: g Pages: 1 -->
<svg width="200pt" height="410pt"
 viewBox="0.00 0.00 200.00 410.00" xmlns="http://www.w3.org/2000/svg" xmlns:xlink="http://www.w3.org/1999/xlink">
<g id="graph1" class="graph" transform="scale(1 1) rotate(0) translate(4 406)">
<title>g</title>
<polygon fill="white" stroke="white" points="-4,5 -4,-406 197,-406 197,5 -4,5"/>
<!-- N1 -->
<g id="node1" class="node"><title>N1</title>
<polygon fill="#ffffff" stroke="#ffffff" stroke-width="1.5" points="92.5,-281 145.5,-281 157.5,-293 157.5,-305 145.5,-317 92.5,-317 80.5,-305 80.5,-293 92.5,-281"/>
<path fill="#ffffff" stroke="#ffffff" stroke-width="1.5" d="M145.5,-281C151.5,-281 157.5,-287 157.5,-293"/>
<path fill="#ffffff" stroke="#ffffff" stroke-width="1.5" d="M157.5,-305C157.5,-311 151.5,-317 145.5,-317"/>
<path fill="#ffffff" stroke="#ffffff" stroke-width="1.5" d="M92.5,-317C86.5,-317 80.5,-311 80.5,-305"/>
<path fill="#ffffff" stroke="#ffffff" stroke-width="1.5" d="M80.5,-293C80.5,-287 86.5,-281 92.5,-281"/>
<polyline fill="none" stroke="#2e3436" stroke-width="1.5" points="92.5,-281 145.5,-281 "/>
<path fill="none" stroke="#2e3436" stroke-width="1.5" d="M145.5,-281C151.5,-281 157.5,-287 157.5,-293"/>
<polyline fill="none" stroke="#2e3436" stroke-width="1.5" points="157.5,-293 157.5,-305 "/>
<path fill="none" stroke="#2e3436" stroke-width="1.5" d="M157.5,-305C157.5,-311 151.5,-317 145.5,-317"/>
<polyline fill="none" stroke="#2e3436" stroke-width="1.5" points="145.5,-317 92.5,-317 "/>
<path fill="none" stroke="#2e3436" stroke-width="1.5" d="M92.5,-317C86.5,-317 80.5,-311 80.5,-305"/>
<polyline fill="none" stroke="#2e3436" stroke-width="1.5" points="80.5,-305 80.5,-293 "/>
<path fill="none" stroke="#2e3436" stroke-width="1.5" d="M80.5,-293C80.5,-287 86.5,-281 92.5,-281"/>
<text text-anchor="middle" x="119" y="-305.8" font-family="FreeSans" font-size="8.00" fill="#1c2021">Node[1]</text>
<polyline fill="none" stroke="#2e3436" stroke-width="1.5" points="80.5,-299 157.5,-299 "/>
<text text-anchor="start" x="88.5" y="-287.8" font-family="FreeSans" font-size="8.00" fill="#1c2021">name = &#39;Lars&#39;</text>
</g>
<!-- N6 -->
<g id="node3" class="node"><title>N6</title>
<polygon fill="#ffffff" stroke="#ffffff" stroke-width="1.5" points="94,-169 144,-169 156,-181 156,-193 144,-205 94,-205 82,-193 82,-181 94,-169"/>
<path fill="#ffffff" stroke="#ffffff" stroke-width="1.5" d="M144,-169C150,-169 156,-175 156,-181"/>
<path fill="#ffffff" stroke="#ffffff" stroke-width="1.5" d="M156,-193C156,-199 150,-205 144,-205"/>
<path fill="#ffffff" stroke="#ffffff" stroke-width="1.5" d="M94,-205C88,-205 82,-199 82,-193"/>
<path fill="#ffffff" stroke="#ffffff" stroke-width="1.5" d="M82,-181C82,-175 88,-169 94,-169"/>
<polyline fill="none" stroke="#2e3436" stroke-width="1.5" points="94,-169 144,-169 "/>
<path fill="none" stroke="#2e3436" stroke-width="1.5" d="M144,-169C150,-169 156,-175 156,-181"/>
<polyline fill="none" stroke="#2e3436" stroke-width="1.5" points="156,-181 156,-193 "/>
<path fill="none" stroke="#2e3436" stroke-width="1.5" d="M156,-193C156,-199 150,-205 144,-205"/>
<polyline fill="none" stroke="#2e3436" stroke-width="1.5" points="144,-205 94,-205 "/>
<path fill="none" stroke="#2e3436" stroke-width="1.5" d="M94,-205C88,-205 82,-199 82,-193"/>
<polyline fill="none" stroke="#2e3436" stroke-width="1.5" points="82,-193 82,-181 "/>
<path fill="none" stroke="#2e3436" stroke-width="1.5" d="M82,-181C82,-175 88,-169 94,-169"/>
<text text-anchor="middle" x="119" y="-193.8" font-family="FreeSans" font-size="8.00" fill="#1c2021">Node[6]</text>
<polyline fill="none" stroke="#2e3436" stroke-width="1.5" points="82,-187 156,-187 "/>
<text text-anchor="start" x="90" y="-175.8" font-family="FreeSans" font-size="8.00" fill="#1c2021">name = &#39;Dirk&#39;</text>
</g>
<!-- N1&#45;&gt;N6 -->
<g id="edge2" class="edge"><title>N1&#45;&gt;N6</title>
<path fill="none" stroke="#2e3436" stroke-width="2" d="M119,-280.505C119,-261.994 119,-233.364 119,-212.66"/>
<polygon fill="#2e3436" stroke="#2e3436" points="119,-205.15 122.375,-212.65 119.5,-208.9 119.5,-212.65 119,-212.65 118.5,-212.65 118.5,-208.9 115.625,-212.65 119,-205.15 119,-205.15"/>
<text text-anchor="middle" x="134.5" y="-240.8" font-family="FreeSans" font-size="8.00" fill="#2e3436">KNOWS</text>
</g>
<!-- N5 -->
<g id="node11" class="node"><title>N5</title>
<polygon fill="#ffffff" stroke="#ffffff" stroke-width="1.5" points="91,-85 147,-85 159,-97 159,-109 147,-121 91,-121 79,-109 79,-97 91,-85"/>
<path fill="#ffffff" stroke="#ffffff" stroke-width="1.5" d="M147,-85C153,-85 159,-91 159,-97"/>
<path fill="#ffffff" stroke="#ffffff" stroke-width="1.5" d="M159,-109C159,-115 153,-121 147,-121"/>
<path fill="#ffffff" stroke="#ffffff" stroke-width="1.5" d="M91,-121C85,-121 79,-115 79,-109"/>
<path fill="#ffffff" stroke="#ffffff" stroke-width="1.5" d="M79,-97C79,-91 85,-85 91,-85"/>
<polyline fill="none" stroke="#2e3436" stroke-width="1.5" points="91,-85 147,-85 "/>
<path fill="none" stroke="#2e3436" stroke-width="1.5" d="M147,-85C153,-85 159,-91 159,-97"/>
<polyline fill="none" stroke="#2e3436" stroke-width="1.5" points="159,-97 159,-109 "/>
<path fill="none" stroke="#2e3436" stroke-width="1.5" d="M159,-109C159,-115 153,-121 147,-121"/>
<polyline fill="none" stroke="#2e3436" stroke-width="1.5" points="147,-121 91,-121 "/>
<path fill="none" stroke="#2e3436" stroke-width="1.5" d="M91,-121C85,-121 79,-115 79,-109"/>
<polyline fill="none" stroke="#2e3436" stroke-width="1.5" points="79,-109 79,-97 "/>
<path fill="none" stroke="#2e3436" stroke-width="1.5" d="M79,-97C79,-91 85,-85 91,-85"/>
<text text-anchor="middle" x="119" y="-109.8" font-family="FreeSans" font-size="8.00" fill="#1c2021">Node[5]</text>
<polyline fill="none" stroke="#2e3436" stroke-width="1.5" points="79,-103 159,-103 "/>
<text text-anchor="start" x="87" y="-91.8" font-family="FreeSans" font-size="8.00" fill="#1c2021">name = &#39;Peter&#39;</text>
</g>
<!-- N6&#45;&gt;N5 -->
<g id="edge12" class="edge"><title>N6&#45;&gt;N5</title>
<path fill="none" stroke="#2e3436" stroke-width="2" d="M119,-168.773C119,-157.105 119,-141.787 119,-128.87"/>
<polygon fill="#2e3436" stroke="#2e3436" points="119,-121.191 122.375,-128.691 119.5,-124.941 119.5,-128.691 119,-128.691 118.5,-128.691 118.5,-124.941 115.625,-128.691 119,-121.191 119,-121.191"/>
<text text-anchor="middle" x="134.5" y="-142.8" font-family="FreeSans" font-size="8.00" fill="#2e3436">KNOWS</text>
</g>
<!-- N2 -->
<g id="node4" class="node"><title>N2</title>
<polygon fill="#ffffff" stroke="#ffffff" stroke-width="1.5" points="41,-1 95,-1 107,-13 107,-25 95,-37 41,-37 29,-25 29,-13 41,-1"/>
<path fill="#ffffff" stroke="#ffffff" stroke-width="1.5" d="M95,-1C101,-1 107,-7 107,-13"/>
<path fill="#ffffff" stroke="#ffffff" stroke-width="1.5" d="M107,-25C107,-31 101,-37 95,-37"/>
<path fill="#ffffff" stroke="#ffffff" stroke-width="1.5" d="M41,-37C35,-37 29,-31 29,-25"/>
<path fill="#ffffff" stroke="#ffffff" stroke-width="1.5" d="M29,-13C29,-7 35,-1 41,-1"/>
<polyline fill="none" stroke="#2e3436" stroke-width="1.5" points="41,-1 95,-1 "/>
<path fill="none" stroke="#2e3436" stroke-width="1.5" d="M95,-1C101,-1 107,-7 107,-13"/>
<polyline fill="none" stroke="#2e3436" stroke-width="1.5" points="107,-13 107,-25 "/>
<path fill="none" stroke="#2e3436" stroke-width="1.5" d="M107,-25C107,-31 101,-37 95,-37"/>
<polyline fill="none" stroke="#2e3436" stroke-width="1.5" points="95,-37 41,-37 "/>
<path fill="none" stroke="#2e3436" stroke-width="1.5" d="M41,-37C35,-37 29,-31 29,-25"/>
<polyline fill="none" stroke="#2e3436" stroke-width="1.5" points="29,-25 29,-13 "/>
<path fill="none" stroke="#2e3436" stroke-width="1.5" d="M29,-13C29,-7 35,-1 41,-1"/>
<text text-anchor="middle" x="68" y="-25.8" font-family="FreeSans" font-size="8.00" fill="#1c2021">Node[2]</text>
<polyline fill="none" stroke="#2e3436" stroke-width="1.5" points="29,-19 107,-19 "/>
<text text-anchor="start" x="37" y="-7.8" font-family="FreeSans" font-size="8.00" fill="#1c2021">name = &#39;Sara&#39;</text>
</g>
<!-- N3 -->
<g id="node5" class="node"><title>N3</title>
<polygon fill="#ffffff" stroke="#ffffff" stroke-width="1.5" points="136,-365 180,-365 192,-377 192,-389 180,-401 136,-401 124,-389 124,-377 136,-365"/>
<path fill="#ffffff" stroke="#ffffff" stroke-width="1.5" d="M180,-365C186,-365 192,-371 192,-377"/>
<path fill="#ffffff" stroke="#ffffff" stroke-width="1.5" d="M192,-389C192,-395 186,-401 180,-401"/>
<path fill="#ffffff" stroke="#ffffff" stroke-width="1.5" d="M136,-401C130,-401 124,-395 124,-389"/>
<path fill="#ffffff" stroke="#ffffff" stroke-width="1.5" d="M124,-377C124,-371 130,-365 136,-365"/>
<polyline fill="none" stroke="#2e3436" stroke-width="1.5" points="136,-365 180,-365 "/>
<path fill="none" stroke="#2e3436" stroke-width="1.5" d="M180,-365C186,-365 192,-371 192,-377"/>
<polyline fill="none" stroke="#2e3436" stroke-width="1.5" points="192,-377 192,-389 "/>
<path fill="none" stroke="#2e3436" stroke-width="1.5" d="M192,-389C192,-395 186,-401 180,-401"/>
<polyline fill="none" stroke="#2e3436" stroke-width="1.5" points="180,-401 136,-401 "/>
<path fill="none" stroke="#2e3436" stroke-width="1.5" d="M136,-401C130,-401 124,-395 124,-389"/>
<polyline fill="none" stroke="#2e3436" stroke-width="1.5" points="124,-389 124,-377 "/>
<path fill="none" stroke="#2e3436" stroke-width="1.5" d="M124,-377C124,-371 130,-365 136,-365"/>
<text text-anchor="middle" x="158" y="-389.8" font-family="FreeSans" font-size="8.00" fill="#1c2021">Node[3]</text>
<polyline fill="none" stroke="#2e3436" stroke-width="1.5" points="124,-383 192,-383 "/>
<text text-anchor="start" x="132" y="-371.8" font-family="FreeSans" font-size="8.00" fill="#1c2021">name = &#39;Ed&#39;</text>
</g>
<!-- N3&#45;&gt;N1 -->
<g id="edge4" class="edge"><title>N3&#45;&gt;N1</title>
<path fill="none" stroke="#2e3436" stroke-width="2" d="M149.538,-364.773C144.018,-352.885 136.739,-337.208 130.673,-324.141"/>
<polygon fill="#2e3436" stroke="#2e3436" points="127.446,-317.191 133.665,-322.572 129.479,-320.382 131.058,-323.783 130.604,-323.994 130.151,-324.204 128.572,-320.803 127.543,-325.415 127.446,-317.191 127.446,-317.191"/>
<text text-anchor="middle" x="154.5" y="-338.8" font-family="FreeSans" font-size="8.00" fill="#2e3436">KNOWS</text>
</g>
<!-- N4 -->
<g id="node7" class="node"><title>N4</title>
<polygon fill="#ffffff" stroke="#ffffff" stroke-width="1.5" points="20.5,-365 71.5,-365 83.5,-377 83.5,-389 71.5,-401 20.5,-401 8.5,-389 8.5,-377 20.5,-365"/>
<path fill="#ffffff" stroke="#ffffff" stroke-width="1.5" d="M71.5,-365C77.5,-365 83.5,-371 83.5,-377"/>
<path fill="#ffffff" stroke="#ffffff" stroke-width="1.5" d="M83.5,-389C83.5,-395 77.5,-401 71.5,-401"/>
<path fill="#ffffff" stroke="#ffffff" stroke-width="1.5" d="M20.5,-401C14.5,-401 8.5,-395 8.5,-389"/>
<path fill="#ffffff" stroke="#ffffff" stroke-width="1.5" d="M8.5,-377C8.5,-371 14.5,-365 20.5,-365"/>
<polyline fill="none" stroke="#2e3436" stroke-width="1.5" points="20.5,-365 71.5,-365 "/>
<path fill="none" stroke="#2e3436" stroke-width="1.5" d="M71.5,-365C77.5,-365 83.5,-371 83.5,-377"/>
<polyline fill="none" stroke="#2e3436" stroke-width="1.5" points="83.5,-377 83.5,-389 "/>
<path fill="none" stroke="#2e3436" stroke-width="1.5" d="M83.5,-389C83.5,-395 77.5,-401 71.5,-401"/>
<polyline fill="none" stroke="#2e3436" stroke-width="1.5" points="71.5,-401 20.5,-401 "/>
<path fill="none" stroke="#2e3436" stroke-width="1.5" d="M20.5,-401C14.5,-401 8.5,-395 8.5,-389"/>
<polyline fill="none" stroke="#2e3436" stroke-width="1.5" points="8.5,-389 8.5,-377 "/>
<path fill="none" stroke="#2e3436" stroke-width="1.5" d="M8.5,-377C8.5,-371 14.5,-365 20.5,-365"/>
<text text-anchor="middle" x="46" y="-389.8" font-family="FreeSans" font-size="8.00" fill="#1c2021">Node[4]</text>
<polyline fill="none" stroke="#2e3436" stroke-width="1.5" points="8.5,-383 83.5,-383 "/>
<text text-anchor="start" x="16.5" y="-371.8" font-family="FreeSans" font-size="8.00" fill="#1c2021">name = &#39;Lisa&#39;</text>
</g>
<!-- N4&#45;&gt;N1 -->
<g id="edge6" class="edge"><title>N4&#45;&gt;N1</title>
<path fill="none" stroke="#2e3436" stroke-width="2" d="M61.8399,-364.773C72.4582,-352.555 86.5548,-336.334 98.0919,-323.059"/>
<polygon fill="#2e3436" stroke="#2e3436" points="103.191,-317.191 100.819,-325.066 101.109,-320.35 98.6487,-323.18 98.2713,-322.852 97.8939,-322.524 100.354,-319.694 95.7238,-320.638 103.191,-317.191 103.191,-317.191"/>
<text text-anchor="middle" x="99.5" y="-338.8" font-family="FreeSans" font-size="8.00" fill="#2e3436">KNOWS</text>
</g>
<!-- N7 -->
<g id="node10" class="node"><title>N7</title>
<polygon fill="#ffffff" stroke="#ffffff" stroke-width="1.5" points="11.5,-225 58.5,-225 70.5,-237 70.5,-249 58.5,-261 11.5,-261 -0.5,-249 -0.5,-237 11.5,-225"/>
<path fill="#ffffff" stroke="#ffffff" stroke-width="1.5" d="M58.5,-225C64.5,-225 70.5,-231 70.5,-237"/>
<path fill="#ffffff" stroke="#ffffff" stroke-width="1.5" d="M70.5,-249C70.5,-255 64.5,-261 58.5,-261"/>
<path fill="#ffffff" stroke="#ffffff" stroke-width="1.5" d="M11.5,-261C5.5,-261 -0.5,-255 -0.5,-249"/>
<path fill="#ffffff" stroke="#ffffff" stroke-width="1.5" d="M-0.5,-237C-0.5,-231 5.5,-225 11.5,-225"/>
<polyline fill="none" stroke="#2e3436" stroke-width="1.5" points="11.5,-225 58.5,-225 "/>
<path fill="none" stroke="#2e3436" stroke-width="1.5" d="M58.5,-225C64.5,-225 70.5,-231 70.5,-237"/>
<polyline fill="none" stroke="#2e3436" stroke-width="1.5" points="70.5,-237 70.5,-249 "/>
<path fill="none" stroke="#2e3436" stroke-width="1.5" d="M70.5,-249C70.5,-255 64.5,-261 58.5,-261"/>
<polyline fill="none" stroke="#2e3436" stroke-width="1.5" points="58.5,-261 11.5,-261 "/>
<path fill="none" stroke="#2e3436" stroke-width="1.5" d="M11.5,-261C5.5,-261 -0.5,-255 -0.5,-249"/>
<polyline fill="none" stroke="#2e3436" stroke-width="1.5" points="-0.5,-249 -0.5,-237 "/>
<path fill="none" stroke="#2e3436" stroke-width="1.5" d="M-0.5,-237C-0.5,-231 5.5,-225 11.5,-225"/>
<text text-anchor="middle" x="35" y="-249.8" font-family="FreeSans" font-size="8.00" fill="#1c2021">Node[7]</text>
<polyline fill="none" stroke="#2e3436" stroke-width="1.5" points="-0.5,-243 70.5,-243 "/>
<text text-anchor="start" x="7.5" y="-231.8" font-family="FreeSans" font-size="8.00" fill="#1c2021">name = &#39;Joe&#39;</text>
</g>
<!-- N4&#45;&gt;N7 -->
<g id="edge8" class="edge"><title>N4&#45;&gt;N7</title>
<path fill="none" stroke="#4e9a06" stroke-width="2" d="M44.5845,-364.984C42.6726,-340.652 39.2524,-297.122 37.0568,-269.178"/>
<polygon fill="#4e9a06" stroke="#4e9a06" points="36.445,-261.391 40.3972,-268.604 37.2373,-265.091 37.5311,-268.829 37.0326,-268.868 36.5341,-268.907 36.2404,-265.169 33.668,-269.133 36.445,-261.391 36.445,-261.391"/>
<text text-anchor="middle" x="56" y="-338.8" font-family="FreeSans" font-size="8.00" fill="#4e9a06">LIKES</text>
</g>
<!-- N7&#45;&gt;N2 -->
<g id="edge14" class="edge"><title>N7&#45;&gt;N2</title>
<path fill="none" stroke="#2e3436" stroke-width="2" d="M37.7005,-224.669C43.5648,-184.863 57.477,-90.4287 64.2142,-44.6978"/>
<polygon fill="#2e3436" stroke="#2e3436" points="65.3084,-37.27 67.5542,-45.1818 65.2565,-41.0528 64.7099,-44.7628 64.2152,-44.6899 63.7206,-44.617 64.2672,-40.9071 60.8763,-44.198 65.3084,-37.27 65.3084,-37.27"/>
<text text-anchor="middle" x="66.5" y="-142.8" font-family="FreeSans" font-size="8.00" fill="#2e3436">KNOWS</text>
</g>
<!-- N5&#45;&gt;N2 -->
<g id="edge10" class="edge"><title>N5&#45;&gt;N2</title>
<path fill="none" stroke="#2e3436" stroke-width="2" d="M107.934,-84.7733C100.649,-72.7751 91.0213,-56.9174 83.0444,-43.779"/>
<polygon fill="#2e3436" stroke="#2e3436" points="79.0446,-37.1912 85.8219,-41.8505 81.4182,-40.1371 83.3644,-43.3426 82.937,-43.6021 82.5096,-43.8616 80.5634,-40.6561 80.0521,-45.3537 79.0446,-37.1912 79.0446,-37.1912"/>
<text text-anchor="middle" x="110.5" y="-58.8" font-family="FreeSans" font-size="8.00" fill="#2e3436">KNOWS</text>
</g>
</g>
</svg>
